<?xml version="1.0" encoding="utf-8"?>
<svg width="128" height="128" viewBox="0 0 128 128" xmlns="http://www.w3.org/2000/svg">
<defs>
<linearGradient id="gradient_1" x1="0" y1="0" x2="0" y2="1">
<stop offset="0" stop-color="#F5F6FA"/>
<stop offset="1" stop-color="#A2AED0"/>
</linearGradient>
<linearGradient id="gradient_2" x1="0" y1="0" x2="0" y2="1">
<stop offset="0" stop-color="#1E4BF0"/>
<stop offset="1" stop-color="#4696F0"/>
</linearGradient>
<linearGradient id="gradient_3" x1="0" y1="0" x2="0" y2="1">
<stop offset="0" stop-color="#547CE4"/>
<stop offset="1" stop-color="#C8DCFA"/>
</linearGradient>
<linearGradient id="gradient_4" x1="0" y1="0" x2="0" y2="1">
<stop offset="0" stop-color="#FCFCFC"/>
<stop offset="1" stop-color="#D8DEF4"/>
</linearGradient>
<linearGradient id="gradient_5" x1="0" y1="0" x2="0" y2="1">
<stop offset="0" stop-color="#C7CFE5"/>
<stop offset="1" stop-color="#F2F4FA"/>
</linearGradient>
</defs>
<circle r="58" cx="64" cy="64" fill="#FFFFFF" stroke="url(#gradient_1)" stroke-width="4"/>
<circle r="48" cx="64" cy="64" fill="url(#gradient_2)" stroke="url(#gradient_3)" stroke-width="4"/>
<circle r="36" cx="64" cy="64" fill="url(#gradient_4)"/>
<circle r="18" cx="64" cy="64" fill="url(#gradient_5)"/>
<path d="M0 4C0 2 2 0 4 0L14 0C16 0 18 2 18 4L18 29L14 32.5L18 36L18 48C18 50 16 52 14 52L4 52C2 52 0 50 0 48L0 23L4 19.5L0 16Z" fill="#191B30" transform="translate(55 38)"/>
</svg>
