<?xml version="1.0" encoding="utf-8"?>
<svg width="128" height="128" viewBox="0 0 128 128" xmlns="http://www.w3.org/2000/svg">
<rect width="104" height="104" rx="8" x="12" y="12" fill="#00415A"/>
<path d="M29 0L35 0C35 0 51 41.3 51 41.3C48 43.2 44.4 44.5 40.5 45.2C40.5 45.2 32 24 32 24L22.8 47C25.7 47.6 29 48 32 48C47 48 59.5 41 59.5 32C59.5 27 55.8 22.8 49.9 19.8C49.3 20.56 48.5 21 47.5 21C45.8 21 44.5 19.7 44.5 18C44.5 16.3 45.8 15 47.5 15C49 15 50.3 16.2 50.5 17.7C58.7 21.3 64 27 64 34C64 40 60 45 54 48.5C50.8 50.4 47.2 51.8 43.5 52.7C40 53.6 36 54 32 54C28 54 24 53.5 20.5 52.7L16 64L4 64L10 48.5C4 45 0 40 0 34C0 25 10 17 23 15ZM60 64L48 64L44.2 54.6C48 53.7 51.5 52.3 54.7 50.4ZM22.35 17C12 19.3 4.5 25 4.5 32C4.5 36 7 40 12 43Z" fill="#FFFFFF" fill-rule="evenodd" transform="translate(32 32)"/>
</svg>
