<?xml version="1.0" encoding="utf-8"?>
<svg width="128" height="128" viewBox="0 0 128 128" fill="none" xmlns="http://www.w3.org/2000/svg">
<defs>
<linearGradient id="gradient" gradientUnits="userSpaceOnUse" x1="64" y1="0" x2="128" y2="110">
<stop offset="0" stop-color="#FB3333"/>
<stop offset="1" stop-color="#920D1B"/>
</linearGradient>
</defs>
<path d="M63.9818 0C63.9818 0 0 110 0 110C4.70182 110 3.96208 106.688 6.18831 106.688C8.54342 106.694 8.1035 108.343 10.3227 108.343C11.4631 108.343 12.378 107.222 12.3766 104.444C12.3766 100.74 13.3027 98.8593 14.4445 98.8593C15.5863 98.8593 16.5124 100.51 16.5124 102.157C16.5124 104.232 17.4399 105.88 18.5803 105.88C19.7208 105.88 20.6496 103.073 20.6496 99.6073C20.6496 99.6073 20.6356 95.6351 20.6356 95.6351C20.6356 90.8427 21.5617 86.9595 22.7035 86.9595C23.8454 86.9595 24.7728 88.6376 24.7714 94.0668C24.7714 98.3824 25.6989 102.684 26.8393 102.684C27.9798 102.684 28.91 97.6761 28.9086 89.64C28.9086 80.3526 29.8193 74.352 30.9611 74.352C32.103 74.352 33.0304 80.3582 33.029 86.2838C33.029 93.2034 33.9565 100.017 35.0984 100.017C36.2402 100.017 37.1677 93.202 37.1663 83.7492C37.1663 73.597 38.0783 66.2186 39.2201 66.2186C40.3592 66.2186 41.2895 73.5984 41.2881 82.0766C41.2881 90.9747 42.2141 98.698 43.356 98.698C44.4978 98.698 45.4239 90.9803 45.4239 81.0951C45.4239 71.2112 46.3359 63.3461 47.4778 63.3461C48.6196 63.3461 49.5457 71.2099 49.5457 80.9324C49.5457 90.6564 50.4731 98.5075 51.6136 98.5075C52.754 98.5075 53.6829 90.6522 53.6829 81.2717C53.6829 72.0927 54.5936 64.4 55.7354 64.4C56.8772 64.4 57.8033 72.0885 57.8033 82.1211C57.8033 91.7867 58.7322 99.1819 59.8726 99.1819C61.0116 99.1819 61.9419 91.7881 61.9405 83.4267C61.9405 75.5699 62.8526 68.5933 63.993 68.5933C65.1334 68.5933 66.0637 75.5824 66.0623 85.1131C66.0623 94.0293 66.9884 100.501 68.1302 100.501C69.272 100.501 70.1995 94.0265 70.1981 87.061C70.1981 80.785 71.1102 74.8525 72.252 74.8525C73.3939 74.8525 74.3213 80.7823 74.3199 89.2007C74.3199 96.8781 75.2474 102.202 76.3878 102.202C77.5283 102.202 78.4571 96.8837 78.4571 91.4586C78.4571 86.7968 79.3678 82.092 80.5096 82.092C81.6515 82.092 82.5775 86.7941 82.5775 93.7457C82.5775 99.9312 83.505 104.019 84.6469 104.019C85.7887 104.019 86.7148 100.423 86.7148 96.5013C86.7148 92.4541 87.6422 89.3481 88.7827 89.3481C89.9231 89.3481 90.8366 92.8253 90.8366 98.185C90.8366 102.836 91.7626 105.747 92.9045 105.747C94.0463 105.747 94.9724 103.339 94.9724 100.91C94.9724 98.4061 95.8998 95.9563 97.0417 95.9563C98.1807 95.9563 99.0942 98.3241 99.0942 102.156C99.0942 105.377 100.022 107.256 101.163 107.256C102.305 107.256 103.233 105.947 103.233 104.428C103.233 102.428 104.159 101.511 105.301 101.511C106.442 101.511 107.355 102.883 107.355 105.423C107.355 107.425 108.281 108.471 109.422 108.471C111.579 108.471 111.287 105.805 113.557 105.789C116.041 105.789 115.312 109.363 117.677 109.363C119.382 109.363 120.702 108.711 121.813 108.704C123.657 108.704 123.786 109.994 128 109.994C128 109.994 63.9846 0 63.9846 0L63.9818 0L63.9818 0Z" fill="url(#gradient)" transform="translate(0 9)"/>
</svg>
