<?xml version="1.0" encoding="utf-8"?>
<svg width="128" height="128" viewBox="0 0 128 128" xmlns="http://www.w3.org/2000/svg">
<defs>
<linearGradient id="aqua" x1="0" y1="0" x2="0" y2="1">
<stop offset="0" stop-color="#69C4C6"/>
<stop offset="0.5" stop-color="#04A0A5"/>
<stop offset="1" stop-color="#147F82"/>
</linearGradient>
<filter id="shadow" x="-50%" y="-50%" width="200%" height="200%">
<feDropShadow dx="0" dy="3" flood-color="#000000" flood-opacity="40%" stdDeviation="1"/>
</filter>
</defs>
<rect width="104" height="104" rx="8" x="12" y="12" fill="url(#aqua)"/>
<g filter="url(#shadow)">
<path d="M0 14C0 6.3 6.3 0 14 0C33 0 33 28 52 28C59.7 28 66 21.7 66 14C66 6.3 59.7 0 52 0C33 0 33 28 14 28C6.3 28 0 21.7 0 14Z" fill="none" stroke="#FFFFFF" stroke-width="6" transform="translate(31 50)"/>
<g fill="#FFFFFF">
<rect width="12" height="3" transform="translate(40 62)"/>
<path d="M3 0L6 0L6 3L9 3L9 6L6 6L6 9L3 9L3 6L0 6L0 3L3 3Z" transform="translate(77 59)"/>
</g></g></svg>
