<?xml version="1.0" encoding="utf-8"?>
<svg width="128" height="128" viewBox="0 0 128 128" xmlns="http://www.w3.org/2000/svg">
<defs>
<linearGradient id="pages" gradientUnits="userSpaceOnUse" x1="78" y1="0" x2="86" y2="0">
<stop offset="0" stop-color="#DEDDDA"/>
<stop offset="0.5" stop-color="#FFFFFF"/>
<stop offset="1" stop-color="#C0BFBC"/>
</linearGradient>
<linearGradient id="yellow" x1="0" y1="0" x2="0" y2="1">
<stop offset="0" stop-color="#FFAD00"/>
<stop offset="1" stop-color="#FF7900"/>
</linearGradient>
<clipPath id="cover">
<rect width="80" height="102" x="28" y="8"/>
</clipPath><clipPath id="c1">
<path d="M29 8L29 25L43.3 110L108 110L108 8Z"/>
</clipPath><clipPath id="c2">
<path d="M0 0L0 95L39.35 95Z" transform="translate(29 25)"/>
</clipPath><clipPath id="c3">
<path d="M95 112L0 17L79 17L79 0L0 0L0 17L39.35 112Z" transform="translate(29 8)"/>
</clipPath><clipPath id="c4">
<path d="M0 0L79 0L79 58L0 17L79 80.5L79 96L0 17L61 102L0 102L0 17Z" transform="translate(29 8)"/>
</clipPath>
</defs>
<path d="M0 0L0 92C0 92 80 92 80 92C84.4 92 88 88.4 88 84C88 84 88 8 88 8C88 3.6 84.4 0 80 0C80 0 0 0 0 0Z" fill="#A94F00" transform="translate(20 28)"/>
<path d="M0 0L0 70C0 70 78 70 78 70C82.4 70 86 66.4 86 62C86 62 86 8 86 8C86 3.6 82.4 0 78 0C78 0 0 0 0 0Z" fill="url(#pages)" transform="translate(22 48)"/>
<path d="M0 0L0 84C0 84 80 84 80 84C84.4 84 88 80.4 88 76C88 76 88 8 88 8C88 3.6 84.4 0 80 0C80 0 0 0 0 0Z" fill="#A94F00" transform="translate(20 28)"/>
<path d="M0 0L8 0L8 2L2 2L2 8L8 8L8 10L0 10Z" fill="#000000" opacity="0.4" transform="translate(20 110)"/>
<path d="M0 0L0 102C0 102 80 102 80 102C84.4 102 88 98.4 88 94C88 94 88 8 88 8C88 3.6 84.4 0 80 0C80 0 0 0 0 0Z" fill="url(#yellow)" transform="translate(20 8)"/>
<rect width="8" height="102" x="20" y="8" fill="#A94F00"/>
<rect width="2" height="102" x="22" y="8" fill="#FFFFFF" opacity="0.2"/>
<g clip-path="url(#cover)" fill="none" stroke="#FFFFFF" stroke-width="2">
<circle r="70" cx="29" cy="25" clip-path="url(#c1)"/>
<circle r="60" cx="29" cy="25" clip-path="url(#c4)"/>
<circle r="48" cx="29" cy="25" clip-path="url(#c3)"/>
<circle r="39" cx="29" cy="25" clip-path="url(#c2)"/>
<circle r="30" cx="29" cy="25"/>
<circle r="14" cx="29" cy="25"/>
<line x1="29" y1="39" x2="29" y2="78"/>
<line x1="29" y1="55" x2="29" y2="73" transform="rotate(-67.5 29 25)"/>
<line x1="29" y1="55" x2="29" y2="64" transform="rotate(-112.5 29 25)"/>
<line x1="29" y1="39" x2="29" y2="47" transform="rotate(-22.5 29 25)"/>
<line x1="29" y1="39" x2="29" y2="47" transform="rotate(-135 29 25)"/>
<line x1="39" y1="35" x2="71.5" y2="67.5"/>
<line x1="29" y1="85" x2="29" y2="95"/>
<line x1="29" y1="8" x2="29" y2="11"/>
<line x1="43" y1="25" x2="77" y2="25"/>
<line x1="89" y1="25" x2="99" y2="25"/>
</g></svg>
