<?xml version="1.0" encoding="utf-8"?>
<svg width="128" height="128" viewBox="0 0 128 128" xmlns="http://www.w3.org/2000/svg">
<linearGradient id="corners">
<stop offset="2%" stop-color="#C0BFBC"/>
<stop offset="6%" stop-color="#DEDDDA"/>
<stop offset="12%" stop-color="#C0BFBC"/>
<stop offset="88%" stop-color="#C0BFBC"/>
<stop offset="94%" stop-color="#DEDDDA"/>
<stop offset="98%" stop-color="#C0BFBC"/>
</linearGradient>
<linearGradient id="pages">
<stop offset="40%" stop-color="#F6F5F4"/>
<stop offset="45%" stop-color="#FFFFFF"/>
<stop offset="50%" stop-color="#DEDDDA"/>
<stop offset="55%" stop-color="#FFFFFF"/>
<stop offset="60%" stop-color="#F6F5F4"/>
</linearGradient>
<rect width="112" height="78" rx="8" x="8" y="40" fill="#613583"/>
<rect width="112" height="76" rx="8" x="8" y="40" fill="url(#corners)"/>
<path d="M8 0C3.6 0 0 3.6 0 8L0 68C0 72.4 3.6 76 8 76L44 76C50.6 76 56 81.4 56 88C56 81.4 61.4 76 68 76L104 76C108.4 76 112 72.4 112 68L112 8C112 3.6 108.4 0 104 0L68 0C61.4 0 56 5.4 56 12C56 5.4 50.6 0 44 0Z" fill="url(#pages)" transform="translate(8 28)"/>
<path d="M16 0L16 32L8 24L0 32L0 0Z" fill="#E01B24" transform="translate(84 28)"/>
<g fill="#000000" opacity="24%">
<path d="M46 0C46 4 42.6 7 38.5 7L0 7L38 8L38.5 8C41.75 8 44.5 6.5 46 3.5Z" transform="translate(74 100)"/>
<path d="M46 0C46 4 42.6 7 38.5 7L0 7L38 8L38.5 8C41.75 8 44.5 6.5 46 3.5Z" transform="translate(74 103)"/>
<path d="M46 0C46 4 42.6 7 38.5 7L0 7L38 8L38.5 8C41.75 8 44.5 6.5 46 3.5Z" transform="translate(74 106)"/>
</g></svg>
