<?xml version="1.0" encoding="utf-8"?>
<svg width="128" height="128" viewBox="0 0 128 128" fill="none" xmlns="http://www.w3.org/2000/svg">
  <defs>
    <radialGradient id="gradient_1" gradientUnits="userSpaceOnUse" cx="0" cy="0" r="1" gradientTransform="matrix(42 0 0 21.579 36.5 5.524)">
      <stop offset="0" stop-color="#2758A8" />
      <stop offset="1" stop-color="#13346F" stop-opacity="0" />
    </radialGradient>
    <radialGradient id="gradient_2" gradientUnits="userSpaceOnUse" cx="0" cy="0" r="1" gradientTransform="matrix(-27.402 0 -0 -25.952 16.57 24.445)">
      <stop offset="0" stop-color="#377EF0" />
      <stop offset="1" stop-color="#2758A8" />
    </radialGradient>
    <radialGradient id="gradient_3" gradientUnits="userSpaceOnUse" cx="0" cy="0" r="1" gradientTransform="matrix(17 0 0 26.673 -0.445 23.828)">
      <stop offset="0" stop-color="#13346F" />
      <stop offset="1" stop-color="#0D254E" />
      <stop offset="1" stop-color="#D6D6D4" stop-opacity="0.965" />
    </radialGradient>
    <radialGradient id="gradient_4" gradientUnits="userSpaceOnUse" cx="0" cy="0" r="1" gradientTransform="matrix(-26 0 -0 -25.324 16.57 25.445)">
      <stop offset="0" stop-color="#377EF0" />
      <stop offset="1" stop-color="#2758A8" />
    </radialGradient>
    <radialGradient id="gradient_5" gradientUnits="userSpaceOnUse" cx="0" cy="0" r="1" gradientTransform="matrix(-17 0 -0 -26.674 11.57 23.828)">
      <stop offset="0" stop-color="#13346F" />
      <stop offset="1" stop-color="#0D254E" />
    </radialGradient>
  </defs>
  <g>
    <path d="M40.8273 0C25.3513 0 10.7733 5.511 1.7263 17.445C-0.203699 19.995 -1.2657 26.211 2.6833 28.488C2.6833 28.488 5.9293 30.285 5.9293 30.285C6.48174 30.6058 7.13916 30.6933 7.75631 30.5284C8.37346 30.3635 8.89953 29.9596 9.2183 29.406C15.7413 18.106 27.4283 9.945 40.8283 9.945C54.2223 9.945 65.9093 18.105 72.4333 29.406C72.7524 29.9592 73.2785 30.3627 73.8955 30.5276C74.5125 30.6925 75.1697 30.6052 75.7223 30.285C75.7223 30.285 78.7843 28.73 78.7843 28.73C83.4213 26.05 81.2773 19.804 80.0693 17.715C71.0423 5.613 56.4023 0 40.8283 0C40.8283 0 40.8273 0 40.8273 0Z" fill="#13346F" transform="translate(23.118 16.762)" />
    <path d="M0 44.734C0 44.734 0 39.922 0 39.922C0 17.871 17.876 0 39.923 0C61.973 0 79.845 17.87 79.845 39.922C79.845 39.922 79.845 44.734 79.845 44.734" fill="none" stroke-width="2.714" stroke="#0D254E" stroke-linejoin="bevel" transform="translate(23.96 22.266)" />
    <path d="M40.2412 0C25.0578 0.00299454 10.761 7.15121 1.64824 19.296C1.64824 19.296 -2.68376 26.308 2.69824 29.417C2.69824 29.417 4.41824 30.41 4.41824 30.41C5.59724 31.09 7.10824 30.687 7.79224 29.503C14.4819 17.9062 26.8543 10.7634 40.2422 10.769C53.6285 10.7641 65.9987 17.907 72.6862 29.503C73.3696 30.6855 74.8815 31.0914 76.0652 30.41C76.0652 30.41 77.8302 29.386 77.8302 29.386C82.9792 26.601 78.8182 19.281 78.8182 19.281C69.7058 7.14636 55.4164 0.00448227 40.2412 0Z" fill="#377EF0" transform="translate(23.704 14.02)" />
    <path d="M37.445 0.00100517C19.246 0.00100517 7.835 9.37901 0.148001 22.7C0.0900002 22.801 0.0390015 22.907 0 23.016C0 23.016 1.621 23.954 1.621 23.954C2.801 24.634 4.313 24.231 4.996 23.047C11.6857 11.4502 24.058 4.30742 37.446 4.313C50.8322 4.30812 63.2024 11.451 69.89 23.047C70.5734 24.2296 72.0853 24.6354 73.269 23.954C73.269 23.954 74.889 23.016 74.889 23.016C74.8463 22.907 74.7954 22.8014 74.737 22.7C67.05 9.38 55.64 0 37.444 0C37.444 0 37.445 0.00100517 37.445 0.00100517Z" fill="url(#gradient_1)" transform="translate(26.5 20.476)" />
    <path d="M31.094 15.547C31.094 24.133 24.133 31.094 15.547 31.094C6.961 31.094 0 24.133 0 15.547C0 6.96099 6.96 0 15.547 0C24.134 0 31.094 6.96 31.094 15.547Z" fill="#0D254E" transform="translate(4 75.375)" />
    <path d="M0 15.547C0 24.133 6.961 31.094 15.547 31.094C24.133 31.094 31.094 24.133 31.094 15.547C31.094 6.96099 24.134 0 15.547 0C6.96001 0 7.62939e-06 6.96 7.62939e-06 15.547C7.62939e-06 15.547 0 15.547 0 15.547Z" fill="#0D254E" transform="translate(92.906 75.375)" />
    <path d="M15.528 0C10.887 0 6.25 1.36 2.344 3.867C0.883433 4.80437 0.000192642 6.4205 0 8.156C0 8.156 0 42.266 0 42.266C0 43.9965 0.879795 45.6089 2.33549 46.5457C6.2689 49.0754 10.8434 50.4283 15.52 50.445C15.52 50.445 15.535 50.445 15.535 50.445C21.133 50.437 25.563 48.433 29.883 44.867C31.056 43.8988 31.7361 42.458 31.738 40.937C31.738 40.937 31.738 9.505 31.738 9.505C31.7371 7.98222 31.055 6.53908 29.8784 5.57137C25.5584 2.00837 21.1334 0.00537109 15.5314 0.00137329C15.5314 0.00137329 15.528 0 15.528 0Z" fill="url(#gradient_2)" transform="translate(10.832 65.555)" />
    <path d="M1.90735e-05 0C1.90735e-05 0 1.90735e-05 49.21 1.90735e-05 49.21C3.36002 48.363 6.34002 46.668 9.27002 44.25C10.4422 43.2812 11.1222 41.8407 11.125 40.32C11.125 40.32 11.125 8.888 11.125 8.888C11.1222 7.36498 10.4403 5.92261 9.265 4.95399C6.34 2.53999 3.36 0.843987 0 0.000984192C0 0.000984192 1.90735e-05 0 1.90735e-05 0Z" fill="url(#gradient_3)" transform="translate(31.445 66.172)" />
    <path d="M16.21 0C20.851 0 25.488 1.36 29.394 3.867C30.8546 4.80437 31.7378 6.42051 31.738 8.156C31.738 8.156 31.738 42.266 31.738 42.266C31.738 43.9965 30.8582 45.6089 29.4025 46.5457C25.4691 49.0754 20.8946 50.4283 16.218 50.445C16.218 50.445 16.203 50.445 16.203 50.445C10.605 50.437 6.175 48.433 1.855 44.867C0.681999 43.8988 0.00189209 42.458 0 40.937C0 40.937 0 9.505 0 9.505C0 7.981 0.682999 6.54 1.86 5.571C6.18 2.008 10.605 0.00499725 16.207 0C16.207 0 16.21 0 16.21 0Z" fill="url(#gradient_4)" transform="translate(85.43 65.555)" />
    <path d="M11.125 0C11.125 0 11.125 49.21 11.125 49.21C7.76501 48.363 4.785 46.668 1.85501 44.25C0.682793 43.2812 0.00287628 41.8407 0 40.32C0 40.32 0 8.888 0 8.888C0.00278473 7.36498 0.684753 5.92261 1.86002 4.95399C4.78503 2.53999 7.76502 0.843987 11.125 0.000984192C11.125 0.000984192 11.125 0 11.125 0Z" fill="url(#gradient_5)" transform="translate(85.43 66.172)" />
    <path d="M0 23L8 23L18 0L28 39L36 23L44 23" fill="none" stroke-width="6" stroke="#FFDC6E" transform="translate(42 71)" />
    <path d="M0 23L8 23L18 0L28 39L36 23L44 23" fill="none" stroke-width="2" stroke="#F83333" transform="translate(42 71)" />
  </g>
</svg>
