<?xml version="1.0" encoding="utf-8"?>
<svg width="128" height="128" viewBox="0 0 128 128" xmlns="http://www.w3.org/2000/svg">
<defs>
<clipPath id="squircle">
<rect width="104" height="104" rx="8" x="12" y="12"/>
</clipPath>
<linearGradient id="dimred" x1="0" y1="0" x2="0" y2="1">
<stop offset="0" stop-color="#E74C3C"/>
<stop offset="0.5" stop-color="#DA4453"/>
</linearGradient>
<linearGradient id="redder" x1="0" y1="0" x2="0" y2="1">
<stop offset="0" stop-color="#C0392B"/>
<stop offset="1" stop-color="#C0392B" stop-opacity="0"/>
</linearGradient>
<filter id="shadow">
<feDropShadow dx="0" dy="4" flood-color="#A83226" stdDeviation="0"/>
</filter>
</defs>
<g clip-path="url(#squircle)">
<rect width="104" height="104" x="12" y="12" fill="url(#dimred)"/>
<rect width="104" height="52" x="12" y="64" fill="url(#redder)"/>
</g><g stroke-width="5" filter="url(#shadow)">
<g stroke="#DC8689">
<line x1="12" y1="64" x2="36" y2="64"/>
<line x1="39" y1="64" x2="44" y2="64"/>
<line x1="88" y1="64" x2="93" y2="64"/>
<line x1="96" y1="64" x2="116" y2="64"/>
<circle r="37.5" cx="64" cy="64" fill="none"/>
</g><g stroke="#FFFFFF">
<line x1="50.5" y1="39" x2="50.5" y2="89"/>
<line x1="58.5" y1="44" x2="58.5" y2="84"/>
<line x1="66.5" y1="49" x2="66.5" y2="79"/>
<line x1="74.5" y1="54" x2="74.5" y2="74"/>
<line x1="82.5" y1="59" x2="82.5" y2="69"/>
</g></g></svg>
