<?xml version="1.0" encoding="utf-8"?>
<svg width="128" height="128" viewBox="0 0 128 128" xmlns="http://www.w3.org/2000/svg">
<defs>
<clipPath id="tablet">
<rect width="112" height="88" rx="8" x="8" y="28"/>
</clipPath>
<linearGradient id="blue" gradientUnits="userSpaceOnUse" x1="24" y1="0" x2="104" y2="0">
<stop offset="0" stop-color="#8EB2DC"/>
<stop offset="1" stop-color="#2D4A6C"/>
</linearGradient>
</defs>
<g clip-path="url(#tablet)">
<g stroke="#484848" stroke-width="2">
<rect width="110" height="78" rx="7.5" x="9" y="37" fill="#282828"/>
<line x1="24" y1="89" x2="104" y2="89" stroke="url(#blue)"/>
<line x1="24" y1="69" x2="104" y2="69" stroke="url(#blue)"/>
<line x1="8" y1="45" x2="120" y2="45"/>
</g><g transform="translate(8 28)">
<rect width="112" height="16" fill="#FFFFFF"/>
<g fill="#141414">
<path d="M0 0L13 0L18 8L13 16L0 16L5 8Z" transform="translate(3 0)"/>
<path d="M0 0L13 0L18 8L13 16L0 16L5 8Z" transform="translate(28 0)"/>
<path d="M0 0L13 0L18 8L13 16L0 16L5 8Z" transform="translate(53 0)"/>
<path d="M0 0L13 0L18 8L13 16L0 16L5 8Z" transform="translate(78 0)"/>
<path d="M0 0L9 0L9 16L0 16L5 8Z" transform="translate(103 0)"/>
</g>
<rect width="112" height="8" fill="#FFFFFF" opacity="0.3"/>
<path d="M0 0L5.5 0L16 10.5L16 16L0 16Z" fill="#3D3C42"/>
<g fill="#CECCCA">
<circle r="1" transform="translate(3 5)"/>
<circle r="1" transform="translate(3 13)"/>
<circle r="1" transform="translate(13 13)"/>
</g></g></g></svg>
