<?xml version="1.0" encoding="utf-8"?>
<svg width="128" height="128" viewBox="0 0 128 128" fill="none" xmlns="http://www.w3.org/2000/svg">
  <defs>
    <linearGradient id="gradient_1" gradientUnits="userSpaceOnUse" x1="-0" y1="60" x2="80.001" y2="60">
      <stop offset="0" stop-color="#3D3846" />
      <stop offset="0.045" stop-color="#5E5C64" />
      <stop offset="0.091" stop-color="#3D3846" />
      <stop offset="0.909" stop-color="#3D3846" />
      <stop offset="0.955" stop-color="#5E5C64" />
      <stop offset="1" stop-color="#3D3846" />
    </linearGradient>
    <linearGradient id="gradient_2" gradientUnits="userSpaceOnUse" x1="0.25" y1="26.25" x2="80" y2="26.25">
      <stop offset="0" stop-color="#424048" />
      <stop offset="0.047" stop-color="#F6F5F4" />
      <stop offset="0.097" stop-color="#949390" />
      <stop offset="0.9" stop-color="#D5D3CF" />
      <stop offset="0.95" stop-color="#F6F5F4" />
      <stop offset="1" stop-color="#424048" />
    </linearGradient>
    <linearGradient id="gradient_3" gradientUnits="userSpaceOnUse" x1="62.75" y1="99.25" x2="56.75" y2="2">
      <stop offset="0" stop-color="#F6F5F4" />
      <stop offset="1" stop-color="#FFFFFF" />
    </linearGradient>
    <radialGradient id="gradient_4" gradientUnits="userSpaceOnUse" cx="0" cy="0" r="1" gradientTransform="matrix(4 0 0 4 4 2.895)">
      <stop offset="0" stop-color="#000000" stop-opacity="0.251" />
      <stop offset="1" stop-color="#000000" stop-opacity="0.031" />
    </radialGradient>
    <radialGradient id="gradient_5" gradientUnits="userSpaceOnUse" cx="0" cy="0" r="1" gradientTransform="matrix(2.751 0 0 2.751 2 0.939)">
      <stop offset="0" stop-color="#949390" />
      <stop offset="1" stop-color="#424048" />
    </radialGradient>
    <linearGradient id="gradient_6" gradientUnits="userSpaceOnUse" x1="34.25" y1="74.25" x2="34.25" y2="14.961">
      <stop offset="0" stop-color="#C0BFBC" />
      <stop offset="1" stop-color="#F6F5F4" />
    </linearGradient>
    <linearGradient id="gradient_7" gradientUnits="userSpaceOnUse" x1="12.476" y1="15.638" x2="18.504" y2="26.503">
      <stop offset="0" stop-color="#9C650C" />
      <stop offset="1" stop-color="#8F5902" />
    </linearGradient>
    <linearGradient id="gradient_8" gradientUnits="userSpaceOnUse" x1="7.12" y1="15.89" x2="17.993" y2="9.629">
      <stop offset="0" stop-color="#C4A000" />
      <stop offset="0.5" stop-color="#D8C203" />
      <stop offset="1" stop-color="#FDEB68" />
    </linearGradient>
    <radialGradient id="gradient_9" gradientUnits="userSpaceOnUse" cx="0" cy="0" r="1" gradientTransform="matrix(12.333 -5.941 14.731 30.579 9 5.145)">
      <stop offset="0" stop-color="#FEF088" />
      <stop offset="0.5" stop-color="#FDE63A" />
      <stop offset="1" stop-color="#DAC203" />
    </radialGradient>
    <linearGradient id="gradient_10" gradientUnits="userSpaceOnUse" x1="13.827" y1="29.913" x2="2.653" y2="6.697">
      <stop offset="0" stop-color="#C4A000" />
      <stop offset="1" stop-color="#C4A000" stop-opacity="0" />
    </linearGradient>
    <linearGradient id="gradient_11" gradientUnits="userSpaceOnUse" x1="17.501" y1="24.937" x2="1.861" y2="2.039">
      <stop offset="0" stop-color="#C4A000" />
      <stop offset="1" stop-color="#C4A000" stop-opacity="0" />
    </linearGradient>
    <linearGradient id="gradient_12" gradientUnits="userSpaceOnUse" x1="13.348" y1="24.396" x2="-0.802" y2="3.786">
      <stop offset="0" stop-color="#C4A000" />
      <stop offset="1" stop-color="#C4A000" stop-opacity="0" />
    </linearGradient>
    <linearGradient id="gradient_13" gradientUnits="userSpaceOnUse" x1="13.277" y1="22.062" x2="0.535" y2="-0.008">
      <stop offset="0" stop-color="#C4A000" />
      <stop offset="1" stop-color="#C4A000" stop-opacity="0" />
    </linearGradient>
    <linearGradient id="gradient_14" gradientUnits="userSpaceOnUse" x1="13.88" y1="12.751" x2="1.246" y2="1.561">
      <stop offset="0" stop-color="#C4A000" />
      <stop offset="1" stop-color="#C4A000" stop-opacity="0" />
    </linearGradient>
    <linearGradient id="gradient_15" gradientUnits="userSpaceOnUse" x1="24.602" y1="5.977" x2="7.367" y2="13.691">
      <stop offset="0" stop-color="#6B0000" />
      <stop offset="0.5" stop-color="#B20000" />
      <stop offset="1" stop-color="#6B0000" />
    </linearGradient>
    <radialGradient id="gradient_16" gradientUnits="userSpaceOnUse" cx="0" cy="0" r="1" gradientTransform="matrix(2.751 0 0 2.751 2 0.939)">
      <stop offset="0" stop-color="#744701" />
      <stop offset="1" stop-color="#422900" />
    </radialGradient>
  </defs>
    <path id="rect1480-3-7-1-2" d="M0 16L0 8C0 5.79086 0.781048 3.90524 2.34315 2.34315C3.90524 0.781048 5.79086 0 8 0L72 0C74.2091 0 76.0948 0.781048 77.6569 2.34315C79.2189 3.90524 80 5.79086 80 8L80 62C80 64.2091 79.2189 66.0948 77.6569 67.6569C76.0948 69.2189 74.2091 70 72 70L8 70C5.79086 70 3.90524 69.2189 2.34315 67.6568C0.781048 66.0947 0 64.2091 0 62L0 16Z" fill="url(#gradient_1)" fill-rule="evenodd" transform="translate(24 50)" />
    <path id="rect1480-3-7-1" d="M0 16L0 8C0 5.79086 0.781048 3.90524 2.34315 2.34315C3.90524 0.781048 5.79086 0 8 0L72 0C74.2091 0 76.0948 0.781048 77.6569 2.34315C79.2189 3.90524 80 5.79086 80 8L80 62C80 64.2091 79.2189 66.0948 77.6569 67.6569C76.0948 69.2189 74.2091 70 72 70L8 70C5.79086 70 3.90524 69.2189 2.34315 67.6568C0.781048 66.0947 0 64.2091 0 62L0 16Z" fill="url(#gradient_2)" fill-rule="evenodd" transform="translate(24 44)" />
    <path id="rect1480-6-7" d="M0 16.9143L0 8.45714C0 6.12177 0.781048 4.1284 2.34315 2.47704C3.90524 0.82568 5.79086 0 8 0L72 0C74.2091 0 76.0948 0.82568 77.6569 2.47704C79.2189 4.1284 80 6.12177 80 8.45714L80 95.5429C80 97.8782 79.2189 99.8716 77.6569 101.523C76.0948 103.174 74.2091 104 72 104L8 104C5.79086 104 3.90524 103.174 2.34315 101.523C0.781048 99.8716 0 97.8782 0 95.5429L0 16.9143Z" fill="url(#gradient_3)" fill-rule="evenodd" transform="translate(24 8)" />
    <g id="g1036" transform="translate(28 100)">
      <path id="path1137-3" d="M0 4C0 1.79086 1.79086 0 4 0C6.20914 0 8 1.79086 8 4C8 6.20914 6.20914 8 4 8C1.79086 8 0 6.20914 0 4Z" fill="url(#gradient_4)" fill-rule="evenodd" />
      <path id="path1137" d="M0 2C0 0.895431 0.895431 0 2 0C3.10457 0 4 0.895431 4 2C4 3.10457 3.10457 4 2 4C0.895431 4 0 3.10457 0 2Z" fill="url(#gradient_5)" fill-rule="evenodd" transform="translate(2 2)" />
    </g>
    <path id="path905" d="M14 0C11.784 0 10 1.784 10 4C10 7.31371 7.31371 10 4 10C1.784 10 1.90735e-06 11.784 1.90735e-06 14C1.90735e-06 14 1.90735e-06 22 1.90735e-06 22C1.90735e-06 24.216 1.784 26 4 26C7.31371 26 10 28.6863 10 32C9.997 33.4771 9.44985 34.9014 8.4624 36C2.54023 42.5926 0.0141811 51.138 0 60C0 79.8822 16.1178 96 36 96C55.8822 96 72 79.8822 72 60C71.9841 51.1372 69.4611 42.5917 63.5366 36C62.5495 34.9012 62.0024 33.477 62 32C62 28.6863 64.6863 26 68 26C70.216 26 72 24.216 72 22C72 22 72 14 72 14C72 11.784 70.216 10 68 10C64.6863 10 62 7.31371 62 4C62 1.784 60.216 0 58 0C58 0 14 0 14 0ZM36 56C39.3137 56 42 58.6863 42 62C42 65.3137 39.3137 68 36 68C32.6863 68 30 65.3137 30 62C30 58.6863 32.6863 56 36 56C36 56 36 56 36 56Z" fill="#9A9996" transform="translate(28 12)" />
    <path id="path905-2" d="M14 0C11.784 0 10 1.784 10 4C10 7.31371 7.31371 10 4 10C1.784 10 1.90735e-06 11.784 1.90735e-06 14C1.90735e-06 14 1.90735e-06 22 1.90735e-06 22C1.90735e-06 24.216 1.784 26 4 26C7.31371 26 10 28.6863 10 32C9.997 33.4771 9.44985 34.9014 8.4624 36C2.54023 42.5926 0.0141811 51.138 0 60C0 79.8822 16.1178 96 36 96C55.8822 96 72 79.8822 72 60C71.9841 51.1372 69.4611 42.5917 63.5366 36C62.5495 34.9012 62.0024 33.477 62 32C62 28.6863 64.6863 26 68 26C70.216 26 72 24.216 72 22C72 22 72 14 72 14C72 11.784 70.216 10 68 10C64.6863 10 62 7.31371 62 4C62 1.784 60.216 0 58 0C58 0 14 0 14 0ZM36 56C39.3137 56 42 58.6863 42 62C42 65.3137 39.3137 68 36 68C32.6863 68 30 65.3137 30 62C30 58.6863 32.6863 56 36 56C36 56 36 56 36 56Z" fill="url(#gradient_6)" transform="translate(28 10)" />
    <g id="g1036#1" transform="translate(92 100)">
      <path id="path1137-3#1" d="M0 4C0 1.79086 1.79086 0 4 0C6.20914 0 8 1.79086 8 4C8 6.20914 6.20914 8 4 8C1.79086 8 0 6.20914 0 4Z" fill="url(#gradient_4)" fill-rule="evenodd" />
      <path id="path1137#1" d="M0 2C0 0.895431 0.895431 0 2 0C3.10457 0 4 0.895431 4 2C4 3.10457 3.10457 4 2 4C0.895431 4 0 3.10457 0 2Z" fill="url(#gradient_5)" fill-rule="evenodd" transform="translate(2 2)" />
    </g>
    <g id="g1036#1" transform="translate(92 40)">
      <path id="path1137-3#1" d="M0 4C0 1.79086 1.79086 0 4 0C6.20914 0 8 1.79086 8 4C8 6.20914 6.20914 8 4 8C1.79086 8 0 6.20914 0 4Z" fill="url(#gradient_4)" fill-rule="evenodd" />
      <path id="path1137#1" d="M0 2C0 0.895431 0.895431 0 2 0C3.10457 0 4 0.895431 4 2C4 3.10457 3.10457 4 2 4C0.895431 4 0 3.10457 0 2Z" fill="url(#gradient_5)" fill-rule="evenodd" transform="translate(2 2)" />
    </g>
    <g id="g1036#1" transform="translate(92 12)">
      <path id="path1137-3#1" d="M0 4C0 1.79086 1.79086 0 4 0C6.20914 0 8 1.79086 8 4C8 6.20914 6.20914 8 4 8C1.79086 8 0 6.20914 0 4Z" fill="url(#gradient_4)" fill-rule="evenodd" />
      <path id="path1137#1" d="M0 2C0 0.895431 0.895431 0 2 0C3.10457 0 4 0.895431 4 2C4 3.10457 3.10457 4 2 4C0.895431 4 0 3.10457 0 2Z" fill="url(#gradient_5)" fill-rule="evenodd" transform="translate(2 2)" />
    </g>
    <g id="g1036#1" transform="translate(28 12)">
      <path id="path1137-3#1" d="M0 4C0 1.79086 1.79086 0 4 0C6.20914 0 8 1.79086 8 4C8 6.20914 6.20914 8 4 8C1.79086 8 0 6.20914 0 4Z" fill="url(#gradient_4)" fill-rule="evenodd" />
      <path id="path1137#1" d="M0 2C0 0.895431 0.895431 0 2 0C3.10457 0 4 0.895431 4 2C4 3.10457 3.10457 4 2 4C0.895431 4 0 3.10457 0 2Z" fill="url(#gradient_5)" fill-rule="evenodd" transform="translate(2 2)" />
    </g>
    <g id="g1036#1" transform="translate(28 40)">
      <path id="path1137-3#1" d="M0 4C0 1.79086 1.79086 0 4 0C6.20914 0 8 1.79086 8 4C8 6.20914 6.20914 8 4 8C1.79086 8 0 6.20914 0 4Z" fill="url(#gradient_4)" fill-rule="evenodd" />
      <path id="path1137#1" d="M0 2C0 0.895431 0.895431 0 2 0C3.10457 0 4 0.895431 4 2C4 3.10457 3.10457 4 2 4C0.895431 4 0 3.10457 0 2Z" fill="url(#gradient_5)" fill-rule="evenodd" transform="translate(2 2)" />
    </g>
    <path id="path2134" d="M6.37603 0.00477219C5.36206 0.040081 4.3526 0.272057 3.41703 0.746967C1.4974 1.72139 0.475624 3.72215 0.135751 5.78217C-0.204122 7.84219 0.0916514 10.0318 1.05177 11.7158C1.05177 11.7158 1.07517 11.7568 1.07517 11.7568C1.07517 11.7568 12.0753 27.2882 12.0753 27.2882C12.9911 28.8567 14.3022 30.0126 15.755 30.6066C17.2325 31.2107 18.896 31.2202 20.2863 30.4074C21.6765 29.5945 22.4948 28.1405 22.716 26.5499C22.9347 24.977 22.599 23.2405 21.7042 21.6456C21.7042 21.6456 13.9679 4.04778 13.9679 4.04778C13.9679 4.04778 13.9445 4.00481 13.9445 4.00481C12.9815 2.31575 11.2763 1.07566 9.36434 0.446186C8.40835 0.131447 7.39 -0.0305367 6.37603 0.004776C6.37603 0.004776 6.37603 0.00477219 6.37603 0.00477219Z" fill="url(#gradient_7)" fill-rule="evenodd" transform="translate(5.58 38)" />
    <path id="path2149" d="M22.1355 0.00173569C21.9912 0.00993729 21.8509 0.051384 21.7253 0.122829C21.7253 0.122829 0.471226 12.285 0.471226 12.285C0.214759 12.4319 0.0426512 12.6912 0.0068903 12.9846C-0.0288696 13.278 0.0759125 13.5711 0.289584 13.7753C2.0801 15.4881 3.96428 16.2788 5.59823 17.3847C7.23217 18.4906 8.70444 19.8722 9.98888 22.9453C10.0927 23.1926 10.2975 23.3835 10.5514 23.4698C10.8053 23.5561 11.0841 23.5294 11.317 23.3964C11.317 23.3964 25.9851 15.0038 25.9851 15.0038C26.4289 14.7505 26.588 14.1883 26.3425 13.7401C24.4022 10.1938 23.9026 8.15416 23.7156 6.40412C23.5286 4.65408 23.6882 3.05593 23.0984 0.708763C23.0274 0.424141 22.8271 0.189213 22.5573 0.0739937C22.4242 0.0176735 22.2798 -0.007061 22.1355 0.00172424C22.1355 0.00172424 22.1355 0.00173569 22.1355 0.00173569Z" fill="url(#gradient_8)" fill-rule="evenodd" transform="translate(11.436 56.675)" />
    <path id="path2156" d="M15.6831 0.000572205C14.6595 0.01297 13.6544 0.238426 12.6811 0.723228C12.6811 0.723228 12.6499 0.738831 12.6499 0.738831L0.474012 7.99084C0.474012 7.99084 0.397812 8.40295 0.397812 8.40295C-0.380693 12.5983 -0.0609016 19.1333 1.75133 26.0535C3.56359 32.9736 6.88349 40.2584 12.2534 45.7392C12.2534 45.7392 12.5131 46.0048 12.5131 46.0048C12.5131 46.0048 12.8862 46.0165 12.8862 46.0165C17.1911 46.1564 23.7249 44.5219 30.8102 41.2919C37.8954 38.0618 45.4879 33.2158 51.6541 26.825C51.6541 26.825 52.5369 25.9089 52.5369 25.9089C52.5369 25.9089 51.3924 25.3484 51.3924 25.3484C43.0263 21.2572 35.8745 14.0477 29.65 8.34629C26.5377 5.49557 23.6617 3.01913 20.8823 1.50053C19.4927 0.741226 18.0912 0.223427 16.7124 0.0571594C16.3677 0.0155563 16.0243 -0.00363922 15.6831 0.000556946C15.6831 0.000556946 15.6831 0.000572205 15.6831 0.000572205Z" fill="url(#gradient_9)" fill-rule="evenodd" transform="translate(22.693 69.975)" />
    <path id="path7972-7-6" d="M1.73634 0L0 0.650383C0 0.650383 0.326174 1.51953 0.326174 1.51953C4.61208 12.96 5.06628 25.6272 14.0285 35.4241C14.0285 35.4241 14.9863 35.3032 16.1168 35.0322C7.66996 25.7986 6.48799 12.6821 2.06252 0.869133C2.06252 0.869133 1.73634 0 1.73634 0Z" fill="url(#gradient_10)" transform="translate(25.65 80.27)" />
    <path id="path7974-5-1" d="M1.81055 0.00976562C1.47022 -0.0318375 1.01701 0.0567627 0.703125 0.328125C0.703125 0.328125 0 0.935562 0 0.935562L1.2129 2.33791C1.2129 2.33791 1.71094 1.90627 1.71094 1.90627C1.75254 1.92207 1.74654 1.91428 1.81837 1.95317C2.13146 2.12347 2.65948 2.5197 3.30861 3.08795C4.60688 4.22446 6.43197 6.04623 8.74224 8.2794C13.3628 12.7457 20.7419 19.4005 29.3828 25.2811C29.3828 25.2811 30.1558 24.658 30.8492 24.0523C22.341 18.262 14.6255 11.3881 10.0294 6.9454C7.73133 4.72408 5.91866 2.90793 4.53129 1.69341C3.83759 1.08614 3.2617 0.626991 2.70509 0.324257C2.4268 0.17289 2.1509 0.0514069 1.81055 0.00979614C1.81055 0.00979614 1.81055 0.00976562 1.81055 0.00976562Z" fill="url(#gradient_11)" transform="translate(39.46 76.551)" />
    <path id="path7976-2" d="M1.52345 0L0 1.05664C0 1.05664 0.529305 1.81837 0.529305 1.81837C3.84517 6.5948 5.21012 12.2463 7.09967 18.1212C8.98922 23.9962 12.2466 31.2303 17.8495 36.6225C17.8495 36.6225 18.4751 36.4375 19.6531 35.9998C14.357 30.9028 10.7247 23.3422 8.86335 17.5548C7.00198 11.7675 5.62046 5.89897 2.05276 0.759766C2.05276 0.759766 1.52345 0 1.52345 0Z" fill="url(#gradient_12)" transform="translate(28.658 77.387)" />
    <path id="path7978-9-9" d="M1.57228 0L0 0.98439C0 0.98439 0.492195 1.76955 0.492195 1.76955C0.492195 1.76955 4.29053 7.84415 8.79109 14.3946C11.0414 17.6699 13.4679 21.0642 15.6935 23.8928C17.9191 26.7214 20.4351 29.6215 22.0485 30.7129C22.0485 30.7129 23.6835 29.7315 23.6835 29.7315C22.5107 28.9381 19.335 25.5225 17.1505 22.7463C14.9661 19.97 12.5552 16.5993 10.3184 13.3438C5.84503 6.83286 2.06447 0.787109 2.06447 0.787109C2.06447 0.787109 1.57228 0 1.57228 0Z" fill="url(#gradient_13)" transform="translate(37.888 77.234)" />
    <path id="path7980-2-3" d="M1.19727 0L0 1.41409C0 1.41409 0.707035 2.0137 0.707035 2.0137C3.6318 4.4885 7.74336 11.0546 11.5743 17.6974C15.4053 24.3402 19.6035 32.0407 22.1488 35.2763C22.1488 35.2763 23.7834 34.515 23.7834 34.515C21.4938 31.6046 17.028 23.4424 13.1798 16.7697C9.33159 10.097 5.3734 3.53139 1.90627 0.597672C1.90627 0.597672 1.19727 0 1.19727 0Z" fill="url(#gradient_14)" transform="translate(31.029 76.141)" />
    <path id="path2031" d="M20.3883 0.000740051C19.9394 0.0110779 19.4865 0.129677 19.0738 0.367935C19.0738 0.367935 1.38618 10.5809 1.38618 10.5809C0.0656281 11.3433 -0.393835 13.0612 0.368591 14.3817C0.368591 14.3817 1.72211 16.7255 1.72211 16.7255C2.48454 18.0461 4.20042 18.5055 5.52097 17.7431C5.52097 17.7431 23.2106 7.53011 23.2106 7.53011C24.5311 6.76768 24.9906 5.0518 24.2282 3.73125C24.2282 3.73125 22.8746 1.38747 22.8746 1.38747C22.3505 0.479591 21.3759 -0.0219955 20.3883 0.000740051C20.3883 0.000740051 20.3883 0.000740051 20.3883 0.000740051Z" fill="url(#gradient_15)" fill-rule="evenodd" transform="translate(16.495 64.102)" />
    <g id="use1038-3-0" transform="translate(8.44 40.666)">
      <path id="path6314" d="M8 4C8 6.20914 6.20914 8 4 8C1.79086 8 0 6.20914 0 4C0 1.79086 1.79086 0 4 0C6.20914 0 8 1.79086 8 4C8 4 8 4 8 4Z" fill="url(#gradient_4)" />
      <path id="path6311" d="M4 2C4 3.10457 3.10457 4 2 4C0.89543 4 0 3.10457 0 2C0 0.895432 0.89543 0 2 0C3.10457 0 4 0.895432 4 2C4 2 4 2 4 2Z" fill="url(#gradient_16)" transform="translate(2 2)" />
    </g>
</svg>