<?xml version="1.0" encoding="utf-8"?>
<svg width="128" height="128" viewBox="0 0 128 128" xmlns="http://www.w3.org/2000/svg">
<defs>
<linearGradient id="blue" gradientUnits="userSpaceOnUse" x1="52" y1="0" x2="52" y2="100">
<stop offset="0" stop-color="#04AEE8"/>
<stop offset="1" stop-color="#008BBB"/>
</linearGradient>
<filter id="shadow">
<feDropShadow dx="0" dy="2" flood-color="#000000" flood-opacity="0.75" stdDeviation="1"/>
</filter>
</defs>
<rect width="104" height="104" rx="8" fill="#076482" x="12" y="12"/>
<rect width="104" height="100" rx="8" fill="url(#blue)" x="12" y="12"/>
<path d="M31.606 72C25.0747 72 19.4483 70.4623 14.7266 67.387C10 64.29 6.365 60.0416 3.80645 54.64C1.2688 49.2156 0 43.0338 0 36.0935C0 29 1.31 22.7533 3.93125 17.33C6.5521 11.9065 10.213 7.66753 14.9138 4.613C19.6147 1.53766 25.1163 0 31.42 0C36.3277 0 40.7478 0.903896 44.68 2.71169C48.6103 4.52 51.824 7.05455 54.32 10.3169C56.8368 13.5792 58.3968 17.3922 59 21.7558L48.3 21.7558C47.487 18.5766 45.6774 15.761 42.8694 13.3091C40.082 10.8364 36.33 9.6 31.606 9.6C25.345 9.6 20.3 12 16.4738 16.7377C12.6466 21.496 10.733 27.8234 10.733 35.7195C10.733 43.7818 12.6154 50.2442 16.38 55.1065C20.166 59.948 25.24 62.3688 31.606 62.3688C35.787 62.37 39.3645 61.3 42.34 59.1584C45.3134 57 47.3 54.0364 48.3 50.213L59 50.213C58.3968 54.3273 56.91 58.026 54.5383 61.3091C52.1671 64.5922 49.0367 67.2 45.147 69.1325C41.2574 71.0442 36.7437 72 31.606 72L31.606 72Z" fill="#E7E7E7" filter="url(#shadow)" transform="translate(34 26)"/>
</svg>
