<?xml version="1.0" encoding="utf-8"?>
<svg width="128" height="128" viewBox="0 0 128 128" fill="none" xmlns="http://www.w3.org/2000/svg">
<g id="chromium" transform="translate(3.014 3)">
<path d="M51.9567 30L103.91 30C93.195 11.4351 73.388 0 51.9528 1.46063e-07C30.5176 0 10.7122 11.441 0 30L25.9765 75L26 75C20.6212 65.7192 20.6084 54.2773 25.966 45C31.3237 35.7034 41.2352 29.987 51.9568 30L51.9567 30Z" fill="#3367D6" transform="translate(8.039 0)"/>
<path d="M25.9873 45L0.0107536 89.9922C21.4458 89.9952 41.2535 78.56 51.9697 59.9959C62.6859 41.4318 62.6818 18.5603 51.959 0L0.00625229 0L0 0.0232506C10.7216 0.00257683 20.6371 5.71233 26.001 15C31.365 24.2791 31.3597 35.721 25.9873 45L25.9873 44.9995Z" fill="#A1C2FA" transform="translate(60 30)"/>
<path d="M34.0173 44.9928L8.04079 0C-2.67946 18.5618 -2.68032 41.4335 8.03856 59.9961C18.7574 78.5588 38.5669 89.9911 60.002 89.985L85.9785 44.9923L85.9618 44.9753C80.6187 54.2706 70.7162 60.0027 59.9946 60.0063C49.273 60.01 39.3666 54.2845 34.0173 44.9928L34.0173 44.9928Z" fill="#5E97F6" transform="translate(0 30)"/>
<path d="M0 30C0 13.4315 13.4315 0 30 0C46.5685 0 60 13.4315 60 30C60 46.5685 46.5685 60 30 60C13.4315 60 0 46.5685 0 30Z" fill="#FFFFFF" fill-rule="evenodd" transform="translate(29.996 29.987)" />
<path d="M0 24C0 10.7452 10.7452 0 24 0C37.2548 0 48 10.7452 48 24C48 37.2548 37.2548 48 24 48C10.7452 48 0 37.2548 0 24Z" fill="#4285F4" fill-rule="evenodd" transform="translate(36 36)"/>
</g></svg>
