<?xml version="1.0" encoding="utf-8"?>
<svg width="128" height="128" viewBox="0 0 128 128" xmlns="http://www.w3.org/2000/svg">
<defs>
<linearGradient id="gold" x1="0" y1="0" x2="1" y2="0">
<stop offset="0" stop-color="#F8EE66"/>
<stop offset="1" stop-color="#EBBE2A"/>
</linearGradient>
<radialGradient id="red">
<stop offset="75%" stop-color="#911121"/>
<stop offset="90%" stop-color="#D81A24"/>
<stop offset="1" stop-color="#911121"/>
</radialGradient>
</defs>
<g transform="translate(59 20) rotate(25 5 58)">
<rect width="10" height="58" fill="url(#gold)"/>
<g fill="#000000" opacity="25%">
<rect width="2" height="8"/>
<rect width="2" height="8" x="4"/>
<rect width="2" height="8" x="8"/>
</g></g>
<circle r="14" cx="64" cy="16" fill="none" stroke="#A51C2D" stroke-width="4"/>
<rect width="8" height="14" x="60" y="22" fill="url(#gold)"/>
<rect width="12" height="10" x="58" y="12" fill="url(#gold)"/>
<g fill="#000000" opacity="25%">
<rect width="8" height="2" x="60" y="22"/>
<rect width="2" height="8" x="68" y="12"/>
<rect width="2" height="8" x="64" y="12"/>
<rect width="2" height="8" x="60" y="12"/>
</g>
<circle r="46" cx="64" cy="78" fill="url(#red)"/>
<circle r="38" cx="64" cy="78" fill="#241F31" opacity="40%"/>
<circle r="36" cx="64" cy="78" fill="#F6F5F4"/>
<path d="M37.33 0C33.73 0 30 0.3 26.64 1.23C10.78 5.5 0 20 0 36.4C0.7 20.7 11.48 7.3 26.64 3.23C45.84 -2 65.6 9.48 70.73 28.68C71.5 31.6 71.9 34.6 71.9 37.6C72 33.93 71.68 30.24 70.73 26.68C66.64 11.44 53.1 0.63 37.33 0C37.33 0 37.33 0 37.33 0Z" fill="#000000" opacity="10%" transform="translate(28 42)"/>
<g stroke="#424048" stroke-width="2">
<path d="M0 0L0 32L20 52" fill="none" stroke-linecap="round" transform="translate(64 46)"/>
<circle r="5" cx="64" cy="78" fill="#F6F5F4"/>
</g></svg>
