<?xml version="1.0" encoding="utf-8"?>
<!-- Generator: Adobe Illustrator 24.1.1, SVG Export Plug-In . SVG Version: 6.00 Build 0)  -->
<svg version="1.1" xmlns="http://www.w3.org/2000/svg" xmlns:xlink="http://www.w3.org/1999/xlink" x="0px" y="0px"
	 viewBox="0 0 128 128" style="enable-background:new 0 0 128 128;" xml:space="preserve">
<style type="text/css">
	.st0{display:none;}
	.st1{display:inline;}
	.st2{enable-background:new    ;}
	.st3{fill:#F0F0F0;}
	.st4{opacity:0.1;fill:none;stroke:#000000;stroke-width:0.99;stroke-dasharray:0.99,0.99;enable-background:new    ;}
	.st5{fill:none;stroke:#62A0EA;stroke-width:2;}
	.st6{display:inline;fill:#E5A50A;}
	.st7{fill:#E5A50A;}
	.st8{fill:#F6D32D;}
</style>
<g id="svg11300" inkscape:export-filename="Template.png" inkscape:export-xdpi="96" inkscape:export-ydpi="96" inkscape:output_extension="org.inkscape.output.svg.inkscape" inkscape:version="0.92.4 5da689c313, 2019-01-14" sodipodi:docname="template.svg" sodipodi:version="0.32" xmlns:cc="http://creativecommons.org/ns#" xmlns:dc="http://purl.org/dc/elements/1.1/" xmlns:inkscape="http://www.inkscape.org/namespaces/inkscape" xmlns:rdf="http://www.w3.org/1999/02/22-rdf-syntax-ns#" xmlns:sodipodi="http://sodipodi.sourceforge.net/DTD/sodipodi-0.dtd" xmlns:svg="http://www.w3.org/2000/svg" class="st0">
	<defs  class="st1">
		<inkscape:path-effect  effect="spiro" id="path-effect35304-9" is_visible="true"></inkscape:path-effect>
	</defs>
	
		<sodipodi:namedview  bordercolor="#666666" borderopacity="0.25490196" fill="#f57900" gridtolerance="12" guidetolerance="13" height="300px" id="base" inkscape:bbox-nodes="true" inkscape:current-layer="layer3" inkscape:cx="-73.564525" inkscape:cy="116.41709" inkscape:document-units="px" inkscape:grid-bbox="true" inkscape:guide-bbox="true" inkscape:locked="false" inkscape:measure-end="0,0" inkscape:measure-start="0,0" inkscape:object-nodes="true" inkscape:object-paths="true" inkscape:pagecheckerboard="false" inkscape:pageopacity="0.0" inkscape:pageshadow="2" inkscape:showpageshadow="false" inkscape:snap-bbox="true" inkscape:snap-bbox-edge-midpoints="true" inkscape:snap-bbox-midpoints="true" inkscape:snap-center="true" inkscape:snap-global="true" inkscape:snap-intersection-paths="true" inkscape:snap-midpoints="true" inkscape:snap-nodes="true" inkscape:snap-object-midpoints="true" inkscape:snap-smooth-nodes="true" inkscape:snap-text-baseline="true" inkscape:window-height="1016" inkscape:window-maximized="1" inkscape:window-width="1920" inkscape:window-x="1366" inkscape:window-y="27" inkscape:zoom="2.0000001" objecttolerance="7" pagecolor="#ffffff" showborder="false" showgrid="false" showguides="false" stroke="#ef2929" width="400px">
		
			<inkscape:grid  empspacing="4" enabled="true" id="grid5883" originx="0" originy="0" spacingx="2" spacingy="2" type="xygrid" visible="true">
			</inkscape:grid>
		
			<sodipodi:guide  id="guide1073" inkscape:color="rgb(0,0,255)" inkscape:label="" inkscape:locked="false" orientation="0,1" position="64,8">
			</sodipodi:guide>
		
			<sodipodi:guide  id="guide1075" inkscape:color="rgb(0,0,255)" inkscape:label="" inkscape:locked="false" orientation="1,0" position="12,64">
			</sodipodi:guide>
		
			<sodipodi:guide  id="guide1099" inkscape:color="rgb(0,0,255)" inkscape:label="" inkscape:locked="false" orientation="0,1" position="64,104">
			</sodipodi:guide>
		
			<sodipodi:guide  id="guide993" inkscape:color="rgb(0,0,255)" inkscape:label="" inkscape:locked="false" orientation="0,1" position="64,128">
			</sodipodi:guide>
		
			<sodipodi:guide  id="guide995" inkscape:color="rgb(0,0,255)" inkscape:label="" inkscape:locked="false" orientation="1,0" position="104,64">
			</sodipodi:guide>
		
			<sodipodi:guide  id="guide867" inkscape:color="rgb(0,0,255)" inkscape:label="" inkscape:locked="false" orientation="1,0" position="9.2651362e-08,64">
			</sodipodi:guide>
		
			<sodipodi:guide  id="guide869" inkscape:color="rgb(0,0,255)" inkscape:label="" inkscape:locked="false" orientation="1,0" position="120,64">
			</sodipodi:guide>
		
			<sodipodi:guide  id="guide871" inkscape:color="rgb(0,0,255)" inkscape:label="" inkscape:locked="false" orientation="0,1" position="64,116">
			</sodipodi:guide>
		
			<inkscape:grid  color="#000000" dotted="true" empcolor="#000000" empopacity="0.08627451" empspacing="8" id="grid873" opacity="0.49019608" spacingx="1" spacingy="1" type="xygrid">
			</inkscape:grid>
		
			<sodipodi:guide  id="guide877" inkscape:color="rgb(0,0,255)" inkscape:label="" inkscape:locked="false" orientation="1,0" position="24,64">
			</sodipodi:guide>
		
			<sodipodi:guide  id="guide879" inkscape:color="rgb(0,0,255)" inkscape:label="" inkscape:locked="false" orientation="1,0" position="116,64">
			</sodipodi:guide>
		
			<sodipodi:guide  id="guide881" inkscape:color="rgb(0,0,255)" inkscape:label="" inkscape:locked="false" orientation="0,1" position="64,120">
			</sodipodi:guide>
		
			<sodipodi:guide  id="guide883" inkscape:color="rgb(0,0,255)" inkscape:label="" inkscape:locked="false" orientation="0,1" position="64,12">
			</sodipodi:guide>
		
			<sodipodi:guide  id="guide885" inkscape:color="rgb(0,0,255)" inkscape:label="" inkscape:locked="false" orientation="1,0" position="8,64">
			</sodipodi:guide>
		
			<sodipodi:guide  id="guide887" inkscape:color="rgb(0,0,255)" inkscape:label="" inkscape:locked="false" orientation="1,0" position="128,64">
			</sodipodi:guide>
		
			<sodipodi:guide  id="guide897" inkscape:color="rgb(0,0,255)" inkscape:label="" inkscape:locked="false" orientation="0,1" position="64,0">
			</sodipodi:guide>
		
			<sodipodi:guide  id="guide899" inkscape:color="rgb(0,0,255)" inkscape:label="" inkscape:locked="false" orientation="0,1" position="64,24">
			</sodipodi:guide>
		
			<sodipodi:guide  id="guide950" inkscape:color="rgb(0,0,255)" inkscape:label="" inkscape:locked="false" orientation="-0.70710678,0.70710678" position="256,256">
			</sodipodi:guide>
		
			<sodipodi:guide  id="guide952" inkscape:color="rgb(0,0,255)" inkscape:label="" inkscape:locked="false" orientation="0.70710678,0.70710678" position="64,64">
			</sodipodi:guide>
	</sodipodi:namedview>
	<g id="layer1" transform="translate(0,-172)" inkscape:groupmode="layer" inkscape:label="App Icon" class="st1">
		<g id="layer2" inkscape:groupmode="layer" inkscape:label="baseplate" sodipodi:insensitive="true">
			
				<g id="g12027" transform="matrix(7.9911709,0,0,8.0036407,-167.7909,-4846.0776)" inkscape:export-xdpi="12" inkscape:export-ydpi="12" class="st2">
			</g>
			<rect id="rect13805" x="0" y="172" inkscape:label="512x512" class="st3" width="128" height="128">
			</rect>
			<g id="g883" transform="translate(-24,24)">
			</g>
			<g id="g900" transform="translate(-24,24)">
			</g>
			<rect id="rect859" x="160" y="172" inkscape:label="512x512" class="st3" width="16" height="16">
			</rect>
			<text transform="matrix(1 0 0 1 0 164)" style="font-family:'Arial-BoldMT'; font-size:4px;">Hicolor</text>
			<text transform="matrix(1 0 0 1 160 164)" style="font-family:'Arial-BoldMT'; font-size:4px;">Symbolic</text>
		</g>
		<g id="layer9" inkscape:groupmode="layer" inkscape:label="icons">
		</g>
		<g id="layer3" inkscape:groupmode="layer" inkscape:label="hairlines" sodipodi:insensitive="true">
			<circle id="circle2892" class="st4" cx="64" cy="236" r="59.5"/>
			<path id="rect2894" class="st4" d="M29.2,180.5h69.6c4.8,0,8.7,3.6,8.7,7.9v95.2c0,4.4-3.9,7.9-8.7,7.9H29.2
				c-4.8,0-8.7-3.6-8.7-7.9v-95.2C20.5,184,24.4,180.5,29.2,180.5z"/>
			<path id="rect2896" class="st4" d="M20.4,184.5h87.2c4.4,0,7.9,3.5,7.9,7.9v87.2c0,4.4-3.5,7.9-7.9,7.9H20.4
				c-4.4,0-7.9-3.5-7.9-7.9v-87.2C12.5,188,16,184.5,20.4,184.5z"/>
			<path id="rect2898" class="st4" d="M16.4,200.5h95.2c4.4,0,7.9,3.9,7.9,8.7v69.6c0,4.8-3.6,8.7-7.9,8.7H16.4
				c-4.4,0-7.9-3.9-7.9-8.7v-69.6C8.5,204.4,12,200.5,16.4,200.5z"/>
			<path id="path2900" inkscape:connector-curvature="0" class="st5" d="M0,289h128"/>
		</g>
	</g>
</g>
<g id="Layer_2" class="st0">
	<rect x="35.5" y="113.8" class="st6" width="5.4" height="6.9"/>
	<polygon class="st6" points="107.6,62 107.6,64.6 107.6,64.6 	"/>
	<g class="st1">
		<path class="st7" d="M107.6,58.8V62l0,2.6c0,0.2,0,0.3,0,0.5c-0.2,0.9-0.7,2-1.5,2.7l-8.6,6.9l-0.3,0.2l-57.4,49.7
			c-1.7,1.5-4.1,0.4-4.3-1.3c0,0,0,0,0-0.1l0.1-4l1.6,0L61.3,74l-36.8-0.7c-2.2,0-3.8-1.5-4-3.3c0-0.2,0-0.4,0-0.6l0-2.4v-3.5h2.8
			l28.3-50.9c0.8-1.3,2.2-2.1,3.8-2.1l35.8,0.7c0.1,0,0.1,0,0.3,0l3.9,0.1l-0.1,3.8v0.4c0,0.3-0.1,0.7-0.4,1.1L71.2,59.3L98,59.8
			v-0.9H107.6z"/>
		<path class="st8" d="M106,62.1l-8.5,6.4l-0.3,0.2l-57.3,46.8c-2.1,1.8-5.4-0.3-4.2-2.4l25.5-45.2l-36.7-0.7c-3-0.1-5-2.7-3.7-4.9
			l30.8-52.1c0.8-1.2,2.2-2,3.8-1.9L91.2,9c3,0.1,5,2.7,3.7,4.9L71.3,54l31.4,0.6C107.1,54.7,109.3,59.5,106,62.1z"/>
	</g>
</g>
<g id="Layer_3">
	<g>
		<path class="st7" d="M22.5,69.5L22.5,69.5L22.5,69.5C22.5,69.4,22.5,69.5,22.5,69.5z"/>
		<path class="st7" d="M106,56.3v9.2c0,0.1,0,0.2-0.1,0.2c-0.2,0.7-0.7,1.3-1.3,1.8l-8.2,6.2l-0.3,0.2l-54.4,44.5l-0.6,0.5
			c-1.3,1.1-3.3,0.6-4-0.5c-0.1-0.2-0.2-0.5-0.3-0.7v-7.7h4l20.7-36.8l-35.2-0.7c-2.1,0-3.6-1.4-3.9-2.9c0,0,0-0.1,0-0.1V62h3.7
			l26.2-44.3c0.8-1.2,2.1-1.9,3.7-1.9l31.7,0.6v-4.8h6.4v7.3c0.2,0.7,0.2,1.4-0.2,2.2L71.2,59.7l28.1,0.5v-4H106z"/>
		<path class="st7" d="M106,65.5v0.2h-0.1C106,65.6,106,65.5,106,65.5z"/>
		<path class="st7" d="M106,65.5v-1.8C106.2,64.2,106.2,64.9,106,65.5z"/>
		<path class="st8" d="M104.6,60.1l-8.2,6.2l-0.3,0.2l-55,45c-2,1.7-5.2-0.3-4-2.3l24.5-43.4l-35.2-0.7c-2.9-0.1-4.8-2.6-3.6-4.7
			l29.5-50c0.8-1.2,2.1-1.9,3.7-1.9l34.3,0.7c2.9,0.1,4.8,2.6,3.6,4.7L71.2,52.4l30.1,0.6C105.7,53.1,107.8,57.6,104.6,60.1z"/>
	</g>
</g>
</svg>
