<?xml version="1.0" encoding="utf-8"?>
<svg width="128" height="128" viewBox="0 0 128 128" xmlns="http://www.w3.org/2000/svg">
<linearGradient id="graydient" x1="0" y1="0" x2="0" y2="1">
<stop offset="0" stop-color="#878787"/>
<stop offset="1" stop-color="#656763"/>
</linearGradient>
<rect width="104" height="104" rx="8" x="12" y="12" fill="url(#graydient)"/>
<g fill="#FFB33B">
<path d="M0 0L6 0L6 23C6 24.65 7.35 26 9 26L18 26L18 0L24 0L24 32L9 32C4 32 0 28 0 23Z" transform="translate(60 48)"/>
<path d="M16 0C7.2 0 0 7.2 0 16L0 48C0 56.8 7.2 64 16 64L30 64C35.5 64 40 59.5 40 54L16 54C12.7 54 10 51.3 10 48L10 16C10 12.7 12.7 10 16 10L40 10C40 4.5 35.5 0 30 0Z" transform="translate(44 32)"/>
</g></svg>
