<?xml version="1.0" encoding="utf-8"?>
<svg width="128" height="128" viewBox="0 0 128 128" xmlns="http://www.w3.org/2000/svg">
<defs>
<clipPath id="circular">
<circle r="60" cx="64" cy="64"/>
</clipPath>
<radialGradient id="shadow">
<stop offset="0" stop-color="#241F31" stop-opacity="66%"/>
<stop offset="66%" stop-color="#241F31" stop-opacity="0"/>
</radialGradient>
</defs>
<g clip-path="url(#circular)">
<circle r="60" cx="64" cy="64" fill="#241F31"/>
<path fill="#E01B24" d="M4 -8L44 64L84 -8Z"/>
<path fill="#FF7800" d="M94 -26L134 46L54 46Z"/>
<path fill="#F6D32D" d="M74 46L114 118L154 46Z"/>
<path fill="#33D17A" d="M84 64L124 136L44 136Z"/>
<path fill="#3584E4" d="M-6 82L34 154L74 82ZZ"/>
<path fill="#A347BA" d="M14 10L54 82L-26 82Z"/>
<circle r="60" cx="64" cy="64" fill="url(#shadow)"/>
<circle r="8" cx="64" cy="64" fill="#F6F5F4"/>
<g stroke="#241F31" stroke-width="8">
<line x1="-26" y1="78" x2="74" y2="78"/>
<line x1="8.5" y1="-8.5" x2="48" y2="63"/>
<line x1="48" y1="65" x2="98" y2="-25"/>
<line x1="54" y1="50" x2="154" y2="50"/>
<line x1="80" y1="65" x2="119.5" y2="136.5"/>
<line x1="30" y1="153" x2="80" y2="63"/>
</g></g></svg>
