<?xml version="1.0" encoding="utf-8"?>
<svg width="128" height="128" viewBox="0 0 128 128" xmlns="http://www.w3.org/2000/svg">
<defs>
<linearGradient id="corners">
<stop offset="0" stop-color="#77767B"/>
<stop offset="5%" stop-color="#C0BFBC"/>
<stop offset="10%" stop-color="#9A9996"/>
<stop offset="90%" stop-color="#9A9996"/>
<stop offset="95%" stop-color="#C0BFBC"/>
<stop offset="1" stop-color="#77767B"/>
</linearGradient>
<clipPath id="squircle">
<rect width="104" height="104" rx="8" x="12" y="12"/>
</clipPath>
</defs>
<rect width="104" height="104" rx="8" x="12" y="12" fill="url(#corners)"/>
<rect width="104" height="100" rx="8" x="12" y="12" fill="#F6F5F4"/>
<rect width="104" height="42" x="12" y="12" fill="#DEDDDA" clip-path="url(#squircle)"/>
<rect width="104" height="2" x="12" y="54" fill="#9A9996"/>
<g fill="#9A9996">
<path d="M8 0L12 0L4 24L0 24Z" transform="translate(28 20)"/>
<path d="M8 0L12 0L4 24L0 24Z" transform="translate(56 20)"/>
</g><g fill="#77767B">
<rect width="8" height="8" x="44" y="28"/>
<rect width="28" height="8" x="72" y="28"/>
</g><g fill="#C0BFBC">
<rect width="24" height="8" x="28" y="72"/>
<rect width="16" height="8" x="28" y="88"/>
</g><rect width="28" height="4" x="72" y="40" fill="#3584E4"/>
<rect width="40" height="24" rx="11" x="60" y="72" fill="#1A5FB4"/>
<rect width="40" height="22" rx="11" x="60" y="74" fill="#3584E4"/>
<rect width="16" height="18" rx="8" x="80" y="76" fill="#9A9996"/>
<rect width="16" height="16" rx="8" x="80" y="76" fill="#FFFFFF"/>
</svg>
