<?xml version="1.0" encoding="utf-8"?>
<svg width="128" height="128" viewBox="0 0 128 128" xmlns="http://www.w3.org/2000/svg">
<defs>
<linearGradient id="light" x1="0" y1="0" x2="1" y2="0">
<stop offset="0" stop-color="#FFFFFF" stop-opacity="25%"/>
<stop offset="1" stop-color="#FFFFFF" stop-opacity="10%"/>
</linearGradient>
<linearGradient id="black" x1="0" y1="0" x2="1" y2="0">
<stop offset="0" stop-color="#000000" stop-opacity="50%"/>
<stop offset="1" stop-color="#000000" stop-opacity="25%"/>
</linearGradient>
<clipPath id="shield">
<path d="M0 8C0 3.6 3.6 0 8 0L88 0C92.4 0 96 3.6 96 8L96 66C96 98 48 114 48 114C48 114 0 98 0 66C0 66 0 8 0 8Z"/>
</clipPath>
</defs>
<path d="M0 8C0 3.6 3.6 0 8 0L88 0C92.4 0 96 3.6 96 8L96 66C96 98 48 114 48 114C48 114 0 98 0 66C0 66 0 8 0 8Z" fill="#F06231" transform="translate(16 8)"/>
<path d="M28 0L68 0L68 40L96 40L96 68L68 68L68 114L28 114L28 68L0 68L0 40L28 40L28 0L28 0Z" fill="#EC531E" transform="translate(16 8)" clip-path="url(#shield)"/>
<path d="M48 48C48 48 0 32 0 0L0 6C0 38 48 54 48 54Z" fill="url(#light)" transform="translate(16 68)"/>
<path d="M0 48C0 48 48 32 48 0L48 6C48 38 0 54 0 54Z" fill="url(#black)" transform="translate(64 68)"/>
<path d="M20 0C12 0 5 7 5 15L5 19L2 19C1 19 0 20 0 21L0 45C0 46 1 47 2 47L38 47C39 47 40 46 40 45L40 21C40 20 39 19 38 19L35 19L35 15C35 7 28 0 20 0ZM29 19C29 19 29 15 29 15C29 10 25 6 20 6C15 6 11 10 11 15L11 19C11 19 29 19 29 19Z" fill="#F6F5F4" fill-rule="evenodd" transform="translate(44 29)"/>
</svg>
