<?xml version="1.0" encoding="utf-8"?>
<svg width="128" height="128" viewBox="0 0 128 128" xmlns="http://www.w3.org/2000/svg">
<circle r="60" cx="64" cy="64" fill="#FAA81F"/>
<path d="M63.67 4.8C58.8 2.55 53.6 1 48.162 0C47.5 1.187 46.713 2.785 46.174 4C40.4 3.2 34.66 3.2 29 4C28.45 2.8 27.654 1.187 27 0C21.537 0.926 16.3262 2.56 11.463 4.8C1.65 19.4 -1 33.6 0.32 47.6225C6.826 52.4 13.135 55.3 19.34 57.2C20.87 55.136 22.2324 52.93 23.4 50.6C21.17 49.7736 19 48.74 17 47.542C17.533 47.15 18 46.74 18.57 46.3C31 52 44.373 52 56.6 46.3165C57.1 46.74 57.63 47.15 58.166 47.542C56.13 48.744 54 49.777 51.74 50.615C52.916 52.93 54.275 55.14 55.8 57.214C62 55.3125 68.334 52.4 74.84 47.6225C76.4 31.3745 72.174 17.285 63.67 4.8C63.67 4.8 63.67 4.8 63.67 4.8ZM25 39C21.38 39 18.34 35.6 18.34 31.4436C18.34 27.3 21.32 23.88 25 23.88C28.873 23.88 31.92 27.2875 31.8535 31.4436C31.8575 35.6 28.873 39 25 39C25 39 25 39 25 39ZM50 39C46.3535 39 43.3 35.6 43.3 31.4436C43.3 27.3 46.3 23.88 50 23.88C53.842 23.88 56.9 27.2875 56.8223 31.4436C56.8223 35.6 53.842 39 50 39C50 39 50 39 50 39Z" fill="#FFFFFF" transform="translate(26.42 34.87)"/>
</svg>
