<?xml version="1.0" encoding="utf-8"?>
<svg width="128" height="128" viewBox="0 0 128 128" fill="none" xmlns="http://www.w3.org/2000/svg">
<circle r="60" cx="64" cy="64" fill="#5165F6"/>
<path id="path6" d="M63.67 4.79C58.8028 2.55436 53.6 0.925716 48.1621 0C47.4942 1.187 46.713 2.78483 46.174 4.05625C40.3926 3.2 34.666 3.2 29 4.05625C28.4512 2.78483 27.6543 1.187 26.9785 0C21.5371 0.925716 16.3262 2.5582 11.463 4.8C1.65 19.3863 -1 33.6062 0.318382 47.6225C6.8262 52.4 13.1348 55.305 19.338 57.2062C20.87 55.1358 22.2324 52.931 23.4082 50.611C21.17 49.7736 19.0215 48.74 17 47.542C17.5332 47.15 18.0606 46.74 18.5684 46.3165C30.9356 52 44.3731 52 56.592 46.3165C57.1074 46.74 57.6309 47.15 58.166 47.542C56.131 48.7441 53.9785 49.7774 51.74 50.6148C52.916 52.931 54.2754 55.14 55.8106 57.214C62.0176 55.3125 68.334 52.4086 74.8418 47.6225C76.4 31.3745 72.174 17.2851 63.67 4.79C63.67 4.79 63.67 4.79 63.67 4.79ZM25.096 39C21.3809 39 18.338 35.596 18.338 31.4436C18.338 27.2952 21.3184 23.88 25.096 23.88C28.8731 23.88 31.916 27.2875 31.8535 31.4436C31.8575 35.596 28.8731 39 25.096 39C25.096 39 25.096 39 25.096 39ZM50.0645 39C46.3535 39 43.3067 35.596 43.3067 31.4436C43.3067 27.2952 46.2871 23.88 50.0645 23.88C53.8418 23.88 56.8887 27.2875 56.8223 31.4436C56.8223 35.596 53.8418 39 50.0645 39C50.0645 39 50.0645 39 50.0645 39Z" fill="#FFFFFF" transform="translate(26.42 34.87)"/>
</svg>
