<?xml version="1.0" encoding="utf-8"?>
<svg width="128" height="128" viewBox="0 0 128 128" fill="none" xmlns="http://www.w3.org/2000/svg">
<defs>
<linearGradient id="gradient_1" gradientUnits="userSpaceOnUse" x1="60" y1="0" x2="60" y2="120">
<stop offset="0" stop-color="#0AB8FF" />
<stop offset="1" stop-color="#0196FF" />
</linearGradient>
</defs>
<path id="rhombus" d="M54.4148 117.687C55.9573 119.229 57.819 120 60 120C62.1812 120 64.0428 119.229 65.5851 117.687L117.687 65.5852C119.229 64.0429 120 62.1813 120 60.0002C120 57.8191 119.229 55.9575 117.687 54.4149L65.5848 2.31329C64.0426 0.770996 62.1809 0 59.9999 0C57.8187 0 55.957 0.770996 54.4148 2.31329L2.31311 54.4149C0.770875 55.9572 0 57.8188 0 59.9999C0 62.181 0.770875 64.0426 2.31311 65.5849L54.4148 117.687Z" fill="url(#gradient_1)" transform="translate(4 4)"/>
<path id="dolphin" d="M92.1389 37.8658C89.4874 31.2767 86.0501 25.868 81.3346 20.6285C78.8198 17.8252 76.063 15.2486 73.0956 12.9277C72.6532 12.5642 72.1178 12.0847 71.827 11.4607C73.5298 8.32355 78.065 7.94983 80.2211 7.77214C80.8601 7.71949 81.2901 7.68405 81.3756 7.59902C81.3805 7.59548 81.3845 7.59148 81.3876 7.58702C81.9244 6.82069 79.5228 2.41414 69.7902 2.42245C64.726 2.42674 62.0688 3.83644 60.7631 4.49484C60.1804 4.78862 59.3146 4.77962 58.6146 4.5615C44.5469 -1.13094 31.1337 -0.404694 24.3045 0.971046C10.6269 3.72672 7.23395 11.4872 6.01128 15.8846C5.63294 17.0361 5.46007 17.9673 5.26557 18.5125C5.03806 19.1495 4.08801 19.9033 3.05615 20.7219L3.05609 20.7219C1.21367 22.1837 -0.889484 23.8523 0.394949 25.4325C2.32602 27.808 6.07335 27.9035 8.87048 27.0686C15.221 25.1746 20.0531 24.7065 28.0771 25.1035L28.1686 25.1115C28.2856 25.12 28.4004 25.1256 28.5126 25.131L28.5129 25.131C29.1153 25.1601 29.6464 25.1857 30.0809 25.6604C30.6903 26.3266 32.5247 31.2711 37.2307 35.2063C42.5725 39.6725 48.4806 39.9619 48.7243 39.3606C48.8038 39.1632 48.6092 38.9689 48.1605 38.521L48.1598 38.5204C47.522 37.8839 46.3714 36.7355 44.7645 34.3395C42.3985 30.8124 42.9184 27.3876 45.4413 28.2455C45.4961 28.2628 45.55 28.2792 45.6051 28.2927C57.1745 32.4177 65.1707 39.4627 67.7672 41.7504C68.3261 42.2429 68.6349 42.5149 68.6751 42.4897C68.6835 42.4844 68.6876 42.469 68.6873 42.4437C69.4401 41.5415 65.8029 29.976 54.4276 22.2579C41.535 13.5098 28.5106 15.9731 25.6574 16.8708C25.0994 15.6938 30.1433 11.5493 40.0703 12.0339C62.3347 13.12 75.0087 26.4674 81.8976 34.5363C83.9586 36.9503 85.8487 39.6981 87.5316 42.4731L92.1389 37.8658Z" fill="#FFFFFF" transform="translate(22.191 39.077)"/>
<path id="shadow" d="M54.4148 63.2741C55.9573 64.8166 57.819 65.5876 60 65.5876C62.1812 65.5876 64.0428 64.8166 65.5851 63.2744L117.687 11.1728C119.229 9.63046 120 7.76883 120 5.58774C120 3.40665 119.229 1.54501 117.687 0.00241089L117.684 0.000270844L65.5851 52.0995C64.0428 53.6417 62.1812 54.4127 60 54.4127C57.819 54.4127 55.9573 53.6417 54.4148 52.0993L2.31552 0L2.31311 0.00241089C0.770875 1.54471 0 3.40634 0 5.58743C0 7.76852 0.770875 9.63016 2.31311 11.1725L54.4148 63.2741L54.4148 63.2741Z" fill="#1B46E9" fill-opacity="0.75" transform="translate(4 58.412)"/>
</svg>