<?xml version="1.0" encoding="utf-8"?>
<svg width="128" height="128" viewBox="0 0 128 128" xmlns="http://www.w3.org/2000/svg">
<defs>
<clipPath id="rhombus">
<rect width="88" height="88" rx="8" x="20" y="20" transform="rotate(45 64 64)"/>
</clipPath>
<linearGradient id="blue" x1="0" y1="0" x2="0" y2="100%">
<stop offset="0" stop-color="#0AB8FF"/>
<stop offset="1" stop-color="#0196FF"/>
</linearGradient>
</defs>
<g clip-path="url(#rhombus)">
<rect width="128" height="128" fill="url(#blue)"/>
<path d="M99 55C99 55 99 55 99 55C99.4 54.77 98 45.3 95.24 38.43C91.6 29.7 87.13 23.25 80.7 17.25C77.95 14.67 75 12.35 71.82 10.3C71.35 10 70.8 9.54 70.43 9C72.27 4.7 79.27 4.67 79.6 4.26C79.6 4.26 79.615 4.25 79.62 4.25C80 3.44 77.3 -0.74 67.61 0.115C62.57 0.56 60 2.2 58.8 3C58.25 3.3 57.4 3.376 56.67 3.22C42.16 -1.22 28.86 0.67 22.175 2.63C8.8 6.57 6 14.6 5.25 19C5 20.265 4.884 21.2 4.74 21.77C4.57 22.42 3.7 23.2557 2.73 24.16L2.73 24.16C1 25.8 -1 27.6235 0.5 29C2.62 31.284 6.36 31 9 30C15.236 27.54 20 26.65 28 26.345L28.13 26.345C28.246 26.3436 28.36 26.34 28.47 26.335L28.473 26.335C29 26.3 29.6 26.3 30 26.725C30.75 27.336 33 32.1 38 35.6C43.75 39.6 49.6575 39.37 49.85 38.75C50 38.545 49.7 38.37 49.2 38L49.2 38C48.52 37.4 47.275 36.34 45.4656 34C42.8 30.8 43 27.33 45.6 28C45.665 28 45.72 28 45.776 28C57.66 31 66.24 37.42 69 39.47C69.6263 40 70 40.1556 70 40.13C70 40.12 70 40 70 40C70.675 39.116 66 28 54 21.214C40.433 13.623 27.673 17.2 25 18.355C24.25 17.23 29 12.663 38.845 12.3C61.12 11.42 75 23.6 82.4745 31C90 38.5 96 49.86 98 53.745C98.56 54.6 98.82 55 98.866 55L99 55Z" fill="#FEFEFE" transform="translate(20 40) rotate(5 50 28)"/>
<rect width="100" height="100" rx="12" transform="translate(14 5) rotate(45 50 50)" fill="none" stroke="#1B46E9" stroke-width="8" opacity="0.75"/>
</g></svg>
