<?xml version="1.0" encoding="utf-8"?>
<svg width="128" height="128" viewBox="0 0 128 128" xmlns="http://www.w3.org/2000/svg">
<defs>
<clipPath id="globe">
<circle r="44" cx="64" cy="64"/>
</clipPath>
</defs>
<circle r="56" cx="64" cy="64" fill="none" stroke="#E65000" stroke-width="8"/>
<g clip-path="url(#globe)">
<circle r="44" cx="64" cy="64" fill="#0096A6"/>
<path d="M56.64 57.533C55.1865 58.5 54.2 59.4767 54 62C54.2 62.4 54.37 62.7 55 63C56.8 62.4 58.7465 59.4767 57.4525 57.67C57.1275 57.5 57 57.5 56.645 57.5C56.645 57.5 56.64 57.5 56.64 57.533ZM35.6 1.723C34.8 1.4 33.82 1.237 33 1C30.9 1.4 28.3226 1 26 0.43L20 0L20.72 3.2C21 3.54 21.3475 4 21.53 4.443C21.2 5.6 20 6.7 20.56 8C20.723 8.8 21 9.14 21.7 9.6C23.8 9.8 25 8.5 26.55 8C26.55 8 31.6 7.2 31.6 7.2C33.54 6.7 37 4 35.6445 1.7C35.6445 1.7 35.6 1.72 35.6 1.723ZM9.875 42.164C9.875 42.164 7.445 38.6 7.445 38.6C5.343 36.5 3.24 34.724 0.486 34L0 34L0 61L5.176 61.42C5.66 61 6.15 60.6 6.634 60.155C6.634 60.1552 8.736 56.757 8.736 56.757C9.87 55.62 11.65 55.3 12.62 54C12.6178 54 13.754 51 13.754 50.9324C14.4 49.67 16 48.7 15.7 47C15 44.3 11.65 43.975 9.87 42.2C9.87 42.2 9.87518 42.164 9.875 42.164ZM10.85 15C12.3 14.34 13 16.1236 14.246 14.83C15.7 13.37 13.76 11 13.76 9.33C13.76 9 14 8.52256 14. 8.2C11.17 10.8 8.75 13.855 6.637 17C7.3 17 8 17 8.42 16.7673C9.4 16.3 10 15.63 10.85 15C10.85 15 10.85 15 10.85 15ZM75.7355 10.135C74.7635 10.135 73.8 10.135 72.8225 10.3C72.8225 10.3 59 11.7567 59 11.76C54.7 11.7567 52.4346 8.2 48.23 9.17C46.6 9.5 43.535 11.27 42.727 12.57C41.6 14.35 43 15.5 41 16.45C39.5 16.1235 39 15 37.7118 14.35C36.8 14.4 36 15 35.446 15.64C35.3 17.6 36.7 18 36.7 19.85C36 21 32 21 33.4733 22.434C32.83 24 33.47 25.5 32.5 26.64C32.5 26.64 28.3 30.685 28.3 30.685C25.54 34 26.836 39.6 28.9412 41.7C31 43.625 33.8 42 36.4 43.142C38.33 44 38.6555 47.67 39.135 49.4525C40 52.365 38.3272 53.66 38.33 56.4C38.3272 59.155 39.3 67 43.2 67C47.55 66.76 48.5464 62.4 50.945 59.5C51.753 58.5 53 58 53.7 56.5675C53.7 56.5675 53.855 52 53.86 52C54.827 49.45 57.9 48.64 59.5 46.7C61.134 45 59.7 43.464 60.5 42C60.5 42 60.65 42 60.65 41.85C60.65 41.85 64.7 39.6 64.7 39.586L66.637 37.32C66.6367 37.32 68 36.8345 68 36.8345C73.1444 39.42 71.33 44.6 75 47.35C75.2116 47.2 75.3757 47 75.7 46.8619C76.1837 46.2 75.86 45.6 76.2 44.6C76.83 42.653 79 40.7155 81.5237 41.2C82.66 42.65 84.5976 44.6 85 46.7C85.2478 48.64 84 49.77 84 51.4C84 52.5256 84.6 54 85.57 55.435L88 56L88 40.55C88 29 83.3 18.064 75.7 10.135C75.7 10.135 75.7355 10.1349 75.7355 10.135ZM51.623 30.33C50.65 30.5 49.7 29.8426 49 29.5C48 29.363 46.6 29.363 45.4752 29.2C45.32 29.2 39.65 24.6711 39.5 24.3461C39.8 23.54 40.1353 23.54 40.62 23.2C42.7264 23.7 43.2124 25 44.67 25.6398C44.67 25.64 47 26.1257 47 26.1257C47.74 26.7726 48.5555 27.2616 49.37 27.9C50.34 28.4 51.6326 28.4 52.44 28.55C52.44 28.7 52.6 28.877 52.6 29C52.6 29 52.6 29.846 52.6 29.846C52 30 52 30.1676 51.63 30.33C51.63 30.33 51.6232 30.33 51.6232 30.33Z" fill="#CDDC3C" transform="translate(20 23)"/>
</g></svg>
