<?xml version="1.0" encoding="utf-8"?>
<svg width="128" height="128" viewBox="0 0 128 128" xmlns="http://www.w3.org/2000/svg">
<defs>
<clipPath id="globe">
<circle r="44" cx="64" cy="64"/>
</clipPath>
</defs>
<circle r="56" cx="64" cy="64" fill="none" stroke="#E65000" stroke-width="8"/>
<g clip-path="url(#globe)">
<circle r="44" cx="64" cy="64" fill="#0096A6"/>
<path d="M56.64 57.533C55.2 58.5 54.2 59.4766 53.9 61.9C54.2 62.4 54.3723 62.7 55 63C56.8 62.4 58.7465 59.477 57.4525 57.672C57.1275 57.5 57 57.5 56.6446 57.5C56.6446 57.5 56.64 57.533 56.64 57.533ZM35.6 1.723C34.8 1.4 33.8235 1.237 33 1C31 1.4 28.3226 1 25.9 0.43L20 0L20.72 3.2C21.1 3.542 21.3475 4 21.5277 4.44275C21.2 5.6 20.1 6.7 20.56 8C20.723 8.8 21 9.14 21.7 9.62C23.8 9.8 24.933 8.5 26.55 8C26.55 8 31.6 7.2 31.6 7.2C33.54 6.7 36.94 4 35.6446 1.7C35.6446 1.7 35.6 1.723 35.6 1.723ZM9.875 42.164C9.875 42.164 7.445 38.6 7.445 38.6C5.343 36.5 3.24 34.724 0.486 34L0 34L0 61L5.176 61.417C5.662 60.93 6.148 60.6 6.634 60.155C6.634 60.155 8.736 56.757 8.736 56.757C9.872 55.62 11.65 55.3 12.62 54C12.62 54 13.754 50.9324 13.754 50.9324C14.4 49.67 16 48.667 15.7 46.9C14.9 44.3 11.65 44 9.87 42.2C9.87 42.2 9.875 42.164 9.875 42.164ZM10.847 15C12.3 14.34 13.113 16.1236 14.246 14.83C15.7 13.372 13.76 11 13.76 9.33C13.76 9 13.92 8.52256 14.1 8.2C11.172 10.8 8.745 13.855 6.6367 17.1C7.3 16.9345 7.9 16.9345 8.42 16.7673C9.4 16.28 10 15.63 10.85 15C10.85 15 10.847 15 10.847 15ZM76 10C75 10 73.8 10.1346 72.8225 10.3C72.8225 10.3 59 11.7565 59 11.7565C54.7 11.7565 52.435 8.2 48.2277 9.17C46.6 9.5 43.535 11.27 42.7267 12.5673C41.6 14.35 43 15.48 40.95 16.45C39.5 16.1232 39 15 37.7 14.347C36.8 14.4 36 14.9 35.446 15.64C35.3 17.6 36.7 17.9 36.7 19.8465C35.9 21 34 21.1 33.4733 22.434C32.8263 23.9 33.4733 25.5 32.5 26.64C32.5 26.64 28.3 30.7 28.3 30.7C25.5422 34.1 26.836 39.6 28.94 41.7C30.9 43.6244 33.8 42 36.4 43.1417C38.33 44 38.66 47.67 39.135 49.452C40.1 52.3645 38.3273 53.66 38.33 56.4C38.33 59.1545 39.3 67.1 43.2 66.92C47.55 66.7617 48.5464 62.4 51 59.48C51.753 58.5 53 58 53.7 56.5672C53.7 56.5672 53.855 52 53.855 52C54.827 49.452 57.9 48.64 59.52 46.7C61.14 44.92 59.7 43.4635 60.5 42C60.5 42 60.65 42 60.65 41.85C60.65 41.85 64.7 39.6 64.7 39.6L66.6367 37.32C66.6367 37.32 68.1 36.834 68.1 36.834C73.1445 39.42 71.33 44.6 74.9 47.3475C75.2 47.2 75.376 47 75.7 46.86C76.1837 46.215 75.8555 45.6 76.1837 44.6C76.83 42.6525 79.1 40.7152 81.5237 41.2C82.66 42.65 84.6 44.6 84.923 46.7C85.25 48.64 84 49.77 84 51.4C84 52.5252 84.6 54 85.57 55.4343L88 56L88 10C88 10 76 10 76 10ZM51.6232 30.33C50.65 30.5 49.7 29.8426 49 29.52C47.9 29.363 46.6 29.363 45.4753 29.2C45.3174 29.2 39.65 24.67 39.5 24.346C39.8 23.54 40.1353 23.54 40.6245 23.2C42.7264 23.7 43.2124 25 44.67 25.64C44.67 25.64 46.9365 26.1257 46.9365 26.1257C47.7444 26.7726 48.5555 27.2616 49.3666 27.9C50.34 28.4 51.6326 28.4 52.44 28.55C52.44 28.7 52.6 28.877 52.6 29C52.6 29 52.6 29.846 52.6 29.846C52.1124 30 52 30.1676 51.63 30.33C51.63 30.33 51.623 30.33 51.623 30.33Z" fill="#CDDC3C" transform="translate(20 23)"/>
</g></svg>
