<?xml version="1.0" encoding="utf-8"?>
<svg width="128" height="128" viewBox="0 0 128 128" xmlns="http://www.w3.org/2000/svg">
<defs>
<linearGradient id="wood">
<stop offset="0" stop-color="#FFFFFF"/>
<stop offset="1" stop-color="#D1BC8E"/>
</linearGradient>
<linearGradient id="eraser">
<stop offset="0" stop-color="#FC9B92"/>
<stop offset="1" stop-color="#CB2B31"/>
</linearGradient>
<linearGradient id="steel">
<stop offset="0" stop-color="#F5F4F2"/>
<stop offset="22%" stop-color="#D6D5D2"/>
<stop offset="74%" stop-color="#9A9996"/>
<stop offset="100%" stop-color="#BFBEBB"/>
</linearGradient>
</defs>
<rect width="88" height="112" rx="8" x="20" y="8" fill="#F6F5F4"/>
<path d="M64 0C64 0 46 48 36 48C26 48 24 32 14 32C4 32 0 44 0 56C0 68 4 80 14 80C24 80 26 64 36 64C46 64 64 112 64 112" fill="none" stroke="#646464" stroke-width="3" transform="translate(28 8)"/>
<g transform="translate(28 -15) rotate(45, 10, 111)">
<path d="M0 0L10 14L20 0Z" fill="url(#wood)" transform="translate(0 97)"/>
<path d="M0 0L5 7L10 0Z" fill="#3D3846" transform="translate(5 104)"/>
<rect width="20" height="32" rx="10" fill="url(#eraser)"/>
<rect width="6" height="75" x="14" y="22" fill="#242030"/>
<rect width="8" height="75" x="6" y="22" fill="#3D3846"/>
<rect width="6" height="75" y="22" fill="#5E5D65"/>
<rect width="20" height="8" y="14" fill="url(#steel)"/>
</g></svg>
