<?xml version="1.0" encoding="utf-8"?>
<svg width="128" height="128" viewBox="0 0 128 128" xmlns="http://www.w3.org/2000/svg">
<defs>
<linearGradient id="white" x1="0" y1="0" x2="0" y2="1">
<stop offset="20%" stop-color="#FFFFFF"/>
<stop offset="50%" stop-color="#F0F0F0"/>
<stop offset="75%" stop-color="#E8EAEB"/>
<stop offset="1" stop-color="#F4F2F3"/>
</linearGradient>
</defs>
<rect width="104" height="104" rx="8" x="12" y="12" fill="url(#white)"/>
<path d="M42.1 2.7C42.1 2.81752 42.1 3 42 3.22652C42 3.46 42 3.72566 41.9465 4C41.9 4.3 41.84 4.6 41.76 4.93C41.676 5.25 41.5785 5.55 41.4675 5.82653C41.3565 6.1 41.23 6.32567 41.1 6.5C41 6.66 40.8 6.74137 40.636 6.74137C40.4417 6.74 40.2 6.7 39.9 6.57524C39.6162 6.465 39.2765 6.34653 38.9 6.22137C38.5 6.1 38 6 37.5 5.86751C367 5.75725 36.4 5.7 35.77 5.7C34.5764 5.7 33.5572 5.9 32.7 6.24149C31.8654 6.60207 31.1375 7.16379 30.53 7.92591C29.92 8.7 29.4054 9.65 29 10.8165C28.5733 11.9809 28.2127 13.3539 27.9072 14.934C27.9 14.934 27.2 18.6776 27.2 18.6776C27.2002 18.6776 35.5612 18.6776 35.5612 18.6776C35.8659 18.6776 36.1081 18.7819 36.2891 18.9897C36.4694 19.1976 36.5595 19.5373 36.5595 20.0089C36.5595 20.3143 36.5312 20.6324 36.4761 20.9654C36.4202 21.2984 36.3517 21.6247 36.2682 21.9429C36.1855 22.2617 36.0812 22.5664 35.9568 22.8584C35.8324 23.15 35.7 23.4 35.54 23.628C35.3877 23.85 35.2141 24.0303 35.0204 24.17C34.8259 24.3 34.6322 24.3767 34.4378 24.3767C34.4378 24.3767 26 24.3767 26.0373 24.3767C26.0373 24.3767 18.9249 59.8158 18.9249 59.8158C18.4534 62.1446 17.8156 64.162 17 65.8673C16.2072 67.5726 15.2231 68.9874 14.0587 70.11C12.8942 71.2327 11.55 72 10 72.6C8.5 73.147 6.78 73.4 4.866 73.417C3.61841 73.417 2.6 73.3195 1.8 73.126C1 72.9 0.5267 72.751 0.332264 72.6C0.222 72.445 0.138567 72.3 0.1 72.1275C0 72 0 71.7386 0 71.4614C0 71.35 0 71.1635 0 70.9C0.1 70.636 0.152723 70.36 0.2 70C0.263 69.7763 0.332264 69.47 0.415 69.1527C0.5 68.833 0.6 68.535 0.7 68.26C0.8 68 1 67.76 1.1 67.5927C1.21955 67.4259 1.3857 67.343 1.58 67.343C1.774 67.3432 2 67.3633 2.1411 67.4058C2.32138 67.4475 2.51508 67.5 2.723 67.53C2.93 67.5719 3.18 67.6 3.47164 67.6553C3.76293 67.697 4.13021 67.7172 4.5735 67.7172C5.7379 67.7172 6.74363 67.54 7.6 67.176C8.43475 66.8 9.16 66.254 9.75 65.5C10.3479 64.729 10.847 63.7657 11.25 62.6C11.65 61.436 12 60 12.35 58.4C12.3512 58.4 19.173 24.3753 19.173 24.3753C19.173 24.375 13.85 24.3753 13.85 24.3753C13.5714 24.3753 13.356 24.286 13.2 24.1C13 23.9 13 23.6 12.9754 23.1C12.9754 22.8637 13 22.6 13 22.2744C13 22 13.1 21.63 13.1624 21.3C13.23 21 13.32 20.65 13.433 20.34C13.543 20.0357 13.6824 19.7578 13.85 19.5C14.0154 19.26 14.2 19 14.37 18.9048C14.5496 18.753 14.7783 18.676 15 18.6761C15 18.676 20.3 18.676 20.3 18.6761C20.3 18.676 21.3364 13.4768 21.3364 13.4768C21.8 11.2 22.4 9.2 23.25 7.5C24.1 5.8 25.1 4.39543 26.265 3.3C27.444 2.1776 28.8 1.35 30.34 0.8C31.9 0.27 33.58 0 35.437 0C36 0 36.7 0 37.35 0.1C38 0.17 38.632 0.27 39.2 0.4C39.77 0.52 40.27 0.666 40.7 0.83C41.13 1 41.4265 1.165 41.6 1.33C41.76 1.47 41.9 1.6643 42 1.914C42 2.16566 42.1 2.43013 42.1 2.7C42.1 2.7 42.1 2.70652 42.1 2.7Z" fill="#E57025" transform="translate(25.4 30)"/>
<path d="M37.9292 31.1546C37.93 32.82 37.7765 34.6553 37.472 36.6653C37.1671 38.676 36.675 40.7002 35.996 42.7377C35.3158 44.776 34.4628 46.7584 33.4377 48.6857C32.4111 50.6137 31.156 52.319 29.6733 53.8C28.2 55.3 26.484 56.4783 24.5567 57.379C22.6294 58.28 20.46 58.7304 18.0478 58.73C15.55 58.73 13.4162 58.26 11.6416 57.3164C9.867 56.374 8.3 55 6.9 53.24C6.9 53.24 6.15 56.9 6.15179 56.9C6.1 57.3723 5.8 57.7 5.257 57.9C4.7162 58.1 3.9 58.2 2.8 58.2C1.62 58.2 0.84 58.1 0.453377 57.86C0 57.636 0 57.3164 0 56.9C0 56.9 11.1 1.33 11.1 1.33C11.1566 1.1 11.2468 0.914845 11.372 0.75C11.5 0.6 11.7 0.444 12 0.332264C12.287 0.222 12.66 0.14 13.12 0.1C13.5763 0 14.1515 0 14.845 0C15.5103 0 16 0 16.467 0.1C16.9 0.14 17.2156 0.222 17.465 0.3322C17.7147 0.443268 17.8675 0.581835 17.923 0.75C18 0.9 18 1.1 17.965 1.33C18 1.33 14.6372 18.0518 14.6372 18.0518C14.5 18.77 14.33 19.5224 14.14 20.2979C13.9436 21.1 13.7432 21.8438 13.5346 22.6067C13.327 23.37 13.12 24.1 12.9 24.77C12.7025 25.45 13.3 26 12.3486 26.5372C12.8 25.5665 13.5 24.56 14.45 23.5215C15.4 22.5 16.5287 21.5249 17.8176 20.65C19.1071 19.8 20.5144 19 22 18.4675C23.5644 17.9 25.1 17.6 26.657 17.5944C28.3197 17.6 29.75 17.8 30.94 18.2597C32.1332 18.7037 33.145 19.3 34 20C34.8 20.762 35.4812 21.6 36 22.544C36.5071 23.4872 36.9 24.4572 37.1798 25.4555C37.4569 26.454 37.6514 27.4454 37.7624 28.43C37.8734 29.4 37.93 30.3232 37.93 31.1546C37.93 31.155 37.9292 31.1546 37.93 31.1546ZM30.7334 31.7372C30.7334 31 30.664 30.13 30.5263 29.1581C30.3862 28.2 30.1165 27.2867 29.715 26.4545C29.3127 25.6224 28.7301 24.923 28 24.3544C27.2 23.786 26.1852 23.5014 24.9 23.5C23.4124 23.5 21.8867 23.932 20.33 24.791C18.8 25.65 17.34 26.8367 16 28.3475C14.677 29.86 13.5 31.6337 12.45 33.6712C11.4121 35.7088 10.6567 37.935 10.2 40.347C10.185 40.347 8.81288 47.2523 8.8 47.2523C10.1 49.1655 11.5164 50.6 13 51.5C14.5 52.4091 16.2 52.8673 18.1 52.8673C19.53 52.8673 20.834 52.535 22 51.87C23.163 51.203 24.217 50.3165 25.16 49.2C26.1 48.1 26.92 46.83 27.6 45.4C28.3 43.9736 28.9 42.4762 29.3395 40.9C29.8 39.343 30.1434 37.7686 30.3795 36.1885C30.6 34.6 30.7334 33.1244 30.7334 31.7372C30.7334 31.7372 30.7334 31.737 30.733 31.737Z" fill="#69899F" transform="translate(66.66 30.4)"/>
</svg>
