<?xml version="1.0" encoding="utf-8"?>
<svg width="128" height="128" viewBox="0 0 128 128" fill="none" xmlns="http://www.w3.org/2000/svg">
  <defs>
    <linearGradient id="gradient_1" gradientUnits="userSpaceOnUse" x1="115.416" y1="32.095" x2="11.484" y2="97.564">
      <stop offset="0" stop-color="#9658F9" />
      <stop offset="0.13" stop-color="#9356F4" />
      <stop offset="0.29" stop-color="#8951E5" />
      <stop offset="0.46" stop-color="#7A49CD" />
      <stop offset="0.64" stop-color="#643DAB" />
      <stop offset="0.82" stop-color="#492E81" />
      <stop offset="1" stop-color="#291D4F" />
    </linearGradient>
    <radialGradient id="gradient_2" gradientUnits="userSpaceOnUse" cx="0" cy="0" r="1" gradientTransform="matrix(-48.619 115.436 -121.904 -51.343 100.454 19.965)">
      <stop offset="0" stop-color="#9658F9" />
      <stop offset="0.65" stop-color="#291D4F" />
    </radialGradient>
    <radialGradient id="gradient_3" gradientUnits="userSpaceOnUse" cx="0" cy="0" r="1" gradientTransform="matrix(125.116 0 0 125.113 71.732 77.17)">
      <stop offset="0.25" stop-color="#AB71FF" stop-opacity="0" />
      <stop offset="0.42" stop-color="#9462E0" stop-opacity="0.18" />
      <stop offset="0.73" stop-color="#573B8D" stop-opacity="0.651" />
      <stop offset="0.94" stop-color="#291D4F" />
    </radialGradient>
    <radialGradient id="gradient_4" gradientUnits="userSpaceOnUse" cx="0" cy="0" r="1" gradientTransform="matrix(90.445 0 0 90.443 86.815 -2.365)">
      <stop offset="0.18" stop-color="#9658F9" />
      <stop offset="0.33" stop-color="#7E48EA" />
      <stop offset="0.37" stop-color="#7542E5" />
      <stop offset="0.41" stop-color="#6A3DD0" />
      <stop offset="0.48" stop-color="#5332A2" />
      <stop offset="0.56" stop-color="#41297E" />
      <stop offset="0.63" stop-color="#342264" />
      <stop offset="0.69" stop-color="#2C1E54" />
      <stop offset="0.74" stop-color="#291D4F" />
    </radialGradient>
    <radialGradient id="gradient_5" gradientUnits="userSpaceOnUse" cx="0" cy="0" r="1" gradientTransform="matrix(59.626 0 0 59.624 44.281 91.954)">
      <stop offset="0.07" stop-color="#9358FC" />
      <stop offset="0.13" stop-color="#9857F8" />
      <stop offset="0.21" stop-color="#A755EB" />
      <stop offset="0.3" stop-color="#BF52D7" />
      <stop offset="0.39" stop-color="#E14EBA" />
      <stop offset="0.42" stop-color="#EF4CAF" />
      <stop offset="0.74" stop-color="#FF7583" />
      <stop offset="0.97" stop-color="#FFB753" />
    </radialGradient>
    <radialGradient id="gradient_6" gradientUnits="userSpaceOnUse" cx="0" cy="0" r="1" gradientTransform="matrix(30.662 -7.586 8.912 36.02 58.648 49.197)">
      <stop offset="0.22" stop-color="#FFB653" stop-opacity="0.302" />
      <stop offset="0.34" stop-color="#FF807A" stop-opacity="0.502" />
      <stop offset="0.44" stop-color="#FF7781" stop-opacity="0.478" />
      <stop offset="0.57" stop-color="#FF5C94" stop-opacity="0.431" />
      <stop offset="0.64" stop-color="#FF4AA2" stop-opacity="0.4" />
      <stop offset="0.86" stop-color="#9658F9" stop-opacity="0.302" />
    </radialGradient>
    <radialGradient id="gradient_7" gradientUnits="userSpaceOnUse" cx="0" cy="0" r="1" gradientTransform="matrix(42.862 0 0 42.86 70.153 20.909)">
      <stop offset="0.03" stop-color="#9658F9" />
      <stop offset="0.62" stop-color="#7542E5" />
      <stop offset="0.72" stop-color="#6339C2" />
      <stop offset="0.93" stop-color="#37246B" />
      <stop offset="1" stop-color="#291D4F" />
    </radialGradient>
    <radialGradient id="gradient_8" gradientUnits="userSpaceOnUse" cx="0" cy="0" r="1" gradientTransform="matrix(-39.118 171.347 -134.491 -30.704 76.975 -31.16)">
      <stop offset="0.2" stop-color="#AB71FF" />
      <stop offset="0.29" stop-color="#A46BFC" />
      <stop offset="0.41" stop-color="#9059F2" />
      <stop offset="0.54" stop-color="#7542E5" />
      <stop offset="0.64" stop-color="#6239BF" />
      <stop offset="0.94" stop-color="#291D4F" />
    </radialGradient>
    <radialGradient id="gradient_9" gradientUnits="userSpaceOnUse" cx="0" cy="0" r="1" gradientTransform="matrix(14.06 133.202 -87.554 9.242 80.617 22.737)">
      <stop offset="0.09" stop-color="#9658F9" />
      <stop offset="0.14" stop-color="#8C51F3" />
      <stop offset="0.26" stop-color="#7542E5" />
      <stop offset="0.29" stop-color="#6E3ED6" />
      <stop offset="0.4" stop-color="#5533A6" />
      <stop offset="0.5" stop-color="#422980" />
      <stop offset="0.59" stop-color="#342365" />
      <stop offset="0.67" stop-color="#2C1E55" />
      <stop offset="0.74" stop-color="#291D4F" />
    </radialGradient>
    <radialGradient id="gradient_10" gradientUnits="userSpaceOnUse" cx="0" cy="0" r="1" gradientTransform="matrix(114.152 0 0 114.15 69.148 36.779)">
      <stop offset="0" stop-color="#9658F9" />
      <stop offset="0.12" stop-color="#9155F6" />
      <stop offset="0.25" stop-color="#834CEE" />
      <stop offset="0.34" stop-color="#7542E5" />
      <stop offset="0.78" stop-color="#291D4F" />
    </radialGradient>
    <radialGradient id="gradient_11" gradientUnits="userSpaceOnUse" cx="0" cy="0" r="1" gradientTransform="matrix(124.679 0 0 124.679 99.291 43.456)">
      <stop offset="0.19" stop-color="#9658F9" />
      <stop offset="0.49" stop-color="#834BED" />
      <stop offset="0.66" stop-color="#7542E5" />
      <stop offset="0.7" stop-color="#6B3DD2" />
      <stop offset="0.79" stop-color="#52319F" />
      <stop offset="0.91" stop-color="#291D4F" />
    </radialGradient>
    <linearGradient id="gradient_12" gradientUnits="userSpaceOnUse" x1="108.002" y1="18.959" x2="23.161" y2="103.799">
      <stop offset="0" stop-color="#9059FF" stop-opacity="0.898" />
      <stop offset="0.61" stop-color="#291D4F" stop-opacity="0" />
    </linearGradient>
  </defs>
  <g>
    <path d="M115.605 41.5735C112.986 35.2974 107.702 28.5099 103.549 26.3714C106.927 32.9884 108.88 39.6365 109.639 44.5954C109.639 44.5954 109.639 44.6884 109.639 44.6884C102.852 27.7661 91.322 20.9475 81.9155 6.08629C81.4351 5.32696 80.9702 4.58312 80.4898 3.7773C80.2264 3.3279 80.0249 2.92499 79.8389 2.53757C79.4515 1.77824 79.1416 0.987909 78.9401 0.166589C78.9401 0.120099 78.9246 0.0891055 78.9091 0.0581123C78.8782 0.0271191 78.8472 0.0116225 78.8162 0.0116225C78.7852 -0.00387416 78.7387 -0.00387416 78.7077 0.0116225C78.7077 0.0116225 78.6767 0.0271191 78.6767 0.0271191C78.6612 0.0271191 78.6457 0.0426157 78.6302 0.0426157C78.6302 0.0426157 78.6457 0.0116225 78.6457 0.0116225C63.5519 8.84469 58.438 25.1936 57.9731 33.3758C51.9449 33.7942 46.1801 36.0103 41.4381 39.7449C40.9423 39.3265 40.4154 38.9391 39.8885 38.5672C38.5248 33.7787 38.4628 28.7113 39.718 23.8919C33.5503 26.6968 28.7464 31.1443 25.2596 35.065C25.2596 35.065 25.2751 35.065 25.2751 35.065C22.8886 32.0431 23.0591 22.0943 23.1985 20.0177C23.1675 19.8938 21.4164 20.9321 21.1995 21.087C19.0919 22.5902 17.1393 24.2638 15.3262 26.1234C13.2652 28.2 11.3901 30.4625 9.71642 32.8489C5.84225 38.3193 3.09934 44.5024 1.64265 51.042C1.61166 51.1659 1.59616 51.3054 1.56517 51.4449C1.45669 51.9718 1.03828 54.6217 0.976291 55.1951C0.976291 55.1951 0.976291 55.319 0.976291 55.319C0.449404 58.0464 0.123973 60.8203 0 63.6097C0 63.6097 0 63.9197 0 63.9197C0 97.0979 26.8868 123.985 60.0652 123.985C89.7723 123.985 114.443 102.413 119.278 74.0854C119.386 73.3261 119.464 72.5513 119.557 71.7764C120.704 61.4402 119.355 50.6081 115.605 41.5735C115.605 41.5735 115.605 41.5735 115.605 41.5735Z" fill="url(#gradient_1)" transform="translate(4.047 0)" />
    <path d="M115.652 15.2022C113.033 8.92605 107.748 2.13853 103.595 0C106.974 6.61705 108.926 13.2651 109.686 18.224C109.686 18.224 109.686 18.348 109.686 18.348C115.357 33.7051 112.258 49.3412 107.81 58.8871C100.93 73.6554 84.2555 88.7956 58.1901 88.0673C30.0171 87.2614 5.19139 66.3565 0.557881 38.9585C-0.294437 34.6349 0.557881 32.4499 0.976291 28.9477C0.4649 31.6441 0.263443 32.4344 0 37.2384C0 37.2384 0 37.5483 0 37.5483C0 70.7265 26.8868 97.6132 60.0652 97.6132C89.7723 97.6132 114.443 76.0419 119.278 47.7141C119.386 46.9392 119.464 46.1799 119.557 45.4051C120.75 35.0688 119.402 24.2367 115.652 15.2022C115.652 15.2022 115.652 15.2022 115.652 15.2022Z" fill="url(#gradient_2)" transform="translate(4 26.371)" />
    <path d="M115.652 15.2022C113.033 8.92605 107.748 2.13853 103.595 0C106.974 6.61705 108.926 13.2651 109.686 18.224C109.686 18.224 109.686 18.348 109.686 18.348C115.357 33.7051 112.258 49.3412 107.81 58.8871C100.93 73.6554 84.2555 88.7956 58.1901 88.0673C30.0171 87.2614 5.19139 66.3565 0.557881 38.9585C-0.294437 34.6349 0.557881 32.4499 0.976291 28.9477C0.4649 31.6441 0.263443 32.4344 0 37.2384C0 37.2384 0 37.5483 0 37.5483C0 70.7265 26.8868 97.6132 60.0652 97.6132C89.7723 97.6132 114.443 76.0419 119.278 47.7141C119.386 46.9392 119.464 46.1799 119.557 45.4051C120.75 35.0688 119.402 24.2367 115.652 15.2022C115.652 15.2022 115.652 15.2022 115.652 15.2022Z" fill="url(#gradient_3)" transform="translate(4 26.371)" />
    <path d="M28.4364 48.6284C28.4364 48.6284 28.8083 48.9073 28.8083 48.9073C27.3052 46.2264 25.4301 43.7779 23.2295 41.6239C4.55602 22.9505 18.3326 1.13125 20.6571 0.0309932C20.6571 0.0309932 20.6726 0 20.6726 0C5.5788 8.83307 0.464901 25.182 0 33.3642C0.697353 33.3177 1.3947 33.2557 2.10755 33.2557C13.3736 33.2557 23.183 39.4389 28.4364 48.6284C28.4364 48.6284 28.4364 48.6284 28.4364 48.6284Z" fill="url(#gradient_4)" transform="translate(62.035 0.012)" />
    <path d="M27.0727 19.0918C26.9797 20.5795 21.6954 25.7399 19.8513 25.7399C2.77391 25.7399 0 36.0761 0 36.0761C0.759338 44.7852 6.81854 51.9446 14.1485 55.7413C14.4894 55.9118 14.8148 56.0667 15.1558 56.2217C15.7446 56.4851 16.3335 56.7176 16.9224 56.95C19.4328 57.8334 22.0673 58.3447 24.7327 58.4532C54.6723 59.8634 60.4681 22.656 38.8657 11.8549C44.398 10.8941 50.1473 13.1256 53.3551 15.3726C48.1017 6.19864 38.2923 0 27.0417 0C26.3289 0 25.616 0.0619888 24.9342 0.108475C18.906 0.526886 13.1412 2.7429 8.39921 6.47758C9.31351 7.25241 10.3518 8.29069 12.5213 10.4292C16.5815 14.4428 27.0417 18.5959 27.0727 19.0918C27.0727 19.0918 27.0727 19.0918 27.0727 19.0918Z" fill="url(#gradient_5)" transform="translate(37.24 33.267)" />
    <path d="M27.0727 19.0918C26.9797 20.5795 21.6954 25.7399 19.8513 25.7399C2.77391 25.7399 0 36.0761 0 36.0761C0.759338 44.7852 6.81854 51.9446 14.1485 55.7413C14.4894 55.9118 14.8148 56.0667 15.1558 56.2217C15.7446 56.4851 16.3335 56.7176 16.9224 56.95C19.4328 57.8334 22.0673 58.3447 24.7327 58.4532C54.6723 59.8634 60.4681 22.656 38.8657 11.8549C44.398 10.8941 50.1473 13.1256 53.3551 15.3726C48.1017 6.19864 38.2923 0 27.0417 0C26.3289 0 25.616 0.0619888 24.9342 0.108475C18.906 0.526886 13.1412 2.7429 8.39921 6.47758C9.31351 7.25241 10.3518 8.29069 12.5213 10.4292C16.5815 14.4428 27.0417 18.5959 27.0727 19.0918C27.0727 19.0918 27.0727 19.0918 27.0727 19.0918Z" fill="url(#gradient_6)" transform="translate(37.24 33.267)" />
    <path d="M13.3891 13.854C13.8695 14.1639 14.2725 14.4273 14.6289 14.6753C13.2652 9.88684 13.2032 4.81945 14.4584 0C8.29073 2.80489 3.48676 7.25241 0 11.1731C0.294437 11.1731 9.01907 11.0026 13.3891 13.854C13.3891 13.854 13.3891 13.854 13.3891 13.854Z" fill="url(#gradient_7)" transform="translate(29.306 23.892)" />
    <path d="M0.29285 45.3688C4.92636 72.7514 29.7521 93.6718 57.9405 94.4621C84.0215 95.206 100.696 80.0658 107.561 65.282C112.008 55.7361 115.092 40.1155 109.436 24.7428C109.436 24.7428 109.436 24.6189 109.436 24.6189C109.436 24.6189 109.436 24.7119 109.436 24.7119C111.559 38.6278 104.493 52.0944 93.4279 61.2064C93.4279 61.2064 93.3969 61.2839 93.3969 61.2839C71.8411 78.8415 51.215 71.868 47.0309 69.0167C46.7519 68.8772 46.4575 68.7377 46.163 68.5828C33.5952 62.5701 28.4038 51.1181 29.5196 41.3087C18.9044 41.3087 15.2936 32.3517 15.2936 32.3517C15.2936 32.3517 24.8241 25.5642 37.3764 31.4684C49.0144 36.9387 59.9241 32.3517 59.9241 32.3517C59.9086 31.8558 49.4483 27.7027 45.3727 23.6891C43.1877 21.5505 42.1649 20.5123 41.2506 19.7374C40.7547 19.319 40.2278 18.9316 39.7009 18.5597C39.3445 18.3118 38.9416 18.0483 38.4612 17.7384C34.0756 14.887 25.3665 15.042 25.0875 15.0575C25.0875 15.0575 25.072 15.0575 25.072 15.0575C22.6856 12.0356 22.856 2.0868 22.9955 0.010252C22.9645 -0.11372 21.2134 0.924553 20.9964 1.07952C18.8889 2.58269 16.9363 4.25632 15.1232 6.11592C13.0621 8.19246 11.187 10.455 9.51338 12.8414C5.6392 18.3118 2.89629 24.4949 1.4396 31.0345C1.36212 31.2049 -0.760929 40.5339 0.292846 45.3688C0.292846 45.3688 0.29285 45.3688 0.29285 45.3688Z" fill="url(#gradient_8)" transform="translate(4.265 19.961)" />
    <path d="M9.64535 41.6355C11.8304 43.7896 13.7055 46.238 15.2242 48.9189C15.5496 49.1669 15.8595 49.4148 16.123 49.6473C29.7446 62.1995 22.6006 79.9432 22.0737 81.2139C33.1383 72.0864 40.2203 58.6198 38.0818 44.7193C31.2942 27.7661 19.7802 20.9475 10.3737 6.0863C9.8933 5.32696 9.4284 4.58312 8.94801 3.7773C8.68456 3.3279 8.46761 2.92499 8.28165 2.53757C7.89423 1.77824 7.58429 0.987909 7.38284 0.166589C7.38284 0.120099 7.36734 0.0891055 7.35184 0.0581123C7.32085 0.0271191 7.28986 0.0116225 7.25886 0.0116225C7.22787 -0.00387416 7.18137 -0.00387416 7.15038 0.0116225C7.15038 0.0116225 7.11938 0.0271191 7.11938 0.0271191C7.1039 0.0271191 7.08839 0.0426157 7.0729 0.0426157C4.7484 1.14288 -9.02816 22.9621 9.64535 41.6355Z" fill="url(#gradient_9)" transform="translate(75.619 0)" />
    <path d="M40.4774 4.75415C40.2139 4.5217 39.904 4.27376 39.5785 4.02581C39.5785 4.02581 39.2066 3.74687 39.2066 3.74687C35.9988 1.49986 30.265 -0.731647 24.7172 0.229141C46.3196 11.0303 40.5238 48.2221 10.5842 46.8274C7.9188 46.719 5.28437 46.2076 2.77391 45.3243C2.18503 45.1073 1.59616 44.8594 1.00728 44.5959C0.666359 44.441 0.325428 44.286 0 44.1155C0 44.1155 0.0464897 44.1465 0.0464897 44.1465C4.2306 46.9979 24.8567 53.9559 46.4126 36.4137C46.4126 36.4137 46.4436 36.3362 46.4436 36.3362C46.955 35.0345 54.0834 17.3064 40.4773 4.75415C40.4773 4.75415 40.4774 4.75415 40.4774 4.75415Z" fill="url(#gradient_10)" transform="translate(51.265 44.893)" />
    <path d="M17.5577 20.2808C17.5577 20.2808 20.3317 9.94451 37.409 9.94451C39.2531 9.94451 44.5375 4.79964 44.6305 3.29646C44.6305 3.29646 33.7053 7.88346 22.0828 2.41316C9.53046 -3.49105 0 3.29646 0 3.29646C0 3.29646 3.62623 12.2535 14.226 12.2535C13.1102 22.0784 18.3016 33.5149 30.8694 39.5275C31.1483 39.667 31.4118 39.8065 31.7062 39.9304C24.3763 36.1338 18.3171 28.9588 17.5578 20.2807C17.5578 20.2807 17.5577 20.2808 17.5577 20.2808Z" fill="url(#gradient_11)" transform="translate(19.543 49.063)" />
    <path d="M115.621 41.5735C113.002 35.2974 107.717 28.5099 103.564 26.3714C106.943 32.9884 108.895 39.6365 109.655 44.5954C109.655 44.5954 109.655 44.6884 109.655 44.6884C102.867 27.7661 91.3375 20.9475 81.931 6.08629C81.4506 5.32696 80.9857 4.58312 80.5053 3.7773C80.2419 3.3279 80.0404 2.92499 79.8544 2.53757C79.467 1.77824 79.1571 0.987909 78.9556 0.166589C78.9556 0.120099 78.9401 0.0891055 78.9246 0.0581123C78.8936 0.0271191 78.8626 0.0116225 78.8316 0.0116225C78.8007 -0.00387415 78.7542 -0.00387415 78.7232 0.0116225C78.7232 0.0116225 78.6922 0.0271191 78.6922 0.0271191C78.6767 0.0271191 78.6612 0.0426157 78.6457 0.0426157C78.6457 0.0426157 78.6612 0.0116225 78.6612 0.0116225C63.5674 8.84469 58.4535 25.1936 57.9886 33.3758C58.686 33.3293 59.3833 33.2674 60.0962 33.2674C71.3623 33.2674 81.1717 39.466 86.4095 48.64C83.2017 46.393 77.4679 44.1615 71.9201 45.1223C93.5225 55.9234 87.7267 93.1153 57.7871 91.7206C55.1217 91.6121 52.4873 91.1007 49.9768 90.2174C49.3879 90.0004 48.7991 89.7525 48.2102 89.4891C47.8693 89.3341 47.5283 89.1791 47.2029 89.0087C47.2029 89.0087 47.2494 89.0397 47.2494 89.0397C46.9705 88.9002 46.676 88.7607 46.3816 88.6057C46.6605 88.7452 46.924 88.8847 47.2184 89.0087C39.8885 85.212 33.8138 78.0526 33.0699 69.359C33.0699 69.359 35.8438 59.0227 52.9212 59.0227C54.7653 59.0227 60.0497 53.8778 60.1427 52.3747C60.1272 51.8788 49.6669 47.7257 45.5913 43.7121C43.4062 41.5735 42.3834 40.5352 41.4691 39.7604C40.9732 39.342 40.4464 38.9546 39.9195 38.5827C38.5558 33.7942 38.4938 28.7268 39.749 23.9074C33.5813 26.7123 28.7774 31.1598 25.2906 35.0804C22.9041 32.0586 23.0746 22.1098 23.214 20.0332C23.183 19.9093 21.4319 20.9475 21.215 21.1025C19.1074 22.6057 17.1548 24.2793 15.3417 26.1389C13.2807 28.2154 11.4056 30.4779 9.73192 32.8644C5.85775 38.3347 3.11483 44.5179 1.65815 51.0575C1.62715 51.1814 1.61166 51.3209 1.58066 51.4604C1.47219 51.9872 0.960795 54.6682 0.883311 55.2415C0.418411 58.0154 0.123973 60.8203 0 63.6252C0 63.6252 0 63.9351 0 63.9351C0 97.1134 26.8868 124 60.0652 124C89.7723 124 114.443 102.429 119.278 74.1009C119.386 73.3416 119.464 72.5667 119.557 71.7919C120.719 61.4557 119.371 50.6235 115.621 41.5735C115.621 41.5735 115.621 41.5735 115.621 41.5735Z" fill="url(#gradient_12)" transform="translate(4.031 0)" />
  </g>
</svg>