<?xml version="1.0" encoding="utf-8"?>
<svg width="128px" height="128px" viewBox="0 0 128 128" version="1.1" xmlns:xlink="http://www.w3.org/1999/xlink" xmlns="http://www.w3.org/2000/svg">
  <defs>
    <linearGradient gradientUnits="objectBoundingBox" x1="0.8976" y1="0.155" x2="0.0664" y2="0.9316" id="gradient_1">
      <stop offset="4.8%" stop-color="#FFF44F" />
      <stop offset="11.1%" stop-color="#FFE847" />
      <stop offset="22.5%" stop-color="#FFC830" />
      <stop offset="36.8%" stop-color="#FF980E" />
      <stop offset="40.1%" stop-color="#FF8B16" />
      <stop offset="46.2%" stop-color="#FF672A" />
      <stop offset="53.4%" stop-color="#FF3647" />
      <stop offset="70.5%" stop-color="#E31587" />
    </linearGradient>
    <radialGradient gradientUnits="objectBoundingBox" cx="86.53183%" cy="-12.747192%" fx="86.53183%" fy="-12.747192%" r="128.42772%" gradientTransform="translate(0.8653183,-0.12747192),translate(-0.8653183,0.12747192)" id="gradient_2">
      <stop offset="12.9%" stop-color="#FFBD4F" />
      <stop offset="18.6%" stop-color="#FFAC31" />
      <stop offset="24.7%" stop-color="#FF9D17" />
      <stop offset="28.3%" stop-color="#FF980E" />
      <stop offset="40.3%" stop-color="#FF563B" />
      <stop offset="46.7%" stop-color="#FF3750" />
      <stop offset="71%" stop-color="#F5156C" />
      <stop offset="78.2%" stop-color="#EB0878" />
      <stop offset="86%" stop-color="#E50080" />
    </radialGradient>
    <radialGradient gradientUnits="objectBoundingBox" cx="47.779083%" cy="39.70642%" fx="47.779083%" fy="39.70642%" r="128.42867%" gradientTransform="translate(0.47779083,0.3970642),translate(-0.47779083,-0.3970642)" id="gradient_3">
      <stop offset="30%" stop-color="#960E18" />
      <stop offset="35%" stop-color="#B11927" stop-opacity="0.74" />
      <stop offset="43.5%" stop-color="#DB293D" stop-opacity="0.34" />
      <stop offset="49.7%" stop-color="#F5334B" stop-opacity="0.09" />
      <stop offset="53%" stop-color="#FF3750" stop-opacity="0" />
    </radialGradient>
    <radialGradient gradientUnits="objectBoundingBox" cx="51.45569%" cy="-28.518677%" fx="51.45569%" fy="-28.518677%" r="314.96582%" gradientTransform="translate(0.5145569,-0.28518677),scale(0.58887106,0.58887106),translate(-0.5145569,0.28518677)" id="gradient_4">
      <stop offset="13.2%" stop-color="#FFF44F" />
      <stop offset="25.2%" stop-color="#FFDC3E" />
      <stop offset="50.6%" stop-color="#FF9D12" />
      <stop offset="52.6%" stop-color="#FF980E" />
    </radialGradient>
    <radialGradient gradientUnits="objectBoundingBox" cx="19.319153%" cy="110.06317%" fx="19.319153%" fy="110.06317%" r="111.74011%" gradientTransform="translate(0.19319153,1.1006317),scale(0.9121696,0.9121696),translate(-0.19319153,-1.1006317)" id="gradient_5">
      <stop offset="35.3%" stop-color="#3A8EE6" />
      <stop offset="47.2%" stop-color="#5C79F0" />
      <stop offset="66.9%" stop-color="#9059FF" />
      <stop offset="100%" stop-color="#C139E6" />
    </radialGradient>
    <radialGradient gradientUnits="objectBoundingBox" cx="56.814575%" cy="36.045837%" fx="56.814575%" fy="36.045837%" r="59.252148%" gradientTransform="translate(0.56814575,0.36045837),scale(0.9121696,0.9121696),rotate(-13.59177),scale(1,1.1828064),translate(-0.56814575,-0.36045837)" id="gradient_6">
      <stop offset="20.6%" stop-color="#9059FF" stop-opacity="0" />
      <stop offset="27.8%" stop-color="#8C4FF3" stop-opacity="0.0627451" />
      <stop offset="74.7%" stop-color="#7716A8" stop-opacity="0.4509804" />
      <stop offset="97.5%" stop-color="#6E008B" stop-opacity="0.6" />
    </radialGradient>
    <radialGradient gradientUnits="objectBoundingBox" cx="208.5022%" cy="-99.420166%" fx="208.5022%" fy="-99.420166%" r="293.28613%" gradientTransform="translate(2.085022,-0.99420166),scale(0.9963051,0.9963051),translate(-2.085022,0.99420166)" id="gradient_7">
      <stop offset="0%" stop-color="#FFE226" />
      <stop offset="12.1%" stop-color="#FFDB27" />
      <stop offset="29.5%" stop-color="#FFC82A" />
      <stop offset="50.2%" stop-color="#FFA930" />
      <stop offset="73.2%" stop-color="#FF7E37" />
      <stop offset="79.2%" stop-color="#FF7139" />
    </radialGradient>
    <radialGradient gradientUnits="objectBoundingBox" cx="79.696655%" cy="-40.924072%" fx="79.696655%" fy="-40.924072%" r="193.84961%" gradientTransform="translate(0.79696655,-0.40924072),translate(-0.79696655,0.40924072)" id="gradient_8">
      <stop offset="11.3%" stop-color="#FFF44F" />
      <stop offset="45.6%" stop-color="#FF980E" />
      <stop offset="62.2%" stop-color="#FF5634" />
      <stop offset="71.6%" stop-color="#FF3647" />
      <stop offset="90.4%" stop-color="#E31587" />
    </radialGradient>
    <radialGradient gradientUnits="objectBoundingBox" cx="7.991028%" cy="-10.368347%" fx="7.991028%" fy="-10.368347%" r="348.79324%" gradientTransform="translate(0.07991028,-0.10368347),scale(0.47339717,0.47339717),rotate(83.97596),scale(1,2.861902),translate(-0.07991028,0.10368347)" id="gradient_9">
      <stop offset="0%" stop-color="#FFF44F" />
      <stop offset="6%" stop-color="#FFE847" />
      <stop offset="16.8%" stop-color="#FFC830" />
      <stop offset="30.4%" stop-color="#FF980E" />
      <stop offset="35.6%" stop-color="#FF8B16" />
      <stop offset="45.5%" stop-color="#FF672A" />
      <stop offset="57%" stop-color="#FF3647" />
      <stop offset="73.7%" stop-color="#E31587" />
    </radialGradient>
    <radialGradient gradientUnits="objectBoundingBox" cx="17.54303%" cy="-42.105103%" fx="17.54303%" fy="-42.105103%" r="238.66289%" gradientTransform="translate(0.1754303,-0.42105103),translate(-0.1754303,0.42105103)" id="gradient_10">
      <stop offset="13.7%" stop-color="#FFF44F" />
      <stop offset="48%" stop-color="#FF980E" />
      <stop offset="59.2%" stop-color="#FF5634" />
      <stop offset="65.5%" stop-color="#FF3647" />
      <stop offset="90.4%" stop-color="#E31587" />
    </radialGradient>
    <radialGradient gradientUnits="objectBoundingBox" cx="156.17676%" cy="-45.092773%" fx="156.17676%" fy="-45.092773%" r="312.84586%" gradientTransform="translate(1.5617676,-0.45092773),translate(-1.5617676,0.45092773)" id="gradient_11">
      <stop offset="9.4%" stop-color="#FFF44F" />
      <stop offset="23.1%" stop-color="#FFE141" />
      <stop offset="50.9%" stop-color="#FFAF1E" />
      <stop offset="62.6%" stop-color="#FF980E" />
    </radialGradient>
    <linearGradient gradientUnits="objectBoundingBox" x1="0.88748103" y1="0.15079795" x2="0.18037888" y2="0.8356845" id="gradient_12">
      <stop offset="16.7%" stop-color="#FFF44F" stop-opacity="0.8" />
      <stop offset="26.6%" stop-color="#FFF44F" stop-opacity="0.63529414" />
      <stop offset="48.9%" stop-color="#FFF44F" stop-opacity="0.21568628" />
      <stop offset="60%" stop-color="#FFF44F" stop-opacity="0" />
    </linearGradient>
    <path d="M128 0L128 0L128 128L0 128L0 0L128 0Z" id="path_1" />
    <clipPath id="clip_1">
      <use xlink:href="#path_1" clip-rule="evenodd" fill-rule="evenodd" />
    </clipPath>
  </defs>
    <g id="firefox" transform="translate(3.9999552 0)" clip-path="url(#clip_1)">
      <path d="M115.65 41.6125C113.04 35.3322 107.745 28.5512 103.599 26.4077C106.556 32.133 108.608 38.2816 109.683 44.6349L109.694 44.7357C102.902 27.8104 91.3888 20.9751 81.9807 6.11126C81.5049 5.35954 81.0291 4.60627 80.5657 3.81115C80.3006 3.35702 80.0883 2.94784 79.9038 2.5712C79.5137 1.81569 79.213 1.01725 79.008 0.192053C79.0085 0.113217 78.9498 0.0465154 78.8716 0.037059C78.8345 0.0269023 78.7954 0.0269023 78.7584 0.0370591C78.7507 0.0370591 78.7383 0.0510085 78.729 0.0541084C78.7197 0.0572082 78.6995 0.0711576 78.6856 0.0773574L78.7088 0.0370591C63.6202 8.8717 58.4976 25.2235 58.0327 33.4072C52.0049 33.8204 46.2416 36.041 41.4948 39.779C40.9998 39.3597 40.4824 38.9675 39.9449 38.6041C38.5763 33.8132 38.518 28.7428 39.776 23.9216C34.2348 26.6058 29.3111 30.4111 25.3166 35.0966L25.2887 35.0966C22.908 32.0789 23.0754 22.1283 23.2118 20.0499C22.5075 20.3329 21.8352 20.6898 21.2062 21.1147C19.1045 22.6146 17.1398 24.2977 15.3351 26.1442C13.2784 28.2293 11.4001 30.4831 9.71964 32.8818L9.71964 32.8911L9.71964 32.8802C5.85803 38.354 3.11878 44.5384 1.65998 51.0764L1.57938 51.4732C1.46624 52.0018 1.05861 54.6491 0.988858 55.2241C0.988858 55.269 0.979558 55.3109 0.974909 55.3558C0.449087 58.0889 0.123253 60.8567 0 63.6371L0 63.9471C0.0548624 95.1086 23.9275 121.055 54.9768 123.7C86.0261 126.345 113.943 104.809 119.268 74.1057C119.368 73.3308 119.45 72.5636 119.54 71.7808C120.778 61.5542 119.438 51.1805 115.644 41.6036L115.65 41.6125ZM46.4143 88.6376C46.6949 88.7725 46.9584 88.9181 47.2467 89.0468L47.2885 89.0731C46.9971 88.9336 46.7057 88.7885 46.4143 88.6376L46.4143 88.6376ZM109.695 44.7527L109.695 44.6954L109.706 44.7589L109.695 44.7527Z" id="Forma" fill="url(#gradient_1)" fill-rule="evenodd" stroke="none" />
      <path d="M115.65 41.6125C113.04 35.3322 107.745 28.5512 103.599 26.4077C106.556 32.133 108.608 38.2816 109.683 44.6349L109.683 44.6923L109.694 44.7558C114.325 58.0063 113.655 72.5339 107.824 85.3022C100.94 100.075 84.2809 115.216 58.1954 114.472C30.0176 113.674 5.1876 92.7574 0.553295 65.37C-0.29142 61.0503 0.553295 58.8603 0.977978 55.3496C0.398691 58.0766 0.0754174 60.8516 0.012369 63.6387L0.012369 63.9487C0.0672315 95.1101 23.9399 121.057 54.9892 123.701C86.0385 126.346 113.956 104.811 119.28 74.1073C119.381 73.3323 119.463 72.5651 119.553 71.7824C120.79 61.5558 119.451 51.1821 115.656 41.6051L115.65 41.6125Z" id="Forma" fill="url(#gradient_2)" stroke="none" />
      <path d="M115.65 41.6125C113.04 35.3322 107.745 28.5512 103.599 26.4077C106.556 32.133 108.608 38.2816 109.683 44.6349L109.683 44.6923L109.694 44.7558C114.325 58.0063 113.655 72.5339 107.824 85.3022C100.94 100.075 84.2809 115.216 58.1954 114.472C30.0176 113.674 5.1876 92.7574 0.553295 65.37C-0.29142 61.0503 0.553295 58.8603 0.977978 55.3496C0.398691 58.0766 0.0754174 60.8516 0.012369 63.6387L0.012369 63.9487C0.0672315 95.1101 23.9399 121.057 54.9892 123.701C86.0385 126.346 113.956 104.811 119.28 74.1073C119.381 73.3323 119.463 72.5651 119.553 71.7824C120.79 61.5558 119.451 51.1821 115.656 41.6051L115.65 41.6125Z" id="Forma" fill="url(#gradient_3)" stroke="none" />
      <path d="M86.4492 48.6647C86.5794 48.7562 86.7003 48.8476 86.8227 48.9391C85.3138 46.2634 83.4354 43.8137 81.243 41.6621C62.5662 22.9854 76.3498 1.17782 78.6732 0.0618629L78.6964 0.0277643C63.6078 8.8624 58.4852 25.2142 58.0203 33.3979C58.7208 33.3498 59.4152 33.2909 60.1313 33.2909C71.0289 33.312 81.0767 39.1804 86.4492 48.6617L86.4492 48.6647Z" id="Forma" fill="url(#gradient_4)" stroke="none" />
      <path d="M60.1623 52.4001C60.0631 53.8942 54.784 59.0478 52.938 59.0478C35.8577 59.0478 33.0833 69.3812 33.0833 69.3812C33.8397 78.0825 39.903 85.2525 47.2327 89.0344C47.5675 89.208 47.9069 89.3645 48.2464 89.518C48.8343 89.7784 49.4222 90.0191 50.0102 90.2402C52.5257 91.1304 55.1604 91.6387 57.8265 91.7483C87.7713 93.1526 93.568 55.9448 71.9604 45.1418C77.0574 44.4785 82.2191 45.7318 86.4445 48.6586C81.072 39.1773 71.0242 33.3089 60.1266 33.2878C59.4136 33.2878 58.7161 33.3467 58.0156 33.3948C51.9878 33.808 46.2245 36.0285 41.4777 39.7666C42.3938 40.5415 43.4276 41.5769 45.6052 43.7236C49.6816 47.7394 60.1359 51.8995 60.1591 52.3877L60.1623 52.4001Z" id="Forma" fill="url(#gradient_5)" stroke="none" />
      <path d="M60.1623 52.4001C60.0631 53.8942 54.784 59.0478 52.938 59.0478C35.8577 59.0478 33.0833 69.3812 33.0833 69.3812C33.8397 78.0825 39.903 85.2525 47.2327 89.0344C47.5675 89.208 47.9069 89.3645 48.2464 89.518C48.8343 89.7784 49.4222 90.0191 50.0102 90.2402C52.5257 91.1304 55.1604 91.6387 57.8265 91.7483C87.7713 93.1526 93.568 55.9448 71.9604 45.1418C77.0574 44.4785 82.2191 45.7318 86.4445 48.6586C81.072 39.1773 71.0242 33.3089 60.1266 33.2878C59.4136 33.2878 58.7161 33.3467 58.0156 33.3948C51.9878 33.808 46.2245 36.0285 41.4777 39.7666C42.3938 40.5415 43.4276 41.5769 45.6052 43.7236C49.6816 47.7394 60.1359 51.8995 60.1591 52.3877L60.1623 52.4001Z" id="Forma" fill="url(#gradient_6)" stroke="none" />
      <path d="M38.6801 37.7842C39.1668 38.0942 39.5683 38.3639 39.9201 38.6072C38.5515 33.8162 38.4931 28.7459 39.7512 23.9247C34.2099 26.6088 29.2862 30.4141 25.2918 35.0997C25.5847 35.092 34.2985 34.9354 38.6801 37.7842L38.6801 37.7842Z" id="Forma" fill="url(#gradient_7)" stroke="none" />
      <path d="M0.542422 65.3731C5.17828 92.7604 30.0067 113.685 58.1845 114.475C84.27 115.213 100.932 100.07 107.813 85.3052C113.644 72.537 114.314 58.0094 109.683 44.7589L109.683 44.7016C109.683 44.6566 109.673 44.6303 109.683 44.6442L109.694 44.745C111.825 58.6587 104.748 72.1323 93.6827 81.2615L93.6486 81.3389C72.089 98.8997 51.4594 91.9312 47.29 89.0886C46.9986 88.9491 46.7073 88.804 46.4159 88.6531C33.8474 82.6456 28.6536 71.2008 29.7696 61.3742C23.6744 61.4642 18.0978 57.9564 15.5396 52.4233C22.2486 48.3135 30.6093 47.9779 37.6262 51.5368C44.7393 54.7655 52.8332 55.0837 60.1778 52.4233C60.1545 51.9351 49.7002 47.7735 45.6239 43.7592C43.4462 41.6125 42.4124 40.5787 41.4964 39.8022C41.0014 39.3829 40.484 38.9907 39.9465 38.6274C39.59 38.384 39.1886 38.1206 38.7065 37.8044C34.3249 34.9556 25.6111 35.1121 25.3228 35.1199L25.2949 35.1199C22.9142 32.1021 23.0816 22.1516 23.218 20.0731C22.5137 20.3561 21.8414 20.7131 21.2124 21.1379C19.1107 22.6378 17.146 24.3209 15.3413 26.1674C13.2773 28.2467 11.3911 30.4953 9.70261 32.8895L9.70261 32.8988L9.70261 32.8879C5.841 38.3617 3.10174 44.5461 1.64295 51.0842C1.6135 51.2066 -0.520765 60.5372 0.531642 65.3761L0.542422 65.3731Z" id="Forma" fill="url(#gradient_8)" stroke="none" />
      <path d="M81.2414 41.659C83.4344 43.813 85.3129 46.2654 86.8212 48.9437C87.1513 49.1933 87.4597 49.4413 87.7217 49.6815C101.341 62.236 94.2051 79.9828 93.6734 81.2382C104.737 72.123 111.808 58.6402 109.684 44.7217C102.889 27.7809 91.364 20.9457 81.9714 6.08182C81.4956 5.3301 81.0198 4.57683 80.5563 3.78171C80.2913 3.32758 80.079 2.9184 79.8945 2.54176C79.5044 1.78625 79.2037 0.987804 78.9987 0.162611C78.9992 0.0837751 78.9405 0.0170739 78.8623 0.00761756C78.8252 -0.00253919 78.7861 -0.00253919 78.7491 0.00761756C78.7413 0.00761756 78.729 0.021567 78.7197 0.0246669C78.7104 0.0277667 78.6902 0.0417162 78.6763 0.0479159C76.3529 1.14992 62.5724 22.9715 81.2491 41.6327L81.2414 41.659Z" id="Forma" fill="url(#gradient_9)" stroke="none" />
      <path d="M87.7201 49.6877C87.4582 49.4475 87.1498 49.1995 86.8196 48.9499C86.6972 48.8585 86.5763 48.7671 86.4461 48.6756C82.2207 45.7489 77.059 44.4956 71.9619 45.1588C93.568 55.9619 87.7713 93.1603 57.8281 91.7654C55.1619 91.6558 52.5273 91.1474 50.0117 90.2573C49.4238 90.0372 48.8359 89.7964 48.2479 89.535C47.9085 89.38 47.569 89.225 47.2343 89.0515L47.2761 89.0778C51.4516 91.9281 72.0751 98.892 93.6347 81.3281L93.6688 81.2506C94.2066 79.9952 101.343 62.2484 87.717 49.6939L87.7201 49.6877Z" id="Forma" fill="url(#gradient_10)" stroke="none" />
      <path d="M33.0849 69.3719C33.0849 69.3719 35.8577 59.0385 52.9396 59.0385C54.7855 59.0385 60.0693 53.8849 60.1638 52.3908C52.8192 55.0511 44.7253 54.7329 37.6122 51.5042C30.5954 47.9454 22.2347 48.281 15.5256 52.3908C18.0839 57.9239 23.6604 61.4316 29.7556 61.3417C28.6428 71.1636 33.835 82.6068 46.4019 88.6206C46.6825 88.7554 46.946 88.9011 47.2342 89.0298C39.8984 85.2402 33.8412 78.0733 33.0849 69.3766L33.0849 69.3719Z" id="Forma" fill="url(#gradient_11)" stroke="none" />
      <path d="M115.65 41.6125C113.04 35.3322 107.745 28.5512 103.599 26.4077C106.556 32.133 108.608 38.2816 109.683 44.6349L109.694 44.7357C102.902 27.8104 91.3888 20.9751 81.9807 6.11126C81.5049 5.35954 81.0291 4.60627 80.5657 3.81115C80.3006 3.35702 80.0883 2.94784 79.9038 2.5712C79.5137 1.81569 79.2131 1.01725 79.008 0.192053C79.0085 0.113217 78.9498 0.0465154 78.8716 0.037059C78.8345 0.0269023 78.7955 0.0269023 78.7584 0.0370591C78.7507 0.0370591 78.7383 0.0510085 78.729 0.0541084C78.7197 0.0572082 78.6995 0.0711576 78.6856 0.0773574L78.7088 0.0370591C63.6202 8.8717 58.4976 25.2235 58.0327 33.4072C58.7332 33.3591 59.4276 33.3002 60.1437 33.3002C71.0413 33.3213 81.0891 39.1897 86.4616 48.671C82.2362 45.7442 77.0745 44.4909 71.9774 45.1542C93.5835 55.9572 87.7868 93.1557 57.8436 91.7607C55.1774 91.6511 52.5428 91.1428 50.0273 90.2526C49.4393 90.0326 48.8514 89.7918 48.2634 89.5304C47.924 89.3754 47.5846 89.2204 47.2498 89.0468L47.2916 89.0731C47.0002 88.9337 46.7088 88.7885 46.4175 88.6376C46.698 88.7725 46.9615 88.9182 47.2498 89.0468C39.9139 85.2557 33.8568 78.0887 33.1004 69.3936C33.1004 69.3936 35.8732 59.0602 52.9551 59.0602C54.8011 59.0602 60.0848 53.9066 60.1793 52.4125C60.1561 51.9243 49.7018 47.7627 45.6254 43.7484C43.4478 41.6017 42.414 40.5679 41.498 39.7914C41.0029 39.3721 40.4855 38.9799 39.9481 38.6165C38.5794 33.8256 38.5211 28.7552 39.7791 23.934C34.2379 26.6182 29.3142 30.4235 25.3198 35.109L25.2919 35.109C22.9112 32.0913 23.0785 22.1407 23.2149 20.0623C22.5106 20.3453 21.8384 20.7022 21.2093 21.1271C19.1077 22.627 17.1429 24.3101 15.3382 26.1566C13.2815 28.2417 11.4032 30.4955 9.72276 32.8942L9.72276 32.9035L9.72276 32.8926C5.86115 38.3664 3.1219 44.5508 1.6631 51.0889L1.58251 51.4856C1.46936 52.0142 0.962531 54.6987 0.889684 55.2752C0.426099 58.0463 0.13004 60.8428 0.00312182 63.6496L0.00312182 63.9595C0.0579843 95.121 23.9306 121.068 54.9799 123.712C86.0293 126.357 113.946 104.822 119.271 74.1181C119.371 73.3432 119.454 72.576 119.543 71.7932C120.781 61.5666 119.441 51.1929 115.647 41.616L115.65 41.6125ZM109.69 44.6985L109.701 44.762L109.69 44.6985Z" id="Forma" fill="url(#gradient_12)" fill-rule="evenodd" stroke="none" />
    </g>
</svg>
