<?xml version="1.0" encoding="utf-8"?>
<svg width="128" height="128" viewBox="0 0 128 128" fill="none" xmlns="http://www.w3.org/2000/svg">
  <defs>
    <linearGradient id="gradient_1" gradientUnits="userSpaceOnUse" x1="113.099" y1="31.808" x2="9.91" y2="97.455">
      <stop offset="0" stop-color="#3FE1B0" />
      <stop offset="0.406" stop-color="#00B3F4" />
      <stop offset="0.421" stop-color="#03B0F4" />
      <stop offset="0.818" stop-color="#5561E9" />
      <stop offset="1" stop-color="#7542E5" />
    </linearGradient>
    <radialGradient id="gradient_2" gradientUnits="userSpaceOnUse" cx="0" cy="0" r="1" gradientTransform="matrix(124.331 0 0 125.396 103.097 13.967)">
      <stop offset="0.108" stop-color="#3FE1B0" />
      <stop offset="0.122" stop-color="#3BDCB3" />
      <stop offset="0.254" stop-color="#1BB3D3" />
      <stop offset="0.358" stop-color="#0799E6" />
      <stop offset="0.42" stop-color="#0090ED" />
      <stop offset="0.487" stop-color="#2482F1" />
      <stop offset="0.64" stop-color="#7165FB" />
      <stop offset="0.71" stop-color="#9059FF" />
      <stop offset="0.795" stop-color="#7D49ED" />
      <stop offset="0.86" stop-color="#7542E5" />
    </radialGradient>
    <radialGradient id="gradient_3" gradientUnits="userSpaceOnUse" cx="0" cy="0" r="1" gradientTransform="matrix(124.331 0 0 125.396 56.934 65.181)">
      <stop offset="0.3" stop-color="#45278D" />
      <stop offset="0.341" stop-color="#562896" stop-opacity="0.788" />
      <stop offset="0.43" stop-color="#782AA9" stop-opacity="0.365" />
      <stop offset="0.495" stop-color="#8D2BB5" stop-opacity="0.102" />
      <stop offset="0.53" stop-color="#952BB9" stop-opacity="0" />
    </radialGradient>
    <radialGradient id="gradient_4" gradientUnits="userSpaceOnUse" cx="0" cy="0" r="1" gradientTransform="matrix(90.018 0 0 90.788 72.321 -13.968)">
      <stop offset="0.132" stop-color="#3FE1B0" />
      <stop offset="0.289" stop-color="#28D0C8" />
      <stop offset="0.526" stop-color="#00B3F4" />
    </radialGradient>
    <radialGradient id="gradient_5" gradientUnits="userSpaceOnUse" cx="0" cy="0" r="1" gradientTransform="matrix(59.242 0 0 59.75 43.085 97.772)">
      <stop offset="0.287" stop-color="#0060DF" />
      <stop offset="0.417" stop-color="#2357E1" />
      <stop offset="0.604" stop-color="#4F4CE3" />
      <stop offset="0.748" stop-color="#6B45E4" />
      <stop offset="0.833" stop-color="#7542E5" />
    </radialGradient>
    <radialGradient id="gradient_6" gradientUnits="userSpaceOnUse" cx="0" cy="0" r="1" gradientTransform="matrix(30.512 -7.44 8.791 36.054 62.947 28.06)">
      <stop offset="0.206" stop-color="#45278D" stop-opacity="0" />
      <stop offset="0.251" stop-color="#44268A" stop-opacity="0.055" />
      <stop offset="0.725" stop-color="#371F6F" stop-opacity="0.592" />
      <stop offset="0.956" stop-color="#321C64" stop-opacity="0.8" />
    </radialGradient>
    <radialGradient id="gradient_7" gradientUnits="userSpaceOnUse" cx="0" cy="0" r="1" gradientTransform="matrix(0.963 0 0 0.972 46.163 88.461)">
      <stop offset="0.353" stop-color="#3A8EE6" />
      <stop offset="0.472" stop-color="#5C79F0" />
      <stop offset="0.669" stop-color="#9059FF" />
      <stop offset="1" stop-color="#C139E6" />
    </radialGradient>
    <radialGradient id="gradient_8" gradientUnits="userSpaceOnUse" cx="0" cy="0" r="1" gradientTransform="matrix(0.336 -0.082 0.096 0.395 52.285 67.085)">
      <stop offset="0.206" stop-color="#9059FF" stop-opacity="0" />
      <stop offset="0.278" stop-color="#8C4FF3" stop-opacity="0.063" />
      <stop offset="0.747" stop-color="#7716A8" stop-opacity="0.451" />
      <stop offset="0.975" stop-color="#6E008B" stop-opacity="0.6" />
    </radialGradient>
    <radialGradient id="gradient_9" gradientUnits="userSpaceOnUse" cx="0" cy="0" r="1" gradientTransform="matrix(42.624 0 0 42.989 55.395 9.312)">
      <stop offset="0" stop-color="#00DDFF" />
      <stop offset="0.235" stop-color="#00D6FD" />
      <stop offset="0.572" stop-color="#00C3F8" />
      <stop offset="0.792" stop-color="#00B3F4" />
    </radialGradient>
    <radialGradient id="gradient_10" gradientUnits="userSpaceOnUse" cx="0" cy="0" r="1" gradientTransform="matrix(181.574 0 0 183.129 89.248 -18.623)">
      <stop offset="0.126" stop-color="#3FE1B0" />
      <stop offset="0.429" stop-color="#00DDFF" />
      <stop offset="0.479" stop-color="#1EC1FF" />
      <stop offset="0.624" stop-color="#7077FF" />
      <stop offset="0.69" stop-color="#9059FF" />
      <stop offset="0.904" stop-color="#B833E1" />
    </radialGradient>
    <radialGradient id="gradient_11" gradientUnits="userSpaceOnUse" cx="0" cy="0" r="1" gradientTransform="matrix(13.976 133.572 -86.934 9.096 74.144 -8.461)">
      <stop offset="0" stop-color="#54FFBD" />
      <stop offset="0.095" stop-color="#4CF3B8" />
      <stop offset="0.197" stop-color="#3FE1B0" />
      <stop offset="0.257" stop-color="#33D8BD" />
      <stop offset="0.369" stop-color="#12C0E1" />
      <stop offset="0.423" stop-color="#00B3F4" />
      <stop offset="0.737" stop-color="#0060DF" />
    </radialGradient>
    <radialGradient id="gradient_12" gradientUnits="userSpaceOnUse" cx="0" cy="0" r="1" gradientTransform="matrix(113.407 0 0 114.379 55.396 24.831)">
      <stop offset="0.137" stop-color="#3FE1B0" />
      <stop offset="0.435" stop-color="#00DDFF" />
      <stop offset="0.484" stop-color="#1EC1FF" />
      <stop offset="0.622" stop-color="#7077FF" />
      <stop offset="0.685" stop-color="#9059FF" />
    </radialGradient>
    <radialGradient id="gradient_13" gradientUnits="userSpaceOnUse" cx="0" cy="0" r="1" gradientTransform="matrix(124.178 0 0 125.241 84.631 31.039)">
      <stop offset="0.094" stop-color="#54FFBD" />
      <stop offset="0.242" stop-color="#41F7CC" />
      <stop offset="0.543" stop-color="#0FE3F3" />
      <stop offset="0.626" stop-color="#00DDFF" />
    </radialGradient>
    <linearGradient id="gradient_14" gradientUnits="userSpaceOnUse" x1="105.713" y1="18.772" x2="21.543" y2="103.663">
      <stop offset="0.167" stop-color="#54FFBD" stop-opacity="0.8" />
      <stop offset="0.236" stop-color="#43F8CA" stop-opacity="0.639" />
      <stop offset="0.361" stop-color="#27EDE1" stop-opacity="0.369" />
      <stop offset="0.466" stop-color="#12E4F1" stop-opacity="0.169" />
      <stop offset="0.545" stop-color="#05DFFB" stop-opacity="0.047" />
      <stop offset="0.589" stop-color="#00DDFF" stop-opacity="0" />
    </linearGradient>
  </defs>
  <g>
    <path d="M114.841 41.5453C112.256 35.2599 106.993 28.4624 102.869 26.3208C105.807 32.0736 107.842 38.2514 108.901 44.6336C108.901 44.6336 108.912 44.7345 108.912 44.7345C102.172 27.8184 90.7545 20.9898 81.368 6.09123C80.8956 5.33853 80.4232 4.58429 79.9632 3.79436C79.7 3.33964 79.4892 2.92993 79.3061 2.55281C78.9182 1.79388 78.6197 0.991756 78.4167 0.162821C78.4173 0.0838833 78.359 0.017096 78.2813 0.00762739C78.2445 -0.00254247 78.2057 -0.00254247 78.169 0.0076274C78.1613 0.0076274 78.1489 0.0215948 78.1397 0.0246987C78.1305 0.0278026 78.1105 0.04177 78.0966 0.0479778C78.0966 0.0479778 78.1197 0.0076274 78.1197 0.0076274C63.1322 8.85367 58.1158 25.3042 57.6542 33.3743C51.6543 33.7794 45.9155 36.0026 41.1895 39.7528C40.698 39.3329 40.1843 38.9402 39.6507 38.5764C38.2951 33.7804 38.2372 28.7058 39.483 23.8795C33.9812 26.567 29.0925 30.3772 25.1264 35.069C25.1264 35.069 25.0987 35.069 25.0987 35.069C22.729 32.0427 22.8983 22.0793 23.0368 19.9997C22.3397 20.2835 21.6743 20.6409 21.0518 21.0659C18.9644 22.565 17.0128 24.2477 15.2199 26.0941C13.1792 28.1835 11.3159 30.4417 9.64956 32.8451C9.64956 32.8451 9.64956 32.8544 9.64956 32.8544C9.64956 32.8544 9.64956 32.8435 9.64956 32.8435C5.82209 38.3052 3.1028 44.476 1.64801 51.0012C1.64801 51.0012 1.56799 51.3985 1.56799 51.3985C1.45567 51.9277 1.05097 54.58 0.981728 55.1542C0.981728 55.1992 0.972495 55.2411 0.967878 55.2861C0.44586 58.0211 0.122375 60.7909 0 63.5734C0 63.5734 0 63.8838 0 63.8838C0.19302 95.0158 23.8846 120.867 54.642 123.505C85.3995 126.144 113.08 104.701 118.484 74.0492C118.584 73.2733 118.666 72.5051 118.755 71.7213C119.991 61.4668 118.663 51.0633 114.893 41.4585C114.893 41.4585 114.841 41.5453 114.841 41.5453Z" fill="url(#gradient_1)" transform="translate(4.305 0.047)" />
    <path d="M0.0107727 0.0636292L0 0L0 0.0574226L0.0107727 0.0636292Z" transform="translate(113.288 44.787)" />
    <path d="M114.81 15.2245C112.225 8.93916 106.962 2.14168 102.838 0C105.776 5.7528 107.811 11.9306 108.87 18.3128C108.87 18.3128 108.87 18.3703 108.87 18.3703C108.87 18.3703 108.881 18.4339 108.881 18.4339C113.493 31.7209 112.826 46.2929 107.019 59.0947C100.187 73.8846 83.63 89.0471 57.7789 88.2711C29.7735 87.4718 5.15331 66.544 0.537025 39.0747C-0.301599 34.7448 0.537025 32.5565 0.958646 29.0491C0.383525 31.7806 0.062582 34.5603 0 37.352C0 37.352 0 37.6624 0 37.6624C0.193026 68.7944 23.8846 94.6451 54.642 97.2841C85.3995 99.923 113.08 78.4799 118.484 47.8278C118.584 47.0519 118.666 46.2837 118.755 45.4999C119.991 35.2453 118.663 24.8419 114.893 15.2371C114.893 15.2371 114.81 15.2245 114.81 15.2245Z" fill="url(#gradient_2)" transform="translate(4.336 26.367)" />
    <path d="M114.81 15.2245C112.225 8.93916 106.962 2.14168 102.838 0C105.776 5.7528 107.811 11.9306 108.87 18.3128C108.87 18.3128 108.87 18.3703 108.87 18.3703C108.87 18.3703 108.881 18.4339 108.881 18.4339C113.493 31.7209 112.826 46.2929 107.019 59.0947C100.187 73.8846 83.63 89.0471 57.7789 88.2711C29.7735 87.4718 5.15331 66.544 0.537025 39.0747C-0.301599 34.7448 0.537025 32.5565 0.958646 29.0491C0.383525 31.7806 0.062582 34.5603 0 37.352C0 37.352 0 37.6624 0 37.6624C0.193026 68.7944 23.8846 94.6451 54.642 97.2841C85.3995 99.923 113.08 78.4799 118.484 47.8278C118.584 47.0519 118.666 46.2837 118.755 45.4999C119.991 35.2453 118.663 24.8419 114.893 15.2371C114.893 15.2371 114.81 15.2245 114.81 15.2245Z" fill="url(#gradient_3)" transform="translate(4.336 26.367)" />
    <path d="M28.1655 48.6455C28.2947 48.7371 28.4147 48.8286 28.5363 48.9202C27.0389 46.2383 25.174 43.7828 22.9968 41.6261C4.53165 23.0028 18.1343 1.1205 20.4424 0.0341426C20.4424 0.0341426 20.4655 0 20.4655 0C5.47799 8.84605 0.461628 25.2966 0 33.3667C0.695518 33.3186 1.38489 33.2596 2.09271 33.2596C12.9202 33.2835 22.9042 39.1593 28.2516 48.6548C28.2516 48.6548 28.1655 48.6455 28.1655 48.6455Z" fill="url(#gradient_4)" transform="translate(62.052 0.085)" />
    <path d="M26.8667 19.1494C26.7683 20.6454 21.5272 25.8072 19.6961 25.8072C2.76976 25.8072 0 36.1586 0 36.1586C0.750916 44.865 6.77054 51.9884 14.0489 55.8682C14.3812 56.042 14.7182 56.1988 15.0552 56.3524C15.6389 56.6131 16.2237 56.8542 16.8094 57.0756C19.3051 57.9674 21.9193 58.4764 24.5648 58.5857C54.2628 59.9917 60.1101 22.7359 38.5982 11.8723C43.656 11.2137 48.7764 12.4688 52.9703 15.3952C47.6228 5.89969 37.6389 0.0238686 26.8113 0C26.1035 0 25.4111 0.0589752 24.7186 0.107082C18.7187 0.512173 12.9799 2.73539 8.25391 6.48555C9.16331 7.26152 10.1927 8.30132 12.347 10.443C16.3939 14.4625 26.7806 18.6372 26.796 19.1183C26.796 19.1183 26.8667 19.1494 26.8667 19.1494Z" fill="url(#gradient_5)" transform="translate(37.192 33.306)" />
    <path d="M26.8667 19.1494C26.7683 20.6454 21.5272 25.8072 19.6961 25.8072C2.76976 25.8072 0 36.1586 0 36.1586C0.750916 44.865 6.77054 51.9884 14.0489 55.8682C14.3812 56.042 14.7182 56.1988 15.0552 56.3524C15.6389 56.6131 16.2237 56.8542 16.8094 57.0756C19.3051 57.9674 21.9193 58.4764 24.5648 58.5857C54.2628 59.9917 60.1101 22.7359 38.5982 11.8723C43.656 11.2137 48.7764 12.4688 52.9703 15.3952C47.6228 5.89969 37.6389 0.0238686 26.8113 0C26.1035 0 25.4111 0.0589752 24.7186 0.107082C18.7187 0.512173 12.9799 2.73539 8.25391 6.48555C9.16331 7.26152 10.1927 8.30132 12.347 10.443C16.3939 14.4625 26.7806 18.6372 26.796 19.1183C26.796 19.1183 26.8667 19.1494 26.8667 19.1494Z" fill="url(#gradient_6)" transform="translate(37.192 33.306)" />
    <path d="M3.8147e-06 0C0.289291 0.150024 0.578575 0.295387 0.867863 0.436096C0.867863 0.436096 0.826317 0.409714 0.826317 0.409714C0.54472 0.280907 0.278515 0.135025 0 0C0 0 3.8147e-06 0 3.8147e-06 0Z" fill="url(#gradient_7)" transform="translate(50.363 88.771)" />
    <path d="M3.8147e-06 0C0.289291 0.150024 0.578575 0.295387 0.867863 0.436096C0.867863 0.436096 0.826317 0.409714 0.826317 0.409714C0.54472 0.280907 0.278515 0.135025 0 0C0 0 3.8147e-06 0 3.8147e-06 0Z" fill="url(#gradient_8)" transform="translate(50.363 88.771)" />
    <path d="M13.2933 13.8728C13.7765 14.1832 14.175 14.4532 14.5243 14.6969C13.1687 9.90083 13.1108 4.82622 14.3566 0C8.85479 2.68747 3.96609 6.49768 0 11.1895C0.290825 11.1817 8.94019 11.0249 13.2949 13.8743C13.2949 13.8743 13.2933 13.8728 13.2933 13.8728Z" fill="url(#gradient_9)" transform="translate(29.53 23.994)" />
    <path d="M0.190081 45.2995C4.79097 72.7688 29.4265 93.72 57.4319 94.496C83.2831 95.2347 99.9017 80.0785 106.672 65.3195C112.479 52.5178 113.146 37.9458 108.534 24.6587C108.534 24.6587 108.534 24.6013 108.534 24.6013C108.534 24.5563 108.525 24.5299 108.534 24.5439C108.534 24.5439 108.545 24.6448 108.545 24.6448C110.668 38.5812 103.636 52.1141 92.6957 61.2705C92.6957 61.2705 92.6618 61.3481 92.6618 61.3481C71.2731 78.885 50.8076 71.9478 46.6529 69.1078C46.3636 68.9681 46.0744 68.8228 45.7851 68.6717C33.3057 62.6502 28.0893 51.1348 29.3203 41.3576C23.2675 41.4469 17.7309 37.931 15.1945 32.3874C21.8341 28.295 30.1005 27.9592 37.0449 31.4997C44.1288 34.7536 52.1962 35.0723 59.5108 32.3874C59.4877 31.8985 49.1088 27.7316 45.0619 23.7121C42.9076 21.5704 41.8766 20.5306 40.9688 19.7546C40.4773 19.3348 39.9636 18.9421 39.43 18.5783C39.0761 18.3346 38.6776 18.0708 38.199 17.7542C33.8443 14.8986 25.1965 15.0538 24.9041 15.0693C24.9041 15.0693 24.8764 15.0693 24.8764 15.0693C22.5067 12.043 22.676 2.0796 22.8145 0C22.1174 0.283834 21.452 0.641216 20.8295 1.06618C18.7421 2.56532 16.7905 4.24798 14.9976 6.09446C12.947 8.17758 11.0734 10.4306 9.3965 12.8299C9.3965 12.8299 9.3965 12.8392 9.3965 12.8392C9.3965 12.8392 9.3965 12.8283 9.3965 12.8283C5.56904 18.29 2.84974 24.4608 1.39495 30.986C1.36572 31.1086 -0.759309 40.4528 0.291664 45.2949C0.291664 45.2949 0.190081 45.2995 0.190081 45.2995Z" fill="url(#gradient_10)" transform="translate(4.709 20.192)" />
    <path d="M0.00154114 0L0 0L0.00154114 0Z" fill="#FF4AA2" transform="translate(64.057 52.455)" />
    <path d="M9.6534 41.6679C11.8306 43.8246 13.6955 46.2801 15.1929 48.962C15.5207 49.2118 15.8269 49.4601 16.0869 49.7007C29.6126 62.2714 22.519 80.1187 21.9958 81.3602C32.9825 72.2348 39.9993 58.7019 37.845 44.7345C31.1052 27.8184 19.6876 20.9898 10.3012 6.09123C9.82881 5.33854 9.35641 4.58429 8.89633 3.79436C8.63319 3.33964 8.42239 2.92993 8.23928 2.55281C7.85136 1.79388 7.55286 0.991756 7.34988 0.162821C7.35044 0.0838833 7.29217 0.017096 7.21446 0.00762739C7.17769 -0.00254247 7.13889 -0.00254247 7.10212 0.0076274C7.09443 0.0076274 7.08212 0.0215948 7.07288 0.0246987C7.06365 0.0278026 7.04365 0.04177 7.0298 0.0479778C4.72166 1.15141 -8.9733 23.0167 9.58414 41.6399C9.58414 41.6399 9.6534 41.6679 9.6534 41.6679Z" fill="url(#gradient_11)" transform="translate(75.332 0.079)" />
    <path d="M40.1863 4.70758C39.9262 4.46703 39.62 4.21872 39.2922 3.96886C39.1707 3.87729 39.0507 3.78573 38.9214 3.69416C34.7275 0.767738 29.6072 -0.487373 24.5494 0.171265C45.9381 10.9883 40.2447 48.2813 10.5159 46.8846C7.87043 46.7753 5.25621 46.2663 2.76053 45.3746C2.17683 45.1542 1.5921 44.9131 1.00635 44.6514C0.669361 44.4962 0.332371 44.341 0 44.1672C0 44.1672 0.0415459 44.1935 0.0415459 44.1935C4.18081 47.0491 24.6617 54.0173 46.0505 36.4339C46.0505 36.4339 46.0843 36.3563 46.0843 36.3563C46.6183 35.0992 53.7012 17.2674 40.1755 4.69672C40.1755 4.69672 40.1863 4.70758 40.1863 4.70758Z" fill="url(#gradient_12)" transform="translate(51.262 44.954)" />
    <path d="M17.4495 20.3338C17.4495 20.3338 20.2039 9.98238 37.1457 9.98238C38.9768 9.98238 44.224 4.82995 44.3163 3.32457C37.0017 6.00951 28.9343 5.69074 21.8504 2.43686C14.906 -1.10365 6.63955 -0.767815 0 3.32457C2.53633 8.86813 8.07299 12.384 14.1258 12.2948C13.021 22.134 18.1727 33.5563 30.5905 39.6089C30.8691 39.7439 31.1306 39.8898 31.4169 40.0186C24.1385 36.2319 18.122 29.0464 17.368 20.309C17.368 20.309 17.4495 20.3338 17.4495 20.3338Z" fill="url(#gradient_13)" transform="translate(19.834 49.038)" />
    <path d="M0.00154114 0L0 0.00154877L0.00154114 0Z" fill="#FF4AA2" transform="translate(78.521 59.75)" />
    <path d="M114.77 41.5453C112.185 35.2599 106.922 28.4624 102.798 26.3208C105.736 32.0736 107.771 38.2514 108.83 44.6336C108.83 44.6336 108.841 44.7345 108.841 44.7345C102.101 27.8184 90.6837 20.9898 81.2973 6.09123C80.8249 5.33854 80.3525 4.58429 79.8924 3.79436C79.6293 3.33964 79.4185 2.92993 79.2353 2.55281C78.8474 1.79388 78.5489 0.991756 78.3459 0.162821C78.3465 0.0838833 78.2882 0.017096 78.2105 0.00762739C78.1738 -0.00254247 78.135 -0.00254247 78.0982 0.0076274C78.0905 0.0076274 78.0782 0.0215948 78.069 0.0246987C78.0597 0.0278026 78.0397 0.04177 78.0259 0.0479778C78.0259 0.0479778 78.0489 0.0076274 78.0489 0.0076274C63.0614 8.85367 58.0451 25.3042 57.5834 33.3743C58.279 33.3262 58.9683 33.2672 59.6762 33.2672C70.5037 33.2911 80.4876 39.1669 85.8351 48.6624C81.6412 45.736 76.5208 44.4809 71.463 45.1395C92.8518 55.9566 87.1584 93.2496 57.4296 91.8529C54.7841 91.7436 52.1699 91.2346 49.6742 90.3428C49.0905 90.1225 48.5058 89.8814 47.92 89.6196C47.583 89.4644 47.246 89.3092 46.9137 89.1354C46.9137 89.1354 46.9552 89.1618 46.9552 89.1618C46.6659 89.0221 46.3766 88.8768 46.0874 88.7257C46.3659 88.8607 46.6275 89.0066 46.9137 89.1354C39.6353 85.3332 33.6188 78.1632 32.8648 69.4258C32.8648 69.4258 35.6192 59.0744 52.5609 59.0744C54.392 59.0744 59.6392 53.922 59.7315 52.4166C59.7085 51.9277 49.3295 47.7608 45.2826 43.7412C43.1283 41.5996 42.0974 40.5598 41.1895 39.7838C40.698 39.364 40.1843 38.9713 39.6507 38.6074C38.2951 33.8114 38.2372 28.7368 39.483 23.9106C33.9812 26.5981 29.0925 30.4083 25.1264 35.1C25.1264 35.1 25.0987 35.1 25.0987 35.1C22.729 32.0738 22.8983 22.1103 23.0368 20.0307C22.3397 20.3146 21.6743 20.6719 21.0518 21.0969C18.9644 22.596 17.0128 24.2787 15.2199 26.1252C13.1793 28.2145 11.316 30.4727 9.64956 32.8761C9.64956 32.8761 9.64956 32.8854 9.64956 32.8854C9.64956 32.8854 9.64956 32.8746 9.64956 32.8746C5.8221 38.3362 3.1028 44.507 1.64802 51.0322C1.64802 51.0322 1.568 51.4295 1.568 51.4295C1.45567 51.9587 0.952497 54.642 0.880175 55.2163C0.42015 57.9894 0.126226 60.788 0 63.5968C0 63.5968 0 63.9072 0 63.9072C0.193014 95.0392 23.8846 120.89 54.642 123.529C85.3995 126.168 113.08 104.725 118.484 74.0726C118.584 73.2966 118.666 72.5284 118.755 71.7447C119.991 61.4901 118.663 51.0867 114.893 41.4819C114.893 41.4819 114.77 41.5453 114.77 41.5453Z" fill="url(#gradient_14)" transform="translate(4.376 0.047)" />
  </g>
</svg>