<?xml version="1.0" encoding="utf-8"?>
<svg width="128" height="128" viewBox="0 0 128 128" fill="none" xmlns="http://www.w3.org/2000/svg">
  <defs>
    <radialGradient id="gradient_2" gradientUnits="userSpaceOnUse" cx="0" cy="0" r="1" gradientTransform="matrix(35.066 0 0 35.056 63.192 47.896)">
      <stop offset="0.1" stop-color="#00DDFF" stop-opacity="0.4" />
      <stop offset="0.9" stop-color="#7542E5" stop-opacity="0.251" />
    </radialGradient>
    <radialGradient id="gradient_3" gradientUnits="userSpaceOnUse" cx="0" cy="0" r="1" gradientTransform="matrix(29.818 0 0 29.809 59.817 64.069)">
      <stop offset="0.91" stop-color="#7542E5" stop-opacity="0" />
      <stop offset="1" stop-color="#00DDFF" stop-opacity="0.4" />
    </radialGradient>
    <radialGradient id="gradient_4" gradientUnits="userSpaceOnUse" cx="0" cy="0" r="1" gradientTransform="matrix(153.633 0 0 124.719 103.232 13.679)">
      <stop offset="0" stop-color="#80EBFF" />
      <stop offset="0.26" stop-color="#00DDFF" />
      <stop offset="0.53" stop-color="#0090ED" />
      <stop offset="0.86" stop-color="#0060DF" />
    </radialGradient>
    <radialGradient id="gradient_5" gradientUnits="userSpaceOnUse" cx="0" cy="0" r="1" gradientTransform="matrix(153.633 0 0 124.719 57.296 65.325)">
      <stop offset="0.3" stop-color="#321C64" stop-opacity="0.8" />
      <stop offset="0.37" stop-color="#212F83" stop-opacity="0.502" />
      <stop offset="0.48" stop-color="#0A47AC" stop-opacity="0.141" />
      <stop offset="0.53" stop-color="#0250BB" stop-opacity="0" />
    </radialGradient>
    <radialGradient id="gradient_6" gradientUnits="userSpaceOnUse" cx="0" cy="0" r="1" gradientTransform="matrix(236.18 0 0 198.071 101.509 -27.172)">
      <stop offset="0" stop-color="#80EBFF" />
      <stop offset="0.47" stop-color="#00B3F4" />
      <stop offset="0.84" stop-color="#0060DF" />
      <stop offset="1" stop-color="#592ACB" />
    </radialGradient>
    <linearGradient id="gradient_7" gradientUnits="userSpaceOnUse" x1="87.769" y1="-8.108" x2="95.081" y2="92.475">
      <stop offset="0" stop-color="#AAF2FF" />
      <stop offset="0.29" stop-color="#00DDFF" />
      <stop offset="0.61" stop-color="#0090ED" />
      <stop offset="0.89" stop-color="#0250BB" />
    </linearGradient>
    <linearGradient id="gradient_8" gradientUnits="userSpaceOnUse" x1="68.99" y1="0.011" x2="76.181" y2="60.567">
      <stop offset="0" stop-color="#AAF2FF" />
      <stop offset="0.29" stop-color="#00DDFF" />
      <stop offset="0.74" stop-color="#0090ED" />
      <stop offset="1" stop-color="#0250BB" />
    </linearGradient>
    <radialGradient id="gradient_9" gradientUnits="userSpaceOnUse" cx="0" cy="0" r="1" gradientTransform="matrix(43.885 0 0 43.981 55.738 8.615)">
      <stop offset="0" stop-color="#00DDFF" />
      <stop offset="0.82" stop-color="#0090ED" />
    </radialGradient>
    <radialGradient id="gradient_10" gradientUnits="userSpaceOnUse" cx="0" cy="0" r="1" gradientTransform="matrix(139.686 0 0 124.991 84.709 31.007)">
      <stop offset="0.29" stop-color="#80EBFF" />
      <stop offset="1" stop-color="#00B3F4" />
    </radialGradient>
    <radialGradient id="gradient_11" gradientUnits="userSpaceOnUse" cx="0" cy="0" r="1" gradientTransform="matrix(112.193 0 0 109.983 54.571 24.336)">
      <stop offset="0.18" stop-color="#AAF2FF" />
      <stop offset="0.43" stop-color="#00DDFF" />
      <stop offset="0.69" stop-color="#0060DF" />
    </radialGradient>
    <linearGradient id="gradient_12" gradientUnits="userSpaceOnUse" x1="103.203" y1="18.586" x2="23.999" y2="104.045">
      <stop offset="0.24" stop-color="#80EBFF" stop-opacity="0.502" />
      <stop offset="0.7" stop-color="#00DDFF" stop-opacity="0" />
    </linearGradient>
    <linearGradient id="gradient_13" gradientUnits="userSpaceOnUse" x1="49.423" y1="49.717" x2="38.117" y2="91.01">
      <stop offset="0" stop-color="#BFF3FF" stop-opacity="0.898" />
      <stop offset="1" stop-color="#80EBFF" stop-opacity="0.502" />
    </linearGradient>
    <linearGradient id="gradient_14" gradientUnits="userSpaceOnUse" x1="92.597" y1="-1.991" x2="91.363" y2="138.438">
      <stop offset="0" stop-color="#BFF3FF" />
      <stop offset="1" stop-color="#00DDFF" stop-opacity="0" />
    </linearGradient>
    <linearGradient id="gradient_15" gradientUnits="userSpaceOnUse" x1="68.931" y1="-1.216" x2="67.908" y2="43.858">
      <stop offset="0" stop-color="#BFF3FF" />
      <stop offset="1" stop-color="#AAF2FF" stop-opacity="0.502" />
    </linearGradient>
    <linearGradient id="gradient_16" gradientUnits="userSpaceOnUse" x1="78.55" y1="43.959" x2="76.328" y2="111.357">
      <stop offset="0" stop-color="#BFF3FF" />
      <stop offset="1" stop-color="#00DDFF" stop-opacity="0" />
    </linearGradient>
    <linearGradient id="gradient_17" gradientUnits="userSpaceOnUse" x1="37.113" y1="48.211" x2="40.635" y2="96.88">
      <stop offset="0" stop-color="#BFF3FF" stop-opacity="0.8" />
      <stop offset="1" stop-color="#80EBFF" stop-opacity="0.2" />
    </linearGradient>
    <linearGradient id="gradient_18" gradientUnits="userSpaceOnUse" x1="42.106" y1="20.143" x2="29.087" y2="41.923">
      <stop offset="0" stop-color="#BFF3FF" stop-opacity="0.8" />
      <stop offset="1" stop-color="#80EBFF" stop-opacity="0.2" />
    </linearGradient>
    <linearGradient id="gradient_19" gradientUnits="userSpaceOnUse" x1="20.973" y1="56.909" x2="18.954" y2="143.82">
      <stop offset="0" stop-color="#00DDFF" stop-opacity="0.4" />
      <stop offset="1" stop-color="#00DDFF" stop-opacity="0" />
    </linearGradient>
    <linearGradient id="gradient_20" gradientUnits="userSpaceOnUse" x1="29.536" y1="8.865" x2="29.536" y2="111.729">
      <stop offset="0" stop-color="#BFF3FF" />
      <stop offset="1" stop-color="#00DDFF" stop-opacity="0" />
    </linearGradient>
    <linearGradient id="gradient_21" gradientUnits="userSpaceOnUse" x1="87.337" y1="23.42" x2="83.168" y2="164.749">
      <stop offset="0" stop-color="#BFF3FF" stop-opacity="0.8" />
      <stop offset="1" stop-color="#00DDFF" stop-opacity="0" />
    </linearGradient>
  </defs>
    <path d="M0 0L3.78067 10.4812L9.46097 18.1463L22.7971 20.6915L29.1771 21.2334L40.0702 18.5117L44.7627 14.0142L0 0Z" fill="#09204D" transform="translate(36.682 72.176)" />
    <path d="M58.0121 23.3559L56.676 18.925L52.8582 11.7198L48.4908 7.11547L43.8539 3.8039L39.8287 2.22475L34.9983 0.506256L27.0453 0L22.0292 0.90414L17.9373 2.16282L10.6763 6.41259L6.13856 11.4767L1.95381 18.2733L0.30809 24.0573L0 32.834L1.56986 38.8177L5.03161 45.6297L7.47155 48.9196L10.8481 52.016L15.0639 54.8678L20.2627 57.1297L28.9619 58.1499L33.5059 58.2769L40.2281 56.3834L46.2382 53.0842L50.104 49.7851L53.1028 46.2087L57.3418 37.9105L58.2769 32.2333L58.0121 23.3559Z" fill="#09204D" transform="translate(35.102 33.37)" />
    <path d="M3.56238 0L0 3.53296L5.81034 5.8893L10.1329 0.527931L3.56238 0Z" fill="#0E56D7" transform="translate(58.742 37.358)" />
    <path d="M0 5.36137L11.2491 5.01922L4.32254 0L0 5.36137Z" fill="#1053D1" transform="translate(64.55 37.879)" />
    <path d="M6.09058 0L0 0.0371552L6.92659 5.05638L13.3314 4.63837L6.09058 0Z" fill="#0B4FBF" transform="translate(68.878 37.838)" />
    <path d="M3.64134 5.02077L0 0L5.03935 3.01897L3.64134 5.02077Z" fill="#0B48B0" transform="translate(78.558 37.461)" />
    <path d="M4.82105 5.0765L0 2.0018L1.39801 0L4.82105 5.0765Z" fill="#0C45A7" transform="translate(82.208 40.487)" />
    <path d="M0.806602 0L0 3.44007L4.40923 5.20346L0.806602 0Z" fill="#0F46AF" transform="translate(81.392 42.482)" />
    <path d="M0 0L4.82105 3.0747L3.60263 5.20346L0 0Z" fill="#0C47AD" transform="translate(82.199 42.482)" />
    <path d="M0 0.418011L6.40485 0L5.59825 3.44007L0 0.418011Z" fill="#0E4FC3" transform="translate(75.805 42.482)" />
    <path d="M5.06102 0L0 4.58263L6.51322 7.7719L5.06102 0Z" fill="#174DCA" transform="translate(70.744 42.9)" />
    <path d="M0 0.342152L11.2491 0L6.1881 4.58263L0 0.342152Z" fill="#1650D4" transform="translate(64.55 42.899)" />
    <path d="M0 0L3.06231 5.94194L4.40923 1.76339L0 0Z" fill="#1246B2" transform="translate(81.394 45.919)" />
    <path d="M0 4.17856L1.34692 0L4.55631 7.63256L0 4.17856Z" fill="#133EA1" transform="translate(84.459 47.686)" />
    <path d="M0 0L4.89072 3.5825L3.2094 7.63256L0 0Z" fill="#103D98" transform="translate(85.806 47.684)" />
    <path d="M0 0.472198L0.944397 0L3.6723 6.18346L0 0.472198Z" fill="#0B3785" transform="translate(87.029 45.091)" />
    <path d="M2.72791 6.18346L3.81783 7.20526L0 0L2.72791 6.18346Z" fill="#0B3685" transform="translate(87.971 45.093)" />
    <path d="M7.09534 10.7878L3.42304 5.07651L2.20462 7.20527L7.09534 10.7878ZM0 0L3.42304 5.0765L4.36744 4.61205L0 0Z" fill="#0C3B91" transform="translate(83.603 40.488)" />
    <path d="M1.08992 7.89266L0 0L1.33608 4.43091L1.07289 7.89266L1.08992 7.89266Z" fill="#0B3279" transform="translate(91.792 52.285)" />
    <path d="M0 0L2.17985 8.91446L1.08993 1.0218L0 0Z" fill="#0F388D" transform="translate(90.698 51.276)" />
    <path d="M0 4.05006L3.86118 8.91446L1.68133 0L0 4.05006Z" fill="#0D3481" transform="translate(89.011 51.267)" />
    <path d="M0 3.46175L0.263191 0L0.527931 8.8773L0.0170288 3.46175L0 3.46175Z" fill="#0B2E71" transform="translate(92.866 56.716)" />
    <path d="M0 7.01639L1.15804 5.41556L0.647141 0L0 7.01639Z" fill="#0E2F77" transform="translate(92.231 60.19)" />
    <path d="M0.925819 5.6772L0 6.12308L1.86092 0L0.925819 5.6772Z" fill="#0E2969" transform="translate(91.522 65.601)" />
    <path d="M0 6.12309L1.86092 0L0.702873 1.60083L0 6.12309Z" fill="#0C2A69" transform="translate(91.519 65.604)" />
    <path d="M1.33608 7.01639L1.98322 0L0 2.33931L1.33608 7.01639Z" fill="#123180" transform="translate(90.895 60.19)" />
    <path d="M3.1227 4.52225L3.82557 0L0 6.42962L3.1227 4.52225Z" fill="#112B70" transform="translate(88.396 67.205)" />
    <path d="M0 0L3.86118 4.8644L1.87795 7.20372L0 0Z" fill="#12378C" transform="translate(89.011 55.317)" />
    <path d="M3.35337 4.67708L2.01729 0L0 5.75926L3.35337 4.67708Z" fill="#122E7B" transform="translate(88.878 62.53)" />
    <path d="M0 7.8524L3.31312 0L0.213654 5.72365L0 7.8524Z" fill="#11296C" transform="translate(88.206 71.724)" />
    <path d="M0.0232239 5.72365L3.12269 0L0 1.90736L0.0232239 5.72365Z" fill="#142A72" transform="translate(88.399 71.717)" />
    <path d="M10.3976 0.450523L7.0845 8.29829L11.3234 0L10.3976 0.450523ZM4.08721 11.8792L7.0845 8.30293L7.29816 6.17417L4.08721 11.8792ZM0.216743 15.1784L4.08721 11.8792L0 13.7587L0.216743 15.1784Z" fill="#112768" transform="translate(81.121 71.277)" />
    <path d="M3.90607 1.77113L0 2.72791L0.119209 0L3.90607 1.77113Z" fill="#1C226A" transform="translate(54.869 86.971)" />
    <path d="M1.64573 0.399433L2.72326 0L0 6.18346L1.64573 0.399433Z" fill="#182B7A" transform="translate(35.424 51.233)" />
    <path d="M0 6.18346L2.06219 5.79951L2.72326 0L0 6.18346Z" fill="#1F308D" transform="translate(35.413 51.239)" />
    <path d="M0.123856 7.81061L0 0.383953L2.06219 0L0.123856 7.81061Z" fill="#1E2B7F" transform="translate(35.413 57.043)" />
    <path d="M36.1811 8.49181L32.0351 13.2416L39.2435 14.4338L36.1811 8.49181ZM0 3.62121L5.2917 0L0.568184 2.35015L0 3.62121Z" fill="#1346B5" transform="translate(45.213 37.427)" />
    <path d="M0 4.24977L7.261 0L4.72352 1.90272L0 4.24977L0 4.24977Z" fill="#1244AC" transform="translate(45.786 35.523)" />
    <path d="M0 3.1614L6.62934 0L2.53748 1.25867L0 3.1614Z" fill="#0E4AB6" transform="translate(50.508 34.274)" />
    <path d="M21.2566 8.63734L22.7088 16.4092L26.8549 11.6594L21.2566 8.63734ZM0 2.79913L6.17727 0.322021L2.59167 0L0 2.79913Z" fill="#0E4BBA" transform="translate(54.548 34.263)" />
    <path d="M5.01613 0L0 0.90414L3.58561 1.22617L5.01613 0Z" fill="#0A4EBC" transform="translate(57.134 33.363)" />
    <path d="M6.17416 1.16579L0 1.22617L1.43052 0L6.17416 1.16579Z" fill="#0C54CC" transform="translate(60.729 33.359)" />
    <path d="M11.6625 3.58715L8.06296 3.96955L15.3038 8.61412L11.6625 3.58715ZM0 0.659531L8.03973 1.71849L3.2094 0L0 0.659531Z" fill="#0B4BB4" transform="translate(66.898 33.879)" />
    <path d="M3.62276 1.87176L0 0L4.02528 1.57915L3.62276 1.87176Z" fill="#0C3889" transform="translate(74.938 35.594)" />
    <path d="M1.13173 7.33376L3.51439 9.28912L0 0L1.13173 7.33376ZM33.9378 25.8036L36.0279 20.8835L28.4123 22.9286L33.9378 25.8036ZM36.0279 20.8835L42.394 22.65L42.7795 17.7267L36.0279 20.8835Z" fill="#202575" transform="translate(35.551 64.843)" />
    <path d="M2.80222 6.94827L0 4.49903L6.77023 0L2.80222 6.94827Z" fill="#1B2773" transform="translate(78.328 78.078)" />
    <path d="M3.968 0.636307L0 7.58457L4.08721 5.70507L7.29816 0L3.968 0.636307Z" fill="#15276D" transform="translate(81.126 77.439)" />
    <path d="M4.02528 1.57915L3.62276 1.87175L8.66211 4.89072L4.02528 1.57915ZM0.0232239 2.25416L3.62276 1.87176L0 0L0.0232239 2.25416Z" fill="#0C409D" transform="translate(74.938 35.593)" />
    <path d="M0 0L4.74364 1.16579L7.95303 0.506256L0 0ZM12.7834 2.22475L4.74364 1.16579L12.8066 4.4789L12.7834 2.22475Z" fill="#0B4CB7" transform="translate(62.15 33.363)" />
    <path d="M0 0L1.97239 3.35028L8.06296 3.31312L0 0Z" fill="#0B55CE" transform="translate(66.903 34.525)" />
    <path d="M4.59811 0L6.5705 3.35028L0 2.82235L4.59811 0Z" fill="#0A52C5" transform="translate(62.305 34.525)" />
    <path d="M0 0.060379L1.57606 2.82235L6.17418 0L0 0.060379Z" fill="#0951C4" transform="translate(60.726 34.526)" />
    <path d="M0 2.47091L6.17727 0L7.75333 2.76197L0 2.47091Z" fill="#0B50C4" transform="translate(54.548 34.593)" />
    <path d="M0 3.15521L4.03767 2.78674L6.62934 0L0 3.15521ZM4.03767 2.78674L8.22862 6.61076L11.7894 3.0778L4.03767 2.78674Z" fill="#0F4DBF" transform="translate(50.508 34.28)" />
    <path d="M6.82286 0L0 6.39866L2.78519 0.368465L6.82286 0Z" fill="#1546B6" transform="translate(47.725 37.064)" />
    <path d="M0 6.39866L4.3535 7.12166L6.82286 0L0 6.39866Z" fill="#1549BD" transform="translate(47.721 37.059)" />
    <path d="M0 7.12166L2.46936 0L6.66031 3.82402L0 7.12166Z" fill="#144BC3" transform="translate(52.071 37.064)" />
    <path d="M0 3.78996L0.26474 6.36305L3.96955 0L0 3.78996Z" fill="#173794" transform="translate(41.249 41.046)" />
    <path d="M0 6.39711L3.10721 0L3.37195 2.57309L0 6.39711Z" fill="#192F84" transform="translate(38.138 44.848)" />
    <path d="M0 6.36305L3.70481 0L6.21133 2.40898L0 6.36305Z" fill="#1A389B" transform="translate(41.513 41.058)" />
    <path d="M3.14746 5.51774L3.37195 0L0 3.82402L3.14746 5.51774Z" fill="#1D3089" transform="translate(38.133 47.415)" />
    <path d="M0 5.51774L0.224487 0L4.60121 3.55309L0 5.51774Z" fill="#1E389F" transform="translate(41.28 47.415)" />
    <path d="M4.37673 7.50716L6.21133 0L0 3.95407L4.37673 7.50716Z" fill="#1C40AF" transform="translate(41.517 43.459)" />
    <path d="M0 7.50716L1.8346 0L6.1881 0.723003L0 7.50716Z" fill="#1E41B7" transform="translate(45.894 43.459)" />
    <path d="M0 5.79951L0.661076 0L3.80854 1.69372L0 5.79951Z" fill="#192C7D" transform="translate(37.472 51.236)" />
    <path d="M34.3698 33.622L40.2235 32.7132L42.826 30.4683L34.3698 33.622ZM0 9.16062L0.431942 7.8106L0.30809 0.379303L0 9.16062ZM2.37027 0L0.431942 7.8106L3.94633 17.0997L2.22629 6.33982L2.37027 0Z" fill="#162467" transform="translate(35.119 57.04)" />
    <path d="M0 4.33337L2.89975 4.74055L0.86853 0L0 4.33337Z" fill="#1A236A" transform="translate(39.051 69.809)" />
    <path d="M39.3704 10.489L36.1827 12.9661L33.5802 15.2109L39.5902 11.9118L39.3704 10.489ZM22.3094 16.9743L26.8533 17.1013L33.5755 15.2078L27.7218 16.1166L22.3094 16.9743ZM0 4.98826L3.04683 5.57347L0.193523 0L0 4.98826Z" fill="#132668" transform="translate(41.76 74.537)" />
    <path d="M19.8849 23.6021L14.7248 19.6295L12.5806 21.6932L19.7657 26.33L19.8849 23.6021ZM1.56986 8.80919L5.03161 15.6212L3.94788 10.7645L1.56986 8.80919ZM0 2.82544L1.56986 8.80919L0.431942 1.47543L0 2.82544ZM28.8427 24.4072L19.8787 23.6006L23.6656 25.3717L19.7595 26.3285L15.0577 24.8639L20.2565 27.1258L28.9557 28.146L34.3744 27.2884L28.8427 24.4072ZM6.84299 11.1702L3.94943 10.763L6.65565 16.1538L6.84299 11.1702ZM2.22784 0L3.94942 10.763L4.81796 6.42808L2.22784 0ZM9.6963 16.7359L6.64946 16.1507L5.03316 15.6166L7.4731 18.9065L10.8497 22.0028L15.0608 24.8608L12.5837 21.6947L9.6963 16.7359Z" fill="#1B2268" transform="translate(35.112 63.375)" />
    <path d="M0 4.10579L4.09186 10.4363L3.80854 0L0 4.10579Z" fill="#212A81" transform="translate(37.472 52.929)" />
    <path d="M0 0.00619507L2.58392 6.43581L4.23119 0L0 0.00619507Z" fill="#21267A" transform="translate(37.348 63.377)" />
    <path d="M0 6.43582L1.64727 0L3.69242 5.08579L0 6.43582Z" fill="#262781" transform="translate(39.918 63.372)" />
    <path d="M0 6.09058L7.84621 10.9534L1.66121 0L0 6.09058Z" fill="#272379" transform="translate(41.962 68.455)" />
    <path d="M1.08373 4.85666L2.70468 5.39079L0 0L1.08373 4.85666ZM18.4079 7.65424L15.9308 12.8376L24.8949 13.6442L18.4079 7.65424ZM2.89511 0.407166L5.74842 5.98064L8.62959 10.9348L10.7738 8.87111L10.7413 5.27622L2.89511 0.407166Z" fill="#1E226D" transform="translate(39.066 74.132)" />
    <path d="M14.3703 3.48652L13.9848 8.40976L17.1725 5.93266L14.3703 3.48652ZM0.651787 2.77899L0 8.68843L7.61863 6.64327L7.3477 0L0.651787 2.77899Z" fill="#222475" transform="translate(63.958 79.094)" />
    <path d="M0 6.33054L4.23119 6.33054L0.139336 0L0 6.33054ZM33.9672 22.0446L34.2382 28.6879L40.9898 25.5312L33.9672 22.0446Z" fill="#23277D" transform="translate(37.348 57.052)" />
    <path d="M0 3.93549L4.34576 0L7.02258 7.422L0 3.93549Z" fill="#1E2776" transform="translate(71.3 75.161)" />
    <path d="M2.67682 9.9502L5.96207 0L0 2.52819L2.67682 9.9502Z" fill="#222B86" transform="translate(75.652 72.63)" />
    <path d="M6.77023 5.45117L0 9.9502L3.28526 0L6.77023 5.45117Z" fill="#192974" transform="translate(78.324 72.624)" />
    <path d="M6.7919 0.998581L0 0L3.48497 5.45116L6.81512 4.81486L6.7919 0.998581Z" fill="#172A75" transform="translate(81.615 72.633)" />
    <path d="M7.2641 1.08373L0 5.43259L6.7919 6.43117L10.6175 0L7.2641 1.08373Z" fill="#172D7D" transform="translate(81.608 67.191)" />
    <path d="M1.0729 6.39711L4.18011 0L0 6.79654L1.0729 6.39711ZM49.0977 14.3161L51.807 23.4396L53.8196 17.6803L49.0977 14.3161Z" fill="#18338A" transform="translate(37.065 44.848)" />
    <path d="M4.72662 7.20372L2.84866 0L0 3.8395L4.72662 7.20372Z" fill="#153791" transform="translate(86.158 55.312)" />
    <path d="M0 7.48239L7.2641 3.13353L0.224487 0L0 7.48239Z" fill="#1B318B" transform="translate(81.611 65.143)" />
    <path d="M6.58289 6.65102L0 0L0.620827 9.17921L6.58289 6.65102Z" fill="#242D8D" transform="translate(75.028 65.974)" />
    <path d="M5.05483 4.47581L0 0L9.40059 0.540314L5.05483 4.47581Z" fill="#2A2B8F" transform="translate(66.245 74.621)" />
    <path d="M2.03122 6.09057L3.69243 0L0 1.35002L2.03122 6.09057ZM26.3223 6.16023L24.6812 13.4181L31.374 10.6391L26.3223 6.16023Z" fill="#27267F" transform="translate(39.93 68.455)" />
    <path d="M5.98374 2.474L1.11934 0L0 5.77938L7.66972 8.16359L14.8084 8.24409L5.98374 2.474Z" fill="#2D2381" transform="translate(49.803 73.635)" />
    <path d="M8.82467 7.25481L10.4626 0L0 1.48471L8.82467 7.25481Z" fill="#2F2485" transform="translate(55.787 74.613)" />
    <path d="M0.283318 10.4363L2.38111 3.73577L0 0L0.283318 10.4363Z" fill="#233196" transform="translate(41.291 52.931)" />
    <path d="M0 2.68456L9.21171 0L4.34576 9.94091L0 2.68456Z" fill="#293CB7" transform="translate(45.894 48.282)" />
    <path d="M6.58289 7.48239L0 0.831375L6.80738 0L6.58289 7.48239Z" fill="#25339C" transform="translate(75.028 65.143)" />
    <path d="M7.03961 9.12347L4.33028 0L0 5.98994L7.03961 9.12347Z" fill="#19348F" transform="translate(81.832 59.152)" />
    <path d="M7.52883 9.17921L0 1.89963L6.908 0L7.52883 9.17921Z" fill="#2A309A" transform="translate(68.121 65.985)" />
    <path d="M0 6.73927L9.40059 7.27958L1.87176 0L0 6.73927Z" fill="#302B96" transform="translate(66.253 67.883)" />
    <path d="M5.14772 6.73926L0 2.54677L7.01949 0L5.14772 6.73926Z" fill="#3630A7" transform="translate(61.105 67.883)" />
    <path d="M3.96955 1.27416L4.53773 0L0 5.06412L3.96955 1.27416ZM43.2161 12.0867L44.9191 19.3802L47.7678 15.5407L43.2161 12.0867Z" fill="#173DA2" transform="translate(41.243 39.784)" />
    <path d="M2.2201 0L6.56586 7.25636L0 5.70042L2.2201 0Z" fill="#2A36A8" transform="translate(43.674 50.966)" />
    <path d="M0 0L6.56586 1.55593L2.12566 8.5491L0 0Z" fill="#312E9F" transform="translate(43.665 56.664)" />
    <path d="M3.02361 7.39724L6.6603 0L0 3.29764L3.02361 7.39724Z" fill="#184DCD" transform="translate(52.082 40.891)" />
    <path d="M0 0L4.22346 1.84853L2.04516 5.08579L0 0Z" fill="#272986" transform="translate(41.574 63.367)" />
    <path d="M2.1783 0L0 3.23726L6.18501 14.1907L7.30435 8.4113L2.1783 0Z" fill="#2C2584" transform="translate(43.623 65.225)" />
    <path d="M5.12605 10.1762L5.81035 0L0 1.76493L5.12605 10.1762Z" fill="#32268B" transform="translate(45.8 63.456)" />
    <path d="M0 10.1762L10.1793 6.97304L0.684299 0L0 10.1762Z" fill="#372999" transform="translate(50.926 63.456)" />
    <path d="M9.49503 7.86789L8.50264 0L0 0.894852L9.49503 7.86789Z" fill="#392DA5" transform="translate(51.602 62.559)" />
    <path d="M0 2.68456L7.1805 0L8.01187 8.00568L0 2.68456Z" fill="#3338BC" transform="translate(60.106 59.878)" />
    <path d="M0 5.6772L10.4626 4.19249L5.31493 0L0 5.6772Z" fill="#362896" transform="translate(55.787 70.432)" />
    <path d="M4.8644 5.6772L0 3.2032L10.1793 0L4.8644 5.6772Z" fill="#35268F" transform="translate(50.922 70.432)" />
    <path d="M0 7.39724L6.23455 8.05677L3.63669 0L0 7.39724Z" fill="#2648D3" transform="translate(55.106 40.891)" />
    <path d="M5.81035 2.35634L0 0L2.59786 8.05677L5.81035 2.35634Z" fill="#1057DC" transform="translate(58.739 40.885)" />
    <path d="M3.21249 0L9.40059 4.24049L0 5.70043L3.21249 0Z" fill="#1653DA" transform="translate(61.337 43.241)" />
    <path d="M0 0L9.22101 4.89072L5.95278 10.9302L0 0Z" fill="#2B46D5" transform="translate(61.329 48.938)" />
    <path d="M9.221 6.35067L9.40059 0L0 1.45994L9.221 6.35067Z" fill="#244AD7" transform="translate(61.336 47.48)" />
    <path d="M0 6.35067L0.179588 0L6.69282 3.18927L0 6.35067Z" fill="#2547CF" transform="translate(70.557 47.48)" />
    <path d="M4.48664 0L10.4394 10.9302L0 5.70043L4.48664 0Z" fill="#333CC5" transform="translate(56.843 48.938)" />
    <path d="M3.25893 7.91433L10.4394 5.22977L0 0L3.25893 7.91433Z" fill="#3833B6" transform="translate(56.847 54.648)" />
    <path d="M0 6.03948L9.20706 4.3566L3.26822 0L0 6.03948Z" fill="#2A41C6" transform="translate(67.29 53.829)" />
    <path d="M6.69281 0L5.93884 7.518L0 3.1614L6.69281 0Z" fill="#2045C1" transform="translate(70.552 50.672)" />
    <path d="M0.753967 0L5.09972 5.90324L0 7.518L0.753967 0Z" fill="#1B43B7" transform="translate(76.491 50.672)" />
    <path d="M7.20836 1.1921L0 0L4.34576 5.90324L7.20836 1.1921Z" fill="#1742AF" transform="translate(77.251 50.672)" />
    <path d="M2.50497 6.03793L5.2917 0L0 3.62121L2.50497 6.03793ZM39.2435 14.4415L36.3809 19.1526L40.9511 21.735L39.2435 14.4415Z" fill="#1740A9" transform="translate(45.231 37.42)" />
    <path d="M0.239967 8.57231L4.57025 2.58237L0 0L0.239967 8.57231Z" fill="#1B3CA4" transform="translate(81.603 56.575)" />
    <path d="M5.33969 8.57231L5.09972 0L0 1.61476L5.33969 8.57231Z" fill="#1F3DAD" transform="translate(76.503 56.575)" />
    <path d="M0 6.78416L9.21171 4.0996L6.1881 0L0 6.78416ZM21.3959 15.6893L29.1369 21.7954L30.6046 14.0065L21.3959 15.6893Z" fill="#2543C3" transform="translate(45.894 44.182)" />
    <path d="M0.831383 8.00568L7.73939 6.10605L0 0L0.831383 8.00568Z" fill="#2E37B2" transform="translate(67.295 59.867)" />
    <path d="M0 0L1.74791 6.35995L6.23455 0.659531L0 0Z" fill="#2D40C7" transform="translate(55.106 48.288)" />
    <path d="M4.86595 0L0 9.94091L6.61386 6.35995L4.86595 0Z" fill="#3537B8" transform="translate(50.24 48.288)" />
    <path d="M5.24371 0L0 8.80919L8.50264 7.91433L5.24371 0Z" fill="#3931B0" transform="translate(51.611 54.651)" />
    <path d="M9.87589 7.91433L10.8683 15.7822L17.8878 13.2355L9.87589 7.91433ZM1.37014 8.80919L6.61385 0L0 3.58096L1.37014 8.80919Z" fill="#3735B8" transform="translate(50.23 54.648)" />
    <path d="M0 6.99316L4.4402 0L5.81035 5.22823L0 6.99316Z" fill="#342892" transform="translate(45.801 58.232)" />
    <path d="M2.48329 8.82466L7.18513 10.2954L0 5.65862L2.48329 8.82466ZM2.14424 3.59489L7.30434 7.56754L9.78144 2.38421L2.11172 0L2.14424 3.59489ZM16.2683 8.37415L16.9201 2.46471L9.78145 2.3842L16.2683 8.37415ZM23.8839 6.32279L21.7938 11.2429L30.25 8.08928L23.8839 6.32279Z" fill="#232372" transform="translate(47.684 79.422)" />
    <path d="M0 6.70055L2.09779 0L4.22345 8.54909L0 6.70055Z" fill="#2A2F96" transform="translate(41.574 56.667)" />
    <path d="M2.37957 5.70042L4.59967 0L0 1.97239L2.37957 5.70042ZM35.2011 7.2223L33.7334 15.0112L40.5455 14.1799L35.2011 7.2223Z" fill="#2636A5" transform="translate(41.285 50.963)" />
    <path d="M58.4719 32.3277L58.4719 32.3153L58.2026 23.438L58.2026 23.407L56.868 18.9777L56.868 18.9684L53.0502 11.7631L48.6502 7.11237L48.641 7.11237L44.0057 3.8039L43.9871 3.8039L39.9618 2.22475L39.9339 2.22475L35.1036 0.506256L35.0711 0.506256L27.1181 0L27.084 0L22.0679 0.905689L22.0493 0.905689L17.9605 2.16282L17.9342 2.16282L10.6732 6.38627L6.13702 11.4473L1.95691 18.2423L1.95691 18.2593L0.309639 24.0434L0.309639 24.065L0 32.8417L0 32.8835L1.56831 38.8626L1.56831 38.8827L5.02851 45.6948L5.02851 45.7056L7.42201 49.0775L7.42201 49.0853L10.7971 52.1817L10.8064 52.1817L15.0221 55.0334L15.0313 55.0334L20.2302 57.2938L20.2627 57.2938L28.9619 58.314L28.9743 58.314L33.5167 58.441L33.5523 58.441L40.2745 56.546L40.2978 56.546L46.3047 53.2484L46.3156 53.2406L46.3233 53.2406L50.1938 49.943L53.1911 46.3651L53.2019 46.3496L57.4408 38.0514L57.4408 38.0188L58.3698 32.3447L58.3698 32.3308L58.4719 32.3277ZM10.989 52.0052L10.1143 51.2032L12.0805 52.7436L10.989 52.0052ZM23.7492 55.3384L20.676 53.9017L27.9525 54.5566L23.7492 55.3384ZM24.8685 29.174L16.8025 30.0225L21.7768 21.6622L24.8685 29.174ZM22.0539 21.6452L31.9097 26.5824L25.1302 29.1121L22.0539 21.6452ZM24.9428 29.4295L25.8811 36.8608L16.9016 30.2702L24.9428 29.4295ZM25.7634 37.1054L16.0098 40.1739L16.6647 30.4203L25.7634 37.1054ZM25.2215 29.5534L32.7782 34.571L26.1582 36.9738L25.2215 29.5534ZM25.3423 29.318L32.1233 26.7821L32.9083 34.3434L25.3423 29.318ZM35.76 20.5847L42.0441 17.6184L41.3351 24.6766L35.76 20.5847ZM41.1199 24.8438L32.481 26.4229L35.5495 20.7519L41.1199 24.8438ZM32.2348 26.3254L26.6149 15.9912L35.3327 20.6141L32.2348 26.3254ZM31.9252 26.296L22.0044 21.3263L26.2681 15.9076L31.9252 26.296ZM16.6059 29.8444L15.341 25.0172L21.4455 21.7133L16.6059 29.8444ZM15.7698 39.9355L10.9457 32.0227L16.4108 30.3615L15.7698 39.9355ZM25.6148 37.429L20.7101 42.6681L16.2204 40.386L25.6148 37.429ZM32.8773 34.8172L31.1279 41.1183L26.3053 37.1983L32.8773 34.8172ZM32.4036 26.8967L39.6955 32.6482L33.1931 34.4394L32.4036 26.8967ZM32.5491 26.6768L41.2824 25.0822L39.8891 32.4686L32.5491 26.6768ZM41.5983 24.7338L42.298 17.7531L46.3326 23.2337L41.5983 24.7338ZM46.4209 23.4798L46.6438 31.4731L41.6648 24.9877L46.4209 23.4798ZM35.647 20.3509L35.8142 14.4183L41.9002 17.3985L35.647 20.3509ZM35.3838 20.3509L26.6985 15.7435L35.5526 14.3687L35.3838 20.3509ZM21.8589 21.0894L20.2317 15.1661L26.039 15.7853L21.8589 21.0894ZM21.6468 21.3108L15.4834 24.641L20.0165 15.3813L21.6468 21.3108ZM16.3969 30.0921L11.0479 31.7177L15.1366 25.2757L16.3969 30.0921ZM15.4293 39.8813L8.74728 35.1501L10.7398 32.1915L15.4293 39.8813ZM15.968 40.5532L20.4578 42.8353L14.9369 45.8852L15.968 40.5532ZM26.0638 37.333L30.8848 41.2592L21.0879 42.6526L26.0638 37.333ZM33.139 34.8559L40.2606 41.7361L31.3756 41.2267L33.139 34.8559ZM33.3279 34.6732L39.8581 32.8773L40.4449 41.5565L33.3279 34.6732ZM41.5209 25.2293L46.5416 31.7704L40.1414 32.5445L41.5209 25.2293ZM46.6841 23.5263L50.9214 25.9275L46.8962 31.484L46.6841 23.5263ZM46.729 23.2507L49.3609 18.9297L50.9214 25.6241L46.729 23.2507ZM46.5354 23.0618L42.4978 17.5781L49.1968 18.6851L46.5354 23.0618ZM35.9195 14.1721L40.6616 9.87899L42.0225 17.1632L35.9195 14.1721ZM26.5344 15.4943L29.5441 10.1546L35.3405 14.1272L26.5344 15.4943ZM20.2519 14.8998L23.6579 7.96389L26.0947 15.519L20.2519 14.8998ZM15.1738 24.6766L11.0401 17.7747L19.8013 15.2202L15.1738 24.6766ZM10.7986 31.6171L8.79837 23.5743L14.9756 25.0373L10.7986 31.6171ZM8.59556 34.9023L6.7625 30.3507L10.5478 32.0072L8.59556 34.9023ZM15.725 40.4139L14.6939 45.7598L8.96557 35.6284L15.725 40.4139ZM20.6559 43.0226L22.2242 48.3205L15.084 46.1004L20.6559 43.0226ZM31.0288 41.5007L29.4729 48.3871L21.0987 42.9096L31.0288 41.5007ZM40.2777 41.9977L36.2524 45.6437L31.5691 41.4976L40.2777 41.9977ZM40.1321 33.0476L46.3249 39.3116L40.7096 41.6927L40.1321 33.0476ZM40.2591 32.803L46.6484 32.0289L46.4317 39.0484L40.2591 32.803ZM51.0654 26.1783L53.6168 34.7723L46.9844 31.8215L51.0654 26.1783ZM49.6179 18.9142L53.7809 22.071L51.1784 25.5792L49.6179 18.9142ZM42.4529 17.3087L46.3233 12.8825L49.1766 18.4188L42.4529 17.3087ZM42.2779 17.109L40.9263 9.87435L46.1375 12.6874L42.2779 17.109ZM35.6749 14.0436L29.9033 10.0895L40.3938 9.77062L35.6749 14.0436ZM26.3192 15.3441L23.8994 7.84158L29.3103 10.0354L26.3192 15.3441ZM20.0274 14.7589L17.2267 10.9596L23.3993 7.90196L20.0274 14.7589ZM19.8338 14.9385L11.2507 17.4403L17.0162 11.1191L19.8338 14.9385ZM14.9122 24.7524L8.79682 23.3033L10.8652 17.9946L14.9122 24.7524ZM10.5525 31.7193L6.682 30.024L8.60639 23.8823L10.5525 31.7193ZM8.39429 35.1052L5.06414 36.3236L6.54885 30.5179L8.39429 35.1052ZM14.3842 45.7536L7.0582 41.2128L8.60639 35.5247L14.3842 45.7536ZM21.8449 48.4784L14.9137 49.5776L14.8843 46.314L21.8449 48.4784ZM20.9625 43.1356L29.1121 48.4645L22.5184 48.3902L20.9625 43.1356ZM31.2781 41.5874L36.0078 45.7768L29.7438 48.3778L31.2781 41.5874ZM40.5486 42.1169L43.0489 49.0466L36.4908 45.7954L40.5486 42.1169ZM40.7715 41.9621L46.345 39.5965L43.2703 48.9088L40.7715 41.9621ZM46.9178 32.0784L53.5487 35.0293L46.7073 39.1258L46.9178 32.0784ZM51.3565 26.217L55.6914 29.3026L53.8336 34.5865L51.3565 26.217ZM51.3085 25.8594L53.9141 22.3481L55.631 28.9372L51.3085 25.8594ZM49.5683 18.5457L50.7666 14.7914L53.6478 21.6468L49.5683 18.5457ZM49.3872 18.2531L46.6221 12.9026L50.5917 14.4895L49.3872 18.2531ZM41.2174 9.73811L46.9906 9.36036L46.263 12.4567L41.2174 9.73811ZM29.7872 9.83875L33.8511 4.7963L40.3659 9.51672L29.7872 9.83875ZM29.5472 9.71799L27.454 4.23586L33.5694 4.72818L29.5472 9.71799ZM29.2747 9.74276L23.9288 7.5753L27.2063 4.3241L29.2747 9.74276ZM17.2639 10.6608L19.5629 4.0284L23.4659 7.58923L17.2639 10.6608ZM11.0974 17.236L12.7803 10.345L16.7762 11.0092L11.0974 17.236ZM8.59867 23.1191L6.44049 19.7301L10.6113 17.9497L8.59867 23.1191ZM8.4841 23.4287L6.63866 29.3118L6.39095 20.1373L8.4841 23.4287ZM6.35844 30.2408L4.8536 36.1239L2.49262 30.2408L6.35844 30.2408ZM2.43224 29.9838L2.55764 24.2106L6.28722 29.9791L2.43224 29.9838ZM8.38037 35.4024L6.87708 40.8784L5.05022 36.61L8.38037 35.4024ZM14.3811 46.0663L9.84031 46.7088L7.24555 41.6432L14.3811 46.0663ZM14.6289 46.2955L14.6583 49.5126L10.1685 46.9287L14.6289 46.2955ZM22.201 48.6982L19.8958 53.5007L15.1057 49.8129L22.201 48.6982ZM22.4704 48.7462L28.5362 54.3476L20.1435 53.5921L22.4704 48.7462ZM22.7677 48.6642L29.4249 48.74L28.818 54.2469L22.7677 48.6642ZM36.1363 46.0323L36.3902 52.2529L29.8661 48.6193L36.1363 46.0323ZM36.401 46.0555L42.9808 49.3222L36.6549 52.2792L36.401 46.0555ZM46.6067 39.6801L49.8733 44.7891L43.5258 49.0063L46.6067 39.6801ZM46.8343 39.5469L53.123 40.4758L50.0529 44.5785L46.8343 39.5469ZM46.9504 39.2992L53.6788 35.2739L53.2407 40.2281L46.9504 39.2992ZM55.837 29.7004L57.0244 33.8573L54.0442 34.8203L55.837 29.7004ZM54.2485 22.6097L57.6545 26.9013L55.9051 28.9666L54.2485 22.6097ZM51.0592 14.7929L55.4855 18.0348L53.9636 21.6994L51.0592 14.7929ZM46.4983 12.5651L47.212 9.52291L50.3982 14.1241L46.4983 12.5651ZM40.8582 9.49039L40.0842 4.84583L46.7413 9.10954L40.8582 9.49039ZM40.5656 9.33558L34.2181 4.73901L39.7915 4.7034L40.5656 9.33558ZM27.6615 3.98195L31.8029 1.43982L33.5818 4.45879L27.6615 3.98195ZM23.6842 7.4375L19.8493 3.93859L26.9416 4.20488L23.6842 7.4375ZM16.9388 10.7646L12.9568 10.1019L19.1976 4.24978L16.9388 10.7646ZM10.7615 17.4636L6.68665 14.1551L12.4691 10.4735L10.7615 17.4636ZM10.5881 17.6617L6.37857 19.4576L6.58292 14.409L10.5881 17.6617ZM6.37702 29.6323L2.5948 23.7817L6.11537 19.9856L6.37702 29.6323ZM4.73749 36.5434L4.02068 40.1228L2.60408 31.2347L4.73749 36.5434ZM4.92017 36.9707L6.69285 41.109L4.16621 40.756L4.92017 36.9707ZM9.51829 46.6608L6.84612 46.1422L7.01642 41.7732L9.51829 46.6608ZM14.5669 49.7572L12.6688 51.5825L10.119 47.1996L14.5669 49.7572ZM14.793 49.9027L19.3524 53.4187L12.898 51.7311L14.793 49.9027ZM29.668 48.8097L36.1703 52.4201L29.0487 54.3321L29.668 48.8097ZM43.1263 49.5203L42.7703 54.0612L36.9011 52.4309L43.1263 49.5203ZM49.6566 45.2241L46.0431 51.5608L43.4902 49.3222L49.6566 45.2241ZM53.2174 40.7498L53.236 44.063L50.3455 44.6157L53.2174 40.7498ZM53.942 35.1067L56.8835 34.1561L53.5332 39.7946L53.942 35.1067ZM55.9809 29.2793L57.6499 27.3116L57.1142 33.2148L55.9809 29.2793ZM54.1092 22.0245L55.6078 18.4157L57.5492 26.3563L54.1092 22.0245ZM50.9215 14.3765L51.9742 12.5388L55.1465 17.4713L50.9215 14.3765ZM50.7388 14.1675L47.6238 9.67772L51.7915 12.3344L50.7388 14.1675ZM40.2901 4.66314L43.4422 4.32719L46.6314 8.72559L40.2901 4.66314ZM33.8883 4.47736L32.1528 1.52806L39.2497 4.44485L33.8883 4.47736ZM27.2899 3.89833L25.8966 1.4491L31.374 1.39337L27.2899 3.89833ZM27.0113 3.94014L20.1125 3.68159L25.6101 1.48471L27.0113 3.94014ZM13.0776 9.63128L15.5547 4.28229L19.1372 3.95562L13.0776 9.63128ZM12.6332 9.96568L10.376 7.79822L15.1413 4.53773L12.6332 9.96568ZM12.4645 10.1669L6.84921 13.7417L10.2041 7.99019L12.4645 10.1669ZM6.11692 19.4452L3.29922 17.9296L6.31818 14.5065L6.11692 19.4452ZM6.02867 19.6945L2.60408 23.3838L3.19859 18.1742L6.02867 19.6945ZM2.15356 30.041L0.706005 31.2238L2.26503 24.9459L2.15356 30.041ZM2.18917 30.3507L3.66614 39.6181L0.639435 31.6202L2.18917 30.3507ZM6.76251 41.3877L6.59376 45.7427L4.23433 41.0332L6.76251 41.3877ZM9.66846 46.9612L12.0774 51.0964L7.13253 46.4766L9.66846 46.9612ZM19.8029 53.8042L19.6992 56.1961L13.3949 52.129L19.8029 53.8042ZM20.0614 53.9063L23.3343 55.4359L19.9593 56.2611L20.0614 53.9063ZM28.7762 54.668L28.8784 58.023L24.1239 55.535L28.7762 54.668ZM36.2926 52.6554L34.3636 57.1962L29.2639 54.5442L36.2926 52.6554ZM36.6023 52.6152L42.4684 54.2439L34.6779 57.1498L36.6023 52.6152ZM43.3895 49.573L45.8744 51.7404L43.0427 53.945L43.3895 49.573ZM50.1334 44.9207L52.9976 44.3726L46.7181 50.8997L50.1334 44.9207ZM53.5069 43.6542L53.4868 40.4232L56.1296 38.8084L53.5069 43.6542ZM53.7392 39.9618L56.9439 34.5772L56.354 38.3687L53.7392 39.9618ZM57.8295 28.3194L58.2041 32.2828L57.3557 33.4548L57.8295 28.3194ZM55.8757 18.394L56.6079 19.0814L57.3418 24.3917L55.8757 18.394ZM52.16 12.3375L52.8489 11.9907L54.843 16.5099L52.16 12.3375ZM47.3343 9.17301L48.545 7.44059L51.5082 11.8359L47.3343 9.17301ZM47.1454 8.98413L43.9902 4.63063L48.3592 7.24861L47.1454 8.98413ZM40.0377 4.42627L40.0176 2.53438L43.0582 4.10424L40.0377 4.42627ZM39.7745 4.37518L32.8247 1.52032L39.7544 2.4322L39.7745 4.37518ZM26.0282 1.18436L27.1351 0.235321L30.8028 1.13791L26.0282 1.18436ZM19.9902 3.4509L22.1407 1.12862L25.1163 1.39646L19.9902 3.4509ZM19.4344 3.66456L16.1832 3.96026L21.5322 1.41195L19.4344 3.66456ZM10.4766 7.40807L10.8358 6.60147L13.8253 5.11676L10.4766 7.40807ZM6.55195 13.7278L6.33366 11.6176L9.58485 8.52122L6.55195 13.7278ZM6.32592 14.0993L3.62897 17.157L6.11382 12.048L6.32592 14.0993ZM2.30837 23.6547L0.586788 23.9752L2.86108 18.812L2.30837 23.6547ZM2.25109 23.9334L0.605366 30.5674L0.500088 24.2585L2.25109 23.9334ZM3.70174 40.4526L1.74483 38.8425L0.806629 32.8045L3.70174 40.4526ZM6.44513 46.0261L5.19574 45.6158L4.35972 41.8707L6.44513 46.0261ZM11.7879 51.1784L7.64188 48.9305L6.97461 46.6887L11.7879 51.1784ZM12.5465 51.8906L14.344 54.1819L8.84792 49.8764L12.5465 51.8906ZM13.2184 52.3225L18.9359 56.0119L15.1939 54.8414L13.2184 52.3225ZM23.7074 55.6078L28.1507 57.9301L20.4268 56.4082L23.7074 55.6078ZM29.0409 54.7238L34.0137 57.3108L29.1416 58.0849L29.0409 54.7238ZM42.2439 54.603L40.2312 56.3463L35.6873 57.0507L42.2439 54.603ZM45.975 51.9928L46.1438 53.0765L43.5335 53.8831L45.975 51.9928ZM52.7483 45.0012L50.0699 49.7789L46.6531 51.3503L52.7483 45.0012ZM53.4976 44.2054L55.2951 40.8845L53.3738 45.4408L53.4976 44.2054ZM57.2969 33.9719L57.975 33.0337L56.8913 36.6224L57.2969 33.9719ZM57.9502 26.8936L57.9409 26.8239L58.0091 25.9352L58.0772 28.2374L57.9502 26.8936ZM57.7691 25.5853L57.091 20.6652L57.9316 23.4519L57.7691 25.5853ZM55.7564 17.9125L54.5179 15.1026L56.2519 18.377L55.7564 17.9125ZM52.0191 12.1099L49.542 8.43916L52.7003 11.7678L52.0191 12.1099ZM43.7487 4.18784L43.9144 4.06863L45.8124 5.42639L43.7487 4.18784ZM43.4979 4.04386L42.2113 3.37968L43.6419 3.94168L43.4979 4.04386ZM32.6358 1.2308L35.0479 0.735382L38.6768 2.02657L32.6358 1.2308ZM31.8493 1.12553L28.5656 0.317371L34.071 0.667263L31.8493 1.12553ZM25.6287 1.18591L23.068 0.955223L26.6521 0.308083L25.6287 1.18591ZM16.5919 3.47412L18.0565 2.37646L20.4191 1.64882L16.5919 3.47412ZM15.389 4.04696L14.118 4.67862L16.0718 3.53605L15.389 4.04696ZM10.0571 7.70377L8.54911 9.14359L10.2722 7.22074L10.0571 7.70377ZM2.99422 17.8645L2.32386 18.1122L4.92945 13.881L2.99422 17.8645ZM2.12104 18.4668L2.84405 18.1989L1.01564 22.3527L2.12104 18.4668ZM0.320503 29.2468L0.357658 31.5583L0.224514 31.9794L0.320503 29.2468ZM0.445904 32.1497L1.10543 36.3994L0.196648 32.9315L0.445904 32.1497ZM3.88752 40.9403L4.73438 44.7333L2.0297 39.4122L3.88752 40.9403ZM6.60459 46.3589L7.1929 48.3375L5.4419 45.9765L6.60459 46.3589ZM19.7394 56.5414L19.984 56.933L17.414 55.8152L19.7394 56.5414ZM20.3989 57.0987L20.0893 56.6188L25.6798 57.7195L20.3989 57.0987ZM34.0942 57.5632L33.5059 58.2289L30.4374 58.1437L34.0942 57.5632ZM34.5014 57.4997L38.1597 56.9315L33.958 58.1143L34.5014 57.4997ZM42.9545 54.3398L45.1003 53.6772L41.3227 55.7626L42.9545 54.3398ZM46.3915 52.917L46.2227 51.8333L49.3578 50.392L46.3915 52.917ZM53.1818 44.7767L53.0347 46.2397L50.9725 48.6998L53.1818 44.7767ZM56.577 38.5375L57.1065 38.282L54.6805 43.0473L56.577 38.5375ZM57.2814 37.9058L56.6869 38.1938L57.8821 34.2614L57.2814 37.9058Z" fill="url(#gradient_2)" transform="translate(35.044 33.284)" />
    <path d="M58.4719 32.3277L58.4719 32.3153L58.2026 23.438L58.2026 23.407L56.868 18.9777L56.868 18.9684L53.0502 11.7631L48.6502 7.11237L48.641 7.11237L44.0057 3.8039L43.9871 3.8039L39.9618 2.22475L39.9339 2.22475L35.1036 0.506256L35.0711 0.506256L27.1181 0L27.084 0L22.0679 0.905689L22.0493 0.905689L17.9605 2.16282L17.9342 2.16282L10.6732 6.38627L6.13702 11.4473L1.95691 18.2423L1.95691 18.2593L0.309639 24.0434L0.309639 24.065L0 32.8417L0 32.8835L1.56831 38.8626L1.56831 38.8827L5.02851 45.6948L5.02851 45.7056L7.42201 49.0775L7.42201 49.0853L10.7971 52.1817L10.8064 52.1817L15.0221 55.0334L15.0313 55.0334L20.2302 57.2938L20.2627 57.2938L28.9619 58.314L28.9743 58.314L33.5167 58.441L33.5523 58.441L40.2745 56.546L40.2978 56.546L46.3047 53.2484L46.3156 53.2406L46.3233 53.2406L50.1938 49.943L53.1911 46.3651L53.2019 46.3496L57.4408 38.0514L57.4408 38.0188L58.3698 32.3447L58.3698 32.3308L58.4719 32.3277ZM10.989 52.0052L10.1143 51.2032L12.0805 52.7436L10.989 52.0052ZM23.7492 55.3384L20.676 53.9017L27.9525 54.5566L23.7492 55.3384ZM24.8685 29.174L16.8025 30.0225L21.7768 21.6622L24.8685 29.174ZM22.0539 21.6452L31.9097 26.5824L25.1302 29.1121L22.0539 21.6452ZM24.9428 29.4295L25.8811 36.8608L16.9016 30.2702L24.9428 29.4295ZM25.7634 37.1054L16.0098 40.1739L16.6647 30.4203L25.7634 37.1054ZM25.2215 29.5534L32.7782 34.571L26.1582 36.9738L25.2215 29.5534ZM25.3423 29.318L32.1233 26.7821L32.9083 34.3434L25.3423 29.318ZM35.76 20.5847L42.0441 17.6184L41.3351 24.6766L35.76 20.5847ZM41.1199 24.8438L32.481 26.4229L35.5495 20.7519L41.1199 24.8438ZM32.2348 26.3254L26.6149 15.9912L35.3327 20.6141L32.2348 26.3254ZM31.9252 26.296L22.0044 21.3263L26.2681 15.9076L31.9252 26.296ZM16.6059 29.8444L15.341 25.0172L21.4455 21.7133L16.6059 29.8444ZM15.7698 39.9355L10.9457 32.0227L16.4108 30.3615L15.7698 39.9355ZM25.6148 37.429L20.7101 42.6681L16.2204 40.386L25.6148 37.429ZM32.8773 34.8172L31.1279 41.1183L26.3053 37.1983L32.8773 34.8172ZM32.4036 26.8967L39.6955 32.6482L33.1931 34.4394L32.4036 26.8967ZM32.5491 26.6768L41.2824 25.0822L39.8891 32.4686L32.5491 26.6768ZM41.5983 24.7338L42.298 17.7531L46.3326 23.2337L41.5983 24.7338ZM46.4209 23.4798L46.6438 31.4731L41.6648 24.9877L46.4209 23.4798ZM35.647 20.3509L35.8142 14.4183L41.9002 17.3985L35.647 20.3509ZM35.3838 20.3509L26.6985 15.7435L35.5526 14.3687L35.3838 20.3509ZM21.8589 21.0894L20.2317 15.1661L26.039 15.7853L21.8589 21.0894ZM21.6468 21.3108L15.4834 24.641L20.0165 15.3813L21.6468 21.3108ZM16.3969 30.0921L11.0479 31.7177L15.1366 25.2757L16.3969 30.0921ZM15.4293 39.8813L8.74728 35.1501L10.7398 32.1915L15.4293 39.8813ZM15.968 40.5532L20.4578 42.8353L14.9369 45.8852L15.968 40.5532ZM26.0638 37.333L30.8848 41.2592L21.0879 42.6526L26.0638 37.333ZM33.139 34.8559L40.2606 41.7361L31.3756 41.2267L33.139 34.8559ZM33.3279 34.6732L39.8581 32.8773L40.4449 41.5565L33.3279 34.6732ZM41.5209 25.2293L46.5416 31.7704L40.1414 32.5445L41.5209 25.2293ZM46.6841 23.5263L50.9214 25.9275L46.8962 31.484L46.6841 23.5263ZM46.729 23.2507L49.3609 18.9297L50.9214 25.6241L46.729 23.2507ZM46.5354 23.0618L42.4978 17.5781L49.1968 18.6851L46.5354 23.0618ZM35.9195 14.1721L40.6616 9.87899L42.0225 17.1632L35.9195 14.1721ZM26.5344 15.4943L29.5441 10.1546L35.3405 14.1272L26.5344 15.4943ZM20.2519 14.8998L23.6579 7.96389L26.0947 15.519L20.2519 14.8998ZM15.1738 24.6766L11.0401 17.7747L19.8013 15.2202L15.1738 24.6766ZM10.7986 31.6171L8.79837 23.5743L14.9756 25.0373L10.7986 31.6171ZM8.59556 34.9023L6.7625 30.3507L10.5478 32.0072L8.59556 34.9023ZM15.725 40.4139L14.6939 45.7598L8.96557 35.6284L15.725 40.4139ZM20.6559 43.0226L22.2242 48.3205L15.084 46.1004L20.6559 43.0226ZM31.0288 41.5007L29.4729 48.3871L21.0987 42.9096L31.0288 41.5007ZM40.2777 41.9977L36.2524 45.6437L31.5691 41.4976L40.2777 41.9977ZM40.1321 33.0476L46.3249 39.3116L40.7096 41.6927L40.1321 33.0476ZM40.2591 32.803L46.6484 32.0289L46.4317 39.0484L40.2591 32.803ZM51.0654 26.1783L53.6168 34.7723L46.9844 31.8215L51.0654 26.1783ZM49.6179 18.9142L53.7809 22.071L51.1784 25.5792L49.6179 18.9142ZM42.4529 17.3087L46.3233 12.8825L49.1766 18.4188L42.4529 17.3087ZM42.2779 17.109L40.9263 9.87435L46.1375 12.6874L42.2779 17.109ZM35.6749 14.0436L29.9033 10.0895L40.3938 9.77062L35.6749 14.0436ZM26.3192 15.3441L23.8994 7.84158L29.3103 10.0354L26.3192 15.3441ZM20.0274 14.7589L17.2267 10.9596L23.3993 7.90196L20.0274 14.7589ZM19.8338 14.9385L11.2507 17.4403L17.0162 11.1191L19.8338 14.9385ZM14.9122 24.7524L8.79682 23.3033L10.8652 17.9946L14.9122 24.7524ZM10.5525 31.7193L6.682 30.024L8.60639 23.8823L10.5525 31.7193ZM8.39429 35.1052L5.06414 36.3236L6.54885 30.5179L8.39429 35.1052ZM14.3842 45.7536L7.0582 41.2128L8.60639 35.5247L14.3842 45.7536ZM21.8449 48.4784L14.9137 49.5776L14.8843 46.314L21.8449 48.4784ZM20.9625 43.1356L29.1121 48.4645L22.5184 48.3902L20.9625 43.1356ZM31.2781 41.5874L36.0078 45.7768L29.7438 48.3778L31.2781 41.5874ZM40.5486 42.1169L43.0489 49.0466L36.4908 45.7954L40.5486 42.1169ZM40.7715 41.9621L46.345 39.5965L43.2703 48.9088L40.7715 41.9621ZM46.9178 32.0784L53.5487 35.0293L46.7073 39.1258L46.9178 32.0784ZM51.3565 26.217L55.6914 29.3026L53.8336 34.5865L51.3565 26.217ZM51.3085 25.8594L53.9141 22.3481L55.631 28.9372L51.3085 25.8594ZM49.5683 18.5457L50.7666 14.7914L53.6478 21.6468L49.5683 18.5457ZM49.3872 18.2531L46.6221 12.9026L50.5917 14.4895L49.3872 18.2531ZM41.2174 9.73811L46.9906 9.36036L46.263 12.4567L41.2174 9.73811ZM29.7872 9.83875L33.8511 4.7963L40.3659 9.51672L29.7872 9.83875ZM29.5472 9.71799L27.454 4.23586L33.5694 4.72818L29.5472 9.71799ZM29.2747 9.74276L23.9288 7.5753L27.2063 4.3241L29.2747 9.74276ZM17.2639 10.6608L19.5629 4.0284L23.4659 7.58923L17.2639 10.6608ZM11.0974 17.236L12.7803 10.345L16.7762 11.0092L11.0974 17.236ZM8.59867 23.1191L6.44049 19.7301L10.6113 17.9497L8.59867 23.1191ZM8.4841 23.4287L6.63866 29.3118L6.39095 20.1373L8.4841 23.4287ZM6.35844 30.2408L4.8536 36.1239L2.49262 30.2408L6.35844 30.2408ZM2.43224 29.9838L2.55764 24.2106L6.28722 29.9791L2.43224 29.9838ZM8.38037 35.4024L6.87708 40.8784L5.05022 36.61L8.38037 35.4024ZM14.3811 46.0663L9.84031 46.7088L7.24555 41.6432L14.3811 46.0663ZM14.6289 46.2955L14.6583 49.5126L10.1685 46.9287L14.6289 46.2955ZM22.201 48.6982L19.8958 53.5007L15.1057 49.8129L22.201 48.6982ZM22.4704 48.7462L28.5362 54.3476L20.1435 53.5921L22.4704 48.7462ZM22.7677 48.6642L29.4249 48.74L28.818 54.2469L22.7677 48.6642ZM36.1363 46.0323L36.3902 52.2529L29.8661 48.6193L36.1363 46.0323ZM36.401 46.0555L42.9808 49.3222L36.6549 52.2792L36.401 46.0555ZM46.6067 39.6801L49.8733 44.7891L43.5258 49.0063L46.6067 39.6801ZM46.8343 39.5469L53.123 40.4758L50.0529 44.5785L46.8343 39.5469ZM46.9504 39.2992L53.6788 35.2739L53.2407 40.2281L46.9504 39.2992ZM55.837 29.7004L57.0244 33.8573L54.0442 34.8203L55.837 29.7004ZM54.2485 22.6097L57.6545 26.9013L55.9051 28.9666L54.2485 22.6097ZM51.0592 14.7929L55.4855 18.0348L53.9636 21.6994L51.0592 14.7929ZM46.4983 12.5651L47.212 9.52291L50.3982 14.1241L46.4983 12.5651ZM40.8582 9.49039L40.0842 4.84583L46.7413 9.10954L40.8582 9.49039ZM40.5656 9.33558L34.2181 4.73901L39.7915 4.7034L40.5656 9.33558ZM27.6615 3.98195L31.8029 1.43982L33.5818 4.45879L27.6615 3.98195ZM23.6842 7.4375L19.8493 3.93859L26.9416 4.20488L23.6842 7.4375ZM16.9388 10.7646L12.9568 10.1019L19.1976 4.24978L16.9388 10.7646ZM10.7615 17.4636L6.68665 14.1551L12.4691 10.4735L10.7615 17.4636ZM10.5881 17.6617L6.37857 19.4576L6.58292 14.409L10.5881 17.6617ZM6.37702 29.6323L2.5948 23.7817L6.11537 19.9856L6.37702 29.6323ZM4.73749 36.5434L4.02068 40.1228L2.60408 31.2347L4.73749 36.5434ZM4.92017 36.9707L6.69285 41.109L4.16621 40.756L4.92017 36.9707ZM9.51829 46.6608L6.84612 46.1422L7.01642 41.7732L9.51829 46.6608ZM14.5669 49.7572L12.6688 51.5825L10.119 47.1996L14.5669 49.7572ZM14.793 49.9027L19.3524 53.4187L12.898 51.7311L14.793 49.9027ZM29.668 48.8097L36.1703 52.4201L29.0487 54.3321L29.668 48.8097ZM43.1263 49.5203L42.7703 54.0612L36.9011 52.4309L43.1263 49.5203ZM49.6566 45.2241L46.0431 51.5608L43.4902 49.3222L49.6566 45.2241ZM53.2174 40.7498L53.236 44.063L50.3455 44.6157L53.2174 40.7498ZM53.942 35.1067L56.8835 34.1561L53.5332 39.7946L53.942 35.1067ZM55.9809 29.2793L57.6499 27.3116L57.1142 33.2148L55.9809 29.2793ZM54.1092 22.0245L55.6078 18.4157L57.5492 26.3563L54.1092 22.0245ZM50.9215 14.3765L51.9742 12.5388L55.1465 17.4713L50.9215 14.3765ZM50.7388 14.1675L47.6238 9.67772L51.7915 12.3344L50.7388 14.1675ZM40.2901 4.66314L43.4422 4.32719L46.6314 8.72559L40.2901 4.66314ZM33.8883 4.47736L32.1528 1.52806L39.2497 4.44485L33.8883 4.47736ZM27.2899 3.89833L25.8966 1.4491L31.374 1.39337L27.2899 3.89833ZM27.0113 3.94014L20.1125 3.68159L25.6101 1.48471L27.0113 3.94014ZM13.0776 9.63128L15.5547 4.28229L19.1372 3.95562L13.0776 9.63128ZM12.6332 9.96568L10.376 7.79822L15.1413 4.53773L12.6332 9.96568ZM12.4645 10.1669L6.84921 13.7417L10.2041 7.99019L12.4645 10.1669ZM6.11692 19.4452L3.29922 17.9296L6.31818 14.5065L6.11692 19.4452ZM6.02867 19.6945L2.60408 23.3838L3.19859 18.1742L6.02867 19.6945ZM2.15356 30.041L0.706005 31.2238L2.26503 24.9459L2.15356 30.041ZM2.18917 30.3507L3.66614 39.6181L0.639435 31.6202L2.18917 30.3507ZM6.76251 41.3877L6.59376 45.7427L4.23433 41.0332L6.76251 41.3877ZM9.66846 46.9612L12.0774 51.0964L7.13253 46.4766L9.66846 46.9612ZM19.8029 53.8042L19.6992 56.1961L13.3949 52.129L19.8029 53.8042ZM20.0614 53.9063L23.3343 55.4359L19.9593 56.2611L20.0614 53.9063ZM28.7762 54.668L28.8784 58.023L24.1239 55.535L28.7762 54.668ZM36.2926 52.6554L34.3636 57.1962L29.2639 54.5442L36.2926 52.6554ZM36.6023 52.6152L42.4684 54.2439L34.6779 57.1498L36.6023 52.6152ZM43.3895 49.573L45.8744 51.7404L43.0427 53.945L43.3895 49.573ZM50.1334 44.9207L52.9976 44.3726L46.7181 50.8997L50.1334 44.9207ZM53.5069 43.6542L53.4868 40.4232L56.1296 38.8084L53.5069 43.6542ZM53.7392 39.9618L56.9439 34.5772L56.354 38.3687L53.7392 39.9618ZM57.8295 28.3194L58.2041 32.2828L57.3557 33.4548L57.8295 28.3194ZM55.8757 18.394L56.6079 19.0814L57.3418 24.3917L55.8757 18.394ZM52.16 12.3375L52.8489 11.9907L54.843 16.5099L52.16 12.3375ZM47.3343 9.17301L48.545 7.44059L51.5082 11.8359L47.3343 9.17301ZM47.1454 8.98413L43.9902 4.63063L48.3592 7.24861L47.1454 8.98413ZM40.0377 4.42627L40.0176 2.53438L43.0582 4.10424L40.0377 4.42627ZM39.7745 4.37518L32.8247 1.52032L39.7544 2.4322L39.7745 4.37518ZM26.0282 1.18436L27.1351 0.235321L30.8028 1.13791L26.0282 1.18436ZM19.9902 3.4509L22.1407 1.12862L25.1163 1.39646L19.9902 3.4509ZM19.4344 3.66456L16.1832 3.96026L21.5322 1.41195L19.4344 3.66456ZM10.4766 7.40807L10.8358 6.60147L13.8253 5.11676L10.4766 7.40807ZM6.55195 13.7278L6.33366 11.6176L9.58485 8.52122L6.55195 13.7278ZM6.32592 14.0993L3.62897 17.157L6.11382 12.048L6.32592 14.0993ZM2.30837 23.6547L0.586788 23.9752L2.86108 18.812L2.30837 23.6547ZM2.25109 23.9334L0.605366 30.5674L0.500088 24.2585L2.25109 23.9334ZM3.70174 40.4526L1.74483 38.8425L0.806629 32.8045L3.70174 40.4526ZM6.44513 46.0261L5.19574 45.6158L4.35972 41.8707L6.44513 46.0261ZM11.7879 51.1784L7.64188 48.9305L6.97461 46.6887L11.7879 51.1784ZM12.5465 51.8906L14.344 54.1819L8.84792 49.8764L12.5465 51.8906ZM13.2184 52.3225L18.9359 56.0119L15.1939 54.8414L13.2184 52.3225ZM23.7074 55.6078L28.1507 57.9301L20.4268 56.4082L23.7074 55.6078ZM29.0409 54.7238L34.0137 57.3108L29.1416 58.0849L29.0409 54.7238ZM42.2439 54.603L40.2312 56.3463L35.6873 57.0507L42.2439 54.603ZM45.975 51.9928L46.1438 53.0765L43.5335 53.8831L45.975 51.9928ZM52.7483 45.0012L50.0699 49.7789L46.6531 51.3503L52.7483 45.0012ZM53.4976 44.2054L55.2951 40.8845L53.3738 45.4408L53.4976 44.2054ZM57.2969 33.9719L57.975 33.0337L56.8913 36.6224L57.2969 33.9719ZM57.9502 26.8936L57.9409 26.8239L58.0091 25.9352L58.0772 28.2374L57.9502 26.8936ZM57.7691 25.5853L57.091 20.6652L57.9316 23.4519L57.7691 25.5853ZM55.7564 17.9125L54.5179 15.1026L56.2519 18.377L55.7564 17.9125ZM52.0191 12.1099L49.542 8.43916L52.7003 11.7678L52.0191 12.1099ZM43.7487 4.18784L43.9144 4.06863L45.8124 5.42639L43.7487 4.18784ZM43.4979 4.04386L42.2113 3.37968L43.6419 3.94168L43.4979 4.04386ZM32.6358 1.2308L35.0479 0.735382L38.6768 2.02657L32.6358 1.2308ZM31.8493 1.12553L28.5656 0.317371L34.071 0.667263L31.8493 1.12553ZM25.6287 1.18591L23.068 0.955223L26.6521 0.308083L25.6287 1.18591ZM16.5919 3.47412L18.0565 2.37646L20.4191 1.64882L16.5919 3.47412ZM15.389 4.04696L14.118 4.67862L16.0718 3.53605L15.389 4.04696ZM10.0571 7.70377L8.54911 9.14359L10.2722 7.22074L10.0571 7.70377ZM2.99422 17.8645L2.32386 18.1122L4.92945 13.881L2.99422 17.8645ZM2.12104 18.4668L2.84405 18.1989L1.01564 22.3527L2.12104 18.4668ZM0.320503 29.2468L0.357658 31.5583L0.224514 31.9794L0.320503 29.2468ZM0.445904 32.1497L1.10543 36.3994L0.196648 32.9315L0.445904 32.1497ZM3.88752 40.9403L4.73438 44.7333L2.0297 39.4122L3.88752 40.9403ZM6.60459 46.3589L7.1929 48.3375L5.4419 45.9765L6.60459 46.3589ZM19.7394 56.5414L19.984 56.933L17.414 55.8152L19.7394 56.5414ZM20.3989 57.0987L20.0893 56.6188L25.6798 57.7195L20.3989 57.0987ZM34.0942 57.5632L33.5059 58.2289L30.4374 58.1437L34.0942 57.5632ZM34.5014 57.4997L38.1597 56.9315L33.958 58.1143L34.5014 57.4997ZM42.9545 54.3398L45.1003 53.6772L41.3227 55.7626L42.9545 54.3398ZM46.3915 52.917L46.2227 51.8333L49.3578 50.392L46.3915 52.917ZM53.1818 44.7767L53.0347 46.2397L50.9725 48.6998L53.1818 44.7767ZM56.577 38.5375L57.1065 38.282L54.6805 43.0473L56.577 38.5375ZM57.2814 37.9058L56.6869 38.1938L57.8821 34.2614L57.2814 37.9058Z" fill="url(#gradient_3)" transform="translate(35.044 33.284)" />
    <path d="M115.646 15.1862C113.036 8.91291 107.751 2.1396 103.595 0C106.551 5.71778 108.601 11.8598 109.672 18.2067C109.672 18.1928 109.672 18.2191 109.681 18.264C109.681 18.264 109.692 18.3275 109.692 18.3275C114.325 31.5622 113.655 46.0766 107.822 58.828C100.939 73.5854 84.274 88.7081 58.1871 87.9649C30.0101 87.1676 5.17714 66.2748 0.548061 38.9184C-0.295701 34.6035 0.548061 32.416 0.972265 28.9093C0.39103 31.6324 0.0655313 34.4038 0 37.1875C0 37.1875 0 37.4971 0 37.4971C0.103102 68.6286 23.9696 94.526 54.9904 97.1657C86.0112 99.8054 113.91 78.3129 119.272 47.6452C119.373 46.8711 119.455 46.1047 119.545 45.3306C120.783 35.1151 119.443 24.7522 115.648 15.1874C115.648 15.1874 115.646 15.1862 115.646 15.1862Z" fill="url(#gradient_4)" transform="translate(4.019 26.352)" />
    <path d="M115.646 15.1862C113.036 8.91291 107.751 2.1396 103.595 0C106.551 5.71778 108.601 11.8598 109.672 18.2067C109.672 18.1928 109.672 18.2191 109.681 18.264C109.681 18.264 109.692 18.3275 109.692 18.3275C114.325 31.5622 113.655 46.0766 107.822 58.828C100.939 73.5854 84.274 88.7081 58.1871 87.9649C30.0101 87.1676 5.17714 66.2748 0.548061 38.9184C-0.295701 34.6035 0.548061 32.416 0.972265 28.9093C0.39103 31.6324 0.0655313 34.4038 0 37.1875C0 37.1875 0 37.4971 0 37.4971C0.103102 68.6286 23.9696 94.526 54.9904 97.1657C86.0112 99.8054 113.91 78.3129 119.272 47.6452C119.373 46.8711 119.455 46.1047 119.545 45.3306C120.783 35.1151 119.443 24.7522 115.648 15.1874C115.648 15.1874 115.646 15.1862 115.646 15.1862Z" fill="url(#gradient_5)" transform="translate(4.019 26.352)" />
    <path d="M0.278375 45.2627C4.91365 72.6192 29.7404 93.5197 57.9329 94.3093C84.0198 95.0462 100.694 79.922 107.568 65.1724C113.401 52.4209 114.071 37.9066 109.438 24.6718C109.438 24.6718 109.438 24.6145 109.438 24.6145C109.438 24.5696 109.429 24.5433 109.429 24.5573C109.429 24.5573 109.441 24.6579 109.441 24.6579C111.571 38.556 104.495 52.0144 93.4328 61.1332C93.4328 61.1332 93.3988 61.2106 93.3988 61.2106C71.8325 78.7361 51.1952 71.7832 47.0151 68.9376C46.7217 68.7958 46.4302 68.6503 46.1405 68.5011C33.5723 62.5019 28.3828 51.0685 29.4975 41.253C23.4039 41.345 17.8274 37.8408 15.2666 32.3107C21.9788 28.2034 30.3403 27.8689 37.3592 31.4267C44.4747 34.6535 52.5697 34.9713 59.9163 32.3122C59.8946 31.8245 49.4397 27.6676 45.3633 23.6578C43.185 21.5136 42.1508 20.481 41.2359 19.7053C40.741 19.2869 40.2243 18.8951 39.6877 18.5318C39.33 18.2887 38.9291 18.0255 38.4491 17.7097C34.0678 14.8642 25.3546 15.0221 25.0666 15.0283C25.0666 15.0283 25.0387 15.0283 25.0387 15.0283C22.6561 12.0139 22.8248 2.07457 22.9611 0C22.2545 0.281921 21.5799 0.63793 20.9484 1.06206C18.8473 2.56039 16.8827 4.24156 15.0777 6.08592C13.0222 8.16875 11.1439 10.4194 9.46241 12.8144C9.46241 12.8144 9.46241 12.8236 9.46241 12.8236C9.46241 12.8236 9.46241 12.8144 9.46241 12.8144C5.59988 18.2803 2.85987 24.4581 1.40099 30.9901C1.37312 31.1201 -0.760278 40.4402 0.290941 45.2737C0.290941 45.2737 0.278375 45.2627 0.278375 45.2627Z" fill="url(#gradient_6)" transform="translate(4.276 20.009)" />
    <path d="M9.64671 41.6047C11.8379 43.7556 13.7142 46.2053 15.2202 48.8811C15.5326 49.1123 15.8338 49.3582 16.1228 49.6181C29.7468 62.1584 22.605 79.8851 22.074 81.1392C33.1373 72.0343 40.2188 58.5666 38.0823 44.6639C31.2888 27.7577 19.7672 20.9302 10.3697 6.08306C9.88415 5.32541 9.41242 4.55898 8.95476 3.78416C8.71855 3.37998 8.49803 2.96683 8.29369 2.54563C7.90221 1.78927 7.60083 0.989587 7.39574 0.162981C7.39632 0.0842333 7.33768 0.0176074 7.2595 0.00816164C7.22261 -0.00272055 7.18336 -0.00272055 7.14648 0.00816164C7.14648 0.00816164 7.11707 0.0236435 7.11707 0.0236435C7.11707 0.0236435 7.07217 0.0422218 7.07217 0.0422218C4.74989 1.14918 -9.02898 22.9399 9.64526 41.5956C9.64526 41.5956 9.64671 41.6047 9.64671 41.6047Z" fill="url(#gradient_7)" transform="translate(75.618 -0.005)" />
    <path d="M0.117786 33.3604L8.07082 33.8667L12.9012 35.5852L16.9265 37.1643L21.5633 40.4759L25.9307 45.0802C25.9307 45.0802 27.4479 47.9428 27.4479 47.9428C27.7785 48.1506 28.1057 48.3637 28.4294 48.5821C28.5609 48.6735 28.6802 48.7648 28.8025 48.8561C27.2959 46.183 25.4196 43.736 23.229 41.5874C4.55786 22.9318 18.3305 1.14875 20.6528 0.0340601C20.6528 0.0340601 20.6838 0 20.6838 0C5.59361 8.82467 0.479939 25.158 0 33.3325C0 33.3325 0 33.3789 0 33.3789L0.117786 33.3604Z" fill="url(#gradient_8)" transform="translate(62.032 0.003)" />
    <path d="M13.3903 13.8423C13.8088 14.1076 14.2218 14.3817 14.6288 14.6644C13.259 9.8798 13.2007 4.81489 14.4601 0C8.92006 2.68024 3.99629 6.4806 0 11.1609C0.295704 11.1547 9.0089 10.9968 13.3903 13.8423C13.3903 13.8423 13.3903 13.8423 13.3903 13.8423Z" fill="url(#gradient_9)" transform="translate(29.314 23.872)" />
    <path d="M17.5781 20.298C17.5781 20.298 20.3509 9.97627 37.4259 9.97627C39.2729 9.97627 44.5475 4.82854 44.6497 3.33609C37.3031 5.99522 29.2081 5.67743 22.0926 2.45053C15.0737 -1.10726 6.71222 -0.772686 0 3.33455C2.56081 8.86469 8.13736 12.3688 14.2309 12.2769C13.1178 22.0862 18.3104 33.518 30.874 39.525C31.1557 39.6597 31.4189 39.8067 31.7069 39.9352C24.3716 36.1468 18.3135 28.9896 17.5564 20.3042C17.5564 20.3042 17.5781 20.298 17.5781 20.298Z" fill="url(#gradient_10)" transform="translate(19.522 48.983)" />
    <path d="M40.488 4.69696C40.1991 4.43707 39.8978 4.19115 39.5854 3.96003C39.4631 3.86868 39.3439 3.77734 39.2123 3.686C34.9853 0.762531 29.8241 -0.489143 24.7275 0.173161C46.3401 10.964 40.5345 48.1205 10.5941 46.7117C7.92781 46.6031 5.29292 46.0953 2.77727 45.2053C2.18263 44.9813 1.59416 44.7413 1.01251 44.4855C0.675007 44.3306 0.335957 44.1758 0 44.0024C0 44.0024 0.0418015 44.0287 0.0418015 44.0287C4.2219 46.8743 24.8438 53.8303 46.41 36.2955C46.41 36.2955 46.4441 36.2181 46.4441 36.2181C46.9751 34.9548 54.1107 17.2219 40.4928 4.69704C40.4928 4.69704 40.488 4.69696 40.488 4.69696Z" fill="url(#gradient_11)" transform="translate(51.248 44.907)" />
    <path d="M115.665 41.5381C113.055 35.2633 107.769 28.4915 103.614 26.3504C106.571 32.0682 108.622 38.2102 109.695 44.5571C109.695 44.5571 109.708 44.6562 109.708 44.6562C102.916 27.75 91.3927 20.9225 81.9952 6.07534C81.5088 5.31854 81.0369 4.55243 80.58 3.77746C80.3445 3.37256 80.1235 2.95945 79.9173 2.53889C79.5276 1.78424 79.2273 0.986689 79.0225 0.162428C79.023 0.0836806 78.9644 0.0170547 78.8862 0.00760895C78.8492 -0.00253632 78.8102 -0.00253632 78.7732 0.00760897C78.7639 0.00760897 78.7515 0.0215427 78.7422 0.024639C78.7329 0.0277354 78.7128 0.0416691 78.6989 0.0478618C78.6989 0.0478618 78.7236 0.0138017 78.7236 0.0138017C63.6335 8.83847 58.5198 25.2183 58.0399 33.3927C58.0399 33.3927 58.1622 33.371 58.1622 33.371L66.1152 33.8773L70.591 35.4688L74.9708 37.1718L79.6077 40.4834C79.6077 40.4834 83.9705 45.0846 83.9705 45.0846C83.9705 45.0846 85.4722 47.9023 85.4923 47.9503C81.456 45.4626 76.684 44.4464 71.9844 45.0738C93.5971 55.8647 87.7914 93.0212 57.851 91.6123C55.1849 91.5035 52.5501 90.9963 50.0342 90.1075C49.45 89.8887 48.8617 89.6471 48.2693 89.3829C47.9278 89.2304 47.5902 89.0693 47.2568 88.8999C47.2568 88.8999 47.2986 88.9262 47.2986 88.9262C47.005 88.7852 46.7135 88.6402 46.4239 88.4912C46.7042 88.6244 46.9689 88.7714 47.2569 88.8999C39.9216 85.1131 33.8635 77.9543 33.1064 69.2689C33.1064 69.2689 35.8792 58.9472 52.9542 58.9472C54.8012 58.9472 60.0759 53.7994 60.178 52.307C60.1564 51.8193 49.6999 47.6624 45.6251 43.6526C43.4468 41.5099 42.4126 40.4757 41.4961 39.7001C40.9994 39.2811 40.4799 38.8898 39.9401 38.5281C38.5708 33.7429 38.5125 28.6776 39.7714 23.8621C34.2312 26.5428 29.3074 30.3437 25.3113 35.0245C25.3113 35.0245 25.2834 35.0245 25.2834 35.0245C22.9023 32.0118 23.0711 22.0724 23.2058 19.9963C22.4997 20.2791 21.8251 20.6351 21.1931 21.0583C19.0916 22.5568 17.127 24.2385 15.3224 26.0837C13.2684 28.1633 11.3917 30.4109 9.71178 32.8029C5.85326 38.2699 3.11649 44.4475 1.65965 50.9786C1.63023 51.1087 1.60701 51.2433 1.57914 51.3734C1.46613 51.9029 0.959868 54.5828 0.885555 55.1587C0.885555 55.1587 0.885555 55.1587 0.885555 55.1587C0.422193 57.9292 0.126468 60.7251 0 63.5312C0 63.5312 0 63.8409 0 63.8409C0.0569444 95.0066 23.9356 120.956 54.9905 123.599C86.0453 126.241 113.965 104.7 119.288 73.9905C119.39 73.2164 119.472 72.4423 119.562 71.6682C120.797 61.4522 119.456 51.0894 115.659 41.525C115.659 41.525 115.665 41.5381 115.665 41.5381Z" fill="url(#gradient_12)" transform="translate(3.984 -0)" />
    <path d="M27.5593 2.28882e-05C27.5593 2.28882e-05 27.3054 0.105301 26.8347 0.266312C25.6612 2.24954 21.4888 6.03641 19.8942 6.02867C2.8177 5.95435 0 16.1631 0 16.1631C0.312176 19.6527 1.46027 23.0157 3.34717 25.9678C1.75153 23.2089 0.775265 20.1359 0.486122 16.9619C0.486122 16.9619 3.25893 6.64018 20.3339 6.64018C22.1809 6.64018 27.4555 1.49245 27.5577 0C27.5577 0 27.5593 2.28882e-05 27.5593 2.28882e-05Z" fill="url(#gradient_13)" transform="translate(36.619 52.313)" />
    <path d="M38.0903 44.6878C38.0903 44.6878 38.0903 44.6305 38.0903 44.6305C38.0903 44.5856 38.081 44.5593 38.0903 44.5732C38.0995 44.5871 38.0903 44.6073 38.1011 44.6738C37.6975 43.6715 37.267 42.6803 36.8098 41.7012C36.655 41.373 36.5002 41.0664 36.3376 40.746C36.0358 40.1267 35.737 39.5074 35.4242 38.9253C35.2307 38.5615 35.0279 38.2162 34.8297 37.8632C34.5387 37.3446 34.2507 36.8228 33.9519 36.315C33.7321 35.9497 33.506 35.5998 33.2831 35.2437C32.9905 34.7792 32.6994 34.3148 32.4006 33.8627C32.1637 33.5051 31.9207 33.1598 31.6807 32.8115C31.3819 32.3811 31.0847 31.9507 30.7797 31.5311C30.5289 31.1843 30.2734 30.8453 30.018 30.5062C29.7083 30.1022 29.4095 29.6981 29.1014 29.3017C28.8372 28.9642 28.5709 28.6282 28.3026 28.2939C27.9929 27.9084 27.6833 27.5198 27.3659 27.1405C27.0924 26.8092 26.8173 26.4794 26.5407 26.1512C26.3859 25.9731 26.2419 25.7905 26.0902 25.6124C26.0902 25.6124 26.2822 25.8477 26.2822 25.8477C21.0586 19.7076 15.4093 14.049 10.3668 6.07738C9.88093 5.31971 9.4091 4.55311 8.95156 3.77798C8.71535 3.3738 8.49483 2.96064 8.2905 2.53945C7.95069 1.86348 7.67394 1.15762 7.46376 0.430825C7.45293 0.39212 7.43434 0.333289 7.42815 0.302326C7.41632 0.255996 7.40497 0.209544 7.39409 0.162981C7.39466 0.0842333 7.33603 0.0176074 7.25785 0.00816164C7.22096 -0.00272055 7.18171 -0.00272055 7.14483 0.00816164C7.14483 0.00816164 7.11541 0.0251917 7.11541 0.0251917C7.09999 0.0320199 7.085 0.039775 7.07051 0.0484144C6.93825 0.12171 6.81596 0.211728 6.70669 0.31625C6.67703 0.341187 6.64812 0.367002 6.62 0.393661C6.45162 0.551707 6.29291 0.719732 6.1447 0.896826C6.1447 0.896826 6.12766 0.913856 6.12766 0.913856C2.53432 5.13731 -6.65726 23.5329 8.15424 40.0211C-5.71287 23.7032 3.02665 6.06932 6.82435 1.45572C7.02669 2.07793 7.27455 2.68439 7.56594 3.2702C7.76991 3.69158 7.99044 4.10475 8.22701 4.50874C8.69146 5.30296 9.16676 6.05692 9.64205 6.80625C19.0488 21.6565 30.5735 28.4809 37.3546 45.3871C37.3546 45.3221 37.3438 45.2973 37.3438 45.288C37.3438 45.2787 37.3438 45.3004 37.3515 45.3453C37.3515 45.3453 37.3608 45.4026 37.3608 45.4026C41.9956 58.6365 41.3275 73.1508 35.4968 85.9031C33.1082 90.9685 29.8818 95.5944 25.9537 99.5861C30.2077 95.4335 33.685 90.5537 36.2213 85.1771C42.0525 72.4252 42.7227 57.9115 38.0915 44.6765C38.0915 44.6765 38.0903 44.6878 38.0903 44.6878Z" fill="url(#gradient_14)" transform="translate(75.614 -0.007)" />
    <path d="M20.3587 0.0340601C20.3587 0.0340601 20.3896 0 20.3896 0C6.79655 7.95304 1.30048 21.9997 0 30.6696C2.17507 19.3293 8.68381 9.28292 18.1447 2.66289C18.6947 1.64099 19.45 0.74386 20.3633 0.0278747C20.3633 0.0278747 20.3587 0.0340601 20.3587 0.0340601Z" fill="url(#gradient_15)" transform="translate(62.336 0.011)" />
    <path d="M34.8079 36.3088C34.8079 36.3088 34.8419 36.2314 34.8419 36.2314C35.373 34.968 42.5086 17.2351 28.8907 4.71026C28.6018 4.45037 28.3005 4.20444 27.9881 3.97332C27.8658 3.88198 27.7466 3.79063 27.615 3.69929C23.5407 0.892799 18.6051 -0.382233 13.6813 0.0997543C13.6813 0.0997543 13.6767 0.0997543 13.6767 0.0997543C13.4939 0.124359 13.3117 0.152748 13.1302 0.184906C34.4952 10.855 29.061 47.2962 0 46.7544C0 46.7544 0.236874 46.7683 0.236874 46.7683C29.6989 47.9264 35.5046 11.7948 15.0344 0.462029C19.0578 0.483788 22.9964 1.62102 26.4121 3.74728C26.5411 3.83215 26.6686 3.91936 26.7944 4.00889C27.1157 4.22628 27.4258 4.45984 27.7234 4.70868C41.8227 16.7025 35.3869 34.6971 34.9038 35.9821C34.9038 35.9821 34.8729 36.0626 34.8729 36.0626L34.8079 36.3088Z" fill="url(#gradient_16)" transform="translate(62.857 44.894)" />
    <path d="M22.2242 3.03667C29.1436 5.92212 36.8925 6.11266 43.9453 3.5708C36.7707 5.96149 28.9581 5.55621 22.0694 2.43597C15.1553 -1.0437 6.94871 -0.781418 0.270931 3.13266C0.270931 3.13266 0.191975 3.18375 0.191975 3.18375L0.184233 3.18375L0.119209 3.2271L0.0696678 3.26116L0.0387039 3.28283L0.0294151 3.28283L0.00774193 3.29831L0 3.29831L0.0278664 3.36488L0.0278664 3.37417L0.0619278 3.45158L0.0619278 3.46706L0.113018 3.57853C0.113018 3.57853 0.113018 3.58782 0.113018 3.58782C0.235939 3.84359 0.367613 4.09506 0.507807 4.34178C3.2667 9.30322 8.53637 12.3393 14.2124 12.2375C13.1286 21.7527 17.9868 32.7975 29.7562 38.9283C18.5132 32.4491 13.7943 20.6906 15.1026 11.3396C6.42188 11.1105 2.54058 5.907 1.43053 3.70083C7.89382 0.286514 15.5698 0.0409279 22.2382 3.03511C22.2382 3.03511 22.2242 3.03667 22.2242 3.03667Z" fill="url(#gradient_17)" transform="translate(19.567 48.998)" />
    <path d="M14.0003 14.4121C12.7016 9.70012 12.668 4.7291 13.9027 0C8.60791 2.54648 3.87978 6.13258 0 10.5447C3.67997 6.85336 7.96881 3.82408 12.6781 1.59C12.121 5.90876 12.5736 10.2979 14.0002 14.4121C14.0002 14.4121 14.0003 14.4121 14.0003 14.4121Z" fill="url(#gradient_18)" transform="translate(29.881 23.871)" />
    <path d="M1.99096 14.0296C1.99096 14.0296 1.94296 13.8578 1.94296 13.8578C1.36369 11.8467 0.898489 9.8045 0.549606 7.74094C0.16255 5.17513 0.16255 2.56579 0.549606 0C0.248218 1.98973 0.0646987 3.99555 0 6.00695C0 6.00695 0 6.31659 0 6.31659C0.0124793 31.877 16.1944 54.6169 40.3271 63C19.5319 54.9511 4.82147 36.1515 2.00951 14.0309C2.00951 14.0309 1.99096 14.0296 1.99096 14.0296Z" fill="url(#gradient_19)" transform="translate(4.012 57.528)" />
    <path d="M1.26089 45.5213C0.209672 40.6879 2.34462 31.3694 2.37094 31.2378C3.82982 24.7058 6.56982 18.528 10.4324 13.0621C10.4324 13.0621 10.4324 13.0714 10.4324 13.0714C10.4324 13.0714 10.4324 13.0621 10.4324 13.0621C12.1122 10.67 13.9884 8.42198 16.0414 6.34137C17.8465 4.497 19.811 2.81584 21.9122 1.3175C21.9953 1.26347 22.08 1.21185 22.1661 1.16269C22.1444 5.72674 22.4045 13.429 24.5178 15.9541C24.5178 15.9541 24.5456 15.9541 24.5456 15.9541C24.8351 15.9386 33.5793 15.5531 38.052 18.2764C38.549 18.586 38.9577 18.8321 39.3231 19.0659C39.8737 19.4148 40.4055 19.7926 40.9162 20.1976C41.8544 20.9501 42.9195 21.9548 45.1628 24.0403C48.414 27.0608 55.4877 30.0642 58.5454 31.4948C55.5667 29.9946 48.5379 26.7883 45.3687 23.6687C43.1904 21.5244 42.1563 20.4918 41.2413 19.7162C40.7465 19.2977 40.2297 18.906 39.6931 18.5426C39.3355 18.2996 38.9345 18.0364 38.4545 17.7206C34.0732 14.875 25.36 15.0329 25.072 15.0391C25.072 15.0391 25.0441 15.0391 25.0441 15.0391C22.8674 12.2849 22.821 3.74816 22.9324 0.715263C22.9324 0.597599 22.9324 0.490774 22.9448 0.390142C22.9448 0.390142 22.9448 0.193523 22.9448 0.193523C22.9448 0.1285 22.9448 0.0650234 22.9556 0.0108376C22.9556 0.0108376 22.9448 0 22.9309 0C22.9309 0 22.8767 0 22.8767 0L22.8426 0.0123863L22.7931 0.0309639L22.7451 0.0510902L22.6878 0.0774097L22.6259 0.106825L22.564 0.137791L22.4881 0.174946L22.4277 0.207458L22.3379 0.253904C22.3379 0.253904 22.2868 0.281771 22.2868 0.281771C21.8344 0.528214 21.3884 0.78632 20.9492 1.05584C18.8481 2.55417 16.8835 4.23534 15.0785 6.0797C13.0227 8.16851 11.1449 10.4254 9.46476 12.8267C9.46476 12.8267 9.46476 12.836 9.46476 12.836C9.46476 12.836 9.46476 12.8267 9.46476 12.8267C5.60224 18.2927 2.86224 24.4704 1.40336 31.0025C1.37549 31.1325 -0.764107 40.4464 0.293305 45.286C4.23809 68.5708 22.8039 87.1645 45.6242 92.676C23.2529 86.875 5.15461 68.4779 1.25318 45.5183C1.25318 45.5183 1.26089 45.5213 1.26089 45.5213Z" fill="url(#gradient_20)" transform="translate(4.261 19.998)" />
    <path d="M65.154 15.1847C62.8528 9.64868 59.2334 4.75903 54.6109 0.941357C54.6109 0.941357 54.504 0.865496 54.504 0.865496C54.3862 0.782722 54.2674 0.701159 54.1479 0.620821C54.1035 0.589857 54.0586 0.560444 54.0132 0.532576C53.8997 0.460327 53.7882 0.390657 53.6788 0.32357C53.6788 0.32357 53.5487 0.246162 53.5487 0.246162C53.4018 0.161009 53.2532 0.0789375 53.1029 0C53.2639 0.315895 53.4219 0.633362 53.5767 0.952351C53.6739 1.14933 53.7699 1.34693 53.8646 1.54513C56.4203 6.81659 58.21 12.4261 59.1795 18.2036C59.1795 18.2036 59.1919 18.3042 59.1919 18.3042C61.3222 32.2023 54.2454 45.6607 43.1836 54.7795C43.1836 54.7795 43.1496 54.8569 43.1496 54.8569C29.397 66.0426 16.0253 67.2626 7.06133 65.9404C15.9959 67.6094 30.0829 66.9049 44.6049 55.1031C44.6049 55.1031 44.6374 55.0257 44.6374 55.0257C55.7007 45.9208 62.7821 32.4531 60.6456 18.5504C60.6456 18.5504 60.6332 18.4498 60.6332 18.4498C59.7988 13.4097 58.327 8.49608 56.2534 3.82713C58.8832 6.61459 61.0957 9.76789 62.8224 13.189C67.1373 22.3648 69.0477 32.4873 68.3742 42.6046C68.3277 43.3709 68.289 44.1357 68.2302 44.8959C64.6286 73.7043 40.8573 95.765 11.8607 97.2091C7.90078 97.4317 3.92867 97.2699 0 96.7261C32.5011 101.948 63.1599 80.0667 68.786 47.6331C68.8866 46.859 68.9686 46.0927 69.0584 45.3186C70.2969 35.1031 68.9572 24.7401 65.1616 15.1753C65.1616 15.1753 65.154 15.1847 65.154 15.1847Z" fill="url(#gradient_21)" transform="translate(54.511 26.353)" />
</svg>