<?xml version="1.0" encoding="utf-8"?>
<svg width="128" height="128" viewBox="0 0 128 128" xmlns="http://www.w3.org/2000/svg">
<defs>
<linearGradient id="blue" x1="0" y1="0" x2="0" y2="1">
<stop offset="0" stop-color="#1E9ED4"/>
<stop offset="1" stop-color="#1A74BA"/>
</linearGradient>
<linearGradient id="gray" x1="0" y1="0" x2="0" y2="1">
<stop offset="0" stop-color="#3F3F3F"/>
<stop offset="1" stop-color="#2A2A2A"/>
</linearGradient>
<clipPath id="rhombus">
<rect width="88" height="88" rx="8" x="20" y="20" transform="rotate(45 64 64)"/>
</clipPath>
</defs>
<g clip-path="url(#rhombus)">
<path d="M64 0L64 40L52 52L52 76L76 52L76 76L64 88L64 128L128 128L128 0Z" fill="url(#blue)"/>
<path d="M0 0L64 0L64 40L52 52L52 76L76 52L76 76L64 88L64 128L0 128Z" fill="url(#gray)"/>
<rect width="100" height="100" rx="12" transform="translate(14 5) rotate(45 50 50)" fill="none" stroke="#000000" stroke-width="8" opacity="20%"/>
</g></svg>
