<?xml version="1.0" encoding="utf-8"?>
<svg width="128" height="128" viewBox="0 0 128 128" xmlns="http://www.w3.org/2000/svg">
<defs>
<clipPath id="circle">
<circle r="60" cx="64" cy="64"/>
</clipPath>
<linearGradient id="purple" x1="0" y1="0" x2="0" y2="1">
<stop offset="0" stop-color="#A64DB4"/>
<stop offset="1" stop-color="#50287C"/>
</linearGradient>
<linearGradient id="white" x1="0" y1="0" x2="0" y2="1">
<stop offset="0" stop-color="#FBF9FC"/>
<stop offset="0.8" stop-color="#C7C8D6"/>
<stop offset="1" stop-color="#B5A6C9"/>
</linearGradient>
<filter id="shadow">
<feDropShadow dx="0" dy="8" flood-color="#000000" flood-opacity="0.32" stdDeviation="8"/>
</filter>
</defs>
<g clip-path="url(#circle)">
<rect width="128" height="128" fill="url(#purple)"/>
<path d="M29 99L29 78C14 81 10.2 74.4 9 71C8.3 69.3 5.3 63.8 2.75 62.35C0.65 61.25 0 60.5 0 59.5C0 59 1 58.5 3 58.5C7 58.5 10.8 62.7 11.9 64.5C17.3 73.55 26 71 29.5 69.5C30 65.5 31 63 33 61.5C20 60 6 55 6 32C6 25 8 20 12 16C11.5 14.5 10 8 13 0C13 0 23 0 29 6C34 4.5 39 4 44 4C49 4 54 4.5 59 6C65 0 75 0 75 0C78 8 76.6 14.5 76 16C80 20 82 25 82 32C82 55 68 60 55 61.5C57 63 59 67 59 72.5L59 99Z" fill="url(#white)" filter="url(#shadow)" transform="translate(20 29)"/>
</g></svg>
