<?xml version="1.0" encoding="utf-8"?>
<svg width="128" height="128" viewBox="0 0 128 128" xmlns="http://www.w3.org/2000/svg">
<defs>
<linearGradient id="blue" x1="0" y1="0" x2="0" y2="1">
<stop offset="0" stop-color="#5AAAE6"/>
<stop offset="1" stop-color="#4B91F5"/>
</linearGradient>
<linearGradient id="shadow" x1="0" y1="0" x2="1" y2="0.7">
<stop offset="20%" stop-color="#000000" stop-opacity="50%"/>
<stop offset="1" stop-color="#000000" stop-opacity="0"/>
</linearGradient>
<clipPath id="circle">
<circle r="60" cx="64" cy="64"/>
</clipPath>
</defs>
<circle r="60" cx="64" cy="64" fill="url(#blue)"/>
<path d="M56 107L70 50L101 30L128 57L128 128L77 128Z" clip-path="url(#circle)" fill="url(#shadow)"/>
<g transform="translate(28.5 31)">
<path d="M0 0C21.5 0 28.5 20.5 28.5 20.5C28.5 20.5 31.5 21.5 35.5 21.5C39.5 21.5 42.5 20.5 42.5 20.5C42.5 20.5 49.5 0 71 0C71 0 47.5 15 60.5 42C60.5 42 46.5 52 46.5 71C46.5 71 42 75.5 35.5 78C29 75.5 24.5 71 24.5 71C24.5 52 10.5 42 10.5 42C23.5 15 0 0 0 0Z" fill="#C4D9F5" stroke="#C4D9F5" stroke-width="4" stroke-linejoin="round"/>
<g fill="#EC1414">
<rect width="4" height="12" rx="2" x="41.5" y="32"/>
<rect width="4" height="12" rx="2" x="25.5" y="32"/>
</g><g fill="#3A70B4">
<circle r="2" cx="39.5" cy="65"/>
<circle r="2" cx="31.5" cy="65"/>
</g></g>
</svg>
