<?xml version="1.0" encoding="utf-8"?>
<svg width="128" height="128" viewBox="0 0 128 128" xmlns="http://www.w3.org/2000/svg">
<defs>
<clipPath id="graph">
<path d="M0 0L32 0L32 32L64 32L64 68L0 68Z"/>
</clipPath>
<linearGradient id="red">
<stop offset="0" stop-color="#A51D2D"/>
<stop offset="33%" stop-color="#F66151"/>
<stop offset="66%" stop-color="#E01B24"/>
<stop offset="1" stop-color="#A51D2D"/>
</linearGradient>
</defs>
<path d="M88 28L88 104C88 108.4 84.4 112 80 112L8 112C3.6 112 0 108.4 0 104L0 8C0 3.6 3.6 0 8 0L60 0Z" fill="#F6F5F4" transform="translate(20 8)"/>
<path d="M28 28L8 28C3.6 28 0 24.4 0 20L0 0Z" fill="#C0BFBC" transform="translate(80 8)"/>
<g transform="translate(37 49)">
<rect width="18" height="56" fill="#C0BFBC" opacity="75%"/>
<rect width="54" height="8" fill="#99C1F1"/>
<g fill="none" stroke="#888888" stroke-width="2">
<path d="M18 0L18 56M36 0L36 56M0 8L54 8M0 16L54 16M0 24L54 24M0 32L54 32M0 40L54 40M0 48L54 48"/>
<rect width="54" height="56"/>
</g></g><g clip-path="url(#graph)" transform="translate(60 60)">
<rect width="64" height="68" rx="32" fill="url(#red)"/>
<rect width="64" height="64" rx="32" fill="#ED333B"/>
</g>
<path d="M0 32L0 0C17.6 0 32 14.4 32 32Z" fill="#62A0EA" transform="translate(96 52)"/>
<rect width="32" height="5" fill="#1A5FB4" transform="translate(96 84)"/>
</svg>
