<?xml version="1.0" encoding="utf-8"?>
<svg width="128" height="128" viewBox="0 0 128 128" xmlns="http://www.w3.org/2000/svg">
<linearGradient id="wood">
<stop offset="0" stop-color="#FFFFFF"/>
<stop offset="1" stop-color="#D1BC8E"/>
</linearGradient>
<linearGradient id="eraser">
<stop offset="0" stop-color="#FC9B92"/>
<stop offset="1" stop-color="#CB2B31"/>
</linearGradient>
<linearGradient id="steel">
<stop offset="0" stop-color="#F5F4F2"/>
<stop offset="22%" stop-color="#D6D5D2"/>
<stop offset="74%" stop-color="#9A9996"/>
<stop offset="1" stop-color="#BFBEBB"/>
</linearGradient>
<path d="M88 28L88 104C88 108.4 84.4 112 80 112L8 112C3.6 112 0 108.4 0 104L0 8C0 3.6 3.6 0 8 0L60 0Z" fill="#F6F5F4" transform="translate(20 8)"/>
<path d="M28 28L8 28C3.6 28 0 24.4 0 20L0 0Z" fill="#C0BFBC" transform="translate(80 8)"/>
<g fill="#C0BFBC" transform="translate(32 36)"><g fill="#9A9996">
<rect width="38" height="6" rx="3"/>
<rect width="18" height="4" rx="2" y="12" opacity="80%"/></g>
<rect width="64" height="4" rx="2" y="30"/>
<rect width="48" height="4" rx="2" y="40"/>
<rect width="64" height="4" rx="2" y="50"/>
<rect width="56" height="4" rx="2" y="60"/>
<rect width="48" height="4" rx="2" y="70"/>
</g><g transform="translate(28 -15) rotate(45, 10, 111)">
<path d="M0 0L10 14L20 0Z" fill="url(#wood)" transform="translate(0 97)"/>
<path d="M0 0L5 7L10 0Z" fill="#3D3846" transform="translate(5 104)"/>
<rect width="20" height="32" rx="10" fill="url(#eraser)"/>
<rect width="6" height="75" x="14" y="22" fill="#C01C28"/>
<rect width="8" height="75" x="6" y="22" fill="#E01B24"/>
<rect width="6" height="75" y="22" fill="#ED333B"/>
<rect width="20" height="8" y="14" fill="url(#steel)"/>
</g></svg>
