<?xml version="1.0" encoding="utf-8"?>
<svg width="128" height="128" viewBox="0 0 128 128" xmlns="http://www.w3.org/2000/svg">
<path d="M7.0874 43.8141L7.01758 43.8141C4.52319 40.6297 2.21289 37.2741 0 33.6943C2.94141 28.6887 6.542 24.2155 10.3931 20.0711C13.9656 21.8688 17.4336 23.9053 20.71 26.0725C22.35 24.4429 24.2 23.1098 26.0112 21.7164C27.7937 20.2849 29.8 19.2354 31.7083 18.0127C31.1394 13.7892 30.86 9.63123 30.7466 5.29175C35.6611 2.81812 40.903 1.178 46.2019 0C48.3218 3.5575 50.2563 7.41 51.9412 11.1761C53.9407 10.842 55.9475 10.7182 57.9624 10.6912C57.9749 10.6912 57.988 10.6943 58 10.6943L58.0122 10.6936L58.013 10.6936C58.0214 10.6929 58 10.6922 58 10.6943C60.05 10.7182 62.0588 10.842 64.058 11.1761C65.7437 7.40997 67.6794 3.5575 69.7961 0C75.0977 1.178 80.34 2.81812 85.254 5.29175C85.1411 9.63123 84.8606 13.7892 84.2935 18.0127C86.1982 19.2354 88.2068 20.285 89.989 21.7164C91.8027 23.1098 93.6494 24.4429 95.2891 26.0725C98.5654 23.9053 102.034 21.8688 105.606 20.0711C109.457 24.2155 113.06 28.6887 116 33.6943C113.786 37.274 111.477 40.6297 108.982 43.8141L108.913 43.8141C108.913 43.8141 108.909 82.0143 108.909 82.4186C108.909 100.304 86.228 108.9 58.0386 109L57.9692 109C29.78 108.901 7.09131 100.304 7.09131 82.4186C7.09131 82.0226 7.0874 43.8141 7.0874 43.8141Z" fill="#478CBF" transform="translate(6 10)"/>
<path d="M0.0254936 0C0.0272999 0 0.0291 0 0.0308838 0C0.0852356 0 0.13957 0 0.19342 0L19.0272 1.82369C20.0137 1.91891 20.7869 2.71293 20.8556 3.70155L21.4363 12.0153L37.865 13.1876L39 5.51436C39.1435 4.51949 40 3.7822 41 3.7822L60.8734 3.78219C61.88 3.7822 62.7325 4.51949 62.8792 5.51436L64.0109 13.1876L80.4402 12.0153L81 3.70155C81.0896 2.71293 81.8623 1.91943 82.8488 1.82369L101.675 0C101.73 0 101.787 0 101.843 0L101.87 4.06377L85.9236 6.64771L85.4017 14.1269C85.2961 15.641 84.0738 16.8654 82.56 16.9741L62.4974 18.405C62.4251 18.4102 62.3512 18.4128 62.2773 18.4128C60.768 18.4128 59.4634 17.2858 59.2433 15.7919L58.224 8.87887L43.6523 8.87887L42.6329 15.7919C42.4123 17.2863 41.11 18.4133 39.6 18.4133C39.527 18.4133 39.4522 18.4102 39.3762 18.405L19.3171 16.9741C17.8019 16.8654 16.5802 15.641 16.4746 14.1269L15.9522 6.64771L0 4.07522L0.0254936 0L0.0254936 0Z" fill="#FFFFFF" transform="translate(13.06 84.14)"/>
<circle r="11.5" fill="#FFFFFF" cx="90.5" cy="65.5"/>
<circle r="11.5" fill="#FFFFFF" cx="37.5" cy="65.5"/>
<circle r="7.5" fill="#414042" cx="38.5" cy="66.5"/>
<circle r="7.5" fill="#414042" cx="89.5" cy="66.5"/>
<rect width="8" height="18" fill="#FFFFFF" rx="4" transform="translate(60 62)"/>
</svg>
