<?xml version="1.0" encoding="utf-8"?>
<svg width="128" height="128" viewBox="0 0 128 128" xmlns="http://www.w3.org/2000/svg">
<path id="paper" d="M88 28L88 104C88 108.4 84.4 112 80 112L8 112C3.6 112 0 108.4 0 104L0 8C0 3.6 3.6 0 8 0L60 0Z" fill="#FBBC04" transform="translate(20 8)"/>
<path id="corner" d="M0 0L28 28L0 28Z" fill="#F29900" transform="translate(80 8)"/>
<path id="bulb" d="M27.3333 45.6667L7.33334 45.6667L7.33334 38.6667L27.3333 38.6667L27.3333 45.6667ZM27.0755 31.6667L7.59114 31.6667C3 28.55 0 23.2953 0 17.3333C0 7.76 7.76 0 17.3333 0C26.9067 0 34.6667 7.76 34.6667 17.3333C34.6667 23.2953 31.6574 28.55 27.0755 31.6667L27.0755 31.6667Z" fill="#FFFFFF" transform="translate(46.667 45.333)"/>
</svg>
