<?xml version="1.0" encoding="utf-8"?>
<svg width="128" height="128" viewBox="0 0 128 128" xmlns="http://www.w3.org/2000/svg">
<path id="paper" d="M88 28L88 104C88 108.4 84.4 112 80 112L8 112C3.6 112 0 108.4 0 104L0 8C0 3.6 3.6 0 8 0L60 0Z" fill="#7248B9" transform="translate(20 8)"/>
<path id="corner" d="M0 0L28 28L0 28Z" fill="#56368A" transform="translate(80 8)"/>
<g id="form" fill="#FFFFFF" transform="translate(40 49)">
<circle r="4" transform="translate(4 4)"/>
<circle r="4" transform="translate(4 20)"/>
<circle r="4" transform="translate(4 36)"/>
<rect width="34" height="6" transform="translate(15 1)"/>
<rect width="34" height="6" transform="translate(15 17)"/>
<rect width="34" height="6" transform="translate(15 33)"/>
</g></svg>
