<?xml version="1.0" encoding="utf-8"?>
<svg width="128" height="128" viewBox="0 0 128 128" xmlns="http://www.w3.org/2000/svg">
<path id="paper" d="M88 28L88 104C88 108.4 84.4 112 80 112L8 112C3.6 112 0 108.4 0 104L0 8C0 3.6 3.6 0 8 0L60 0Z" fill="#DE5245" transform="translate(20 8)"/>
<path id="corner" d="M0 0L28 28L0 28Z" fill="#EEA6A0" transform="translate(80 8)"/>
<path id="pin" d="M19 0C8.68 0 0 8.4 0 19C0 31.92 14.56 36.68 17.64 56.56C17.92 57.96 17.92 58.8 19 58.8C20.16 58.8 20.16 57.96 20.44 56.56C23.52 36.4 38.1 31.92 38.1 19C38.1 8.4 29.4 0 19 0L19 0ZM19 14C15.96 14 13.44 16.52 13.44 19.6C13.44 22.68 15.96 25.2 19 25.2C22.12 25.2 24.64 22.68 24.64 19.6C24.64 16.52 22.12 14 19 14L19 14Z" fill="#FFFFFF" fill-rule="evenodd" transform="translate(45 47.2)"/>
</svg>
