<?xml version="1.0" encoding="utf-8"?>
<svg width="128" height="128" viewBox="0 0 128 128" xmlns="http://www.w3.org/2000/svg">
<path id="paper" d="M88 28L88 104C88 108.4 84.4 112 80 112L8 112C3.6 112 0 108.4 0 104L0 8C0 3.6 3.6 0 8 0L60 0Z" fill="#34A853" transform="translate(20 8)"/>
<path id="corner" d="M0 0L28 28L0 28Z" fill="#188038" transform="translate(80 8)"/>
<path id="cells" d="M0 0L0 38L54 38L54 0L0 0ZM24 32L6 32L6 22L24 22L24 32ZM24 16L6 16L6 6L24 6L24 16ZM48 32L30 32L30 22L48 22L48 32ZM48 16L30 16L30 6L48 6L48 16Z" fill="#FFFFFF" transform="translate(37 51)"/>
</svg>
