<?xml version="1.0" encoding="utf-8"?>
<svg width="128" height="128" viewBox="0 0 128 128" fill="none" xmlns="http://www.w3.org/2000/svg">
  <defs>
    <linearGradient id="gradient_2" gradientUnits="userSpaceOnUse" x1="-0" y1="60" x2="80.001" y2="60">
      <stop offset="0" stop-color="#3D3846" />
      <stop offset="0.045" stop-color="#5E5C64" />
      <stop offset="0.091" stop-color="#3D3846" />
      <stop offset="0.909" stop-color="#3D3846" />
      <stop offset="0.955" stop-color="#5E5C64" />
      <stop offset="1" stop-color="#3D3846" />
    </linearGradient>
    <linearGradient id="gradient_3" gradientUnits="userSpaceOnUse" x1="0.25" y1="26.25" x2="80" y2="26.25">
      <stop offset="0" stop-color="#424048" />
      <stop offset="0.047" stop-color="#F6F5F4" />
      <stop offset="0.097" stop-color="#949390" />
      <stop offset="0.9" stop-color="#D5D3CF" />
      <stop offset="0.95" stop-color="#F6F5F4" />
      <stop offset="1" stop-color="#424048" />
    </linearGradient>
    <linearGradient id="gradient_4" gradientUnits="userSpaceOnUse" x1="62.75" y1="99.25" x2="56.75" y2="2">
      <stop offset="0" stop-color="#F6F5F4" />
      <stop offset="1" stop-color="#FFFFFF" />
    </linearGradient>
    <radialGradient id="gradient_5" gradientUnits="userSpaceOnUse" cx="0" cy="0" r="1" gradientTransform="matrix(4 0 0 4 4 2.895)">
      <stop offset="0" stop-color="#000000" stop-opacity="0.251" />
      <stop offset="1" stop-color="#000000" stop-opacity="0.031" />
    </radialGradient>
    <radialGradient id="gradient_6" gradientUnits="userSpaceOnUse" cx="0" cy="0" r="1" gradientTransform="matrix(2.751 0 0 2.751 2 0.939)">
      <stop offset="0" stop-color="#949390" />
      <stop offset="1" stop-color="#424048" />
    </radialGradient>
    <linearGradient id="gradient_7" gradientUnits="userSpaceOnUse" x1="34.25" y1="74.25" x2="34.25" y2="14.961">
      <stop offset="0" stop-color="#C0BFBC" />
      <stop offset="1" stop-color="#F6F5F4" />
    </linearGradient>
    <linearGradient id="gradient_8" gradientUnits="userSpaceOnUse" x1="2.955" y1="12.311" x2="22.77" y2="15.811">
      <stop offset="0" stop-color="#F57900" />
      <stop offset="1" stop-color="#FCAF3E" />
    </linearGradient>
    <linearGradient id="gradient_9" gradientUnits="userSpaceOnUse" x1="19.197" y1="22.491" x2="6.688" y2="8.784">
      <stop offset="0" stop-color="#CC0000" />
      <stop offset="1" stop-color="#EF2929" />
    </linearGradient>
    <linearGradient id="gradient_10" gradientUnits="userSpaceOnUse" x1="47.784" y1="12.774" x2="34.94" y2="30.531">
      <stop offset="0" stop-color="#73D216" />
      <stop offset="1" stop-color="#8AE234" />
    </linearGradient>
    <linearGradient id="gradient_11" gradientUnits="userSpaceOnUse" x1="17.025" y1="27.301" x2="35.742" y2="-0.477">
      <stop offset="0" stop-color="#C0BFBC" />
      <stop offset="1" stop-color="#F6F5F4" />
    </linearGradient>
  </defs>
    <path id="rect1480-3-7-1-2" d="M0 16L0 8C0 5.79086 0.781048 3.90524 2.34315 2.34315C3.90524 0.781048 5.79086 0 8 0L72 0C74.2091 0 76.0948 0.781048 77.6569 2.34315C79.2189 3.90524 80 5.79086 80 8L80 62C80 64.2091 79.2189 66.0948 77.6569 67.6569C76.0948 69.2189 74.2091 70 72 70L8 70C5.79086 70 3.90524 69.2189 2.34315 67.6568C0.781048 66.0947 0 64.2091 0 62L0 16Z" fill="url(#gradient_2)" fill-rule="evenodd" transform="translate(24 50)" />
    <path id="rect1480-3-7-1" d="M0 16L0 8C0 5.79086 0.781048 3.90524 2.34315 2.34315C3.90524 0.781048 5.79086 0 8 0L72 0C74.2091 0 76.0948 0.781048 77.6569 2.34315C79.2189 3.90524 80 5.79086 80 8L80 62C80 64.2091 79.2189 66.0948 77.6569 67.6569C76.0948 69.2189 74.2091 70 72 70L8 70C5.79086 70 3.90524 69.2189 2.34315 67.6568C0.781048 66.0947 0 64.2091 0 62L0 16Z" fill="url(#gradient_3)" fill-rule="evenodd" transform="translate(24 44)" />
    <path id="rect1480-6-7" d="M0 16.9143L0 8.45714C0 6.12177 0.781048 4.1284 2.34315 2.47704C3.90524 0.82568 5.79086 0 8 0L72 0C74.2091 0 76.0948 0.82568 77.6569 2.47704C79.2189 4.1284 80 6.12177 80 8.45714L80 95.5429C80 97.8782 79.2189 99.8716 77.6569 101.523C76.0948 103.174 74.2091 104 72 104L8 104C5.79086 104 3.90524 103.174 2.34315 101.523C0.781048 99.8716 0 97.8782 0 95.5429L0 16.9143Z" fill="url(#gradient_4)" fill-rule="evenodd" transform="translate(24 8)" />
    <path id="path905" d="M14 0C11.784 0 10 1.784 10 4C10 7.31371 7.31371 10 4 10C1.784 10 1.90735e-06 11.784 1.90735e-06 14C1.90735e-06 14 1.90735e-06 22 1.90735e-06 22C1.90735e-06 24.216 1.784 26 4 26C7.31371 26 10 28.6863 10 32C9.997 33.4771 9.44985 34.9014 8.4624 36C2.54023 42.5926 0.0141811 51.138 0 60C0 79.8822 16.1178 96 36 96C55.8822 96 72 79.8822 72 60C71.9841 51.1372 69.4611 42.5917 63.5366 36C62.5495 34.9012 62.0024 33.477 62 32C62 28.6863 64.6863 26 68 26C70.216 26 72 24.216 72 22C72 22 72 14 72 14C72 11.784 70.216 10 68 10C64.6863 10 62 7.31371 62 4C62 1.784 60.216 0 58 0C58 0 14 0 14 0ZM36 56C39.3137 56 42 58.6863 42 62C42 65.3137 39.3137 68 36 68C32.6863 68 30 65.3137 30 62C30 58.6863 32.6863 56 36 56C36 56 36 56 36 56Z" fill="#9A9996" transform="translate(28 12)" />
    <g id="g1036" transform="translate(28 100)">
      <path id="path1137-3" d="M0 4C0 1.79086 1.79086 0 4 0C6.20914 0 8 1.79086 8 4C8 6.20914 6.20914 8 4 8C1.79086 8 0 6.20914 0 4Z" fill="url(#gradient_5)" fill-rule="evenodd" />
      <path id="path1137" d="M0 2C0 0.895431 0.895431 0 2 0C3.10457 0 4 0.895431 4 2C4 3.10457 3.10457 4 2 4C0.895431 4 0 3.10457 0 2Z" fill="url(#gradient_6)" fill-rule="evenodd" transform="translate(2 2)" />
    </g>
    <path id="path905-2" d="M14 0C11.784 0 10 1.784 10 4C10 7.31371 7.31371 10 4 10C1.784 10 1.90735e-06 11.784 1.90735e-06 14C1.90735e-06 14 1.90735e-06 22 1.90735e-06 22C1.90735e-06 24.216 1.784 26 4 26C7.31371 26 10 28.6863 10 32C9.997 33.4771 9.44985 34.9014 8.4624 36C2.54023 42.5926 0.0141811 51.138 0 60C0 79.8822 16.1178 96 36 96C55.8822 96 72 79.8822 72 60C71.9841 51.1372 69.4611 42.5917 63.5366 36C62.5495 34.9012 62.0024 33.477 62 32C62 28.6863 64.6863 26 68 26C70.216 26 72 24.216 72 22C72 22 72 14 72 14C72 11.784 70.216 10 68 10C64.6863 10 62 7.31371 62 4C62 1.784 60.216 0 58 0C58 0 14 0 14 0ZM36 56C39.3137 56 42 58.6863 42 62C42 65.3137 39.3137 68 36 68C32.6863 68 30 65.3137 30 62C30 58.6863 32.6863 56 36 56C36 56 36 56 36 56Z" fill="url(#gradient_7)" transform="translate(28 10)" />
    <g id="g1036#1" transform="translate(92 100)">
      <path id="path1137-3#1" d="M0 4C0 1.79086 1.79086 0 4 0C6.20914 0 8 1.79086 8 4C8 6.20914 6.20914 8 4 8C1.79086 8 0 6.20914 0 4Z" fill="url(#gradient_5)" fill-rule="evenodd" />
      <path id="path1137#1" d="M0 2C0 0.895431 0.895431 0 2 0C3.10457 0 4 0.895431 4 2C4 3.10457 3.10457 4 2 4C0.895431 4 0 3.10457 0 2Z" fill="url(#gradient_6)" fill-rule="evenodd" transform="translate(2 2)" />
    </g>
    <g id="g1036#1" transform="translate(92 40)">
      <path id="path1137-3#1" d="M0 4C0 1.79086 1.79086 0 4 0C6.20914 0 8 1.79086 8 4C8 6.20914 6.20914 8 4 8C1.79086 8 0 6.20914 0 4Z" fill="url(#gradient_5)" fill-rule="evenodd" />
      <path id="path1137#1" d="M0 2C0 0.895431 0.895431 0 2 0C3.10457 0 4 0.895431 4 2C4 3.10457 3.10457 4 2 4C0.895431 4 0 3.10457 0 2Z" fill="url(#gradient_6)" fill-rule="evenodd" transform="translate(2 2)" />
    </g>
    <g id="g1036#1" transform="translate(92 12)">
      <path id="path1137-3#1" d="M0 4C0 1.79086 1.79086 0 4 0C6.20914 0 8 1.79086 8 4C8 6.20914 6.20914 8 4 8C1.79086 8 0 6.20914 0 4Z" fill="url(#gradient_5)" fill-rule="evenodd" />
      <path id="path1137#1" d="M0 2C0 0.895431 0.895431 0 2 0C3.10457 0 4 0.895431 4 2C4 3.10457 3.10457 4 2 4C0.895431 4 0 3.10457 0 2Z" fill="url(#gradient_6)" fill-rule="evenodd" transform="translate(2 2)" />
    </g>
    <g id="g1036#1" transform="translate(28 12)">
      <path id="path1137-3#1" d="M0 4C0 1.79086 1.79086 0 4 0C6.20914 0 8 1.79086 8 4C8 6.20914 6.20914 8 4 8C1.79086 8 0 6.20914 0 4Z" fill="url(#gradient_5)" fill-rule="evenodd" />
      <path id="path1137#1" d="M0 2C0 0.895431 0.895431 0 2 0C3.10457 0 4 0.895431 4 2C4 3.10457 3.10457 4 2 4C0.895431 4 0 3.10457 0 2Z" fill="url(#gradient_6)" fill-rule="evenodd" transform="translate(2 2)" />
    </g>
    <g id="g1036#1" transform="translate(28 40)">
      <path id="path1137-3#1" d="M0 4C0 1.79086 1.79086 0 4 0C6.20914 0 8 1.79086 8 4C8 6.20914 6.20914 8 4 8C1.79086 8 0 6.20914 0 4Z" fill="url(#gradient_5)" fill-rule="evenodd" />
      <path id="path1137#1" d="M0 2C0 0.895431 0.895431 0 2 0C3.10457 0 4 0.895431 4 2C4 3.10457 3.10457 4 2 4C0.895431 4 0 3.10457 0 2Z" fill="url(#gradient_6)" fill-rule="evenodd" transform="translate(2 2)" />
    </g>
    <path id="path2682-8-6" d="M5.30929 0C5.30929 0 5.30829 0.00170135 5.30829 0.00170135C1.098 6.87389 -0.530016 14.6017 0.149035 22.0549C0.149035 22.0549 30.0472 19.3514 30.0472 19.3514C29.9346 18.1104 30.2 16.8249 30.9011 15.6806C30.9011 15.6806 30.9021 15.6789 30.9021 15.6789L5.30929 0Z" fill="url(#gradient_8)" transform="translate(27.985 53.231)" />
    <path id="path2682-0-7-9" d="M2.88779 0C2.18594 1.14585 1.15864 1.9663 0 2.42935C0 2.42935 11.1716 30.2934 11.1716 30.2934C18.1216 27.5133 24.2681 22.5516 28.4789 15.6779C28.4789 15.6779 2.88779 0 2.88779 0Z" fill="url(#gradient_9)" transform="translate(66.232 75.179)" />
    <path id="path2682-6-9-2-3" d="M49.5196 5.30901C32.5603 -5.07998 10.3902 0.245499 0 17.2041C0 17.2041 25.5928 32.883 25.5928 32.883C27.3238 30.059 31.0159 29.1721 33.8407 30.9018C36.6659 32.6323 37.5537 36.3253 35.8236 39.1507C35.8236 39.1507 61.4164 54.8297 61.4164 54.8297C71.8058 37.8697 66.4794 15.6987 49.5196 5.30901C49.5196 5.30901 49.5196 5.30901 49.5196 5.30901Z" fill="url(#gradient_10)" transform="translate(33.295 36.027)" />
    <path id="path2682-6-9-3-7" d="M38.035 5.02991C36.2695 5.75046 34.2666 5.58883 32.6395 4.59452C31.0207 3.59805 29.9692 1.89394 29.8059 0C29.8067 0.00640106 29.8054 0.0122604 29.8063 0.0185318C29.8063 0.0185318 0 2.71412 0 2.71412C1.00174 14.0352 7.28882 24.219 16.9608 30.1874C26.6717 36.095 38.6016 37.0713 49.1438 32.8211C49.1438 32.8211 38.0059 5.04415 38.0059 5.04415C38.0157 5.03965 38.0252 5.03414 38.0352 5.03008C38.0352 5.03008 38.035 5.02991 38.035 5.02991Z" fill="url(#gradient_11)" transform="translate(28.226 72.567)" />
    <path id="path7542-7-8" d="M168.102 23.7051L0 148.822L291.891 148.822L291.891 0L168.102 23.7051Z" fill="#A1641A" transform="translate(883.602 -215.832)" />
</svg>