<?xml version="1.0" encoding="utf-8"?>
<svg width="128" height="128" viewBox="0 0 128 128" xmlns="http://www.w3.org/2000/svg">
<defs>
<linearGradient id="grdnt1">
<stop offset="0" stop-color="#3D3846"/>
<stop offset="5%" stop-color="#77767B"/>
<stop offset="10%" stop-color="#5E5C64"/>
<stop offset="90%" stop-color="#5E5C64"/>
<stop offset="95%" stop-color="#77767B"/>
<stop offset="1" stop-color="#3D3846"/>
</linearGradient>
<linearGradient id="grdnt2">
<stop offset="0" stop-color="#424048"/>
<stop offset="5%" stop-color="#F6F5F4"/>
<stop offset="10%" stop-color="#949390"/>
<stop offset="90%" stop-color="#D5D3CF"/>
<stop offset="95%" stop-color="#F6F5F4"/>
<stop offset="1" stop-color="#424048"/>
</linearGradient>
<linearGradient id="grdnt3" x1="0" y1="0" x2="0" y2="1">
<stop offset="0" stop-color="#F6F5F4"/>
<stop offset="1" stop-color="#C0BFBC"/>
</linearGradient>
<linearGradient id="hole" x1="0" y1="0" x2="0" y2="1">
<stop offset="0" stop-color="#000000" stop-opacity="25%"/>
<stop offset="1" stop-color="#000000" stop-opacity="3%"/>
</linearGradient>
<radialGradient id="ball" cx="50%" cy="25%">
<stop offset="0" stop-color="#949390"/>
<stop offset="1" stop-color="#424048"/>
</radialGradient>
<radialGradient id="radial">
<stop offset="0" stop-color="#FFFFFF"/>
<stop offset="1" stop-color="#FFFFFF" stop-opacity="0"/>
</radialGradient>
<filter id="over">
<feDropShadow dx="0" dy="-4" flood-color="#5E5C64" stdDeviation="0"/>
</filter>
</defs>
<rect width="88" height="32" rx="8" x="20" y="88" fill="url(#grdnt1)"/>
<rect width="88" height="26" rx="8" x="20" y="88" fill="url(#grdnt2)"/>
<rect width="88" height="104" rx="8" x="20" y="8" fill="#F6F5F4"/>
<path d="M14 0C11.8 0 10 1.8 10 4C10 7.3 7.3 10 4 10C1.8 10 0 11.8 0 14L0 56C0 76 20 92 40 92C60 92 80 76 80 56L80 14C80 11.8 78.2 10 76 10C72.7 10 70 7.3 70 4C70 1.8 68.2 0 66 0Z" fill="#77767B" transform="translate(24 16)" filter="url(#over)"/>
<g fill="url(#hole)">
<circle r="4" cx="28" cy="106"/>
<circle r="4" cx="100" cy="106"/>
<circle r="4" cx="100" cy="16"/>
<circle r="4" cx="28" cy="16"/>
</g><g fill="url(#ball)">
<circle r="2" cx="28" cy="106"/>
<circle r="2" cx="100" cy="106"/>
<circle r="2" cx="100" cy="16"/>
<circle r="2" cx="28" cy="16"/>
</g>
<circle r="36" cx="64" cy="68" fill="#DEDDDA"/>
<clipPath id="green"><path d="M0 0L72 0L72 72Z" transform="translate(28 32)"/></clipPath>
<circle r="36" cx="64" cy="68" fill="#60BB00" clip-path="url(#green)"/>
<clipPath id="yellow"><path d="M36 36L0 36L0 0Z" transform="translate(28 32)"/></clipPath>
<circle r="36" cx="64" cy="68" fill="#FF7800" clip-path="url(#yellow)"/>
<clipPath id="red"><path d="M72 72L36 72L36 36Z" transform="translate(28 32)"/></clipPath>
<circle r="36" cx="64" cy="68" fill="#ED333B" clip-path="url(#red)"/>
<circle r="36" cx="64" cy="68" fill="url(#radial)" opacity="50%"/>
<g fill="none" stroke-width="2">
<circle r="35" cx="64" cy="68" stroke="#FFFFFF" opacity="30%"/>
<circle r="15" cx="64" cy="68" stroke="#000000" opacity="20%"/></g>
<circle r="14" cx="64" cy="68" fill="#77767B"/>
<circle r="6" cx="64" cy="68" fill="#3D3846"/>
<g fill="#C0BFBC">
<circle r="2" transform="translate(64 58)"/>
<circle r="2" transform="translate(74 68)"/>
<circle r="2" transform="translate(64 78)"/>
<circle r="2" transform="translate(54 68)"/>
</g></svg>
