<?xml version="1.0" encoding="utf-8"?>
<svg width="128" height="128" viewBox="0 0 128 128" xmlns="http://www.w3.org/2000/svg">
<defs>
<filter id="under">
<feDropShadow dx="0" dy="2" flood-color="#1A5FB4" stdDeviation="0"/>
</filter>
<linearGradient id="speaker" x1="0" y1="0" x2="0" y2="1">
<stop offset="0" stop-color="#DEDDDA"/>
<stop offset="1" stop-color="#F6F5F4"/>
</linearGradient>
<radialGradient id="shine" cx="25%" cy="25%" r="1">
<stop offset="0" stop-color="#888888"/>
<stop offset="1" stop-color="#000000"/>
</radialGradient>
</defs>
<path d="M94 12C99.5 12 104 16.5 104 22L104 34L0 34L0 10C0 4.5 4.5 0 10 0L30 0C33.7 0 37 2.1 38.7 5.4L40.2 8.4C41.3 10.6 43.5 12 46 12C46 12 94 12 94 12Z" fill="#B4835A" transform="translate(12 12)"/>
<rect width="88" height="80" rx="5" x="20" y="30" fill="#F6F5F4"/>
<rect width="104" height="80" rx="10" x="12" y="36" fill="#3584E4" filter="url(#under)"/>
<g transform="translate(64 76)">
<rect width="52" height="52" rx="4" x="-26" y="-26" fill="#C0BFBC"/>
<circle r="30" fill="#C0BFBC"/>
<circle r="26" fill="#000000"/>
<circle r="24" fill="#2A2A3B"/>
<circle r="22" fill="url(#speaker)"/>
<circle r="10" fill="#000000"/>
<circle r="8" fill="url(#shine)"/>
<g fill="#000000" transform="translate(-21 -21)">
<circle r="1" cy="42"/>
<circle r="1" cx="42" cy="42"/>
<circle r="1" cx="42"/>
<circle r="1"/>
</g></g>
</svg>
