<?xml version="1.0" encoding="utf-8"?>
<svg width="128" height="128" viewBox="0 0 128 128" xmlns="http://www.w3.org/2000/svg">
<defs>
<linearGradient id="corner" x1="0" y1="0" x2="1" y2="0">
<stop offset="0" stop-color="#3483E3"/>
<stop offset="4%" stop-color="#62A0E9"/>
<stop offset="8%" stop-color="#3584E4"/>
<stop offset="92%" stop-color="#3584E4"/>
<stop offset="96%" stop-color="#62A0E9"/>
<stop offset="1" stop-color="#3584E4"/>
</linearGradient>
<linearGradient id="silver" x1="0" y1="0" x2="0" y2="1">
<stop offset="0" stop-color="#77767B"/>
<stop offset="38%" stop-color="#C0BFBC"/>
<stop offset="76%" stop-color="#5E5C64"/>
<stop offset="1" stop-color="#3D3846"/>
</linearGradient>
<filter id="shadow" height="200%">
<feDropShadow dx="0" dy="4" flood-color="#3584E4" stdDeviation="0"/>
</filter>
</defs>
<rect width="104" height="56" rx="8" x="12" y="60" fill="url(#corner)"/>
<path d="M6 0C2.7 0 0 2.7 0 6L0 20C0 23.3 2.7 26 6 26L12 26L12 0Z" fill="url(#silver)" transform="translate(8 42)"/>
<path d="M6 0C9.3 0 12 2.7 12 6L12 20C12 23.3 9.3 26 6 26L0 26L0 0Z" fill="url(#silver)" transform="translate(108 42)"/>
<rect width="80" height="80" rx="8" x="24" y="4" fill="#F6F5F4"/>
<rect width="32" height="6" x="32" y="14" fill="#77767B"/>
<path d="M0 0L62 0L62 18L44 18L44 22L0 22Z" fill="#C0BFBC" transform="translate(32 24)"/>
<path d="M0 0L4 0L4 10L28 10L28 14L0 14ZM84 0L88 0L88 14L60 14L60 10L84 10Z" fill="#5E5C64" transform="translate(20 46)"/>
<rect width="104" height="50" rx="8" x="12" y="60" fill="#62A0E9"/>
<rect width="104" height="4" x="12" y="68" fill="#3584E4"/>
<g fill="#FFFFFF" transform="translate(24 76)" filter="url(#shadow)">
<rect width="8" height="8" rx="4" x="4" y="16"/>
<rect width="36" height="8" rx="4" x="16" y="16"/>
<rect width="8" height="8" rx="4" x="56" y="16"/>
<rect width="8" height="8" rx="4" x="68" y="16"/>
<rect width="8" height="8" rx="4" x="12"/>
<rect width="8" height="8" rx="4" x="24"/>
<rect width="8" height="8" rx="4" x="36"/>
<rect width="8" height="8" rx="4" x="48"/>
<rect width="8" height="8" rx="4" x="60"/>
<rect width="8" height="8" rx="4" x="72"/>
<rect width="8" height="8" rx="4"/>
</g></svg>
