<?xml version="1.0" encoding="utf-8"?>
<svg width="128" height="128" viewBox="0 0 128 128" xmlns="http://www.w3.org/2000/svg">
<defs>
<linearGradient id="contour" x1="0" y1="0" x2="0" y2="1">
<stop offset="0" stop-color="#0DEEFF"/>
<stop offset="1" stop-color="#0084B4"/>
</linearGradient>
<linearGradient id="jp" x1="0" y1="0" x2="0" y2="1">
<stop offset="0" stop-color="#68FDFF"/>
<stop offset="50%" stop-color="#75FBFF"/>
<stop offset="1" stop-color="#42F8FF"/>
</linearGradient>
<filter id="shadow">
<feDropShadow dx="4" dy="4" flood-color="#146EA0" stdDeviation="2"/>
</filter>
<clipPath id="circle">
<circle r="60" cx="64" cy="64"/>
</clipPath>
</defs>
<circle r="60" cx="64" cy="64" fill="#009AD6"/>
<g clip-path="url(#circle)" filter="url(#shadow)">
<circle r="56.5" cx="64" cy="64" fill="none" stroke="url(#contour)" stroke-width="6"/>
<path d="M1.5 7.5C1.5 7.5 13 5 18 0L15 3C15 3 40 72 24 72C9 72 0 63 0 52C0 39 8 34 18 34C27 34 40 38 49 38C60 38 69 32 69 22C69 4 41 3 41 3C41 21 50 63 58 71" fill="none" stroke="url(#jp)" stroke-width="10" stroke-linecap="round" stroke-linejoin="round" transform="translate(30 26)"/>
</g></svg>
