<?xml version="1.0" encoding="UTF-8"?>
<svg xmlns="http://www.w3.org/2000/svg" width="128" height="128" viewBox="0 0 128 128">
<defs>
<linearGradient id="dark" x1="0" y1="0" x2="1" y2="1">
<stop offset="0" stop-color="#4a4e57"/>
<stop offset="1" stop-color="#23262d"/>
</linearGradient>
<linearGradient id="film" x1="0" y1="0" x2="1" y2="1">
<stop offset="0" stop-color="#d7dbe2"/>
<stop offset="1" stop-color="#9ea6b3"/>
</linearGradient>
</defs>
<rect x="12" y="12" width="104" height="104" rx="8" fill="url(#dark)"/>
<rect x="22" y="48" width="84" height="32" rx="6" fill="url(#film)"/>
<g fill="#353943">
<rect x="28" y="56" width="16" height="16" rx="2"/>
<rect x="48" y="56" width="16" height="16" rx="2"/>
<rect x="68" y="56" width="16" height="16" rx="2"/>
<rect x="88" y="56" width="12" height="16" rx="2"/>
</g><g fill="#23262d">
<rect x="26" y="50" width="6" height="4" rx="1"/>
<rect x="38" y="50" width="6" height="4" rx="1"/>
<rect x="50" y="50" width="6" height="4" rx="1"/>
<rect x="62" y="50" width="6" height="4" rx="1"/>
<rect x="74" y="50" width="6" height="4" rx="1"/>
<rect x="86" y="50" width="6" height="4" rx="1"/>
<rect x="98" y="50" width="4" height="4" rx="1"/>
<rect x="26" y="74" width="6" height="4" rx="1"/>
<rect x="38" y="74" width="6" height="4" rx="1"/>
<rect x="50" y="74" width="6" height="4" rx="1"/>
<rect x="62" y="74" width="6" height="4" rx="1"/>
<rect x="74" y="74" width="6" height="4" rx="1"/>
<rect x="86" y="74" width="6" height="4" rx="1"/>
<rect x="98" y="74" width="4" height="4" rx="1"/>
</g></svg>
