<?xml version="1.0" encoding="utf-8"?>
<svg width="128" height="128" viewBox="0 0 128 128" xmlns="http://www.w3.org/2000/svg">
<defs>
<linearGradient id="corners">
<stop offset="0" stop-color="#F69520"/>
<stop offset="4%" stop-color="#F9BA6D"/>
<stop offset="8%" stop-color="#FAB142"/>
<stop offset="92%" stop-color="#FAB142"/>
<stop offset="96%" stop-color="#F9BA6D"/>
<stop offset="1" stop-color="#F69520"/>
</linearGradient>
<filter id="shadow">
<feDropShadow dx="0" dy="2" flood-color="#000000" flood-opacity="20%" stdDeviation="0"/>
</filter>
</defs>
<rect width="104" height="104" rx="8" x="12" y="12" fill="url(#corners)"/>
<rect width="104" height="32" rx="8" x="12" y="12" fill="#F9BA6D" filter="url(#shadow)"/>
<rect width="104" height="8" x="12" y="24" fill="#AA7644"/>
<g fill="#542A14">
<path d="M0 0L56 0C56 11 43 20 28 20C13 20 0 11 0 0Z" transform="translate(36 84)"/>
<path d="M0 8C0 3.6 3.6 0 8 0C12.4 0 16 3.6 16 8C16 8 12.4 6 8 6C3.6 6 0 8 0 8Z" transform="translate(28 68)"/>
<path d="M0 8C0 3.6 3.6 0 8 0C12.4 0 16 3.6 16 8C16 8 12.4 6 8 6C3.6 6 0 8 0 8Z" transform="translate(84 68)"/>
</g><g fill="none" stroke="#542A14" stroke-width="4" stroke-linecap="round">
<path d="M0 10C0 4.5 4.5 0 10 0" transform="translate(30 50)"/>
<path d="M10 10C10 4.5 5.5 0 0 0" transform="translate(88 50)"/>
</g><path d="M0 0L8 0C12.4 0 16 3.6 16 8C16 12.4 12.4 16 8 16C3.6 16 0 12.4 0 8L0 8Z" fill="#60C0EC" transform="translate(116 52), rotate(45)"/>
</svg>
