<?xml version="1.0" encoding="utf-8"?>
<svg width="128" height="128" viewBox="0 0 128 128" xmlns="http://www.w3.org/2000/svg">
<rect width="104" height="104" rx="8" x="12" y="12" fill="#FF2449"/>
<path d="M20.66 0L19.5 0C16.56 0 13.93 0.9 11.6 2.7C9.3 4.5 7.76 6.8 7 9.64L0.28 35.48C0 36.74 -0.1 38 0.17 39.28C0.43 40.56 1 41.7 1.76 42.74C2.55 43.77 3.53 44.57 4.7 45.14C5.87 45.7 7 46 8.4 46L9.57 46C12.5 46 15.13 45 17.45 43.3C19.77 41.5 21.3 39.2 22 36.36L22.66 34L60.4 34L61 36.36C61.76 39.2 63.3 41.5 65.6 43.3C67.9 45.1 70.56 46 73.5 46L74.66 46C76 46 77.2 45.7 78.36 45.14C79.53 44.57 80.5 43.765 81.3 42.74C82.1 41.7 82.63 40.56 82.9 39.28C83.15 38 83 36.74 82.8 35.48L76 9.64C75.3 6.8 73.77 4.5 71.45 2.7C69.13 0.9 66.5 0 63.57 0L62.4 0C61.1 0 59.87 0.3 58.7 0.86C57.53 1.43 56.55 2.23 55.75 3.26C55.57 3.5 55.4 3.75 55.24 4L27.8 4C27.74 3.87 27.65 3.75 27.57 3.63C27.5 3.5 27.4 3.38 27.3 3.26C26.5 2.23 25.53 1.43 24.36 0.86C23.2 0.3 22 0 20.66 0ZM47.53 10L35.53 10L35.53 18L29.53 18L41.53 30L53.53 18L47.53 18Z" fill="#FFFFFF" fill-rule="evenodd" transform="translate(22.47 42)"/>
</svg>
