<?xml version="1.0" encoding="utf-8"?>
<svg width="128" height="128" viewBox="0 0 128 128" xmlns="http://www.w3.org/2000/svg">
<rect width="112" height="88" rx="8" fill="#2EC27E" transform="translate(8 20)"/>
<g fill="none" stroke-width="2" stroke="#F9F06B">
<line x1="0" y1="0" x2="0" y2="88" transform="translate(51 20)"/>
<line x1="0" y1="0" x2="0" y2="88" transform="translate(63 20)"/>
<line x1="0" y1="0" x2="0" y2="88" transform="translate(75 20)"/>
<path d="M0 4L8 4L8 16L88 16L88 0" transform="translate(20 36)"/>
<path d="M0 0L88 0" transform="translate(20 64)"/>
<path d="M0 16L0 0L80 0L80 12L88 12" transform="translate(20 76)"/>
<g fill="#2EC27E">
<circle r="3" transform="translate(20 40)"/>
<circle r="3" transform="translate(20 64)"/>
<circle r="3" transform="translate(20 92)"/>
<circle r="3" transform="translate(108 36)"/>
<circle r="3" transform="translate(108 64)"/>
<circle r="3" transform="translate(108 88)"/>
</g></g>
<rect width="48" height="48" rx="6" fill="#000000" opacity="0.3" transform="translate(40 40)"/>
<g fill="none" stroke="#F6F5F4" stroke-width="6" stroke-linecap="round">
<path d="M0 0L54 0" transform="translate(37 75)"/>
<path d="M0 0L54 0" transform="translate(37 63)"/>
<path d="M0 0L54 0" transform="translate(37 51)"/>
<path d="M0 0L0 54" transform="translate(75 37)"/>
<path d="M0 0L0 54" transform="translate(63 37)"/>
<path d="M0 0L0 54" transform="translate(51 37)"/>
</g><g transform="translate(44 44)">
<rect width="40" height="40" rx="3" fill="#3D3846"/>
<rect width="40" height="38" rx="3" fill="#5E5C64"/>
</g></svg>
