<?xml version="1.0" encoding="utf-8"?>
<svg width="128" height="128" viewBox="0 0 128 128" xmlns="http://www.w3.org/2000/svg">
<defs>
<linearGradient id="corners" x1="0" y1="0" x2="1" y2="0">
<stop offset="0" stop-color="#7A7A76"/>
<stop offset="5%" stop-color="#B3B3B3"/>
<stop offset="10%" stop-color="#7A7A76"/>
<stop offset="90%" stop-color="#7A7A76"/>
<stop offset="95%" stop-color="#B3B3B3"/>
<stop offset="1" stop-color="#7A7A76"/>
</linearGradient>
<linearGradient id="white" x1="0" y1="0" x2="0" y2="1">
<stop offset="0" stop-color="#F0F3E2"/>
<stop offset="1" stop-color="#B9C1C2"/>
</linearGradient>
<linearGradient id="blue" x1="0" y1="0" x2="0" y2="1">
<stop offset="0" stop-color="#183046"/>
<stop offset="1" stop-color="#031424"/>
</linearGradient>
</defs>
<rect width="104" height="104" rx="8" x="12" y="12" fill="url(#corners)"/>
<rect width="104" height="96" rx="8" x="12" y="12" fill="url(#white)"/>
<path d="M0 36C0 34 2 32 4 32C6 32 8 34 8 36L8 43C8 49 13 54 19 54C25 54 30 49 30 43C30 43 30 14.3 30 4L16 4C15 4 14 3 14 2C14 1 15 0 16 0L43 0C44 0 45 1 45 2C45 3 44 4 43 4L38 4L38 39C38 49.5 29.5 58 19 58C8.5 58 0 49.5 0 39Z" fill="url(#blue)" transform="translate(42 32)"/>
</svg>
