<?xml version="1.0" encoding="utf-8"?>
<svg width="128" height="128" viewBox="0 0 128 128" xmlns="http://www.w3.org/2000/svg">
<defs>
<linearGradient id="dark" x1="0" y1="0" x2="0" y2="100%">
<stop offset="0" stop-color="#424649"/>
<stop offset="1" stop-color="#292B2E"/>
</linearGradient>
<linearGradient id="slateblue" x1="0" y1="0" x2="0" y2="100%">
<stop offset="0" stop-color="#54A3D8"/>
<stop offset="1" stop-color="#375A7D"/>
</linearGradient>
<linearGradient id="silverblue" x1="0" y1="0" x2="100%" y2="0">
<stop offset="0" stop-color="#ACDBFA"/>
<stop offset="1" stop-color="#7CBCEC"/>
</linearGradient>
<linearGradient id="shadow" gradientUnits="userSpaceOnUse" x1="99" y1="70" x2="120" y2="86">
<stop offset="0" stop-color="#000000" stop-opacity="0.5"/>
<stop offset="1" stop-color="#000000" stop-opacity="0"/>
</linearGradient>
</defs>
<rect width="112" height="86" fill="url(#dark)" rx="8" x="8" y="28"/>
<path d="M0 0C0 0 0 4 0 4C0 8.432 3.568 12 8 12C8 12 104 12 104 12C108.432 12 112 8.432 112 4C112 4 112 0 112 0C112 4.432 108.432 8 104 8C104 8 8 8 8 8C3.568 8 0 4.432 0 0C0 0 0 0 0 0Z" fill="#232527" transform="translate(8 104)"/>
<path d="M73 92.5L103 116L120 116L120 86L99.25 70Z" fill="url(#shadow)" opacity="0.5"/>
<path d="M2.42 0C1.27 0 0 1.2 0 2.46C0 2.46 0 39.54 0 39.54C0 41.2 2.2 42.67 3.44 41.67C3.44 41.67 27 23 27 23C28.32 22 28.32 19.8 27 18.8C27 18.8 3.5 0.325 3.5 0.325C3.17 0 2.8 0 2.42 0C2.42 0 2.42 0 2.42 0Z" fill="url(#slateblue)" transform="translate(72 51)"/>
<path d="M32 0L32 4L40 4L40 0ZM24 8L24 12L40 12L40 8ZM10 16L10 20L40 20L40 16ZM0 24L0 28L40 28L40 24ZM10 32L10 36L40 36L40 32ZM24 40L24 44L40 44L40 40Z" fill="url(#silverblue)" transform="translate(16 50)"/>
<g fill="#E05E4C">
<rect width="6" height="92" x="61" y="28"/>
<path d="M0 0L16 20L32 0Z" transform="translate(48 24)"/>
</g></svg>
