<?xml version="1.0" encoding="utf-8"?>
<svg width="128" height="128" viewBox="0 0 128 128" xmlns="http://www.w3.org/2000/svg">
<defs>
<linearGradient id="white" x1="0.9" y1="0" x2="1" y2="0">
<stop offset="0" stop-color="#DEDDDA"/>
<stop offset="0.5" stop-color="#FFFFFF"/>
<stop offset="1" stop-color="#C0BFBC"/>
</linearGradient>
<linearGradient id="blue" x1="0" y1="0" x2="0" y2="1">
<stop offset="0" stop-color="#35A5E5"/>
<stop offset="1" stop-color="#317BC2"/>
</linearGradient>
<linearGradient id="dark" x1="0" y1="0" x2="0" y2="1">
<stop offset="0" stop-color="#505690"/>
<stop offset="1" stop-color="#2C3058"/>
</linearGradient>
</defs>
<path d="M0 0L0 92C0 92 80 92 80 92C84.4 92 88 88.4 88 84C88 84 88 8 88 8C88 3.6 84.4 0 80 0C80 0 0 0 0 0Z" fill="#306E9F" transform="translate(20 28)"/>
<path d="M0 0L0 70C0 70 78 70 78 70C82.4 70 86 66.4 86 62C86 62 86 8 86 8C86 3.6 82.4 0 78 0C78 0 0 0 0 0Z" fill="url(#white)" transform="translate(22 48)"/>
<path d="M0 0L0 84C0 84 80 84 80 84C84.4 84 88 80.4 88 76C88 76 88 8 88 8C88 3.6 84.4 0 80 0C80 0 0 0 0 0Z" fill="#306E9F" transform="translate(20 28)"/>
<path d="M0 0L8 0L8 2L2 2L2 8L8 8L8 10L0 10Z" fill="#2C3058" transform="translate(20 110)"/>
<path d="M0 0L0 102C0 102 80 102 80 102C84.4 102 88 98.4 88 94C88 94 88 8 88 8C88 3.6 84.4 0 80 0C80 0 0 0 0 0Z" fill="url(#blue)" transform="translate(20 8)"/>
<rect width="8" height="102" x="20" y="8" fill="url(#dark)"/>
<rect width="2" height="102" x="22" y="8" fill="#FFFFFF" opacity="0.2"/>
<g fill="#F0F0F0" transform="translate(36 40)">
<path d="M0 0L8 0L8 20L28 0L40 0L16 24L40 48L28 48L8 28L8 48L0 48Z"/>
<circle r="3" transform="translate(38 34)"/>
<rect width="20" height="4" transform="translate(44 32)"/>
<rect width="28" height="4" transform="translate(36 24)"/>
<path d="M14 2C14 2 16 3.6 16 8C16 12.4 12.4 16 8 16C3.6 16 0 12.4 0 8C0 3.6 3.6 0 8 0L8 16" fill="none" stroke="#F0F0F0" stroke-width="4" transform="translate(46 2)"/>
</g></svg>
