<?xml version="1.0" encoding="utf-8"?>
<svg width="128" height="128" viewBox="0 0 128 128" fill="none" xmlns="http://www.w3.org/2000/svg">
<defs>
<linearGradient id="gradient" gradientUnits="userSpaceOnUse" x1="-0" y1="112" x2="88" y2="0">
<stop offset="0" stop-color="#D0120D"/>
<stop offset="1" stop-color="#FE9C45"/>
</linearGradient>
</defs>
<path id="sheet" d="M88 104C88 108.419 84.4189 112 80 112L8 112C3.58112 112 0 108.419 0 104L0 8C0 3.58118 3.58112 0 8 0L52 0L88 36L88 104ZM60 0L88 28L88 0L60 0Z" fill="url(#gradient)" transform="translate(20 8)"/>
<g id="shadows" fill="black" opacity="0.3" transform="translate(20 8)">
<path id="shadow_corner" d="M0 0L28 28L28 23L5 0L0 0Z" transform="translate(60 0)"/>
<path id="shadow_down" d="M88 0C88 4.41895 84.4189 8 80 8L8 8C3.58112 8 0 4.41895 0 0L0 4C0 8.41895 3.58112 12 8 12L80 12C84.4189 12 88 8.41895 88 4L88 0L88 0Z" transform="translate(0 100)"/>
</g><g fill="#FAFAFA" transform="translate(36 46)">
<rect width="24" height="2"/>
<rect width="24" height="2" transform="translate(0 8)"/>
<rect width="24" height="2" transform="translate(0 16)"/>
<rect width="24" height="2" transform="translate(0 24)"/>
<rect width="56" height="2" transform="translate(0 32)"/>
<rect width="56" height="2" transform="translate(0 40)"/>
<rect width="56" height="2" transform="translate(0 48)"/>
<rect width="28" height="2" transform="translate(0 56)"/>
</g><g id="graph" fill="#FECFB5" transform="translate(64 43)">
<path id="pacman" d="M26 13L13 13L13 0C10.4288 0 7.91543 0.762435 5.77759 2.19089C3.63975 3.61935 1.97351 5.64968 0.989572 8.02512C0.00563291 10.4006 -0.251811 13.0144 0.249797 15.5362C0.751408 18.0579 1.98954 20.3743 3.80762 22.1924C5.6257 24.0105 7.94208 25.2486 10.4638 25.7502C12.9856 26.2518 15.5994 25.9944 17.9749 25.0104C20.3503 24.0265 22.3806 22.3602 23.8091 20.2224C25.2376 18.0846 26 15.5712 26 13L26 13Z" transform="translate(0 3)"/>
<path id="corner" d="M0 0L0 13L13 13C13 11.2928 12.6637 9.60235 12.0104 8.02511C11.3571 6.44788 10.3996 5.01478 9.19239 3.80761C7.98523 2.60045 6.55211 1.64288 4.97489 0.989568C3.39765 0.336255 1.70718 0 0 0L0 0Z" transform="translate(16 0)"/>
</g></svg>