<?xml version="1.0" encoding="utf-8"?>
<svg width="128" height="128" viewBox="0 0 128 128" fill="none" xmlns="http://www.w3.org/2000/svg">
<defs>
<linearGradient id="grayish" gradientUnits="userSpaceOnUse" x1="-0" y1="112" x2="126" y2="0">
<stop offset="0" stop-color="#4C4C4C"/>
<stop offset="1" stop-color="#969696"/>
</linearGradient>
<linearGradient id="white" gradientUnits="userSpaceOnUse" x1="64" y1="0" x2="0" y2="84">
<stop offset="0" stop-color="#AAAAAA"/>
<stop offset="0.6" stop-color="#EAEAEA"/>
</linearGradient>
</defs>
<path id="sheet" d="M88 104C88 108.419 84.4189 112 80 112L8 112C3.58112 112 0 108.419 0 104L0 8C0 3.58118 3.58112 0 8 0L52 0L88 36L88 104ZM60 0L88 28L88 0L60 0Z" fill="url(#grayish)" transform="translate(20 8)"/>
<path id="paper" d="M36 0L0 0L0 84L64 84L64 28L36 0Z" fill="url(#white)" transform="translate(32 20)"/>
<g id="shadows" fill="black" opacity="0.3" transform="translate(20 8)">
<path id="shadow_corner" d="M0 0L28 28L28 23L5 0L0 0Z" transform="translate(60 0)"/>
<path id="shadow_down" d="M88 0C88 4.41895 84.4189 8 80 8L8 8C3.58112 8 0 4.41895 0 0L0 4C0 8.41895 3.58112 12 8 12L80 12C84.4189 12 88 8.41895 88 4L88 0L88 0Z" transform="translate(0 100)"/>
</g>
<path id="corner" d="M0 0L28 28L0 28Z" fill="#FAFAFA" transform="translate(68 20)"/>
</svg>