<?xml version="1.0" encoding="utf-8"?>
<svg width="128" height="128" viewBox="0 0 128 128" fill="none" xmlns="http://www.w3.org/2000/svg">
<circle cx="64" cy="64" r="60" fill="#DD4814"/>
<path d="M43.9714 7.51562C43.9714 11.6664 47.3363 15.0312 51.487 15.0312C57.5536 15.0312 62.7317 17.1761 67.0213 21.4657C71.311 25.7554 73.4558 30.9335 73.4558 37C73.4558 43.0665 71.311 48.2446 67.0213 52.5342C62.7317 56.824 57.5536 58.9688 51.487 58.9688C45.4205 58.9688 40.2424 56.824 35.9527 52.5342C32.6383 49.22 30.6045 45.3751 29.851 41L39.0706 41C39.8594 41 40.5817 40.781 41.2376 40.3427C41.8934 39.9044 42.3723 39.321 42.6742 38.5922C42.976 37.8635 43.05 37.1123 42.8961 36.3387C42.7422 35.565 42.3864 34.9 41.8287 34.3416L24.245 16.758C23.8792 16.3923 23.4574 16.1104 22.9796 15.9125C22.5017 15.7146 22 15.6156 21.487 15.6156C20.9698 15.6156 20.4723 15.7146 20 15.9125C19.5166 16.1104 19.0948 16.3923 18.7291 16.758L1.14535 34.3416C0.587617 34.8994 0.231812 35.5651 0.0779352 36.3387C-0.076 37.1123 0 37.8635 0.32 38.5922C0.60174 39.321 1.0806 39.9044 1.73644 40.3427C2.3923 40.781 3.11462 41 3.90341 41L14.7 41C16.6952 59.5533 32.404 74 51.487 74C71.9216 74 88.487 57.4345 88.487 37C88.487 16.5655 71.9216 0 51.487 0C47.3363 0 43.9714 3.36485 43.9714 7.51562L43.9714 7.51562Z" fill="#FFFFFF" transform="translate(12.513 27)"/>
</svg>
