<?xml version="1.0" encoding="utf-8"?>
<svg width="128px" height="128px" viewBox="0 0 128 128" version="1.1" xmlns:xlink="http://www.w3.org/1999/xlink" xmlns="http://www.w3.org/2000/svg">
  <defs>
    <path d="M128 0L128 0L128 128L0 128L0 0L128 0Z" id="path_1" />
    <clipPath id="clip_1">
      <use xlink:href="#path_1" clip-rule="evenodd" fill-rule="evenodd" />
    </clipPath>
  </defs>
  <g id="com.icons8.Lunacy">
    <path d="M128 0L128 0L128 128L0 128L0 0L128 0Z" id="com.icons8.Lunacy" fill="none" stroke="none" />
    <g id="lunacy" transform="translate(0 10)" clip-path="url(#clip_1)">
      <path d="M46.8293 99.9024C45.2684 99.9024 43.7074 99.5902 43.7074 96.4683L43.7074 84.2927C43.7074 82.4195 42.4586 81.1707 40.5854 81.1707C38.7123 81.1707 37.4635 82.4195 37.4635 84.2927L37.4635 96.4683C37.4635 102.4 41.2098 106.146 46.8293 106.146L46.8293 99.9024L46.8293 99.9024ZM31.2196 99.9024C29.6586 99.9024 28.0976 99.5902 28.0976 96.4683L28.0976 84.2927C28.0976 82.4195 26.8489 81.1707 24.9757 81.1707C23.1025 81.1707 21.8537 82.4195 21.8537 84.2927L21.8537 96.4683C21.8537 102.4 25.6001 106.146 31.2196 106.146L31.2196 99.9024L31.2196 99.9024Z" id="Forma" fill="#78909C" fill-rule="evenodd" stroke="none" />
      <path d="M37.4635 78.0488L43.7074 78.0488L43.7074 84.2927L37.4635 84.2927L37.4635 78.0488ZM21.8537 78.0488L28.0976 78.0488L28.0976 84.2927L21.8537 84.2927L21.8537 78.0488Z" id="Forma" fill="#546E7A" fill-rule="evenodd" stroke="none" />
      <path d="M90.5366 99.9024C88.9756 99.9024 87.4146 99.5902 87.4146 96.4683L87.4146 84.2927C87.4146 82.4195 86.1658 81.1707 84.2927 81.1707C82.4195 81.1707 81.1707 82.4195 81.1707 84.2927L81.1707 96.4683C81.1707 102.4 84.9171 106.146 90.5366 106.146L90.5366 99.9024L90.5366 99.9024ZM74.9268 99.9024C73.3658 99.9024 71.8049 99.5902 71.8049 96.4683L71.8049 84.2927C71.8049 82.4195 70.5561 81.1707 68.6829 81.1707C66.8097 81.1707 65.561 82.4195 65.561 84.2927L65.561 96.4683C65.561 102.4 69.3073 106.146 74.9268 106.146L74.9268 99.9024L74.9268 99.9024Z" id="Forma" fill="#78909C" fill-rule="evenodd" stroke="none" />
      <path d="M81.1707 78.0488L87.4146 78.0488L87.4146 84.2927L81.1707 84.2927L81.1707 78.0488ZM65.561 78.0488L71.8049 78.0488L71.8049 84.2927L65.561 84.2927L65.561 78.0488Z" id="Forma" fill="#546E7A" fill-rule="evenodd" stroke="none" />
      <path d="M128 34.3414L84.2927 0L76.3505 23.5895L128 34.3414Z" id="Forma" fill="#84FFFF" stroke="none" />
      <path d="M84.2927 0L6.2439 21.8537L0 40.5854L76.3504 23.5895L84.2927 0Z" id="Forma" fill="#00E5FF" stroke="none" />
      <path d="M128 34.3414L76.3505 23.5895L80.9554 57.6187L128 34.3414Z" id="Forma" fill="#00B0FF" stroke="none" />
      <path d="M0 40.5853L76.3504 23.5895L80.9553 57.6187L3.12195 62.439L0 40.5853Z" id="Forma" fill="#0091EA" stroke="none" />
      <path d="M128 34.3414L80.9554 57.6187L96.7805 78.0488L128 34.3414Z" id="Forma" fill="#1976D2" stroke="none" />
      <path d="M3.12205 62.439L80.9554 57.6187L96.7806 78.0488L15.6098 78.0488L3.12205 62.439Z" id="Forma" fill="#0D47A1" stroke="none" />
    </g>
  </g>
</svg>
