<?xml version="1.0" encoding="utf-8"?>
<svg width="128" height="128" viewBox="0 0 128 128" xmlns="http://www.w3.org/2000/svg">
<g fill="none" stroke-width="6"><g stroke="#78909C">
<path d="M0 0L0 18C0 22 3 25 7 25" transform="translate(25 92)"/>
<path d="M0 0L0 18C0 22 3 25 7 25" transform="translate(41 92)"/>
<path d="M0 0L0 18C0 22 3 25 7 25" transform="translate(69 92)"/>
<path d="M0 0L0 18C0 22 3 25 7 25" transform="translate(85 92)"/>
</g><g stroke="#546E7A">
<line x1="25" y1="92" x2="25" y2="98"/>
<line x1="41" y1="92" x2="41" y2="98"/>
<line x1="69" y1="92" x2="69" y2="98"/>
<line x1="85" y1="92" x2="85" y2="98"/>
</g></g><g transform="translate(4 16)">
<path d="M16 0L92 0L80 20L0 20Z" fill="#00E5FF"/>
<path d="M0 20L76 20L76 56L0 56Z" fill="#0091EA"/>
<path d="M0 56L76 56L92 76L16 76Z" fill="#0D47A1"/>
<path d="M124 38L76 56L92 76Z" fill="#1976D2"/>
<path d="M124 38L76 20L76 56Z" fill="#00B0FF"/>
<path d="M124 38L92 0L76 20Z" fill="#84FFFF"/>
</g></svg>
