<?xml version="1.0" encoding="utf-8"?>
<svg width="128" height="128" viewBox="0 0 128 128" fill="none" xmlns="http://www.w3.org/2000/svg">
  <defs>
    <radialGradient id="gradient_1" gradientUnits="userSpaceOnUse" cx="0" cy="0" r="1" gradientTransform="matrix(61 0 0 60.676 74 32)">
      <stop offset="0" stop-color="#FFB500" />
      <stop offset="0.719" stop-color="#FF8200" />
      <stop offset="1" stop-color="#FF5500" />
    </radialGradient>
    <radialGradient id="gradient_2" gradientUnits="userSpaceOnUse" cx="0" cy="0" r="1" gradientTransform="matrix(87 0 0 78.149 81 45.09)">
      <stop offset="0" stop-color="#BA8962" />
      <stop offset="0.607" stop-color="#774C3A" />
      <stop offset="1" stop-color="#511E1D" />
    </radialGradient>
    <filter color-interpolation-filters="sRGB" x="-122" y="-114.09" width="124" height="116.09" id="filter_3">
      <feFlood flood-opacity="0" result="BackgroundImageFix_1" />
      <feColorMatrix type="matrix" values="0 0 0 0 0 0 0 0 0 0 0 0 0 0 0 0 0 0 1 0" in="SourceAlpha" />
      <feOffset dx="0" dy="3" />
      <feColorMatrix type="matrix" values="0 0 0 0 0 0 0 0 0 0 0 0 0 0 0 0 0 0 0.298 0" />
      <feBlend mode="normal" in2="BackgroundImageFix_1" result="Shadow_2" />
      <feBlend mode="normal" in="SourceGraphic" in2="Shadow_2" result="Shape_3" />
    </filter>
    <linearGradient id="gradient_4" gradientUnits="userSpaceOnUse" x1="-1.962" y1="-3.954" x2="49.038" y2="27.046">
      <stop offset="0" stop-color="#754A39" stop-opacity="0" />
      <stop offset="0.245" stop-color="#7E523E" />
      <stop offset="1" stop-color="#673F2D" />
    </linearGradient>
    <linearGradient id="gradient_5" gradientUnits="userSpaceOnUse" x1="46.972" y1="22.668" x2="-0.028" y2="2.668">
      <stop offset="0" stop-color="#7F543F" />
      <stop offset="0.163" stop-color="#8D6047" />
      <stop offset="0.573" stop-color="#855142" />
      <stop offset="1" stop-color="#6D4330" />
    </linearGradient>
    <linearGradient id="gradient_6" gradientUnits="userSpaceOnUse" x1="18.651" y1="14.011" x2="19.346" y2="6.644">
      <stop offset="0" stop-color="#500F0F" stop-opacity="0.537" />
      <stop offset="1" stop-color="#5B133E" stop-opacity="0" />
    </linearGradient>
  </defs>
    <path id="circle" d="M0 60C0 26.8629 26.8629 0 60 0C93.1371 0 120 26.8629 120 60C120 93.1371 93.1371 120 60 120C26.8629 120 0 93.1371 0 60Z" fill="url(#gradient_1)" fill-rule="evenodd" transform="translate(4 4)" />
    <g id="fox" transform="translate(2 8.9)">
      <path id="backs" d="M57.0435 0C57.0435 0 0 66.8253 0 66.8253C16.9999 72.2505 27.464 61.8231 39.2352 52.7399C45.2654 44.605 48.0162 48.4458 52.2351 29.2397C59.2053 11.8369 57.0435 0 57.0435 0Z" fill="#4E1214" fill-rule="evenodd" transform="translate(66.265 44.851)" />
      <path id="body" d="M105.982 92.2286C119.435 78.9531 126.231 62.8328 123.344 44.7605C123.368 44.9571 124.454 54.1605 120.112 63.5707C122.001 55.2507 122.657 44.8992 118.428 34.5098C113.247 21.7787 109.776 16.8013 105.7 10.5129C102.553 5.65622 100.188 2.00723 100.188 0C98.9749 1.41241 98.0143 3.51248 97.48 6.03903C95.8215 12.1059 97.1811 24.0634 98.9094 30.7487C92.407 24.2616 88.0036 22.0175 85.5 22.4813C82.2692 23.0799 79.4898 28.4207 82 31.4641C84.3989 34.3725 86.151 36.5529 87.6643 39.0785C90.4135 43.6667 92.7861 49.6788 92.7861 55.9777C92.7861 71.7031 80.07 84.4597 64.3552 84.5342C64.3091 84.5344 64.263 84.5346 64.2168 84.5346C62.0668 84.5359 59.923 84.2946 57.8267 83.8165C50.615 82.4419 46.3551 78.8745 44.1464 76.3347C44.0751 76.2528 44.006 76.172 43.939 76.0922C42.7105 74.6305 42.1884 73.5656 42.1882 73.5656C48.8582 75.9553 56.2332 75.4555 60.7185 72.9781C61.2544 72.6808 61.7651 72.3927 62.2531 72.117C62.3228 72.0776 62.3921 72.0385 62.4608 71.9996C65.9695 70.0158 68.2736 68.7132 70.1918 69.3467C72.2429 70.0301 73.9016 68.2126 72.8139 66.1745C72.7413 66.0386 72.6566 65.9017 72.559 65.7646C71.0282 63.5733 67.0441 60.4353 61.1292 61.3044C59.8633 61.4888 58.6276 61.873 57.3737 62.2626C54.1456 63.266 50.8007 64.3055 46.5305 62.0648C46.1487 61.8664 45.7775 61.6488 45.4179 61.412L46.3003 61.5009C45.2911 61.0092 43.6012 60.0104 42.8401 59.4768C42.7313 59.4006 42.6416 59.3338 42.5754 59.2795L43.3816 59.4881C38.8179 56.1199 38.4805 53.6521 38.6007 51.9172C38.6179 51.6693 38.6444 51.4364 38.6693 51.218C38.6812 51.1152 39.9606 45.1345 44.9299 41.7336C45.2612 41.5069 45.609 41.2916 45.9738 41.0903C50.4955 38.5954 53.3327 37.7035 56.1583 35.9177C56.562 35.6625 56.9655 35.3892 57.3735 35.0903C60.3595 32.9035 61.3285 31.0068 62.0001 29.0903C63.0985 25.9561 63.0646 24.6277 63.01 22.4901L63.01 22.4899L63.0001 22.0903C62.9568 20.251 61.8363 19.688 60.7185 19.5903C58.1597 19.3666 54.6056 19.2091 52.1115 18.5903C48.2094 17.6222 48.9793 16.4231 42.5754 15.4983C37.5065 14.7662 28.4863 14.8336 21.824 17.5903C9.40747 22.728 2.81751 35.9912 0.482422 44.3188C1.39124 42.3286 2.4563 40.4133 3.66663 38.5914C3.83948 38.3312 4.01538 38.0728 4.19421 37.8164C2.25256 42.2369 0.37561 49.179 0 59.8689C0.412598 57.9336 0.925415 56.0207 1.5365 54.1386C1.62378 53.8697 1.71314 53.6015 1.80444 53.3339C1.46924 60.4622 2.29907 69.3 6.80542 79.2712C9.48035 85.1362 14.7804 97.3687 30.7 106.5C43 113.42 52.6264 116.09 64.0269 116.09C81.6022 116.09 89.411 110.954 92.2169 108.386C93.1522 107.53 93.5318 106.959 93.5318 106.959L93.4651 107.008C93.7669 106.724 94.058 106.43 94.3383 106.125C94.357 106.104 94.3755 106.084 94.3941 106.064C91.2486 109.034 84.5742 109.578 80.8997 109.504C80.3748 109.493 79.9109 109.47 79.5275 109.439L79.9761 109.306L79.7793 109.39C80.6756 109.191 110.41 102.462 115.585 85.7046C115.93 84.5889 116.166 83.4289 116.276 82.2237C116.23 82.6218 115.438 87.8925 105.982 92.2286L105.982 92.2286Z" fill="url(#gradient_2)" fill-rule="evenodd" filter="url(#filter_3)" />
      <path id="belly" d="M72.9674 0C71.8588 1.40406 70.9817 3.39988 70.4801 5.77152C68.8216 11.8384 70.1811 23.7959 71.9095 30.4813C65.4071 23.9942 61.0036 21.75 58.5001 22.2138C55.2692 22.8124 52.4898 28.1532 55.0001 31.1966C57.399 34.105 59.151 36.2855 60.6644 38.811C63.4135 43.3993 65.7862 49.4114 65.7862 55.7103C65.7862 56.803 65.7248 57.8815 65.6053 58.9423C64.0044 73.1474 51.978 84.1975 37.3553 84.2668L37.2168 84.2672C35.8046 84.268 34.3952 84.1642 33 83.9574C32.2712 83.8493 31.5461 83.7132 30.8267 83.5491C23.615 82.1745 19.3551 78.6071 17.1464 76.0673C17.0751 75.9854 17.006 75.9045 16.939 75.8248C15.7105 74.3631 15.1884 73.2982 15.1882 73.2982C21.5133 75.5644 28.4723 75.2321 33 73.079C33.0044 73.0769 33.009 73.0748 33.0133 73.0727C33.2557 72.9572 33.4908 72.8365 33.7186 72.7107C34.2544 72.4135 34.7652 72.1254 35.2531 71.8496L35.4609 71.7322C35.6801 71.6082 35.8947 71.4869 36.1048 71.3686C39.256 69.5931 41.3935 68.4854 43.1918 69.0793C45.243 69.7627 46.9017 67.9452 45.8139 65.9071C45.8049 65.8902 45.7956 65.8731 45.7862 65.8561C45.72 65.737 45.6444 65.6172 45.559 65.4972C45.5111 65.4288 45.4609 65.3594 45.4084 65.2892C43.8055 63.1512 39.9937 60.2955 34.424 60.9968C34.3262 61.0091 34.2281 61.0225 34.1292 61.037C32.8633 61.2214 31.6276 61.6056 30.3737 61.9953C27.1457 62.9986 23.8007 64.0382 19.5305 61.7974C19.1487 61.599 18.7775 61.3814 18.4179 61.1446L19.3003 61.2335C18.2912 60.7418 16.6012 59.743 15.8401 59.2094C15.7313 59.1332 15.6416 59.0664 15.5755 59.0121L16.3816 59.2207C11.8179 55.8525 11.4805 53.3847 11.6007 51.6497C11.6179 51.4019 11.6444 51.169 11.6693 50.9506C11.6812 50.8478 12.9606 44.8671 17.93 41.4662C8.86963 45.3969 0 53.4163 0 67.8228C0 84.7892 14.729 98.5721 33 98.8195L33 98.8236C33.1363 98.8236 33.2725 98.8233 33.4081 98.8227C33.4388 98.8228 33.4694 98.8229 33.5 98.8229C33.7569 98.8229 34.013 98.8202 34.2677 98.8149C59.8304 98.4599 72.7386 85.94 79.0001 61.9952C83.5544 44.5787 82.1252 32.622 76.9455 21.8365C73.9118 15.5194 72.2475 9.82789 72.9674 0L72.9674 0Z" fill="#FEFEFD" fill-rule="evenodd" transform="translate(27 0.268)" />
      <path id="arm" d="M1.53827 16.0457C3.26736 21.6051 12.327 30.8558 18.227 32.5219C24.5522 34.7881 31.5114 34.4559 36.039 32.3027C36.0434 32.3006 36.048 32.2985 36.0523 32.2964C36.2947 32.1809 36.5299 32.0602 36.7577 31.9344C37.2934 31.6372 37.8043 31.3491 38.2922 31.0733L38.5 30.956C38.7193 30.832 38.9339 30.7106 39.1438 30.5922C42.2952 28.8168 44.4328 27.709 46.231 28.3029C48.2823 28.9863 49.9409 27.1688 48.8532 25.1305C48.8442 25.1136 48.8349 25.0965 48.8255 25.0795C48.7594 24.9605 48.6838 24.8407 48.5984 24.7207C48.5505 24.6522 48.5003 24.5828 48.4477 24.5126C46.8447 22.3746 43.033 19.5188 37.4631 20.2201C37.3653 20.2324 37.2671 20.2458 37.1682 20.2603C35.9023 20.4448 34.6666 20.8289 33.4126 21.2186C30.1846 22.222 26.8395 23.2616 22.5694 21.0208C22.1875 20.8224 21.8164 20.6048 21.4567 20.3679L22.3391 20.4569C21.33 19.9651 19.64 18.9663 18.8789 18.4327C18.7701 18.3565 18.6804 18.2897 18.6142 18.2353L19.4204 18.444C14.8566 15.0757 14.5192 12.6078 14.6395 10.8728C8.9894 -5.13965 -4.54321 -3.5076 1.53827 16.0457Z" fill="url(#gradient_4)" fill-rule="evenodd" transform="translate(23.962 41.045)" />
      <path id="leg" d="M39.084 41.1483C33.1428 26.1485 25.7741 16.927 21.9718 12.6678C13.1882 2.82874 7.46867 -0.49659 4.47173 0.0586529C1.24088 0.657228 -1.53855 5.99808 0.971672 9.04146C3.37058 11.9499 5.12273 14.1303 6.63598 16.6559C9.38517 21.2442 11.7579 27.2563 11.7579 33.5553C11.7579 49.3269 15.5769 69.0872 24.9717 69.6677C31.9513 64.3839 40.2275 44.9011 39.084 41.1483Z" fill="url(#gradient_5)" fill-rule="evenodd" transform="translate(81.028 22.423)" />
      <path id="arm" d="M11.627 12.1721C18.0576 14.4109 25.5491 14.0179 30.0343 11.5405C33.0368 9.86879 36.8885 7.19103 39.2588 7.85215C37.2066 7.04063 35.6528 6.66175 33.783 6.5696C33.4649 6.5696 33.0829 6.56255 32.7361 6.52736C32.0514 6.52544 31.3673 6.56319 30.6871 6.63999C29.5295 6.74623 28.2464 7.47648 27.0798 7.35935C27.0165 7.35295 28.2112 6.86847 28.1139 6.89088C27.4958 7.01952 26.8245 7.04704 26.1148 7.13535C25.6637 7.18528 25.2759 7.24224 24.8286 7.2608C11.4338 8.39679 0.113552 0 0.113552 0C-0.849531 3.24608 4.42726 9.66528 11.627 12.1721C11.627 12.1721 11.627 12.1721 11.627 12.1721Z" fill="url(#gradient_6)" fill-rule="evenodd" transform="translate(30.654 61.446)" />
    </g>
</svg>