<?xml version="1.0" encoding="utf-8"?>
<svg width="128" height="128" viewBox="0 0 128 128" fill="none" xmlns="http://www.w3.org/2000/svg">
  <defs>
    <radialGradient id="gradient_1" gradientUnits="userSpaceOnUse" cx="0" cy="0" r="1" gradientTransform="matrix(61 0 0 60.676 74 32)">
      <stop offset="0" stop-color="#FFB500" />
      <stop offset="0.72" stop-color="#FF8200" />
      <stop offset="1" stop-color="#FF5500" />
    </radialGradient>
    <linearGradient id="gradient_2" gradientUnits="userSpaceOnUse" x1="7.165" y1="0" x2="7.165" y2="38.966">
      <stop offset="0" stop-color="#521E1D" />
      <stop offset="1" stop-color="#784D3B" />
    </linearGradient>
    <radialGradient id="gradient_3" gradientUnits="userSpaceOnUse" cx="0" cy="0" r="1" gradientTransform="matrix(0 60 -60.647 0 60 52)">
      <stop offset="0.72" stop-color="#784D3B" />
      <stop offset="1" stop-color="#521E1D" />
    </radialGradient>
    <linearGradient id="gradient_4" gradientUnits="userSpaceOnUse" x1="0" y1="12.333" x2="58.153" y2="11.333">
      <stop offset="0" stop-color="#784D3B" />
      <stop offset="1" stop-color="#521E1D" />
    </linearGradient>
    <linearGradient id="gradient_5" gradientUnits="userSpaceOnUse" x1="28" y1="9.223" x2="10" y2="62.223">
      <stop offset="0" stop-color="#784D3B" />
      <stop offset="1" stop-color="#521E1D" />
    </linearGradient>
  </defs>
  <g>
    <path d="M0 60C0 26.8629 26.8629 0 60 0C93.1371 0 120 26.8629 120 60C120 93.1371 93.1371 120 60 120C26.8629 120 0 93.1371 0 60Z" fill="url(#gradient_1)" fill-rule="evenodd" transform="translate(4 4)" />
    <path d="M45 90C66.9042 90 85.1531 74.3499 89.175 53.6214C81.8895 66.7461 66.6007 75 45 75C27.9994 75 15 61.5691 15 45.0005C15 28.4317 27.9997 14.001 40 11.0001C47.8191 9.04485 49.906 4.22578 49.9968 0.274294C48.3562 0.0930462 46.689 0 45 0C20.1472 0 0 20.1472 0 45C0 69.8528 20.1472 90 45 90L45 90Z" fill="#FDFDFD" fill-rule="evenodd" transform="translate(19 19)" />
    <path d="M7.39253 1.88825C13.9794 12.4252 15.8763 23.748 13.0832 35.8564C12.8349 36.9327 12.2424 37.7636 11.3058 38.3491C10.3692 38.9346 9.36272 39.1032 8.28642 38.8549C7.21011 38.6066 6.3792 38.0142 5.7937 37.0776C5.2082 36.1409 5.03959 35.1345 5.28787 34.0582C7.58446 24.1024 6.0248 14.7926 0.608917 6.12883C0.327744 5.67905 0.143333 5.19258 0.055687 4.66944C-0.0319519 4.1463 -0.0161514 3.6263 0.103081 3.10944C0.222305 2.59258 0.43589 2.1182 0.743835 1.68631C1.05178 1.25443 1.43065 0.897898 1.88043 0.616732C2.81705 0.031229 3.82352 -0.137383 4.89982 0.110895C5.97612 0.359175 6.80703 0.951626 7.39253 1.88825L7.39253 1.88825Z" fill="url(#gradient_2)" fill-rule="evenodd" transform="translate(98.999 29.259)" />
    <path d="M109 41C109 25 103.371 9.79321 90 0.026968C107.934 10.4013 120 30.0002 120 52.0005C120 85.0009 93 112 60 112C26.9999 112 0 85.0009 0 52.0005C0 25.1136 19 0 43 0C46 0 49.033 0.0028019 52 1C54 1.99999 59 5.00005 63 5.00005C64 5.00005 65 6.00377 65 7.00008C65 7.091 64.9989 7.18242 64.9968 7.27429C63.3562 7.09304 61.689 7 60 7C35.1472 7 15 27.1472 15 52C15 76.8528 35.1472 97 60 97C81.9042 97 100.153 81.3499 104.175 60.6214C107.345 54.9103 109 48.2769 109 41L109 41Z" fill="url(#gradient_3)" fill-rule="evenodd" transform="translate(4 12)" />
    <path d="M34.2883 18.3332C41.8422 18.3332 48.744 15.5413 54.0182 10.9332C54.0182 10.9332 56.8384 8.38334 60.2883 11.8332C63.2825 14.8273 60.9268 17.8418 60.9268 17.8418C52.8755 26.7417 41.2349 32.3332 28.2882 32.3332C18.6682 32.3332 9.76927 29.246 2.52811 24.0082C2.52811 24.0082 -1.01581 19.3188 0.288204 10.9331C1.41282 3.70109 6.6413 0 6.6413 0C11.193 10.7731 21.8578 18.3332 34.2883 18.3332L34.2883 18.3332Z" fill="url(#gradient_4)" fill-rule="evenodd" transform="translate(16.712 44.667)" />
    <path d="M37.5381 0C38.495 4.25446 39 8.67993 39 13.2234C39 36.8451 25.3495 57.2786 5.50652 67.0658C1.99402 60.5678 0 53.1284 0 45.2234C0 22.7089 16.1748 3.97233 37.5381 0L37.5381 0Z" fill="url(#gradient_5)" fill-rule="evenodd" transform="translate(85 50.777)" />
    <path d="M7.00001 0.115914C3.39628 -0.345265 0.269596 0.61095 0.0163612 2.25168C-0.236874 3.89241 2.47924 5.59635 6.08296 6.05753C6.08296 6.05753 4.85941 4.49812 4.94193 3C5.03631 1.2868 7.00001 0.115914 7.00001 0.115914Z" fill="#D3D3D3" fill-rule="evenodd" transform="translate(35 15)" />
    <path d="M-3.8147e-06 4.11673C0 1.84312 2.46243 0 5.5 -9.53674e-07C8.53757 -9.53674e-07 11 1.84312 11 4.11673C11 6.39034 8.53757 8.23346 5.5 8.23346C2.46244 8.23346 0 6.39034 -3.8147e-06 4.11673Z" fill="#FDFDFD" fill-rule="evenodd" transform="matrix(0.974 0.225 -0.225 0.974 50.927 14.852)" />
    <path d="M0 1.5C0 0.671574 0.895432 0 2 0C3.10457 0 4 0.671574 4 1.5C4 2.32843 3.10457 3 2 3C0.895432 3 0 2.32843 0 1.5Z" fill="#1D1C1F" fill-rule="evenodd" transform="translate(52 17)" />
  </g>
</svg>