<?xml version="1.0" encoding="utf-8"?>
<svg width="128" height="128" viewBox="0 0 128 128" xmlns="http://www.w3.org/2000/svg">
<path d="M114 78.8L97.63 60L114 41.2L89.745 36.3636L92.17 11.515L69.734 21.212L57 0L44.266 21.212L21.83 11.5152L24.2553 36.3636L0 41.212L16.3723 60L0 78.8L24.2553 83.6364L21.83 108.485L44.266 98.8L57 120L69.734 98.8L92.17 108.485L89.745 83.6364L114 78.8Z" fill="#DD1100" transform="translate(7 4)"/>
<path d="M55.8 17C55.8 17 50.33 20.6 41.84 20.6C33.35 20.6 28.5 17 28.5 17C28.5 17 29.713 23 27.9 30.9C26.0745 35.7576 23.65 39.4 20 42.4243C20 42.4243 27.3 43.6364 32.745 47.273C38.2 51.515 41.84 58.8 41.84 58.8C41.84 58.8 44.87 51.5 50.33 47.9C55.8 43.6364 63.6702 43 63.67 43C63.67 43 58.2 36.3637 55.8 30.9C53.36 24.85 55.8 17 55.8 17C55.8 17 55.8 17 55.8 17ZM47.9 43.6364C44.266 46.0606 41.84 50.3 41.84 50.3C41.84 50.3 35.7766 43.6364 35.7766 43.6364C35.7766 43.6364 27.9 40.606 27.9 40.6C27.9 40.606 30.9255 36.3636 32.14 32.1212C33.3511 29.7 33.3511 26.6667 33.3511 23.6364C33.35 23.636 37.5957 25.4545 41.84 25.4545C45.48 25.4545 50.33 23.6364 50.33 23.6364C50.33 23.636 49.117 28.5 50.9362 32.7273C52.15 36.3636 55.7872 40.606 55.8 40.606C55.8 40.606 47.9 43.6364 47.9 43.6364C47.9043 43.6364 47.9 43.6364 47.9043 43.6364ZM64.9 27.2727C63.67 23 67.9 0 67.9 0C67.9 0 52.15 10.9 41.234 10.9C30.32 10.9 15.766 0 15.766 0C15.766 0 20.617 16.3636 17.6 27.2727C15.16 37.5758 0 49.7 0 49.7C0 49.7 19.4 50.3 26.7 55.7576C34.5638 60.606 41.84 80 41.84 80C41.84 80 51.543 58.8 55.8 55.7576C60 52.7273 83.7 49.1 83.7 49.1C83.7 49.1 66.7 32.1212 64.9 27.2727C64.883 27.2727 64.883 27.2727 64.883 27.2727ZM53.36 52.1212C45.4787 57 41.84 69.1 41.84 69.1C41.84 69.1 35.7766 55.7576 29.713 51.515C23.65 47.2727 10.3085 46.0606 10.3 46.0606C10.3085 46.0606 20.617 37.5757 23 29.1C25.47 21.2121 22.4362 9.1 22.4362 9.1C22.4362 9.1 33.35 15.7575 41.234 15.7575C49.7234 15.7575 61.245 9.1 61.245 9.1C61.245 9.1 57.6064 21.8182 60.6383 29.1C63.064 37 73.3723 46.0606 73.3723 46.0606C73.3723 46.0606 61.2447 46.6666 53.3617 52.1212C53.3617 52.1212 53.36 52.12 53.36 52.12Z" fill="#FFFFFF" transform="translate(22 28)"/>
</svg>
