<?xml version="1.0" encoding="utf-8"?>
<svg width="128" height="128" viewBox="0 0 128 128" fill="none" xmlns="http://www.w3.org/2000/svg">
<path d="M114 78.7879L97.6277 60L114 41.2121L89.7447 36.3636L92.1702 11.5152L69.734 21.2121L57 0L44.266 21.2121L21.8298 11.5152L24.2553 36.3636L0 41.2121L16.3723 60L0 78.7879L24.2553 83.6364L21.8298 108.485L44.266 98.7879L57 120L69.734 98.7879L92.1702 108.485L89.7447 83.6364L114 78.7879Z" fill="#DD1100" transform="translate(7 4)"/>
<path d="M55.7872 16.9697C55.7872 16.9697 50.3298 20.6061 41.8404 20.6061C33.3511 20.6061 28.5 16.9697 28.5 16.9697C28.5 16.9697 29.7128 23.0303 27.8936 30.9091C26.0745 35.7576 23.6489 39.394 20.0107 42.4243C20.0107 42.4243 27.2872 43.6364 32.7447 47.2728C38.2021 51.5152 41.8404 58.7879 41.8404 58.7879C41.8404 58.7879 44.8724 51.5152 50.3298 47.8788C55.7872 43.6364 63.6702 43.0303 63.6702 43.0303C63.6702 43.0303 58.2128 36.3637 55.7872 30.9091C53.3617 24.8485 55.7872 16.9697 55.7872 16.9697C55.7872 16.9697 55.7872 16.9697 55.7872 16.9697ZM47.9043 43.6364C44.266 46.0606 41.8404 50.303 41.8404 50.303C41.8404 50.303 35.7766 43.6364 35.7766 43.6364C35.7766 43.6364 27.8936 40.606 27.8936 40.606C27.8936 40.606 30.9255 36.3636 32.1383 32.1212C33.3511 29.697 33.3511 26.6667 33.3511 23.6364C33.3511 23.6364 37.5957 25.4545 41.8404 25.4545C45.4787 25.4545 50.3298 23.6364 50.3298 23.6364C50.3298 23.6364 49.117 28.4848 50.9362 32.7273C52.1489 36.3636 55.7872 40.606 55.7872 40.606C55.7872 40.606 47.9043 43.6364 47.9043 43.6364C47.9043 43.6364 47.9043 43.6364 47.9043 43.6364ZM64.883 27.2727C63.6702 23.0303 67.9149 0 67.9149 0C67.9149 0 52.1489 10.9091 41.234 10.9091C30.3192 10.9091 15.766 0 15.766 0C15.766 0 20.617 16.3636 17.5851 27.2727C15.1596 37.5758 0 49.697 0 49.697C0 49.697 19.4043 50.303 26.6809 55.7576C34.5638 60.6061 41.8404 80 41.8404 80C41.8404 80 51.5426 58.7879 55.7872 55.7576C60.0319 52.7273 83.6809 49.0909 83.6809 49.0909C83.6809 49.0909 66.7021 32.1212 64.883 27.2727C64.883 27.2727 64.883 27.2727 64.883 27.2727ZM53.3617 52.1212C45.4787 56.9697 41.8404 69.0909 41.8404 69.0909C41.8404 69.0909 35.7766 55.7576 29.7128 51.5151C23.6489 47.2727 10.3085 46.0606 10.3085 46.0606C10.3085 46.0606 20.617 37.5757 23.0425 29.0909C25.4681 21.2121 22.4362 9.09088 22.4362 9.09088C22.4362 9.09088 33.3511 15.7575 41.234 15.7575C49.7234 15.7575 61.2447 9.09088 61.2447 9.09088C61.2447 9.09088 57.6064 21.8182 60.6383 29.0909C63.0638 36.9697 73.3723 46.0606 73.3723 46.0606C73.3723 46.0606 61.2447 46.6666 53.3617 52.1212C53.3617 52.1212 53.3617 52.1212 53.3617 52.1212Z" fill="#FFFFFF" transform="translate(22.028 28)"/>
</svg>