<?xml version="1.0" encoding="utf-8"?>
<svg width="128px" height="128px" viewBox="0 0 128 128" version="1.1" xmlns:xlink="http://www.w3.org/1999/xlink" xmlns="http://www.w3.org/2000/svg">
  <defs>
    <linearGradient gradientUnits="objectBoundingBox" x1="0.025802702" y1="0.53281355" x2="1.0265014" y2="0.53281355" id="gradient_1">
      <stop offset="0%" stop-color="#0C59A4" />
      <stop offset="100%" stop-color="#114A8B" />
    </linearGradient>
    <radialGradient gradientUnits="objectBoundingBox" cx="57.831852%" cy="54.155304%" fx="57.831852%" fy="54.155304%" r="61.96692%" gradientTransform="translate(0.57831854,0.541553),scale(1,0.95),translate(-0.57831854,-0.541553)" id="gradient_2">
      <stop offset="70%" stop-color="#000000" stop-opacity="0" />
      <stop offset="90%" stop-color="#000000" stop-opacity="0.5019608" />
      <stop offset="100%" stop-color="#000000" />
    </radialGradient>
    <linearGradient gradientUnits="objectBoundingBox" x1="0.93293947" y1="0.27188092" x2="0.2724264" y2="0.85558254" id="gradient_3">
      <stop offset="0%" stop-color="#1B9DE2" />
      <stop offset="19.999998%" stop-color="#1595DF" />
      <stop offset="70%" stop-color="#0680D7" />
      <stop offset="100%" stop-color="#0078D4" />
    </linearGradient>
    <radialGradient gradientUnits="objectBoundingBox" cx="44.54477%" cy="74.98955%" fx="44.54477%" fy="74.98955%" r="85.1216%" gradientTransform="translate(0.44544768,0.74989545),scale(0.81057626,0.81057626),rotate(-81.38728),scale(1,1.2170355),translate(-0.44544768,-0.74989545)" id="gradient_4">
      <stop offset="79.99999%" stop-color="#000000" stop-opacity="0" />
      <stop offset="90%" stop-color="#000000" stop-opacity="0.5019608" />
      <stop offset="100%" stop-color="#000000" />
    </radialGradient>
    <radialGradient gradientUnits="objectBoundingBox" cx="11.909819%" cy="30.707825%" fx="11.909819%" fy="30.707825%" r="118.89728%" gradientTransform="translate(0.11909819,0.30707824),rotate(92.2898),scale(1,0.944453),translate(-0.11909819,-0.30707824)" id="gradient_5">
      <stop offset="0%" stop-color="#35C1F1" />
      <stop offset="9.999999%" stop-color="#34C1ED" />
      <stop offset="19.999998%" stop-color="#2FC2DF" />
      <stop offset="30.000002%" stop-color="#2BC3D2" />
      <stop offset="70%" stop-color="#36C752" />
    </radialGradient>
    <radialGradient gradientUnits="objectBoundingBox" cx="95.567345%" cy="48.30746%" fx="95.567345%" fy="48.30746%" r="57.11044%" gradientTransform="translate(0.95567346,0.4830746),rotate(73.745094),scale(1,0.3863527),translate(-0.95567346,-0.4830746)" id="gradient_6">
      <stop offset="0%" stop-color="#66EB6E" />
      <stop offset="100%" stop-color="#66EB6E" stop-opacity="0" />
    </radialGradient>
    <path d="M128 0L128 0L128 128L0 128L0 0L128 0Z" id="path_1" />
    <clipPath id="clip_1">
      <use xlink:href="#path_1" clip-rule="evenodd" fill-rule="evenodd" />
    </clipPath>
  </defs>
  <g id="com.microsoft.Edge">
    <path d="M128 0L128 0L128 128L0 128L0 0L128 0Z" id="com.microsoft.Edge" fill="none" stroke="none" />
    <g id="edge" transform="translate(4 4)" clip-path="url(#clip_1)">
      <path d="M108.328 89.3277C106.719 90.1642 105.06 90.9003 103.359 91.5316C97.976 93.536 92.2754 94.5526 86.5312 94.5326C64.3594 94.5326 45.0469 79.293 45.0469 59.6925C45.1055 54.3484 48.0455 49.4528 52.7344 46.8912C32.6719 47.7352 27.5156 68.6487 27.5156 80.8873C27.5156 115.587 59.4375 119.057 66.3281 119.057C70.0312 119.057 75.6094 117.978 78.9844 116.9L79.5938 116.712C92.5097 112.247 103.52 103.515 110.812 91.9536C111.248 91.2316 111.148 90.3076 110.569 89.6951C109.99 89.0827 109.073 88.9323 108.328 89.3277L108.328 89.3277Z" id="Forma" fill="url(#gradient_1)" stroke="none" />
      <path d="M108.328 89.3277C106.719 90.1642 105.06 90.9003 103.359 91.5316C97.976 93.536 92.2754 94.5526 86.5312 94.5326C64.3594 94.5326 45.0469 79.293 45.0469 59.6925C45.1055 54.3484 48.0455 49.4528 52.7344 46.8912C32.6719 47.7352 27.5156 68.6487 27.5156 80.8873C27.5156 115.587 59.4375 119.057 66.3281 119.057C70.0312 119.057 75.6094 117.978 78.9844 116.9L79.5938 116.712C92.5097 112.247 103.52 103.515 110.812 91.9536C111.248 91.2316 111.148 90.3076 110.569 89.6951C109.99 89.0827 109.073 88.9323 108.328 89.3277L108.328 89.3277Z" id="Forma" fill="url(#gradient_2)" fill-opacity="0.35" stroke="none" />
      <path d="M49.5469 113.148C45.3744 110.556 41.7577 107.161 38.9062 103.161C32.3148 94.1356 30.0491 82.6573 32.7164 71.8034C35.3837 60.9495 42.7113 51.8304 52.7344 46.8912C54.2344 46.1878 56.7187 44.9686 60.0468 45.0155C64.7942 45.0523 69.2512 47.3076 72.0937 51.1114C73.9798 53.6486 75.0136 56.7184 75.0469 59.88C75.0469 59.7863 86.5312 22.5546 37.5469 22.5546C16.9687 22.5546 0.0468608 42.0614 0.0468608 59.2236C-0.0349716 68.2894 1.90256 77.2595 5.71877 85.4827C18.6551 113.038 50.1653 126.542 79.0313 116.9C69.1432 120.024 58.383 118.653 49.5938 113.149L49.5469 113.148Z" id="Forma" fill="url(#gradient_3)" stroke="none" />
      <path d="M49.5469 113.148C45.3744 110.556 41.7577 107.161 38.9062 103.161C32.3148 94.1356 30.0491 82.6573 32.7164 71.8034C35.3837 60.9495 42.7113 51.8304 52.7344 46.8912C54.2344 46.1878 56.7187 44.9686 60.0468 45.0155C64.7942 45.0523 69.2512 47.3076 72.0937 51.1114C73.9798 53.6486 75.0136 56.7184 75.0469 59.88C75.0469 59.7863 86.5312 22.5546 37.5469 22.5546C16.9687 22.5546 0.0468608 42.0614 0.0468608 59.2236C-0.0349716 68.2894 1.90256 77.2595 5.71877 85.4827C18.6551 113.038 50.1653 126.542 79.0313 116.9C69.1432 120.024 58.383 118.653 49.5938 113.149L49.5469 113.148Z" id="Forma" fill="url(#gradient_4)" fill-opacity="0.41" stroke="none" />
      <path d="M71.4375 69.7741C71.0156 70.243 69.8438 70.9464 69.8438 72.4C69.8438 73.6192 70.6406 74.8383 72.0938 75.8231C78.7969 80.5122 91.5 79.8557 91.5469 79.8557C96.544 79.8524 101.449 78.5084 105.75 75.9637C114.561 70.8082 119.983 61.3696 120 51.1583C120.141 40.6547 116.25 33.6679 114.703 30.5731C104.719 11.1601 83.2969 3.00178e-07 60 3.00178e-07C27.1896 -0.00324808 0.461397 26.3582 0 59.1767C0.234375 42.0614 17.25 28.2285 37.5 28.2285C39.1406 28.2285 48.5156 28.3692 57.1875 32.9176C63.2799 35.9461 68.3251 40.7317 71.6719 46.6567C74.5312 51.6272 75.0469 57.9575 75.0469 60.4896C75.0469 63.0218 73.7812 66.7262 71.3906 69.821L71.4375 69.7741Z" id="Forma" fill="url(#gradient_5)" stroke="none" />
      <path d="M71.4375 69.7741C71.0156 70.243 69.8438 70.9464 69.8438 72.4C69.8438 73.6192 70.6406 74.8383 72.0938 75.8231C78.7969 80.5122 91.5 79.8557 91.5469 79.8557C96.544 79.8524 101.449 78.5084 105.75 75.9637C114.561 70.8082 119.983 61.3696 120 51.1583C120.141 40.6547 116.25 33.6679 114.703 30.5731C104.719 11.1601 83.2969 3.00178e-07 60 3.00178e-07C27.1896 -0.00324808 0.461397 26.3582 0 59.1767C0.234375 42.0614 17.25 28.2285 37.5 28.2285C39.1406 28.2285 48.5156 28.3692 57.1875 32.9176C63.2799 35.9461 68.3251 40.7317 71.6719 46.6567C74.5312 51.6272 75.0469 57.9575 75.0469 60.4896C75.0469 63.0218 73.7812 66.7262 71.3906 69.821L71.4375 69.7741Z" id="Forma" fill="url(#gradient_6)" stroke="none" />
    </g>
  </g>
</svg>