<?xml version="1.0" encoding="utf-8"?>
<svg width="128" height="128" viewBox="0 0 128 128" xmlns="http://www.w3.org/2000/svg">
<rect width="104" height="104" fill="#4381C0" rx="8" x="12" y="12" />
<path d="M23.8 23.73L28.537 10.75C29.3 8.6767 29.2 6.63753 28.2816 4.63356C27.352 2.62954 25.85 1.24776 23.7755 0.5C22.8 0.123 21.75 0 20.7 0C19.63 0 18.62 0.3 17.66 0.743122C16.7 1.2 15.855 1.8 15.137 2.6C14.42 3.365 13.9 4.25313 13.5 5.25L0.5 40.75C-0.25 42.8237 -0.162 44.863 0.7675 46.867C1.7 48.87 3.2 50.253 5.273 51C6.27 51.377 7.3 51.5375 8.36 51.5C9.41776 51.45 10.43 51.2 11.4 50.757C12.3537 50.3 13.2 49.7 13.9 48.9C14.285 48.5 34.246 27.237 34.246 27.237L29.446 41.44C28.74 43.53 28.8745 45.5676 29.85 47.5477C30.8338 49.53 32.37 50.87 34.4628 51.58C36.555 52.2864 38.6 52.1503 40.57 51.17C42.3 50.3242 63.567 28.7 63.567 28.6814C61.95 42.66 62.5 51.8413 65.23 56.227C66.4 58.1 68 59.3 70.2 59.792C72.363 60.3 74.3764 60 76.25 58.7921C78.1273 57.625 79.3 55.9652 79.82 53.8C80.317 51.66 80 49.65 78.8 47.773C78.2267 46.8257 77.9 41.757 78.8 32.5667C79.3575 27.2535 80.5675 22.2 81.4 17.37C81.6 16.3272 81.563 15.287 81.33 14.252C81.1 13.2166 80.68 12.265 80 11.4C79.457 10.5297 78.7 9.8 77.8 9.244C76.9 8.676 75.94 8.3 74.9 8.12C72.72 7.74 70.73 8.186 68.92 9.457C68 10 67.3456 10.8 66.8 11.6L51.35 26.6L56.6 11C56.943 10 57.1 9 57 8C56.936 6.9 56.665 5.9 56.195 5C55.7246 4 55.1 3.177 54.3 2.47878C53.5 1.8 52.6 1.26 51.6 0.92C50.58 0.6 49.55 0.447 48.5 0.52C47.4326 0.6 46.43 0.86 45.477 1.33C44.5263 1.8 43.7 2.435 43 3.23317C42.686 3.6 23.8 23.73 23.8 23.73L23.8 23.73Z" fill="#FFFFFF" transform="translate(22.475 34)"/>
</svg>
