<?xml version="1.0" encoding="utf-8"?>
<svg width="128" height="128" viewBox="0 0 128 128" xmlns="http://www.w3.org/2000/svg">
<linearGradient id="corners">
<stop offset="0" stop-color="#14A8A8"/>
<stop offset="5%" stop-color="#7DEEEE"/>
<stop offset="10%" stop-color="#14A8A8"/>
<stop offset="90%" stop-color="#14A8A8"/>
<stop offset="95%" stop-color="#7DEEEE"/>
<stop offset="1" stop-color="#14A8A8"/>
</linearGradient>
<linearGradient id="sky" x1="0" y1="0" x2="0" y2="1">
<stop offset="0" stop-color="#1C71D8"/>
<stop offset="1" stop-color="#31E3E5"/>
</linearGradient>
<radialGradient id="sun" cx="50%" cy="25%">
<stop offset="0" stop-color="#F9F06B"/>
<stop offset="60%" stop-color="#F6D32D"/>
<stop offset="1" stop-color="#FFB91F"/>
</radialGradient>
<rect width="104" height="104" rx="8" x="12" y="12" fill="url(#corners)"/>
<rect width="104" height="100" rx="8" x="12" y="12" fill="url(#sky)"/>
<circle r="22" cx="70" cy="60" fill="url(#sun)"/>
<g stroke="#FFB109" stroke-width="4" stroke-linecap="round">
<line x1="70" y1="28" x2="70" y2="34"/>
<line x1="70" y1="28" x2="70" y2="34" transform="rotate(30 70 60)"/>
<line x1="70" y1="28" x2="70" y2="34" transform="rotate(60 70 60)"/>
<line x1="70" y1="28" x2="70" y2="34" transform="rotate(90 70 60)"/>
<line x1="70" y1="28" x2="70" y2="34" transform="rotate(120 70 60)"/>
<line x1="70" y1="28" x2="70" y2="34" transform="rotate(300 70 60)"/>
<line x1="70" y1="28" x2="70" y2="34" transform="rotate(330 70 60)"/>
</g><g fill="#DCEAFA">
<rect width="58" height="30" rx="15" x="34" y="68"/>
<circle r="22" cx="48" cy="76"/>
</g><g fill="#F6F5F4">
<rect width="58" height="30" rx="15" x="34" y="66"/>
<circle r="22" cx="48" cy="74"/>
</g></svg>
