<?xml version="1.0" encoding="utf-8"?>
<svg width="128" height="128" viewBox="0 0 128 128" xmlns="http://www.w3.org/2000/svg">
<circle r="60" cx="64" cy="64" fill="#000076"/>
<g fill="#19F3FF">
<path d="M54.5602 5.25031C54.5602 3.45612 54.3839 1.7 54.0465 0C54.0465 0 32.527 0 32.527 0C35.2855 3.1751 36.9606 7.3552 36.9606 11.9348C36.9606 21.8679 29.0807 29.92 19.3604 29.92C15.4426 29.92 11.824 28.6117 8.9 26.4C13.714 26.3464 17.6 22.4272 17.6 17.6C17.6 12.7402 13.66 8.8 8.8 8.8C3.94 8.8 0 12.74 0 17.6C0 19.8465 0.841839 21.8963 2.22704 23.4514C7.6702 29.561 15.8 33.44 24.887 33.44C41.2751 33.44 54.5602 20.8191 54.5602 5.25031Z" transform="translate(36.8 71.122)"/>
<path d="M35.2 0C35.2 0 15.84 0 15.84 0L0 14.0798L19.36 14.0798C19.36 14.0798 35.2 0 35.2 0Z" transform="translate(46.48 57.042)"/>
<path d="M1.16632 33.44C0.407757 31.06 0 28.5343 0 25.9188C0 11.6042 12.2149 0 27.2825 0C35.9822 0 43.7308 3.86819 48.7264 9.89284C48.7264 9.89284 48.7264 9.89284 48.7264 9.89284C50.1631 11.4591 51.04 13.5471 51.04 15.8397C51.04 20.7 47.1 24.64 42.24 24.64C37.38 24.64 33.44 20.7 33.44 15.8397C33.44 10.98 37.38 7.03978 42.24 7.03978C42.307 7.03978 42.3738 7.04 42.44 7.04204C39.5345 4.83202 35.9082 3.52 31.9754 3.52C22.4183 3.52 14.671 11.2677 14.671 20.8249C14.671 25.8 16.7697 30.2834 20.13 33.44C20.1303 33.44 1.16632 33.44 1.16632 33.44Z" transform="translate(38.56 23.6)"/>
</g></svg>
