<?xml version="1.0" encoding="utf-8"?>
<svg width="128" height="128" viewBox="0 0 128 128" xmlns="http://www.w3.org/2000/svg">
<defs>
<pattern id="pattern" patternUnits="userSpaceOnUse" width="2" height="2" x="0" y="0">
<circle r="0.5" cx="0.5" cy="0.5" fill="#3D3846" opacity="25%"/>
<circle r="0.5" cx="1.5" cy="1.5" fill="#3D3846" opacity="25%"/>
</pattern>
<linearGradient id="ball" x1="0" y1="0" x2="0" y2="1">
<stop offset="0" stop-color="#9A9996"/>
<stop offset="1" stop-color="#77767B"/>
</linearGradient>
<radialGradient id="earphone">
<stop offset="0" stop-color="#EAE9E7"/>
<stop offset="1" stop-color="#B5B3AD"/>
</radialGradient>
<radialGradient id="cushion">
<stop offset="0" stop-color="#CACAC9"/>
<stop offset="0.5" stop-color="#B0AEAB"/>
<stop offset="1" stop-color="#6C6B66"/>
</radialGradient>
<linearGradient id="white" x1="0" y1="0" x2="0" y2="1">
<stop offset="0" stop-color="#FFFFFF" stop-opacity="0"/>
<stop offset="0.5" stop-color="#FFFFFF" stop-opacity="75%"/>
<stop offset="1" stop-color="#FFFFFF" stop-opacity="0"/>
</linearGradient>
<clipPath id="earphone_left">
<rect width="20" height="48" x="12" y="56"/>
</clipPath>
<clipPath id="earphone_right">
<rect width="20" height="48" x="96" y="56"/>
</clipPath>
<clipPath id="cushion_left">
<rect width="12" height="48" x="32" y="56"/>
</clipPath>
<clipPath id="cushion_right">
<rect width="12" height="48" x="84" y="56"/>
</clipPath>
<clipPath id="mic_left">
<rect width="9" height="18" x="55" y="107"/>
</clipPath>
<clipPath id="mic_right">
<rect width="9" height="18" x="64" y="107"/>
</clipPath>
<filter id="blur">
<feGaussianBlur stdDeviation="1"/>
</filter>
</defs>
<path d="M0 66L0 20C0 9 9 0 20 0L20 14C20 21 26 28 34 28C42 28 48 21 48 14L48 0C59 0 68 9 68 20L68 66" fill="none" stroke="#77767B" stroke-width="4" stroke-linejoin="round" transform="translate(30 14)"/>
<g fill="url(#ball)">
<circle r="16" cx="20" cy="80"/>
<circle r="16" cx="108" cy="80"/>
</g><g fill="url(#pattern)">
<circle r="16" cx="20" cy="80"/>
<circle r="16" cx="108" cy="80"/>
</g><g fill="url(#earphone)">
<circle r="24" cx="28" cy="80" clip-path="url(#earphone_left)"/>
<circle r="24" cx="100" cy="80" clip-path="url(#earphone_right)"/>
</g><g fill="url(#cushion)">
<circle r="24" cx="28" cy="80" clip-path="url(#cushion_left)"/>
<circle r="24" cx="100" cy="80" clip-path="url(#cushion_right)"/>
</g><g stroke="url(#white)" stroke-width="2" stroke-linecap="round" opacity="75%" filter="url(#blur)">
<line x1="41" x2="41.1" y1="64" y2="96"/>
<line x1="87" x2="87.1" y1="64" y2="96"/></g>
<path d="M40 0L40 4C40 8.4 36.4 12 32 12L0 12" fill="none" stroke="#77767B" stroke-width="3" stroke-linecap="round" transform="translate(64 104)"/>
<circle r="9" cx="64" cy="116" fill="url(#ball)" clip-path="url(#mic_left)"/>
<circle r="9" cx="64" cy="116" fill="url(#pattern)" clip-path="url(#mic_left)"/>
<circle r="9" cx="64" cy="116" fill="url(#earphone)" clip-path="url(#mic_right)"/>
</svg>
