<?xml version="1.0" encoding="utf-8"?>
<svg width="128" height="128" viewBox="0 0 128 128" xmlns="http://www.w3.org/2000/svg">
<defs>
<linearGradient id="gradient" x1="0.25" y1="0.1" x2="0.75" y2="0.9">
<stop offset="0" stop-color="#5328E1"/>
<stop offset="1" stop-color="#0F023A"/>
</linearGradient>
</defs>
<circle cx="64" cy="64" r="60" fill="url(#gradient)"/>
<circle cx="88" cy="44" r="3" fill="#D7D4E4"/>
<g fill="none" stroke="#D7D4E4" stroke-width="4" stroke-linecap="round" stroke-linejoin="round">
<path id="mu" d="M0 35L0 12C0 12 0 0 12 0C24 0 24 12 24 12L24 35L24 12C24 12 24 0 36 0C48 0 48 12 48 12L48 23C48 23 48 35 60 35C72 35 72 23 72 23L72 1" transform="translate(28 54)"/>
<path id="fermatta" d="M0 12C0 12 0 0 12 0C24 0 24 12 24 12" transform="translate(76 32)"/>
</g></svg>
