<?xml version="1.0" encoding="utf-8"?>
<svg width="128" height="128" viewBox="0 0 128 128" xmlns="http://www.w3.org/2000/svg">
<defs>
<linearGradient id="blue" x1="0" y1="0" x2="0" y2="1">
<stop offset="0" stop-color="#3232AA"/>
<stop offset="75%" stop-color="#000076"/>
</linearGradient>
<linearGradient id="turquoise" x1="0" y1="0" x2="0" y2="1">
<stop offset="0" stop-color="#00FCFF"/>
<stop offset="1" stop-color="#0088C8"/>
</linearGradient>
<linearGradient id="shine" x1="1" y1="0" x2="0" y2="1">
<stop offset="20%" stop-color="#FFFFFF" stop-opacity="20%"/>
<stop offset="40%" stop-color="#FFFFFF"/>
<stop offset="60%" stop-color="#FFFFFF"/>
<stop offset="80%" stop-color="#FFFFFF" stop-opacity="40%"/>
</linearGradient>
</defs>
<circle r="60" cx="64" cy="64" fill="url(#blue)"/>
<path d="M32.5 48C36 53 37 56 37 61C37 69 30 78 19 78C15 78 12 77 9 75C14 75 18 71 18 66C18 61 14 57 9 57C4 57 0 61 0 66C0 73 13 82 24 82C41 82 54 69 54 56C54 52 53 48 53 48ZM45 34L25 34L9 48L29 48ZM2 34C2 34 1 30 1 26C1 13 14 0 29 0C40 0 53 9 53 16C53 21 49 25 44 25C39 25 35 21 35 16C35 11 39 7 44 7C41 5 37 4 33 4C23 4 16 11 16 21C16 26 18 31 21.5 34Z" fill="url(#turquoise)" transform="translate(37 23)"/>
<circle r="60" cx="64" cy="64" fill="none" stroke="url(#shine)" stroke-width="2" opacity="32%"/>
</svg>
