<?xml version="1.0" encoding="utf-8"?>
<svg width="128" height="128" viewBox="0 0 128 128" fill="none" xmlns="http://www.w3.org/2000/svg">
<defs>
<linearGradient id="gradient" gradientUnits="userSpaceOnUse" x1="0" y1="0" x2="0" y2="120">
<stop offset="0" stop-color="#2E1E47"/>
<stop offset="1" stop-color="#200D3A"/>
</linearGradient>
</defs>
<circle cx="64" cy="64" r="60" fill="url(#gradient)"/>
<path d="M38.45 0L38.24 0C33.74 0 29.631 1.27067 25.9158 3.81201C22.2 6.35335 19.5275 9.72155 17.9 13.9166L0.69346 58.152C0.0853844 59.7156 -0.122787 61.3308 0.07 63C0.26067 64.6642 0.830147 66.19 1.77738 67.5746C2.72461 68.96 3.94017 70.043 5.42405 70.8258C6.908 71.6086 8.48872 72 10.1664 72L10.3762 72C14.8773 72 18.9854 70.73 22.7 68.188C26.4155 65.6467 29.0887 62.2785 30.72 58.0834L47.9228 13.848C48.531 12.2844 48.74 10.67 48.5473 9C48.3556 7.33581 47.7861 5.81 46.84 4.4254C45.9 3.0407 44.6761 1.957 43.1922 1.17417C41.7083 0.3914 40.1275 0 38.45 0L38.45 0Z" fill="#FFFFFF" transform="translate(39.69 28)"/>
</svg>
