<?xml version="1.0" encoding="utf-8"?>
<svg width="128" height="128" viewBox="0 0 128 128" xmlns="http://www.w3.org/2000/svg">
<defs>
<clipPath id="squircle">
<rect width="104" height="104" rx="8" x="12" y="12"/>
</clipPath>
<linearGradient id="gradient" x1="1" y1="0" x2="0" y2="1">
<stop offset="0" stop-color="#FF3705"/>
<stop offset="0.5" stop-color="#F51A4A"/>
</linearGradient>
<linearGradient id="shadow" gradientUnits="userSpaceOnUse" x1="27" y1="0" x2="0" y2="50">
<stop offset="0" stop-color="#000000" stop-opacity="0.2"/>
<stop offset="1" stop-color="#000000" stop-opacity="0"/>
</linearGradient>
</defs>
<g clip-path="url(#squircle)">
<rect width="104" height="104" x="12" y="12" fill="url(#gradient)"/>
<path d="M31 0L0 56L0 90L77 90L98 51Z" fill="url(#shadow)" transform="translate(0 38)"/>
<path d="M6 2C6 1 7 0 8 0L27 0C28 0 29 1 29 2C29 2 30 20 45 20C52 20 51 11 51 11C51 10 52 9 53.0246 9L70 9C71 9 72 10 72 11C72 26 56.5 25 56.5 25C56.5 25 55 24.7 55 26C55 27.5 56.5 28 56.5 28C56.5 28 75 36 75 51C75 52 74 53 73 53L53 53C52 53 51 52 51 51C51 51 48 32 32 32C21 32 21 43 21 43C21 44 20 45 19 45L2 45C1 45 0 44 0 43C0 29 24 27 24 27C24 27 25.5 27 25.5 25.75C25.5 24.5 24 24 24 24C24 24 6 16 6 2Z" fill="#FFFFFF" transform="translate(25 36)"/>
</g></svg>
