<?xml version="1.0" encoding="UTF-8" standalone="no"?>
<svg
   width="128"
   height="128"
   id="svg11300"
   version="1.0"
   style="display:inline;enable-background:new"
   viewBox="0 0 128 128"
   xmlns:xlink="http://www.w3.org/1999/xlink"
   xmlns="http://www.w3.org/2000/svg"
   xmlns:svg="http://www.w3.org/2000/svg"
   xmlns:rdf="http://www.w3.org/1999/02/22-rdf-syntax-ns#"
   xmlns:cc="http://creativecommons.org/ns#"
   xmlns:dc="http://purl.org/dc/elements/1.1/">
  <title
     id="title4162">Adwaita Icon Template</title>
  <defs
     id="defs3">
    <linearGradient
       xlink:href="#linearGradient1"
       id="linearGradient56"
       gradientUnits="userSpaceOnUse"
       x1="-148.80418"
       y1="278.21121"
       x2="-76.804184"
       y2="278.21121" />
    <linearGradient
       id="linearGradient1">
      <stop
         style="stop-color:#9a9996;stop-opacity:1;"
         offset="0"
         id="stop4" />
      <stop
         style="stop-color:#cecdcd;stop-opacity:1;"
         offset="0.06349496"
         id="stop8" />
      <stop
         style="stop-color:#807e7b;stop-opacity:1;"
         offset="0.14786567"
         id="stop9" />
      <stop
         style="stop-color:#9a9996;stop-opacity:1;"
         offset="0.86300796"
         id="stop7" />
      <stop
         style="stop-color:#d2d1cf;stop-opacity:1;"
         offset="0.93532568"
         id="stop6" />
      <stop
         style="stop-color:#b5b5b2;stop-opacity:1;"
         offset="0.971591"
         id="stop10" />
      <stop
         style="stop-color:#dbdbdb;stop-opacity:1;"
         offset="1"
         id="stop5" />
    </linearGradient>
    <linearGradient
       xlink:href="#linearGradient22"
       id="linearGradient57"
       gradientUnits="userSpaceOnUse"
       x1="24"
       y1="223"
       x2="104"
       y2="223" />
    <linearGradient
       id="linearGradient22">
      <stop
         style="stop-color:#3d3846;stop-opacity:1;"
         offset="0"
         id="stop22" />
      <stop
         style="stop-color:#675d75;stop-opacity:1;"
         offset="0.0600097"
         id="stop24" />
      <stop
         style="stop-color:#3d3846;stop-opacity:1;"
         offset="0.11801455"
         id="stop25" />
      <stop
         style="stop-color:#29262f;stop-opacity:1;"
         offset="0.20364076"
         id="stop26" />
      <stop
         style="stop-color:#3d3846;stop-opacity:1;"
         offset="0.34375"
         id="stop28" />
      <stop
         style="stop-color:#27242c;stop-opacity:1;"
         offset="0.5986262"
         id="stop29" />
      <stop
         style="stop-color:#524c5e;stop-opacity:1;"
         offset="0.7754029"
         id="stop30" />
      <stop
         style="stop-color:#3d3846;stop-opacity:1;"
         offset="0.86379123"
         id="stop31" />
      <stop
         style="stop-color:#5f586e;stop-opacity:1;"
         offset="0.9300825"
         id="stop32" />
      <stop
         style="stop-color:#3d3846;stop-opacity:1;"
         offset="1"
         id="stop23" />
    </linearGradient>
    <linearGradient
       xlink:href="#linearGradient33"
       id="linearGradient58"
       gradientUnits="userSpaceOnUse"
       x1="36.05806"
       y1="266.75"
       x2="92.000488"
       y2="266.75" />
    <linearGradient
       id="linearGradient33">
      <stop
         style="stop-color:#2f2b35;stop-opacity:1;"
         offset="0"
         id="stop33" />
      <stop
         style="stop-color:#5c5569;stop-opacity:1;"
         offset="0.02501244"
         id="stop36" />
      <stop
         style="stop-color:#2f2b35;stop-opacity:1;"
         offset="0.0464523"
         id="stop35" />
      <stop
         style="stop-color:#2f2b35;stop-opacity:1;"
         offset="0.95055431"
         id="stop37" />
      <stop
         style="stop-color:#544d60;stop-opacity:1;"
         offset="0.97289866"
         id="stop38" />
      <stop
         style="stop-color:#2f2b35;stop-opacity:1;"
         offset="1"
         id="stop34" />
    </linearGradient>
    <linearGradient
       xlink:href="#linearGradient40"
       id="linearGradient59"
       gradientUnits="userSpaceOnUse"
       x1="69"
       y1="197"
       x2="61.5"
       y2="262" />
    <linearGradient
       id="linearGradient40">
      <stop
         style="stop-color:#a3a2aa;stop-opacity:1;"
         offset="0"
         id="stop39" />
      <stop
         style="stop-color:#cbcace;stop-opacity:0.49678612;"
         offset="1"
         id="stop40" />
    </linearGradient>
    <linearGradient
       xlink:href="#linearGradient19"
       id="linearGradient60"
       gradientUnits="userSpaceOnUse"
       x1="69"
       y1="197"
       x2="61.5"
       y2="262" />
    <linearGradient
       id="linearGradient19">
      <stop
         style="stop-color:#a3a2aa;stop-opacity:1;"
         offset="0"
         id="stop19" />
      <stop
         style="stop-color:#5e5c64;stop-opacity:1;"
         offset="1"
         id="stop20" />
    </linearGradient>
  </defs>
  <metadata
     id="metadata4">
    <rdf:RDF>
      <cc:Work
         rdf:about="">
        <dc:format>image/svg+xml</dc:format>
        <dc:type
           rdf:resource="http://purl.org/dc/dcmitype/StillImage" />
        <dc:creator>
          <cc:Agent>
            <dc:title>GNOME Design Team</dc:title>
          </cc:Agent>
        </dc:creator>
        <dc:source />
        <cc:license
           rdf:resource="http://creativecommons.org/licenses/by-sa/4.0/" />
        <dc:title>Adwaita Icon Template</dc:title>
        <dc:subject>
          <rdf:Bag />
        </dc:subject>
        <dc:date />
        <dc:rights>
          <cc:Agent>
            <dc:title />
          </cc:Agent>
        </dc:rights>
        <dc:publisher>
          <cc:Agent>
            <dc:title />
          </cc:Agent>
        </dc:publisher>
        <dc:identifier />
        <dc:relation />
        <dc:language />
        <dc:coverage />
        <dc:description />
        <dc:contributor>
          <cc:Agent>
            <dc:title />
          </cc:Agent>
        </dc:contributor>
      </cc:Work>
      <cc:License
         rdf:about="http://creativecommons.org/licenses/by-sa/4.0/">
        <cc:permits
           rdf:resource="http://creativecommons.org/ns#Reproduction" />
        <cc:permits
           rdf:resource="http://creativecommons.org/ns#Distribution" />
        <cc:requires
           rdf:resource="http://creativecommons.org/ns#Notice" />
        <cc:requires
           rdf:resource="http://creativecommons.org/ns#Attribution" />
        <cc:permits
           rdf:resource="http://creativecommons.org/ns#DerivativeWorks" />
        <cc:requires
           rdf:resource="http://creativecommons.org/ns#ShareAlike" />
      </cc:License>
    </rdf:RDF>
  </metadata>
  <g
     transform="translate(469.99999,-172)"
     id="g49"
     style="display:inline;enable-background:new">
    <g
       style="stroke-width:0.904534"
       transform="matrix(1.2222219,0,0,1,-268.12825,-10.211197)"
       id="g43">
      <rect
         rx="6.5454564"
         ry="8"
         y="254.2112"
         x="-148.80418"
         style="display:inline;fill:url(#linearGradient56);fill-opacity:1;stroke-width:0.818182;enable-background:new"
         width="72"
         height="48"
         id="rect41" />
      <rect
         rx="6.5454564"
         ry="8"
         y="192.21121"
         x="-148.80418"
         height="88"
         width="72"
         id="rect42"
         style="vector-effect:none;fill:#eeedec;fill-opacity:1;stroke:none;stroke-width:26.612;stroke-linecap:round;stroke-linejoin:round;stroke-miterlimit:4;stroke-dasharray:none;stroke-dashoffset:0;stroke-opacity:1" />
      <rect
         rx="6.5454564"
         ry="8"
         y="190.2112"
         x="-148.80418"
         height="88"
         width="72"
         id="rect43"
         style="vector-effect:none;fill:#deddda;fill-opacity:1;stroke:none;stroke-width:26.612;stroke-linecap:round;stroke-linejoin:round;stroke-miterlimit:4;stroke-dasharray:none;stroke-dashoffset:0;stroke-opacity:1" />
    </g>
    <g
       id="g48"
       transform="translate(0,2)">
      <g
         id="g44"
         transform="matrix(0.8,0,0,0.8,-457.2,35.6)"
         style="fill:#5e5c64;stroke-width:1.25">
        <path
           id="path43"
           style="opacity:1;fill:#3d3846;fill-opacity:0.115983;stroke-width:2.5;stroke-linecap:square;stroke-linejoin:round"
           d="m 31.5,190.5 c -2.617994,0 -5.219111,1.07849 -7.070313,2.92969 C 22.578486,195.28089 21.5,197.88201 21.5,200.5 v 23.49609 c 4.48e-4,3.56206 2.941846,6.50346 6.503906,6.50391 3.564955,0 6.334434,-2.87246 6.669922,-6.25 0.512624,-5.16086 2.059755,-8.37441 4.681641,-10.48242 C 41.977354,211.65957 46.027965,210.5 52,210.5 h 1.5 V 253 H 36 a 2.50025,2.50025 0 0 0 -2.5,2.5 v 15 c 0,2.61799 2.382006,5 5,5 h 51 c 2.617994,0 5,-2.38201 5,-5 V 256 a 2.50025,2.50025 0 0 0 -2.4375,-2.5 L 74.5,253.0625 V 210.5 H 76 c 5.972036,0 10.022646,1.15957 12.644531,3.26758 2.621886,2.10801 4.169018,5.32156 4.681641,10.48242 0.335728,3.37996 3.111012,6.25 6.677738,6.25 a 2.50025,2.50025 0 0 0 0.002,0 c 3.55975,-0.003 6.4963,-2.9448 6.49414,-6.50391 v -0.002 V 200.5 c 0,-2.61799 -1.07849,-5.21911 -2.92969,-7.07031 C 101.71911,191.57849 99.117994,190.5 96.5,190.5 Z"
           transform="translate(0,2.5)" />
      </g>
      <g
         id="g45"
         transform="matrix(0.8,0,0,0.8,-457.2,35.6)"
         style="fill:#5e5c64;stroke-width:1.25">
        <path
           id="path44"
           style="opacity:1;fill:url(#linearGradient57);fill-opacity:1;stroke-width:2.5;stroke-linecap:square;stroke-linejoin:round"
           d="m 24,193 v 30.99609 c 2.78e-4,2.21118 1.792724,4.00363 4.003906,4.00391 2.207007,0 3.96362,-1.79917 4.182129,-3.99902 C 33.293763,212.84889 39.414203,208 52.000488,208 h 3.999024 v 41.99951 l -20,5.50049 v 15 a 2.5,2.5 45 0 0 2.5,2.5 h 51.000976 a 2.5,2.5 135 0 0 2.5,-2.5 v -14.49951 l -20,-6.00098 V 208 h 3.999024 c 12.586286,0 18.706726,4.84889 19.814453,16.00098 0.218509,2.19985 1.977872,3.99902 4.189455,3.99902 2.20927,-0.002 3.9986,-1.79464 3.99658,-4.00391 V 193 h -8.000488 -3.999024 -40 -16.000976 -3.999024 z" />
        <path
           id="path45"
           style="opacity:1;fill:url(#linearGradient58);fill-opacity:1;stroke-width:2.5;stroke-linecap:square;stroke-linejoin:round"
           d="m 55.999512,249.99951 -20,5.50049 v 15 a 2.5,2.5 45 0 0 2.5,2.5 h 51.000976 a 2.5,2.5 135 0 0 2.5,-2.5 v -14.49951 l -20,-6.00098 z" />
      </g>
      <g
         style="fill:#c0bfbc;stroke-width:1.25"
         transform="matrix(0.8,0,0,0.8,-457.2,28.4)"
         id="g47">
        <path
           id="path46"
           style="opacity:1;fill:url(#linearGradient59);fill-opacity:1;stroke-width:2.5;stroke-linecap:square;stroke-linejoin:round"
           d="m 29,195.99902 c -2.761424,0 -5,2.23858 -5,5 v 19.03321 c -2.5e-5,2.19108 1.776205,3.96731 3.967285,3.96728 h 0.06592 c 2.191044,0 3.936318,-1.78272 4.150391,-3.9624 1.097862,-11.17837 7.216699,-16.0376 19.816894,-16.0376 h 3.999024 v 46.00098 c 0,0.044 3.22e-4,0.0881 0,0.13183 -0.07877,10.67929 -9.755456,11.74868 -17.500599,11.85576 -1.380266,0.0191 -2.499403,1.13121 -2.499403,2.51192 v 1.00098 a 2.5,2.5 45 0 0 2.5,2.5 h 51.000976 a 2.5,2.5 135 0 0 2.5,-2.5 l 0,-1.00098 c 0,-1.38071 -1.119382,-2.49283 -2.49995,-2.51195 -7.744792,-0.1073 -17.420643,-1.1777 -17.50005,-11.85573 -3.27e-4,-0.0441 0,-0.0874 0,-0.13183 v -46.00098 h 3.999024 c 12.600196,0 18.719034,4.85923 19.816894,16.0376 0.214073,2.17969 1.959347,3.9624 4.150391,3.9624 h 0.06591 c 2.19108,3e-5 3.96731,-1.7762 3.96729,-3.96728 v -19.03321 c 0,-2.76142 -2.23858,-5 -5.000066,-5 z"
           transform="matrix(-1,0,0,1,128,1.49902)" />
        <path
           id="path47"
           style="opacity:1;fill:url(#linearGradient60);fill-opacity:1;stroke-width:2.5;stroke-linecap:square;stroke-linejoin:round"
           d="m 29,195.99902 c -2.761424,0 -5,2.23858 -5,5 v 19.03321 c -2.5e-5,2.19108 1.776205,3.96731 3.967285,3.96728 h 0.06592 c 2.191044,0 3.936318,-1.78272 4.150391,-3.9624 1.097862,-11.17837 7.216699,-16.0376 19.816894,-16.0376 h 3.999024 v 46.00098 c 0,0.044 3.22e-4,0.0881 0,0.13183 -0.07877,10.67929 -9.755456,11.74868 -17.500599,11.85576 -1.380266,0.0191 -2.499403,1.13121 -2.499403,2.51192 v 1.00098 a 2.5,2.5 45 0 0 2.5,2.5 h 51.000976 a 2.5,2.5 135 0 0 2.5,-2.5 l 0,-1.00098 c 0,-1.38071 -1.119382,-2.49283 -2.49995,-2.51195 -7.744792,-0.1073 -17.420643,-1.1777 -17.50005,-11.85573 -3.27e-4,-0.0441 0,-0.0874 0,-0.13183 v -46.00098 h 3.999024 c 12.600196,0 18.719034,4.85923 19.816894,16.0376 0.214073,2.17969 1.959347,3.9624 4.150391,3.9624 h 0.06591 c 2.19108,3e-5 3.96731,-1.7762 3.96729,-3.96728 v -19.03321 c 0,-2.76142 -2.23858,-5 -5.00006,-5 z" />
      </g>
    </g>
  </g>
</svg>
