<?xml version="1.0" encoding="utf-8"?>
<svg width="128" height="128" viewBox="0 0 128 128" xmlns="http://www.w3.org/2000/svg">
<defs>
<linearGradient id="paper" x1="0.9" y1="0" x2="1" y2="0">
<stop offset="0" stop-color="#DEDDDA"/>
<stop offset="0.5" stop-color="#FFFFFF"/>
<stop offset="1" stop-color="#C0BFBC"/>
</linearGradient>
<linearGradient id="shadow" x1="0" y1="0" x2="0" y2="1">
<stop offset="0" stop-color="#646464"/>
<stop offset="1" stop-color="#646464" stop-opacity="0"/>
</linearGradient>
<radialGradient id="shine" cx="0" cy="0" r="1">
<stop offset="0" stop-color="#FFFFFF" stop-opacity="24%"/>
<stop offset="1" stop-color="#D3D3D3" stop-opacity="0"/>
</radialGradient>
<clipPath id="cover">
<path d="M0 0L0 102C0 102 80 102 80 102C84.4 102 88 98.4 88 94C88 94 88 8 88 8C88 3.6 84.4 0 80 0C80 0 0 0 0 0Z" transform="translate(20 8)"/>
</clipPath>
</defs>
<path d="M0 0L0 92C0 92 80 92 80 92C84.4 92 88 88.4 88 84C88 84 88 8 88 8C88 3.6 84.4 0 80 0C80 0 0 0 0 0Z" fill="#646464" transform="translate(20 28)"/>
<path d="M0 0L0 70C0 70 78 70 78 70C82.4 70 86 66.4 86 62C86 62 86 8 86 8C86 3.6 82.4 0 78 0C78 0 0 0 0 0Z" fill="url(#paper)" transform="translate(22 48)"/>
<path d="M0 0L0 84C0 84 80 84 80 84C84.4 84 88 80.4 88 76C88 76 88 8 88 8C88 3.6 84.4 0 80 0C80 0 0 0 0 0Z" fill="#646464" transform="translate(20 28)"/>
<rect width="8" height="10" fill="#303030" transform="translate(88 110)"/>
<g clip-path="url(#cover)">
<rect width="88" height="102" x="20" y="8" fill="#757575"/>
<path d="M0 0L30 30L88 30L88 0Z" fill="url(#shadow)" transform="translate(20 80)"/>
<rect width="88" height="40" x="20" y="40" fill="#4CAF50"/>
<text x="29.5" y="68" font-family="Verdana" font-size="28" fill="#E0E0E0">nqq</text>
<rect width="8" height="102" fill="#424242" x="88" y="8"/>
<rect width="88" height="102" fill="url(#shine)" x="20" y="8"/>
</g></svg>
