<?xml version="1.0" encoding="utf-8"?>
<svg width="128px" height="128px" viewBox="0 0 128 128" version="1.1" xmlns:xlink="http://www.w3.org/1999/xlink" xmlns="http://www.w3.org/2000/svg">
  <defs>
    <radialGradient gradientUnits="objectBoundingBox" cx="72.85922%" cy="96.855095%" fx="72.85922%" fy="96.855095%" r="163.24188%" gradientTransform="translate(0.7285922,0.968551),scale(0.53347886,0.53347886),rotate(-104.693405),scale(1,2.1223683),translate(-0.7285922,-0.968551)" id="gradient_1">
      <stop offset="0%" stop-color="#FFFFFF" stop-opacity="0.4" />
      <stop offset="100%" stop-color="#000000" stop-opacity="0.101960786" />
    </radialGradient>
    <radialGradient gradientUnits="objectBoundingBox" cx="52.933968%" cy="90.629684%" fx="52.933968%" fy="90.629684%" r="190.46094%" gradientTransform="translate(0.5293397,0.90629685),scale(0.50153714,0.50153714),rotate(-82.48458),scale(1,2.8466663),translate(-0.5293397,-0.90629685)" id="gradient_2">
      <stop offset="0%" stop-color="#FFFFFF" stop-opacity="0.6" />
      <stop offset="100%" stop-color="#FFFFFF" stop-opacity="0.101960786" />
    </radialGradient>
    <radialGradient gradientUnits="objectBoundingBox" cx="31.20834%" cy="97.08848%" fx="31.20834%" fy="97.08848%" r="178.69618%" gradientTransform="translate(0.3120834,0.9708848),scale(0.5780126,0.5780126),rotate(-77.79489),scale(1,1.9305369),translate(-0.3120834,-0.9708848)" id="gradient_3">
      <stop offset="0%" stop-color="#FFFFFF" stop-opacity="0.8" />
      <stop offset="100%" stop-color="#FFFFFF" stop-opacity="0.4" />
    </radialGradient>
    <radialGradient gradientUnits="objectBoundingBox" cx="71.840576%" cy="99.98819%" fx="71.840576%" fy="99.98819%" r="92.16976%" gradientTransform="translate(0.7184058,0.9998819),rotate(-120.49626),scale(1,0.93617266),translate(-0.7184058,-0.9998819)" id="gradient_4">
      <stop offset="0%" stop-color="#FFFFFF" stop-opacity="0.3019608" />
      <stop offset="100%" stop-color="#000000" stop-opacity="0.3019608" />
    </radialGradient>
    <radialGradient gradientUnits="objectBoundingBox" cx="116.91155%" cy="34.771175%" fx="116.91155%" fy="34.771175%" r="328.604%" gradientTransform="translate(1.1691155,0.34771174),scale(0.19388986,0.19388986),rotate(102.23611),scale(1,11.972383),translate(-1.1691155,-0.34771174)" id="gradient_5">
      <stop offset="0%" stop-color="#FFFFFF" stop-opacity="0" />
      <stop offset="100%" stop-color="#FFFFFF" stop-opacity="0.2" />
    </radialGradient>
    <radialGradient gradientUnits="objectBoundingBox" cx="-9.168704%" cy="8.743715%" fx="-9.168704%" fy="8.743715%" r="153.0072%" gradientTransform="translate(-0.09168704,0.08743715),scale(0.8221106,0.8221106),rotate(45.3237),scale(1,2.597689),translate(0.09168704,-0.08743715)" id="gradient_6">
      <stop offset="0%" stop-color="#FFFFFF" stop-opacity="0.2" />
      <stop offset="100%" stop-color="#FFFFFF" stop-opacity="0.4" />
    </radialGradient>
    <radialGradient gradientUnits="objectBoundingBox" cx="129.53651%" cy="-19.328781%" fx="129.53651%" fy="-19.328781%" r="351.6678%" gradientTransform="translate(1.2953651,-0.1932878),scale(0.23029952,0.23029952),rotate(86.03969),scale(1,38.340137),translate(-1.2953651,0.1932878)" id="gradient_7">
      <stop offset="0%" stop-color="#FFFFFF" stop-opacity="0.2" />
      <stop offset="100%" stop-color="#FFFFFF" stop-opacity="0.3019608" />
    </radialGradient>
    <radialGradient gradientUnits="objectBoundingBox" cx="99.32105%" cy="89.23429%" fx="99.32105%" fy="89.23429%" r="204.04825%" gradientTransform="translate(0.9932105,0.8923429),rotate(-152.28918),scale(1,2.323599),translate(-0.9932105,-0.8923429)" id="gradient_8">
      <stop offset="0%" stop-color="#FFFFFF" stop-opacity="0.2" />
      <stop offset="50%" stop-color="#FFFFFF" stop-opacity="0.2" />
      <stop offset="100%" stop-color="#FFFFFF" stop-opacity="0.3019608" />
    </radialGradient>
    <path d="M128 0L128 0L128 128L0 128L0 0L128 0Z" id="path_1" />
    <path d="M0 0L128 0L128 128L0 128L0 0Z" id="path_2" />
    <clipPath id="clip_1">
      <use xlink:href="#path_1" clip-rule="evenodd" fill-rule="evenodd" />
    </clipPath>
    <clipPath id="clip_2">
      <use xlink:href="#path_2" clip-rule="evenodd" fill-rule="evenodd" />
    </clipPath>
  </defs>
  <g id="com.Obsidian">
    <path d="M128 0L128 0L128 128L0 128L0 0L128 0Z" id="com.Obsidian" fill="none" stroke="none" />
    <g id="Grupo-de-máscaras" transform="translate(0.049999997 0.049999997)" clip-path="url(#clip_1)">
      <path d="M0 0L128 0L128 128L0 128L0 0Z" id="Forma" fill="none" stroke="none" />
      <g clip-path="url(#clip_2)">
        <g id="Group" transform="translate(14.345317 -0.007918879)">
          <path d="M81.1797 118.858C80.4047 124.708 74.6797 129.258 69.0047 127.683C60.9047 125.458 51.5297 121.983 43.1047 121.333L30.1797 120.333C28.0952 120.188 26.1373 119.28 24.6797 117.783L2.42967 94.8579C-0.0128164 92.3592 -0.677297 88.6202 0.754675 85.4329C0.754675 85.4329 14.5047 55.1829 15.0297 53.6079C15.5297 52.0329 17.4297 38.3079 18.5297 30.9579C18.8297 28.9829 19.7797 27.2079 21.2797 25.8829L47.6047 2.18292C49.3592 0.606936 51.6882 -0.171809 54.0378 0.031884C56.3873 0.235577 58.5476 1.40351 60.0047 3.25792L82.1047 31.3579C83.3337 32.9664 84.0012 34.9336 84.0047 36.9579C84.0047 42.2829 84.4547 53.2079 87.4047 60.2579C90.2797 67.0829 95.5297 74.5079 98.2797 78.1329C99.35 79.5195 99.4783 81.4147 98.6047 82.9329C95.0368 88.9194 91.3022 94.8048 87.4051 100.582C83.6551 106.157 81.9301 113.057 81.1551 118.857L81.1797 118.858Z" id="Forma" fill="#6C31E3" stroke="none" />
          <path d="M27.0797 119.533C37.4297 98.5329 37.1297 83.4829 32.7297 72.7829C28.6797 62.8829 21.1547 56.6579 15.2297 52.7829C15.0797 53.3579 14.9047 53.8829 14.6797 54.4079L0.754681 85.4579C-0.683712 88.6402 -0.0292645 92.3785 2.40468 94.8829L24.6797 117.808C25.3708 118.528 26.1832 119.12 27.0797 119.558L27.0797 119.533Z" id="Forma" fill="url(#gradient_1)" stroke="none" />
          <path d="M55.2047 76.9079C58.0047 77.2079 60.7547 77.8079 63.4047 78.8079C71.9047 81.9829 79.6547 89.1079 86.0297 102.883C86.4797 102.108 86.9297 101.333 87.4297 100.583C91.3226 94.8022 95.0574 88.9164 98.6301 82.9324C99.5249 81.4191 99.3957 79.5111 98.305 78.1323C95.555 74.4823 90.305 67.0823 87.43 60.2573C84.48 53.2073 84.055 42.2573 84.03 36.9573C84.03 34.9323 83.38 32.9573 82.13 31.3573L60.0047 3.25792C59.8844 3.11213 59.7594 2.97038 59.6297 2.83292C61.0855 7.19222 61.2591 11.8779 60.1297 16.3329C59.0586 19.9301 57.5825 23.3939 55.7297 26.6579L53.9297 30.2079C51.0437 35.7024 49.3887 41.7594 49.0797 47.9579C48.7797 55.3079 50.2797 64.5579 55.2047 76.9079L55.2047 76.9079Z" id="Forma" fill="url(#gradient_2)" stroke="none" />
          <path d="M55.2047 76.9079C50.2797 64.5579 48.7547 55.3079 49.0797 47.9329C49.3887 41.7344 51.0437 35.6774 53.9296 30.183C54.5046 28.983 55.1296 27.808 55.7297 26.658C57.5047 23.183 59.2297 19.908 60.1297 16.308C61.259 11.8529 61.0855 7.16725 59.6297 2.80795C56.4718 -0.672157 51.0933 -0.940541 47.6047 2.20792L21.2547 25.9079C19.785 27.2322 18.8217 29.0263 18.5297 30.9829L15.3297 52.2329L15.2047 52.8079C21.1547 56.6829 28.7047 62.9079 32.7297 72.8079C33.5615 74.813 34.2141 76.8877 34.6797 79.0079C41.6797 77.3079 48.6047 76.2579 55.2047 76.9329L55.2047 76.9079Z" id="Forma" fill="url(#gradient_3)" stroke="none" />
          <path d="M69.0047 127.708C74.6797 129.258 80.4047 124.708 81.1797 118.858C81.8247 113.285 83.4676 107.874 86.0296 102.883C79.6297 89.133 71.9046 81.983 63.4297 78.808C54.4297 75.458 44.6297 76.558 34.6797 78.983C36.9047 89.083 35.5797 102.308 27.0797 119.533C28.0797 119.983 29.1047 120.283 30.2047 120.358C30.2047 120.358 36.3047 120.858 43.6047 121.383C50.8547 121.883 61.7047 125.658 69.0047 127.683L69.0047 127.708Z" id="Forma" fill="url(#gradient_4)" stroke="none" />
          <g id="Group" transform="translate(15.229681 8.832934)">
            <path d="M33.9 38.625C33.575 45.925 34.5 54.325 39.425 66.65L37.875 66.525C33.45 53.65 32.5 47.025 32.825 39.625C33.2049 33.3271 34.9448 27.1862 37.925 21.625C38.525 20.4 39.925 18.1 40.55 16.925C42.325 13.5 43.525 11.675 44.55 8.525C45.975 4.15 45.675 2.05 45.5 0C46.65 7.475 42.325 14 39.075 20.6C36.0861 26.1623 34.3217 32.2996 33.9 38.6L33.9 38.625Z" id="Forma" fill="url(#gradient_5)" fill-rule="evenodd" stroke="none" />
            <path d="M18.95 64.475C19.55 65.825 20.1 66.925 20.45 68.6L19.125 68.875C18.6 66.925 18.175 65.525 17.425 63.875C12.975 53.375 5.85 47.975 0 44C7.05 47.8 14.3 53.75 18.925 64.475L18.95 64.475Z" id="Forma" fill="url(#gradient_6)" fill-rule="evenodd" stroke="none" />
            <path d="M20.525 69.9C22.975 81.4 20.225 95.95 12.125 110.125C18.9 96.075 22.175 82.6 19.45 70.125L20.525 69.9Z" id="Forma" fill="url(#gradient_7)" fill-rule="evenodd" stroke="none" />
            <path d="M48.5 68.875C61.775 73.85 66.9 84.775 70.725 93.875C65.975 84.35 59.425 73.8 48.025 69.875C39.325 66.925 32 67.275 19.45 70.125L19.175 68.875C32.475 65.85 39.425 65.5 48.5 68.875L48.5 68.875Z" id="Forma" fill="url(#gradient_8)" fill-rule="evenodd" stroke="none" />
          </g>
        </g>
      </g>
    </g>
  </g>
</svg>