<?xml version="1.0" encoding="utf-8"?>
<svg width="128" height="128" viewBox="0 0 128 128" xmlns="http://www.w3.org/2000/svg">
<defs>
<linearGradient id="corners">
<stop offset="0" stop-color="#D5D3CF"/>
<stop offset="4%" stop-color="#E3E2DF"/>
<stop offset="8%" stop-color="#C0BFBC"/>
<stop offset="92%" stop-color="#C0BFBC"/>
<stop offset="96%" stop-color="#E3E2DF"/>
<stop offset="1" stop-color="#D5D3CF"/>
</linearGradient>
<clipPath id="squircle">
<rect width="104" height="100" rx="8" x="12" y="10"/>
</clipPath>
<filter id="under">
<feDropShadow dx="0" dy="2" flood-color="#1A5FB4" stdDeviation="0"/>
</filter>
</defs>
<rect width="104" height="100" rx="8" x="12" y="16" fill="url(#corners)"/>
<g clip-path="url(#squircle)">
<rect width="50" height="48" fill="#F6D32D" x="12" y="10"/>
<rect width="50" height="48" fill="#F6F5F4" x="66" y="10"/>
<rect width="50" height="48" fill="#F6F5F4" x="12" y="62"/>
</g><path d="M0 0L50 0L50 40C50 44.4 46.4 48 42 48L0 48Z" fill="#3584E4" transform="translate(66 62)" filter="url(#under)"/>
<g stroke="#DEDDDA" stroke-width="4">
<line x1="12" x2="116" y1="60" y2="60"/><g stroke-width="2">
<line x1="12" x2="62" y1="59" y2="59" stroke="#E5A50A"/>
<line x1="66" x2="116" y1="59" y2="59" stroke="#C0BFBC"/>
</g><line x1="64" x2="64" y1="12" y2="112"/>
</g><text text-anchor="middle" font-family="Adwaita Sans, Cantarell, sans-serif" font-weight="bold" font-size="32px" fill="#000000">
<tspan x="37" y="46">O</tspan>
<tspan x="91" y="98">B</tspan>
</text></svg>
