<?xml version="1.0" encoding="utf-8"?>
<svg width="128" height="128" viewBox="0 0 128 128" xmlns="http://www.w3.org/2000/svg">
<path d="M42.7094 84.516C42.7094 84.516 25.4189 109.032 25.4189 109.032C15.0487 101.718 7.26438 91.3 3.185 79.2885C-0.89457 67.2722 -1.05917 54.2719 2.71477 42.1562C6.48871 30 14 19.4332 24.1885 11.8592C34.3702 4.28511 46.6912 0.134236 59.3804 0C72.0696 -0.127848 84.4736 3.76767 94.8096 11.1298C105.146 18.492 112.881 28.9417 116.904 40.9769C120.93 53.0121 121.032 66.013 117.2 78.111C113.371 90.209 105.803 100.781 95.5864 108.307C95.5864 108.307 77.7932 84.1537 77.7932 84.1537C82.9017 80.3905 86.6854 75.1045 88.6 69.0555C90.516 63 90.464 56.506 88.4522 50.4884C86.4406 44.4708 82.5728 39.246 77.4048 35.565C72.2368 31.884 66.035 29.936 59.6902 30.0016C53.3456 30.0671 47.1851 32.1425 42.0943 35.9296C37 39.7166 33.2444 45.0202 31.3574 51.0781C29.4704 57.1359 29.5527 63.6361 31.5925 69.6442C33.6322 75.6524 37.5243 80.8591 42.7094 84.516Z" fill="#ED7F22" transform="translate(4 4)"/>
<path d="M45.9211 53.0145L23.5673 0C22.965 0.254028 22.2861 0.258331 21.6804 0.01194L0 53.3054C14.74 59.3018 31.2583 59.1972 45.9211 53.0145L45.9211 53.0145Z" fill="#1A3967" transform="translate(41.391 66.272)"/>
<circle r="20" cx="64" cy="64" fill="#1A3967"/>
</svg>
