<?xml version="1.0" encoding="utf-8"?>
<svg width="128" height="128" viewBox="0 0 128 128" xmlns="http://www.w3.org/2000/svg">
<defs>
<clipPath id="squircle">
<rect width="104" height="104" x="12" y="12" rx="8"/>
</clipPath>
<clipPath id="negative">
<rect width="32" height="104" x="12" y="12"/>
</clipPath>
<linearGradient id="sky" x1="0" y1="0" x2="1" y2="1">
<stop offset="0" stop-color="#62A0EA"/>
<stop offset="1" stop-color="#1C71D8"/>
</linearGradient>
<linearGradient id="grass" x1="0" y1="0" x2="0" y2="1">
<stop offset="0" stop-color="#05C96B"/>
<stop offset="1" stop-color="#028747"/>
</linearGradient>
<linearGradient id="red" x1="0" y1="0" x2="1" y2="0">
<stop offset="0" stop-color="#C0392B" stop-opacity="0"/>
<stop offset="1" stop-color="#C0392B"/>
</linearGradient>
<filter id="shadow">
<feDropShadow dx="-3" dy="0" flood-color="#000000" flood-opacity="0.3" stdDeviation="6"/>
</filter>
</defs>
<g clip-path="url(#squircle)">
<rect width="104" height="104" x="12" y="12" fill="url(#sky)"/>
<rect width="72" height="72" rx="9" fill="#184696" transform="translate(15 79) rotate(-45 36 36)"/>
<rect width="96" height="72" rx="10" fill="url(#grass)" transform="translate(35 77) rotate(-45 48 36)"/>
<circle r="14" cx="50" cy="38" fill="#FFD76A"/>
<g clip-path="url(#negative)">
<rect width="32" height="104" x="12" y="12" fill="#31363B"/>
<g fill="none" stroke="#3EAEE9" stroke-width="4">
<rect width="68" height="68" transform="translate(17 81) rotate(-45 34 34)"/>
<rect width="92" height="68" transform="translate(35 77) rotate(-45 48 36)"/>
<circle r="12" cx="50" cy="38"/>
<rect width="100" height="100" rx="6" x="14" y="14" fill="none"/>
</g>
<rect width="32" height="104" x="12" y="12" fill="url(#red)" opacity="0.6"/>
</g>
<rect width="12" height="104" fill="#C1392B" x="44" y="12" filter="url(#filter_6)"/>
<rect width="4" height="104" fill="#FFFFFF" x="48" y="12"/>
</g></svg>
