<?xml version="1.0" encoding="utf-8"?>
<svg width="128" height="128" viewBox="0 0 128 128" xmlns="http://www.w3.org/2000/svg">
<defs>
<linearGradient id="corners" x1="0" y1="0" x2="100%" y2="0">
<stop offset="0" stop-color="#BABAB6"/>
<stop offset="4%" stop-color="#EEEEEC"/>
<stop offset="8%" stop-color="#BEBEB8"/>
<stop offset="92%" stop-color="#BEBEB8"/>
<stop offset="96%" stop-color="#F6F5F4"/>
<stop offset="100%" stop-color="#BABAB6"/>
</linearGradient>
<linearGradient id="wood" x1="0" y1="0" x2="100%" y2="0">
<stop offset="0" stop-color="#FFFFFF"/>
<stop offset="1" stop-color="#D1BC8E"/>
</linearGradient>
<linearGradient id="eraser" x1="0" y1="0" x2="100%" y2="0">
<stop offset="0" stop-color="#FC9B92"/>
<stop offset="1" stop-color="#CB2B31"/>
</linearGradient>
<linearGradient id="steel" x1="0" y1="0" x2="100%" y2="0">
<stop offset="0" stop-color="#F5F4F2"/>
<stop offset="22%" stop-color="#D6D5D2"/>
<stop offset="74%" stop-color="#9A9996"/>
<stop offset="100%" stop-color="#BFBEBB"/>
</linearGradient>
</defs>
<rect width="88" height="30" rx="8" x="20" y="92" fill="#26A269"/>
<rect width="88" height="40" rx="8" x="20" y="80" fill="url(#corners)"/>
<rect width="88" height="106" rx="8" x="20" y="8" fill="#F6F5F4"/>
<path d="M0 0L19 0L19 6.7L18 6.7L17 2L5 2L12.5 12.5L12.5 13.5L4 24.5L18.5 24.5L19.5 20L21 20L21 28L0 28L0 26.5L9 14.5L0 1.5Z" fill="#424048" transform="translate(32 30)"/>
<g fill="#B4B4B4" transform="translate(34 22)">
<circle r="3"/>
<circle r="3" cx="12"/>
<circle r="3" cx="24"/>
<circle r="3" cx="36"/>
<circle r="3" cx="48"/>
<circle r="3" cx="60"/>
</g><g transform="translate(28 -15) rotate(45, 10, 111)">
<path d="M0 0L10 14L20 0Z" fill="url(#wood)" transform="translate(0 97)"/>
<path d="M0 0L5 7L10 0Z" fill="#3D3846" transform="translate(5 104)"/>
<rect width="20" height="32" rx="10" fill="url(#eraser)"/>
<rect width="6" height="75" x="14" y="22" fill="#26A269"/>
<rect width="8" height="75" x="6" y="22" fill="#33D17A"/>
<rect width="6" height="75" y="22" fill="#8FF0A4"/>
<rect width="20" height="8" y="14" fill="url(#steel)"/>
</g></svg>
