<svg height="128" width="128" xmlns="http://www.w3.org/2000/svg" xmlns:xlink="http://www.w3.org/1999/xlink">
    <linearGradient id="a" gradientUnits="userSpaceOnUse" x1="-108" x2="-20" y1="-274" y2="-274">
        <stop offset="0" stop-color="#c0bfbc"/>
        <stop offset="0.045" stop-color="#f6f5f4"/>
        <stop offset="0.091" stop-color="#deddda"/>
        <stop offset="0.909" stop-color="#deddda"/>
        <stop offset="0.955" stop-color="#f6f5f4"/>
        <stop offset="1" stop-color="#c0bfbc"/>
    </linearGradient>
    <g transform="matrix(1 0 0 1 0 -172)">
        <rect fill="#deddda" height="59" rx="8" width="88" x="20" y="233"/>
        <rect fill="url(#a)" height="40" rx="8" transform="matrix(-1 0 0 -1 0 0)" width="88" x="-108" y="-292"/>
        <rect fill="#f6f5f4" height="104" rx="8" width="88" x="20" y="180"/>
        <path d="m 28 248 v 10 h 64 v -4 h 8 v -6 z" fill="#deddda"/>
        <path d="m 48 254 a 6.176 6.176 0 0 0 -2.982 0.766 a 5.883 5.883 0 0 0 -2.262 2.22 c -0.592 -0.566 -1.463 -0.986 -2.756 -0.986 h -20 v 4 h 21.215 c 0.453 0 0.715 0.301 0.775 0.742 c 0.001 0.035 0.01 0.068 0.01 0.104 v 1.154 h -22 v 4 h 13.951 l -4 4 h -9.951 v 2 h 8.275 c -0.515 1.129 -0.448 2.63 1.108 4.225 l 4.224 -4.225 h 5.547 a 4.858 4.858 0 0 0 4.846 -4.846 v -1.125 h 8 v 1.125 a 4.858 4.858 0 0 0 4.846 4.846 h 5.576 l 4.195 4.195 c 1.542 -1.58 1.62 -3.07 1.12 -4.195 h 7.417 a 4.858 4.858 0 0 0 4.846 -4.846 v -1.125 h 2 v -8.029 c 0 -1.063 -0.828 -2 -2 -2 h -24 s -1.578 0.002 -2.752 0.994 a 5.882 5.882 0 0 0 -2.266 -2.228 a 6.176 6.176 0 0 0 -2.982 -0.766 z m 0 2.004 c 0.698 0 1.396 0.17 2.018 0.514 c 1.242 0.685 1.982 1.926 1.982 3.26 c 0 0.04 0.002 0.079 0.006 0.118 c -0.001 0.037 -0.006 0.067 -0.006 0.104 v 2 h -8 v -2 l -0.008 -0.086 c 0.006 -0.045 0.008 -0.091 0.008 -0.137 c 0 -1.333 0.74 -2.574 1.982 -3.26 a 4.182 4.182 0 0 1 2.018 -0.513 z m 6.785 4.012 h 23.082 c 0.079 0.263 0.133 0.538 0.133 0.83 v 1.183 h -19.893 l -0.029 -0.029 h -4.078 v -1.154 c 0 -0.034 0.009 -0.066 0.01 -0.1 c 0.025 -0.436 0.326 -0.73 0.775 -0.73 z m -15.207 6.013 h 2.422 v 1.125 a 2.818 2.818 0 0 1 -2.846 2.846 h -3.547 z m 14.422 0 h 2.451 l 3.97 3.971 h -3.575 a 2.818 2.818 0 0 1 -2.846 -2.846 z m 8.107 0 h 15.893 v 1.125 a 2.818 2.818 0 0 1 -2.846 2.846 h -9.076 z" opacity="0.1"/>
        <path d="m 29.383 274.225 c -2.112 -2.164 -1.492 -4.164 -0.375 -5.282 l 8.913 -8.914 h 44.079 v 4 h -42.421 z" fill="#949390" font-variant-ligatures="normal" font-variant-position="normal" font-variant-caps="normal" font-variant-numeric="normal" font-variant-alternates="normal" font-feature-settings="normal" text-indent="0" text-align="start" text-decoration-line="none" text-decoration-style="solid" text-decoration-color="#000" text-transform="none" text-orientation="mixed" white-space="normal" shape-padding="0" isolation="auto" mix-blend-mode="normal" solid-color="#000" solid-opacity="1"/>
        <path d="m 66.617 274.195 c 2.112 -2.164 1.492 -4.164 0.375 -5.281 l -8.912 -8.914 h -44.08 v 4 h 42.421 z" fill="#949390" font-variant-ligatures="normal" font-variant-position="normal" font-variant-caps="normal" font-variant-numeric="normal" font-variant-alternates="normal" font-feature-settings="normal" text-indent="0" text-align="start" text-decoration-line="none" text-decoration-style="solid" text-decoration-color="#000" text-transform="none" text-orientation="mixed" white-space="normal" shape-padding="0" isolation="auto" mix-blend-mode="normal" solid-color="#000" solid-opacity="1"/>
        <path d="m 43 257.777 a 4.775 5 90 0 1 2.5 -4.136 a 4.775 5 90 0 1 5 0 a 4.775 5 90 0 1 2.5 4.136" fill="none" stroke="#1a5fb4" stroke-linecap="round" stroke-width="2"/>
        <path d="m 40.73 269 h -21.46 a 2.264 2.264 0 0 1 -2.27 -2.27 v -7.46 a 2.264 2.264 0 0 1 2.27 -2.27 h 21.46 a 2.264 2.264 0 0 1 2.27 2.27 v 7.46 a 2.264 2.264 0 0 1 -2.27 2.27 z" fill="#ffffff" fill-opacity="0.441"/>
        <path d="m 20.845 269 h 18.31 a 3.836 3.836 0 0 0 3.845 -3.845 v -6.31 a 3.836 3.836 0 0 0 -3.845 -3.845 h -18.31 a 3.836 3.836 0 0 0 -3.845 3.845 v 6.31 a 3.836 3.836 0 0 0 3.845 3.845 z" fill="none" stroke="#1a5fb4" stroke-linecap="round" stroke-width="2"/>
        <path d="m 76.73 269 h -21.46 a 2.264 2.264 0 0 1 -2.27 -2.27 v -7.46 a 2.264 2.264 0 0 1 2.27 -2.27 h 21.46 a 2.264 2.264 0 0 1 2.27 2.27 v 7.46 a 2.264 2.264 0 0 1 -2.27 2.27 z" fill="#ffffff" fill-opacity="0.441"/>
        <path d="m 56.845 269 h 18.31 a 3.836 3.836 0 0 0 3.845 -3.845 v -6.31 a 3.836 3.836 0 0 0 -3.845 -3.845 h -18.31 a 3.836 3.836 0 0 0 -3.845 3.845 v 6.31 a 3.836 3.836 0 0 0 3.845 3.845 z" fill="none" stroke="#1a5fb4" stroke-linecap="round" stroke-width="2"/>
        <path d="m 82 256 c 0 -1.063 -0.828 -2 -2 -2 h -24 s -4 0 -4 4 v 4 h 2 v -3.2 c 0 -0.468 0.316 -0.784 0.785 -0.784 h 23.43 c 0.469 0 0.925 0.337 0.785 0.785 v 3.199 h 1 c 2 0 2 2 2 2 z m -38 6 v -4 s 0 -4 -4 -4 h -24 c -0.88 0 -2 0.905 -2 2 v 8 s 0 -2 2 -2 h 1 v -3.215 c 0 -0.469 0.316 -0.785 0.785 -0.785 h 23.43 c 0.469 0 0.737 0.319 0.785 0.785 l 0.125 3.215 z" fill="#1a5fb4" font-variant-ligatures="normal" font-variant-position="normal" font-variant-caps="normal" font-variant-numeric="normal" font-variant-alternates="normal" font-feature-settings="normal" text-indent="0" text-align="start" text-decoration-line="none" text-decoration-style="solid" text-decoration-color="#000" text-transform="none" text-orientation="mixed" white-space="normal" shape-padding="0" isolation="auto" mix-blend-mode="normal" solid-color="#000" solid-opacity="1"/>
        <rect fill="#f66151" height="32" rx="0" width="32" x="68.001" y="210"/>
        <path d="m 69.71 235.207 a 41.947 41.947 0 0 0 14.33 -7.194 c 1.441 -1.114 2.838 -2.357 3.717 -3.952 c 0.44 -0.798 0.741 -1.678 0.824 -2.585 c 0.082 -0.907 -0.062 -1.841 -0.468 -2.656 a 4.788 4.788 0 0 0 -1.525 -1.755 a 5.755 5.755 0 0 0 -2.144 -0.918 c -1.533 -0.32 -3.144 -0.064 -4.609 0.49 c -1.762 0.669 -3.374 1.785 -4.507 3.291 c -1.134 1.507 -1.766 3.412 -1.62 5.292 c 0.096 1.218 0.513 2.405 1.156 3.444 c 0.643 1.04 1.509 1.935 2.496 2.656 c 1.975 1.442 4.395 2.171 6.82 2.482 c 5.52 0.706 11.285 -0.715 15.845 -3.905 l -0.024 -5.188 c -3.574 3.943 -8.657 6.483 -13.956 6.975 c -2.287 0.212 -4.67 0.039 -6.736 -0.966 c -1.033 -0.502 -1.973 -1.21 -2.692 -2.106 c -0.72 -0.895 -1.214 -1.98 -1.355 -3.12 c -0.206 -1.663 0.358 -3.38 1.398 -4.694 s 2.527 -2.239 4.127 -2.74 c 0.883 -0.275 1.818 -0.429 2.736 -0.311 c 0.917 0.118 1.817 0.527 2.415 1.233 c 0.484 0.572 0.75 1.313 0.796 2.061 c 0.047 0.748 -0.117 1.501 -0.415 2.189 c -0.595 1.375 -1.693 2.464 -2.812 3.46 a 46.823 46.823 0 0 1 -13.796 8.517 z" fill="#ffffff"/>
        <path d="m 28 192 v 4 h 40 v -4 z" fill="#77767b" fill-rule="evenodd" font-variant-ligatures="normal" font-variant-position="normal" font-variant-caps="normal" font-variant-numeric="normal" font-variant-alternates="normal" font-feature-settings="normal" text-indent="0" text-align="start" text-decoration-line="none" text-decoration-style="solid" text-decoration-color="#000" text-transform="none" text-orientation="mixed" white-space="normal" shape-padding="0" isolation="auto" mix-blend-mode="normal" solid-color="#000" solid-opacity="1"/>
        <path d="m 28 222 h 36 v 18 h -16 v 4 h -20 z m 36 -16 v 12 h -36 v -18 h 72 v 6 z" fill="#deddda"/>
        <path d="m 108 280.654 a 7.468 7.468 0 0 1 -7.492 7.346 h -0.5 v 1 h 0.5 a 8.488 8.488 0 0 0 7.463 -4.428 c 0.013 -0.19 0.029 -0.379 0.029 -0.572 z m -42 7.346 l 34 1 v -1 z" fill="#c0bfbc" fill-opacity="0.272"/>
    </g>
</svg>
