<?xml version="1.0" encoding="utf-8"?>
<svg width="128" height="128" viewBox="0 0 128 128" fill="none" xmlns="http://www.w3.org/2000/svg">
<path id="paper" d="M88 96L88 104C88 106.21 87.22 108.095 85.657 109.657C84.0948 111.22 82.21 112 80 112L8 112C5.79086 112 3.90524 111.22 2.34315 109.657C0.78106 108.095 7.63e-06 106.21 0 104L0 8C7.63e-06 5.79086 0.78106 3.90524 2.34315 2.34314C3.90524 0.781051 5.79086 0 8 0L80 0C82.2092 0 84.0948 0.781051 85.657 2.34314C87.22 3.90524 88 5.79086 88 8L88 96Z" fill="#AAAAAA" transform="translate(20 8)"/>
<path id="sheet" d="M0 16L0 8C0 5.79086 0.781048 3.90524 2.34315 2.34315C3.90524 0.78105 5.79086 0 8 0L80 0C82.21 0 84.0948 0.78105 85.657 2.34315C87.22 3.90524 88 5.79086 88 8L88 96C88 98.21 87.22 100.095 85.657 101.657C84.0948 103.22 82.21 104 80 104L8 104C5.79086 104 3.90524 103.22 2.34315 101.657C0.781048 100.095 0 98.21 0 96L0 16Z" fill="#F6F5F4" transform="translate(20 8)"/>
<g id="text" fill="#CCCCCC" transform="translate(28 28)">
<path d="M0 0L0 10L64 10L64 6L72 6L72 0L0 0Z" transform="translate(0 48)"/>
<path d="M0 0L36 0L36 18L20 18L20 22L0 22L0 0Z" transform="translate(0 22)"/>
<path d="M36 6L36 18L0 18L0 0L72 0L72 6L36 6Z"/>
</g><rect id="title" width="40" height="4" fill="#77767B" transform="translate(28 20)"/>
<g id="glasses" transform="translate(14 80)">
<path id="shadow" d="M28 3.12328e-05C26.9573 0 25.9314 0.263 25 0.766C24.075 1.28517 23.2927 2.053 22.756 2.986C22.164 2.42 21.293 2 20 2C20 2 0 2 0 2L0 18C0 18 8.275 18 8.275 18C7.76 19.13 7.827 20.63 9.383 22.225C9.383 22.225 13.607 18 13.607 18C13.607 18 19.154 18 19.154 18C21.8276 18 24 15.8277 24 13.154C24 13.154 24 12.03 24 12.03L32 12.03C32 12.03 32 13.154 32 13.154C32 15.828 34.1726 17.9936 36.8462 18C36.8462 18 42.4222 18 42.4222 18C42.4222 18 46.6172 22.195 46.6172 22.195C48.1592 20.6151 48.2372 19.125 47.7372 18C47.7372 18 55.1542 18 55.1542 18C57.828 18 60 15.8277 60 13.154C60 13.154 60 12.03 60 12.029L62 12.03C62 12 62 4 62 4C62 2.937 61.1722 2 60 2C60 2 36 2 36 2C36 2 34.4222 2 33.2482 3C32.7116 2.0575 31.9277 1.28671 30.9822 0.766C30.0688 0.263 29.043 0 28 7.15256e-07C28 7.15256e-07 28 3.12328e-05 28 3.12328e-05ZM28 2C28.6981 2 29.396 2.174 30.0181 2.51804C31.26 3.2 32 4.444 32 5.778C32 5.818 32 5.857 32 5.896C32.0051 5.93305 32 5.963 32 6C32 6 32 8 32 8L24 8L24 6C24 6 24 5.914 24 5.914C24 5.87 24 5.823 24 5.77707C24.0001 4.444 24.74 3.203 25.9821 2.517C26.6 2.17865 27.295 2 28 2C28 2 28 2 28 2Z" fill="#000000" fill-opacity="0.2" transform="translate(6 2)"/>
<path d="M1.4 14.196C-0.711897 12.032 -0.091898 10.032 1.0251 8.914C1.0251 8.914 9.9381 0 9.9381 0L54.0171 0L54.0171 4L11.5961 4C11.5961 4 1.4 14.196 1.4 14.196Z" fill="#949390" transform="translate(13.983 8.03)"/>
<path d="M52.617 14.195C54.729 12.031 54.109 10.031 52.992 8.914C52.992 8.914 44.08 0 44.08 0L0 0L0 4L42.421 4C42.421 4 52.617 14.195 52.617 14.195Z" fill="#949390" transform="translate(0 8)"/>
<path id="armour" d="M30 13.1526L30 6C30 3.79089 31.7909 2 34 2C36.2091 2 38 3.7909 38 6L38 13.155C37.9968 14.4933 38.47 15.6362 39.4165 16.5836C40.3634 17.5305 41.5062 18.0026 42.8451 18L61.155 18C62.4933 18.0031 63.6362 17.531 64.5836 16.5836C65.531 15.6361 66.0032 14.4925 66 13.1526L66 10C68 10 68 12 68 12L68 4C68 2.937 67.172 2 66 2L42 2C42 2 40.3881 2 39.2107 3.02332C38.1766 1.21704 36.2305 0 34 0C31.7726 0 29.8286 1.21375 28.7935 3.01593C28.2 2.4339 27.3175 2 26 2L2 2C1.12 2 0 2.90503 0 4L0 12C0 12 0 10 2 10L2 13.155C1.99683 14.4933 2.469 15.6362 3.4165 16.5836C4.36328 17.5305 5.50623 18 6.8451 18L25.155 18C26.4933 18.0031 27.6362 17.531 28.5836 16.5836C29.531 15.6362 30.0032 14.4925 30 13.1526L30 13.1526Z" fill="#1A5FB4" fill-rule="evenodd"/>
<path id="glass" d="M24 0L7.6294e-06 0L9.06e-06 7.155C0 7.94233 0.275033 8.61378 0.8307 9.16938C1.38624 9.725 2.057 10 2.84266 10L21.1551 10C21.9424 10 22.6138 9.725 23.1695 9.1694C23.725 8.61378 24 7.94312 24 7.15736L24 0Z" fill="#FFFFFF" transform="translate(4 6)"/>
<path id="glass" d="M24 0L7.6294e-06 0L9.06e-06 7.155C0 7.94233 0.275033 8.61378 0.8307 9.16938C1.38624 9.725 2.057 10 2.84266 10L21.1551 10C21.9424 10 22.6138 9.725 23.1695 9.1694C23.725 8.61378 24 7.94312 24 7.15736L24 0Z" fill="#FFFFFF" transform="translate(40 6)"/>
</g><g id="evince" transform="translate(68 38)">
<rect width="32" height="32" fill="#FF503C"/>
<path id="e" d="M0 19C5.14084 17.561 9.95583 15.1437 14.1811 11.881C15.6071 10.7785 16.9896 9.5485 17.8595 7.97011C18.2949 7.18042 18.5928 6.3096 18.675 5.41203C18.7561 4.51448 18.6136 3.5902 18.2118 2.78369C17.8591 2.0896 17.3407 1.49309 16.7026 1.04697C16.0648 0.602519 15.3427 0.293364 14.581 0.13853C13.0638 -0.178144 11.4696 0.0752015 10.0198 0.623432C8.2761 1.28547 6.68085 2.38984 5.55963 3.88015C4.43741 5.37146 3.81198 7.25661 3.95646 9.11703C4.05146 10.3223 4.46413 11.5 5.1 12.5252C5.73676 13.5543 6.59377 14.44 7.57051 15.1535C9.52499 16.58 11.9198 17.302 14.3196 17.6096C19.7823 18.3083 25.4874 16.9021 30 13.7453C30 13.7453 29.9762 8.61136 29.9762 8.61136C26.4394 12.5133 21.4092 15.0268 16.1653 15.5137C13.902 15.7235 11.5438 15.5523 9.5 14.5578C8.47699 14.061 7.54676 13.3604 6.83523 12.4737C6.12271 11.588 5.63384 10.5143 5.4943 9.3862C5.29044 7.74053 5.8486 6.04141 6.87778 4.7411C7.907 3.4408 9.37852 2.52542 10.9619 2.02963C11.8357 1.75751 12.761 1.6051 13.6695 1.72187C14.577 1.83864 15.4676 2.24337 16.0594 2.94203C16.5383 3.50808 16.8016 4.24135 16.8471 4.98156C16.8936 5.72177 16.7313 6.46694 16.4364 7.14776C15.8476 8.50844 14.761 9.5861 13.6536 10.5717C9.62749 14.1536 5.00737 17.0058 0 19C0 19 0 19 0 19Z" fill="#FFFFFF" fill-rule="nonzero" transform="translate(2 6)"/>
</g></svg>
