<?xml version="1.0" encoding="utf-8"?>
<svg width="128" height="128" viewBox="0 0 128 128" xmlns="http://www.w3.org/2000/svg">
<defs>
<linearGradient id="corners">
<stop offset="0" stop-color="#1A5FB4"/>
<stop offset="0.04" stop-color="#5F9CE8"/>
<stop offset="0.08" stop-color="#3483E3"/>
<stop offset="0.92" stop-color="#3584E4"/>
<stop offset="0.96" stop-color="#5F9CE8"/>
<stop offset="1" stop-color="#1A5FB4"/>
</linearGradient>
<linearGradient id="paper" x1="0" y1="0" x2="0.5" y2="1">
<stop offset="0" stop-color="#E66100"/>
<stop offset="1" stop-color="#ED333B"/>
</linearGradient>
<linearGradient id="corner" x1="0" y1="1" x2="0.5" y2="0.5">
<stop offset="75%" stop-color="#F6F5F4"/>
<stop offset="1" stop-color="#C0BFBC"/>
</linearGradient>
<linearGradient id="handle" x1="0" y1="0" x2="1" y2="0">
<stop offset="0" stop-color="#DEDDDA"/>
<stop offset="5%" stop-color="#EEEEEC"/>
<stop offset="10%" stop-color="#DEDDDA"/>
<stop offset="90%" stop-color="#DEDDDA"/>
<stop offset="95%" stop-color="#EEEEEC"/>
<stop offset="1" stop-color="#C0BFBC"/>
</linearGradient>
<linearGradient id="handleup" x1="0" y1="0" x2="0" y2="1">
<stop offset="0" stop-color="#999894"/>
<stop offset="1" stop-color="#C0BFBC"/>
</linearGradient>
<radialGradient id="glass" cx="0.5" cy="0" r="0.5">
<stop offset="0" stop-color="#FFFFFF" stop-opacity="80%"/>
<stop offset="27%" stop-color="#FFFFFF" stop-opacity="60%"/>
<stop offset="1" stop-color="#FFFFFF" stop-opacity="20%"/>
</radialGradient>
<filter id="shadow">
<feDropShadow dx="0" dy="2" flood-color="#000000" flood-opacity="10%" stdDeviation="0"/>
</filter>
</defs>
<rect width="104" height="104" rx="8" x="12" y="12" fill="url(#corners)"/>
<rect width="104" height="76" rx="8" x="12" y="12" fill="#1C71D8"/>
<rect width="88" height="60" x="20" y="20" fill="#468DE6"/>
<rect width="88" height="36" x="20" y="44" fill="#1A5FB4"/>
<g transform="translate(20 8)">
<path d="M78 12C83.5 12 88 16.5 88 22L88 72L0 72L0 10C0 4.5 4.5 0 10 9.53672e-07L30 0C33.7 0 37 2.1 38.7 5.4L40.2 8.4C41.3 10.6 43.5 12 46 12Z" fill="#F0B40F"/>
<path d="M78 0C83.5239 0 88 4.47643 88 10C88 10 88 44 88 44L0 44C0 44 0 18 0 18C0 12.4765 4.47642 8 10 8C10 8 30 8 30 8C30 8 34 8 38 4C42 0 46 0 46 0C46 0 78 0 78 0C78 0 78 0 78 0Z" fill="#F9F06B" transform="translate(0 20)"/>
</g><g transform="translate(20 44)">
<path d="M88 24C88 24 88 36 88 36L0 36L0 8C0 3.6 3.6 0 8 0C8 0 64 0 64 0Z" fill="url(#paper)"/>
<g fill="#FFFFFF">
<rect width="18" height="4" rx="2" x="12" y="24" opacity="75%"/>
<rect width="34" height="6" rx="3" x="12" y="12"/></g>
<path d="M0 0L24 24L6 24C3 24 0 21 0 18Z" fill="url(#corner)" transform="translate(64 0)"/>
</g><g transform="translate(52 100)">
<path d="M0 0L0 5C0 6.7 1.3 8 3 8L21 8C22.7 8 24 6.7 24 5L24 0L20 0L20 4L4 4L4 0Z" fill="url(#handle)" filter="url(#shadow)"/>
<path d="M0 0L4 0L4 2L20 2L20 0C20 0 24 0 24 0L24 1C24 2.7 22.7 4 21 4L3 4C1.3 4 0 2.7 0 1Z" fill="url(#handleup)"/>
<rect width="16" height="2" x="4" fill="#000000" opacity="10%"/>
</g><g transform="translate(5 42)">
<path d="M8 0L0 8" stroke="#241F31" stroke-width="6" transform="translate(17 54)"/>
<path d="M8 0L0 8" stroke="#3D3846" stroke-width="6" transform="translate(17 52)"/>
<path d="M14 0L0 14" stroke="#5E5C64" stroke-width="12" stroke-linecap="round" transform="translate(3 62)"/>
<path d="M14 0L0 14" stroke="#77767B" stroke-width="12" stroke-linecap="round" transform="translate(3 60)"/>
<path d="M0 16L16 0" stroke-width="2" stroke="#FFFFFF" stroke-linecap="round" transform="translate(0 57)" opacity="20%"/>
<circle r="30" cx="47" cy="32" fill="none" stroke="#241F31" stroke-width="4"/>
<circle r="30" cx="47" cy="30" fill="url(#glass)" stroke="#5E5C64" stroke-width="4"/>
</g></svg>
