<?xml version="1.0" encoding="utf-8"?>
<svg width="128" height="128" viewBox="0 0 128 128" xmlns="http://www.w3.org/2000/svg">
<linearGradient id="corners">
<stop offset="0" stop-color="#9A9996"/>
<stop offset="5%" stop-color="#DEDDDA"/>
<stop offset="10%" stop-color="#C0BFBC"/>
<stop offset="90%" stop-color="#C0BFBC"/>
<stop offset="95%" stop-color="#DEDDDA"/>
<stop offset="1" stop-color="#9A9996"/>
</linearGradient>
<radialGradient id="glass" cx="0.5" cy="0" r="0.5">
<stop offset="0" stop-color="#FFFFFF"/>
<stop offset="27%" stop-color="#FFFFFF" stop-opacity="87%"/>
<stop offset="1" stop-color="#FFFFFF" stop-opacity="0"/>
</radialGradient>
<rect width="104" height="98" rx="8" x="12" y="18" fill="url(#corners)"/>
<rect width="104" height="98" rx="8" x="12" y="12" fill="#F6F5F4"/>
<path d="M0 0L72 0M0 10L72 10M0 20L72 20M0 30L72 30M0 40L72 40M0 50L72 50M0 60L72 60M0 70L72 70M0 80L66 80" fill="none" stroke="#D5D3CF" stroke-width="2" transform="translate(28 21)"/>
<g fill="#C0BFBC" transform="translate(20 20)">
<circle r="2" cy="80"/>
<circle r="2" cy="70"/>
<circle r="2" cy="60"/>
<circle r="2" cy="50"/>
<circle r="2" cy="40"/>
<circle r="2" cy="30"/>
<circle r="2" cy="20"/>
<circle r="2" cy="10"/>
<circle r="2"/>
</g><g fill="#C0BFBC" transform="translate(108 20)">
<circle r="2" cy="60"/>
<circle r="2" cy="50"/>
<circle r="2" cy="40"/>
<circle r="2" cy="30"/>
<circle r="2" cy="20"/>
<circle r="2" cy="10"/>
<circle r="2"/>
</g><g transform="translate(5 42)"><g stroke-width="6">
<line x1="25" x2="17" y1="54" y2="62" stroke="#959390"/>
<line x1="25" x2="17" y1="52" y2="60" stroke="#D5D3CF"/>
</g><g stroke-width="12" stroke-linecap="round">
<line x1="17" x2="3" y1="62" y2="76" stroke="#241F31"/>
<line x1="17" x2="3" y1="60" y2="74" stroke="#424048"/>
<line x1="0" x2="16" y1="73" y2="57" stroke="#FFFFFF" stroke-width="2" opacity="20%"/>
</g><g fill-opacity="50%" stroke-width="4">
<circle r="30" cx="47" cy="32" fill="#FFFFFF" stroke="#1A5FB4"/>
<circle r="30" cx="47" cy="30" fill="url(#glass)" stroke="#62A0EA"/>
</g></g></svg>
