<?xml version="1.0" encoding="UTF-8" standalone="no"?>
<svg enable-background="new" height="128" viewBox="0 0 128 128" width="128" xmlns="http://www.w3.org/2000/svg" xmlns:xlink="http://www.w3.org/1999/xlink" xmlns:dc="http://purl.org/dc/elements/1.1/" xmlns:cc="http://creativecommons.org/ns#" xmlns:rdf="http://www.w3.org/1999/02/22-rdf-syntax-ns#" xmlns:svg="http://www.w3.org/2000/svg">
    <linearGradient id="a" gradientTransform="matrix(1.1538452 0 0 1.0344633 -9.846041 -6.065537)" gradientUnits="userSpaceOnUse" x1="13.916016" x2="116" y1="264.0011" y2="264.00109">
        <stop offset="0" stop-color="#e5a50a"/>
        <stop offset="0.25551495" stop-color="#f8e45c"/>
        <stop offset="1" stop-color="#e5a50a"/>
    </linearGradient>
    <linearGradient id="b" gradientTransform="matrix(1.1538452 0 0 1.0344633 -9.846041 -6.065537)" gradientUnits="userSpaceOnUse" x1="12" x2="19.416016" y1="251.71291" y2="251.71291">
        <stop offset="0" stop-color="#26a269"/>
        <stop offset="1" stop-color="#2ec27e"/>
    </linearGradient>
    <g transform="matrix(1 0 0 1 0 -172)">
        <path d="m 4.0001013 231.86102 v 10.24361 v 0.10107 h 0.0045 c -0.00138 12.64648 4.9672147 24.88909 14.0331927 34.57774 l 0.000006 -10.34468 c -2.650757 -2.83281 1.736827 -12.74165 -0.191556 -15.9574 c -4.66697 -7.78258 -13.8426131 -9.6715 -13.8416358 -18.62034 z" fill="url(#b)"/>
        <path d="m 18.037794 276.78344 l 45.962258 -34.57778 v -14.48249 l -45.962252 34.57774 z" fill="#26a269"/>
        <path d="m 18.037424 266.4379 c -14.9884246 -16.01438 -18.27034055 -38.36378 -8.41579 -57.3104 c 9.85455 -18.94662 31.060565 -31.05857 54.378419 -31.05857 l 13.846141 28.96497 l -13.846142 24.82712 z" fill="#57e389"/>
        <rect fill="#1a5fb4" height="13.654913" width="59.99995" x="64.000053" y="229.7921"/>
        <path d="m 64.000055 176.00001 a 59.999947 53.792088 0 0 1 59.999945 53.79209 h -59.999947 z" fill="#62a0ea"/>
        <path d="m 124 238.0678 c -0.0173 1.38143 -0.094 2.76172 -0.22987 4.13786 c 0.13587 -1.37614 0.21254 -2.75643 0.22987 -4.13786 z m -0.22987 4.13786 c -1.80242 21.03072 -23.823526 17.59412 -45.923936 24.82711 c -23.70225 7.73475 -43.59439 22.93551 -59.808394 5.61277 v 4.13786 c 16.214004 17.32274 42.781319 23.70427 66.483569 15.96952 c 23.702351 -7.73442 39.478301 -27.93347 39.478631 -50.54726 z" fill="url(#a)"/>
        <path d="m 124 238.0678 c 0 22.6141 -15.77606 42.81355 -39.478759 50.54802 c -23.702695 7.73448 -50.270219 1.35227 -66.483817 -15.97114 l 45.962628 -34.57688 z" fill="#f9f06b"/>
    </g>
</svg>