<?xml version="1.0" encoding="utf-8"?>
<svg width="128" height="128" viewBox="0 0 128 128" xmlns="http://www.w3.org/2000/svg">
<defs>
<clipPath id="scene">
<rect width="88" height="77" x="20" y="20"/>
</clipPath>
<clipPath id="pile">
<rect width="104" height="104" rx="8" x="12" y="12" transform="rotate(15, 64, 64)"/>
</clipPath>
<linearGradient id="blue" x1="0" y1="0" x2="0" y2="72%">
<stop offset="0" stop-color="#204A87"/>
<stop offset="1" stop-color="#729FCF"/>
</linearGradient>
<linearGradient id="shine" x1="0" y1="0" x2="0" y2="100%">
<stop offset="0" stop-color="#285CA6"/>
<stop offset="0.5" stop-color="#679EC7"/>
<stop offset="1" stop-color="#91B8DB"/>
</linearGradient>
<filter id="shadow">
<feDropShadow dx="0" dy="0" stdDeviation="4" flood-color="#000000" flood-opacity="0.4"/>
</filter>
<filter id="blur">
<feGaussianBlur stdDeviation="2.5"/>
</filter>
</defs>
<g clip-path="url(#pile)">
<rect id="pic2" width="104" height="104" rx="8" x="12" y="12" fill="#CCCCCC" transform="rotate(15, 64, 64)"/>
<rect id="pic1" width="104" height="104" rx="8" x="12" y="12" fill="#F6F5F4" filter="url(#shadow)"/>
</g>
<rect id="pic1" width="104" height="104" rx="8" x="12" y="12" fill="#F6F5F4"/>
<g clip-path="url(#scene)">
<rect id="sky" width="88" height="77" x="20" y="20" fill="url(#blue)"/>
<path id="crystal" d="M0 0C7 24 38 43 38 43L59 0ZM81 68L81 0L65 0L45 48Z" fill="url(#shine)" transform="translate(27 20)"/>
<circle id="sun" r="18" cx="54" cy="88" fill="#FFFFFF" filter="url(#blur)"/>
<rect id="ground" width="88" height="8.8" x="20" y="88.2" fill="#020B12"/>
<path id="tree" d="M0 0C6 3.8 12.17 2.845 16.65 7.57C17 7.84 17.15 8 17.4 8.325C16.3 8.34 13.35 7.55 10.4 8C8 8.5 5.544 7.4 2.64 9.3C6 8 8.735 8.8 11.45 8.44C13.57 8.15 17.3 9.17 19.7 10.55C23.56 14 27 16.6 27.72 19C28.63 22.15 28.85 31.3 29 35C28.5 34.74 28 34.4 27.72 34C27 33.16 26.1 32.23 25.13 31.53C24.2 30.85 23.23 30.23 22.45 29.35C21.65 28.265 20.7 27.3 19.815 26.3C19 25.42 18 24.6 17.25 23.7C16.5 22.8 15.64 22 14.6 21.4C13.7 20.83 12.7 20.2 11.565 20.23C11 20.13 10.4 20 10 19.6C9.26 19 8.4 18.73 7.5 18.65C7.5 18.65 7.65 18.72 7.65 18.72C8.75 19 9.67 19.7 10.55 20.42C11.54 21 12.8 20.83 13.6 21.7C14.45 22.6 15.72 23 16.35 24.185C16.6 24.6 17 25 17.216 25.353C16.37 25.7 15.55 27 15 27.27C13.4 28.32 9.4 24 6 24.37C8.43 24.32 12.85 27.4 13.7 27.65C14.4 27.85 11.7 30.2 9.644 31.3C11.5 30.8 14.44 28.27 15 28.14C15.7 28 16.4 25.8 18 26C18.25 26.45 18.6 26.8 18.87 27.16C19.7 28 20.544 29 21.25 30C22.27 31.34 23.6 32.325 24.7 33.53C25.6 34.47 26.4 35.5 27.24 36.5C28.36 37.86 29.5 39.216 30.63 40.572C31.135 41.624 31.87 42.5 32.62 43.4C33.43 44.3 34.2 45.275 34.8 46.34C35.53 47.41 36.15 48.555 36.6 49.7636C37 51 37.2 52 37.37 53.27C37.6 54.52 37.8 55.8 37.67 57C37.5 59 37.3 60.86 37.144 62.76C37.12 63.7 37 64.715 37.445 65.6C38.513 66.26 39.7887 66.42 41 66.5C42 66.46 43 66.22 44 65.66C44.4 65.465 44.764 65 44.565 64.6C44.34 63.38 44 62.16 44 61C43.8 59.525 43.65 58.13 43.55 56.733C43.43 55.4 43.37 54 43.32 52.777C43.36 51.57 43.415 50.323 43.77 49.16C44.165 48 44.56 46.53 45.28 45.58C46.3 44.325 47.832 43.75 49 42.644C50 41.8 51 41 52 40C53 39.185 54 37.43 54.77 36.466C55.7 35.5 56.57 35.4 57.45 34.5C57.677 34.35 58 34.2 58.16 34C58.8 33.732 59.42 33.36 60.24 33.3C61 33.35 62 33 62.76 33.2C63.6 33.256 64 34 65 34C65.7 33.83 66.5375 33.8345 67.356 34C67 33.8 66.8185 33.72 66.53 33.7C66 33.57 65.34 33.77 64.76 33.72C64 33.65 63.755 33 63 32.85C62.3 32.7 61.46 33 60.65 33C60 32.84 59.4 33 58.73 33C59.65 31.6 60.47 30 61.44 29C63 27.4 65 26 66.3 25.315C68 24.5335 69.176 25.5 71.4 24.4C69 25.45 67.43 24 64.53 25.77C63 26.7 61.86 27.2 61 27.84C59 26.22 60 20.53 58.43 17.2536C58.53 17.14 58.58 17 58.58 16.84C60.44 16 63.23 16 65 16.425C67.2 16.84 66.4 17.265 67.5 17.33C68.5 17.4 70.175 18.333 71.54 18.8735C73 19.46 73.4 18.85 76.17 20.343C74.176 19 72.134 19 71.84 18.6475C72.74 15.72 76.415 15.17 78 12.4C75.815 15.52 73 15.215 71.5753 18.5344C70 18.12 68.63 17.46 68 17C69.69 14.73 65.85 8.323 65.736 6.14C65.6 9 69.15 13.2 67.243 16.764C63.424 15.25 60.3 15.813 58.3 16.274C58.2 16.22 58 16.2 58 16.16C56.344 13.7 56.865 12 55 9.2C56 11.65 56.24 14.27 57.26 16.4C57.3 16.44 57.3 16.5 57.336 16.54C57.3 16.63 57.26 16.73 57.26 16.84C57.26 17.1123 57.44 17.342 57.675 17.44C58.8 20.722 58.38 24.8345 58.654 28C55.834 23.25 52.4385 23.173 50.5 15.52C52 25 59.434 25.7236 57.56 31.6C56.13 33 53.8 35.63 52.7 36.73C52 37.55 50.8 38.26 49.7636 39C48.7 39.74 48.8 40.32 47.7 41C46.86 41.6 45 42.2 44.2636 42.76C43.32 43.5 42.8 44.53 42 45.545C41.577 46.122 40.5 46.28 40.12 47C39.72 45.4455 38.57 42.46 36.4 41.213C35.3134 40.6 34 39.5 33.23 38.54C33 38.333 32.84 38.1555 32.6233 38C31.13 34.356 31 30 30.63 25.843C30.7436 25.73 30.84 25.613 31 25.5C31.613 25 32.2 24.47 33.3 24.1475C34.5 24 35.3 24.55 36.54 24.3735C37.765 24.1532 38.7736 23 40 22.72C41 22.324 42.47 22.55 43.66 22.34C42.3 22.4 41 22.16 39.6 22.565C38.5 22.76 37.825 24 36.77 24C35.5525 24 34.8 23.47 33.64 23.7C32.7 23.833 32 24.1743 31 24.3735C30.85 24.3 30.47 24.433 30.5 24.3C30.4 23.6 30.322 23 30.2123 22.3C30.14 17.6 35.364 19.2 36.43 18.4C37.13 17.844 41 14.7 44.565 14C40.424 14.7233 36.25 17.8773 36.654 16.877C37.173 15.6 37.57 7.33 40 4.37C36.1854 8.153 37.75 17.145 34.92 18C33.536 18.43 30.16 18 29.6 19.66C29.4455 19.3 29.3163 19 29.1575 18.65C28.135 16.542 25.3 14.225 22.2636 11.6C22 10.13 24.32 9.66 24.56 9C24.75 8.564 27.5 6.162 28.2 4.6C26.87 6.315 24.346 8.5 24.222 7.8735C24 7 21.53 3 21.85 0.754C21 3.8 25 7.64 23.7 9C23.2 9.46 21.8 10.135 21.5 11C20 9.64 18.6 8.3 17.2534 6.82C13.33 2.5 10.33 4.37 0 0C0 0 0 0 0 0L0 0C0 0 0 0 0 0Z" fill="#020B12" stroke="#020B12" stroke-width="0.2" transform="translate(25.3 25.76)"/>
</g></svg>
