<?xml version="1.0" encoding="utf-8"?>
<svg width="128" height="128" viewBox="0 0 128 128" xmlns="http://www.w3.org/2000/svg">
<defs>
<clipPath id="upper">
<rect width="104" height="20" x="12" y="12"/>
</clipPath>
<clipPath id="lower">
<rect width="104" height="84" x="12" y="32"/>
</clipPath>
<linearGradient id="gradient" x1="100%" y1="0" x2="0" y2="0">
<stop offset="0" stop-color="#D6D4D0"/>
<stop offset="0.04" stop-color="#F6F5F4"/>
<stop offset="0.08" stop-color="#D5D3CF"/>
<stop offset="0.92" stop-color="#D5D3CF"/>
<stop offset="0.96" stop-color="#EEEEEC"/>
<stop offset="1" stop-color="#D5D3CF"/>
</linearGradient>
</defs>
<g clip-path="url(#lower)">
<rect width="104" height="104" rx="8" x="12" y="12" fill="#A51D2D"/>
<rect width="104" height="102" rx="8" x="12" y="12" fill="url(#gradient)"/>
<rect width="104" height="96" rx="8" x="12" y="12" fill="#F6F5F4"/>
</g><g clip-path="url(#upper)">
<rect width="104" height="28" rx="8" x="12" y="12" fill="#3584E4"/>
<rect width="104" height="2" x="12" y="30" fill="#1A5FB4"/>
</g><g fill="#C0BFBC">
<circle r="4" cx="40" cy="50"/>
<circle r="4" cx="56" cy="50"/>
<circle r="4" cx="72" cy="50"/>
<circle r="4" cx="88" cy="50"/>
<circle r="4" cx="104" cy="50"/>
<circle r="4" cx="24" cy="73"/>
<circle r="4" cx="40" cy="73"/>
<circle r="6" cx="56" cy="73" fill="#ED333B"/>
<circle r="4" cx="72" cy="73"/>
<circle r="4" cx="88" cy="73"/>
<circle r="4" cx="104" cy="73"/>
<circle r="4" cx="24" cy="96"/>
<circle r="4" cx="40" cy="96"/>
<circle r="4" cx="56" cy="96"/>
</g></svg>
