<?xml version="1.0" encoding="UTF-8"?>
<svg height="128px" viewBox="0 0 128 128" width="128px" xmlns="http://www.w3.org/2000/svg" xmlns:xlink="http://www.w3.org/1999/xlink">
    <linearGradient id="a" gradientUnits="userSpaceOnUse">
        <stop offset="0" stop-color="#d5d3cf"/>
        <stop offset="0.0357143" stop-color="#e4e1de"/>
        <stop offset="0.0714286" stop-color="#d5d3cf"/>
        <stop offset="0.928571" stop-color="#d5d3cf"/>
        <stop offset="0.964286" stop-color="#e4e1de"/>
        <stop offset="1" stop-color="#d5d3cf"/>
    </linearGradient>
    <linearGradient id="b" x1="112.875027" x2="53.875027" xlink:href="#a" y1="102.8747595" y2="102.8747595"/>
    <linearGradient id="c" x1="8.000027" x2="120.000027" xlink:href="#a" y1="103.99975575" y2="103.99975575"/>
    <linearGradient id="d" gradientUnits="userSpaceOnUse" x1="100.000014" x2="52.000022" y1="51.999761" y2="51.999761">
        <stop offset="0" stop-color="#26a269"/>
        <stop offset="1" stop-color="#26a269" stop-opacity="0"/>
    </linearGradient>
    <filter id="e" height="100%" width="100%" x="0%" y="0%">
        <feColorMatrix in="SourceGraphic" type="matrix" values="0 0 0 0 1 0 0 0 0 1 0 0 0 0 1 0 0 0 1 0"/>
    </filter>
    <mask id="f">
        <g filter="url(#e)">
            <rect fill-opacity="0.623" height="128" width="128"/>
        </g>
    </mask>
    <clipPath id="g">
        <rect height="152" width="192"/>
    </clipPath>
    <mask id="h">
        <g filter="url(#e)">
            <rect fill-opacity="0.8" height="128" width="128"/>
        </g>
    </mask>
    <clipPath id="i">
        <rect height="152" width="192"/>
    </clipPath>
    <linearGradient id="j" gradientUnits="userSpaceOnUse" x1="17.00002" x2="20.50002" y1="92.749761" y2="92.749761">
        <stop offset="0" stop-color="#e54b57"/>
        <stop offset="1" stop-color="#a51d2d"/>
    </linearGradient>
    <path d="m 16 28 h 96 c 4.417969 0 8 3.582031 8 8 v 70 c 0 4.417969 -3.582031 8 -8 8 h -96 c -4.417969 0 -8 -3.582031 -8 -8 v -70 c 0 -4.417969 3.582031 -8 8 -8 z m 0 0" fill="#f6f5f4"/>
    <path d="m 64 64 v 40 h 44.996094 c 1.664062 0 3.003906 -1.339844 3.003906 -3.007812 v -33.988282 c 0 -1.664062 -1.339844 -3.003906 -3.003906 -3.003906 z m 0 0" fill="url(#b)"/>
    <path d="m 8 104 v 4 c 0 4.433594 3.566406 8 8 8 h 96 c 4.433594 0 8 -3.566406 8 -8 v -4 c 0 4.433594 -3.566406 8 -8 8 h -96 c -4.433594 0 -8 -3.566406 -8 -8 z m 0 0" fill="url(#c)"/>
    <path d="m 17.945312 36 h 92.109376 c 1.074218 0 1.945312 0.871094 1.945312 1.945312 v 20.109376 c 0 1.074218 -0.871094 1.945312 -1.945312 1.945312 h -92.109376 c -1.074218 0 -1.945312 -0.871094 -1.945312 -1.945312 v -20.109376 c 0 -1.074218 0.871094 -1.945312 1.945312 -1.945312 z m 0 0" fill="#241f31"/>
    <path d="m 29 36 h 66 v 24 h -66 z m 0 0" fill="url(#d)"/>
    <g clip-path="url(#g)" mask="url(#f)" transform="matrix(1 0 0 1 -8 -16)">
        <path d="m 104 63 h 16 v 2 h -16 z m 0 0" fill="#26a269"/>
    </g>
    <g clip-path="url(#i)" mask="url(#h)" transform="matrix(1 0 0 1 -8 -16)">
        <path d="m 94 220 l -77 -0.003906" fill="none" stroke="#57e389" stroke-linecap="square" stroke-width="2" transform="matrix(1 0 0 1 8 -156)"/>
    </g>
    <g fill="none" stroke-linecap="round" stroke-width="4">
        <path d="m 42 45.007812 v 5.992188" stroke="#33d17a"/>
        <path d="m 50 46 v 4" stroke="#33d17a"/>
        <path d="m 58 45 v 5.957031" stroke="#33d17a"/>
        <path d="m 66 43 v 10" stroke="#33d17a"/>
        <path d="m 74 41 v 14" stroke="#33d17a"/>
        <path d="m 82 44 v 8" stroke="#33d17a"/>
        <path d="m 90 44 v 8" stroke="#33d17a"/>
        <path d="m 42 47 v 2" stroke="#f9f06b"/>
        <path d="m 58 47 v 2" stroke="#f9f06b"/>
        <path d="m 66 46 v 4" stroke="#f9f06b"/>
        <path d="m 74 45 v 6" stroke="#f9f06b"/>
        <path d="m 82 46 v 4" stroke="#f9f06b"/>
        <path d="m 90 47.042969 v 1.957031" stroke="#f9f06b"/>
    </g>
    <path d="m 64 62 v 38 h 44.996094 c 1.664062 0 3.003906 -1.339844 3.003906 -3.007812 v -31.988282 c 0 -1.664062 -1.339844 -3.003906 -3.003906 -3.003906 z m 0 0" fill="#ffffff"/>
    <path d="m 64 64 v 40 h -44.992188 c -1.667968 0 -3.007812 -1.339844 -3.007812 -3.007812 v -33.988282 c 0 -1.664062 1.339844 -3.003906 3.007812 -3.003906 z m 0 0" fill="url(#j)"/>
    <path d="m 64 64 v 38 h -44.992188 c -1.667968 0 -3.007812 -1.339844 -3.007812 -3.007812 v -31.988282 c 0 -1.664062 1.339844 -3.003906 3.007812 -3.003906 z m 0 0" fill="#e01b24"/>
    <path d="m 49 84 c 0 4.96875 -4.03125 9 -9 9 s -9 -4.03125 -9 -9 c 0 -4.972656 4.03125 -9 9 -9 s 9 4.027344 9 9 z m 0 0" fill="#ffffff"/>
    <path d="m 72 72 v 16 l 16 -8 z m 0 0" fill="#241f31"/>
    <path d="m 88 72 h 6 v 16 h -6 z m 0 0" fill="#241f31"/>
    <path d="m 98 72 h 6 v 16 h -6 z m 0 0" fill="#241f31"/>
    <path d="m 95 36 h 2 v 24 h -2 z m 0 0" fill="#8ff0a4"/>
    <path d="m 17.945312 36 c -1.078124 0 -1.945312 0.867188 -1.945312 1.945312 v 2 c 0 -1.078124 0.867188 -1.945312 1.945312 -1.945312 h 92.109376 c 1.078124 0 1.945312 0.867188 1.945312 1.945312 v -2 c 0 -1.078124 -0.867188 -1.945312 -1.945312 -1.945312 z m 0 0" fill="#241f31" fill-opacity="0.37395"/>
</svg>
