<?xml version="1.0" encoding="utf-8"?>
<svg width="128" height="128" viewBox="0 0 128 128" xmlns="http://www.w3.org/2000/svg">
<defs>
<linearGradient id="corners" x1="0" y1="0" x2="100%" y2="0">
<stop offset="0" stop-color="#BABAB6"/>
<stop offset="4%" stop-color="#EEEEEC"/>
<stop offset="8%" stop-color="#BEBEB8"/>
<stop offset="92%" stop-color="#BEBEB8"/>
<stop offset="96%" stop-color="#F6F5F4"/>
<stop offset="100%" stop-color="#BABAB6"/>
</linearGradient>
</defs>
<rect width="88" height="112" rx="8" x="20" y="8" fill="url(#corners)"/>
<rect width="88" height="104" rx="8" x="20" y="8" fill="#F6F5F4"/>
<g id="text" fill="#CCCCCC" transform="translate(28 28)">
<path d="M0 0L0 10L64 10L64 6L72 6L72 0Z" transform="translate(0 48)"/>
<path d="M0 0L36 0L36 18L20 18L20 22L0 22Z" transform="translate(0 22)"/>
<path d="M0 0L72 0L72 6L36 6L36 18L0 18Z"/>
</g><rect id="title" width="40" height="4" x="28" y="20" fill="#77767B"/>
<g id="glasses" transform="translate(14 80)">
<path id="shadow" d="M28 0C27 0 26 0.26 25 0.8C24 1.3 23.3 2 22.76 3C22.16 2.42 21.3 2 20 2C20 2 0 2 0 2L0 18C0 18 8.275 18 8.275 18C7.76 19.13 7.83 20.63 9.4 22.225C9.4 22.225 13.6 18 13.6 18C13.6 18 19.154 18 19.154 18C21.83 18 24 15.83 24 13.154C24 13.154 24 12 24 12L32 12C32 12 32 13.154 32 13.154C32 15.83 34.173 18 36.85 18C36.85 18 42.42 18 42.42 18C42.42 18 46.62 22.2 46.62 22.2C48.16 20.6 48.24 19.125 47.74 18C47.74 18 55.1542 18 55.1542 18C57.83 18 60 15.83 60 13.154C60 13.154 60 12 60 12L62 12C62 12 62 4 62 4C62 3 61.2 2 60 2C60 2 36 2 36 2C36 2 34.42 2 33.25 3C32.7 2 32 1.3 31 0.8C30 0.26 29 0 28 0C28 0 28 0 28 0ZM28 2C28.7 2 29.4 2.174 30 2.5C31.26 3.2 32 4.444 32 5.8C32 5.82 32 5.86 32 6C32 6 32 6 32 6C32 6 32 8 32 8L24 8L24 6C24 6 24 6 24 6C24 6 24 5.823 24 5.777C24 4.444 24.74 3.2 26 2.52C26.6 2.18 27.3 2 28 2C28 2 28 2 28 2Z" fill="#000000" fill-opacity="0.2" transform="translate(6 2)"/>
<path d="M1.4 14.2C-0.7 12 0 10 1 9C1 9 10 0 10 0L54 0L54 4L11.6 4C11.6 4 1.4 14.2 1.4 14.2Z" fill="#949390" transform="translate(14 8)"/>
<path d="M52.62 14.2C54.73 12 54.1 10 53 9C53 9 44 0 44 0L0 0L0 4L42.42 4C42.42 4 52.62 14.2 52.62 14.2Z" fill="#949390" transform="translate(0 8)"/>
<path id="armour" d="M30 13.1526L30 6C30 3.8 31.8 2 34 2C36.2 2 38 3.8 38 6L38 13.155C38 14.5 38.47 15.6362 39.4165 16.6C40.3634 17.53 41.5 18 42.845 18L61.155 18C62.5 18 63.6362 17.53 64.6 16.6C65.53 15.636 66 14.5 66 13.1526L66 10C68 10 68 12 68 12L68 4C68 3 67.172 2 66 2L42 2C42 2 40.4 2 39.2 3C38.2 1.22 36.23 0 34 0C31.8 0 29.83 1.2 28.8 3C28.2 2.434 27.3175 2 26 2L2 2C1.12 2 0 3 0 4L0 12C0 12 0 10 2 10L2 13.155C2 14.5 2.47 15.6362 3.4165 16.6C4.3633 17.53 5.5 18 6.845 18L25.155 18C26.5 18 27.6362 17.53 28.6 16.6C29.53 15.6362 30 14.5 30 13.1526L30 13.1526Z" fill="#1A5FB4" fill-rule="evenodd"/>
<path id="glass" d="M24 0L0 0L0 7.155C0 8 0.275 8.614 0.83 9.17C1.4 9.725 2 10 2.843 10L21.15 10C22 10 22.614 9.725 23.17 9.17C23.725 8.614 24 8 24 7.16Z" fill="#FFFFFF" transform="translate(4 6)"/>
<path id="glass" d="M24 0L0 0L0 7.155C0 8 0.275 8.614 0.83 9.17C1.4 9.725 2 10 2.843 10L21.15 10C22 10 22.614 9.725 23.17 9.17C23.725 8.614 24 8 24 7.16Z" fill="#FFFFFF" transform="translate(40 6)"/>
</g><g id="evince" transform="translate(68 38)">
<rect width="32" height="32" fill="#FF503C"/>
<path id="e" d="M0 19C5.14 17.56 10 15.144 14.18 12C15.6 10.8 17 9.55 17.86 8C18.3 7.18 18.6 6.3 18.675 5.4C18.76 4.5145 18.6136 3.6 18.212 2.8C17.86 2 17.34 1.5 16.7 1C16 0.619 15.343 0.3 14.6 0.14C13 0 11.47 0 10 0.623C8.276 1.3 6.7 2.4 5.56 3.885C4.43741 5.4 3.8 7.26 4 9.12C4 10.3223 4.464 11.5 5.1 12.5252C5.73676 13.5543 6.6 14.44 7.57 15.1535C9.525 16.58 11.92 17.3 14.32 17.6C19.8 18.3 25.5 16.9 30 13.7453C30 13.7453 30 8.61136 29.9762 8.61136C26.44 12.5133 21. 15 16.1653 15.5137C13.9 15.7235 11.5438 15.5523 9.5 14.56C8.477 14 7.55 13.36 6.83523 12.4737C6.12271 11.6 5.634 10.5143 5.5 9.4C5.29 7.74 5.85 6 6.9 4.74C8 3.44 9.38 2.52542 11 2C11.8357 1.75751 12.76 1.6051 13.67 1.72187C14.577 1.84 15.4676 2.2434 16 3C16.54 3.5 16.8 4.24135 16.8471 4.98156C16.9 5.72177 16.7313 6.47 16.4364 7.14776C15.85 8.5 14.761 9.6 13.6536 10.5717C9.62749 14.1536 5 17 0 19C0 19 0 19 0 19Z" fill="#FFFFFF" fill-rule="nonzero" transform="translate(2 6)"/>
</g></svg>
