<svg height="128" width="128" xmlns="http://www.w3.org/2000/svg" xmlns:xlink="http://www.w3.org/1999/xlink">
    <linearGradient id="a" gradientUnits="userSpaceOnUse" x1="12" x2="116" y1="104" y2="104">
        <stop offset="0" stop-color="#613583"/>
        <stop offset="0.038" stop-color="#c061cb"/>
        <stop offset="0.077" stop-color="#613583"/>
        <stop offset="0.923" stop-color="#613583"/>
        <stop offset="0.962" stop-color="#c061cb"/>
        <stop offset="1" stop-color="#613583"/>
    </linearGradient>
    <filter id="b" height="100%" width="100%" x="0%" y="0%">
        <feColorMatrix in="SourceGraphic" values="0 0 0 0 1 0 0 0 0 1 0 0 0 0 1 0 0 0 1 0"/>
    </filter>
    <mask id="c">
        <g filter="url(#b)">
            <path d="m 0 0 h 128 v 128 h -128 z" fill-opacity="0.2"/>
        </g>
    </mask>
    <clipPath id="d">
        <path d="m 0 0 h 192 v 152 h -192 z"/>
    </clipPath>
    <linearGradient id="e" gradientTransform="matrix(-1.02326 0 0 1.14286 129.489 -200.572)" gradientUnits="userSpaceOnUse" x1="51.952" x2="108" y1="209.311" y2="260">
        <stop offset="0" stop-color="#f6f5f4"/>
        <stop offset="1" stop-color="#deddda"/>
    </linearGradient>
    <radialGradient id="f" cx="-223" cy="64" gradientTransform="matrix(0 -1.55556 1.55556 0 -35.555 -298.389)" gradientUnits="userSpaceOnUse" r="24">
        <stop offset="0" stop-color="#c061cb"/>
        <stop offset="1" stop-color="#a347ba"/>
    </radialGradient>
    <linearGradient id="g" gradientUnits="userSpaceOnUse">
        <stop offset="0" stop-color="#3d3846"/>
        <stop offset="0.351" stop-color="#9a9996"/>
        <stop offset="0.602" stop-color="#77767b"/>
        <stop offset="1" stop-color="#3d3846"/>
    </linearGradient>
    <linearGradient id="h" gradientTransform="matrix(0.75 0 0 0.7 -29 -63)" x1="60" x2="68" xlink:href="#g" y1="199.856" y2="199.856"/>
    <linearGradient id="i" gradientTransform="matrix(0.75 0 0 0.7 -29 -96)" x1="60" x2="68" xlink:href="#g" y1="199.856" y2="199.856"/>
    <linearGradient id="j" gradientTransform="matrix(0 -1 1 0 0 -171)" gradientUnits="userSpaceOnUse" x1="-254" x2="-206" y1="64" y2="64">
        <stop offset="0" stop-color="#deddda"/>
        <stop offset="1" stop-color="#f6f5f4"/>
    </linearGradient>
    <path d="m 20 32 h 88 a 8 8 0 0 1 8 8 v 68 a 8 8 0 0 1 -8 8 h -88 a 8 8 0 0 1 -8 -8 v -68 a 8 8 0 0 1 8 -8 z m 0 0" fill="url(#a)"/>
    <path d="m 20 12 h 88 a 8 8 0 0 1 8 8 v 80 a 8 8 0 0 1 -8 8 h -88 a 8 8 0 0 1 -8 -8 v -80 a 8 8 0 0 1 8 -8 z m 0 0" fill="#a347ba"/>
    <g clip-path="url(#d)" mask="url(#c)" transform="matrix(1 0 0 1 -8 -16)">
        <path d="m 113 38 h -82 a 3 3 0 0 0 -3 3 v 74 a 3 3 0 0 0 3 3 h 82 a 3 3 0 0 0 3 -3 v -74 a 3 3 0 0 0 -3 -3 z m 0 0"/>
    </g>
    <path d="m 16 72 h 6 v 14 h -6 z m 0 -34 h 6 v 15 h -6 z m 0 0" fill="#3d3846"/>
    <path d="m 105 20 h -82 a 3 3 0 0 0 -3 3 v 74 a 3 3 0 0 0 3 3 h 82 a 3 3 0 0 0 3 -3 v -74 a 3 3 0 0 0 -3 -3 z m 0 0" fill="url(#e)"/>
    <path d="m 64 33 c 15.465 0 28 12.535 28 28 s -12.535 28 -28 28 s -28 -12.535 -28 -28 s 12.535 -28 28 -28 z m 0 0" fill="#613583"/>
    <path d="m 64 31 c 15.465 0 28 12.535 28 28 s -12.535 28 -28 28 s -28 -12.535 -28 -28 s 12.535 -28 28 -28 z m 0 0" fill="url(#f)"/>
    <path d="m 19 69 c -1.656 0 -3 0.45 -3 1 v 14 h 6 v -14 c 0 -0.55 -1.344 -1 -3 -1 z m 0 0" fill="url(#h)"/>
    <path d="m 19 83 c -1.656 0 -3 0.45 -3 1 s 1.344 1 3 1 c 0.34 0 0.68 -0.02 1 -0.059 v -0.941 h 2 c 0 -0.55 -1.344 -1 -3 -1 z m 0 -8 c -1.656 0 -3 0.45 -3 1 v 2 c 0 -0.55 1.344 -1 3 -1 s 3 0.45 3 1 v -2 c 0 -0.55 -1.344 -1 -3 -1 z m 1.2 2.914" fill="#3d3846"/>
    <path d="m 19 36 c -1.656 0 -3 0.45 -3 1 v 14 h 6 v -14 c 0 -0.55 -1.344 -1 -3 -1 z m 0 0" fill="url(#i)"/>
    <path d="m 19 50 c -1.656 0 -3 0.45 -3 1 s 1.344 1 3 1 c 0.34 0 0.68 -0.02 1 -0.059 v -0.941 h 2 c 0 -0.55 -1.344 -1 -3 -1 z m 0 -8 c -1.656 0 -3 0.45 -3 1 v 2 c 0 -0.55 1.344 -1 3 -1 s 3 0.45 3 1 v -2 c 0 -0.55 -1.344 -1 -3 -1 z m 1.2 2.914" fill="#3d3846"/>
    <path d="m 64 35 c 13.254 0 24 10.746 24 24 s -10.746 24 -24 24 s -24 -10.746 -24 -24 s 10.746 -24 24 -24 z m 0 0" fill="url(#j)"/>
    <path d="m 68 43 h -8 v 10 h 4 v 2 l -4 2 v 18 h 8 v -10 l -4 -2 l 4 -2 z m 0 0" fill="#3d3846"/>
</svg>
