<?xml version="1.0" encoding="utf-8"?>
<svg width="128" height="128" viewBox="0 0 128 128" xmlns="http://www.w3.org/2000/svg">
<rect width="112" height="88" rx="8" x="8" y="28" fill="#3584E4"/>
<g stroke-width="2"><g stroke="#62A0EA">
<line x1="12" y1="101" x2="105" y2="101"/>
<line x1="12" y1="43" x2="116" y2="43"/>
<line x1="23" y1="32" x2="23" y2="101"/>
<line x1="15" y1="43" x2="15" y2="101"/>
<line x1="105" y1="32" x2="105" y2="101"/>
<line x1="23" y1="51" x2="116" y2="51"/>
<line x1="23" y1="35" x2="105" y2="35"/>
<line x1="113" y1="43" x2="113" y2="51"/>
<line x1="33" y1="51" x2="33" y2="68"/>
<line x1="33" y1="80" x2="33" y2="101"/>
<line x1="39" y1="80" x2="39" y2="90"/>
<line x1="47" y1="51" x2="47" y2="90"/>
<line x1="23" y1="71" x2="36" y2="71"/>
<line x1="44" y1="69" x2="105" y2="69"/>
<line x1="44" y1="81" x2="105" y2="81"/>
<line x1="23" y1="83" x2="36" y2="83"/>
<line x1="39" y1="87" x2="47" y2="87"/>
</g><g fill="none" stroke="#FFFFFF">
<rect width="82" height="58" x="23" y="43"/>
<rect width="82" height="8" x="23" y="43"/>
<line x1="46" y1="81" x2="86" y2="81"/>
<line x1="46" y1="69" x2="86" y2="69"/>
<circle r="3" cx="36" cy="80"/>
<circle r="3" cx="36" cy="68"/>
</g></g>
<path d="M107.125 0L2.746 60.2624L0 60.85L0 61.85L26.125 61.85L107.125 61.85ZM93.125 24.25L93.125 47.85L52.25 47.85Z" fill="#B38108" transform="translate(12.875 55.15)"/>
<path d="M107.125 0L0 61.85L26.125 61.85L107.125 61.85ZM93.125 24.25L93.125 47.85L52.25 47.85Z" fill="#F6D32D" transform="translate(12.875 54.15)"/>
<path d="M93.125 0L52.25 23.6L52.25 25.6L93.125 2ZM3.465 37.6L0 39.6L26.125 39.6L107.125 39.6L107.125 37.6L26.125 37.6Z" fill="#E5A50A" transform="translate(12.875 76.4)"/>
<path d="M96 0L96 5M81 0L81 5M66 0L66 5M51 0L51 5M36 0L36 5M21 0L21 5M6 0L6 5M93 2L93 5M90 2L90 5M87 2L87 5M84 2L84 5M78 2L78 5M75 2L75 5M72 2L72 5M69 2L69 5M63 2L63 5M60 2L60 5M57 2L57 5M54 2L54 5M48 2L48 5M45 2L45 5M42 2L42 5M39 2L39 5M33 2L33 5M30 2L30 5M24 2L24 5M27 2L27 5M15 2L15 5M12 2L12 5M18 2L18 5M9 2L9 5M3 2L3 5M0 2L0 5" fill="none" stroke="#B38108" stroke-width="1" transform="translate(21.5 111)"/>
</svg>
