<?xml version="1.0" encoding="UTF-8" standalone="no"?>
<svg enable-background="new" height="128" viewBox="0 0 128 128" width="128" xmlns="http://www.w3.org/2000/svg" xmlns:xlink="http://www.w3.org/1999/xlink" xmlns:dc="http://purl.org/dc/elements/1.1/" xmlns:cc="http://creativecommons.org/ns#" xmlns:rdf="http://www.w3.org/1999/02/22-rdf-syntax-ns#" xmlns:svg="http://www.w3.org/2000/svg">
    <linearGradient id="a" gradientUnits="userSpaceOnUse" x1="96" x2="104" y1="255" y2="255">
        <stop offset="0" stop-color="#e8e7e4"/>
        <stop offset="0.5" stop-color="#ffffff"/>
        <stop offset="1" stop-color="#c9c6c1"/>
    </linearGradient>
    <g transform="matrix(1 0 0 1 0 -172)">
        <path d="m 24 200 v 92 h 72 c 4.432 0 8 -3.568 8 -8 v -76 c 0 -4.432 -3.568 -8 -8 -8 z" fill="#a51d2d" paint-order="normal"/>
        <rect fill="#191622" height="17.999992" width="8" x="24" y="274"/>
        <path d="m 26 220 v 70 h 70 c 4.432 0 8 -3.568 8 -8 v -54 c 0 -4.432 -3.568 -8 -8 -8 z" fill="url(#a)" paint-order="normal"/>
        <path d="m 24 200 v 76 h 72 c 4.432 0 8 -3.568 8 -8 v -60 c 0 -4.432 -3.568 -8 -8 -8 z" fill="#ac1d2e" paint-order="normal"/>
        <path d="m 24 180 v 94 h 72 c 4.432 0 8 -3.568 8 -8 v -78 c 0 -4.432 -3.568 -8 -8 -8 z" fill="#ed333b" paint-order="normal"/>
        <rect fill="#424048" height="94.000008" width="8" x="24" y="180"/>
        <g fill="#ffffff">
            <path d="m 26 180.00001 h 2 v 94 h -2 z" opacity="0.223" paint-order="normal"/>
            <path d="m 58 206.02051 v 5.9795 h -0.74854 c -2.18863 0 -3.26074 1.20587 -3.26074 3.30517 v 6.61621 c 0 3.08196 -0.93803 4.37761 -2.99267 5.00293 c 2.05464 0.62533 2.99267 1.92049 2.99267 5.00244 v 6.76807 c 0 2.0993 1.07211 3.30518 3.26074 3.30518 h 0.74854 v 5.82763 h -1.56641 c -5.58325 0 -8.44189 -2.85852 -8.44189 -7.99511 v -7.73145 c 0 -1.42931 -0.75936 -2.10413 -1.96533 -2.09961 l -2.02637 -0.00146 v -5.9585 l 2.02637 0.002 c 1.20598 0.001 1.96533 -0.6703 1.96533 -2.09961 v -7.92827 c 0 -5.13659 2.85864 -7.99512 8.44189 -7.99512 z" font-variant-ligatures="normal" font-variant-caps="normal" font-variant-numeric="normal" font-feature-settings="normal" text-align="start"/>
            <path d="m 74 206.02051 v 5.9795 h 0.74853 c 2.18864 0 3.26075 1.20587 3.26075 3.30517 v 6.61621 c 0 3.08196 0.93803 4.37761 2.99267 5.00293 c -2.05464 0.62533 -2.99267 1.92049 -2.99267 5.00244 v 6.76807 c 0 2.0993 -1.07211 3.30518 -3.26075 3.30518 h -0.74853 v 5.82763 h 1.5664 c 5.58326 0 8.4419 -2.85852 8.4419 -7.99511 v -7.73145 c 0 -1.42931 0.75936 -2.10413 1.96533 -2.09961 l 2.02637 -0.00146 v -5.9585 l -2.02637 0.002 c -1.20598 0.001 -1.96533 -0.6703 -1.96533 -2.09961 v -7.92827 c 0 -5.13659 -2.85864 -7.99512 -8.4419 -7.99512 z" font-variant-ligatures="normal" font-variant-caps="normal" font-variant-numeric="normal" font-feature-settings="normal" text-align="start"/>
        </g>
        <rect fill="#191622" height="2" width="8" x="24" y="274"/>
    </g>
</svg>
