<?xml version="1.0" encoding="utf-8"?>
<svg width="128" height="128" viewBox="0 0 128 128" fill="none" xmlns="http://www.w3.org/2000/svg">
  <defs>
    <linearGradient id="gradient_1" gradientUnits="userSpaceOnUse" x1="78" y1="35" x2="86" y2="35">
      <stop offset="0" stop-color="#DEDDDA" />
      <stop offset="0.511" stop-color="#FFFFFF" />
      <stop offset="1" stop-color="#C0BFBC" />
    </linearGradient>
  </defs>
  <g>
    <path d="M0 0L0 92C0 92 80 92 80 92C84.432 92 88 88.432 88 84C88 84 88 8 88 8C88 3.56799 84.432 0 80 0C80 0 0 0 0 0Z" fill="#C64600" fill-rule="evenodd" transform="translate(20 28)" />
    <path d="M0 0L0 70C0 70 78 70 78 70C82.432 70 86 66.432 86 62C86 62 86 8 86 8C86 3.56799 82.432 0 78 0C78 0 0 0 0 0Z" fill="url(#gradient_1)" fill-rule="evenodd" transform="translate(22 48)" />
    <path d="M0 0L0 84C0 84 80 84 80 84C84.432 84 88 80.432 88 76C88 76 88 8 88 8C88 3.56799 84.432 0 80 0C80 0 0 0 0 0Z" fill="#C64600" fill-rule="evenodd" transform="translate(20 28)" />
    <rect width="8" height="10" fill="#A51D2D" fill-rule="evenodd" transform="translate(88 110)" />
    <path d="M0 0L0 102C0 102 80 102 80 102C84.432 102 88 98.432 88 94C88 94 88 8 88 8C88 3.568 84.432 0 80 0C80 0 0 0 0 0Z" fill="#FF7800" fill-rule="evenodd" transform="translate(20 8)" />
    <rect width="8" height="102" fill="#ED333B" fill-rule="evenodd" transform="translate(88 8)" />
    <path d="M0 0L12 0L12 13L6 8L0 13L0 0Z" fill="#1C71D8" transform="translate(32 115)" />
  </g>
</svg>