<svg height="128" width="128" xmlns="http://www.w3.org/2000/svg" xmlns:xlink="http://www.w3.org/1999/xlink">
    <linearGradient id="a" gradientUnits="userSpaceOnUse" x1="2.23" x2="125.236" y1="71.43" y2="72.679">
        <stop offset="0" stop-color="#208757"/>
        <stop offset="0.077" stop-color="#2ec27e"/>
        <stop offset="0.147" stop-color="#208a5a"/>
        <stop offset="0.198" stop-color="#26a269"/>
        <stop offset="0.364" stop-color="#1c774d"/>
        <stop offset="0.407" stop-color="#26a269"/>
        <stop offset="0.493" stop-color="#26a269"/>
        <stop offset="0.576" stop-color="#26a269"/>
        <stop offset="0.606" stop-color="#2ec27e"/>
        <stop offset="0.681" stop-color="#26a269"/>
        <stop offset="0.784" stop-color="#1d7a4e"/>
        <stop offset="0.945" stop-color="#28ab6f"/>
        <stop offset="1" stop-color="#48d493"/>
    </linearGradient>
    <path d="m 21.965 18.363 v 4 l 2.039 17.75 c 0.418 3.637 1.055 7.282 0.844 10.938 c -0.106 1.828 -0.465 3.668 -1.309 5.293 c -0.426 0.812 -0.969 1.57 -1.644 2.191 c -0.676 0.621 -1.485 1.106 -2.364 1.356 c -1.047 0.297 -2.156 0.261 -3.238 0.164 c -1.094 -0.098 -2.227 -0.282 -3.137 -0.903 c -0.394 -0.273 -0.73 -0.617 -1.082 -0.945 c -0.351 -0.328 -0.726 -0.645 -1.168 -0.832 c -0.691 -0.297 -1.492 -0.254 -2.207 -0.023 c -0.715 0.23 -1.355 0.64 -1.972 1.066 c -1.188 0.824 -2.325 1.758 -3.184 2.922 c -1.734 2.344 -2.203 5.46 -1.711 8.336 c 0.367 2.152 1.258 4.238 2.688 5.89 c 0.722 0.836 1.582 1.563 2.566 2.063 c 0.98 0.504 2.09 0.773 3.195 0.71 c 1.446 -0.085 2.79 -0.73 4.114 -1.327 c 1.32 -0.594 2.718 -1.16 4.168 -1.067 a 5.113 5.113 0 0 1 2.332 0.758 a 5.958 5.958 0 0 1 1.773 1.707 c 0.848 1.242 1.234 2.742 1.531 4.219 c 1.832 9.133 0.778 18.82 -2.98 27.344 v 4 c 6.812 2.347 13.8 4.199 20.886 5.535 c 2.356 0.441 4.801 0.824 7.13 0.246 c 1.163 -0.29 2.28 -0.832 3.148 -1.66 a 5.39 5.39 0 0 0 1.441 -2.34 c 0.266 -0.887 0.278 -1.828 0.254 -2.754 l -0.078 -3 c -0.426 0.09 -0.875 0.059 -1.285 -0.082 a 2.751 2.751 0 0 1 -1.16 -0.8 a 3.768 3.768 0 0 1 -0.7 -1.231 c -0.316 -0.895 -0.351 -1.864 -0.355 -2.813 c -0.008 -1.57 0.063 -3.187 0.684 -4.629 c 0.629 -1.465 1.793 -2.652 3.117 -3.535 c 2.64 -1.758 5.898 -2.375 9.07 -2.414 c 2.91 -0.035 5.918 0.414 8.387 1.953 c 1.238 0.77 2.316 1.809 3.043 3.07 c 0.722 1.262 1.078 2.739 0.953 4.188 c -0.098 1.117 -0.477 2.2 -1.02 3.18 a 9.862 9.862 0 0 1 -2.734 3.113 c 0.012 0.996 0.02 1.992 0.02 2.988 c 0.003 0.555 0.003 1.114 0.07 1.664 c 0.07 0.551 0.21 1.098 0.476 1.586 c 0.383 0.7 1.012 1.239 1.692 1.657 c 0.68 0.414 1.422 0.722 2.176 0.984 c 4.207 1.46 8.793 1.562 13.203 0.922 a 40.756 40.756 0 0 0 15.86 -5.88 l -0.005 -4.003 a 60.146 60.146 0 0 1 -3.433 -25.465 c 0.125 -1.512 0.312 -3.039 0.894 -4.441 c 0.29 -0.7 0.68 -1.364 1.18 -1.93 c 0.504 -0.566 1.12 -1.039 1.82 -1.332 c 0.82 -0.344 1.727 -0.434 2.613 -0.367 c 0.887 0.07 1.75 0.297 2.598 0.57 c 1.688 0.547 3.344 1.297 5.117 1.418 c 1.492 0.098 2.996 -0.266 4.332 -0.937 a 9.894 9.894 0 0 0 4.016 -3.715 a 9.91 9.91 0 0 0 1.418 -5.285 l 0.176 -2.258 a 16.406 16.406 0 0 0 -3.075 -6.477 c -0.785 -0.996 -1.707 -1.914 -2.835 -2.496 a 5.247 5.247 0 0 0 -1.805 -0.558 a 4.18 4.18 0 0 0 -1.875 0.214 c -0.988 0.364 -1.774 1.125 -2.703 1.614 c -1.032 0.543 -2.203 0.738 -3.364 0.824 c -1.148 0.086 -2.324 0.07 -3.425 -0.274 c -1.48 -0.464 -2.743 -1.52 -3.602 -2.812 c -0.855 -1.293 -1.332 -2.805 -1.59 -4.328 c -0.574 -3.399 -0.117 -6.871 0.266 -10.297 a 227.56 227.56 0 0 0 1.34 -19.973 a 497.333 497.333 0 0 1 -21.118 -5.117 c -1.355 -0.36 -2.718 -0.726 -4.113 -0.894 c -1.394 -0.165 -2.836 -0.118 -4.168 0.332 a 7.108 7.108 0 0 0 -2.93 1.894 v 4 c 0 0.414 0.016 0.828 0.11 1.235 c 0.094 0.402 0.258 0.789 0.445 1.156 c 0.371 0.738 0.82 1.433 1.313 2.097 c 0.98 1.329 2.136 2.563 2.765 4.094 c 0.688 1.676 0.668 3.606 0.07 5.317 c -0.597 1.707 -1.75 3.203 -3.179 4.312 c -1.43 1.113 -3.133 1.852 -4.895 2.262 c -1.765 0.414 -3.593 0.508 -5.402 0.406 c -2.926 -0.164 -5.906 -0.875 -8.25 -2.633 c -1.172 -0.883 -2.164 -2.015 -2.793 -3.34 c -0.625 -1.324 -0.879 -2.828 -0.668 -4.277 c 0.293 -1.973 1.399 -3.71 2.45 -5.406 c 0.421 -0.684 0.831 -1.38 1.078 -2.14 c 0.242 -0.763 0.296 -1.571 0.308 -2.372 l 0.055 -4.539 a 1.89 1.89 0 0 1 -1.695 0.777 c -0.516 -0.047 -0.989 -0.3 -1.41 -0.601 c -0.419 -0.301 -0.801 -0.653 -1.231 -0.938 c -0.871 -0.578 -1.914 -0.855 -2.957 -0.933 c -1.043 -0.075 -2.09 0.039 -3.125 0.191 c -2.403 0.356 -4.77 0.91 -7.176 1.266 c -2.402 0.351 -4.832 0.46 -7.262 0.496 z m 0 0" fill="url(#a)"/>
    <path d="m 21.965 18.363 l 2.039 17.746 c 0.426 3.715 1.16 7.414 1.094 11.149 c -0.035 1.867 -0.34 3.77 -1.239 5.41 c -0.449 0.816 -1.047 1.562 -1.785 2.133 c -0.738 0.574 -1.617 0.972 -2.543 1.09 c -1.504 0.195 -2.996 -0.344 -4.379 -0.961 c -1.379 -0.621 -2.75 -1.344 -4.246 -1.555 c -1.465 -0.21 -2.984 0.094 -4.293 0.777 c -1.308 0.688 -2.406 1.746 -3.207 2.989 c -1.601 2.484 -1.972 5.605 -1.574 8.535 c 0.3 2.219 1.05 4.433 2.512 6.133 c 0.73 0.847 1.633 1.558 2.656 2.011 c 1.023 0.457 2.168 0.657 3.281 0.52 c 1.54 -0.192 2.926 -1 4.324 -1.676 c 0.704 -0.336 1.422 -0.644 2.176 -0.828 s 1.551 -0.238 2.309 -0.066 c 0.82 0.183 1.566 0.628 2.164 1.218 c 0.601 0.586 1.05 1.313 1.375 2.086 c 0.64 1.551 0.762 3.258 0.84 4.934 a 123.2 123.2 0 0 1 -2.25 29.965 a 133.42 133.42 0 0 0 20.886 5.53 c 2.352 0.427 4.793 0.782 7.11 0.196 c 1.16 -0.293 2.27 -0.828 3.152 -1.633 c 0.883 -0.804 1.528 -1.89 1.711 -3.074 c 0.133 -0.879 0.012 -1.789 -0.25 -2.64 c -0.262 -0.852 -0.668 -1.657 -1.101 -2.438 c -0.868 -1.559 -1.887 -3.086 -2.227 -4.84 c -0.3 -1.558 -0.023 -3.207 0.676 -4.633 c 0.703 -1.425 1.816 -2.629 3.12 -3.535 c 2.614 -1.804 5.9 -2.383 9.075 -2.41 c 2.91 -0.023 5.918 0.414 8.39 1.953 c 1.235 0.77 2.313 1.809 3.04 3.07 c 0.73 1.258 1.097 2.743 0.953 4.188 c -0.117 1.113 -0.524 2.18 -1.024 3.18 c -0.5 1.004 -1.093 1.957 -1.609 2.949 c -0.512 0.996 -0.95 2.047 -1.11 3.152 c -0.156 1.11 -0.019 2.29 0.555 3.25 c 0.41 0.684 1.02 1.23 1.696 1.649 c 0.675 0.422 1.418 0.722 2.168 0.992 a 30.23 30.23 0 0 0 15.183 1.332 a 30.128 30.128 0 0 0 13.88 -6.293 l -2.587 -19.371 c -0.453 -3.406 -1.14 -6.813 -1.047 -10.246 c 0.043 -1.719 0.34 -3.461 1.141 -4.98 a 6.796 6.796 0 0 1 1.578 -2.02 a 5.338 5.338 0 0 1 2.262 -1.18 c 0.8 -0.183 1.637 -0.164 2.441 -0.02 c 0.809 0.145 1.59 0.41 2.352 0.708 c 1.527 0.597 3.023 1.34 4.648 1.558 c 1.5 0.203 3.055 -0.062 4.426 -0.699 c 1.375 -0.64 2.566 -1.648 3.469 -2.863 c 1.808 -2.434 2.418 -5.625 2.047 -8.63 c -0.305 -2.448 -1.258 -4.862 -2.953 -6.655 c -0.848 -0.895 -1.875 -1.63 -3.016 -2.098 c -1.14 -0.473 -2.395 -0.684 -3.621 -0.563 c -1.637 0.157 -3.153 0.875 -4.688 1.461 c -0.765 0.297 -1.55 0.559 -2.355 0.707 c -0.809 0.149 -1.649 0.176 -2.45 -0.004 c -1.214 -0.27 -2.296 -1.007 -3.081 -1.972 c -0.786 -0.965 -1.286 -2.14 -1.547 -3.36 c -0.524 -2.43 -0.125 -4.953 0.23 -7.414 a 199.18 199.18 0 0 0 2 -24.914 a 119.325 119.325 0 0 0 -22.3 -4.867 c -2.329 -0.281 -4.75 -0.48 -6.97 0.274 c -1.113 0.378 -2.152 1 -2.933 1.875 c -0.781 0.87 -1.289 2.011 -1.312 3.183 c -0.02 0.824 0.199 1.645 0.543 2.395 c 0.347 0.75 0.812 1.441 1.312 2.097 c 1 1.317 2.148 2.559 2.773 4.09 c 0.688 1.676 0.676 3.606 0.082 5.32 c -0.593 1.711 -1.746 3.207 -3.175 4.32 c -1.434 1.114 -3.137 1.852 -4.903 2.263 c -1.765 0.41 -3.593 0.5 -5.406 0.394 c -2.918 -0.172 -5.894 -0.89 -8.23 -2.652 c -1.168 -0.88 -2.157 -2.016 -2.79 -3.332 c -0.632 -1.317 -0.906 -2.82 -0.69 -4.266 c 0.296 -1.965 1.437 -3.68 2.398 -5.418 c 0.48 -0.871 0.925 -1.77 1.199 -2.723 c 0.277 -0.953 0.379 -1.976 0.168 -2.945 c -0.219 -1.016 -0.774 -1.941 -1.512 -2.672 c -0.738 -0.726 -1.652 -1.261 -2.629 -1.617 c -1.949 -0.71 -4.078 -0.707 -6.148 -0.586 a 58.229 58.229 0 0 0 -22.254 5.867 z m 0 0" fill="#33d17a"/>
</svg>
