<?xml version="1.0" encoding="utf-8"?>
<svg width="128" height="128" viewBox="0 0 128 128" xmlns="http://www.w3.org/2000/svg">
<defs>
<linearGradient id="corners" x1="0" y1="0" x2="1" y2="0">
<stop offset="0" stop-color="#A8A7A5"/>
<stop offset="5%" stop-color="#E3E0DC"/>
<stop offset="10%" stop-color="#999894"/>
<stop offset="90%" stop-color="#9A9996"/>
<stop offset="95%" stop-color="#E3E0DC"/>
<stop offset="1" stop-color="#A8A7A4"/>
</linearGradient>
<linearGradient id="scan" x1="0" y1="0" x2="0" y2="1">
<stop offset="50%" stop-color="#08C4BE" stop-opacity="55%"/>
<stop offset="65%" stop-color="#6BFAF5" stop-opacity="0"/>
</linearGradient>
<linearGradient id="shine" x1="0" y1="0" x2="0" y2="1">
<stop offset="0" stop-color="#6BFAF5" stop-opacity="0"/>
<stop offset="50%" stop-color="#6BFAF5"/>
<stop offset="1" stop-color="#6BFAF5" stop-opacity="0"/>
</linearGradient>
</defs>
<rect width="88" height="112" rx="8" x="20" y="8" fill="url(#corners)"/>
<rect width="86" height="102" rx="7" x="21" y="9" fill="#3D3846" stroke="#DEDDDA" stroke-width="2"/>
<path d="M4 0L60 0C62.2 0 64 1.8 64 4L64 58L42 80L4 80C1.8 80 0 78.2 0 76L0 4C0 1.8 1.8 0 4 0Z" fill="#F6F5F4" transform="translate(32 20)"/>
<path d="M22 0L4 0C1.8 0 0 1.8 0 4L0 22Z" fill="#BFBFBF" transform="translate(74 78)"/>
<rect width="84" height="100" rx="6" x="22" y="10" fill="url(#scan)"/>
<rect width="84" height="16" x="22" y="50" fill="url(#shine)"/>
<rect width="84" height="4" x="22" y="56" fill="#FFFFFF"/>
</svg>
