<?xml version="1.0" encoding="utf-8"?>
<svg width="128" height="128" viewBox="0 0 128 128" fill="none" xmlns="http://www.w3.org/2000/svg">
<defs>
<linearGradient id="gradient_1" gradientUnits="userSpaceOnUse" x1="51" y1="0" x2="51" y2="46">
<stop offset="0" stop-color="#CC8431"/>
<stop offset="1" stop-color="#71491B"/>
</linearGradient>
<linearGradient id="gradient_2" gradientUnits="userSpaceOnUse" x1="58" y1="0" x2="58" y2="80">
<stop offset="0" stop-color="#606060"/>
<stop offset="0.35" stop-color="#EEEEEE"/>
<stop offset="0.65" stop-color="#686868"/>
<stop offset="1" stop-color="#3D3E3B"/>
</linearGradient>
<linearGradient id="gradient_3" gradientUnits="userSpaceOnUse" x1="51" y1="30" x2="51" y2="61">
<stop offset="0" stop-color="#FBCD6D" />
<stop offset="1" stop-color="#69562E" />
</linearGradient>
<linearGradient id="gradient_4" gradientUnits="userSpaceOnUse" x1="35" y1="0" x2="35" y2="16">
<stop offset="0" stop-color="#606060"/>
<stop offset="0.35" stop-color="#EEEEEE"/>
<stop offset="0.65" stop-color="#686868"/>
<stop offset="1" stop-color="#3D3E3B"/>
</linearGradient>
<linearGradient id="gradient_5" gradientUnits="userSpaceOnUse" x1="23" y1="0" x2="23" y2="16">
<stop offset="0" stop-color="#5C5D5C"/>
<stop offset="0.35" stop-color="#626361"/>
<stop offset="0.65" stop-color="#3A3A3A"/>
<stop offset="1" stop-color="#242323"/>
</linearGradient>
<linearGradient id="gradient_6" gradientUnits="userSpaceOnUse" x1="22" y1="0" x2="22" y2="16">
<stop offset="0" stop-color="#737670"/>
<stop offset="0.35" stop-color="#82857F"/>
<stop offset="0.65" stop-color="#5C5E5A"/>
<stop offset="1" stop-color="#414141"/>
</linearGradient>
<linearGradient id="gradient_7" gradientUnits="userSpaceOnUse" x1="7" y1="0" x2="7" y2="20">
<stop offset="0" stop-color="#676666"/>
<stop offset="0.35" stop-color="#EEEEEE"/>
<stop offset="0.65" stop-color="#878787"/>
<stop offset="1" stop-color="#5B5B5B"/>
</linearGradient>
</defs>
<path id="arm-left" d="M96 0L28.288 0C27 0 25.8535 0.375812 24.8196 1.12744C23.7857 1.88 23.0715 2.86283 22.6772 4.07874L0 74" fill="none" stroke-width="5" stroke="#999999" transform="translate(24 8)"/>
<path id="folder-back" d="M76 46C90.3594 46 102 25.4052 102 0L26 0C26 25.4051 14.3594 46 0 46L76 46Z" fill="url(#gradient_1)" transform="translate(26 82)" />
<path id="cillinder" d="M20 80C8.95435 80 0 62.0914 0 40C0 17.9086 8.95435 0 20 0L96 0C107.046 0 116 17.9086 116 40C116 62.0914 107.046 80 96 80L20 80Z" fill="url(#gradient_2)" transform="translate(6 42)"/>
<path id="sheet-shadow" d="M0 23.1046C0.43 16.2115 1.72665 9.86 3.67074 4.5C4.6 2 7.77 0 10.476 0L54.68 0C57.3844 0 58.6 2 57.67 4.5C55.7267 9.86 54.43 16.2115 54 23.1046C53.8438 25.8 51.6673 28 48.962 28L4.75888 28C2.05356 28 -0.156 25.8 0 23.1L0 23.1Z" fill="#000000" opacity="0.2" transform="translate(17 52)"/>
<path id="sheet" d="M0 23.1046C0.43 16.2115 1.72665 9.86 3.67 4.5C4.6 1.96686 7.77 0 10.476 0L54.68 0C57.3844 0 58.6 2 57.67 4.5C55.73 9.86 54.43 16.2115 54 23.1C53.844 25.8 51.6673 28 48.962 28L4.76 28C2.05356 28 -0.156 25.8 0 23.1L0 23.1Z" fill="#F6F5F4" transform="translate(14 54)"/>
<path id="folder-shadow" d="M20 57C8.95435 57 0 39.0914 0 17C0 10.9217 0.677878 5.16 1.89068 0C1.927 0 1.9635 0 2 0L18 0C24.28 0 24.6667 9 31 9L66 9C69.3137 9 72 11.6863 72 15C72 33.7118 78.315 49.814 87.38 57L20 57L20 57Z" fill="#000000" opacity="0.3" transform="translate(6 65)"/>
<path id="folder-front" d="M35 9C28.6667 9 28.28 0 22 0L6 0C2.68628 0 0 2.68628 0 6L0 15C0 40.4052 11.6406 61 26 61L102 61C87.6406 61 76 40.4052 76 15C76 11.6863 73.3137 9 70 9L35 9Z" fill="url(#gradient_3)" transform="translate(0 67)"/>
<g id="handler" transform="translate(53 0)">
<path id="cilinder" d="M0 8C0 3.58172 1.79 0 4 0L66 2.71267e-05C68.2091 2.71267e-05 70 3.58175 70 8C70 12.4183 68.2091 16 66 16L65.9894 16L4 16C1.79 16 0 12.4183 0 8L0 8Z" fill="url(#gradient_4)"/>
<ellipse rx="4" ry="8" fill="#6E6E6E" transform="translate(66 8)"/>
<path id="gumborder" d="M0 8C0 3.58172 1.79 0 4 0L46 0C43.8 0 42 3.6 42 8C42 12.4087 43.8 16 46 16L4 16C1.79 16 0 12.4183 0 8L0 8Z" fill="url(#gradient_5)" transform="translate(10 0)"/>
<path id="gum" d="M0 8C0 3.58172 1.79 0 4 0L44 0C41.8 0 40 3.58874 40 8C40 12.4087 41.8 16 44 16L4 16C1.79 16 0 12.4183 0 8L0 8Z" fill="url(#gradient_6)" transform="translate(11 0)"/>
</g><ellipse id="face" rx="20" ry="40" fill="#6E6E6E" transform="translate(102 82)"/>
<path id="arm-right" d="M0 74L21.5 7.71813C21.788 6.82 21.86 5.90546 21.7115 4.97336C21.5635 4.04126 21.212 3.19352 20.6571 2.43014C20.1021 1.66675 19.4042 1.07088 18.5632 0.64253C17.7222 0.214177 16.83 0 15.886 0L15 0" fill="none" stroke-width="5" stroke="#999999" transform="translate(104 8)"/>
<path id="arm-right-shine" d="M0 74L21.4968 7.71813C21.788 6.82 21.86 5.90546 21.7115 4.97336C21.5635 4.04126 21.212 3.19352 20.6571 2.43014C20.102 1.66675 19.404 1.07088 18.5632 0.64253C17.7222 0.214177 16.8298 0 15.886 0L15 0" fill="none" stroke-width="2" stroke="#CCCCCC" transform="translate(104 8)"/>
<path id="cillinder-small" d="M5 20C2.2386 20 0 15.523 0 10C0 4.47716 2.2386 0 5 0L9 0C11.7614 0 14 4.47716 14 10C14 15.523 11.7614 20 9 20L5 20Z" fill="url(#gradient_7)" transform="translate(97 72)"/>
<ellipse id="face-small" rx="5" ry="10" fill="#B8B8B8" transform="translate(106 82)"/>
</svg>
