<?xml version="1.0" encoding="UTF-8"?>
<svg height="128px" viewBox="0 0 128 128" width="128px" xmlns="http://www.w3.org/2000/svg" xmlns:xlink="http://www.w3.org/1999/xlink">
    <linearGradient id="a" gradientTransform="matrix(0.965926 -0.258819 0.258819 0.965926 46.212394 -191.664417)" gradientUnits="userSpaceOnUse" x1="-79.381554" x2="-36.522461" y1="305.059326" y2="230.825195">
        <stop offset="0" stop-color="#c061cb"/>
        <stop offset="1" stop-color="#3584e4"/>
    </linearGradient>
    <linearGradient id="b" gradientUnits="userSpaceOnUse" x1="19" x2="14" y1="46.999993" y2="46.999993">
        <stop offset="0" stop-opacity="0.215686"/>
        <stop offset="1" stop-opacity="0"/>
    </linearGradient>
    <linearGradient id="c" gradientTransform="matrix(-1 0 0 -1 135.999985 -172)" gradientUnits="userSpaceOnUse" x1="27.99999" x2="115.999992" y1="-274" y2="-274">
        <stop offset="0" stop-color="#c0bfbc"/>
        <stop offset="0.0454545" stop-color="#f6f5f4"/>
        <stop offset="0.0909091" stop-color="#deddda"/>
        <stop offset="0.909091" stop-color="#deddda"/>
        <stop offset="0.954545" stop-color="#f6f5f4"/>
        <stop offset="1" stop-color="#c0bfbc"/>
    </linearGradient>
    <linearGradient id="d" gradientUnits="userSpaceOnUse">
        <stop offset="0" stop-opacity="0.156863"/>
        <stop offset="1" stop-opacity="0"/>
    </linearGradient>
    <linearGradient id="e" gradientTransform="matrix(0.965926 0.258819 -0.258819 0.965926 -4 -192)" x1="167.194427" x2="171.058136" xlink:href="#d" y1="191.243362" y2="190.208084"/>
    <linearGradient id="f" gradientTransform="matrix(-0.965926 -0.258819 0.258819 -0.965926 131.98862 311.993146)" x1="167.194427" x2="171.058136" xlink:href="#d" y1="191.243362" y2="190.208084"/>
    <linearGradient id="g" gradientUnits="userSpaceOnUse" x1="20" x2="25.738216" y1="98.336914" y2="98.336914">
        <stop offset="0" stop-color="#deddda"/>
        <stop offset="0.2802" stop-color="#fbfbfa"/>
        <stop offset="0.568338" stop-color="#faf9f8"/>
        <stop offset="1" stop-color="#f8f6f4"/>
    </linearGradient>
    <linearGradient id="h" gradientUnits="userSpaceOnUse" x1="96.838379" x2="101.618408" y1="24.838379" y2="20.05835">
        <stop offset="0" stop-color="#deddda"/>
        <stop offset="1" stop-color="#f3f2ef"/>
    </linearGradient>
    <linearGradient id="i" gradientTransform="matrix(2.590207 0 0 1.550959 -62.953637 398.251919)" gradientUnits="userSpaceOnUse" x1="32.025879" x2="50.261204" y1="-252" y2="-236.686462">
        <stop offset="0" stop-color="#e66100"/>
        <stop offset="1" stop-color="#ed333b"/>
    </linearGradient>
    <linearGradient id="j" gradientUnits="userSpaceOnUse" x1="84.644371" x2="95.270691" y1="35.269272" y2="24.642944">
        <stop offset="0" stop-color="#ffffff"/>
        <stop offset="0.342347" stop-color="#ececec"/>
        <stop offset="0.7" stop-color="#e8e8e8"/>
        <stop offset="1" stop-color="#ffffff"/>
    </linearGradient>
    <clipPath id="k">
        <path d="m 47 83 h 50 v 21 h -50 z m 0 0"/>
    </clipPath>
    <clipPath id="l">
        <path d="m 96.367188 93.515625 c 0 5.316406 -4.3125 9.625 -9.628907 9.625 c -5.316406 0 -9.625 -4.308594 -9.625 -9.625 s 4.308594 -9.628906 9.625 -9.628906 c 5.316407 0 9.628907 4.3125 9.628907 9.628906 z m -30 0 c 0 5.316406 -4.3125 9.625 -9.628907 9.625 c -5.316406 0 -9.625 -4.308594 -9.625 -9.625 s 4.308594 -9.628906 9.625 -9.628906 c 5.316407 0 9.628907 4.3125 9.628907 9.628906 z m 0 0"/>
    </clipPath>
    <linearGradient id="m" gradientUnits="userSpaceOnUse" x1="21.750862" x2="44.909832" y1="117.006439" y2="117.006439">
        <stop offset="0" stop-color="#b0b0b0"/>
        <stop offset="1" stop-color="#deddda"/>
    </linearGradient>
    <linearGradient id="n" gradientUnits="userSpaceOnUse" x1="35" x2="81" y1="116" y2="116">
        <stop offset="0" stop-color="#c0bfbc"/>
        <stop offset="1" stop-color="#c0bfbc" stop-opacity="0"/>
    </linearGradient>
    <linearGradient id="o" gradientUnits="userSpaceOnUse">
        <stop offset="0" stop-color="#f6f5f4" stop-opacity="0"/>
        <stop offset="0.516954" stop-color="#f6f5f4"/>
        <stop offset="1" stop-color="#f6f5f4" stop-opacity="0"/>
    </linearGradient>
    <linearGradient id="p" x1="43" x2="79" xlink:href="#o" y1="116" y2="116"/>
    <linearGradient id="q" gradientTransform="matrix(1.375 0 0 1.181818 -29.5 -237.818184)" gradientUnits="userSpaceOnUse" x1="36" x2="41.090908" y1="241" y2="241">
        <stop offset="0" stop-color="#ff7800" stop-opacity="0"/>
        <stop offset="0.240073" stop-color="#f5c211" stop-opacity="0.603922"/>
        <stop offset="0.375534" stop-color="#f5c211" stop-opacity="0.443137"/>
        <stop offset="1" stop-color="#ff7800" stop-opacity="0"/>
    </linearGradient>
    <linearGradient id="r" gradientUnits="userSpaceOnUse" x1="38.812241" x2="38.812241" y1="120.254189" y2="122.833504">
        <stop offset="0" stop-opacity="0.52549"/>
        <stop offset="1" stop-opacity="0"/>
    </linearGradient>
    <linearGradient id="s" gradientUnits="userSpaceOnUse" x1="108" x2="112.753998" y1="88.643669" y2="88.467949">
        <stop offset="0" stop-opacity="0.243137"/>
        <stop offset="1" stop-opacity="0"/>
    </linearGradient>
    <linearGradient id="t" x1="62.479006" x2="98.479006" xlink:href="#o" y1="117.999999" y2="117.999999"/>
    <linearGradient id="u" gradientUnits="userSpaceOnUse" x1="74.518536" x2="107.999997" y1="116" y2="116">
        <stop offset="0" stop-color="#f6f5f4" stop-opacity="0"/>
        <stop offset="0.516954" stop-color="#c0bfbc"/>
        <stop offset="1" stop-color="#f6f5f4" stop-opacity="0"/>
    </linearGradient>
    <path d="m 12.976562 24.296875 l 69.542969 -18.636719 c 4.269531 -1.140625 8.65625 1.390625 9.800781 5.660156 l 22.773438 85 c 1.144531 4.265626 -1.386719 8.652344 -5.65625 9.796876 l -69.546875 18.636718 c -4.265625 1.144532 -8.652344 -1.390625 -9.796875 -5.65625 l -22.777344 -85.003906 c -1.140625 -4.265625 1.390625 -8.652344 5.660156 -9.796875 z m 0 0" fill="url(#a)"/>
    <path d="m 20.144531 22.328125 l -7.234375 1.9375 c -4.28125 1.148437 -6.800781 5.515625 -5.65625 9.796875 l 12.890625 48.101562 z m 0 0" fill="url(#b)"/>
    <path d="m 42.683594 0.453125 l 69.546875 18.636719 c 4.269531 1.144531 6.800781 5.53125 5.660156 9.796875 l -22.777344 85.003906 c -1.144531 4.265625 -5.53125 6.796875 -9.796875 5.65625 l -69.546875 -18.636719 c -4.269531 -1.144531 -6.800781 -5.53125 -5.660156 -9.796875 l 22.777344 -85.003906 c 1.144531 -4.265625 5.53125 -6.796875 9.796875 -5.65625 z m 0 0" fill="#deddda"/>
    <path d="m 28 61 h 72 c 4.417969 0 8 3.582031 8 8 v 43 c 0 4.417969 -3.582031 8 -8 8 h -72 c -4.417969 0 -8 -3.582031 -8 -8 v -43 c 0 -4.417969 3.582031 -8 8 -8 z m 0 0" fill="#deddda"/>
    <path d="m 100 120 h -72 c -4.417969 0 -8 -3.582031 -8 -8 v -24 c 0 -4.417969 3.582031 -8 8 -8 h 72 c 4.417969 0 8 3.582031 8 8 v 24 c 0 4.417969 -3.582031 8 -8 8 z m 0 0" fill="url(#c)"/>
    <path d="m 100 15.8125 v 79.839844 l 17.890625 -66.765625 c 1.144531 -4.28125 -1.378906 -8.648438 -5.660156 -9.796875 z m 0 0" fill="url(#e)"/>
    <path d="m 27.988281 104.179688 v -79.835938 l -17.886719 66.761719 c -1.148437 4.28125 1.375 8.652343 5.65625 9.796875 z m 0 0" fill="url(#f)"/>
    <path d="m 28 8 h 72 c 4.433594 0 8 3.566406 8 8 v 88 c 0 4.433594 -3.566406 8 -8 8 h -76 c -2.34375 0 -4 1.953125 -4 3.753906 v -99.753906 c 0 -4.433594 3.566406 -8 8 -8 z m 0 0" fill="url(#g)"/>
    <path d="m 80 8 l 26 26 c 2.039062 3.136719 2 6 2 6 v -24 c 0 -4.433594 -3.566406 -8 -8 -8 z m 0 0" fill="url(#h)"/>
    <path d="m 105 35.277344 l -25 -25 v 20 c 0 4.429687 3.566406 8 8 8 h 15.796875 c 2.203125 0 4.5625 2.507812 4.203125 4 c -0.03125 -2.640625 -1.109375 -5.15625 -3 -7 z m 0 0" fill-opacity="0.211765"/>
    <path d="m 28 8 h 51.75 l 25.25 25 l 3 6.328125 v 20.671875 h -83.941406 c -2.101563 0 -4.058594 1.996094 -4.058594 4 v -49.125 c 0 -3.796875 3.582031 -6.875 8 -6.875 z m 0 0" fill="url(#i)"/>
    <path d="m 105 33 l -25 -25 v 20 c 0 4.433594 3.566406 8 8 8 h 15.796875 c 2.203125 0 4.5625 2.511719 4.203125 4 c -0.03125 -2.640625 -1.109375 -5.15625 -3 -7 z m 0 0" fill="url(#j)"/>
    <path d="m 35.003906 36 h 32 c 1.660156 0 3 1.34375 3 3 s -1.339844 3 -3 3 h -32 c -1.65625 0 -3 -1.34375 -3 -3 s 1.34375 -3 3 -3 z m 0 0" fill="#ffffff" fill-opacity="0.796078"/>
    <path d="m 34.003906 48 h 13.996094 c 1.105469 0 2 0.894531 2 2 s -0.894531 2 -2 2 h -13.996094 c -1.101562 0 -2 -0.894531 -2 -2 s 0.898438 -2 2 -2 z m 0 0" fill="#faa197"/>
    <path d="m 50.101562 99.925781 h 43.898438 c 4.417969 0 8 1.742188 8 3.894531 c 0 2.152344 -3.582031 3.894532 -8 3.894532 h -43.898438 c -4.417968 0 -8 -1.742188 -8 -3.894532 c 0 -2.152343 3.582032 -3.894531 8 -3.894531 z m 0 0" fill-opacity="0.070588"/>
    <g fill="#c0bfbc">
        <path d="m 34 76 h 60 c 1.105469 0 2 0.894531 2 2 s -0.894531 2 -2 2 h -60 c -1.105469 0 -2 -0.894531 -2 -2 s 0.894531 -2 2 -2 z m 0 0"/>
        <path d="m 34 86 h 60 c 1.105469 0 2 0.894531 2 2 s -0.894531 2 -2 2 h -60 c -1.105469 0 -2 -0.894531 -2 -2 s 0.894531 -2 2 -2 z m 0 0"/>
        <path d="m 34 96 h 60 c 1.105469 0 2 0.894531 2 2 s -0.894531 2 -2 2 h -60 c -1.105469 0 -2 -0.894531 -2 -2 s 0.894531 -2 2 -2 z m 0 0"/>
        <path d="m 34 66 h 60 c 1.105469 0 2 0.894531 2 2 s -0.894531 2 -2 2 h -60 c -1.105469 0 -2 -0.894531 -2 -2 s 0.894531 -2 2 -2 z m 0 0"/>
    </g>
    <path d="m 43 98 l -13.089844 -20.941406 c -1.0625 -1.703125 -0.582031 -3.945313 1.089844 -5.058594 c 1.65625 -1.105469 3.894531 -0.65625 5 1 l 2 3" fill="none" stroke="#000000" stroke-width="2"/>
    <g clip-path="url(#k)">
        <g clip-path="url(#l)">
            <path d="m 44.714844 81.796875 h 53.011718 v 22.332031 h -53.011718 z m 0 0" fill="#f6f5f4"/>
            <path d="m 49.019531 83.382812 c 0.28125 0.3125 0.890625 0.726563 1.621094 1.230469 c 1.167969 0.6875 2.667969 1.121094 4.25 1.332031 c 1.554687 0.125 2.9375 0.105469 3.867187 -0.261718 c 2.042969 -1.066406 3.949219 -1.953125 5.082032 -2.636719 l 15.652344 -0.78125 c 1.246093 0.730469 3.238281 1.445313 5.519531 2.308594 c 1.273437 0.335937 2.761719 0.382812 4.277343 0.207031 c 1.472657 -0.242188 2.753907 -0.578125 3.5625 -1.128906 c 0.402344 -0.324219 0.753907 -0.566406 0.878907 -0.6875 c 0.089843 -0.085938 0.832031 0.292968 1.835937 0.753906 c 1.007813 0.460938 1.703125 1.191406 1.359375 1.632812 c -0.472656 0.601563 -1.203125 1.191407 -2.015625 1.734376 c -1.386718 0.867187 -3.183594 1.382812 -5.113281 1.664062 c -1.96875 0.238281 -3.953125 0.164062 -5.753906 -0.296875 c -2.335938 -0.757813 -4.464844 -1.621094 -5.929688 -2.738281 l -12.628906 0.472656 c -1.261719 1.238281 -3.304687 2.34375 -5.492187 3.300781 c -1.601563 0.558594 -3.550782 0.632813 -5.570313 0.429688 c -2.066406 -0.257813 -4.0625 -0.855469 -5.746094 -1.820313 c -1.109375 -0.683594 -2.097656 -1.421875 -2.75 -2.203125 c -0.414062 -0.5 0.195313 -1.34375 1.171875 -1.871093 c 0.972656 -0.53125 1.746094 -0.839844 1.921875 -0.640626 z m -5.414062 4.394532 c 0.929687 1.136718 2.203125 2.117187 3.597656 2.933594 c 2.066406 1.171874 4.433594 1.890624 6.867187 2.1875 c 2.371094 0.261718 4.746094 0.144531 6.847657 -0.558594 c 2.300781 -0.871094 4.445312 -2.144532 5.796875 -3.796875 l 10.363281 -0.242188 c 1.632813 1.410157 3.863281 2.378907 6.238281 3.0625 c 2.199219 0.554688 4.550782 0.652344 6.863282 0.359375 c 2.269531 -0.304687 4.453124 -0.953125 6.273437 -2.066406 c 1.121094 -0.699219 2.136719 -1.550781 2.867187 -2.519531 c 0.476563 -0.628907 1.617188 -0.960938 2.605469 -0.503907 c 1 0.453126 1.445313 1.742188 0.589844 2.890626 c -1.078125 1.449218 -2.472656 2.652343 -4.007813 3.566406 c -2.394531 1.429687 -5.09375 2.253906 -7.816406 2.601562 c -2.769531 0.355469 -5.617187 0.234375 -8.34375 -0.445312 c -2.425781 -0.582032 -4.796875 -1.695313 -6.648437 -3.496094 l -7.34375 -0.066406 c -1.476563 2.207031 -3.753907 3.703125 -6.203125 4.460937 c -2.769532 0.894531 -5.714844 1.066407 -8.554688 0.726563 c -2.914062 -0.34375 -5.78125 -1.226563 -8.355468 -2.671875 c -1.78125 -0.996094 -3.429688 -2.300781 -4.734376 -3.910157 c -0.824218 -1.019531 -0.542968 -2.398437 0.433594 -2.925781 c 0.960938 -0.523437 2.128906 -0.238281 2.664063 0.414063 z m -6.191407 5.023437 c 1.675782 2.082031 3.703126 3.710938 5.867188 4.882813 c 3.085938 1.722656 6.449219 2.769531 9.847656 3.15625 c 3.308594 0.421875 6.820313 0.195312 10.257813 -0.890625 c 2.597656 -0.648438 5.011719 -2.363281 6.613281 -5.125 l 4.320312 0.375 c 2.074219 2.191406 4.578126 3.445312 7.058594 3.925781 c 3.253906 0.804688 6.59375 0.957031 9.820313 0.535156 c 3.179687 -0.386718 6.394531 -1.390625 9.367187 -3.140625 c 1.945313 -1.125 3.71875 -2.679687 5.144532 -4.613281 c 0.984374 -1.339844 2.492187 -2.398438 3.484374 -1.945312 l 1.144532 0.523437 c 1 0.457031 1.011718 2.585937 -0.429688 4.554687 c -1.882812 2.574219 -4.152344 4.585938 -6.640625 5.992188 c -3.730469 2.167969 -7.625 3.410156 -11.398437 3.84375 c -3.828125 0.511719 -7.816406 0.320312 -11.769532 -0.648438 c -2.546874 -0.34375 -5.230468 -1.789062 -7.59375 -4.492187 l -0.347656 -0.78125 c -1.765625 3.492187 -4.359375 5.5 -7.152344 6 c -4.316406 1.332031 -8.574218 1.636719 -12.496093 1.113281 c -4.035157 -0.453125 -8.054688 -1.710937 -11.8125 -3.800781 c -2.667969 -1.40625 -5.1875 -3.460937 -7.355469 -6.164063 c -1.425781 -1.78125 -1.515625 -3.792968 -0.546875 -4.316406 l 1.109375 -0.601562 c 0.960938 -0.523438 2.5 0.367187 3.507812 1.617187 z m 0 0" fill="#c0bfbc"/>
        </g>
    </g>
    <path d="m 102 70 v 27 h -2 v -27 c 0 -0.550781 -0.449219 -1 -1 -1 s -1 0.449219 -1 1 v 5 h -2 v -5 c 0 -1.65625 1.34375 -3 3 -3 s 3 1.34375 3 3 z m 0 0"/>
    <path d="m 57 106.648438 c -3.667969 0 -6.992188 -1.535157 -9.359375 -4 h -5.640625 v -6 h 2.355469 c -0.230469 -0.960938 -0.355469 -1.964844 -0.355469 -3 c 0 -7.152344 5.84375 -13 13 -13 c 7.667969 0 12.414062 6.09375 12.941406 12.007812 c 0.097656 1.097656 0.910156 1.992188 2.011719 1.992188 h 0.09375 c 1.101563 0 1.914063 -0.894532 2.011719 -1.992188 c 0.527344 -5.914062 5.273437 -12.007812 12.941406 -12.007812 c 7.15625 0 13 5.847656 13 13 c 0 1.035156 -0.125 2.039062 -0.355469 3 h 2.355469 v 6 h -5.640625 c -2.367187 2.464843 -5.691406 4 -9.359375 4 s -6.992188 -1.535157 -9.359375 -4 h -11.28125 c -2.367187 2.464843 -5.691406 4 -9.359375 4 z m 0 -4 c 4.996094 0 9 -4.003907 9 -9 c 0 -4.992188 -4.003906 -9 -9 -9 s -9 4.007812 -9 9 c 0 4.996093 4.003906 9 9 9 z m 30 0 c 4.996094 0 9 -4.003907 9 -9 c 0 -4.992188 -4.003906 -9 -9 -9 s -9 4.007812 -9 9 c 0 4.996093 4.003906 9 9 9 z m 0 0" fill="#241f31"/>
    <path d="m 23.753906 112 h 48.492188 c 2.074218 0 3.753906 1.679688 3.753906 3.753906 v 0.492188 c 0 2.074218 -1.679688 3.753906 -3.753906 3.753906 h -48.492188 c -2.074218 0 -3.753906 -1.679688 -3.753906 -3.753906 v -0.492188 c 0 -2.074218 1.679688 -3.753906 3.753906 -3.753906 z m 0 0" fill="url(#m)"/>
    <path d="m 24 114 h 71 c 1.105469 0 2 0.894531 2 2 s -0.894531 2 -2 2 h -71 c -1.105469 0 -2 -0.894531 -2 -2 s 0.894531 -2 2 -2 z m 0 0" fill="url(#n)"/>
    <path d="m 24.5 116 h 35 c 0.277344 0 0.5 0.222656 0.5 0.5 s -0.222656 0.5 -0.5 0.5 h -35 c -0.277344 0 -0.5 -0.222656 -0.5 -0.5 s 0.222656 -0.5 0.5 -0.5 z m 0 0" fill="#deddda"/>
    <path d="m 43.5 115 h 35 c 0.277344 0 0.5 0.222656 0.5 0.5 s -0.222656 0.5 -0.5 0.5 h -35 c -0.277344 0 -0.5 -0.222656 -0.5 -0.5 s 0.222656 -0.5 0.5 -0.5 z m 0 0" fill="url(#p)"/>
    <path d="m 28 8 h 51.75 l 25.25 25 l 3 6.328125 v 20.671875 h -83.941406 c -2.101563 0 -4.058594 1.996094 -4.058594 4 v -49.125 c 0 -3.796875 3.582031 -6.875 8 -6.875 z m 0 0" fill="url(#q)"/>
    <path d="m 30.402344 120.023438 c 1.515625 3.652343 5.515625 5.699218 9.445312 4.644531 l 17.339844 -4.644531 z m 0 0" fill="url(#r)"/>
    <path d="m 108 70.726562 v 35.835938 l 1.230469 -0.332031 c 4.28125 -1.144531 6.804687 -5.515625 5.65625 -9.796875 z m 0 0" fill="url(#s)"/>
    <path d="m 62.980469 117 h 35 c 0.273437 0 0.5 0.222656 0.5 0.5 s -0.226563 0.5 -0.5 0.5 h -35 c -0.277344 0 -0.5 -0.222656 -0.5 -0.5 s 0.222656 -0.5 0.5 -0.5 z m 0 0" fill="url(#t)"/>
    <path d="m 75.019531 115 h 27.796875 c 0.277344 0 0.5 0.222656 0.5 0.5 s -0.222656 0.5 -0.5 0.5 h -27.796875 c -0.277343 0 -0.5 -0.222656 -0.5 -0.5 s 0.222657 -0.5 0.5 -0.5 z m 0 0" fill="url(#u)"/>
</svg>
