<?xml version="1.0" encoding="UTF-8" standalone="no"?>
<svg enable-background="new" height="128" viewBox="0 0 128 128" width="128" xmlns="http://www.w3.org/2000/svg" xmlns:xlink="http://www.w3.org/1999/xlink" xmlns:dc="http://purl.org/dc/elements/1.1/" xmlns:cc="http://creativecommons.org/ns#" xmlns:rdf="http://www.w3.org/1999/02/22-rdf-syntax-ns#" xmlns:svg="http://www.w3.org/2000/svg">
    <linearGradient id="a" gradientTransform="matrix(1.0015061 0 0 0.99993452 72.09037 56.015192)" gradientUnits="userSpaceOnUse" x1="43.843597" x2="-60.000004" y1="234.00014" y2="234.00014">
        <stop offset="0" stop-color="#d5d3cf"/>
        <stop offset="0.03846154" stop-color="#e3e2df"/>
        <stop offset="0.07692308" stop-color="#c0bfbc"/>
        <stop offset="0.92307693" stop-color="#c0bfbc"/>
        <stop offset="0.96153843" stop-color="#e3e2df"/>
        <stop offset="1" stop-color="#d5d3cf"/>
    </linearGradient>
    <radialGradient id="b" cx="-24.238829" cy="225.59558" gradientTransform="matrix(1.757743 -0.0000001 0.00000004 1.9495846 106.60563 -336.54495)" gradientUnits="userSpaceOnUse" r="24">
        <stop offset="0" stop-color="#ffffff"/>
        <stop offset="1" stop-color="#f6f5f4"/>
    </radialGradient>
    <linearGradient id="c" gradientTransform="matrix(0 6 -12 0 -264 209.99687)" gradientUnits="userSpaceOnUse" x2="1">
        <stop offset="0" stop-color="#c01c27"/>
        <stop offset="1" stop-color="#e01b24"/>
    </linearGradient>
    <g transform="matrix(1 0 0 1 0 -172)">
        <rect fill="url(#a)" height="48" rx="8" width="104" x="12" y="240"/>
        <path d="m 20 10 c -4.432 0 -8 3.568 -8 8 v 84 c 0 4.432 3.568 8 8 8 h 88 c 4.432 0 8 -3.568 8 -8 v -84 c 0 -4.432 -3.568 -8 -8 -8 h -42 v 2 h -4 v -2 z" fill="url(#b)" stroke-width="1.684151" transform="matrix(1 0 0 1 0 172)"/>
        <g enable-background="new" transform="matrix(1 0 0 1 359.92783 -1.99687)">
            <rect fill="#f5c211" height="28" rx="13.072174" width="28" x="-283.92783" y="193.99687"/>
            <path d="m -276 211 h 12 v 0.99687 c 0 2.20914 -1.7909 4 -4 4 h -4 c -2.20914 0 -4 -1.79086 -4 -4 z" fill="url(#c)"/>
            <rect fill="#ffffff" height="2" width="12" x="-276" y="209.99687"/>
            <g fill="#b45600">
                <path d="m -276 204.99687 c 0 -0.55229 0.44772 -1 1 -1 s 1 0.44771 1 1 v 3 h -2 z"/>
                <path d="m -266 204.99687 c 0 -0.55229 0.44772 -1 1 -1 s 1 0.44771 1 1 v 3 h -2 z"/>
            </g>
        </g>
        <path d="m 28 194 v 17 s 0.123719 2.819005 -2.894531 4.328125 l 1.789062 3.576172 c 4.98175 -2.49088 5.105469 -7.904297 5.105469 -7.904297 v -1 h 12 v 2 s -0.0278 1.167429 -0.470703 2.230469 c -0.44294 1.06304 -0.829297 1.769531 -2.529297 1.769531 h -1 l -2 4 h 2 h 1 c 3.3 0 5.413643 -2.293509 6.220703 -4.230469 c 0.80707 -1.93696 0.779297 -3.769531 0.779297 -3.769531 v -18 z m 4 4 h 12 v 2 h -12 z m 0 6 h 12 v 2 h -12 z" fill="#62a0ea" font-variant-ligatures="normal" font-variant-position="normal" font-variant-caps="normal" font-variant-numeric="normal" font-variant-alternates="normal" font-feature-settings="normal" text-indent="0" text-align="start" text-decoration-line="none" text-decoration-style="solid" text-decoration-color="#000000" text-transform="none" text-orientation="mixed" white-space="normal" shape-padding="0" isolation="auto" mix-blend-mode="normal" solid-color="#000000" solid-opacity="1" vector-effect="none"/>
        <g enable-background="new" fill="#26a269">
            <path d="m 94 244 a 2 2 0 0 0 -2 2 a 2 2 0 0 0 2 2 a 2 2 0 0 0 2 -2 a 2 2 0 0 0 -2 -2 z m -4 6 a 2 2 0 0 0 -2 2 a 2 2 0 0 0 2 2 a 2 2 0 0 0 2 -2 a 2 2 0 0 0 -2 -2 z m 8 0 a 2 2 0 0 0 -2 2 a 2 2 0 0 0 2 2 a 2 2 0 0 0 2 -2 a 2 2 0 0 0 -2 -2 z m 6 6 l -4 2 v 4 h -4 v -2 v -2 l -4 2 v 2 l -8 -0.002 l 0.07227 4.002 c -0.001 1.12729 -0.87241 1.99805 -2 1.99805 c -1.12827 0 -2 -0.87174 -2 -2.000003 h -4 c 0 3.290023 2.70998 6.000003 6 6.000003 c 3.29001 0 6 -2.70998 6 -6.000003 l 15.92773 0.001953 z m -15.927734 3.996094 l -4 2 h 4 z" font-variant-ligatures="normal" font-variant-position="normal" font-variant-caps="normal" font-variant-numeric="normal" font-variant-alternates="normal" font-feature-settings="normal" text-indent="0" text-align="start" text-decoration-line="none" text-decoration-style="solid" text-decoration-color="#000000" text-transform="none" text-orientation="mixed" white-space="normal" shape-padding="0" isolation="auto" mix-blend-mode="normal" solid-color="#000000" solid-opacity="1" vector-effect="none"/>
            <path d="m 76.07217 265.99687 l 4 -2 v 2 z"/>
        </g>
        <path d="m 12 232 h 104" fill="none" stroke="#deddda" stroke-width="4"/>
        <text stroke-width="1px" x="63" y="345"><tspan x="63" y="555.39062"/></text>
        <path d="m 12 231 h 104" fill="none" stroke="#c0bfbc" stroke-width="2"/>
        <path d="m 64 184 v 100" fill="none" stroke="#deddda" stroke-width="4"/>
        <path d="m 36.160749 256.15236 q 0 -1.12461 -0.369271 -1.94707 q -0.369269 -0.83925 -0.973531 -1.40995 q -0.234991 -0.23498 -0.503551 -0.4364 q -0.402842 -0.30214 -0.57069 -0.46998 q -0.671401 -0.63783 -1.007103 -1.47709 q -0.3357 -0.83925 -0.3357 -1.77921 q 0 -0.97353 0.352486 -1.796 q 0.352485 -0.82246 0.990317 -1.46029 q 0.53712 -0.53712 1.510651 -1.0071 q 0.772112 -0.36927 1.728858 -0.36927 q 0.956746 0 1.762427 0.36927 q 0.906391 0.40284 1.510653 1.0071 q 0.63783 0.63783 0.990316 1.46029 q 0.352485 0.82247 0.352485 1.796 q 0 1.02389 -0.352485 1.82957 q -0.352486 0.7889 -0.990316 1.42673 q -0.167851 0.16784 -0.604262 0.46998 q -0.134278 0.10067 -0.46998 0.4364 q -0.688186 0.67141 -1.023887 1.49388 q -0.318914 0.80569 -0.318914 1.86314 q 1.141381 0 1.980631 -0.38607 q 0.856036 -0.40283 1.409942 -0.95675 q 0.218207 -0.21819 0.419627 -0.48675 q 0.30213 -0.41963 0.469981 -0.58749 q 0.654615 -0.6546 1.493866 -0.9903 q 0.839251 -0.35249 1.779213 -0.35249 q 0.97353 0 1.795998 0.35249 q 0.822465 0.35248 1.460296 0.9903 q 0.604262 0.60427 1.007101 1.51067 q 0.352486 0.78889 0.352486 1.74564 q 0 0.95675 -0.352486 1.74564 q -0.402839 0.90638 -1.007101 1.51065 q -0.637831 0.63783 -1.460296 0.99031 q -0.822468 0.35249 -1.795998 0.35249 q -0.939962 0 -1.779213 -0.33572 q -0.839251 -0.35246 -1.493866 -1.00708 q -0.167851 -0.16785 -0.469981 -0.58748 q -0.20142 -0.26856 -0.419627 -0.48677 q -0.688185 -0.65461 -1.510651 -0.99031 q -0.805682 -0.35248 -1.879922 -0.35248 q 0 1.14136 0.386055 1.99742 q 0.40284 0.83924 0.956746 1.39314 q 0.218205 0.21822 0.486766 0.41964 q 0.419625 0.30213 0.587476 0.46998 q 0.654615 0.65462 0.990316 1.49386 q 0.352485 0.83925 0.352485 1.77922 q 0 0.97352 -0.352485 1.79599 q -0.352486 0.82247 -0.990316 1.46029 q -0.604262 0.60428 -1.510653 1.00711 q -0.788896 0.35249 -1.745642 0.35249 q -0.956746 0 -1.745643 -0.35249 q -0.90639 -0.40283 -1.510651 -1.00711 q -0.637832 -0.63782 -0.990317 -1.46029 q -0.352486 -0.82247 -0.352486 -1.79599 q 0 -0.93997 0.3357 -1.77922 q 0.352486 -0.83924 1.007103 -1.49386 q 0.167848 -0.16785 0.587475 -0.46998 q 0.26856 -0.20142 0.486766 -0.41964 q 0.654616 -0.68818 0.990317 -1.49385 q 0.352485 -0.82248 0.352485 -1.89671 q -1.057456 0 -1.896707 0.35248 q -0.822468 0.3357 -1.477083 0.99031 q -0.234991 0.23499 -0.436411 0.50355 q -0.302131 0.40285 -0.46998 0.5707 q -0.637831 0.6714 -1.477082 1.00708 q -0.839251 0.33572 -1.779213 0.33572 q -0.973531 0 -1.795997 -0.35249 q -0.822466 -0.35248 -1.460298 -0.99031 q -0.553906 -0.53712 -1.007101 -1.51065 q -0.36927 -0.77211 -0.36927 -1.72886 q 0 -0.95675 0.36927 -1.76242 q 0.402841 -0.9064 1.007101 -1.51067 q 0.637832 -0.63782 1.460298 -0.9903 q 0.822466 -0.35249 1.795997 -0.35249 q 1.023886 0 1.812784 0.35249 q 0.80568 0.35248 1.443511 0.9903 q 0.167849 0.16786 0.46998 0.60427 q 0.100713 0.13428 0.436411 0.46997 q 0.671401 0.6714 1.493867 1.00711 q 0.822467 0.33571 1.879923 0.33571 z" fill="#a347ba"/>
    </g>
</svg>
