<svg height="128" width="128" xmlns="http://www.w3.org/2000/svg" xmlns:xlink="http://www.w3.org/1999/xlink">
    <linearGradient id="a" gradientUnits="userSpaceOnUse" x1="211.9995" x2="287.9997" y1="-63.9995" y2="-63.9995">
        <stop offset="0" stop-color="#7a8599"/>
        <stop offset="1" stop-color="#a4acb7"/>
    </linearGradient>
    <radialGradient id="b" cx="64" cy="247.702" gradientUnits="userSpaceOnUse" r="46">
        <stop offset="0" stop-color="#5e5c64"/>
        <stop offset="0.739" stop-color="#c0bfbc"/>
        <stop offset="0.896" stop-color="#deddda"/>
        <stop offset="1" stop-color="#77767b"/>
    </radialGradient>
    <linearGradient id="c" gradientUnits="userSpaceOnUse" x1="58" x2="70" y1="189" y2="189">
        <stop offset="0" stop-color="#77767b"/>
        <stop offset="0.075" stop-color="#9a9996"/>
        <stop offset="0.445" stop-color="#deddda"/>
        <stop offset="0.834" stop-color="#b9b8b8"/>
        <stop offset="1" stop-color="#77767b"/>
    </linearGradient>
    <linearGradient id="d" gradientUnits="userSpaceOnUse" x1="60" x2="68" y1="199.856" y2="199.856">
        <stop offset="0" stop-color="#9a9996"/>
        <stop offset="0.119" stop-color="#c0bfbc"/>
        <stop offset="0.351" stop-color="#deddda"/>
        <stop offset="0.602" stop-color="#d2d1ce"/>
        <stop offset="0.853" stop-color="#bbbab7"/>
        <stop offset="1" stop-color="#9a9996"/>
    </linearGradient>
    <radialGradient id="e" cx="63.679" cy="186.801" gradientUnits="userSpaceOnUse" r="16">
        <stop offset="0" stop-color="#77767b"/>
        <stop offset="0.729" stop-color="#77767b"/>
        <stop offset="0.81" stop-color="#abaaa9"/>
        <stop offset="0.9" stop-color="#c0bfbc"/>
        <stop offset="1" stop-color="#77767b"/>
    </radialGradient>
    <linearGradient id="f" gradientTransform="matrix(0.83333 0 0 1.5 41.667 -92)" gradientUnits="userSpaceOnUse" x1="58" x2="70" y1="189" y2="189">
        <stop offset="0" stop-color="#77767b"/>
        <stop offset="0.089" stop-color="#9a9996"/>
        <stop offset="0.4" stop-color="#deddda"/>
        <stop offset="0.8" stop-color="#a9a8a9"/>
        <stop offset="1" stop-color="#77767b"/>
    </linearGradient>
    <linearGradient id="g" gradientUnits="userSpaceOnUse" x1="4.879" x2="-11.685" y1="229.068" y2="290.887">
        <stop offset="0" stop-color="#ffffff"/>
        <stop offset="1" stop-color="#f6f5f4"/>
    </linearGradient>
    <g transform="matrix(1 0 0 1 0 -172)">
        <path d="m 90 184 h 10 v 15 h -10 z" fill="url(#f)" transform="matrix(0.90630779 0.42261826 -0.42261826 0.90630779 80.597035 -10.381732)"/>
        <path d="m 86.216 195.26 l -3.381 7.25 l -1.813 -0.845 l 3.381 -7.25 z m 3.624 1.69 l -3.38 7.25 l -1.813 -0.844 l 3.381 -7.25 z m 3.626 1.69 l -3.38 7.251 l -1.814 -0.845 l 3.381 -7.25 z" opacity="0.2"/>
        <circle cx="64" cy="188" fill="none" r="14" stroke="url(#e)" stroke-linejoin="round" stroke-width="4"/>
        <path d="m 60 190 h 8 v 20 h -8 z" fill="url(#d)"/>
        <path d="m 58 184 h 12 v 10 h -12 z" fill="url(#c)"/>
        <circle cx="64" cy="250" fill="url(#b)" r="46"/>
        <circle cx="250" cy="-64" fill="url(#a)" r="38" transform="matrix(0 1 -1 0 0 0)"/>
        <circle cx="-2.886" cy="258.046" fill="url(#g)" r="36" transform="matrix(0.96592583 -0.25881905 0.25881905 0.96592583 0 0)"/>
        <path d="m 63 217 l -0.744 27.201 c -2.636 0.692 -4.254 3.074 -4.256 5.799 a 6 6 0 0 0 3.844 5.592 l -0.217 3.902 a 2.374 2.374 0 1 0 4.746 0 l -0.217 -3.896 a 6 6 0 0 0 3.844 -5.598 c -0.003 -2.725 -1.709 -5.105 -4.344 -5.797 l -0.656 -27.203 z m 1 29 a 4 4 0 1 1 0 8 a 4 4 0 0 1 0 -8 z" fill="#414045"/>
        <path d="m 60 194 h 8 v 2 h -8 z m 2 -10 v 8 h -2 v -8 z m 4 0 v 8 h -2 v -8 z m 4 0 v 8 h -2 v -8 z" opacity="0.2"/>
        <path d="m 65.375 214.025 a 36 36 0 0 0 -10.693 1.202 a 36 36 0 0 0 -26.635 35.162 a 36 36 0 0 1 26.635 -33.162 a 36 36 0 0 1 44.091 25.455 a 36 36 0 0 1 1.18 8.93 a 36 36 0 0 0 -1.18 -10.93 a 36 36 0 0 0 -33.398 -26.657 z" opacity="0.05"/>
    </g>
</svg>
