<?xml version="1.0" encoding="UTF-8"?>
<svg height="128px" viewBox="0 0 128 128" width="128px" xmlns="http://www.w3.org/2000/svg" xmlns:xlink="http://www.w3.org/1999/xlink">
    <linearGradient id="a" gradientUnits="userSpaceOnUse" x1="20.372666" x2="116.119866" y1="119.896172" y2="119.896172">
        <stop offset="0" stop-color="#fbf3aa"/>
        <stop offset="0.0627714" stop-color="#fcf5b4"/>
        <stop offset="0.155585" stop-color="#f5e111"/>
        <stop offset="0.288922" stop-color="#b1a208"/>
        <stop offset="0.366876" stop-color="#2c9387"/>
        <stop offset="0.652923" stop-color="#6ed2ca"/>
        <stop offset="0.852084" stop-color="#2dc0af" stop-opacity="0.960784"/>
        <stop offset="0.957711" stop-color="#a2e9e1" stop-opacity="0.960784"/>
        <stop offset="1" stop-color="#249d8f" stop-opacity="0.960784"/>
    </linearGradient>
    <linearGradient id="b" gradientUnits="userSpaceOnUse" x1="32" x2="56" y1="67.249992" y2="23.999992">
        <stop offset="0" stop-color="#c061cb"/>
        <stop offset="1" stop-color="#8f58c8"/>
    </linearGradient>
    <linearGradient id="c" gradientUnits="userSpaceOnUse" x1="64" x2="80" y1="87.999992" y2="47.999992">
        <stop offset="0" stop-color="#2dc0af"/>
        <stop offset="1" stop-color="#3584e4"/>
    </linearGradient>
    <filter id="d" height="100%" width="100%" x="0%" y="0%">
        <feColorMatrix in="SourceGraphic" type="matrix" values="0 0 0 0 1 0 0 0 0 1 0 0 0 0 1 0 0 0 1 0"/>
    </filter>
    <mask id="e">
        <g filter="url(#d)">
            <rect fill-opacity="0.2" height="128" width="128"/>
        </g>
    </mask>
    <linearGradient id="f" gradientUnits="userSpaceOnUse" x1="64" x2="8" y1="95.999992" y2="87.999992">
        <stop offset="0" stop-color="#ffffff"/>
        <stop offset="1" stop-color="#ffffff" stop-opacity="0"/>
    </linearGradient>
    <clipPath id="g">
        <rect height="152" width="192"/>
    </clipPath>
    <linearGradient id="h" gradientTransform="matrix(-0.5 -0.866025 0.866025 -0.5 -2.305103 745.500435)" gradientUnits="userSpaceOnUse" x1="529.28833" x2="543.341125" y1="441.731445" y2="408.598663">
        <stop offset="0" stop-color="#2dc0af"/>
        <stop offset="1" stop-color="#5ed9cb"/>
    </linearGradient>
    <linearGradient id="i" gradientUnits="userSpaceOnUse" x1="25.288322" x2="39.341117" y1="111.731434" y2="78.598652">
        <stop offset="0" stop-color="#f9f06b"/>
        <stop offset="1" stop-color="#f6d32d"/>
    </linearGradient>
    <g fill-rule="evenodd">
        <path d="m 36.378906 14.007812 c -4.308594 -0.101562 -8.476562 1.539063 -11.558594 4.546876 c -3.082031 3.011718 -4.820312 7.136718 -4.820312 11.445312 v 16.976562 c 0 6.65625 0.007812 13.316407 0 19.972657 v 0.074219 v 16.414062 c 0 6.820312 0.007812 13.640625 0 20.460938 c -0.03125 1.621093 0.230469 3.210937 0.714844 4.722656 c 0.003906 0.015625 0.007812 0.027344 0.011718 0.042968 c 0.136719 0.421876 0.285157 0.839844 0.460938 1.253907 c 0.148438 0.355469 0.308594 0.707031 0.484375 1.054687 c 0.015625 0.039063 0.035156 0.074219 0.054687 0.113282 c 0.074219 0.164062 0.152344 0.324218 0.234376 0.488281 c 0.511718 0.933593 1.113281 1.816406 1.804687 2.636719 c 1.109375 1.308593 2.421875 2.429687 3.890625 3.324218 c 0.386719 0.238282 0.785156 0.464844 1.191406 0.671875 c 1.734375 0.890625 3.636719 1.453125 5.621094 1.605469 c 0.058594 0.003906 0.121094 0.015625 0.183594 0.019531 c 0.246094 0.019531 0.492187 0.03125 0.738281 0.039063 c 0.355469 0.019531 0.710937 0.03125 1.066406 0.023437 c 0.027344 -0.003906 0.050781 -0.003906 0.078125 -0.007812 c 0.449219 -0.015625 0.898438 -0.046875 1.34375 -0.105469 c 2.15625 -0.253906 4.238282 -0.941406 6.121094 -2.023438 l 0.265625 -0.152343 c 0.589844 -0.316407 1.171875 -0.648438 1.734375 -1.003907 h 0.003906 l 29.996094 -17.320312 l 32 -18.476562 c 5.242188 -3.027344 8.324219 -8.753907 7.96875 -14.800782 c -0.09375 -2.03125 -0.574219 -4.042968 -1.496094 -5.90625 c -0.675781 -1.539062 -1.636718 -2.875 -2.773437 -4.058594 c -0.050781 -0.050781 -0.101563 -0.101562 -0.148438 -0.152343 c -0.261719 -0.261719 -0.519531 -0.519531 -0.796875 -0.765625 c -0.226562 -0.203125 -0.457031 -0.398438 -0.691406 -0.585938 c -0.171875 -0.140625 -0.347656 -0.277344 -0.523438 -0.414062 c -0.152343 -0.113282 -0.304687 -0.226563 -0.460937 -0.335938 c -0.980469 -0.707031 -2.015625 -1.339844 -3.078125 -1.902344 c -0.082031 -0.03125 -0.164062 -0.058593 -0.246094 -0.089843 l -61.753906 -35.648438 c -2.320312 -1.339843 -4.941406 -2.074219 -7.621094 -2.136719 z m 0 0" fill="url(#a)"/>
        <path d="m 36.375 46.953125 c -4.304688 -0.097656 -8.472656 1.542969 -11.554688 4.550781 c -3.082031 3.011719 -4.820312 7.136719 -4.820312 11.445313 v 36.949219 c 0 5.71875 3.050781 11 8 13.859374 c 4.949219 2.855469 11.050781 2.855469 16 0 l 32 -18.476562 c 4.949219 -2.859375 8 -8.140625 8 -13.855469 c 0 -5.71875 -3.050781 -11 -8 -13.859375 l -32 -18.472656 c -2.320312 -1.339844 -4.941406 -2.074219 -7.625 -2.140625 z m 0 0" fill="#2dc0af"/>
        <path d="m 36.375 10.003906 c -4.304688 -0.097656 -8.472656 1.539063 -11.554688 4.550782 c -3.082031 3.011718 -4.820312 7.136718 -4.820312 11.445312 v 73.898438 h 32 v -46.1875 l 40 23.09375 l 16 -27.710938 l -64 -36.949219 c -2.320312 -1.339843 -4.941406 -2.074219 -7.625 -2.140625 z m 0 0" fill="url(#b)"/>
        <path d="m 68.375 28.480469 c -4.304688 -0.101563 -8.472656 1.539062 -11.554688 4.550781 c -3.082031 3.007812 -4.820312 7.136719 -4.820312 11.441406 v 36.953125 c 0 5.714844 3.050781 10.996094 8 13.855469 c 4.953125 2.855469 11.050781 2.855469 16 0 l 32 -18.476562 c 4.949219 -2.855469 8 -8.136719 8 -13.855469 c 0 -5.714844 -3.050781 -10.996094 -8 -13.855469 l -32 -18.476562 c -2.320312 -1.339844 -4.941406 -2.074219 -7.625 -2.136719 z m 0 0" fill="url(#c)"/>
    </g>
    <g clip-path="url(#g)" mask="url(#e)" transform="matrix(1 0 0 1 -8 -16)">
        <path d="m 28.015625 42.628906 c -0.039063 12.109375 -0.003906 24.214844 -0.015625 36.320313 v 0.074219 v 36.875 c 0 5.71875 3.050781 11 8 13.859374 c 4.949219 2.855469 11.050781 2.855469 16 0 l 32 -18.476562 c 4.949219 -2.859375 8 -8.140625 8 -13.855469 c 0 -5.71875 -3.050781 -11 -8 -13.859375 l -32 -18.472656 c -0.382812 -0.214844 -0.773438 -0.417969 -1.175781 -0.601562 c -5.390625 -3.140626 -10.851563 -6.167969 -16.167969 -9.429688 c -3.980469 -2.828125 -6.484375 -7.558594 -6.640625 -12.433594 z m 0 0" fill="url(#f)" fill-rule="evenodd"/>
    </g>
    <path d="m 75.613281 95.429688 c 10.8125 -6.191407 21.589844 -12.457032 32.386719 -18.675782 c 7.046875 -3.898437 10.058594 -13.433594 6.472656 -20.65625 c -1.640625 -3.742187 -4.9375 -6.351562 -8.472656 -8.214844 c -8.539062 -3.351562 -19.515625 1.8125 -21.503906 11.109376 c -0.578125 1.25 -0.507813 2.558593 -0.496094 3.957031 c -0.046875 6.671875 0.097656 13.351562 -0.082031 20.019531 c -0.488281 5.195312 -3.699219 10.007812 -8.304688 12.460938 z m 0 0" fill="url(#h)" fill-rule="evenodd"/>
    <path d="m 20.019531 62.515625 c -0.046875 12.460937 -0.007812 24.921875 -0.019531 37.382813 c -0.148438 8.054687 6.601562 15.429687 14.652344 15.933593 c 4.0625 0.453125 7.96875 -1.097656 11.347656 -3.230469 c 7.175781 -5.71875 8.191406 -17.804687 1.132812 -24.171874 c -0.792968 -1.132813 -1.964843 -1.722657 -3.179687 -2.414063 c -5.753906 -3.375 -11.609375 -6.589844 -17.296875 -10.078125 c -4.25 -3.023438 -6.816406 -8.207031 -6.636719 -13.421875 z m 0 0" fill="url(#i)" fill-rule="evenodd"/>
</svg>
