<?xml version="1.0" encoding="utf-8"?>
<svg width="128" height="128" viewBox="0 0 128 128" xmlns="http://www.w3.org/2000/svg">
<defs>
<linearGradient id="pages" gradientUnits="userSpaceOnUse" x1="78" y1="0" x2="86" y2="0">
<stop offset="0" stop-color="#DEDDDA"/>
<stop offset="0.5" stop-color="#FFFFFF"/>
<stop offset="1" stop-color="#C0BFBC"/>
</linearGradient>
</defs>
<path d="M0 0L0 92C0 92 80 92 80 92C84.43 92 88 88.43 88 84C88 84 88 8 88 8C88 3.57 84.43 0 80 0C80 0 0 0 0 0Z" fill="#AC1D2E" transform="translate(20 28)"/>
<path d="M0 0L0 70C0 70 78 70 78 70C82.43 70 86 66.43 86 62C86 62 86 8 86 8C86 3.57 82.43 0 78 0C78 0 0 0 0 0Z" fill="url(#pages)" transform="translate(22 48)"/>
<path d="M0 0L0 84C0 84 80 84 80 84C84.43 84 88 80.43 88 76C88 76 88 8 88 8C88 3.57 84.43 0 80 0C80 0 0 0 0 0Z" fill="#AC1D2E" transform="translate(20 28)"/>
<path d="M0 0L8 0L8 2L2 2L2 8L8 8L8 10L0 10Z" fill="#191622" transform="translate(20 110)"/>
<path d="M0 0L0 102C0 102 80 102 80 102C84.43 102 88 98.43 88 94C88 94 88 8 88 8C88 3.57 84.43 0 80 0C80 0 0 0 0 0Z" fill="#ED333B" transform="translate(20 8)"/>
<rect width="8" height="102" x="20" y="8" fill="#424048"/>
<rect width="2" height="102" x="22" y="8" fill="#FFFFFF" opacity="0.2"/>
<g fill="none" stroke="#FFFFFF" stroke-width="6" stroke-linejoin="bevel">
<path d="M14 0C10 0 7 3 7 7L7 12C7 15 3 18 0 18C3 18 7 21 7 24L7 29C7 33 10 36 14 36" transform="translate(44 41)"/>
<path d="M0 36C4 36 7 33 7 29L7 24C7 21 11 18 14 18C11 18 7 15 7 12L7 7C7 3 4 0 0 0" transform="translate(74 41)"/>
</g></svg>
