<?xml version="1.0" encoding="utf-8"?>
<svg width="128" height="128" viewBox="0 0 128 128" xmlns="http://www.w3.org/2000/svg">
<defs>
<linearGradient id="corners">
<stop offset="0" stop-color="#E5A50A"/>
<stop offset="5%" stop-color="#F6D32D"/>
<stop offset="10%" stop-color="#E5A50A"/>
<stop offset="90%" stop-color="#F5C211"/>
<stop offset="95%" stop-color="#F6D32D"/>
<stop offset="1" stop-color="#E5A50A"/>
</linearGradient>
</defs>
<rect width="104" height="104" rx="8" x="12" y="12" fill="url(#corners)"/>
<rect width="104" height="92" rx="8" x="12" y="12" fill="#F9F06B"/>
<path d="M28 0L0 28L0 8C0 3.6 3.6 0 8 0Z" fill="#F0B40F" transform="translate(88 76)"/>
<g fill="#000000" opacity="30%">
<path d="M42 0C42 4 38.6 7.35 34.5 7.35L0 7.35L34 8.35L34.5 8.35C37.75 8.35 40.6 6.5 42 3.85Z" transform="translate(74 100.65)"/>
<path d="M42 0C42 4 38.6 7.35 34.5 7.35L0 7.35L34 8.35L34.5 8.35C37.75 8.35 40.6 6.5 42 3.85Z" transform="translate(74 104.65)"/>
</g><g fill="#F5C211">
<rect width="72" height="8" rx="4" x="28" y="28"/>
<rect width="48" height="8" rx="4" x="28" y="44"/>
</g></svg>
