<?xml version="1.0" encoding="utf-8"?>
<svg width="128" height="128" viewBox="0 0 128 128" xmlns="http://www.w3.org/2000/svg">
<defs>
<linearGradient id="corners">
<stop offset="0" stop-color="#9A9996"/>
<stop offset="5%" stop-color="#C0BFBC"/>
<stop offset="10%" stop-color="#9A9996"/>
<stop offset="90%" stop-color="#9A9996"/>
<stop offset="95%" stop-color="#C0BFBC"/>
<stop offset="1" stop-color="#9A9996"/>
</linearGradient>
<linearGradient id="shine" x1="0" y1="0" x2="0" y2="1">
<stop offset="0" stop-color="#000000"/>
<stop offset="1" stop-color="#FFFFFF"/>
</linearGradient>
<filter id="button_gray">
<feDropShadow dx="0" dy="2" flood-color="#5E5C64" stdDeviation="0"/>
</filter>
<filter id="button_dark">
<feDropShadow dx="0" dy="2" flood-color="#3D3846" stdDeviation="0"/>
</filter>
<filter id="button_main">
<feDropShadow dx="0" dy="2" flood-color="#C64600" stdDeviation="0"/>
</filter>
</defs>
<rect width="88" height="112" rx="8" x="20" y="8" fill="url(#corners)"/>
<rect width="88" height="104" rx="8" x="20" y="8" fill="#DEDDDA"/>
<rect width="64" height="10" rx="4" x="32" y="30" fill="#F6F5F4"/>
<rect width="64" height="10" rx="4" x="32" y="20" fill="#427455"/>
<rect width="64" height="16" rx="4" x="32" y="22" fill="#6FB182"/>
<rect width="64" height="16" rx="4" x="32" y="22" fill="url(#shine)" opacity="20%"/>
<rect width="16" height="32" fill="#FF7800" filter="url(#button_main)" rx="4" x="80" y="68"/>
<g fill="#9A9996" filter="url(#button_gray)">
<rect width="16" height="12" rx="4" x="32" y="48"/>
<rect width="16" height="12" rx="4" x="56" y="48"/>
<rect width="16" height="12" rx="4" x="80" y="48"/>
</g><g fill="#5E5C64" filter="url(#button_dark)">
<rect width="16" height="12" rx="4" x="32" y="68"/>
<rect width="16" height="12" rx="4" x="56" y="68"/>
<rect width="16" height="12" rx="4" x="32" y="88"/>
<rect width="16" height="12" rx="4" x="56" y="88"/>
</g></svg>
