<?xml version="1.0" encoding="utf-8"?>
<svg width="128" height="128" viewBox="0 0 128 128" xmlns="http://www.w3.org/2000/svg">
<defs>
<linearGradient id="blue" x1="0" y1="0" x2="0" y2="100%">
<stop offset="0" stop-color="#2BA9BD"/>
<stop offset="1" stop-color="#2F6FBA"/>
</linearGradient>
<radialGradient id="core" cx="62" cy="62" gradientUnits="userSpaceOnUse" r="6">
<stop offset="0" stop-color="#E9F18C"/>
<stop offset="1" stop-color="#CC970A"/>
</radialGradient>
</defs>
<circle r="60" cx="64" cy="64" fill="url(#blue)"/>
<circle r="6" cx="64" cy="64" fill="url(#core)"/>
<g id="orbitals" fill="none" stroke="#FFFFFF" stroke-width="2">
<ellipse rx="14" ry="44" cx="64" cy="64"/>
<ellipse rx="14" ry="44" cx="64" cy="64" transform="rotate(60 64 64)"/>
<ellipse rx="14" ry="44" cx="64" cy="64" transform="rotate(120 64 64)"/>
</g><g id="atoms" fill="#FFFFFF">
<circle r="4.5" cx="4.5" cy="4.5" transform="translate(66 20)"/>
<circle r="4.5" cx="4.5" cy="4.5" transform="translate(97 45)"/>
<circle r="4.5" cx="4.5" cy="4.5" transform="translate(90 85)"/>
<circle r="4.5" cx="4.5" cy="4.5" transform="translate(53 99)"/>
<circle r="4.5" cx="4.5" cy="4.5" transform="translate(22 74)"/>
<circle r="4.5" cx="4.5" cy="4.5" transform="translate(29 34)"/>
</g></svg>
