<?xml version="1.0" encoding="utf-8"?>
<svg width="128" height="128" viewBox="0 0 128 128" xmlns="http://www.w3.org/2000/svg">
<defs>
<linearGradient id="gray" x1="0" y1="0" x2="0" y2="1">
<stop offset="0" stop-color="#505050"/>
<stop offset="1" stop-color="#323232"/>
</linearGradient>
<linearGradient id="shine" x1="0" y1="0" x2="1" y2="1">
<stop offset="15%" stop-color="#FFFFFF" stop-opacity="75%"/>
<stop offset="50%" stop-color="#D3D3D3" stop-opacity="0"/>
</linearGradient>
<clipPath id="L">
<path d="M0 0L64 0L64 64L128 64L128 128L0 128Z"/>
</clipPath>
<clipPath id="puzzle">
<rect width="56" height="56" rx="28"/>
</clipPath>
</defs>
<rect width="104" height="104" rx="8" x="12" y="12" fill="url(#gray)"/>
<circle r="34" cx="64" cy="64" fill="none" stroke="#DEDDDA" stroke-width="4" clip-path="url(#L)"/>
<g fill="#DEDDDA">
<path d="M3 0L2 2L0 3L2 4L3 6L4 4L6 3L4 2Z" transform="translate(71 27)"/>
<path d="M4 0L2.5 2.5L0 4L2.5 5.5L4 8L5.5 5.5L8 4L5.5 2.5L4 0Z" transform="translate(94 52)"/>
<path d="M8 0L5 5L0 8L5 11L8 16L11 11L16 8L11 5Z" transform="translate(80 24)"/>
<path d="M5 0L3 3L0 5L3 7L5 10L7 7L10 5L7 3Z" transform="translate(91 39)"/>
</g><g clip-path="url(#puzzle)" transform="translate(36 36)">
<path d="M0 0L28 0L28 28L0 28Z" fill="#0092EE" transform="translate(0 28)"/>
<path d="M8 0L36 0L36 28L8 28L8 20C8 19 7 18 6 18L4 18C2 18 0 16 0 14C0 12 2 10 4 10L6 10C7 10 8 9 8 8Z" fill="#10E7C4" transform="translate(20 28)"/>
<path d="M0 0L28 0L28 28L20 28C19 28 18 29 18 30L18 32C18 34 16 36 14 36C12 36 10 34 10 32L10 30C10 29 9 28 8 28L0 28Z" fill="#BEE34A" transform="translate(28 0)"/>
<path d="M0 0L0 28L8 28C9 28 10 29 10 30L10 32C10 34 12 36 14 36C16 36 18 34 18 32L18 30C18 29 19 28 20 28L28 28L28 20C28 19 29 18 30 18L32 18C34 18 36 16 36 14C36 12 34 10 32 10L30 10C29 10 28 9 28 8L28 0Z" fill="#F05A78"/>
</g><circle r="27" cx="64" cy="64" fill="none" stroke="#000000" stroke-width="2" opacity="16%"/>
<circle r="24" cx="64" cy="64" fill="url(#shine)"/>
</svg>
