<?xml version="1.0" encoding="utf-8"?>
<svg width="128" height="128" viewBox="0 0 128 128" fill="#FFFFFF" xmlns="http://www.w3.org/2000/svg">
<circle r="60" cx="64" cy="64"/>
<circle r="46" cx="64" cy="64" fill="#2A2A2B"/>
<path d="M24.0265 8.07187C24.0265 8.07187 19.34 0 19.34 0C10.3458 5.238 3.824 13.8586 1.22942 23.9374C-1.36516 34.0163 0.183462 44.7144 5.53 53.6437C5.52961 53.6437 13.5452 48.8437 13.5452 48.8437C9.48538 42.0567 8.30977 33.9274 10.2805 26.2682C12.2512 18.609 17.2044 12.0566 24.0359 8.07187C24.036 8.07187 24.0265 8.07187 24.0265 8.07187Z" opacity="0.8" transform="translate(25.077 30.278)"/>
<path d="M46.5187 0C44.0913 8.57265 37.9288 15.5943 29.7438 19.1139C21.5587 22.6335 12.2231 22.276 4.33125 18.1406C4.33125 18.1406 0 26.428 0 26.4281C10.382 31.845 22.6506 32.303 33.4073 27.6743C44.1641 23.0458 52.267 13.8226 55.472 2.56C55.472 2.56 46.5187 0 46.5187 0Z" opacity="0.8" transform="translate(45.944 72)"/>
<path d="M28.94 34.5375C20.9673 36.641 12.5672 33.1927 8.37157 26.094C4.176 19 5.206 9.97357 10.8935 4C10.8935 4 6.67476 0 6.67476 0C-0.796131 7.86 -2.14186 19.7235 3.3788 29.0568C8.9 38.39 19.945 42.9245 30.431 40.1625C30.431 40.1625 28.94 34.5375 28.94 34.5375Z" opacity="0.6" transform="translate(39.747 47.2)"/>
</svg>
