<?xml version="1.0" encoding="utf-8"?>
<svg width="128" height="128" viewBox="0 0 128 128" xmlns="http://www.w3.org/2000/svg">
<defs>
<linearGradient id="light" x1="0" y1="0" x2="100%" y2="100%">
<stop offset="0" stop-color="#875CFF"/>
<stop offset="0.5" stop-color="#BFABFF"/>
<stop offset="1" stop-color="#BFE8FF"/>
</linearGradient>
<linearGradient id="hicolor" x1="0" y1="100%" x2="100%" y2="0">
<stop offset="0" stop-color="#06B8FF"/>
<stop offset="0.6" stop-color="#6D4AFF"/>
</linearGradient>
</defs>
<path d="M8 0L104 0C108.4 0 112 3.6 112 8L112 50L86 50C79.4 50 74 55.4 74 62L74 88L8 88C3.6 88 0 84.4 0 80L0 8C0 3.6 3.6 0 8 0Z" fill="url(#light)" transform="translate(8 28)"/>
<path d="M0 0L78 0C82.4 0 86 3.6 86 8L86 34C79.4 34 74 39.4 74 46L74 72L8 72C3.6 72 0 68.4 0 64Z" fill="url(#hicolor)" transform="translate(8 44)"/>
<path d="M0 13.4C0 13.4 4 13.4 4 13.4C4.234 14.0718 4.65 14.6873 5.23695 15.1137C5.81884 15.545 6.54 15.77 7.27 15.73C9.11 15.73 10.33 14.73 10.3273 13.2743C10.3273 11.8107 9.06343 11 6.56 11C6.56 11 5 11 5 11L5 7.7C5 7.7 6.35 7.7 6.35 7.7C8.77 7.7 9.76 6.825 9.76 5.52C9.76 4.2 8.7 3.3 7.2 3.3C6.54 3.263 6 3.5 5.4 4C5 4.33 4.57 5 4.5 5.6C4.5 5.6 0.575 5.6 0.575 5.64C0.72 3.3 2.56 0 7.1735 0C11 0 13.444 2 13.444 5C13.444 6 13.1483 6.85 12.6 7.6C12 8.36 11.222 9 10.316 9.2C10.316 9.2 10.316 9.26 10.316 9.26C12.5 9.644 14 11.554 14 13.75C14 17 11 19 7.234 19C3.184 19 0.3 16.76 0 13.3757C0 13.3757 0 13.4 0 13.4ZM20.84 0L24 0L24 19L20 19L20 5L16 7L16 3.12L21 0L20.84 0Z" fill="#8F69FF" transform="translate(91 89)"/>
</svg>
