<?xml version="1.0" encoding="utf-8"?>
<svg width="128" height="128" viewBox="0 0 128 128" xmlns="http://www.w3.org/2000/svg">
<linearGradient id="paper">
<stop offset="90%" stop-color="#DEDDDA"/>
<stop offset="95%" stop-color="#FFFFFF"/>
<stop offset="1" stop-color="#C0BFBC"/>
</linearGradient>
<path d="M0 0L0 92C0 92 80 92 80 92C84.4 92 88 88.4 88 84C88 84 88 8 88 8C88 3.6 84.4 0 80 0C80 0 0 0 0 0Z" fill="#5A0028" transform="translate(20 28)"/>
<path d="M0 0L0 70C0 70 78 70 78 70C82.4 70 86 66.4 86 62C86 62 86 8 86 8C86 3.6 82.4 0 78 0C78 0 0 0 0 0Z" fill="url(#paper)" transform="translate(22 48)"/>
<path d="M0 0L0 84C0 84 80 84 80 84C84.4 84 88 80.4 88 76C88 76 88 8 88 8C88 3.6 84.4 0 80 0C80 0 0 0 0 0Z" fill="#5A0028" transform="translate(20 28)"/>
<path d="M0 0L8 0L8 2L2 2L2 8L8 8L8 10L0 10Z" fill="#191622" transform="translate(20 110)"/>
<path d="M0 0L0 102C0 102 80 102 80 102C84.4 102 88 98.4 88 94C88 94 88 8 88 8C88 3.568 84.4 0 80 0C80 0 0 0 0 0Z" fill="#820046" transform="translate(20 8)"/>
<rect width="8" height="102" fill="#241F31" transform="translate(20 8)"/>
<path d="M0 0L2 0L2 102L0 102Z" fill="#FFFFFF" opacity="20%" transform="translate(22 8)"/>
<path d="M0 64L0 20C0 9 9 0 20 0C31 0 40 9 40 20C40 31 31 40 20 40C9 40 0 31 0 20" fill="none" stroke="#FFFFFF" stroke-width="8" stroke-linecap="round" opacity="60%" transform="translate(48 28)"/>
<g fill="none" stroke-width="6">
<path d="M0 64L0 20C0 9 9 0 20 0C31 0 40 9 40 20" stroke="#9FD4FF" stroke-linecap="round" transform="translate(48 28)"/>
<path d="M40 0C40 11 31 20 20 20C9 20 0 11 0 0" stroke="#FEEC97" transform="translate(48 48)"/>
</g>
<path d="M5 0L10 5L0 5L5 0Z" fill="#FEEC97" transform="translate(43 43)"/>
<path d="M5 5L10 0L0 0L5 5Z" fill="#9FD4FF" transform="translate(83 48)"/>
</svg>
