<?xml version="1.0" encoding="utf-8"?>
<svg width="128" height="128" viewBox="0 0 128 128" xmlns="http://www.w3.org/2000/svg">
<linearGradient id="green" x1="0" y1="0" x2="0" y2="1">
<stop offset="0" stop-color="#93B023"/>
<stop offset="1" stop-color="#589632"/>
</linearGradient>
<path d="M0 60C0 26.86 26.86 0 60 0C93.14 0 120 26.86 120 60C120 69.74 117.7 79 113.56 87L95 68.5C95.65 65.8 96 63 96 60C96 40.1 79.9 24 60 24C40.1 24 24 40.1 24 60C24 79.9 40.1 96 60 96C63 96 65.8 95.65 68.5 95L87.1 113.56C79 117.7 69.74 120 60 120C26.86 120 0 93.14 0 60ZM74 74L92 74L120 102L120 120L102 120L74 92Z" fill="url(#green)" transform="translate(4 4)"/>
<path d="M8 8L26 8L18 0L0 0L0 18L8 26Z" fill="#F0E64A" transform="translate(70 70)"/>
<path d="M15 15L33 15L18 0L0 0L0 18L15 33Z" fill="#EE7913" transform="translate(55 55)"/>
<path d="M0 0L69 69L69 51L18 0Z" fill="#FFFFFF" opacity="30%" transform="translate(55 55)"/>
</svg>
