<?xml version="1.0" encoding="utf-8"?>
<svg width="128" height="128" viewBox="0 0 128 128" xmlns="http://www.w3.org/2000/svg">
<circle r="60" cx="64" cy="64" fill="#1D1D1D"/>
<path d="M61.6 24.86L51.43 0.32C49.65 0.1 47.84 0 46 0C36.52 0 27.7 2.87 20.4 7.8L61.6 24.86L61.6 24.86ZM72 42L82.15 17.54C81 16.13 79.83 14.77 78.53 13.47C71.82 6.77 63.56 2.56 54.9 0.86L72 42L72 42ZM42 20L17.54 9.86C16.13 11 14.77 12.18 13.47 13.47C6.77 20.18 2.56 28.44 0.86 37L42 20L42 20ZM91.7 51.43L67.15 61.6L84.22 20.4C89.14 27.7 92 36.52 92 46C92 47.84 91.9 49.65 91.7 51.43L91.7 51.43ZM0.32 40.57L24.86 30.4L7.8 71.62C2.87 64.3 0 55.5 0 46C0 44.17 0.1 42.36 0.32 40.57L0.32 40.57ZM20 50L9.86 74.47C11 75.88 12.18 77.23 13.48 78.53C20.18 85.24 28.44 89.44 37 91.14L20 50L20 50ZM50 72L74.47 82.15C75.88 81 77.235 79.83 78.53 78.53C85.24 71.82 89.44 63.56 91.14 54.9L50 72L50 72ZM40.57 91.7L30.4 67.15L71.62 84.22C64.3 89.14 55.5 92 46 92C44.17 92 42.356 92 40.57 91.7L40.57 91.7Z" fill="#F0F0F0" transform="translate(18 18)"/>
<g transform="translate(49 46)">
<path d="M0 0L11 0L22 17L11 17Z" fill="#F0F0F0" transform="translate(8 19)"/>
<path d="M19 0L0 0L0 36L10 36L10 22L19 22C25 22 30 17 30 11C30 5 25 0 19 0ZM16 7L10 7L10 15L16 15C18.2 15 20 13.2 20 11C20 8.8 18.2 7 16 7Z" fill="#F0F0F0" fill-rule="evenodd"/>
</g></svg>
