<?xml version="1.0" encoding="utf-8"?>
<svg width="128" height="128" viewBox="0 0 128 128" fill="none" xmlns="http://www.w3.org/2000/svg">
<defs>
<radialGradient id="shadow" gradientUnits="userSpaceOnUse" cx="0" cy="0" r="1" gradientTransform="matrix(0 54 -54 0 54 54)">
<stop offset="0.5" stop-color="#000000" stop-opacity="0"/>
<stop offset="1" stop-color="#000000" stop-opacity="0.2"/>
</radialGradient>
</defs>
<g id="chromatic" transform="translate(4 4)">
<path d="M0 15.5435L24.7484 40.2911C27.8058 37.2337 31.6513 34.9644 35.9542 33.8144L26.8934 0C16.5668 2.76 7.33758 8.206 0 15.5435L0 15.5435Z" fill="#B00144" transform="translate(17.574 2.03)"/>
<path d="M0 26.8934C2.76 16.5668 8.206 7.33757 15.5435 0L40.292 24.7476C37.2346 27.805 34.9655 31.6506 33.8156 35.9535L0 26.8934L0 26.8934Z" fill="#702083" transform="translate(2.03 17.574)"/>
<path d="M35 15.5316C35 13.2936 35.2941 11.1242 35.8457 9.06L2.03 0C0.706 4.95434 0 10.1613 0 15.5331C0 20.905 0.706 26.1117 2.03 31.066L35.846 22C35.2942 19.94 35 17.77 35 15.5316L35 15.5316Z" fill="#472383" transform="translate(0 44.467)"/>
<path d="M0 9.06175L33.816 0C34.9661 4.30267 37.2352 8.1481 40.2926 11.2053L15.5435 35.9552C8.206 28.6176 2.76 19.3884 0 9.06175L0 9.06175Z" fill="#0F3F94" transform="translate(2.03 66.471)"/>
<path d="M0 24.75L24.75 0C27.8064 3.05721 31.6518 5.32626 35.9545 6.4762L26.8934 40.2934C16.5668 37.5333 7.33757 32.0874 0 24.75L0 24.75Z" fill="#007EC8" transform="translate(17.574 77.677)"/>
<path d="M0 33.8172L9.0611 0C11.1254 0.551712 13.295 0.84584 15.5331 0.84584C17.7713 0.84584 19.9407 0.55172 22 2.28882e-05L31.066 33.8172C26.1117 35.1413 20.9048 35.8473 15.533 35.8473C10.1612 35.8473 4.95433 35.1413 0 33.8172L0 33.8172Z" fill="#4DAD30" transform="translate(44.467 84.153)"/>
<path d="M9.06106 40.2934L0 6.47622C4.30268 5.32626 8.14814 3.05721 11.2055 0L35.9545 24.75C28.617 32.0874 19.3877 37.5334 9.061 40.2934L9.061 40.2934Z" fill="#AFCB05" transform="translate(66.472 77.677)"/>
<path d="M24.75 35.9552L0 11.2053C3.05734 8.1481 5.32652 4.30267 6.47661 0L40.2926 9.06174C37.5326 19.3884 32.0866 28.6176 24.75 35.9552L24.75 35.9552Z" fill="#FEED01" transform="translate(77.677 66.471)"/>
<path d="M33.816 31.066L0 22C0.551811 19.94 0.846 17.77 0.846 15.5316C0.846 13.2936 0.552 11.1242 0 9.06L33.816 0C35.14 4.95434 35.846 10.1613 35.846 15.5331C35.846 20.9048 35.14 26.1117 33.816 31.066L33.816 31.066Z" fill="#FBB901" transform="translate(84.154 44.467)"/>
<path d="M24.7484 0C32.086 7.33756 37.532 16.5668 40.292 26.8934L6.47631 35.9534C5.3264 31.6506 3.0573 27.805 0 24.7476L24.7484 0L24.7484 0Z" fill="#F29200" transform="translate(77.678 17.574)"/>
<path d="M35.9541 15.5435L11.2057 40.2911C8.1484 37.2337 4.30283 34.9644 0 33.8144L9.06074 0C19.3873 2.76 28.6166 8.206 35.9541 15.5435L35.9541 15.5435Z" fill="#E74C0A" transform="translate(66.472 2.03)"/>
<path d="M0 2.03C4.95432 0.706 10.1612 0 15.533 0C20.905 0 26.1116 0.706 31.066 2.03L22 35.8445C19.941 35.2927 17.7713 35 15.533 35C13.2947 35 11.1251 35.2927 9.0608 35.8445L0 2.03L0 2.03Z" fill="#E3010F" transform="translate(44.467 0)"/>
</g>
<circle r="39.5" cx="64" cy="64" fill="none" stroke-width="29" stroke="url(#shadow)"/>
<circle r="57" cx="64" cy="64" fill="none" stroke-width="6" stroke="#FFFFFF" opacity="0.2"/>
</svg>