<?xml version="1.0" encoding="utf-8"?>
<svg width="128" height="128" viewBox="0 0 128 128" xmlns="http://www.w3.org/2000/svg">
<defs>
<clipPath id="tab">
<rect width="104" height="98" rx="8" x="12" y="12"/>
</clipPath>
<clipPath id="squircle">
<rect width="104" height="104" rx="8" x="12" y="12"/>
</clipPath>
<linearGradient id="light" x1="0" y1="0" x2="1" y2="1">
<stop offset="0" stop-color="#FFFFFF" stop-opacity="20%"/>
<stop offset="45%" stop-color="#FFFFFF" stop-opacity="0"/>
</linearGradient>
<linearGradient id="corners">
<stop offset="0" stop-color="#000000"/>
<stop offset="4%" stop-color="#FFFFFF"/>
<stop offset="8%" stop-color="#000000"/>
<stop offset="92%" stop-color="#000000"/>
<stop offset="96%" stop-color="#FFFFFF"/>
<stop offset="1" stop-color="#000000"/>
</linearGradient>
</defs>
<g clip-path="url(#squircle)">
<rect width="6" height="12" x="12" y="104" fill="#5551E8"/>
<rect width="50" height="12" x="18" y="104" fill="#F6D32D"/>
<rect width="48" height="12" x="68" y="104" fill="#33D17A"/>
<rect width="104" height="104" x="12" y="12" fill="url(#corners)" opacity="0.4"/>
<g clip-path="url(#tab)">
<path d="M116 64L116 116L64 116Z" fill="#33D17A"/>
<path d="M38 90L90 90L64 116L12 116Z" fill="#F6D32D"/>
<path d="M64 64L90 90L38 90Z" fill="#FF7800"/>
<path d="M90 38L116 64L90 90L64 64Z" fill="#F6F5F4"/>
<path d="M116 12L116 64L90 38Z" fill="#3584E4"/>
<path d="M12 12L64 64L12 116Z" fill="#5551E8"/>
<path d="M12 12L116 12L64 64Z" fill="#E01B24"/>
<rect width="104" height="98" x="12" y="12" fill="url(#light)"/>
</g></g></svg>
