<?xml version="1.0" encoding="utf-8"?>
<svg width="128" height="128" viewBox="0 0 128 128" xmlns="http://www.w3.org/2000/svg">
<rect width="104" height="104" rx="8" x="12" y="12" fill="#FF4438"/>
<path d="M36 17C31.5 17 18 25 14 29C11 25 9 19 9 12C17 5 36 0 47 0C67 0 75 13 75 24C75 37 64 47 51 47C45 47 40 44 37 39C37 46 44 55 52 55C64 55 74 44 80 35C80 56 66 72 47 72C36 72 28.5 59 28.5 49.5L8.5 73C5.5 71 0 62 0 57ZM41.5 31.5L52.5 15.5C56 15.5 62 19 61 24C59 34 48 34 41.5 31.5Z" fill="#091A22" fill-rule="evenodd" transform="translate(24 27)"/>
</svg>
