<?xml version="1.0" encoding="utf-8"?>
<svg width="128" height="128" viewBox="0 0 128 128" xmlns="http://www.w3.org/2000/svg">
<defs>
<clipPath id="90">
<path d="M64 64L128 0L128 128Z"/>
</clipPath>
<clipPath id="180">
<path d="M0 0L128 0L0 128Z"/>
</clipPath>
</defs>
<circle r="60" cx="64" cy="66" fill="#C0BFBC"/>
<circle r="60" cx="64" cy="64" fill="#F6F5F4"/>
<circle r="52" cx="64" cy="64" fill="#3D3846" stroke="#241F31" stroke-width="4"/>
<g fill="none" stroke-width="16">
<circle r="36" cx="64" cy="64" stroke="#3584E4" clip-path="url(#180)"/>
<circle r="36" cx="64" cy="64" stroke="#ED333B" clip-path="url(#90)"/>
</g><g stroke="#F6F5F4" stroke-width="2" stroke-linecap="round">
<line x1="64" y1="21" x2="64" y2="27" transform="rotate(-112.5 64 64)"/>
<line x1="64" y1="21" x2="64" y2="27" transform="rotate(112.5 64 64)"/>
<line x1="64" y1="21" x2="64" y2="27" transform="rotate(-22.5 64 64)"/>
<line x1="64" y1="21" x2="64" y2="27" transform="rotate(22.5 64 64)"/>
<line x1="64" y1="21" x2="64" y2="27" transform="rotate(-45 64 64)"/>
<line x1="64" y1="21" x2="64" y2="27" transform="rotate(-67.5 64 64)"/>
<line x1="64" y1="21" x2="64" y2="27" transform="rotate(67.5 64 64)"/>
<line x1="64" y1="21" x2="64" y2="27" transform="rotate(-90 64 64)"/>
<line x1="64" y1="21" x2="64" y2="27" transform="rotate(90 64 64)"/>
<line x1="64" y1="21" x2="64" y2="27"/>
</g>
<path d="M0 46L3 0L6 46C6 47.7 4.7 49 3 49C1.3 49 0 47.7 0 46Z" fill="#DEDDDA" stroke="#DEDDDA" stroke-width="4" stroke-linejoin="round" transform="translate(61 18) rotate(45 3 46)"/>
<circle r="2" cx="64" cy="64" fill="#68676B"/>
</svg>
