<?xml version="1.0" encoding="utf-8"?>
<svg width="128" height="128" viewBox="0 0 128 128" xmlns="http://www.w3.org/2000/svg">
<circle cx="64" cy="64" r="60" fill="#073E7D"/>
<circle cx="64" cy="64" r="14" fill="#FBFBFB"/>
<circle cx="64" cy="64" r="3" fill="#D3D3D3"/>
<g fill="none" stroke-linecap="round">
<path d="M31 0C55.3 0 75 19.7 75 44C75 68.3 55.3 88 31 88C19 88 8 83 0 75" stroke="#F8F068" stroke-width="8" transform="translate(33 20)"/>
<path d="M64 0C64 17.67 49.67 32 32 32C14.33 32 0 17.67 0 0" stroke="#F0F4F8" stroke-width="7" transform="translate(32 64)"/>
<path d="M40 0C40 11 31 20 20 20C9 20 0 11 0 0" stroke="#6FA8ED" stroke-width="6" transform="translate(44 64) rotate(-45 20 0)"/>
</g></svg>
