<?xml version="1.0" encoding="utf-8"?>
<svg width="128" height="128" viewBox="0 0 128 128" xmlns="http://www.w3.org/2000/svg">
<defs>
<clipPath id="circle">
<circle r="60" cx="64" cy="64"/>
</clipPath>
<filter id="shadow">
<feDropShadow dx="0" dy="2" flood-color="#241F31" stdDeviation="0"/>
</filter>
</defs>
<g clip-path="url(#circle)">
<circle r="60" cx="64" cy="64" fill="#1A5FB4"/>
<circle r="60" cx="64" cy="60" fill="#1C71D8"/>
<g fill="#26A269">
<path d="M15 7.12C15 7.12 15 10.15 15 10.15C15 14 11.9 17.27 8 17.27C3.22 17.62 -0.33 21.74 0 26.47C0 26.47 0 38.9 0 38.9C0 42.93 3.3 46.2 7.333 46.2C10.45 47.12 12.24 50.4 11.32 53.5C11.32 53.5 11.32 62.23 11.32 62.23C11.32 66.66 14.9 70.24 19.333 70.24C23.75 70.24 27.34 66.66 27.333 62.23C27.333 62.23 27.333 48.73 27.333 48.73C27.333 45.5 28.62 42.375 30.92 40C33.2 37.8 36.325 36.52 39.57 36.52C39.57 36.52 50.9 36.55 50.9 36.55C52.77 36.55 54.58 35.8 55.88 34.47C57.25 33.14 58 31.33 58 29.445C58 29.4453 58 7.12 58 7.12C58 3.2 54.8 0 50.88 0C50.88 0 22.18 0 22.18 0C18.25 0 15 3.2 15 7.12C15 7.12 15 7.12 15 7.12Z" transform="translate(68.7 27.76)"/>
<path d="M5.8 0C9 0 11.62 2.6 11.62 5.8C11.62 5.8 11.62 12.2 11.62 12.2C11.62 15.4 9 18 5.8 18C2.6 18 0 15.4 0 12.2C0 12.2 0 5.8 0 5.8C0 2.6 2.6 0 5.8 0C5.8 0 5.8 0 5.8 0Z" transform="translate(62.078 21.047)"/>
<path d="M5.25 0C5.25 0 23.2 0 23.18 0C26.1 0 28.44 2.35 28.44 5.254C28.44 8.156 26 10.5 23.18 10.5C23.1836 10.5 5.254 10.5 5.254 10.5C2.3555 10.5 0 8.15625 0 5.254C0 2.35 2.3555 0 5.254 0C5.254 0 5.254 0 5.254 0Z" transform="translate(83.23 12.285)"/>
<path d="M0 0C0 0 0 102 0 102C0 106.4 3.6 110 8 110C8 110 12 110 12 110C16.4 110 20 106.4 20 102C20 102 20 72 20 72C20 67.6 16.4 64 12 64C7.6 64 4 60.4 4 56C4 51.6 7.6 48 12 48C16.4 48 20 44.4 20 40C20 35.6 23.6 32 28 32C32.4 32 36 28.4 36 24C36 24 36 12 36 12C36 9.8 37.8 8 40 8C42.4 7.8 44 7 44 4C44 1 42 0 40 0Z" transform="translate(4 8)"/>
</g><g filter="url(#shadow)">
<g id="key" fill="#F6F5F4" transform="translate(50 63)">
<path d="M12 0L0 0L0 6L3 6L3 9L4 10L3 11L3 12L4.5 13.5L3 15L4 16L3 17L5 19L3 21L4.5 22.5L3 24L7 28L10.5 28L12 26.5L12 0Z" transform="translate(8 26)"/>
<path d="M2 1C2 0.5 1.5 0 1 0C0.5 0 0 0.5 0 1L0 25L2 25Z" fill="#C0BFBC" transform="translate(16 29)"/>
<path d="M0 14C0 6 6 0 14 0C22 0 28 6 28 14C28 22 22 28 14 28C6 28 0 22 0 14ZM17 9C17 7.4 15.6 6 14 6C12.4 6 11 7.4 11 9C11 10.6 12.4 12 14 12C15.6 12 17 10.6 17 9Z"/>
</g></g><g filter="url(#shadow)">
<g id="key" fill="#F6F5F4" transform="translate(54 59) rotate(-45 14 9)">
<path d="M12 0L0 0L0 6L3 6L3 9L4 10L3 11L3 12L4.5 13.5L3 15L4 16L3 17L5 19L3 21L4.5 22.5L3 24L7 28L10.5 28L12 26.5L12 0Z" transform="translate(8 26)"/>
<path d="M2 1C2 0.5 1.5 0 1 0C0.5 0 0 0.5 0 1L0 25L2 25Z" fill="#C0BFBC" transform="translate(16 29)"/>
<path d="M0 14C0 6 6 0 14 0C22 0 28 6 28 14C28 22 22 28 14 28C6 28 0 22 0 14ZM17 9C17 7.4 15.6 6 14 6C12.4 6 11 7.4 11 9C11 10.6 12.4 12 14 12C15.6 12 17 10.6 17 9Z"/>
</g></g><g filter="url(#shadow)">
<g id="key" fill="#F6F5F4" transform="translate(58 55) rotate(-90 14 9)">
<path d="M12 0L0 0L0 6L3 6L3 9L4 10L3 11L3 12L4.5 13.5L3 15L4 16L3 17L5 19L3 21L4.5 22.5L3 24L7 28L10.5 28L12 26.5L12 0Z" transform="translate(8 26)"/>
<path d="M2 1C2 0.5 1.5 0 1 0C0.5 0 0 0.5 0 1L0 25L2 25Z" fill="#C0BFBC" transform="translate(16 29)"/>
<path d="M0 14C0 6 6 0 14 0C22 0 28 6 28 14C28 22 22 28 14 28C6 28 0 22 0 14ZM17 9C17 7.4 15.6 6 14 6C12.4 6 11 7.4 11 9C11 10.6 12.4 12 14 12C15.6 12 17 10.6 17 9Z"/>
</g></g></g></svg>
