<?xml version="1.0" encoding="utf-8"?>
<svg width="128" height="128" viewBox="0 0 128 128" xmlns="http://www.w3.org/2000/svg">
<defs>
<clipPath id="circle">
<circle r="60" cx="64" cy="64"/>
</clipPath>
<filter id="shadow">
<feDropShadow dx="0" dy="2" flood-color="#241F31" stdDeviation="0"/>
</filter>
</defs>
<g clip-path="url(#circle)">
<circle r="60" cx="64" cy="64" fill="#1A5FB4"/>
<circle r="60" cx="64" cy="60" fill="#1C71D8"/>
<path d="M0 0L0 108L20 108L20 72C20 68 16 64 12 64C8 64 4 60 4 56C4 52 8 48 12 48C16 48 20 44 20 40C20 36 24 32 28 32C32 32 36 28 36 24L36 12C36 10 38 8 40 8C42 8 44 6 44 4C44 2 42 0 40 0ZM108 10C108 7 105 4 102 4L86 4C83 4 80 7 80 10C80 13 83 16 86 16L102 16C105 16 108 13 108 10ZM66 12C69 12 72 14.653 72 17.86L72 26C72 29 69 32 66 32C63 32 60 29 60 26L60 18C60 15 63 12 66 12ZM72 36C68 36 64 40 64 44L64 60C64 64 68 68 72 68C74 68 76 70 76 72L76 84C76 88 80 92 84 92C88 92 92 88 92 84L92 68C92 62 98 56 104 56L116 56C120 56 124 52 124 48L124 28C124 24 120 20 116 20L88 20C84 20 80 24 80 28C80 32 76 36 72 36Z" fill="#26A269" transform="translate(4 8)"/>
<g filter="url(#shadow)">
<g id="key" fill="#F6F5F4" transform="translate(50 63)">
<path d="M12 0L0 0L0 6L3 6L3 9L4 10L3 11L3 12L4.5 13.5L3 15L4 16L3 17L5 19L3 21L4.5 22.5L3 24L7 28L10.5 28L12 26.5L12 0Z" transform="translate(8 26)"/>
<path d="M2 1C2 0.5 1.5 0 1 0C0.5 0 0 0.5 0 1L0 25L2 25Z" fill="#C0BFBC" transform="translate(16 29)"/>
<path d="M0 14C0 6 6 0 14 0C22 0 28 6 28 14C28 22 22 28 14 28C6 28 0 22 0 14ZM17 9C17 7.4 15.6 6 14 6C12.4 6 11 7.4 11 9C11 10.6 12.4 12 14 12C15.6 12 17 10.6 17 9Z"/>
</g></g><g filter="url(#shadow)">
<g id="key" fill="#F6F5F4" transform="translate(54 59) rotate(-45 14 9)">
<path d="M12 0L0 0L0 6L3 6L3 9L4 10L3 11L3 12L4.5 13.5L3 15L4 16L3 17L5 19L3 21L4.5 22.5L3 24L7 28L10.5 28L12 26.5L12 0Z" transform="translate(8 26)"/>
<path d="M2 1C2 0.5 1.5 0 1 0C0.5 0 0 0.5 0 1L0 25L2 25Z" fill="#C0BFBC" transform="translate(16 29)"/>
<path d="M0 14C0 6 6 0 14 0C22 0 28 6 28 14C28 22 22 28 14 28C6 28 0 22 0 14ZM17 9C17 7.4 15.6 6 14 6C12.4 6 11 7.4 11 9C11 10.6 12.4 12 14 12C15.6 12 17 10.6 17 9Z"/>
</g></g><g filter="url(#shadow)">
<g id="key" fill="#F6F5F4" transform="translate(58 55) rotate(-90 14 9)">
<path d="M12 0L0 0L0 6L3 6L3 9L4 10L3 11L3 12L4.5 13.5L3 15L4 16L3 17L5 19L3 21L4.5 22.5L3 24L7 28L10.5 28L12 26.5L12 0Z" transform="translate(8 26)"/>
<path d="M2 1C2 0.5 1.5 0 1 0C0.5 0 0 0.5 0 1L0 25L2 25Z" fill="#C0BFBC" transform="translate(16 29)"/>
<path d="M0 14C0 6 6 0 14 0C22 0 28 6 28 14C28 22 22 28 14 28C6 28 0 22 0 14ZM17 9C17 7.4 15.6 6 14 6C12.4 6 11 7.4 11 9C11 10.6 12.4 12 14 12C15.6 12 17 10.6 17 9Z"/>
</g></g></g></svg>
