<?xml version="1.0" encoding="utf-8"?>
<svg width="128" height="128" viewBox="0 0 128 128" xmlns="http://www.w3.org/2000/svg">
<defs>
<linearGradient id="red" x1="0" y1="0" x2="0" y2="1">
<stop offset="0" stop-color="#F5445C"/>
<stop offset="1" stop-color="#DC0C28"/>
</linearGradient>
</defs>
<rect width="104" height="104" rx="8" x="12" y="12" fill="url(#red)"/>
<g fill="#FFFFFF">
<path d="M65.856 20.524C63.83 17.44 61.173 14.82 58 12.82C51 8.4 42.82 6.14 34.5 6.28C31.6 6.28 28.7 6.54 25.82 7C24 5.323 22 3.835 19.86 2.62C17 1.14 13.855 0.2645 10.635 0C7.415 -0.162 4.186 0.29 1.15 1.38C0.9 1.482 0.64 1.6464 0.45 1.86C0.26 2 0.1264 2.334 0 2.6123C0 2.9 0 3.1815 0 3.46C0.1457 3.735 0.287 4 0.48 4.2C3 6.8354 7.2 12 6.17 16.74C2.316 20.484 0 25.6 0 31C0 36.34 2.3 41.48 6.17 45.255C7.2 50 3 55.16 0.5 57.8C0.3 58 0.155 58.2624 0 58.54C0 58.82 0 59.1 0 59.4C0.135 59.665 0.27 60 0.46 60.14C0.65 60.35 0.9 60.52 1.1616 60.615C4.2 61.7 7.426 62.1615 10.646 62C13.866 61.74 17 60.8625 19.87 59.38C22 58.17 24 56.68 25.836 55C28.7 55.4645 31.6 55.72 34.5 55.72C42.84 55.862 51 53.6 58 49.2C61.2 47.1823 63.836 44.556 65.86 41.4734C67.9 38.36 69 34.72 69 31C69 27.272 67.9 23.63 65.86 20.5165C65.86 20.5165 65.856 20.524 65.856 20.524ZM34 49.856C30.3645 49.87 26.75 49.393 23.24 48.45C23.24 48.45 20.82 50.82 20.822 50.8215C19.48 52.13 18 53.26 16.356 54.1873C14.384 55.2 12.24 55.8 10 56C10.16 55.8 10.266 55.5623 10.4 55.345C11.516 53.5436 12.276 51.5276 12.6 49.42C13 47.3 12.86 45.16 12.344 43C10.476 41.76 8.9333 40 7.834 38C6.7343 36 6.1 33.73 6 31.4265C6 21.25 18.534 13 34 13C49.456 13 62 21.25 62 31.4265C62 41.6 49.46 49.856 34 49.856C34 49.856 34 49.856 34 49.856Z" transform="translate(30 33)"/>
<circle r="4" transform="translate(51 64)"/>
<circle r="4" transform="translate(64 64)"/>
<circle r="4" transform="translate(77 64)"/>
</g></svg>
