<?xml version="1.0" encoding="utf-8"?>
<svg width="128" height="128" viewBox="0 0 128 128" xmlns="http://www.w3.org/2000/svg">
<defs>
<filter id="shadow" x="-50%" y="-50%" width="200%" height="200%">
<feDropShadow dx="0" dy="2" flood-color="#77767B" stdDeviation="0"/>
</filter>
<linearGradient id="gray" x1="0" y1="0" x2="0" y2="1">
<stop offset="0.5" stop-color="#77767B"/>
<stop offset="1" stop-color="#999894"/>
</linearGradient>
<linearGradient id="white" x1="0" y1="0" x2="0" y2="1">
<stop offset="0" stop-color="#D6D4D0"/>
<stop offset="1" stop-color="#F6F5F4"/>
</linearGradient>
<radialGradient id="blue" cx="40%" cy="40%" r="40%">
<stop offset="0" stop-color="#646FE8"/>
<stop offset="1" stop-color="#0000FD"/>
</radialGradient>
<radialGradient id="green" cx="40%" cy="40%" r="40%">
<stop offset="0" stop-color="#C0FD88"/>
<stop offset="1" stop-color="#7FCD39"/>
</radialGradient>
<clipPath id="half">
<path d="M0 0L128 128L0 128Z"/>
</clipPath>
</defs>
<g clip-path="url(#half)">
<g fill="#F6F5F4" stroke="#F6F5F4" stroke-width="8" stroke-linejoin="round" filter="url(#shadow)"><g>
<path d="M2 0L8 0L10 16L0 16Z" transform="translate(59 8)"/>
<path d="M0 0L10 0L8 16L2 16Z" transform="translate(59 104)"/>
<path d="M0 8L0 2L16 0L16 10Z" transform="translate(8 59)"/>
<path d="M0 0L16 2L16 8L0 10Z" transform="translate(104 59)"/>
</g><g transform="rotate(30 64 64)">
<path d="M2 0L8 0L10 16L0 16Z" transform="translate(59 8)"/>
<path d="M0 0L10 0L8 16L2 16Z" transform="translate(59 104)"/>
<path d="M0 8L0 2L16 0L16 10Z" transform="translate(8 59)"/>
<path d="M0 0L16 2L16 8L0 10Z" transform="translate(104 59)"/>
</g><g transform="rotate(60 64 64)">
<path d="M2 0L8 0L10 16L0 16Z" transform="translate(59 8)"/>
<path d="M0 0L10 0L8 16L2 16Z" transform="translate(59 104)"/>
<path d="M0 8L0 2L16 0L16 10Z" transform="translate(8 59)"/>
<path d="M0 0L16 2L16 8L0 10Z" transform="translate(104 59)"/>
</g></g><g fill="none">
<circle r="36" cx="64" cy="64" stroke-width="24" stroke="url(#gray)"/>
<circle r="38" cx="64" cy="64" stroke-width="20" stroke="#F6F5F4" filter="url(#shadow)"/>
<circle r="32" cx="64" cy="64" stroke-width="8" stroke="url(#white)"/>
</g></g>
<g fill="none" stroke="#000000" stroke-width="2">
<path d="M24 0L31 28L16 40L0 14L31 28" transform="translate(25.5 10.5)"/>
<path d="M44 14L24 35L0 28L20 0L24 35" transform="translate(56.5 10.5)"/>
<path d="M34 31L7 23L0 0L34 3L7 23" transform="translate(80.5 45.5)"/>
<path d="M25 32L0 15L12 0L25 32" transform="translate(75.5 68.5)"/>
</g><g transform="translate(6.5 6.5)">
<g fill="url(#blue)">
<circle r="6.5" transform="translate(19 18)"/>
<circle r="6.5" transform="translate(35 44)"/>
<circle r="6.5" transform="translate(43 4)"/>
<circle r="6.5" transform="translate(70 4)"/>
<circle r="6.5" transform="translate(74 39)"/>
<circle r="6.5" transform="translate(81 62)"/>
<circle r="6.5" transform="translate(108 42)"/>
<circle r="6.5" transform="translate(94 94)"/>
</g><g fill="url(#green)">
<circle r="6.5" transform="translate(50 32)"/>
<circle r="6.5" transform="translate(94 18)"/>
<circle r="6.5" transform="translate(69 77)"/>
<circle r="6.5" transform="translate(108 70)"/>
</g></g></svg>
