<?xml version="1.0" encoding="utf-8"?>
<svg width="128px" height="128px" viewBox="0 0 128 128" version="1.1" xmlns:xlink="http://www.w3.org/1999/xlink" xmlns="http://www.w3.org/2000/svg">
  <defs>
    <linearGradient gradientUnits="objectBoundingBox" x1="0.08527132" y1="0.05468749" x2="0.48837212" y2="0.96093744" id="gradient_1">
      <stop offset="0%" stop-color="#50AEFF" />
      <stop offset="100%" stop-color="#004B88" />
    </linearGradient>
    <linearGradient gradientUnits="objectBoundingBox" x1="0.47761193" y1="0.0546875" x2="0.8208955" y2="0.9296875" id="gradient_2">
      <stop offset="0%" stop-color="#B9E5FF" stop-opacity="0.41960785" />
      <stop offset="100%" stop-color="#FFFFFF" />
    </linearGradient>
    <linearGradient gradientUnits="objectBoundingBox" x1="0.3890931" y1="0.36111242" x2="0.6040972" y2="0.43523756" id="gradient_3">
      <stop offset="0%" stop-color="#FFF2BC" />
      <stop offset="82.02247%" stop-color="#83560B" />
    </linearGradient>
    <linearGradient gradientUnits="objectBoundingBox" x1="0.53061223" y1="0.2578125" x2="-0.7618457" y2="1.5782652" id="gradient_4">
      <stop offset="0%" stop-color="#FFF9DB" stop-opacity="0.73333335" />
      <stop offset="100%" stop-color="#2C2C2C" />
    </linearGradient>
    <path d="M128 0L128 0L128 128L0 128L0 0L128 0Z" id="path_1" />
    <clipPath id="clip_1">
      <use xlink:href="#path_1" clip-rule="evenodd" fill-rule="evenodd" />
    </clipPath>
  </defs>
  <g id="Scribus_logo">
    <path d="M128 0L128 0L128 128L0 128L0 0L128 0Z" id="Scribus_logo" fill="none" stroke="none" />
    <g id="scribus" transform="translate(4 4)" clip-path="url(#clip_1)">
      <path d="M117.962 60C117.962 26.8629 91.5556 0 58.9812 0C26.4068 0 0 26.8629 0 60C0 93.1371 26.4068 120 58.9812 120C91.5556 120 117.962 93.1371 117.962 60L117.962 60Z" id="circle" fill="url(#gradient_1)" fill-rule="evenodd" stroke="none" />
      <path d="M51.3622 107.638C51.3622 107.638 34.8443 81.4958 47.6649 55.0819C57.8542 33.8491 61.0166 14.2998 52.729 0.468216C38.0106 2.30291 25.1978 9.82495 18.8495 16.2484C9.23343 25.6195 4.63218 35.4439 2.54865 42.3116C5.32669 76.1764 51.5937 108.349 51.3622 107.638L51.3622 107.638Z" id="tint" fill="url(#gradient_2)" fill-rule="evenodd" stroke="none" />
      <path d="M55.2316 108.934C54.7929 108.524 76.8214 75.8628 103.749 71.4278C103.831 36.2205 120.02 23.2693 121.044 21.065C118.881 9.36869 112.528 4.9511 106.795 4.02058C97.0769 2.78208 98.9008 7.14203 97.7068 8.30289C91.131 23.1527 77.3593 44.116 75.4155 47.8644C69.9461 55.4433 58.3636 92.8482 53.7308 108.86L55.2316 108.934L55.2316 108.934Z" id="hrot" fill="url(#gradient_3)" fill-rule="evenodd" stroke="none" />
      <path d="M52.7085 109.59L55.5855 109.59C55.5855 109.59 56.496 108.185 56.7388 107.812C57.4523 106.717 58.3597 105.445 59.461 103.996C62.5618 99.9175 66.0006 95.9997 69.7775 92.243C81.3686 80.7136 92.7347 74.0315 103.875 72.1967L104.527 72.0895L104.528 71.4297C104.575 51.5502 109.842 35.4876 120.331 23.2419C121.149 22.2873 121.622 21.6711 121.751 21.3935L121.856 21.1679L121.811 20.9232C119.871 10.4384 114.907 4.54774 106.92 3.25134L106.906 3.24921L106.893 3.24753C101.447 2.55338 98.3068 3.77359 97.4738 6.90815C97.3462 7.38849 97.2427 7.66716 97.1635 7.74415L97.0553 7.84936L96.9942 7.98735C93.8165 15.1636 87.6776 26.1844 78.578 41.0497C76.4212 44.5729 75.1456 46.7077 74.7508 47.4541C70.204 53.8041 62.9478 74.2006 52.9823 108.644L52.7085 109.59L52.7085 109.59ZM98.3721 8.72517C95.153 15.9665 88.9982 27.0126 79.9073 41.8634C77.7178 45.4402 76.4511 47.5601 76.1073 48.2232L76.0809 48.274L76.0474 48.3205C72.1842 53.6738 66.2378 69.7073 58.2084 96.4208C59.7851 92.198 61.7293 87.1302 64.0407 81.2174C64.3198 80.5033 64.5933 79.8057 64.8608 79.1247C67.2255 72.9624 69.191 67.9282 70.7572 64.0221C71.63 61.8452 72.3133 60.1859 72.8069 59.0439C73.0705 58.4343 73.2784 57.9762 73.4308 57.6697C73.5172 57.4958 73.5898 57.3631 73.6485 57.2714C73.6982 57.1939 73.7482 57.1302 73.7987 57.0802C73.8362 57.0431 73.8737 57.0104 73.9116 56.9821C73.9612 55.9974 74.4722 54.5481 75.346 53.0932C76.7039 50.8321 78.4241 49.4135 79.1883 49.9247C79.9523 50.4359 79.4709 52.6833 78.1129 54.9444C77.2997 56.2984 76.3566 57.3503 75.5667 57.8666L75.2704 58.2637C74.1773 59.729 71.1238 66.8408 66.1098 79.5991L65.8537 80.2669C61.3214 92.0898 58.1548 100.543 56.3536 105.626C56.8655 104.874 57.4876 104.017 58.2203 103.053C61.3644 98.917 64.8505 94.9453 68.6784 91.1379C80.2823 79.5961 91.7137 72.8071 102.973 70.771C103.134 50.81 108.526 34.629 119.147 22.228C119.689 21.5951 120.048 21.1575 120.223 20.9151C118.382 11.3381 113.869 5.96377 106.683 4.79195C103.583 4.39803 101.444 4.55089 100.265 5.25054C99.6809 5.59737 99.2526 6.28335 98.9802 7.30847C98.808 7.95618 98.6053 8.42841 98.3721 8.72517L98.3721 8.72517Z" id="contour" fill="#000000" fill-rule="evenodd" stroke="none" />
      <path d="M84.0684 72.5832C89.9096 67.991 92.484 64.2536 98.2673 63.1146C97.2682 48.7556 108.305 31.4163 117.276 15.203L115.66 12.2878C111.949 17.9084 89.8951 58.2932 84.0684 72.5832L84.0684 72.5832Z" id="shine" fill="url(#gradient_4)" fill-rule="evenodd" stroke="none" />
    </g>
  </g>
</svg>