<?xml version="1.0" encoding="utf-8"?>
<svg width="128" height="128" viewBox="0 0 128 128" xmlns="http://www.w3.org/2000/svg">
<defs>
<clipPath id="cornerside">
<rect width="108" height="120" rx="8" x="20" y="8"/>
</clipPath>
<linearGradient id="corners">
<stop offset="0" stop-color="#BABAB6"/>
<stop offset="4%" stop-color="#EEEEEC"/>
<stop offset="8%" stop-color="#BEBEB8"/>
<stop offset="92%" stop-color="#BEBEB8"/>
<stop offset="96%" stop-color="#F6F5F4"/>
<stop offset="1" stop-color="#BABAB6"/>
</linearGradient>
</defs>
<g clip-path="url(#cornerside)">
<rect width="88" height="40" rx="8" x="20" y="80" fill="url(#corners)"/>
<path d="M42 0C42 4 38.6 7.35 34.5 7.35L0 7.35L34 8.35L34.5 8.35C37.6 8.35 40.5 6.65 42 4C42 3.75 42 3.55 42 3.35Z" fill="#000000" opacity="30%" transform="translate(66 108.65)"/>
<rect width="88" height="104" rx="8" x="20" y="8" fill="#F6F5F4"/>
<g fill="#DEDDDA">
<path d="M0 0L0 12L60 12L60 8L72 8L72 0Z" transform="translate(28 96)"/>
<path d="M0 0L0 16L20 16L20 12L72 12L72 0Z" transform="translate(28 76)"/>
<path d="M0 0L32 0L32 20L20 20L20 24L0 24Z" transform="translate(68 48)"/>
<rect width="40" height="16" x="60" y="28"/>
<rect width="40" height="4" x="60" y="20" fill="#77767B"/>
</g><path fill="#0C0C0C" transform="translate(-4 8)" d="M34.444 53.45C34.7373 53.72 35.124 54 35.3 54.12C35.48 54.215 35.73 54.3 35.85 54.3C35.87 54.3 36 54.26 36.16 54.187L38 54L38.53 54.33L38.48 54.8L36.5 55.5L30.6 55.375L18.7 54.72L18.826 65.47C17.546 66.53 16.6655 67.256 16.6 67.3C16.445 67.424 16.4 67.48 16.47 67.48C16.536 67.48 17.2 67.3 18 67C18.2 67 18.5 66.9 18.84 66.825L18.85 67.5C18.537 67.64 18.38 67.74 18.33 67.82C18.24 68 18.2437 68 18.46 68C18.9 68.1 18.8 68.23 18.18 68.4C17.525 68.57 17.18 68.825 17.423 69C17.6 69 17.56 69.1 17.3 69.1435C17.2 69.16 17 69.25 17 69.34C16.8 69.5 16.8 69.5 17 69.753L17.324 70L16.9 70.1C16.475 70.2 16.35 70.26 16.2 70.56C16.1265 70.68 16.146 70.76 16.2676 70.9C16.4 71 16.4 71 16.26 71.286C15.87 71.85 15.835 72 16 72.136C16.1856 72.38 16.63 72.4455 17.56 72.37C18 72.3345 18.36 72.34 18.34 72.38C18.324 72.42 18.123 72.57 17.9 72.72C17.52 73 17.48 73 17.4 73.3C17.34 73.5 17.33 73.66 17.37 73.7C17.4 73.736 17.73 73.7 18.1 73.6C18.43 73.5 18.74 73.45 18.764 73.476C18.8 73.5 18.7744 73.6 18.73 73.664C18.636 73.835 18.72 73.926 18.935 74L19 78.4523C18.846 78.72 18.8 78.93 19 79C20.1465 79 20.663 78.78 21 78.65C21.36 78.5 21.4575 78.4574 22 79C21.2095 82.2 26.1 82.4 28.555 81.58C28.86 82 29.2 82.2975 32 83L36.53 80C38.5 78 39 77.5 41 75.6476C43.8628 72.9 44 72 47.4 70C48.3 69.653 51 69.46 51.7832 69.4L57 72L59 75L63 77L66 79L68.863 79.66L68.86 79.7244L70.28 80.1L70.4624 81.2L72.1734 81.4L72.28 82.457L73.8 82.5636L73.7578 83.424L75.5 83.82L75.9546 84.91L77 84.754L77.92 86.1L79.326 86L80 87.2L82.1 87.34L82.33 88.4L84.4634 87.9L86.173 89.2L87.34 88.58L87.4 89.56L89 90L90.26 89.5775L91.44 90.4537L92.9375 89.7878L94.9 90.27L95.83 89.845L96.75 90.78L98.75 90.6757L100 89.83L101 89.92L103 89.6L103.846 88.736L105.85 89L107.953 87.6237L109.119 88L113.7 87L112.504 85.68L119.289 83L118.425 82.26L117.429 82.485L124.483 76.56L128.285 70.755L131 66L131.736 63.84L131.86 62.757L131 63.4365L128.4 68.166L128.637 67L127.662 67.63L124.338 72L119.93 75L114.951 75.1756L109.35 73.7L103.55 71.0606L100.19 69.23L98.6 68.9L96.25 67.34L88.66 61.2125L83.65 58.377L83.18 58L83.2827 56.8623L82.186 55.9675C82.5 55.7 83.1 55.2144 83.7515 54.663L85.54 53.17L86.4028 52.6653C86.9 52.4 87.66 51.933 88.14 51.654L89.0117 51.147L90.4766 50.6248C91.9 50.1136 92 50.1 92.66 49.94L93.3823 49.7785L94 49.907C94.647 50.0549 95.5254 50.1527 95.9785 50.1307C96.142 50.122 96.2837 50.1236 96.2935 50.1346C96.3028 50.1452 96.3677 50.2777 96.4375 50.43L96.564 50.7L96.7 50.44C96.8 50.196 96.8218 50.1263 96.9248 49.5925L97 49L96.938 48.1278L96.84 47.2449L96.3145 45.654L95.8257 45.0238C95.3575 44.4203 95.3296 44.3896 95.1573 44.3L94.4 43.854L93.85 43.5243L92 43.36L91.5 43C91.1 42.853 90.83 42.7412 89.9434 42.4L88.9 42L87.6 41.867L86.35 41.7337L85.845 41.87L85.342 42L83.5 43L82.1 43.3217L79 44L76.28 44L74 43L69.825 40C69.8 39.9435 69.32 39.46 68.75 39C68.18 38.54 67.4 37.5434 67 37C65.442 34.941 63.3 30.22 61.2666 24.32C60.637 22.5 59.85 20.32 59.5176 19.4777C58.1924 16.12 57 12.43 56.4 10.1132C55.924 8.13 54.8926 4.4726 54.4 3L53.5 0L0 0L2.4 2.9C2.93 3.34626 3.324 3.486 5.1 3.84L7.13 4.26L9.3 3.9C11.3535 3.57001 11.5571 3.56281 12.5107 3.8C13.1 3.923 13.5293 4.1 13.53 4.13434C13.53 4.2 12.557 4.854 11.37 5.6C9.8 6.6 9.12 7.14 8.9 7.557C8.5537 8.127 8.55 8.14 8.865 8.8C9.2842 9.7 10.2656 10.6 11.6 11.3C12.8765 11.9641 13.12 12.42 12.8677 13.66C12.7134 14.43 12.8647 15.53 13.1753 15.9C13.283 16 13.77 16.4 14.26 16.723C15 17.2 15.154 17.4113 15.1577 17.756C15.177 19.2846 16.7 20.836 18.4414 21.1C19.1 21.2 19.28 21.6956 18.8745 22.33C18.35 23.156 18.7275 25.28 19.552 26.127C19.7676 26.35 20 26.7288 20 26.9722C20.123 27.2157 20.426 27.63 20.7324 27.8924C21.2134 28.3 21.3 28.465 21.2778 29C21.27 29.4439 21.394 30.1 21.55 30.48C21.7 30.9 21.9 31.5352 22 31.94C22.1475 32.80 22.62 34.0171 22.92 34.3683C23 34.5 23.15 34.7374 23.15 34.879C23.1563 35.33 23.7852 36.5 24.3115 37.1C24.6265 37.4 25 37.6296 25.382 37.6814C25.7 37.7276 26 37.832 25.9439 37.9128C26 38 26.1 38.274 26.3 38.5356C26.5527 38.86 26.8 39 27.1 39C27.5269 39.0003 27.57 39 27.834 40.1719C28 40.8165 28.25 41.5 28.415 41.6643C28.58 41.84 28.772 42.237 28.84 42.5454C28.9106 42.8537 29 43.217 29.1 43.3528C29.1763 43.4885 29.28 43.8 29.337 44C29.45 44.5554 30.648 45.3761 31.5029 45.53C32 45.62 32.022 45.67 32 46.2126C32 46.75 32 46.8154 32.5405 47C33.1441 47.1774 33.1611 47.234 33 48.3767C32.8662 48.9 32.9 49 33.11 48.9829C33.2647 49 33.3774 49.11 33.38 49.3C33.382 49.4654 33.6148 50 33.9 50.4C34.3828 51.17 34.4 51.234 34.155 51.6C33.733 52.2 33.84 52.9 34.4443 53.4526L34.44 53.4526Z"/>
</g></svg>
