<?xml version="1.0" encoding="utf-8"?>
<svg width="128" height="128" viewBox="0 0 128 128" xmlns="http://www.w3.org/2000/svg">
<linearGradient id="corners">
<stop offset="2%" stop-color="#000000" stop-opacity="30%"/>
<stop offset="6%" stop-color="#FFFFFF" stop-opacity="10%"/>
<stop offset="12%" stop-color="#000000" stop-opacity="20%"/>
<stop offset="88%" stop-color="#000000" stop-opacity="20%"/>
<stop offset="94%" stop-color="#FFFFFF" stop-opacity="10%"/>
<stop offset="98%" stop-color="#000000" stop-opacity="30%"/>
</linearGradient>
<linearGradient id="orange">
<stop offset="80%" stop-color="#FF8400"/>
<stop offset="90%" stop-color="#FFB566"/>
<stop offset="1" stop-color="#E57700"/>
</linearGradient>
<linearGradient id="blue">
<stop offset="0" stop-color="#00A0E5"/>
<stop offset="10%" stop-color="#66D1FF"/>
<stop offset="20%" stop-color="#00B2FF"/>
</linearGradient>
<rect width="112" height="78" rx="8" x="8" y="40" fill="#000000"/>
<rect width="112" height="76" rx="8" x="8" y="40" fill="#0070A0"/>
<path d="M0 0L0 64C0 68.4 3.6 72 8 72L44 72C50.6 72 56 73.8 56 76L56 0Z" fill="#FF8400" transform="translate(8 40)"/>
<path d="M0 0L0 60C0 64.4 3.6 68 8 68L44 68C50.6 68 56 71.6 56 76L56 0Z" fill="#00B2FF" transform="translate(8 40)"/>
<path d="M0 0L56 0L56 60C56 64.4 52.4 68 48 68L12 68C5.4 68 0 71.6 0 76Z" fill="#FF8400" transform="translate(64 40)"/>
<rect width="112" height="76" rx="8" x="8" y="40" fill="url(#corners)"/>
<path d="M8 0C3.6 0 0 3.6 0 8L0 68C0 72.4 3.6 76 8 76L44 76C50.6 76 56 81.4 56 88L56 12C56 5.4 50.6 0 44 0Z" fill="url(#orange)" transform="translate(8 28)"/>
<path d="M48 0C52.4 0 56 3.6 56 8L56 68C56 72.4 52.4 76 48 76L12 76C5.4 76 0 81.4 0 88L0 12C0 5.4 5.4 0 12 0Z" fill="url(#blue)" transform="translate(64 28)"/>
</svg>
