<?xml version="1.0" encoding="utf-8"?>
<svg width="128" height="128" viewBox="0 0 128 128" xmlns="http://www.w3.org/2000/svg">
<defs>
<linearGradient id="feather" x1="0" y1="0" x2="1" y2="1">
<stop offset="32%" stop-color="#FFE400"/>
<stop offset="60%" stop-color="#FC7800"/>
</linearGradient>
<clipPath id="circle">
<circle r="60" cx="64" cy="64"/>
</clipPath>
</defs>
<g clip-path="url(#circle)">
<circle r="60" cx="64" cy="64" fill="#1A5FB4"/>
<circle r="60" cx="64" cy="60" fill="#1C71D8"/>
<path d="M0 0L0 108L20 108L20 72C20 68 16 64 12 64C8 64 4 60 4 56C4 52 8 48 12 48C16 48 20 44 20 40C20 36 24 32 28 32C32 32 36 28 36 24L36 12C36 10 38 8 40 8C42 8 44 6 44 4C44 2 42 0 40 0ZM108 10C108 7 105 4 102 4L86 4C83 4 80 7 80 10C80 13 83 16 86 16L102 16C105 16 108 13 108 10ZM66 12C69 12 72 14.653 72 17.86L72 26C72 29 69 32 66 32C63 32 60 29 60 26L60 18C60 15 63 12 66 12ZM72 36C68 36 64 40 64 44L64 60C64 64 68 68 72 68C74 68 76 70 76 72L76 84C76 88 80 92 84 92C88 92 92 88 92 84L92 68C92 62 98 56 104 56L116 56C120 56 124 52 124 48L124 28C124 24 120 20 116 20L88 20C84 20 80 24 80 28C80 32 76 36 72 36Z" fill="#26A269" transform="translate(4 8)"/>
</g><g transform="translate(0 15)">
<path d="M0 94L0 61.5L24 37L29 55L31 33C31 33 59.5 0 77 0C94.5 0 103 11 103 11L66 50.5L53 50.5L64 55L51 68L31 68L46 70L24 94Z" fill="url(#feather)" transform="translate(18 0)"/>
<path d="M93 0L4 91L0 91Z" fill="#9A9996" transform="translate(0 14)"/>
<path d="M89 0L5 91L0 91Z" fill="#5E5C64" transform="translate(4 14)"/>
</g></svg>
