<?xml version="1.0" encoding="utf-8"?>
<svg width="128" height="128" viewBox="0 0 128 128" fill="none" xmlns="http://www.w3.org/2000/svg">
<defs>
<linearGradient id="gradient" gradientUnits="userSpaceOnUse" x1="60" y1="0" x2="60" y2="120">
<stop offset="0" stop-color="#3584E4"/>
<stop offset="1" stop-color="#1A5FB4"/>
</linearGradient>
</defs>
<circle cx="64" cy="64" r="60" fill="url(#gradient)"/>
<path id="gear" d="M48.45 0L53.55 0C54.4074 0 55.1574 0.283698 55.8002 0.851094C56.443 1.4185 56.8174 2.12755 56.9236 2.97828L57.8926 10.7289C60.4262 11.1306 62.8652 11.761 65.2095 12.6203L69.8812 6.45074C70.3987 5.76728 71.0777 5.3406 71.918 5.17069C72.7583 5 73.5496 5.13018 74.292 5.55888L78.708 8.10888C79.4504 8.53755 79.958 9.1582 80.231 9.97083C80.5038 10.7835 80.4737 11.5847 80.1405 12.3745L77.0908 19.6051C78.0318 20.4028 78.9517 21.2509 79.8504 22.1496C80.7487 23.0478 81.5967 23.9676 82.3944 24.9088L89.6254 21.859C90.4152 21.5258 91.2165 21.4957 92.0291 21.7686C92.8417 22.0415 93.4623 22.5492 93.891 23.2915L96.441 27.7075C96.8698 28.45 96.9992 29.2415 96.8292 30.0819C96.6592 30.9223 96.2323 31.6012 95.5486 32.1187L89.3791 36.7886C90.2385 39.1331 90.8691 41.5727 91.271 44.1074L99.0217 45.0763C99.8724 45.1826 100.582 45.5571 101.149 46.1999C101.716 46.8426 102 47.5927 102 48.45L102 53.55C102 54.4074 101.716 55.1574 101.149 55.8001C100.581 56.4429 99.8724 56.8174 99.0217 56.9238L91.271 57.8926C90.8694 60.4263 90.239 62.8652 89.3797 65.2095L95.5493 69.8812C96.2327 70.3987 96.6593 71.0776 96.8292 71.9179C96.9991 72.7582 96.8697 73.5495 96.441 74.2919L93.891 78.708C93.4623 79.4503 92.8417 79.9579 92.0291 80.2309C91.2165 80.5038 90.4152 80.4736 89.6254 80.1405L82.3948 77.0909C81.5972 78.0318 80.7491 78.9517 79.8504 79.8504C78.9514 80.7494 78.0317 81.5975 77.0912 82.3946L80.1409 89.6254C80.4741 90.4153 80.5042 91.2165 80.2313 92.0292C79.9584 92.8418 79.4508 93.4624 78.7084 93.8911L74.2924 96.4411C73.55 96.8698 72.7587 96.9992 71.9184 96.8293C71.0781 96.6594 70.3991 96.2327 69.8816 95.5492L65.2099 89.3796C62.8656 90.2389 60.4265 90.8694 57.8926 91.2711L56.9236 99.0217C56.8174 99.8725 56.4429 100.582 55.8002 101.149C55.1574 101.716 54.4074 102 53.55 102L48.45 102C47.5926 102 46.8426 101.716 46.2 101.149C45.5571 100.582 45.1826 99.8725 45.0764 99.0217L44.1074 91.2711C41.5736 90.8694 39.1345 90.2389 36.7901 89.3796L32.1184 95.549C31.6 96.2325 30.9219 96.6592 30.0816 96.8291C29.2413 96.999 28.45 96.8696 27.7076 96.4409L23.2916 93.8909C22.5492 93.4623 22.0416 92.8416 21.7687 92.03C21.4958 91.2164 21.5259 90.4151 21.8591 89.6253L24.9088 82.3945C23.968 81.5972 23.0483 80.7492 22.1496 79.8504C21.2509 78.9517 20.4028 78.0318 19.6052 77.0909L12.3746 80.1405C11.5848 80.4736 10.7835 80.5038 9.97092 80.231C9.15831 79.958 8.53768 79.45 8.10903 78.708L5.55903 74.292C5.13033 73.5495 5 72.7582 5.1708 71.9179C5.34068 71.0776 5.76733 70.3987 6.45074 69.8812L12.6203 65.21C11.761 62.8653 11.1306 60.4263 10.729 57.8926L2.97832 56.9238C2.12758 56.8174 1.41851 56.4429 0.851105 55.8C0.283702 55.1574 0 54.4074 0 53.55L0 48.45C0 47.5927 0.283702 46.8426 0.851106 46.1999C1.41851 45.5571 2.12758 45.1826 2.97832 45.0763L10.729 44.1074C11.1309 41.5727 11.7615 39.1331 12.621 36.7886L6.45137 32.1187C5.7677 31.6012 5.34085 30.9223 5.17085 30.0819C5 29.2415 5.13024 28.4501 5.55903 27.7075L8.10903 23.2915C8.53768 22.5492 9.15831 22.0415 9.97092 21.7686C10.7835 21.4957 11.5848 21.5258 12.3746 21.86L19.6054 24.9088C20.4024 23.9684 21.2505 23.0487 22.1496 22.1496C23.0482 21.251 23.968 20.4029 24.9092 19.6052L21.8595 12.3747C21.5263 11.5849 21.4962 10.7836 21.7691 9.97101C22.042 9.15838 22.5496 8.53773 23.292 8.10906L27.708 5.55906C28.4504 5.13036 29.2418 5 30.0821 5.17087C30.9224 5.34078 31.6013 5.76746 32.1188 6.451L36.7905 12.6204C39.1348 11.7611 41.5738 11.1306 44.1074 10.729L45.0764 2.97828C45.1826 2.12755 45.5571 1.41849 46.1999 0.851094C46.8426 0.2837 47.5926 0 48.45 0L48.45 0ZM21 51C21 34.4315 34.4315 21 51 21C67.5685 21 81 34.4315 81 51C81 67.5685 67.5685 81 51 81C34.4315 81 21 67.5685 21 51L21 51Z" fill="#FFFFFF" fill-rule="evenodd" fill-opacity="0.3" transform="translate(13 13)"/>
<g id="A" transform="translate(34 29)">
<path id="A" d="M48.6 31.5L36 0L24 0L11.4 31.5L23.4 31.5L30 15L36.6 31.5L48.6 31.5ZM55.4 48.5L43.4 48.5L48 60L60 60L55.4 48.5ZM16.6 48.5L4.6 48.5L0 60L12 60L16.6 48.5Z" fill="#FFFFFF"/>
<g transform="translate(5 40)" stroke-linecap="round">
<path d="M0 0L50 0" stroke-width="12" stroke="#FFFFFF"/>
<path d="M0 0L50 0" stroke-width="6" stroke="#9ED2EE"/>
</g></g></svg>
