<?xml version="1.0" encoding="utf-8"?>
<svg width="128" height="128" viewBox="0 0 128 128" xmlns="http://www.w3.org/2000/svg">
<defs>
<radialGradient id="dark" gradientUnits="userSpaceOnUse" cx="0" cy="0" r="1" gradientTransform="matrix(104 0 0 101.75 60 -1658.62)">
<stop offset="0" stop-color="#5D5D57"/>
<stop offset="1" stop-color="#2D2C2B"/>
</radialGradient>
<radialGradient id="silver" gradientUnits="userSpaceOnUse" cx="0" cy="0" r="1" gradientTransform="matrix(-60 -60 60 -60 60 60)">
<stop offset="0" stop-color="#EBEBEB"/>
<stop offset="0.4" stop-color="#A39F9B"/>
<stop offset="0.5" stop-color="#A39F9B"/>
<stop offset="0.5" stop-color="#EBEBEB"/>
<stop offset="0.8" stop-color="#A39F9B"/>
<stop offset="1" stop-color="#A39F9B"/>
</radialGradient>
</defs>
<circle cx="64" cy="64" r="60" fill="url(#dark)"/>
<path id="arrows" d="M60 0C46.823 0 34 4.4 23.57 12.42L23.57 21.43L33 21.43C40.9 15.9 50.33 12.88 60 12.86C86 12.86 107.143 34 107.143 60C107.135 71 103.315 81.56 96.34 90L105 90L105 99.57C114.64 88.64 120 74.575 120 60C120 26.863 93.137 0 60 0ZM15 20.43C5.36 31.36 0 45.425 0 60C0 93.137 26.863 120 60 120C73.18 120 86 115.6 96.43 107.6L96.43 98.57L87 98.57C79 104.13 69.67 107.123 60 107.143C34 107.143 12.86 86 12.86 60C12.865 49 16.685 38.44 23.66 30L15 30L15 20.43L15 20.43Z" fill="url(#silver)" transform="translate(4 4)"/>
<g id="A" transform="translate(34 29)">
<path id="A" d="M48.6 31.5L36 0L24 0L11.4 31.5L23.4 31.5L30 15L36.6 31.5L48.6 31.5ZM55.4 48.5L43.4 48.5L48 60L60 60L55.4 48.5ZM16.6 48.5L4.6 48.5L0 60L12 60L16.6 48.5Z" fill="#EBEBEB"/>
<g transform="translate(5 40)" stroke-linecap="round">
<path d="M0 0L50 0" stroke-width="12" stroke="#FFFFFF"/>
<path d="M0 0L50 0" stroke-width="6" stroke="#ACACAC"/>
<path id="progress" d="M0 0L35 0" stroke-width="6" stroke="#E95420"/>
</g></g></svg>
