<?xml version="1.0" encoding="utf-8"?>
<svg width="128" height="128" viewBox="0 0 128 128" xmlns="http://www.w3.org/2000/svg">
<defs>
<linearGradient id="blue" x1="0" y1="0" x2="0" y2="100%">
<stop offset="0" stop-color="#3584E4"/>
<stop offset="1" stop-color="#1A5FB4"/>
</linearGradient>
</defs>
<circle cx="64" cy="64" r="60" fill="url(#blue)"/>
<path id="gear" d="M48.45 0L53.55 0C54.4 0 55.16 0.2837 55.8 0.85C56.44 1.402 56.82 2.13 57 3L58 10.73C60.4262 11.13 62.865 11.76 65.2 12.62L70 6.45C70.4 5.7673 71 5.34 72 5.17C72.76 5 73.55 5.13 74.3 5.56L78.7 8.1C79.45 8.5376 80 9.16 80.23 10C80.5 10.8 80.4737 11.6 80.14 12.3745L77 19.6C78 20.4 79 21.25 79.85 22.15C80.75 23 81.6 24 82.4 25L89.625 21.86C90.42 21.526 91.2165 21.5 92 21.77C92.84 22 93.4623 22.55 94 23.3L96.44 27.7C97 28.45 97 29.24 96.83 30C96.66 30.92 96.2323 31.6 95.55 32.12L89.38 36.8C90.24 39.1331 91 41.5727 91.27 44.1L99 45C99.8724 45.1826 100.6 45.56 101.15 46.2C101.716 46.8426 102 47.6 102 48.45L102 53.55C102 54.4 101.716 55.16 101.15 55.8C100.6 56.443 99.8724 56.82 99 56.924L91.27 58C91 60.4263 90.24 62.865 89.4 65.2L95.55 70C96.233 70.4 96.66 71 96.83 72C97 72.76 97 73.55 96.44 74.3L94 78.7C93.4623 79.45 92.842 80 92 80.23C91.2165 80.5 90.415 80.474 89.625 80.14L82.4 77C81.6 78 80.75 79 79.85 79.85C79 80.75 78 81.6 77 82.4L80.14 89.625C80.474 90.415 80.5 91.2165 80.23 92C80 92.84 79.45 93.4624 78.7 94L74.3 96.44C73.55 97 72.76 97 72 96.83C71 96.66 70.4 96.2327 70 95.55L65.2 89.4C62.8656 90.24 60.4265 91 58 91.27L56.9236 99C56.82 100 56.443 100.6 55.8 101.15C55.16 101.716 54.4 102 53.55 102L48.45 102C47.6 102 46.8426 101.716 46.2 101.15C45.56 100.4 45.1826 100 45 99L44.1 91.27C41.5736 91 39.1345 90.24 36.8 89.4L32.12 95.55C31.6 96.2325 31 96.66 30 96.83C29.24 97 28.45 97 27.7 96.44L23.3 94C22.55 93.4623 22 92.84 21.77 92C21.5 91.216 21.526 90.415 21.86 89.625L25 82.4C24 81.6 23 80.75 22.15 79.85C21.25 79 20.4 78 19.6 77L12.3746 80.14C11.6 80.4736 10.8 80.5 10 80.23C9.16 80 8.54 79.45 8.1 78.7L5.56 74.3C5.13 73.55 5 72.76 5.17 72C5.34 71 5.7673 70.4 6.45 70L12.62 65.21C11.76 62.865 11.13 60.4263 10.73 58L3 57C2.13 56.82 1.42 56.443 0.85 55.8C0.284 55.1574 0 54.4 0 53.55L0 48.45C0 47.6 0.2837 46.8426 0.85 46.2C1.42 45.56 2.1276 45.1826 3 45L10.73 44.1C11.13 41.573 11.76 39.1331 12.62 36.8L6.45 32.12C5.77 31.6 5.34 30.9223 5.17 30C5 29.24 5.13 28.45 5.56 27.7L8.1 23.29C8.54 22.55 9.16 22 10 21.77C10.8 21.5 11.6 21.526 12.375 21.86L19.6 25C20.4 24 21.25 23 22.15 22.15C23 21.25 24 20.4 25 19.6L21.86 12.375C21.5263 11.6 21.5 10.8 21.77 10C22 9.16 22.55 8.54 23.3 8.1L27.7 5.56C28.45 5.13 29.24 5 30 5.17C31 5.34 31.6 5.77 32.12 6.45L36.8 12.62C39.135 11.76 41.574 11.13 44.1 10.73L45 3C45.18 2.13 45.56 1.42 46.2 0.85C46.8426 0.284 47.6 0 48.45 0L48.45 0ZM21 51C21 34.43 34.43 21 51 21C67.57 21 81 34.43 81 51C81 67.57 67.57 81 51 81C34.43 81 21 67.57 21 51L21 51Z" fill="#FFFFFF" fill-rule="evenodd" opacity="0.3" transform="translate(13 13)"/>
<g id="A" transform="translate(34 29)">
<path id="A" d="M48.6 31.5L36 0L24 0L11.4 31.5L23.4 31.5L30 15L36.6 31.5L48.6 31.5ZM55.4 48.5L43.4 48.5L48 60L60 60L55.4 48.5ZM16.6 48.5L4.6 48.5L0 60L12 60L16.6 48.5Z" fill="#FFFFFF"/>
<g transform="translate(5 40)" stroke-linecap="round">
<path d="M0 0L50 0" stroke-width="12" stroke="#FFFFFF"/>
<path d="M0 0L50 0" stroke-width="6" stroke="#9ED2EE"/>
</g></g></svg>
