<?xml version="1.0" encoding="utf-8"?>
<svg width="128" height="128" viewBox="0 0 128 128" fill="none" xmlns="http://www.w3.org/2000/svg">
<circle cx="64" cy="64" r="60" fill="#1ED760"/>
<path id="waves" d="M79.8387 22.6693C78.5806 22.6693 77.8064 22.3548 76.7178 21.7258C59.4919 11.4435 28.6935 8.9758 8.75806 14.5403C7.8871 14.7823 6.79839 15.1694 5.6371 15.1694C2.44354 15.1694 0 12.6774 0 9.45967C0 6.16934 2.03226 4.30646 4.20967 3.67741C12.7258 1.18549 22.2581 0 32.6371 0C50.2984 0 68.8065 3.67741 82.3307 11.5645C84.2177 12.6532 85.4516 14.1532 85.4516 17.0323C85.4516 20.3226 82.7903 22.67 79.8387 22.6693L79.8387 22.6693ZM69.3629 40.0887C70.234 40.5484 71.0807 41.1048 72.3387 41.1048C74.9758 41.1048 77.0081 39 77.0322 36.3871C77.0322 34.2822 76.2581 32.7822 74.2984 31.6209C62.3468 24.5081 47.1774 20.6129 31.4758 20.6129C21.4113 20.6129 14.5403 22.0161 7.81451 23.9032C5.32257 24.6048 4.06451 26.3226 4.06451 28.9113C4.06451 31.5 6.16936 33.6048 8.75806 33.6048C9.84677 33.6048 10.4758 33.2903 11.6371 32.9758C31.6935 27.5322 54.2419 31.1371 69.3629 40.0887L69.3629 40.0887ZM63.2419 56.1048C64.1855 56.6613 64.8145 56.9758 65.8307 56.9758C67.7903 56.9758 69.5081 55.4516 69.5081 53.25C69.5081 51.0484 68.6371 50.2016 67.1613 49.2581C49.8871 38.9274 29.6371 38.5403 9.82259 42.9194C8.00806 43.3065 6.53226 44.4919 6.53226 46.9839C6.53226 48.9435 8 50.8065 10.3548 50.8065C11.0565 50.8065 12.2903 50.4193 13.2339 50.1774C30.5806 46.621 48.1452 47 63.2419 56.1048L63.2419 56.1048Z" fill="#000000" transform="translate(22.532 35.306)"/>
</svg>