<?xml version="1.0" encoding="utf-8"?>
<svg width="128" height="128" viewBox="0 0 128 128" xmlns="http://www.w3.org/2000/svg">
<defs>
<clipPath id="upper">
<rect width="104" height="20" x="12" y="12"/>
</clipPath>
<clipPath id="lower">
<rect width="104" height="84" x="12" y="32"/>
</clipPath>
<linearGradient id="gradient">
<stop offset="0" stop-color="#BABAB6"/>
<stop offset="4%" stop-color="#EEEEEC"/>
<stop offset="8%" stop-color="#BEBEB8"/>
<stop offset="92%" stop-color="#BEBEB8"/>
<stop offset="96%" stop-color="#F6F5F4"/>
<stop offset="1" stop-color="#BABAB6"/>
</linearGradient>
</defs>
<g clip-path="url(#lower)">
<rect width="104" height="104" rx="8" x="12" y="12" fill="url(#gradient)"/>
<rect width="104" height="92" rx="8" x="12" y="12" fill="#F6F5F4"/>
<g fill="#000000" opacity="30%">
<path d="M42 0C42 4 38.6 7.35 34.5 7.35L0 7.35L34 8.35L34.5 8.35C37.75 8.35 40.6 6.5 42 3.85Z" transform="translate(74 100.65)"/>
<path d="M42 0C42 4 38.6 7.35 34.5 7.35L0 7.35L34 8.35L34.5 8.35C37.75 8.35 40.6 6.5 42 3.85Z" transform="translate(74 104.65)"/>
</g><g fill="#BABAB6" transform="translate(28 48)">
<rect width="48" height="8" rx="4" y="16"/>
<rect width="72" height="8" rx="4"/>
</g></g><g clip-path="url(#upper)">
<rect width="104" height="28" rx="8" x="12" y="12" fill="#086DD7"/>
<rect width="104" height="2" x="12" y="30" fill="#1A5FB4"/>
</g></svg>
