<?xml version="1.0" encoding="utf-8"?>
<svg width="128px" height="128px" viewBox="0 0 128 128" version="1.1" xmlns:xlink="http://www.w3.org/1999/xlink" xmlns="http://www.w3.org/2000/svg">
<defs>
<linearGradient gradientUnits="objectBoundingBox" x1="0.5" y1="0" x2="0.5" y2="1" id="gradient">
<stop offset="0%" stop-color="#101D2F"/>
<stop offset="25%" stop-color="#081A41"/>
<stop offset="50%" stop-color="#0E2455"/>
<stop offset="75%" stop-color="#144B7E"/>
<stop offset="100%" stop-color="#1386B7"/>
</linearGradient>
</defs>
<circle cx="64" cy="64" r="60" fill="url(#gradient)"/>
<path d="M60.871 48.9763L60.8766 49.2725L46.1954 70.6006C43.8179 70.4919 41.4329 70.91 39.1679 71.8419C38.1704 72.2488 37.2366 72.7475 36.3591 73.3231L4.11852 60.0538C4.11852 60.0538 3.37227 72.3275 6.48102 81.4738L29.2735 90.8788C30.3985 95.9938 33.9235 100.479 39.1023 102.635C47.5859 106.16 57.3215 102.148 60.8579 93.6688C61.7766 91.4563 62.2023 89.1312 62.1404 86.8138L83.146 71.8044L83.6616 71.8138C96.2335 71.8138 106.452 61.565 106.452 48.9763C106.445 36.3837 96.2493 26.1745 83.6592 26.15C71.0929 26.15 60.8686 36.3875 60.8686 48.9763L60.871 48.9763ZM57.346 92.195C54.6198 98.7388 47.0973 101.846 40.5591 99.1213C37.5404 97.865 35.266 95.5625 33.9516 92.8175L41.371 95.8925C43.6858 96.856 46.2886 96.8602 48.6064 95.904C50.9242 94.9478 52.767 93.1097 53.7291 90.7944C55.7378 85.9709 53.4597 80.4319 48.6385 78.4175L40.951 75.2394C43.9098 74.1144 47.2735 74.0769 50.4198 75.3837C53.6073 76.7019 56.0448 79.1844 57.3498 82.3587C58.6548 85.5331 58.6473 89.0338 57.331 92.195M83.6635 64.1919C75.2935 64.1919 68.4798 57.3669 68.4798 48.98C68.4889 40.5943 75.2775 33.7947 83.6633 33.7719C92.0506 33.7925 98.8416 40.5927 98.8508 48.98C98.8437 57.3686 92.0523 64.1711 83.6635 64.1919M72.286 48.9556C72.286 42.6444 77.3954 37.5275 83.686 37.5275C89.9767 37.5275 95.0935 42.6463 95.0935 48.9556C95.0973 55.2586 89.9914 60.3731 83.6872 60.38C77.3852 60.3707 72.2822 55.2576 72.2853 48.9556L72.286 48.9556Z" id="Forma" fill="#FFFFFF" fill-rule="evenodd"/>
</svg>