<?xml version="1.0" encoding="utf-8"?>
<svg width="128" height="128" viewBox="0 0 128 128" fill="none" xmlns="http://www.w3.org/2000/svg">
<defs>
<linearGradient id="gradient" gradientUnits="userSpaceOnUse" x1="60" y1="0" x2="60" y2="120">
<stop offset="0.253" stop-color="#7B5BF5"/>
<stop offset="1" stop-color="#1955DB"/>
</linearGradient>
</defs>
<path id="rhombus" d="M54.4148 117.687C55.9573 119.229 57.819 120 60 120C62.1812 120 64.0428 119.229 65.5851 117.687L117.687 65.5852C119.229 64.0429 120 62.1813 120 60.0002C120 57.8191 119.229 55.9575 117.687 54.4149L65.5848 2.31329C64.0426 0.770996 62.1809 0 59.9999 0C57.8187 0 55.957 0.770996 54.4148 2.31329L2.31311 54.4149C0.770875 55.9572 0 57.8188 0 59.9999C0 62.181 0.770875 64.0426 2.31311 65.5849L54.4148 117.687Z" fill="url(#gradient)" transform="translate(4 4)" />
<path id="play" d="M4.573 0.530865L30.6432 18.9333Q30.714 18.9833 30.7817 19.0375Q30.8494 19.0916 30.9138 19.1497Q30.9781 19.2078 31.0389 19.2696Q31.0997 19.3314 31.1566 19.3967Q31.2136 19.4621 31.2666 19.5307Q31.3195 19.5993 31.3683 19.671Q31.4171 19.7426 31.4615 19.8171Q31.5059 19.8915 31.5458 19.9685Q31.5857 20.0455 31.6209 20.1247Q31.6561 20.2039 31.6865 20.2851Q31.7169 20.3662 31.7425 20.4491Q31.768 20.5319 31.7885 20.6162Q31.809 20.7004 31.8245 20.7857Q31.8399 20.871 31.8503 20.957Q31.8606 21.0431 31.8658 21.1296Q31.871 21.2162 31.871 21.3029Q31.871 21.3896 31.8658 21.4761Q31.8606 21.5626 31.8503 21.6487Q31.8399 21.7348 31.8245 21.8201Q31.809 21.9053 31.7885 21.9896Q31.768 22.0738 31.7425 22.1566Q31.7169 22.2395 31.6865 22.3207Q31.6561 22.4018 31.6209 22.481Q31.5857 22.5603 31.5458 22.6372Q31.5059 22.7142 31.4615 22.7886Q31.4171 22.8631 31.3683 22.9348Q31.3195 23.0064 31.2666 23.075Q31.2136 23.1437 31.1566 23.209Q31.0997 23.2743 31.0389 23.3362Q30.9781 23.398 30.9138 23.4561Q30.8494 23.5141 30.7817 23.5683Q30.714 23.6224 30.6432 23.6724L4.573 42.0749Q4.49205 42.132 4.4074 42.1835Q4.32274 42.235 4.23477 42.2806Q4.1468 42.3261 4.05592 42.3656Q3.96504 42.4051 3.87168 42.4383Q3.77832 42.4714 3.68292 42.4982Q3.58751 42.5249 3.4905 42.5451Q3.39349 42.5652 3.29534 42.5787Q3.19718 42.5922 3.09833 42.599Q2.99948 42.6057 2.9004 42.6057Q2.80132 42.6057 2.70247 42.599Q2.60362 42.5922 2.50546 42.5787Q2.4073 42.5652 2.3103 42.5451Q2.21329 42.5249 2.11788 42.4982Q2.02247 42.4715 1.92911 42.4383Q1.83575 42.4051 1.74488 42.3656Q1.654 42.3261 1.56603 42.2806Q1.47805 42.235 1.3934 42.1835Q1.30874 42.132 1.2278 42.0749Q1.14685 42.0177 1.06999 41.9552Q0.993134 41.8927 0.920723 41.8251Q0.848311 41.7574 0.780683 41.685Q0.713055 41.6126 0.650527 41.5358Q0.587998 41.4589 0.53086 41.3779Q0.473723 41.297 0.422242 41.2123Q0.370761 41.1277 0.325178 41.0397Q0.279594 40.9517 0.24012 40.8609Q0.200646 40.77 0.167466 40.6766Q0.134286 40.5833 0.107555 40.4879Q0.0808231 40.3925 0.0606645 40.2955Q0.040506 40.1984 0.0270145 40.1003Q0.013523 40.0021 0.0067615 39.9033Q0 39.8044 0 39.7053L0 2.90039Q0 2.80131 0.0067615 2.70246Q0.013523 2.60361 0.0270145 2.50545Q0.040506 2.4073 0.0606645 2.31029Q0.0808231 2.21328 0.107555 2.11787Q0.134286 2.02247 0.167466 1.92911Q0.200647 1.83575 0.24012 1.74487Q0.279594 1.65399 0.325178 1.56602Q0.370761 1.47805 0.422242 1.39339Q0.473723 1.30874 0.53086 1.22779Q0.587998 1.14684 0.650527 1.06999Q0.713055 0.993129 0.780683 0.920717Q0.848311 0.848306 0.920723 0.780678Q0.993134 0.713051 1.06999 0.650523Q1.14685 0.587994 1.2278 0.530857Q1.30874 0.473719 1.3934 0.422238Q1.47805 0.370758 1.56603 0.325175Q1.654 0.279591 1.74488 0.240118Q1.83575 0.200644 1.92911 0.167464Q2.02247 0.134284 2.11788 0.107553Q2.21329 0.0808216 2.3103 0.0606633Q2.4073 0.040505 2.50546 0.0270138Q2.60362 0.0135226 2.70247 0.0067613Q2.80132 4.79631e-08 2.9004 2.92435e-07Q2.99948 5.36907e-07 3.09833 0.00676228Q3.19718 0.013524 3.29534 0.0270157Q3.39349 0.0405075 3.4905 0.0606662Q3.58751 0.080825 3.68292 0.107557Q3.77832 0.134289 3.87168 0.167469Q3.96504 0.200649 4.05592 0.240123Q4.1468 0.279597 4.23477 0.325181Q4.32274 0.370765 4.4074 0.422246Q4.49205 0.473727 4.573 0.530865Z" fill="#FEFEFF" transform="translate(54 40)"/>
</svg>
