<?xml version="1.0" encoding="utf-8"?>
<svg width="128" height="128" viewBox="0 0 128 128" fill="none" xmlns="http://www.w3.org/2000/svg">
  <defs>
    <linearGradient id="gradient_1" gradientUnits="userSpaceOnUse" x1="52" y1="0" x2="52" y2="104">
      <stop offset="0" stop-color="#4D4D4D" />
      <stop offset="1" stop-color="#404040" />
    </linearGradient>
    <linearGradient id="gradient_2" gradientUnits="userSpaceOnUse" x1="33.094" y1="27.828" x2="38.236" y2="10.636">
      <stop offset="0" stop-color="#FF9700" />
      <stop offset="0.53" stop-color="#F48E00" />
      <stop offset="1" stop-color="#D06F00" />
    </linearGradient>
  </defs>
<path id="square" d="M0 16L0 8C0 5.79086 0.781049 3.90524 2.34315 2.34315C3.90524 0.781049 5.79086 0 8 0L96 0C98.2091 0 100.095 0.781049 101.657 2.34315C103.219 3.90524 104 5.79086 104 8L104 96C104 98.2091 103.219 100.095 101.657 101.657C100.095 103.219 98.2092 104 96 104L8 104C5.79086 104 3.90524 103.219 2.34315 101.657C0.781049 100.095 0 98.2091 0 96L0 16Z" fill="url(#gradient_1)" fill-rule="evenodd" transform="translate(12 12)" />
<g id="S" transform="translate(33.974 25)">
<path id="path28" d="M60.044 1.24652C60.044 0.33239 59.3684 -0.194733 58.5393 0.0671616C58.5393 0.0671616 1.50464 18.1529 1.50464 18.1529C0.67392 18.4165 0 19.3723 0 20.2848C0 20.2848 0 38.7692 0 38.7692C0 39.6833 0.67392 40.2121 1.50464 39.9486C1.50464 39.9486 58.5393 21.8645 58.5393 21.8645C59.3684 21.6009 60.044 20.6451 60.044 19.731C60.044 19.731 60.044 1.24652 60.044 1.24652Z" fill="url(#gradient_2)" fill-rule="evenodd" transform="translate(0 37.984)" />
<path id="path30" d="M0 19.73C0 20.6441 0.67392 21.6 1.50464 21.8635C1.50464 21.8635 58.5477 39.951 58.5477 39.951C59.3784 40.2145 60.0523 39.6857 60.0523 38.7733C60.0523 38.7733 60.0523 20.2872 60.0523 20.2872C60.0523 19.3747 59.3784 18.4189 58.5477 18.1553C58.5477 18.1553 1.50465 0.0678902 1.50465 0.0678902C0.673923 -0.195671 3.8147e-06 0.331451 3.8147e-06 1.24558C3.8147e-06 1.24558 0 19.73 0 19.73Z" fill="#FF9800" fill-rule="evenodd" transform="translate(0 18.911)" />
<path id="path32" d="M60.044 1.24712C60.044 0.332988 59.3684 -0.195807 58.5393 0.0677559C58.5393 0.0677559 1.50464 18.1518 1.50464 18.1518C0.67392 18.4154 0 19.3712 0 20.2854C0 20.2854 0 38.7698 0 38.7698C0 39.6839 0.67392 40.2111 1.50464 39.9492C1.50464 39.9492 58.5393 21.8634 58.5393 21.8634C59.3684 21.5998 60.044 20.644 60.044 19.7316C60.044 19.7316 60.044 1.24712 60.044 1.24712Z" fill="#FF9800" fill-rule="evenodd" />
</g></svg>