<?xml version="1.0" encoding="utf-8"?>
<svg width="128" height="128" viewBox="0 0 128 128" xmlns="http://www.w3.org/2000/svg">
<defs>
<linearGradient id="grdnt1">
<stop offset="0" stop-color="#3D3846"/>
<stop offset="5%" stop-color="#77767B"/>
<stop offset="10%" stop-color="#5E5C64"/>
<stop offset="90%" stop-color="#5E5C64"/>
<stop offset="95%" stop-color="#77767B"/>
<stop offset="1" stop-color="#3D3846"/>
</linearGradient>
<linearGradient id="grdnt2">
<stop offset="0" stop-color="#424048"/>
<stop offset="5%" stop-color="#F6F5F4"/>
<stop offset="10%" stop-color="#949390"/>
<stop offset="90%" stop-color="#D5D3CF"/>
<stop offset="95%" stop-color="#F6F5F4"/>
<stop offset="1" stop-color="#424048"/>
</linearGradient>
<linearGradient id="arrow" x1="0" y1="0" x2="0" y2="1">
<stop offset="0" stop-color="#EF618B"/>
<stop offset="1" stop-color="#BE0C3E"/>
</linearGradient>
</defs>
<rect width="88" height="32" rx="8" x="20" y="88" fill="url(#grdnt1)"/>
<rect width="88" height="26" rx="8" x="20" y="88" fill="url(#grdnt2)"/>
<rect width="88" height="104" rx="8" x="20" y="8" fill="#F6F5F4"/>
<path d="M26.13 54C18 51 13 47.36 7.6 39.3C6.24 37 3.82 32 3.9 25.53C3.72 19 7 11.5 13.1525 7.54C19 3.32 26.72 3.26 31.274 5C35.94 6.63 38 9.6 38 9.42C37.76 9.5 40.44 11.67 41.62 16.54C43 21.2 41.57 29 35.13 32C32.2 33.7 28.33 34 25.27 32.86C22.27 31.63 20 29 19.3 26.17C17.76 20 22.43 16.6 24.5 16.27C32.9 13.43 37.17 26.6 27.36 27.72C31.8 29.22 36.42 24.62 35.56 20C35.4 15.25 29.72 10.6 23.45 12.52C21.84 13 19.3 14.13 17.4 16.7C15.4 19.26 14.5 23.28 15.56 27.13C16.53 31 19.64 34.84 23.87 36.5C28.17 38 33 37.62 37 35.6C45.375 31.4 47 21.244 45.43 15.62C44 9.63 40.66 6.9 40.82 6.85C40.76 7 38.4 3.42 32.56 1.23C27 0 18 0 11 4.3C3.67 9 0 18 0 25.5C0 33 2.7 38.7 4.2 41.2C10.364 50.574 17.4 53.52 26.13 54C26.13 54 26.13 54 26.13 54Z" fill="#A2A6AF" transform="translate(41 52)"/>
<g fill="#A70A40">
<rect width="20" height="6" rx="2" x="54"/>
<rect width="40" height="6" rx="2" x="44" y="26"/></g>
<path d="M28 0C29.1 0 30 0.9 30 2L30 26L38 26C39.1 26 40 26.9 40 28C40 28.9 39.5 29.5 39 30L22 47C21 48 20.3 48 20 48C19.7 48 19 48 18 47L1 30C0.5 29.5 0 28.9 0 28C0 26.9 0.9 26 2 26L10 26L10 2C10 0.9 10.9 0 12 0Z" fill="url(#arrow)" transform="translate(44 2)"/>
</svg>
