<?xml version="1.0" encoding="utf-8"?>
<svg width="128" height="128" viewBox="0 0 128 128" fill="none" xmlns="http://www.w3.org/2000/svg">
  <defs>
    <linearGradient id="gradient_1" gradientUnits="userSpaceOnUse" x1="-0" y1="72" x2="80.001" y2="72">
      <stop offset="0" stop-color="#3D3846" />
      <stop offset="0.045" stop-color="#5E5C64" />
      <stop offset="0.091" stop-color="#3D3846" />
      <stop offset="0.909" stop-color="#3D3846" />
      <stop offset="0.955" stop-color="#5E5C64" />
      <stop offset="1" stop-color="#3D3846" />
    </linearGradient>
    <linearGradient id="gradient_2" gradientUnits="userSpaceOnUse" x1="0.25" y1="26.25" x2="80" y2="26.25">
      <stop offset="0" stop-color="#424048" />
      <stop offset="0.047" stop-color="#F6F5F4" />
      <stop offset="0.097" stop-color="#949390" />
      <stop offset="0.9" stop-color="#D5D3CF" />
      <stop offset="0.95" stop-color="#F6F5F4" />
      <stop offset="1" stop-color="#424048" />
    </linearGradient>
    <linearGradient id="gradient_3" gradientUnits="userSpaceOnUse" x1="62.75" y1="99.25" x2="56.75" y2="2">
      <stop offset="0" stop-color="#F6F5F4" />
      <stop offset="1" stop-color="#FFFFFF" />
    </linearGradient>
    <linearGradient id="gradient_4" gradientUnits="userSpaceOnUse" x1="19.581" y1="0" x2="19.581" y2="49.088">
      <stop offset="0" stop-color="#EF618B" />
      <stop offset="1" stop-color="#BE0C3E" />
    </linearGradient>
  </defs>
    <path id="rect3" d="M0 16L0 8C0 5.79086 0.781048 3.90524 2.34315 2.34315C3.90524 0.781048 5.79086 0 8 0L72 0C74.2092 0 76.0948 0.781048 77.6569 2.34315C79.219 3.90524 80 5.79086 80 8L80 76C80 78.2092 79.219 80.0948 77.6569 81.6569C76.0948 83.219 74.2092 84 72 84L8 84C5.79086 84 3.90524 83.219 2.34315 81.6569C0.781048 80.0948 0 78.2092 0 76L0 16Z" fill="url(#gradient_1)" fill-rule="evenodd" transform="translate(24 36)" />
    <path id="rect2" d="M0 16L0 8C0 5.79086 0.781048 3.90524 2.34315 2.34315C3.90524 0.781048 5.79086 0 8 0L72 0C74.2091 0 76.0948 0.781048 77.6569 2.34315C79.2189 3.90524 80 5.79086 80 8L80 62C80 64.2091 79.2189 66.0948 77.6569 67.6569C76.0948 69.2189 74.2091 70 72 70L8 70C5.79086 70 3.90524 69.2189 2.34315 67.6568C0.781048 66.0947 0 64.2091 0 62L0 16Z" fill="url(#gradient_2)" fill-rule="evenodd" transform="translate(24 44)" />
    <path id="rect1" d="M0 16.9143L0 8.45714C0 6.12177 0.781048 4.1284 2.34315 2.47704C3.90524 0.82568 5.79086 0 8 0L72 0C74.2091 0 76.0948 0.82568 77.6569 2.47704C79.2189 4.1284 80 6.12177 80 8.45714L80 95.5429C80 97.8782 79.2189 99.8716 77.6569 101.523C76.0948 103.174 74.2091 104 72 104L8 104C5.79086 104 3.90524 103.174 2.34315 101.523C0.781048 99.8716 0 97.8782 0 95.5429L0 16.9143Z" fill="url(#gradient_3)" fill-rule="evenodd" transform="translate(24 8)" />
    <path id="debian" d="M26.1278 54C17.8701 51.003 12.9377 47.3628 7.57678 39.2822C6.23725 37.0337 3.82381 32.0037 3.93121 25.5264C3.71642 18.9973 6.98708 11.5044 13.1525 7.54355C19.0504 3.31562 26.7174 3.26202 31.2739 4.92084C35.9388 6.63326 37.868 9.57759 37.9226 9.41678C37.7615 9.47038 40.4415 11.6652 41.6209 16.5354C42.9077 21.1922 41.5682 28.9521 35.1333 32.1099C32.1858 33.7151 28.3254 33.9832 25.2696 32.8594C22.2664 31.6285 20.0687 28.9521 19.317 26.1686C17.7627 20.0139 22.4266 16.589 24.5178 16.2674C32.8819 13.4303 37.1699 26.5975 27.3589 27.7212C31.809 29.2192 36.4191 24.617 35.5619 19.9067C35.4008 15.2509 29.7186 10.5941 23.4458 12.521C21.8378 12.9488 19.317 14.1271 17.3878 16.6953C15.4039 19.2644 14.492 23.2779 15.565 27.1316C16.5306 31.0924 19.6401 34.8389 23.8754 36.4977C28.1663 38.1029 32.9903 37.6215 36.959 35.5874C45.3748 31.4131 47.0902 21.2439 45.4295 15.6242C43.9279 9.62928 40.6573 6.90032 40.8184 6.84671C40.7637 7.00752 38.4059 3.42188 32.5616 1.22703C26.8795 -0.807007 18.0321 -0.646198 10.9021 4.27856C3.66367 8.93531 -0.303112 18.087 0.0181007 25.4727C-0.0892906 32.9657 2.69906 38.6926 4.19967 41.2081C10.3642 50.5742 17.3878 53.5185 26.1277 54C26.1277 54 26.1278 54 26.1278 54Z" fill="#A2A6AF" fill-rule="evenodd" transform="translate(41 52)" />
    <g id="arrow" transform="translate(44.418 0)">
      <path id="arrow_down" d="M28.5815 2C28.5815 0.895264 27.6862 0 26.5815 0L12.5815 0C11.4768 0 10.5815 0.895264 10.5815 2L10.5815 26L1.90156 26C1.52473 26.0001 1.17854 26.103 0.86299 26.309C0.547438 26.5149 0.313673 26.7903 0.16194 27.1352C0.0390151 27.4147 -0.0139634 27.7029 0.00312641 28L7.46545e-05 28L7.46545e-05 30L0.00312641 30C0.00715473 30.0696 0.0149672 30.1396 0.026686 30.2102C0.0880874 30.582 0.246168 30.9067 0.500685 31.1845L18.1806 50.4717C18.3604 50.6681 18.5723 50.8198 18.8161 50.9271C19.0599 51.0344 19.315 51.088 19.5814 51.088C19.8477 51.088 20.1027 51.0344 20.3465 50.9271C20.5904 50.8198 20.8023 50.6681 20.9824 50.4717L38.6623 31.1845C38.9171 30.9067 39.0751 30.582 39.1366 30.2102C39.1481 30.1396 39.156 30.0696 39.16 30L39.163 30L39.163 28L39.16 28C39.177 27.7029 39.1239 27.4147 39.0009 27.1352C38.8493 26.7903 38.6157 26.5149 38.3001 26.309C37.9846 26.103 37.6384 26.0001 37.2614 26L28.5815 26L28.5815 2L28.5815 2Z" fill="#A70A38" fill-rule="evenodd" />
      <path id="arrow_extrude" d="M26.5814 0C27.6862 0 28.5814 0.895264 28.5814 2L28.5814 26L37.2614 26C37.6383 26.0001 37.9845 26.103 38.3001 26.309C38.6156 26.5149 38.8493 26.7903 39.0009 27.1352C39.1526 27.4801 39.1979 27.8384 39.1365 28.2102C39.0751 28.582 38.917 28.9067 38.6623 29.1845L20.9823 48.4717C20.8023 48.6681 20.5904 48.8198 20.3465 48.9271C20.1027 49.0344 19.8477 49.088 19.5813 49.088C19.315 49.088 19.0598 49.0344 18.8161 48.9271C18.5723 48.8198 18.3604 48.6681 18.1806 48.4717L0.500635 29.1845C0.246119 28.9067 0.0880374 28.582 0.0266361 28.2102C-0.0348874 27.8384 0.0101566 27.4801 0.16189 27.1352C0.313623 26.7903 0.547388 26.5149 0.86294 26.309C1.17849 26.103 1.52468 26.0001 1.90151 26L10.5814 26L10.5814 2C10.5814 0.895264 11.4767 0 12.5814 0L26.5814 0L26.5814 0Z" fill="url(#gradient_4)" fill-rule="evenodd" transform="translate(0 2)" />
    </g>
</svg>