<?xml version="1.0" encoding="utf-8"?>
<svg width="128" height="128" viewBox="0 0 128 128" xmlns="http://www.w3.org/2000/svg">
<rect width="104" height="104" rx="8" x="12" y="12" fill="#00B578"/>
<rect width="90" height="90" rx="3" x="19" y="19" fill="none" stroke="#73F5A5" stroke-width="2"/>
<g fill="#241F31">
<path d="M5 0L10 10L0 10Z" transform="translate(35 70)"/>
<path d="M0 30L0 10C0 4.5 4.5 0 10 0C15.5 0 20 4.5 20 10C25.5 10 30 14.5 30 20C30 25.5 25.5 30 20 30Z" transform="translate(40 14) rotate(135 0 30)"/>
<path d="M5 0L10 10L0 10Z" transform="translate(83 70)"/>
<rect width="4" height="22" transform="translate(86 52)"/>
<circle r="8" transform="translate(96 64)"/>
<circle r="8" transform="translate(80 64)"/>
<circle r="8" transform="translate(88 52)"/>
</g><g fill="#A51D2D">
<path d="M16 0L32 16L16 32L0 16Z" transform="translate(48 72)"/>
<path d="M0 30L0 10C0 4.5 4.5 0 10 0C15.5 0 20 4.5 20 10C25.5 10 30 14.5 30 20C30 25.5 25.5 30 20 30Z" transform="translate(64 28) rotate(315 0 30)"/>
</g>
</svg>
