<?xml version="1.0" encoding="utf-8"?>
<svg width="128" height="128" viewBox="0 0 128 128" xmlns="http://www.w3.org/2000/svg">
<defs>
<linearGradient id="blue" x1="0" y1="0" x2="0" y2="1">
<stop offset="0" stop-color="#30A7E3"/>
<stop offset="1" stop-color="#077FBA"/>
</linearGradient>
</defs>
<circle r="60" cx="64" cy="64" fill="url(#blue)"/>
<path d="M4.777 24.8C23.4375 16.67 35.9 11.3 42.1 8.72C59.9 1.33 63.57 0 66 0C66.5 0 67.7 0.122 68.457 0.745C69.1 1.27 69.277 2 69.37 2.48C69.447 3 69.557 4.11 69.467 5C68.5 15.12 64.34 39.675 62.22 51C61.33 55.8 59.557 57.415 57.85 57.57C54.127 57.9136 51.31 55.1156 47.7 52.756C42.1 49 38.9 46.765 33.43 43.1624C27.11 39 31.2 36.71 34.81 33C35.75 32 52.127 17 52.437 15.7444C52.477 15.575 52.517 15 52.137 14.6134C51.767 14.28 51.217 14.4 50.82 14.5C50.2476 14.6124 41.2573 20.56 23.82 32.3274C21.2676 34.1 19 34.94 16.8774 34.9C14.6 34.8424 10.1973 33.6 6.927 32.537C2.927 31.2344 -0.2627 30.5454 0 28.33C0.157 27.2 1.747 26 4.777 24.8C4.777 24.8 4.777 24.8 4.777 24.8Z" fill="#FFFFFF" transform="translate(24 39)"/>
</svg>
