<?xml version="1.0" encoding="utf-8"?>
<svg width="128" height="128" viewBox="0 0 128 128" xmlns="http://www.w3.org/2000/svg">
<defs>
<linearGradient id="pages">
<stop offset="90%" stop-color="#DEDDDA"/>
<stop offset="95%" stop-color="#F6F5F4"/>
<stop offset="1" stop-color="#C0BFBC"/>
</linearGradient>
</defs>
<path d="M0 0L0 18L80 18C84.4 18 88 14.4 88 10L88 0Z" fill="#26A269" transform="translate(20 102)"/>
<path d="M0 0L0 18L80 18C84.4 18 88 14.4 88 10L88 0Z" fill="#1D60B5" transform="translate(20 92)"/>
<path d="M0 0L0 18L80 18C84.4 18 88 14.4 88 10L88 0Z" fill="#A51D2D" transform="translate(20 82)"/>
<g fill="url(#pages)">
<path d="M0 8L0 14L78 14C82.4 14 86 10.4 86 6L86 0C86 4.4 82.4 8 78 8Z" transform="translate(22 104)"/>
<path d="M0 8L0 14L78 14C82.4 14 86 10.4 86 6L86 0C86 4.4 82.4 8 78 8Z" transform="translate(22 94)"/>
<path d="M0 8L0 14L78 14C82.4 14 86 10.4 86 6L86 0C86 4.4 82.4 8 78 8Z" transform="translate(22 84)"/>
</g><path d="M0 0L0 82L80 82C84.4 82 88 78.4 88 74L88 8C88 3.6 84.4 0 80 0Z" fill="#ED333B" transform="translate(20 8)"/>
<rect width="2" height="82" x="22" y="8" fill="#FFFFFF" opacity="20%"/>
</svg>
