<?xml version="1.0" encoding="utf-8"?>
<svg width="128" height="128" viewBox="0 0 128 128" fill="none" xmlns="http://www.w3.org/2000/svg">
  <defs>
    <linearGradient id="gradient_1" gradientUnits="userSpaceOnUse" x1="0" y1="24" x2="88" y2="24">
      <stop offset="0" stop-color="#9A9996" />
      <stop offset="0.06" stop-color="#CECDCD" />
      <stop offset="0.15" stop-color="#807E7B" />
      <stop offset="0.86" stop-color="#9A9996" />
      <stop offset="0.94" stop-color="#D2D1CF" />
      <stop offset="1" stop-color="#B5B5B2" />
    </linearGradient>
    <linearGradient id="gradient_2" gradientUnits="userSpaceOnUse" x1="0" y1="24" x2="88" y2="24">
      <stop offset="0" stop-color="#2A2A2A" />
      <stop offset="1" stop-color="#3E3E40" />
    </linearGradient>
    <filter color-interpolation-filters="sRGB" x="-62" y="-55.602" width="64" height="57.602" id="filter_3">
      <feFlood flood-opacity="0" result="BackgroundImageFix_1" />
      <feColorMatrix type="matrix" values="0 0 0 0 0 0 0 0 0 0 0 0 0 0 0 0 0 0 1 0" in="SourceAlpha" />
      <feOffset dx="0" dy="4" />
      <feGaussianBlur stdDeviation="2" />
      <feColorMatrix type="matrix" values="0 0 0 0 0 0 0 0 0 0 0 0 0 0 0 0 0 0 0.651 0" />
      <feBlend mode="normal" in2="BackgroundImageFix_1" result="Shadow_2" />
      <feBlend mode="normal" in="SourceGraphic" in2="Shadow_2" result="Shape_3" />
    </filter>
    <linearGradient id="gradient_4" gradientUnits="userSpaceOnUse" x1="0" y1="10.5" x2="64" y2="10.5">
      <stop offset="0" stop-color="#4F4F4F" />
      <stop offset="0.05" stop-color="#7A7A7A" />
      <stop offset="0.12" stop-color="#AAAAAA" />
      <stop offset="0.4" stop-color="#555555" />
      <stop offset="0.6" stop-color="#8A8A8A" />
      <stop offset="0.9" stop-color="#4F4F4F" />
      <stop offset="0.95" stop-color="#8C8C8C" />
      <stop offset="1" stop-color="#4B4B4D" />
    </linearGradient>
    <linearGradient id="gradient_5" gradientUnits="userSpaceOnUse" x1="0.047" y1="10.196" x2="44.801" y2="10.196">
      <stop offset="0" stop-color="#505050" />
      <stop offset="0.03" stop-color="#AEAFB1" />
      <stop offset="0.05" stop-color="#545456" />
      <stop offset="0.95" stop-color="#545456" />
      <stop offset="0.97" stop-color="#AEAFB1" />
      <stop offset="1" stop-color="#505050" />
    </linearGradient>
    <linearGradient id="gradient_6" gradientUnits="userSpaceOnUse" x1="28" y1="0.801" x2="34" y2="52.801">
      <stop offset="0" stop-color="#A3A2AA" />
      <stop offset="1" stop-color="#CBCACE" stop-opacity="0.498" />
    </linearGradient>
    <linearGradient id="gradient_7" gradientUnits="userSpaceOnUse" x1="32" y1="-0.199" x2="32" y2="57.801">
      <stop offset="0" stop-color="#3737FF" />
      <stop offset="1" stop-color="#0000C8" />
    </linearGradient>
  </defs>
  <g>
    <g transform="translate(20 8)">
      <path d="M0 16L0 8C0 5.79086 0.781048 3.90524 2.34315 2.34315C3.90524 0.781052 5.79086 0 8 0L80 0C82.2091 0 84.0947 0.781052 85.6568 2.34315C87.2189 3.90524 88 5.79086 88 8L88 40C88 42.2091 87.2189 44.0948 85.6568 45.6569C84.0947 47.2189 82.2091 48 80 48L8 48C5.79086 48 3.90524 47.2189 2.34315 45.6569C0.781048 44.0948 0 42.2091 0 40L0 16Z" fill="url(#gradient_1)" fill-rule="evenodd" transform="translate(0 64)" />
      <path d="M0 16L0 8C0 5.79086 0.781048 3.90524 2.34315 2.34315C3.90524 0.781048 5.79086 0 8 0L80 0C82.2091 0 84.0947 0.781048 85.6568 2.34315C87.2189 3.90524 88 5.79086 88 8L88 40C88 42.2091 87.2189 44.0948 85.6568 45.6569C84.0947 47.2189 82.2091 48 80 48L8 48C5.79086 48 3.90524 47.2189 2.34315 45.6569C0.781048 44.0948 0 42.2091 0 40L0 16Z" fill="url(#gradient_2)" fill-rule="evenodd" transform="translate(0 56)" />
      <path d="M0 16L0 8C0 5.79086 0.781048 3.90524 2.34315 2.34315C3.90524 0.781048 5.79086 0 8 0L80 0C82.2091 0 84.0947 0.781048 85.6568 2.34315C87.2189 3.90524 88 5.79086 88 8L88 40C88 42.2091 87.2189 44.0948 85.6568 45.6569C84.0947 47.2189 82.2091 48 80 48L8 48C5.79086 48 3.90524 47.2189 2.34315 45.6569C0.781048 44.0948 0 42.2091 0 40L0 16Z" fill="url(#gradient_1)" fill-rule="evenodd" transform="translate(0 52)" />
      <path d="M0 16L0 8C0 5.79086 0.781048 3.90524 2.34315 2.34315C3.90524 0.781049 5.79086 0 8 0L80 0C82.2091 0 84.0947 0.781049 85.6568 2.34315C87.2189 3.90524 88 5.79086 88 8L88 80C88 82.2091 87.2189 84.0948 85.6568 85.6569C84.0947 87.2189 82.2091 88 80 88L8 88C5.79086 88 3.90524 87.2189 2.34315 85.6569C0.781048 84.0948 0 82.2091 0 80L0 16Z" fill="#EEEDEC" fill-rule="evenodd" transform="translate(0 2)" />
      <path d="M0 16L0 8C0 5.79086 0.781048 3.90524 2.34315 2.34315C3.90524 0.781049 5.79086 0 8 0L80 0C82.2091 0 84.0947 0.781049 85.6568 2.34315C87.2189 3.90524 88 5.79086 88 8L88 80C88 82.2091 87.2189 84.0948 85.6568 85.6569C84.0947 87.2189 82.2091 88 80 88L8 88C5.79086 88 3.90524 87.2189 2.34315 85.6569C0.781048 84.0948 0 82.2091 0 80L0 16Z" fill="#DEDDDA" fill-rule="evenodd" />
    </g>
    <path d="M8 0C5.90561 0 3.82471 0.862793 2.34375 2.34375C0.862789 3.82471 0 5.9056 0 8C0 8 0 26.7969 0 26.7969C0.000358582 29.6465 2.35348 31.9996 5.20312 32C8.05509 32 10.2707 29.702 10.5391 27C10.9492 22.8713 12.1869 20.3005 14.2844 18.6141C16.3819 16.9277 19.6224 16 24.4 16C24.4 16 25.6 16 25.6 16L25.6 50C25.6 50 11.6 50 11.6 50C10.4955 50.0001 9.60011 50.8955 9.6 52C9.6 52 9.6 64 9.6 64C9.6 66.0944 11.5056 68 13.6 68C13.6 68 54.4 68 54.4 68C56.4944 68 58.4 66.0944 58.4 64C58.4 64 58.4 52.4 58.4 52.4C58.4 51.3143 57.5345 50.427 56.4496 50.4C56.4496 50.4 42.4 50.05 42.4 50.05L42.4 16C42.4 16 43.6 16 43.6 16C48.3776 16 51.6181 16.9277 53.7156 18.6141C55.8131 20.3005 57.0508 22.8713 57.4609 27C57.7295 29.704 59.9498 32 62.8031 32C62.8035 32 62.8039 32 62.8043 32C65.6521 31.9976 68.0014 29.6442 67.9996 26.7969C67.9996 26.7969 67.9996 26.7953 67.9996 26.7953C67.9996 26.7953 67.9996 8 67.9996 8C67.9996 5.9056 67.1368 3.82471 65.6559 2.34375C64.1753 0.862793 62.0944 0 60 0C60 0 8 0 8 0Z" fill="#000000" fill-opacity="0.149" transform="translate(30 20)" />
    <g transform="translate(32 15.199)">
      <g transform="translate(0 4.801)">
        <path d="M4 0C1.79086 0 0 1.79087 0 4C0 4 0 19.2266 0 19.2266C-1.98364e-05 20.9794 1.42096 22.4004 3.17383 22.4004C3.17383 22.4004 3.22656 22.4004 3.22656 22.4004C4.9794 22.4004 6.37562 20.9742 6.54688 19.2305C7.42517 10.2878 12.3202 6.40039 22.4004 6.40039C22.4004 6.40039 25.5996 6.40039 25.5996 6.40039C25.5996 6.40039 25.5996 43.2012 25.5996 43.2012C25.5996 43.2364 25.5999 43.2717 25.5996 43.3066C25.5366 51.8501 17.7952 52.7056 11.5991 52.7913C10.4949 52.8065 9.59961 53.6962 9.59961 54.8008C9.59961 54.8008 9.59961 55.6016 9.59961 55.6016C9.59961 56.7062 10.495 57.6016 11.5996 57.6016C11.5996 57.6016 52.4004 57.6016 52.4004 57.6016C53.505 57.6016 54.4004 56.7062 54.4004 55.6016C54.4004 55.6016 54.4004 54.8008 54.4004 54.8008C54.4004 53.6962 53.5049 52.8065 52.4004 52.7912C46.2046 52.7054 38.4639 51.8491 38.4004 43.3067C38.4001 43.2714 38.4004 43.2367 38.4004 43.2012C38.4004 43.2012 38.4004 6.4004 38.4004 6.4004C38.4004 6.4004 41.5996 6.4004 41.5996 6.4004C51.6798 6.4004 56.5748 10.2878 57.4531 19.2305C57.6244 20.9742 59.0206 22.4004 60.7734 22.4004C60.7734 22.4004 60.8262 22.4004 60.8262 22.4004C62.579 22.4004 64 20.9794 64 19.2266C64 19.2266 64 4 64 4C64 1.79087 62.2091 0 60 0C60 0 4 0 4 0Z" fill="#000000" fill-opacity="0.498" filter="url(#filter_3)" transform="translate(0 6.398)" />
        <path d="M0 0C0 0 0 24.7969 0 24.7969C0.000222778 26.5658 1.43418 27.9998 3.20312 28C4.96873 28 6.37402 26.5607 6.54883 24.8008C7.43501 15.8791 12.3314 12 22.4004 12L41.5996 12C51.6686 12 56.565 15.8791 57.4512 24.8008C57.626 26.5607 59.0335 28 60.8027 28C62.5701 27.9984 64.0016 26.5643 64 24.7969C64 24.7969 64 0 64 0L0 0Z" fill="url(#gradient_4)" />
        <path d="M0 0C0 0 0 12 0 12C0 13.1046 0.895432 14 2 14C2 14 42.8008 14 42.8008 14C43.9054 14 44.8008 13.1046 44.8008 12C44.8008 12 44.8008 0 44.8008 0L0 0Z" fill="url(#gradient_5)" transform="translate(9.6 50)" />
      </g>
      <g>
        <path d="M60 0C62.2091 0 64 1.79087 64 4C64 4 64 19.2266 64 19.2266C64 20.9794 62.579 22.4004 60.8262 22.4004C60.8262 22.4004 60.7734 22.4004 60.7734 22.4004C59.0206 22.4004 57.6244 20.9742 57.4531 19.2305C56.5748 10.2878 51.6798 6.40039 41.5996 6.40039C41.5996 6.40039 38.4004 6.40039 38.4004 6.40039C38.4004 6.40039 38.4004 43.2012 38.4004 43.2012C38.4004 43.2364 38.4001 43.2717 38.4004 43.3066C38.4634 51.8501 46.2048 52.7056 52.4009 52.7913C53.5051 52.8065 54.4004 53.6962 54.4004 54.8008C54.4004 54.8008 54.4004 55.6016 54.4004 55.6016C54.4004 56.7062 53.505 57.6016 52.4004 57.6016C52.4004 57.6016 11.5996 57.6016 11.5996 57.6016C10.495 57.6016 9.59961 56.7062 9.59961 55.6016C9.59961 55.6016 9.59961 54.8008 9.59961 54.8008C9.59961 53.6962 10.4951 52.8065 11.5996 52.7912C17.7954 52.7054 25.5361 51.8491 25.5996 43.3067C25.5999 43.2714 25.5996 43.2367 25.5996 43.2012C25.5996 43.2012 25.5996 6.4004 25.5996 6.4004C25.5996 6.4004 22.4004 6.4004 22.4004 6.4004C12.3202 6.4004 7.42516 10.2878 6.54688 19.2305C6.37562 20.9742 4.97939 22.4004 3.22656 22.4004C3.22656 22.4004 3.17383 22.4004 3.17383 22.4004C1.42097 22.4004 -1.2207e-05 20.9794 0 19.2266C0 19.2266 0 4 0 4C0 1.79087 1.79086 0 4.00005 0C4.00005 0 60 0 60 0Z" fill="url(#gradient_6)" transform="translate(0 1.199)" />
        <path d="M4 0C1.79086 0 0 1.79087 0 4C0 4 0 19.2266 0 19.2266C-1.98364e-05 20.9794 1.42096 22.4004 3.17383 22.4004C3.17383 22.4004 3.22656 22.4004 3.22656 22.4004C4.9794 22.4004 6.37562 20.9742 6.54688 19.2305C7.42517 10.2878 12.3202 6.40039 22.4004 6.40039C22.4004 6.40039 25.5996 6.40039 25.5996 6.40039C25.5996 6.40039 25.5996 43.2012 25.5996 43.2012C25.5996 43.2364 25.5999 43.2717 25.5996 43.3066C25.5366 51.8501 17.7952 52.7056 11.5991 52.7913C10.4949 52.8065 9.59961 53.6962 9.59961 54.8008C9.59961 54.8008 9.59961 55.6016 9.59961 55.6016C9.59961 56.7062 10.495 57.6016 11.5996 57.6016C11.5996 57.6016 52.4004 57.6016 52.4004 57.6016C53.505 57.6016 54.4004 56.7062 54.4004 55.6016C54.4004 55.6016 54.4004 54.8008 54.4004 54.8008C54.4004 53.6962 53.5049 52.8065 52.4004 52.7912C46.2046 52.7054 38.4639 51.8491 38.4004 43.3067C38.4001 43.2714 38.4004 43.2367 38.4004 43.2012C38.4004 43.2012 38.4004 6.4004 38.4004 6.4004C38.4004 6.4004 41.5996 6.4004 41.5996 6.4004C51.6798 6.4004 56.5748 10.2878 57.4531 19.2305C57.6244 20.9742 59.0206 22.4004 60.7734 22.4004C60.7734 22.4004 60.8262 22.4004 60.8262 22.4004C62.579 22.4004 64 20.9794 64 19.2266C64 19.2266 64 4 64 4C64 1.79087 62.2091 0 60 0C60 0 4 0 4 0Z" fill="url(#gradient_7)" />
      </g>
    </g>
  </g>
</svg>