<?xml version="1.0" encoding="utf-8"?>
<svg width="128px" height="128px" viewBox="0 0 128 128" version="1.1" xmlns:xlink="http://www.w3.org/1999/xlink" xmlns="http://www.w3.org/2000/svg">
  <defs>
    <linearGradient gradientUnits="objectBoundingBox" x1="0.17354277" y1="0.172138" x2="0.87839943" y2="0.85886943" id="gradient_1">
      <stop offset="0%" stop-color="#1B91F3" />
      <stop offset="100%" stop-color="#0B68CB" />
    </linearGradient>
    <radialGradient gradientUnits="objectBoundingBox" cx="17.222858%" cy="9.719215%" fx="17.222858%" fy="9.719215%" r="67.3969%" gradientTransform="translate(0.17222859,0.09719215),rotate(66.5177),scale(1,0.4424388),translate(-0.17222859,-0.09719215)" id="gradient_2">
      <stop offset="52.999996%" stop-color="#0B4186" stop-opacity="0" />
      <stop offset="100%" stop-color="#0B4186" stop-opacity="0.4509804" />
    </radialGradient>
    <radialGradient gradientUnits="objectBoundingBox" cx="28.341822%" cy="70.20393%" fx="28.341822%" fy="70.20393%" r="29.191755%" gradientTransform="translate(0.2834182,0.70203936),rotate(-127.99701),scale(1,0.69803864),translate(-0.2834182,-0.70203936)" id="gradient_3">
      <stop offset="0%" stop-color="#EF3ACC" stop-opacity="0" />
      <stop offset="100%" stop-color="#EF3ACC" stop-opacity="0.6392157" />
    </radialGradient>
    <linearGradient gradientUnits="objectBoundingBox" x1="-0.27604437" y1="2.4529188" x2="0.6350713" y2="-0.13010573" id="gradient_4">
      <stop offset="0%" stop-color="#0F5DB0" />
      <stop offset="100%" stop-color="#0F5DB0" stop-opacity="0" />
    </linearGradient>
    <radialGradient gradientUnits="objectBoundingBox" cx="40.534267%" cy="95.12259%" fx="40.534267%" fy="95.12259%" r="99.47159%" gradientTransform="translate(0.40534267,0.9512259),rotate(-64.26239),scale(1,1.0555882),translate(-0.40534267,-0.9512259)" id="gradient_5">
      <stop offset="2%" stop-color="#094188" />
      <stop offset="97%" stop-color="#0B4186" stop-opacity="0" />
    </radialGradient>
    <linearGradient gradientUnits="objectBoundingBox" x1="0.89782286" y1="0.43930888" x2="0.6093581" y2="1.4451101" id="gradient_6">
      <stop offset="0%" stop-color="#E247C4" stop-opacity="0" />
      <stop offset="100%" stop-color="#E247C4" stop-opacity="0.6392157" />
    </linearGradient>
    <linearGradient gradientUnits="objectBoundingBox" x1="-0.24955869" y1="-0.24565649" x2="0.6616392" y2="0.82561696" id="gradient_7">
      <stop offset="9.999999%" stop-color="#EF3ACC" />
      <stop offset="100%" stop-color="#EF3ACC" stop-opacity="0" />
    </linearGradient>
    <linearGradient gradientUnits="objectBoundingBox" x1="0.5" y1="0.14691305" x2="0.5" y2="0.99245584" id="gradient_8">
      <stop offset="0%" stop-color="#FFFFFF" />
      <stop offset="91%" stop-color="#BEE1FE" />
      <stop offset="100%" stop-color="#96CEFD" />
    </linearGradient>
    <linearGradient gradientUnits="objectBoundingBox" x1="0.50001144" y1="0.6096028" x2="0.50001144" y2="0.92394865" id="gradient_9">
      <stop offset="0%" stop-color="#BCE0FD" />
      <stop offset="100%" stop-color="#88CCFC" />
    </linearGradient>
    <filter filterUnits="userSpaceOnUse" color-interpolation-filters="sRGB" id="filter_1">
      <feFlood flood-opacity="0" result="BackgroundImageFix" />
      <feBlend mode="normal" in="SourceGraphic" in2="BackgroundImageFix" result="shape" />
      <feGaussianBlur stdDeviation="2" result="effect0_gaussianBlur" />
    </filter>
    <path d="M128 0L128 0L128 128L0 128L0 0L128 0Z" id="path_1" />
    <path d="M59.0155 11.2421C59.0155 24.5397 45.8037 35.3189 29.5079 35.3189C28.7211 35.3189 27.3994 35.1166 26.9177 35.9018C26.436 36.6835 27.4971 37.8903 28.1091 38.5812C34.4793 45.7879 43.7209 46.6948 46.1466 46.9331L46.5288 46.9708C25.1211 49.0416 0.0071907 35.3652 0.000331879 11.5936C-0.0219555 7.63566 1.07946 3.75269 3.17686 0.395992L26.1617 21.2723C27.7971 22.7568 30.5519 22.7568 32.1873 21.2723L55.6076 0C57.7847 3.35652 59.0155 7.18275 59.0155 11.2421L59.0155 11.2421Z" id="path_2" />
    <clipPath id="clip_1">
      <use xlink:href="#path_1" clip-rule="evenodd" fill-rule="evenodd" />
    </clipPath>
    <clipPath id="clip_2">
      <use xlink:href="#path_2" clip-rule="evenodd" fill-rule="evenodd" />
    </clipPath>
  </defs>
  <g id="com.mozilla.Thunderbird">
    <path d="M128 0L128 0L128 128L0 128L0 0L128 0Z" id="com.mozilla.Thunderbird" fill="none" stroke="none" />
    <g id="tunderbird" transform="translate(4 9.12)" clip-path="url(#clip_1)">
      <path d="M49.7307 19.6557L49.741 19.6557C53.5193 6.44734 69.983 0 86.7605 0C98.3541 0 108.761 3.67023 115.896 9.49701C111.638 9.69775 107.434 10.5333 103.423 11.9758C109.188 14.1187 114.141 17.4152 117.811 21.4934C115.042 21.0167 112.234 20.8044 109.425 20.8591C116.329 30.8607 120.018 42.7305 119.998 54.8838C119.998 88.0205 93.1358 114.883 59.9992 114.883C27.3733 114.883 0 87.5662 0 54.8838C0 49.7222 0.685705 44.3925 2.01769 39.3937C2.3674 38.3446 2.85424 37.3383 3.50052 36.9698C4.30965 36.5086 5.04679 37.8835 5.16507 38.3309C6.04243 41.6171 7.22287 44.8147 8.69131 47.8828C8.56274 41.0326 11.489 34.7927 15.5141 29.3962C18.1986 25.7979 20.6877 22.4637 21.8363 12.8415C21.9134 12.1953 22.5254 11.7307 23.1443 11.933C31.8801 14.7924 36.5498 29.3396 35.8246 41.504C40.6503 42.1948 40.628 37.1532 40.628 37.1532C39.0852 32.4115 40.1137 23.5985 49.7136 19.6557L49.7307 19.6557L49.7307 19.6557Z" id="Forma" fill="url(#gradient_1)" stroke="none" />
      <path d="M118.035 39.6046C119.494 72.6041 92.3661 101.056 59.286 101.056C28.3179 101.056 2.94163 77.1195 0.646238 46.7393C0.2367 49.5842 0.021389 52.4537 0.00167408 55.3278C0.23653 87.8336 27.543 114.883 60.0008 114.883C93.1375 114.883 120 88.0205 120 54.8838C120 49.6039 119.316 44.4834 118.035 39.6046L118.035 39.6046Z" id="Forma" fill="url(#gradient_2)" fill-opacity="0.9" stroke="none" />
      <path d="M58.537 24.0288C57.8907 22.8854 54.9062 21.1934 53.6016 20.8986C58.5387 5.0845 83.6903 0.22971 99.0844 3.02739C105.491 4.19309 113.469 7.68332 115.896 9.49701C108.761 3.67024 98.3524 0 86.7606 0C69.9831 0 53.5193 6.44734 49.7411 19.6557L49.7137 19.6557C40.1138 23.5985 39.0852 32.415 40.6281 37.1549C42.1092 31.4996 49.1565 24.5499 58.537 24.0288L58.537 24.0288Z" id="Forma" fill="url(#gradient_3)" style="mix-blend-mode: screen;" stroke="none" />
      <path d="M75.9726 13.1072C62.4951 15.7592 58.0911 16.6266 53.5809 20.914C58.6465 7.50332 71.5772 4.78451 86.985 10.8976C83.3178 11.6536 79.6471 12.3907 75.9726 13.109L75.9726 13.1072L75.9726 13.1072Z" id="Forma" fill="url(#gradient_4)" stroke="none" />
      <path d="M3.25706 37.5578C-0.42517 52.633 2.4205 70.3516 19.1483 85.2211C14.1683 79.7749 8.08785 59.6666 21.5054 45.3011C22.4088 44.3325 23.9636 45.0439 24.0133 46.3674C25.119 76.2229 49.2096 94.4575 76.984 91.0479C68.3784 90.5645 39.9183 80.596 61.0894 76.6532C72.155 74.591 89.505 71.3596 89.505 55.7906C89.505 30.5533 69.9916 23.1751 58.158 24.2722C50.0598 25.0231 42.8514 30.1624 40.6331 37.1515C41.4851 39.9063 38.0891 41.8348 35.8246 41.5108C36.5515 29.3482 31.8818 14.7924 23.1442 11.933C22.5271 11.7307 21.9134 12.1953 21.8362 12.8415C20.6877 22.4637 18.1986 25.7979 15.5157 29.3962C11.4889 34.7944 8.5627 41.0326 8.69127 47.8828C7.22284 44.8147 6.0424 41.6171 5.16504 38.3309C5.06732 37.9606 4.53076 36.9269 3.88277 36.8789C3.53135 36.8532 3.34449 37.1961 3.25706 37.5578L3.25706 37.5578Z" id="Forma" fill="url(#gradient_5)" stroke="none" />
      <path d="M53.6547 78.1806C69.9471 91.4096 102.712 81.4909 102.712 49.3262C89.4845 69.3762 72.6367 83.2068 53.6564 78.1806L53.6547 78.1806L53.6547 78.1806Z" id="Forma" fill="url(#gradient_6)" style="mix-blend-mode: screen;" stroke="none" />
      <path d="M21.5055 45.3011C21.6536 45.1353 21.8403 45.0086 22.0489 44.932C22.2577 44.8555 22.4819 44.8315 22.702 44.8622C10.6919 59.5106 20.3792 85.2365 27.0271 91.557C27.3991 92.6096 20.7204 87.1359 19.7998 85.8554C14.7427 81.5646 7.49482 60.3026 21.5055 45.3011L21.5055 45.3011Z" id="Forma" fill="url(#gradient_7)" style="mix-blend-mode: screen;" stroke="none" />
      <path d="M59.9992 79.3926C76.295 79.3926 89.5068 68.6133 89.5068 55.3158C89.5068 42.0183 76.295 31.239 59.9992 31.239C46.0965 31.239 30.4847 40.2834 30.4916 55.6672C30.4985 79.4389 55.6124 93.1153 77.0201 91.0444C75.4121 90.8576 65.3803 90.3244 58.6003 82.6548C57.9884 81.964 56.9272 80.7572 57.4089 79.9737C57.8889 79.1903 59.2123 79.3909 59.9975 79.3909L59.9992 79.3926L59.9992 79.3926Z" id="Forma" fill="url(#gradient_8)" stroke="none" />
      <path d="M86.2924 44.3754L62.9716 66.6916C60.9025 68.1625 58.6997 68.2688 56.526 66.9351L33.6526 44.4577C34.3052 43.4089 35.0387 42.4127 35.8469 41.4783L38.2468 43.724C44.2536 49.3536 49.1101 53.9015 55.9551 59.7437C59.0442 62.3803 60.0042 62.3288 63.035 59.7437C70.8658 53.0581 76.5931 48.001 84.0382 41.3514C84.8679 42.2987 85.6211 43.3105 86.2907 44.3771L86.2924 44.3754L86.2924 44.3754Z" id="Forma" fill="#FFFFFF" fill-opacity="0.6" stroke="none" />
      <g id="Grupo-de-máscaras" transform="translate(30.491259 44.07367)">
        <path d="M59.0155 11.2421C59.0155 24.5397 45.8037 35.3189 29.5079 35.3189C28.7211 35.3189 27.3994 35.1166 26.9177 35.9018C26.436 36.6835 27.4971 37.8903 28.1091 38.5812C34.4793 45.7879 43.7209 46.6948 46.1466 46.9331L46.5288 46.9708C25.1211 49.0416 0.0071907 35.3652 0.000331879 11.5936C-0.0219555 7.63566 1.07946 3.75269 3.17686 0.395992L26.1617 21.2723C27.7971 22.7568 30.5519 22.7568 32.1873 21.2723L55.6076 0C57.7847 3.35652 59.0155 7.18275 59.0155 11.2421L59.0155 11.2421Z" id="Forma" fill="none" stroke="none" />
        <g clip-path="url(#clip_2)">
          <g id="Group" transform="translate(-6.8570557 -15.085503)">
            <path d="M0 0L74.5818 0L74.5818 67.6221L0 67.6221L0 0L0 0Z" id="Forma" fill="url(#gradient_9)" fill-opacity="0.7" stroke="none" />
            <path d="M29.4919 37.9398C25.1463 33.4176 12.1317 18.3922 12.1317 18.3922L13.138 18.4368L33.5135 33.6542C35.0392 34.7633 37.2163 34.7513 38.7283 33.6285L58.7079 18.4573L59.7673 18.3733C59.7673 18.3733 47.1778 33.0422 42.3556 37.8747C37.5335 42.7071 33.8375 42.462 29.4919 37.9398L29.4919 37.9398Z" id="Group" fill="#458FCD" fill-rule="evenodd" stroke="none" filter="url(#filter_1)" />
          </g>
        </g>
      </g>
      <path d="M64.1391 19.1946C67.2967 18.2003 67.019 15.0752 67.019 15.0752C67.019 15.0752 65.4402 13.2152 62.3117 14.2455C59.3837 15.2106 58.9294 17.2969 58.9294 17.2969C58.9294 17.2969 60.5288 20.3311 64.1391 19.1946L64.1391 19.1946Z" id="Forma" fill="#FFFFFF" stroke="none" />
    </g>
  </g>
</svg>