<?xml version="1.0" encoding="utf-8"?>
<svg width="128" height="128" viewBox="0 0 128 128" fill="none" xmlns="http://www.w3.org/2000/svg">
<defs>
<linearGradient id="gradient" gradientUnits="userSpaceOnUse" x1="54.294" y1="107.236" x2="54.159" y2="0.411">
<stop offset="0" stop-color="#D72525"/>
<stop offset="1" stop-color="#E25858"/>
</linearGradient>
</defs>
<circle r="57" cx="64" cy="64" fill="url(#gradient)" stroke="white" stroke-width="6"/>
<path d="M56.0052 4.02234C52.3891 4.02234 47.7147 3.57541 40.0415 2.23463C33.1621 1.16201 29.2815 0.62569 26.5473 0.62569C25.93 0.62569 25.4008 0.62569 24.8716 0.715076C14.8171 1.51955 2.11673 8.84916 0.0881977 18.5028C0 19.0391 0 19.7542 0 20.4693C0 23.0614 0.793774 24.4916 1.85214 26.1006C2.55772 26.9944 4.85084 29.229 5.02724 29.229C5.29183 29.1397 12.3476 23.2402 12.3476 23.0614C12.2594 22.9721 12.2594 22.7933 12.2594 22.6145C12.1712 22.3464 12.083 22.257 11.3774 21.81C10.0545 20.9162 9.34889 20.4693 8.37873 19.3966C6.96757 17.9665 6.0856 16.8938 6.0856 14.5698C6.0856 12.9609 6.61478 12.3352 7.40856 11.5307C9.0843 9.83239 11.2892 9.11731 14.4643 9.11731C17.3748 9.11731 19.9325 9.65362 24.166 10.4581C28.1349 11.0838 33.8677 12.1564 34.0441 12.2458C34.2205 12.2458 34.0441 12.4246 33.4267 13.0503C29.2814 16.6257 25.5772 21.1843 22.8431 26.1005L22.2257 27.2626C23.6368 30.0335 25.2244 32.2681 29.3696 36.2011C32.0156 38.7933 33.1621 39.9553 34.0441 41.1173C35.1907 42.5475 35.7198 43.4413 35.7198 44.4246C35.7198 46.2123 34.9261 47.3743 33.6913 48.6257L33.0739 49.3408L25.1362 49.3408L23.8132 50.0559C18.786 52.648 13.6705 56.3129 8.37872 60.9609C8.37872 61.0503 8.46692 61.4972 8.64331 62.0335L8.81971 63.0168L9.78987 62.3017C13.0532 59.7989 16.0519 58.1899 18.0804 57.743C18.6096 57.6536 19.8443 57.5642 21.0791 57.5642C21.7847 57.5642 22.5785 57.5642 23.0194 57.6536C25.2244 57.9218 27.5175 58.6369 32.1037 60.514C37.6602 62.7486 40.4825 63.6425 43.7458 63.9106C44.3632 64 44.7159 64 45.0687 64C45.7743 64 46.1271 63.8212 47.3619 62.9274C52.3009 59.5307 58.2101 54.9721 61.2088 52.2011L61.6498 51.6648L61.2088 50.6816C60.9442 50.1452 60.6796 49.6983 60.6796 49.6983C60.5914 49.6983 60.2386 49.9665 59.7977 50.2346C56.6226 52.2011 53.2711 53.8101 51.0661 54.4358C50.5369 54.6145 49.7432 54.6145 48.9494 54.6145C48.332 54.6145 47.7146 54.6145 47.2737 54.5251C45.5097 54.0782 43.4812 53.3631 40.7471 52.2011C38.6303 51.3073 36.0726 50.1453 36.0726 50.0559L37.3956 48.8939C40.4825 46.2123 42.952 43.7989 44.0986 42.1899C45.0687 40.9386 45.6861 39.5978 45.6861 38.7039C45.6861 37.095 44.0104 34.771 40.2179 31.1955C36.6018 27.6201 35.367 26.2793 34.2205 24.581C33.1621 22.9721 32.7211 21.8101 32.7211 20.5587C32.7211 17.162 34.9261 14.4804 37.9248 12.9609L39.7769 13.3184C43.2166 13.8547 46.1271 14.1229 48.6848 14.1229C51.3307 14.1229 53.7121 13.8547 55.8288 13.2291L56.9754 12.9609L62.0026 8.04469C65.3541 4.82682 67.2062 3.12849 68 2.14525L67.2944 0C64.5603 2.23463 60.415 4.02235 56.0052 4.02235L56.0052 4.02234Z" fill="#FFFFFF" transform="translate(30 32)"/>
</svg>
