<?xml version="1.0" encoding="utf-8"?>
<svg width="128" height="128" viewBox="0 0 128 128" xmlns="http://www.w3.org/2000/svg">
<defs>
<linearGradient id="gradient" x1="0" y1="0" x2="0" y2="100%">
<stop offset="0" stop-color="#E25858"/>
<stop offset="1" stop-color="#D72525"/>
</linearGradient>
</defs>
<circle r="57" cx="64" cy="64" fill="url(#gradient)" stroke="white" stroke-width="6"/>
<path d="M56 4C52.4 4 47.7 3.575 40 2.2346C33.16 1.16 29.3 0.626 26.55 0.626C26 0.626 25.4 0.626 25 0.715C14.82 1.52 2.12 8.85 0 18.5C0 19 0 19.75 0 20.5C0 23 0.8 24.5 1.85 26.1C2.5577 27 4.85 29.23 5 29.23C5.3 29.14 12.3476 23.24 12.3476 23C12.26 23 12.26 22.8 12.26 22.6145C12.1712 22.3464 12 22.257 11.3774 21.81C10 20.9162 9.35 20.47 8.4 19.4C7 18 6 17 6 14.57C6 13 6.615 12.3352 7.4 11.53C9 9.8324 11.3 9.12 14.4643 9.12C17.375 9.12 20 9.6536 24.166 10.46C28.135 11 33.87 12.156 34.0441 12.2458C34.2205 12.246 34 12.4246 33.43 13C29.2814 16.626 25.5772 21.1843 22.843 26.1L22.22 27.2626C23.64 30 25.2244 32.27 29.37 36.2C32 38.8 33.16 40 34 41.1173C35.2 42.5475 35.72 43.44 35.72 44.4246C35.72 46.2 35 47.3743 33.7 48.6257L33.0739 49.34L25.1362 49.34L23.8 50C18.786 52.65 13.7 56.313 8.4 61C8.4 61 8.5 61.5 8.6433 62L8.82 63L9.8 62.3017C13.0532 59.8 16 58.2 18 57.743C18.6 57.6536 19.84 57.5642 21 57.5642C21.8 57.5642 22.5785 57.5642 23.0194 57.6536C25.2244 58 27.5175 58.64 32.1 60.514C37.66 62.7486 40.5 63.6425 43.7458 64C44.3632 64 44.716 64 45 64C45.77 64 46.1271 63.82 47.362 63C52.3 59.53 58.2 55 61.2 52.2L61.65 51.665L61.2 50.7C61 50.145 60.7 49.7 60.7 49.7C60.6 49.7 60.24 50 59.8 50.2346C56.6226 52.2 53.27 53.8 51 54.436C50.54 54.6145 49.7432 54.6 49 54.6145C48.33 54.6145 47.715 54.6145 47.2737 54.5251C45.5 54 43.5 53.3631 40.75 52.2C38.63 51.3 36 50.145 36 50L37.4 49C40.5 46.2 43 43.8 44 42.2C45 41 45.7 39.6 45.7 38.7C45.686 37 44 34.77 40.22 31.1955C36.6 27.62 35.37 26.28 34.22 24.6C33.162 23 32.72 21.8 32.72 20.56C32.72 17.16 34.93 14.5 38 13L39.777 13.32C43.22 13.8547 46.13 14.123 48.685 14.123C51.33 14.123 53.7 13.855 55.83 13.23L57 13L62 8C65.354 4.83 67.2 3.1285 68 2.1452L67.3 0C64.56 2.235 60.415 4 56 4L56 4Z" fill="#FFFFFF" transform="translate(30 32)"/>
</svg>
