<?xml version="1.0" encoding="utf-8"?>
<svg width="128" height="128" viewBox="0 0 128 128" xmlns="http://www.w3.org/2000/svg">
<defs>
<linearGradient id="corners">
<stop offset="0" stop-color="#E5A50A"/>
<stop offset="5%" stop-color="#F6D32D"/>
<stop offset="10%" stop-color="#E5A50A"/>
<stop offset="90%" stop-color="#F5C211"/>
<stop offset="95%" stop-color="#F6D32D"/>
<stop offset="1" stop-color="#E5A50A"/>
</linearGradient>
<linearGradient id="wood" x1="0" y1="0" x2="100%" y2="0">
<stop offset="0" stop-color="#FFFFFF"/>
<stop offset="1" stop-color="#D1BC8E"/>
</linearGradient>
<linearGradient id="eraser" x1="0" y1="0" x2="100%" y2="0">
<stop offset="0" stop-color="#FC9B92"/>
<stop offset="1" stop-color="#CB2B31"/>
</linearGradient>
<linearGradient id="steel" x1="0" y1="0" x2="100%" y2="0">
<stop offset="0" stop-color="#F5F4F2"/>
<stop offset="22%" stop-color="#D6D5D2"/>
<stop offset="74%" stop-color="#9A9996"/>
<stop offset="100%" stop-color="#BFBEBB"/>
</linearGradient>
</defs>
<rect width="104" height="104" rx="8" x="12" y="12" fill="url(#corners)"/>
<rect width="104" height="92" rx="8" x="12" y="12" fill="#F9F06B"/>
<g fill="#000000" opacity="30%">
<path d="M42 0C42 4 38.6 7.35 34.5 7.35L0 7.35L34 8.35L34.5 8.35C37.75 8.35 40.6 6.5 42 3.85Z" transform="translate(74 100.65)"/>
<path d="M42 0C42 4 38.6 7.35 34.5 7.35L0 7.35L34 8.35L34.5 8.35C37.75 8.35 40.6 6.5 42 3.85Z" transform="translate(74 104.65)"/>
</g><g transform="translate(32 -25) rotate(45, 10, 111)">
<path d="M0 0L10 14L20 0Z" fill="url(#wood)" transform="translate(0 97)"/>
<path d="M0 0L5 7L10 0Z" fill="#3D3846" transform="translate(5 104)"/>
<rect width="20" height="32" rx="10" fill="url(#eraser)"/>
<rect width="6" height="75" x="14" y="22" fill="#E66100"/>
<rect width="8" height="75" x="6" y="22" fill="#FF881E"/>
<rect width="6" height="75" y="22" fill="#FFB367"/>
<rect width="20" height="8" y="14" fill="url(#steel)"/>
</g></svg>
