<?xml version="1.0" encoding="utf-8"?>
<svg width="128" height="128" viewBox="0 0 128 128" xmlns="http://www.w3.org/2000/svg">
<defs>
<linearGradient id="corners">
<stop offset="0" stop-color="#000000"/>
<stop offset="4%" stop-color="#FFFFFF" stop-opacity="50%"/>
<stop offset="8%" stop-color="#000000"/>
<stop offset="92%" stop-color="#000000"/>
<stop offset="96%" stop-color="#FFFFFF" stop-opacity="50%"/>
<stop offset="1" stop-color="#000000"/>
</linearGradient>
<linearGradient id="down" x1="0" y1="0" x2="0" y2="1">
<stop offset="0" stop-color="#DE3E80"/>
<stop offset="1" stop-color="#90193A"/>
</linearGradient>
<linearGradient id="up" x1="0" y1="0" x2="0" y2="1">
<stop offset="0" stop-color="#910E38"/>
<stop offset="1" stop-color="#DE3E80"/>
</linearGradient>
<linearGradient id="white" x1="0" y1="0" x2="0" y2="1">
<stop offset="0" stop-color="#ABACAE"/>
<stop offset="30%" stop-color="#FAFAFA"/>
</linearGradient>
<linearGradient id="silver" x1="0" y1="0" x2="0" y2="1">
<stop offset="0" stop-color="#D4D4D4"/>
<stop offset="1" stop-color="#FAFAFA"/>
</linearGradient>
<radialGradient id="button" cx="50%" cy="75%" r="1">
<stop offset="0" stop-color="#7E8087"/>
<stop offset="1" stop-color="#FAFAFA"/>
</radialGradient>
</defs>
<rect width="112" height="88" rx="8" x="8" y="28" fill="url(#down)"/>
<path d="M0 0C0 4.4 3.6 8 8 8L104 8C108.4 8 112 4.4 112 0L112 8C112 12.4 108.4 16 104 16L8 16C3.6 16 0 12.4 0 8Z" fill="url(#corners)" transform="translate(8 100)" opacity="30%"/>
<rect width="98" height="30" rx="3" x="15" y="35" fill="url(#white)" stroke="url(#up)" stroke-width="2"/>
<path d="M0 0L0 17M6 3L6 14M14 3L14 14M20 0L20 17M26 3L26 14M34 3L34 14M40 0L40 17M46 3L46 14M54 3L54 14M60 0L60 17M66 3L66 14M74 3L74 14M80 0L80 17" fill="none" stroke="#ABACAE" stroke-width="2" transform="translate(23 41)"/>
<line x1="53" y1="36" x2="53" y2="64" stroke="#DE3E80" stroke-width="2"/>
<circle r="16" cx="64" cy="86" fill="url(#silver)"/>
<g stroke-width="1">
<circle r="12.5" cx="64" cy="86" fill="#273445" stroke="#DE3E80"/>
<circle r="10.5" cx="64" cy="86" fill="url(#button)" stroke="#ABACAE"/>
</g><g fill="#101520" stroke="url(#up)" stroke-width="2">
<rect width="26" height="6" rx="3" x="15" y="73"/>
<rect width="26" height="6" rx="3" x="15" y="83"/>
<rect width="26" height="6" rx="3" x="15" y="93"/>
<rect width="26" height="6" rx="3" x="87" y="73"/>
<rect width="26" height="6" rx="3" x="87" y="83"/>
<rect width="26" height="6" rx="3" x="87" y="93"/>
</g></svg>
