<?xml version="1.0" encoding="utf-8"?>
<svg width="128" height="128" viewBox="0 0 128 128" xmlns="http://www.w3.org/2000/svg">
<defs>
<linearGradient id="grdnt1">
<stop offset="0" stop-color="#3D3846"/>
<stop offset="5%" stop-color="#77767B"/>
<stop offset="10%" stop-color="#5E5C64"/>
<stop offset="90%" stop-color="#5E5C64"/>
<stop offset="95%" stop-color="#77767B"/>
<stop offset="1" stop-color="#3D3846"/>
</linearGradient>
<linearGradient id="grdnt2">
<stop offset="0" stop-color="#424048"/>
<stop offset="5%" stop-color="#F6F5F4"/>
<stop offset="10%" stop-color="#949390"/>
<stop offset="90%" stop-color="#D5D3CF"/>
<stop offset="95%" stop-color="#F6F5F4"/>
<stop offset="1" stop-color="#424048"/>
</linearGradient>
<linearGradient id="grdnt3" x1="0" y1="0" x2="0" y2="1">
<stop offset="0" stop-color="#F6F5F4"/>
<stop offset="1" stop-color="#C0BFBC"/>
</linearGradient>
<linearGradient id="hole" x1="0" y1="0" x2="0" y2="1">
<stop offset="0" stop-color="#000000" stop-opacity="25%"/>
<stop offset="1" stop-color="#000000" stop-opacity="3%"/>
</linearGradient>
<radialGradient id="ball" cx="50%" cy="25%">
<stop offset="0" stop-color="#949390"/>
<stop offset="1" stop-color="#424048"/>
</radialGradient>
<filter id="under">
<feDropShadow dx="0" dy="2" flood-color="#9A9996" stdDeviation="0"/>
</filter>
<filter id="tool">
<feDropShadow dx="-2" dy="2" flood-color="#5E5C64" stdDeviation="0"/>
</filter>
</defs>
<rect width="88" height="32" rx="8" x="20" y="88" fill="url(#grdnt1)"/>
<rect width="88" height="26" rx="8" x="20" y="88" fill="url(#grdnt2)"/>
<rect width="88" height="104" rx="8" x="20" y="8" fill="#F6F5F4"/>
<path d="M14 0C11.8 0 10 1.8 10 4C10 7.3 7.3 10 4 10C1.8 10 0 11.8 0 14C0 14 0 22 0 22C0 24.2 1.8 26 4 26C7.3 26 10 28.7 10 32C10 33.5 9.45 35 8.5 36C2.5 42.5 0 51 0 60C0 80 20 96 40 96C60 96 80 80 80 60C80 51 77.5 42.5 71.5 36C70.55 35 70 33.5 70 32C70 28.7 72.7 26 76 26C78.2 26 80 24.2 80 22L80 14C80 11.8 78.2 10 76 10C72.7 10 70 7.3 70 4C70 1.8 68.2 0 66 0ZM40 52C43.3 52 46 54.7 46 58C46 61.3 43.3 64 40 64C36.7 64 34 61.3 34 58C34 54.7 36.7 52 40 52Z" fill="url(#grdnt3)" filter="url(#under)" transform="translate(24 10)"/>
<g fill="url(#hole)">
<circle r="4" cx="28" cy="106"/>
<circle r="4" cx="100" cy="106"/>
<circle r="4" cx="100" cy="16"/>
<circle r="4" cx="28" cy="16"/>
</g><g fill="url(#ball)">
<circle r="2" cx="28" cy="106"/>
<circle r="2" cx="100" cy="106"/>
<circle r="2" cx="100" cy="16"/>
<circle r="2" cx="28" cy="16"/></g>
<path d="M0 34C4.7 38.3 11.5 41 18.5 41C32.5 41 44.5 30 44.5 17C44.5 10 41.7 4.3 37 0" fill="none" stroke="#DD4814" stroke-width="4" opacity="70%" transform="translate(45.5 52)"/>
<path d="M64 32C64 50 32 76 32 76C32 76 0 50 0 32C0 14 14 0 32 0C50 0 64 14 64 32Z" fill="#DD4814" transform="translate(12 12)"/>
<g fill="#FFFFFF" stroke="#DD4814" stroke-width="4" transform="translate(18 21)">
<circle r="18" cx="26" cy="23" fill="none" stroke="#FFFFFF" stroke-width="5"/>
<circle r="8" cx="8" cy="21"/>
<circle r="8" cx="35" cy="8"/>
<circle r="8" cx="33" cy="39"/>
</g></svg>
