<?xml version="1.0" encoding="utf-8"?>
<svg width="128" height="128" viewBox="0 0 128 128" fill="none" xmlns="http://www.w3.org/2000/svg">
  <defs>
    <linearGradient id="gradient_1" gradientUnits="userSpaceOnUse" x1="-0" y1="60" x2="80.001" y2="60">
      <stop offset="0" stop-color="#3D3846" />
      <stop offset="0.045" stop-color="#5E5C64" />
      <stop offset="0.091" stop-color="#3D3846" />
      <stop offset="0.909" stop-color="#3D3846" />
      <stop offset="0.955" stop-color="#5E5C64" />
      <stop offset="1" stop-color="#3D3846" />
    </linearGradient>
    <linearGradient id="gradient_2" gradientUnits="userSpaceOnUse" x1="0.25" y1="26.25" x2="80" y2="26.25">
      <stop offset="0" stop-color="#424048" />
      <stop offset="0.047" stop-color="#F6F5F4" />
      <stop offset="0.097" stop-color="#949390" />
      <stop offset="0.9" stop-color="#D5D3CF" />
      <stop offset="0.95" stop-color="#F6F5F4" />
      <stop offset="1" stop-color="#424048" />
    </linearGradient>
    <linearGradient id="gradient_3" gradientUnits="userSpaceOnUse" x1="62.75" y1="99.25" x2="56.75" y2="2">
      <stop offset="0" stop-color="#F6F5F4" />
      <stop offset="1" stop-color="#FFFFFF" />
    </linearGradient>
    <radialGradient id="gradient_4" gradientUnits="userSpaceOnUse" cx="0" cy="0" r="1" gradientTransform="matrix(4 0 0 4 4 2.895)">
      <stop offset="0" stop-color="#000000" stop-opacity="0.251" />
      <stop offset="1" stop-color="#000000" stop-opacity="0.031" />
    </radialGradient>
    <radialGradient id="gradient_5" gradientUnits="userSpaceOnUse" cx="0" cy="0" r="1" gradientTransform="matrix(2.751 0 0 2.751 2 0.939)">
      <stop offset="0" stop-color="#949390" />
      <stop offset="1" stop-color="#424048" />
    </radialGradient>
    <linearGradient id="gradient_6" gradientUnits="userSpaceOnUse" x1="34.25" y1="74.25" x2="34.25" y2="14.961">
      <stop offset="0" stop-color="#C0BFBC" />
      <stop offset="1" stop-color="#F6F5F4" />
    </linearGradient>
  </defs>
    <path id="Rectángulo" d="M0 16L0 8C0 5.79086 0.781048 3.90524 2.34315 2.34315C3.90524 0.781048 5.79086 0 8 0L72 0C74.2091 0 76.0948 0.781048 77.6569 2.34315C79.2189 3.90524 80 5.79086 80 8L80 62C80 64.2091 79.2189 66.0948 77.6569 67.6569C76.0948 69.2189 74.2091 70 72 70L8 70C5.79086 70 3.90524 69.2189 2.34315 67.6568C0.781048 66.0947 0 64.2091 0 62L0 16Z" fill="url(#gradient_1)" fill-rule="evenodd" transform="translate(24 50)" />
    <path id="Rectángulo" d="M0 16L0 8C0 5.79086 0.781048 3.90524 2.34315 2.34315C3.90524 0.781048 5.79086 0 8 0L72 0C74.2091 0 76.0948 0.781048 77.6569 2.34315C79.2189 3.90524 80 5.79086 80 8L80 62C80 64.2091 79.2189 66.0948 77.6569 67.6569C76.0948 69.2189 74.2091 70 72 70L8 70C5.79086 70 3.90524 69.2189 2.34315 67.6568C0.781048 66.0947 0 64.2091 0 62L0 16Z" fill="url(#gradient_2)" fill-rule="evenodd" transform="translate(24 44)" />
    <path id="Rectángulo" d="M0 16.9143L0 8.45714C0 6.12177 0.781048 4.1284 2.34315 2.47704C3.90524 0.82568 5.79086 0 8 0L72 0C74.2091 0 76.0948 0.82568 77.6569 2.47704C79.2189 4.1284 80 6.12177 80 8.45714L80 95.5429C80 97.8782 79.2189 99.8716 77.6569 101.523C76.0948 103.174 74.2091 104 72 104L8 104C5.79086 104 3.90524 103.174 2.34315 101.523C0.781048 99.8716 0 97.8782 0 95.5429L0 16.9143Z" fill="url(#gradient_3)" fill-rule="evenodd" transform="translate(24 8)" />
    <g id="j" transform="translate(28 100)">
      <path d="M0 4C0 1.79086 1.79086 0 4 0C6.20914 0 8 1.79086 8 4C8 6.20914 6.20914 8 4 8C1.79086 8 0 6.20914 0 4Z" fill="url(#gradient_4)" fill-rule="evenodd" />
      <path d="M0 2C0 0.895431 0.895431 0 2 0C3.10457 0 4 0.895431 4 2C4 3.10457 3.10457 4 2 4C0.895431 4 0 3.10457 0 2Z" fill="url(#gradient_5)" fill-rule="evenodd" transform="translate(2 2)" />
    </g>
    <path id="Forma" d="M14 0C11.784 0 10 1.784 10 4C10 7.31371 7.31371 10 4 10C1.784 10 1.90735e-06 11.784 1.90735e-06 14C1.90735e-06 14 1.90735e-06 22 1.90735e-06 22C1.90735e-06 24.216 1.784 26 4 26C7.31371 26 10 28.6863 10 32C9.997 33.4771 9.44985 34.9014 8.4624 36C2.54023 42.5926 0.0141811 51.138 0 60C0 79.8823 16.1178 96 36 96C55.8822 96 72 79.8823 72 60C71.9841 51.1372 69.4611 42.5917 63.5366 36C62.5495 34.9012 62.0024 33.477 62 32C62 28.6863 64.6863 26 68 26C70.216 26 72 24.216 72 22C72 22 72 14 72 14C72 11.784 70.216 10 68 10C64.6863 10 62 7.31371 62 4C62 1.784 60.216 0 58 0C58 0 14 0 14 0ZM36 56C39.3137 56 42 58.6863 42 62C42 65.3137 39.3137 68 36 68C32.6863 68 30 65.3137 30 62C30 58.6863 32.6863 56 36 56C36 56 36 56 36 56Z" fill="#9A9996" transform="translate(28 12)" />
    <path id="Forma" d="M14 0C11.784 0 10 1.784 10 4C10 7.31371 7.31371 10 4 10C1.784 10 1.90735e-06 11.784 1.90735e-06 14C1.90735e-06 14 1.90735e-06 22 1.90735e-06 22C1.90735e-06 24.216 1.784 26 4 26C7.31371 26 10 28.6863 10 32C9.997 33.4771 9.44985 34.9014 8.4624 36C2.54023 42.5926 0.0141811 51.138 0 60C0 79.8823 16.1178 96 36 96C55.8822 96 72 79.8823 72 60C71.9841 51.1372 69.4611 42.5917 63.5366 36C62.5495 34.9012 62.0024 33.477 62 32C62 28.6863 64.6863 26 68 26C70.216 26 72 24.216 72 22C72 22 72 14 72 14C72 11.784 70.216 10 68 10C64.6863 10 62 7.31371 62 4C62 1.784 60.216 0 58 0C58 0 14 0 14 0ZM36 56C39.3137 56 42 58.6863 42 62C42 65.3137 39.3137 68 36 68C32.6863 68 30 65.3137 30 62C30 58.6863 32.6863 56 36 56C36 56 36 56 36 56Z" fill="url(#gradient_6)" transform="translate(28 10)" />
    <g id="j#1" transform="translate(92 100)">
      <path d="M0 4C0 1.79086 1.79086 0 4 0C6.20914 0 8 1.79086 8 4C8 6.20914 6.20914 8 4 8C1.79086 8 0 6.20914 0 4Z" fill="url(#gradient_4)" fill-rule="evenodd" />
      <path d="M0 2C0 0.895431 0.895431 0 2 0C3.10457 0 4 0.895431 4 2C4 3.10457 3.10457 4 2 4C0.895431 4 0 3.10457 0 2Z" fill="url(#gradient_5)" fill-rule="evenodd" transform="translate(2 2)" />
    </g>
    <g id="j#1" transform="translate(92 40)">
      <path d="M0 4C0 1.79086 1.79086 0 4 0C6.20914 0 8 1.79086 8 4C8 6.20914 6.20914 8 4 8C1.79086 8 0 6.20914 0 4Z" fill="url(#gradient_4)" fill-rule="evenodd" />
      <path d="M0 2C0 0.895431 0.895431 0 2 0C3.10457 0 4 0.895431 4 2C4 3.10457 3.10457 4 2 4C0.895431 4 0 3.10457 0 2Z" fill="url(#gradient_5)" fill-rule="evenodd" transform="translate(2 2)" />
    </g>
    <g id="j#1" transform="translate(92 12)">
      <path d="M0 4C0 1.79086 1.79086 0 4 0C6.20914 0 8 1.79086 8 4C8 6.20914 6.20914 8 4 8C1.79086 8 0 6.20914 0 4Z" fill="url(#gradient_4)" fill-rule="evenodd" />
      <path d="M0 2C0 0.895431 0.895431 0 2 0C3.10457 0 4 0.895431 4 2C4 3.10457 3.10457 4 2 4C0.895431 4 0 3.10457 0 2Z" fill="url(#gradient_5)" fill-rule="evenodd" transform="translate(2 2)" />
    </g>
    <g id="j#1" transform="translate(28 12)">
      <path d="M0 4C0 1.79086 1.79086 0 4 0C6.20914 0 8 1.79086 8 4C8 6.20914 6.20914 8 4 8C1.79086 8 0 6.20914 0 4Z" fill="url(#gradient_4)" fill-rule="evenodd" />
      <path d="M0 2C0 0.895431 0.895431 0 2 0C3.10457 0 4 0.895431 4 2C4 3.10457 3.10457 4 2 4C0.895431 4 0 3.10457 0 2Z" fill="url(#gradient_5)" fill-rule="evenodd" transform="translate(2 2)" />
    </g>
    <g id="j#1" transform="translate(28 40)">
      <path d="M0 4C0 1.79086 1.79086 0 4 0C6.20914 0 8 1.79086 8 4C8 6.20914 6.20914 8 4 8C1.79086 8 0 6.20914 0 4Z" fill="url(#gradient_4)" fill-rule="evenodd" />
      <path d="M0 2C0 0.895431 0.895431 0 2 0C3.10457 0 4 0.895431 4 2C4 3.10457 3.10457 4 2 4C0.895431 4 0 3.10457 0 2Z" fill="url(#gradient_5)" fill-rule="evenodd" transform="translate(2 2)" />
    </g>
    <g id="write" transform="translate(12 15)">
      <path id="trace" d="M27.8496 0C12.4474 0.082737 0.00408173 12.5916 0 27.9961C0 43.4622 12.536 56 28 56C43.464 56 56 43.4622 56 27.9961C55.9888 23.6515 54.9668 19.3687 53.0149 15.487C53.0149 15.487 49.4592 17.2655 49.4592 17.2655C51.1274 20.5968 51.9974 24.2708 52.0002 27.9965C52.0002 41.2532 41.2551 51.9999 28.0002 51.9999C14.7454 51.9999 4.00021 41.2532 4.00021 27.9965C4.00021 14.7965 14.6642 4.0715 27.8668 3.99808C27.8668 3.99808 27.8496 0 27.8496 0Z" fill="#DD4814" fill-opacity="0.7" transform="translate(24 28)" />
      <path id="pin" d="M64 31.9992C64 49.673 32.0007 76 32.0007 76C32.0007 76 0 49.673 0 31.9992C0 14.3266 14.3272 0 32.0007 0C49.6744 0 64 14.3264 64 31.9992C64 31.9992 64 31.9992 64 31.9992Z" fill="#DD4814" />
      <g id="ubuntu" transform="translate(7 10)">
        <path id="circle288" d="M0 6.7C0 2.99969 2.99969 0 6.7 0C10.4003 0 13.4 2.99969 13.4 6.7C13.4 10.4003 10.4003 13.4 6.7 13.4C2.99969 13.4 0 10.4003 0 6.7Z" fill="#FFFFFF" fill-rule="evenodd" transform="translate(0 14.68)" />
        <path id="circle290" d="M0 6.7C0 2.99969 2.99969 0 6.7 0C10.4003 0 13.4 2.99969 13.4 6.7C13.4 10.4003 10.4003 13.4 6.7 13.4C2.99969 13.4 0 10.4003 0 6.7Z" fill="#FFFFFF" fill-rule="evenodd" transform="translate(27.84 0)" />
        <path id="path292" d="M16.8 8.5C12.0024 7.49661 7.9195 4.37005 5.7 0C3.91489 0.805767 1.92703 1.04989 0 0.700001C2.709 7.432 8.5983 12.3685 15.7 13.86C17.2572 14.1978 18.8466 14.3655 20.44 14.36C19.1862 12.7582 18.4846 10.7936 18.44 8.75999C17.8837 8.75271 17.3313 8.66514 16.8 8.5C16.8 8.5 16.8 8.5 16.8 8.5Z" fill="#FFFFFF" transform="translate(5 30.08)" />
        <path id="circle294" d="M0 6.7C0 2.99969 2.99969 0 6.7 0C10.4003 0 13.4 2.99969 13.4 6.7C13.4 10.4003 10.4003 13.4 6.7 13.4C2.99969 13.4 0 10.4003 0 6.7Z" fill="#FFFFFF" fill-rule="evenodd" transform="translate(26.34 31.94)" />
        <path id="path296" d="M3.2 25.66C9.0395 18.2306 9.48226 7.90192 4.30001 0C3.52363 1.81512 2.21189 3.35014 0.540001 4.4C2.34425 7.80301 2.89637 11.7315 2.1 15.5C1.7084 17.3425 0.997704 19.1023 0 20.7C1.58474 21.955 2.70985 23.6989 3.2 25.66C3.2 25.66 3.2 25.66 3.2 25.66Z" fill="#FFFFFF" transform="translate(39.14 10.54)" />
        <path id="path298" d="M0 11.0432C0 11.0432 0.5 11.0432 0.5 11.0432C1.17194 11.0374 1.84252 11.1045 2.5 11.2432C3.57782 11.4866 4.60601 11.9127 5.54 12.5032C8.52471 8.16041 13.431 5.53579 18.7 5.46317C18.7371 4.95967 18.8039 4.4588 18.9 3.96317C19.1979 2.53649 19.8283 1.20026 20.74 0.0631721C12.2888 -0.577386 4.22119 3.69371 1.14441e-05 11.0432C1.14441e-05 11.0432 0 11.0432 0 11.0432Z" fill="#FFFFFF" transform="translate(6.14 0.697)" />
      </g>
    </g>
</svg>