<?xml version="1.0" encoding="utf-8"?>
<svg width="128" height="128" viewBox="0 0 128 128" xmlns="http://www.w3.org/2000/svg">
<defs>
<clipPath id="circle">
<circle r="60" cx="64" cy="64"/>
</clipPath>
<linearGradient id="shadow">
<stop offset="0" stop-color="#000000" stop-opacity="40%"/>
<stop offset="40%" stop-color="#000000" stop-opacity="0"/>
</linearGradient>
</defs>
<g clip-path="url(#circle)">
<rect width="128" height="128" fill="#EF3939"/>
<rect width="70" height="80" fill="url(#shadow)" transform="translate(76 48.5) rotate(30 35 40)"/>
<path d="M78.484 15.2C68.6 32.3366 58.74 49.465 48.88 66.5853C48.1 68.1 46.945 69.4 45.52 70.333C44 71.27 42.445 71.826 40.74 71.942C38.86 72.152 37 71.8 35.283 70.9C33.6 70 32.25 68.6435 31.37 67C25.132 56.255 5.2 21.6224 1.43 15C0.54 13.582 0 11.9 0 10.18C0 8.46 0.366 6.7555 1.183 5.24C2 3.72 3.2 2.442 4.66 1.5266C6.123 0.6 7.8 0.1 9.5236 0C11.38 0 13.23 0.33 14.85 1.242C16.47 2.154 17.8 3.5145 18.6525 5.16C21.4465 9.963 30.864 26.49 32.9 29.9C34.2135 32.26 36.1 34.242 38.4 35.66C40.7 37 43.32 37.8685 46 38C50.1 38.23 54.145 36.9 57.2844 34.264C60.424 31.63 62.4253 27.9 62.876 23.8245C62.876 23.176 62.876 22.53 63 22.2C63 19.62 62.457 17 61.3343 14.77C60.645 13.5 60.245 12.1 60.16 10.64C60.1 9.2 60.3 7.75 60.843 6.4C61.3775 5 62.2 3.8445 63.256 2.85C64.3 1.8555 65.57 1.1 67 0.646C68.325 0.19 69.786 0 71.23 0.2C72.67 0.37 74 0.847 75.3 1.6C76.5322 2.362 77.6 3.38 78.388 4.5874C79.1884 5.8 79.7 7.1625 79.93 8.6C80.2 10.9 79.7 13.22 78.48 15.2C78.484 15.2 78.484 15.2 78.484 15.2Z" fill="#FFFFFF" transform="translate(24 34)"/>
</g></svg>
