<?xml version="1.0" encoding="utf-8"?>
<svg width="128" height="128" viewBox="0 0 128 128" fill="none" xmlns="http://www.w3.org/2000/svg">
  <defs>
    <radialGradient id="gradient_1" gradientUnits="userSpaceOnUse" cx="0" cy="0" r="1" gradientTransform="matrix(-61 62 -60.665 -59.686 80.367 16.869)">
      <stop offset="0" stop-color="#18D378" />
      <stop offset="1" stop-color="#077E44" />
    </radialGradient>
  </defs>
    <path id="Sendero" d="M0 120L8.0125 89.9609C2.75366 80.8435 -0.00863528 70.5009 0.00406885 59.9756C0.01793 26.9046 26.9307 0 60.0024 0C76.0511 0.00815439 91.1147 6.2536 102.444 17.5907C113.773 28.9277 120.006 43.997 120 60.0237C119.985 93.0922 93.0685 120.002 60.0016 120.002L59.9755 120.002C49.935 119.998 40.069 117.479 31.3055 112.7L0 120L0 120Z" fill="#FFFFFF" fill-rule="evenodd" transform="translate(4 4)" />
    <path id="Sendero" d="M49.887 0.00117683C22.3798 0.00117683 0.00984001 22.363 5.34058e-05 49.849C-0.0136919 59.2336 2.62914 68.4315 7.62303 76.3784C7.62303 76.3784 8.80949 78.2645 8.80949 78.2645L3.77089 96.6592L22.645 91.7103C22.645 91.7103 24.4676 92.7899 24.4676 92.7899C32.1221 97.3327 40.8986 99.735 49.8489 99.7399C49.8489 99.7399 49.8677 99.7399 49.8677 99.7399C77.3537 99.7399 99.7236 77.3757 99.7342 49.888C99.7761 36.6545 94.5214 23.9545 85.1418 14.6193C75.8142 5.23307 63.119 -0.0311813 49.8863 0.000139236C49.8863 0.000139236 49.887 0.00117683 49.887 0.00117683Z" fill="url(#gradient_1)" fill-rule="evenodd" transform="translate(14.633 14.131)" />
    <path id="Sendero" d="M15.4917 2.6249C14.368 0.128838 13.1856 0.0782814 12.1182 0.0350647C12.1182 0.0350647 9.24464 0 9.24464 0C8.2449 0 6.62055 0.375103 5.24735 1.87551C3.87415 3.37592 0 7.00217 0 14.3778C0 21.7535 5.37211 28.8804 6.12069 29.8818C6.86926 30.8831 16.4914 46.5012 31.7296 52.5102C44.3925 57.504 46.9693 56.5107 49.7189 56.2612C52.4686 56.0117 58.5885 52.635 59.8369 49.1343C61.0854 45.6336 61.0862 42.6344 60.7119 42.0073C60.3376 41.3803 59.3379 41.0076 57.8375 40.2574C56.3371 39.5072 48.9679 35.881 47.5939 35.3803C46.2199 34.8796 45.221 34.6309 44.2204 36.1313C43.2199 37.6317 40.3504 41.0068 39.4754 42.0073C38.6004 43.0079 37.7271 43.1335 36.2267 42.3841C34.7263 41.6347 29.8989 40.0511 24.1712 34.944C19.7149 30.9704 16.7067 26.0631 15.8309 24.5635C14.9552 23.0639 15.738 22.2517 16.4898 21.5048C17.1625 20.8328 17.9886 19.754 18.7396 18.879C19.4906 18.0041 19.7377 17.3786 20.2368 16.3797C20.7358 15.3808 20.4871 14.5034 20.112 13.754C19.7369 13.0046 16.8241 5.59064 15.4917 2.62571C15.4917 2.62571 15.4917 2.6249 15.4917 2.6249Z" fill="#FFFFFF" fill-rule="evenodd" transform="translate(34.015 36.277)" />
</svg>