<?xml version="1.0" encoding="utf-8"?>
<svg width="128" height="128" viewBox="0 0 128 128" xmlns="http://www.w3.org/2000/svg">
<defs>
<linearGradient id="yellow" x1="0" y1="0" x2="0" y2="1">
<stop offset="0" stop-color="#F7D540"/>
<stop offset="1" stop-color="#F5A705"/>
</linearGradient>
<filter id="shadow">
<feDropShadow dx="0" dy="2" flood-color="#000000" flood-opacity="25%" stdDeviation="1"/>
</filter>
</defs>
<rect width="104" height="104" rx="8" x="12" y="12" fill="url(#yellow)"/>
<path d="M27.17 73.74C28.8 72.13 30.18 70.53 31.346 68.76C32.9 66.4 34.5 64 34.8 61.1C34.9 59.9 34.62 58.86 34.245 57.8C34.1 57.32 33.73 57.3 33.324 57.253C29.1 56.87 24.87 56.55 20.66 56.1C17.357 55.7 14 55.425 11 53.92C5.3 51.12 1.8 46.5 0.673 40.354C-0.42 34.28 -0.28 28.185 1.82 22.27C3.1 18.63 5.22 15.574 8.1 12.94C11.356 10 14.9 7.523 18.8736 5.66C23.57 3.45 28.55 2.1 33.65 1.2C38.12 0.44 42.62 -0.1436 47.173 0C53.68 0.28 59.9 1.68 65.47 5.2C70.86 8.57 74 13.635 75.4 19.7C77 26.6 76.57 33.5 73.726 40C69.6 49.45 62.44 55.3435 52.183 57.2C51.5 57.3 51.1 57.557 50.66 58.1C47.6 62 44.23 65.6 40.253 68.6C37.7544 70.47 35 72 32.2 73.25C30.656 73.94 29.1 74.17 27.17 73.74C27.17 73.74 27.17 73.74 27.17 73.74Z" fill="#FEFEFE" filter="url(#shadow)" transform="translate(26 30)"/>
</svg>
