<?xml version="1.0" encoding="utf-8"?>
<svg width="128" height="128" viewBox="0 0 128 128" fill="none" xmlns="http://www.w3.org/2000/svg">
<defs>
<linearGradient id="gradient_1" gradientUnits="userSpaceOnUse" x1="52" y1="-2.08" x2="52" y2="106.08">
<stop offset="0" stop-color="#1A1A1A"/>
<stop offset="1" stop-color="#050505"/>
</linearGradient>
</defs>
<path d="M0 16L0 8C0 5.79086 0.78105 3.90524 2.34315 2.34315C3.90524 0.78105 5.79086 0 8 0L96 0C98.209 0 100.095 0.78105 101.657 2.34315C103.22 3.90524 104 5.79086 104 8L104 96C104 98.2091 103.22 100.095 101.657 101.657C100.095 103.22 98.2092 104 96 104L8 104C5.79086 104 3.90524 103.219 2.34315 101.657C0.78105 100.095 0 98.2091 0 96L0 16Z" fill="url(#gradient_1)" transform="translate(12 12)"/>
<path d="M7.61581 60.9375C6.64432 60.9375 5.65736 60.7505 4.70407 60.3557C0.817589 58.746 -1.02802 54.2903 0.581768 50.4041C3.05762 44.4271 6.60623 39.0686 11.1294 34.4777C15.8152 29.7216 21.3411 26.0053 27.554 23.4318C36.094 19.8944 42.745 13.2433 46.282 4.7039C47.8918 0.817425 52.3475 -1.0278 56.2336 0.581604C60.12 2.1914 61.9657 6.647 60.356 10.5332C57.88 16.5102 54.3314 21.8687 49.8082 26.4597C45.1225 31.2157 39.5966 34.932 33.3836 37.5055C24.8438 41.0429 18.1927 47.694 14.6557 56.2334C13.4408 59.1665 10.6044 60.9375 7.61581 60.9375C7.61581 60.9375 7.61581 60.9375 7.61581 60.9375ZM38.1008 2.84348C36.1992 6.18941 32.4845 11.6612 26.982 14.7435C26.4093 15.0644 25.7645 15.2353 25.108 15.2353C25.108 15.2353 7.74424 15.2353 7.74424 15.2353C3.56734 15.2353 0.0729446 11.925 0 7.74877C-0.0678368 3.48256 3.36896 0 7.61892 0C7.61892 0.00193787 36.4433 0.00193787 36.4433 0.00193787C37.902 0 38.8217 1.57533 38.1 2.84361C38.1 2.84361 38.1 2.84348 38.1008 2.84348ZM60.9347 53.4488C60.865 57.6251 57.3706 60.9354 53.1937 60.9354C53.1937 60.9354 24.4946 60.9354 24.4946 60.9354C23.036 60.9354 22.1163 59.362 22.837 58.0937C24.7386 54.7478 28.4532 49.276 33.9557 46.1937C34.5285 45.8728 35.1733 45.7019 35.83 45.7019C35.83 45.702 53.32 45.7019 53.319 45.7019C57.57 45.7019 61 49.1825 60.9346 53.4487C60.9346 53.4487 60.9347 53.4488 60.9347 53.4488Z" fill="#FEF9FE" transform="translate(33.53 33.53)"/>
</svg>
