<?xml version="1.0" encoding="utf-8"?>
<svg width="128" height="128" viewBox="0 0 128 128" xmlns="http://www.w3.org/2000/svg">
<defs>
<linearGradient id="greendient" gradientUnits="userSpaceOnUse" x1="0" y1="0" x2="0" y2="104">
<stop offset="0" stop-color="#1BAE7A"/>
<stop offset="1" stop-color="#14825D"/>
</linearGradient>
</defs>
<rect width="104" height="104" rx="8" fill="url(#greendient)" transform="translate(12 12)"/>
<path id="Z" d="M22.6533 74.6667C23.8378 72.1242 26.56 69.9687 27.3704 67.1335C28.3662 64.5013 28.046 60.7541 25.392 59.2148C24.4487 58.41 23.0132 58.941 21.8517 58.7282C15.9764 58.5226 9.47 58.841 4.712 54.7639C-0.109432 50.4933 -0.548122 43.618 0.414803 37.6605C2.45648 27.4193 9.67134 19.197 17.4016 12.5937C18.491 11.6122 23.5 8 23.5 8C23.5 8 2.66666 8 2.66666 8C2.66666 8 2.66666 0 2.66666 0L37.3333 0C37.3333 0 37.3333 8 37.3333 8C28.6038 13.55 20.6387 20.7195 15.87 30.1248C13.5948 34.5779 12.5923 39.3627 14.6426 44.0711C15.9979 46.8363 19.9292 48 22.8553 47.9016C26.3661 48.2958 30.1092 47.62 33.4375 49C38.0413 51 40.4377 56.263 39.934 61.1076C39.7353 65.6128 37.4141 71.2766 34.5576 74.6667C34.5576 74.6667 22.6533 74.6667 22.6533 74.6667Z" fill="#FFFFFF" transform="translate(45 27)"/>
</svg>
