<?xml version="1.0" encoding="utf-8"?>
<svg width="16" height="16" viewBox="0 0 16 16" fill="gray" xmlns="http://www.w3.org/2000/svg">
<path d="M0 6C0 2.7 2.7 0 6 0C9.3 0 12 2.7 12 6C12 9.3 9.3 12 6 12C2.7 12 0 9.3 0 6ZM2 6C2 3.8 3.8 2 6 2C8.2 2 10 3.8 10 6C10 8.2 8.2 10 6 10C3.8 10 2 8.2 2 6Z" fill-rule="evenodd" transform="translate(4 4)"/>
<circle r="2" cx="10" cy="10"/>
<g><rect width="8.5" height="2" rx="1" x="2" y="4"/>
<rect width="8.5" height="2" rx="1" x="2" y="4" transform="rotate(45 10 10)"/>
<rect width="8.5" height="2" rx="1" x="2" y="4" transform="rotate(-45 10 10)"/>
</g></svg>
