<?xml version="1.0" encoding="utf-8"?>
<svg width="16" height="16" viewBox="0 0 16 16" fill="gray" xmlns="http://www.w3.org/2000/svg">
<rect width="4" height="1" x="6" y="14"/>
<rect width="16" height="1" y="12"/>
<rect width="1" height="6" x="13" y="5"/>
<path d="M0 3C0 1.3 1.3 0 3 0C4.7 0 6 1.3 6 3C6 4.7 4.7 6 3 6C1.3 6 0 4.7 0 3ZM1 3C1 1.9 1.9 1 3 1C4.1 1 5 1.9 5 3C5 4.1 4.1 5 3 5C1.9 5 1 4.1 1 3Z" fill-rule="evenodd" transform="translate(8 5)"/>
<path d="M0 5L1.75 5L3.45 7.15L7.7 0L16 0L16 2L15 2L15 1L8.3 1L3.5 9L1.25 6L0 6Z" transform="translate(0 2)"/>
</svg>
