<?xml version="1.0" encoding="utf-8"?>
<svg width="16" height="16" viewBox="0 0 16 16" fill="gray" xmlns="http://www.w3.org/2000/svg">
<path d="M2.65 0L7.42 0C8.3 2.2 8.2 4.8 6.93 7C5.45 9.57 2.76 11 0 11L3.43 5C3.46 5 3.5 5 3.5 4.9C3.83 4.34 4 3.7 4 3C4 1.8 3.5 0.73 2.65 0Z" transform="translate(8 5)"/>
<path d="M4.47 5.9C4.6 6.12 4.74 6.33 4.9 6.52C5 6.7 5.2 6.86 5.36 7C5.8 7.4 6.36 7.7 7 7.87C7.73 8 8.54 8 9.27 7.8L6.9 11.9C4.54 11.6 2.35 10.22 1 8C-0.4 5.44 -0.3 2.4 1 0Z" transform="translate(0 4)"/>
<path d="M6.3 4C4.37 4 2.75 5.38 2.38 7.2L0 3C1.46 1.2 3.74 0 6.3 0C9.27 0 11.85 1.6 13.24 4L6.42 4C6.38 4 6.34 4 6.3 4Z" transform="translate(1.7 0)"/>
<circle r="3" cx="8" cy="8"/>
</svg>
