<svg version="1.1" viewBox="0 0 16 16" xmlns="http://www.w3.org/2000/svg">
 <path d="m8 3.8e-5c-2.1 0-4.1 0.824-5.6 2.3l2.72 4.707 4-6.9c-0.367-0.055-0.7344-0.1-1.1-0.1zm2.1367 0.3-2.715 4.7h8c-0.9336-2.3-2.9-4-5.2734-4.7zm-8.4375 2.8c-1.1 1.4-1.7 3.133-1.7 4.9 0 0.676 0.1 1.35 0.26 2h5.43zm8.6 2.9 4 6.9c1.1-1.4 1.7-3.133 1.7-4.9 0-0.676-0.1-1.35-0.26-2zm0.6 3-4 6.9c0.367 0.055 0.7344 0.1 1.1 0.1 2.1 0 4.1-0.824 5.6-2.3zm-10.3 2c0.934 2.3 2.9 4 5.2734 4.7l2.715-4.7z" fill="gray"/>
<circle r="2" cx="8" cy="8" fill="gray"/>
</svg>
