<?xml version="1.0" encoding="utf-8"?>
<svg width="16" height="16" viewBox="0 0 16 16" fill="gray" xmlns="http://www.w3.org/2000/svg">
<path d="m 12.983891,5.7517936 c 0.532862,-1.0548389 1.962858,-1.2226412 1.962858,-1.2226412 0,0 -0.537007,-0.8064191 -1.736109,-0.7131424 C 12.08456,3.903499 11.072928,4.6981708 10.883659,4.8095259 10.277435,4.5998236 9.5856444,4.4154363 8.7764586,4.2498503 5.9781497,3.6764436 3.6098886,4.5904235 2.4215659,5.5861114 0.86368832,6.89128 0.90681296,8.10751 0.7786371,8.715624 0.6863982,9.153091 -0.25335924,10.022961 0.06588286,10.496583 0.26533429,10.792325 0.92837545,10.391007 1.4632407,10.124917 2.0256577,9.845806 2.0693813,9.693957 3.606295,9.417016 4.3136587,9.289754 5.0575586,9.252876 5.6115902,9.247814 c 0.2156233,0.549546 0.7516862,1.679005 1.6806626,2.221319 1.2542079,0.731762 2.8210692,0.722361 2.8210692,0.722361 0,0 -0.9002263,-0.451205 -1.4542581,-1.120059 C 8.2823226,10.615893 8.1918803,9.925345 8.1727138,9.529818 h 0.00358 c 0.907414,0.208248 1.6998677,0.358568 3.5955162,1.23503 1.659139,0.767111 1.597679,0.652405 1.597679,0.652405 0,0 -0.435364,-1.158183 -2.354299,-2.403239 C 9.3659007,7.943903 8.0537028,7.853944 6.4888506,7.723004 5.4002654,7.631914 3.7883318,8.005809 3.2319691,8.085099 3.2260043,7.703947 4.0326068,6.977614 4.6333073,6.712699 6.0255754,6.0986934 7.723632,6.0701425 9.1998281,6.447305 12.527674,7.2511443 14.305057,10.345762 16,11.87397 15.816894,9.8805758 13.945428,6.8018745 12.983891,5.7517936 Z"/>
</svg>
