<?xml version="1.0" encoding="utf-8"?>
<svg width="16" height="16" viewBox="0 0 16 16" fill="gray" xmlns="http://www.w3.org/2000/svg">
<path d="M10.5 11.2C11 10.8 11.3 10.5444 11.8575 10.5C12.4 10.4657 12.9 10.627 13.31 11C13.7 11.35 14 11.8 14 12.3575C14 12.9 13.873 13.4 13.5 13.8C12.246 15.27 10 16 8 16C3.6 16 0 12.4 0 8C0 3.6 3.6 0 8 0C12.4 0 16 3.6 16 8C16 9.1 15.1 10 14 10L4.343 10C4.9 11.3333 6.11437 12 8 12C9.2 12 10 11.7 10.5 11.2ZM11.5 6L4.5 6C5 5 6.5 4 8 4C9.5 4 11 5 11.5 6Z" fill-rule="evenodd"/>
</svg>
