<?xml version="1.0" encoding="utf-8"?>
<svg width="16" height="16" viewBox="0 0 16 16" fill="gray" xmlns="http://www.w3.org/2000/svg">
<path d="M14 0L2 0C1 0 0 1 0 2L0 14C0 15 1 16 2 16L14 16C15 16 16 15 16 14L16 2C16 1 15 0 14 0ZM12.65 1.1C12.94 1.32 12.7 1.86 12.8 2.21926C12.7776 2.22 12.8 3.74 12.7776 3.74C12.78 3.74 15.6 3.74 15.6136 3.73879C15.47 4.12 14.83 3.832 14.4632 3.91457C14.4632 3.9 12.7776 3.9 12.7776 3.91457L12.7776 12.15C12.7776 12.15 14.1 12.15 14.1 12.15C14 12.7 12.7121 11.9 12.7776 12.6353C12.7776 12.6353 12.7776 15.1255 12.7776 15.1255C12.38 15 12.675 14.37 12.6 14C12.6 14 12.6 12.3247 12.6 12.3247L3.52374 12.3247C3.52374 12.3247 3.524 13.7232 3.52374 13.7232C3 13.6 3.7 12.4 3.1136 12.3247C3.11358 12.3247 0.5 12.325 0.5 12.3247C0.644 11.9454 1.28295 12.2315 1.65 12.15C1.65 12.15 3.33624 12.15 3.336 12.15C3.33624 12.15 3.33624 8.1177 3.33624 8.1177C3.73467 8.21 3.44 8.872 3.52374 9.22317C3.52374 9.22317 3.52374 12.15 3.52374 12.15C3.813 12 3.8 11.637 4.264 11.8111C4.97676 11.5572 5.2 10.752 5.62921 10.2C5.63 10.2 9.5 4 9.5 4C9.5 4 10.46 4 10.4573 4C10.9 6.57 11.25 9 11.7112 11.5435C11.86 11.84 12.5 11.8 12.57 12C12.6 11.2373 12.5787 10.45 12.6 9.67C12.6 9.67 12.59 3.915 12.6 3.91457C12.6 3.91457 5 3.9 5 3.91457C5.18 3.53524 5.81811 3.8214 6.186 3.73879C6.18585 3.73879 12.5901 3.73879 12.6 3.74L12.6 1.11379C12.6 1.114 12.65 1.1 12.65 1.1ZM12.5687 12C12.5671 12 12.5666 12 12.565 12C12.5769 12 12.5777 12 12.57 12C12.5687 12 12.5687 12 12.57 12ZM9.512 5.15C8.84577 6.49 8 7.714 7.2 9C7.21124 9 10 9 10 9C9.845 7.7 9.57349 6.44141 9.51202 5.15ZM6.84796 9.56692C6.52 10.2314 5.83411 10.8255 5.86554 11.6021C6.15358 11.9233 6.85434 11.6577 6.87921 12.1587C7.61228 12.1364 8.35 12.155 9 12.15C9.22535 11.5874 10.6517 11.9612 10.3 10.9341C10.1142 10.524 10.4145 9.54 9.8 9.56688C9.79913 9.567 6.85 9.567 6.85 9.567Z"/>
</svg>
