<?xml version="1.0" encoding="utf-8"?>
<svg width="16" height="16" viewBox="0 0 16 16" fill="gray" xmlns="http://www.w3.org/2000/svg">
<path d="M7 4C7 4 5 0 0 0C0 0 5.5 3.5 2 9C2 9 5 10 5 14C5 14 6.6 15.6 8 16C9.4 15.6 11 14 11 14C11 10 14 9 14 9C10.5 3.5 16 0 16 0C11 0 9 4 9 4C9 4 8.5 4.5 8 4.5C7.5 4.5 7 4 7 4ZM6.5 6C6.8 6 7 6.2 7 6.5L7 8.5C7 8.8 6.8 9 6.5 9C6.2 9 6 8.8 6 8.5L6 6.5C6 6.2 6.2 6 6.5 6ZM9.5 6C9.8 6 10 6.2 10 6.5L10 8.5C10 8.8 9.8 9 9.5 9C9.2 9 9 8.8 9 8.5L9 6.5C9 6.2 9.2 6 9.5 6Z" fill-rule="evenodd"/>
</svg>
