<?xml version="1.0" encoding="UTF-8"?>
<svg width="16" height="16" viewBox="0 0 16 16" fill="gray" xmlns="http://www.w3.org/2000/svg">
<g transform="translate(-134.75,-530.46)">
<path d="m 148.66,530.83 c 0,0 0,0 0,0 l -11.36524,3.34 c -1.134,0.2763 -2,1.3 -2,2.5 v 5.627 c 0,1.4277 1.16,2.576 2.6,2.576 h 9.8 c 1.43777,0 2.6,-1.15 2.6,-2.576 v -5.627 c 0,-1.4277 -1.16,-2.5762 -2.6,-2.576 h -6.1172 l 7.377,-2.17 c 0.2,0 0.32,-0.27 0.26,-0.47265 l -0.1,-0.367 c -0,-0.177 -0.2222,-0.3 -0.4,-0.27 z m -3.8633,4.65625 a 4,4 0 0 1 4,4 4,4 0 0 1 -4,4 4,4 0 0 1 -4,-4 4,4 0 0 1 4,-4 z m -8.12,1.37 h 3.5 c 0,0 0.1,0 0.1,0.1 v 0.93 c 0,0 0,0.1 -0.1,0.1 h -3.5 c 0,0 -0.1,0 -0.1,-0.1 v -0.93 c 0,0 0,-0.1 0.1,-0.1 z m 1.7,3.7 a 1.1,1.1 0 0 1 1.1,1.1 1.1,1.1 0 0 1 -1.1,1.1 1.1,1.1 0 0 1 -1.1,-1.1 1.1,1.1 0 0 1 1.1,-1.1 z"/>
</g></svg>
