<?xml version="1.0" encoding="utf-8"?>
<svg width="16" height="16" viewBox="0 0 16 16" fill="gray" xmlns="http://www.w3.org/2000/svg">
<path d="M0 8C0 3.6 3.6 0 8 0C12.4 0 16 3.6 16 8C16 12.4 12.4 16 8 16C3.6 16 0 12.4 0 8ZM1 8C1 4 4 1 8 1C12 1 15 4 15 8C15 12 12 15 8 15C4 15 1 12 1 8ZM2 8C2 4.4 5 1.5 8.5 1.5C12 1.5 15 4.4 15 8C15 11.6 12 14.5 8.5 14.5C5 14.5 2 11.6 2 8ZM3 8C3 5 5.5 2.5 8.5 2.5C11.5 2.5 14 5 14 8C14 11 11.5 13.5 8.5 13.5C5.5 13.5 3 11 3 8ZM4 8C4 5.3 6.3 3 9 3C11.7 3 14 5.3 14 8C14 10.7 11.7 13 9 13C6.3 13 4 10.7 4 8ZM5 8C5 5.8 6.8 4 9 4C11.2 4 13 5.8 13 8C13 10.2 11.2 12 9 12C6.8 12 5 10.2 5 8ZM6 8C6 6 7.6 4.5 9.5 4.5C11.4 4.5 13 6 13 8C13 10 11.4 11.5 9.5 11.5C7.6 11.5 6 10 6 8ZM7 8C7 6.6 8.1 5.5 9.5 5.5C10.9 5.5 12 6.6 12 8C12 9.4 10.9 10.5 9.5 10.5C8.1 10.5 7 9.4 7 8Z" fill-rule="evenodd"/>
</svg>
