<?xml version="1.0" encoding="utf-8"?>
<svg width="16" height="16" viewBox="0 0 16 16" fill="gray" xmlns="http://www.w3.org/2000/svg">
<path d="M7.64 1.77L7 2.3L2.56214 6L7 9.7L7.64 10.232C7.85242 10.4 8 10.6346 8 10.9C8 11.1846 7.945 11.43 7.77 11.64C7.6 11.8524 7.36564 12 7 12C6.81562 12 6.572 11.945 6.36 11.77L0.36 6.77C0.33668 6.75 0.314372 6.73 0.3 6.7C0.27 6.686 0.251234 6.6635 0.231874 6.64C0.147 6.54 0 6.4242 0 6.3C0 6.17 0 6 0 5.9C0 5.7775 0 5.65276 0.114657 5.53534C0.1763 5.42 0.26 5.31677 0.36 5.23187L6.36 0.231874C6.46 0.147 6.576 0 6.7 0C6.83 0 7 0 7 0C7.2227 0 7.34743 0 7.46485 0.114657C7.6 0.176287 7.7 0.26 7.77 0.36C7.945 0.572 8 0.815623 8 1C8 1.36564 7.85242 1.6 7.64 1.77L7.64 1.77Z" transform="translate(1 4)"/>
<rect width="2" height="12" rx="1" x="1" y="4"/>
<circle r="1.5" cx="2" cy="1.5"/>
</svg>
