<?xml version="1.0" encoding="utf-8"?>
<svg width="16" height="16" viewBox="0 0 16 16" fill="gray" xmlns="http://www.w3.org/2000/svg">
<path fill-rule="evenodd" d="M0 2.5C0 1 1 0 2.5 0C4 0 5 1 5 2.5C5 4 4 5 2.5 5C1 5 0 4 0 2.5ZM1 2.5C1 1.7 1.7 1 2.5 1C3.3 1 4 1.7 4 2.5C4 3.3 3.3 4 2.5 4C1.7 4 1 3.3 1 2.5Z" transform="translate(5 0)"/>
<path fill-rule="evenodd" d="M0 2.5C0 1 1 0 2.5 0C4 0 5 1 5 2.5C5 4 4 5 2.5 5C1 5 0 4 0 2.5ZM1 2.5C1 1.7 1.7 1 2.5 1C3.3 1 4 1.7 4 2.5C4 3.3 3.3 4 2.5 4C1.7 4 1 3.3 1 2.5Z" transform="translate(5 10)"/>
<path fill-rule="evenodd" d="M0 2.5C0 1 1 0 2.5 0C4 0 5 1 5 2.5C5 4 4 5 2.5 5C1 5 0 4 0 2.5ZM1 2.5C1 1.7 1.7 1 2.5 1C3.3 1 4 1.7 4 2.5C4 3.3 3.3 4 2.5 4C1.7 4 1 3.3 1 2.5Z" transform="translate(0 5)"/>
<path fill-rule="evenodd" d="M0 2.5C0 1 1 0 2.5 0C4 0 5 1 5 2.5C5 4 4 5 2.5 5C1 5 0 4 0 2.5ZM1 2.5C1 1.7 1.7 1 2.5 1C3.3 1 4 1.7 4 2.5C4 3.3 3.3 4 2.5 4C1.7 4 1 3.3 1 2.5Z" transform="translate(10 5)"/>
<rect width="7" height="1" x="4" y="7"/>
<rect width="1" height="4" transform="translate(4.5 3) rotate(45 0.5 2)"/>
<rect width="1" height="4" transform="translate(9.5 8) rotate(45 0.5 2)"/>
</svg>
