<?xml version="1.0" encoding="utf-8"?>
<svg width="16" height="16" viewBox="0 0 16 16" fill="gray" xmlns="http://www.w3.org/2000/svg">
<path d="M8 5C8 5 4 2 4 2C3.2 1.4 2.8 1 2 1C0.9 1 0 1.9 0 3L0 13C0 14.1 0.9 15 2 15C2.8 15 3.2 14.6 4 14L8 11L12 14C12.8 14.6 13.2 15 14 15C15.1 15 16 14.1 16 13L16 3C16 1.9 15.1 1 14 1C13.2 1 12.8 1.4 12 2Z" opacity="70%"/>
<path d="M0 5L0 11L8 5L16 11L16 5L8 11Z" opacity="60%"/>
<path d="M8 5C8 5 4 2 4 2C3.2 1.4 2.8 1 2 1C0.9 1 0 1.9 0 3L0 5L4 8L8 5L12 8L16 5L16 3C16 1.9 15.1 1 14 1C13.2 1 12.8 1.4 12 2Z"/>
</svg>
