<?xml version="1.0" encoding="utf-8"?>
<svg width="16" height="16" viewBox="0 0 16 16" fill="gray" xmlns="http://www.w3.org/2000/svg">
<path d="M 8.43,0 C 8.1,0 7.8,0.2 7.6,0.434 6.52,1.4 5.453,2.34 4.4,3.3 c -0.36,0.373 -0.3,0.93 -0.4,1.4 0,0.4 -0.12,0.8 -0.176,1.2 0,0.137 0,0.3 0.174,0.4 1,0.7 2,1.655 2.375,2.846 0,0.13 0.2,0.2 0.322266,0.2 0.37,0 0.74,-0.124 1.115,-0.145 0.14,0 0.2,-0.1146 0.17,-0.246 C 7.5,7.45 7.3,5.832 7.82,4.354 8.117,3.4 8.8,2.62 9,1.633 9,1.17 8.9,0.7 8.77,0.26 8.72,0.13 8.57,0 8.43,0 Z M 10,1.2 c 0,0 0,0 0,0.1 0,1 -0.44,1.76 -0.86,2.55 -0.5,0.9 -0.74,1.93 -0.6,3 0.1,0.755 0.3,1.5 0.554688,2.2011719 0.042,0.1141468 0.175641,0.2184554 0.3,0.2421875 1.24,0.247 2.3,1.1 3,2.1386718 0.183323,0.22 0.342,0.587705 0.5,0.822266 0,0.101626 0.193113,0.1 0.26,0 0.37,-0.563 0.735967,-1.128673 1.1,-1.7 0,-0.1 0.146745,-0.3 0.138672,-0.4 C 14.17,9.7 13.766,9.42 13.60459,9.0860558 13,8.2337465 12.511314,7.3 12.413184,6.25 12.304937,5.6174281 12.342545,5 12.270606,4.34 12.132158,3.892462 11.765559,3.5742661 11.5,3.2 L 10,1.26 c 0,0 0,0 -0.1,0 z m -6.28,5.9042969 c -0.060754,0 -0.117428,0 -0.146484,0.1074218 -0.526,1.2 -1.1,2.3821136 -1.605469,3.5800781 -0.14442,0.422 0,0.893592 0.36,1.175781 0.823872,0.85 1.648786,1.7 2.472656,2.546875 0.1,0.1 0.18565,0 0.234376,-0.03906 0.592867,-1.276046 1,-2.683265 0.857421,-4.1 C 5.6530579,9.2479337 5.0365359,8.2128111 4.1690429,7.4942589 4,7.37 3.8731469,7.2522392 3.7,7.14 3.7,7.1154511 3.645,7.1 3.6,7.1 Z m 4.46875,2.9238279 c -0.4,0 -0.8,0 -1.2,0.134766 -0.125384,0.02392 -0.212618,0.150217 -0.2,0.277344 0.136716,1.518495 -0.3,3.026437 -0.943359,4.396484 0,0.116 0,0.22 0.130859,0.2285 0.874786,0.06857 1.761615,0.1 2.611328,0.326172 0.7,0.173198 1.389631,0.425091 2.1,0.595703 0.7,0.1 1.362366,-0.531783 1.402344,-1.222656 0.06147,-0.416245 0.154521,-0.827725 0.294922,-1.224609 0.04257,-0.12033 0,-0.278577 -0.0625,-0.390625 -0.1,-0.146 -0.13,-0.34219 -0.216797,-0.46875 -0.519582,-1.023523 -1.289704,-2.011034 -2.4,-2.42 -0.48,-0.18 -1,-0.24 -1.501954,-0.232422 z"/>
</svg>
