<?xml version="1.0" encoding="utf-8"?>
<svg width="16" height="16" viewBox="0 0 16 16" fill="gray" xmlns="http://www.w3.org/2000/svg">
<path d="M0 6C0 10 2.5 12 5.5 12C8.5 12 11 10 11 6C11 2 8.5 0 5.5 0C2.5 0 0 2 0 6ZM5.5 9.5C4 9.5 3 8.4 3 6C3 3.6 4 2.5 5.5 2.5C7 2.5 8 3.6 8 6C8 8.4 7 9.5 5.5 9.5Z" fill-rule="evenodd" transform="translate(2 4)"/>
<rect width="1" height="3" rx="0.5" x="7" y="8.5"/>
<rect width="1" height="3" rx="0.5" transform="translate(9 0) rotate(45 0.5 4)"/>
<rect width="1" height="3" rx="0.5" transform="translate(5 0) rotate(315 0.5 4)"/>
<rect width="1" height="3" rx="0.5" x="7"/>
</svg>
