<svg xmlns="http://www.w3.org/2000/svg" width="16" height="16" shape-rendering="geometricPrecision" text-rendering="geometricPrecision" image-rendering="optimizeQuality" fill="gray" fill-rule="evenodd" clip-rule="evenodd" viewBox="0 0 640 640">
<path d="M640 320.024c0 94.75-41.233 179.99-106.761 238.515-82.123 40.004-158.648 12.012-183.888-5.469 80.635-17.645 141.474-115.135 141.474-232.999 0-117.875-60.875-215.365-141.474-233.129 25.347-17.527 101.871-45.46 183.876-5.515-37.5-24.827-81.284-39.166-128.104-39.166-76.253 0-144.474 37.772-190.514 97.371l.024.024c-35.363 41.764-58.23 103.489-59.765 172.892v15.094c1.536 69.25 24.532 131.01 59.895 172.762 45.886 59.647 114.108 97.372 190.36 97.372 46.879 0 90.758-14.245 128.247-39.13-56.753 50.646-131.482 81.366-213.357 81.366-5.127 0-10.229-.118-15.237-.354C135.132 631.65.001 491.64.001 320.012.001 143.246 143.247-.012 320.013-.012h1.228c81.486.248 155.766 31.016 212.13 81.52l-.119-.07c65.47 58.642 106.75 143.872 106.75 238.633v-.047z"/>
</svg>
