<?xml version="1.0" encoding="utf-8"?>
<svg width="16" height="16" viewBox="0 0 16 16" fill="gray" xmlns="http://www.w3.org/2000/svg">
<path d="M0 8C0 6.6 0.36 5.27 1 4.12L1 2C1 1.45 1.45 1 2 1L4.12 1C5.27 0.36 6.6 0 8 0C9.4 0 10.73 0.36 11.88 1L14 1C14.55 1 15 1.45 15 2L15 4.12C15.64 5.27 16 6.6 16 8C16 9.4 15.64 10.73 15 11.88L15 14C15 14.55 14.55 15 14 15L11.88 15C10.73 15.64 9.4 16 8 16C6.6 16 5.27 15.64 4.12 15L2 15C1.45 15 1 14.55 1 14L1 11.88C0.36 10.73 0 9.4 0 8ZM1 8C1 4.12 4.12 1 8 1C11.88 1 15 4.12 15 8C15 11.88 11.88 15 8 15C4.12 15 1 11.88 1 8L1 8ZM2 2.5C2 2.22 2.22 2 2.5 2C2.77 2 3 2.22 3 2.5C3 2.77 2.77 3 2.5 3C2.22 3 2 2.77 2 2.5L2 2.5ZM13.5 2C13.22 2 13 2.22 13 2.5C13 2.77 13.22 3 13.5 3C13.77 3 14 2.77 14 2.5C14 2.22 13.77 2 13.5 2L13.5 2ZM2.5 13C2.22 13 2 13.22 2 13.5C2 13.77 2.22 14 2.5 14C2.77 14 3 13.77 3 13.5C3 13.22 2.77 13 2.5 13L2.5 13ZM13 13.5C13 13.22 13.22 13 13.5 13C13.77 13 14 13.22 14 13.5C14 13.77 13.77 14 13.5 14C13.22 14 13 13.77 13 13.5L13 13.5Z" fill-rule="evenodd"/>
<path d="M0 6C0 2.7 2.7 0 6 0C9.3 0 12 2.7 12 6C12 9.3 9.3 12 6 12C2.7 12 0 9.3 0 6ZM3 6C3 4.3 4.3 3 6 3C7.7 3 9 4.3 9 6C9 7.7 7.7 9 6 9C4.3 9 3 7.7 3 6Z" fill-rule="evenodd" transform="translate(2 2)"/>
<circle r="2" cx="8" cy="8"/>
</svg>
