<?xml version="1.0" encoding="utf-8"?>
<svg width="16" height="16" viewBox="0 0 16 16" fill="gray" xmlns="http://www.w3.org/2000/svg">
<path d="M3.5 7C5 7 6 6 6 4C6 2 5 1 3.5 1C2 1 1 2 1 4C1 6 2 7 3.5 7ZM3.5 8C1.4 8 0 7 0 4C0 1 1.4 0 3.5 0C4.6 0 5.6 0.4 6 1L6 0L7 0L7 12L6 12L6 7C5.6 7.6 4.6 8 3.5 8Z" fill-rule="evenodd" transform="translate(0 4)"/>
<path d="M7 8C7 5 5.6 4 3.5 4C2.4 4 1.4 4.4 1 5L1 0L0 0L0 12L1 12L1 11C1.4 11.6 2.4 12 3.5 12C5.6 12 7 11 7 8ZM1 8C1 6 2 5 3.5 5C5 5 6 6 6 8C6 10 5 11 3.5 11C2 11 1 10 1 8Z" fill-rule="evenodd" transform="translate(9 0)"/>
</svg>
