<?xml version="1.0" encoding="utf-8"?>
<svg width="16" height="16" viewBox="0 0 16 16" fill="gray" xmlns="http://www.w3.org/2000/svg">
<path d="M7 0.1C7.363 0 7.7 0 8 0C8.41 0 8.8 0 9.22 0.1L9.136 0.6L9 1.1C8.7 1 8.35 1 8 1C7.7245 1 7.45 1 7.17437 1L7.11 0.56L7 0.1L7 0ZM4 1.12L4.5457 2C5.1 1.65 5.6627 1.4 6.26 1.24L6.125 0.76L6 0.276334C5.31 0.4662 4.66 0.75 4.03266 1.12L4 1.12ZM10.26 0.351254L10.1 0.828142L9.96 1.3C10.5523 1.5 11.1158 1.756 11.65 2.1L11.9213 1.68L12.2 1.26C11.6 0.87 10.9376 0.5643 10.26 0.351254L10.2615 0.351254ZM1.655 3.24322L2.45 3.85C2.833 3.35 3.2735 2.9 3.77 2.51153L3.46135 2.11851L3.15226 1.7255C2.6 2.17 2.1 2.67435 1.655 3.24322L1.655 3.24322ZM13 1.9L12.73 2.27465L12.41 2.66C12.9 3.1 13.32 3.5243 13.7 4L14.1 3.746L14.5017 3.455C14.1 2.87343 13.6 2.3523 13 1.9L13 1.9ZM0.246255 6.1L0.73 6.23L1.21361 6.356C1.3704 5.75753 1.61 5.1832 1.927 4.633L1.5 4.4L1.1 4.132C0.7 4.76 0.425873 5.417 0.246255 6.1L0.246255 6.1ZM15.1 4.3623L14.1862 4.83525C14.4867 5.4 14.7 6 14.84 6.58L15.8163 6.36C15.66 5.67 15.4 5 15.1 4.3623L15.1 4.3623ZM0.54457 7.22L1 7.27473C1.01378 7.5 1 7.76 1 8C1 8.44 1 8.87 1.123 9.286L0.632424 9.38L0.142 9.48C0 9 0 8.5 0 8C0 7.72 0 7.44 0 7.16136L0.54457 7.22L0.544572 7.22ZM15.3385 9.5L14.85 9.38C14.95 8.92 15 8.462 15 8C15 7.835 15 7.67 15 7.5L16 7.43C16 7.62 16 7.81 16 8C16 8.534 15.9423 9.1 15.827 9.6L15.3385 9.4857L15.34 9.5ZM1.6 12.1922L1.11 12.1L0.62 12L0.77 11.3C0.6365 11 0.51 10.7565 0.4 10.4L1.3346 10.1C1.462 10.45 1.6 10.7322 1.716 10.923C1.75346 11 1.7785 11 1.79115 11.11C1.8 11.1726 1.8 11.24 1.8 11.3L1.6 12.2L1.6 12.2ZM13.7137 11.93L14.122 12.2165L14.53 12.5C15 11.9 15.28 11.285 15.5265 10.62L14.6 10.273C14.3731 10.856 14.1 11.41 13.7137 11.93L13.7137 11.93ZM11.6876 13.877L12 14.3L12.2325 14.715C12.83 14.326 13.3734 13.87 13.86 13.3365L13.122 12.66C12.7 13.13 12.2152 13.5337 11.6876 13.8766L11.7 13.9ZM0.4 13L0.9 13.1L1.4 13.17L1.19155 14.1C1.1563 14.32 1.2 14.5 1.3535 14.6464C1.5 14.8 1.7 14.8437 1.9 14.8L2.243 14.7366L2.4526 15.7144L2.1 15.8C2.1 15.8 2.1 15.8 2.1 15.8C2.1 15.8 2.1 15.8 2.1 15.7932C1.513 15.9 1 15.7415 0.6464 15.3536C0.26 14.9656 0.1 14.5 0.21 13.92C0.21 13.9 0.2 13.9 0.21 13.9C0.21 13.9 0.21 13.9 0.2 13.9L0.4 13L0.4 13ZM5.27 14.3913L5 14.836L4.9 15.1251L4.9 15.2L4.8525 15.2L4.8 15.28C4.777 15.263 4.745 15.246 4.71464 15.23L3.43041 15.5L3.22 14.527L4.7 14.2111C4.76123 14.2 4.83 14.2 4.9 14.21C4.96 14.22 5 14.2465 5.1 14.284C5.1166 14.3 5.18 14.346 5.2686 14.4L5.2686 14.4ZM9.1 14.9L9.267 15.9C10 15.77 10.6437 15.5524 11.3 15.24L10.87 14.3367C10.3 14.6 9.7 14.8 9.1 14.9L9.1 14.9ZM6.21 14.756L5.935 15.7174C6.6 15.9 7.2836 16 8 16C8.1 16 8.12376 16 8.18566 16L8.16 15C8.11 15 8 15 8 15C7.37684 15 6.8 14.9186 6.2095 14.7558L6.21 14.7558Z"/>
<path d="M0 6C0 2.7 2.7 0 6 0C9.3 0 12 2.7 12 6C12 9.3 9.3 12 6 12C5 12 4 11.7 3.12 11.26L0.1875 11.8125L0.737 8.9C0.267 8 0 7 0 6Z" transform="translate(2 2)"/>
</svg>
