<?xml version="1.0" encoding="utf-8"?>
<svg width="16" height="16" viewBox="0 0 16 16" fill="gray" xmlns="http://www.w3.org/2000/svg">
<path d="M0 8C0 3.58387 3.58387 0 8 0C12.4161 0 16 3.58387 16 8C16 12.4161 12.4161 16 8 16C3.58387 16 0 12.4161 0 8ZM12.7624 7C12.9075 7.114 13 7.1561 13.1785 7.1561C13.572 7.1562 13.927 6.843 13.927 6.4043C13.927 6.02043 13.7624 5.82043 13.5108 5.67527C11.7075 4.62366 9.23978 4.13333 6.885 4.13333C5.5 4.13333 4.23 4.2914 3.09462 4.62366C2.8043 4.70753 2.53333 4.9561 2.53333 5.39462C2.53333 5.82366 2.8614 6.1561 3.285 6.1561C3.44 6.1561 3.585 6.1043 3.7 6.07204C6.3614 5.33 10.4656 5.6614 12.7624 7ZM11.7817 9.4785C11.8978 9.53978 12 9.614 12.1785 9.614C12.53 9.614 12.8 9.33333 12.8043 8.985C12.8043 8.7043 12.7 8.5043 12.44 8.35C10.8462 7.4 8.82366 6.88172 6.73 6.88172C5.38817 6.88172 4.47204 7.06882 3.57527 7.32043C3.243 7.414 3.07527 7.643 3.07527 7.98817C3.07527 8.33333 3.3561 8.614 3.7 8.614C3.84624 8.614 3.93 8.57204 4.085 8.53C6.7614 7.8043 9.7656 8.285 11.7817 9.4785ZM11.3108 11.73C11.1753 11.73 11.0914 11.6882 10.9656 11.614C8.9527 10.4 6.61075 10.35 4.29785 10.8237C4.17204 10.856 4 10.9075 3.914 10.9075C3.6 10.9075 3.4043 10.661 3.4043 10.4C3.4043 10.0656 3.6 9.90753 3.843 9.8562C6.485 9.27204 9.185 9.32366 11.4882 10.7C11.685 10.827 11.8 10.94 11.8 11.2333C11.8 11.527 11.572 11.73 11.3108 11.73Z" fill-rule="evenodd"/>
</svg>
