<?xml version="1.0" encoding="utf-8"?>
<svg width="16" height="16" viewBox="0 0 16 16" fill="gray" xmlns="http://www.w3.org/2000/svg">
<path d="M1.1 6C5.4 4 8.26 2.75 9.7 2.12C13.8 0.323 14.634 0 15.2 0C15.3 0 15.6 0 15.76 0.18C15.9 0.3 15.95 0.48 16 0.6C16 0.7234 16 1 16 1.2C15.77 3.674 14.8 9.643 14.3232 12.4C14.12 13.5636 13.7 13.95 13.317 14C12.46 14.1 11.8 13.4 11 12.8222C9.6867 11.925 9 11.366 7.7 10.5C6.24 9.48 7.18425 8.922 8 8C8.23 7.775 12 4.155 12.1 3.827C12.1 3.8 12.1 3.632 12 3.55C11.9 3.47 11.8 3.5 11.7 3.52C11.5676 3.55 9.5 5 5.483 7.857C4.9 8.28 4.364 8.5 3.885 8.48C3.36 8.47 2.3475 8.166 1.6 7.91C0.674 7.6 0 7.424 0 6.9C0 6.6 0.4 6.32 1.1 6C1.1 6 1.1 6 1.1 6Z" transform="translate(0 1)"/>
</svg>
