<?xml version="1.0" encoding="utf-8"?>
<svg width="16" height="16" viewBox="0 0 16 16" fill="#808080" xmlns="http://www.w3.org/2000/svg">
<path d="M0 16L1.06833 12C0.367155 10.7791 0 9.4 0 7.99674C0 3.58728 3.59076 0 8.00033 0C10.14 0 12.1486 0.833814 13.6591 2.34542C15.1697 3.85703 16.0008 5.86627 16 8.00315C16 12.4123 12.41 16.0002 8 16L7.99674 16.0002C6.658 16 5.34254 15.6638 4.17407 15.0267L0 16L0 16ZM8.06936 1.35091C4.40174 1.351 1.41908 4.33248 1.41777 7.99728C1.41594 9.24857 1.76832 10.475 2.43417 11.5345L2.59236 11.786L1.92055 14.2386L4.43711 13.5788L4.68011 13.7227C5.7 14.3285 6.87092 14.6488 8.06429 14.6494L8.06679 14.6494C11.7316 14.6494 14.7142 11.6675 14.7157 8C14.7212 6.23802 14.0206 4.54469 12.77 3.3C11.5263 2.0485 9.83363 1.3466 8.06927 1.35077L8.06936 1.35091L8.06936 1.35091Z" fill-rule="evenodd"/>
<path d="M2.06556 0.349986C1.91574 0.0171781 1.75809 0.0104375 1.61577 0.00467491C1.61577 0.00467491 1.23262 0 1.23262 0C1.09932 0 0.88274 0.0500135 0.699647 0.250068C0.516553 0.450122 0 0.933623 0 1.91704C0 2.90046 0.716282 3.85072 0.816092 3.98423C0.915901 4.11775 2.19886 6.20016 4.23061 7.00136C5.919 7.66719 6.26257 7.53477 6.62919 7.5015C6.99582 7.46823 7.8118 7.01799 7.97826 6.55124C8.14471 6.08448 8.14482 5.68459 8.09492 5.60098C8.04501 5.51737 7.91172 5.46768 7.71166 5.36765C7.51161 5.26763 6.52906 4.78413 6.34586 4.71737C6.16265 4.65061 6.02946 4.61745 5.89606 4.8175C5.76265 5.01756 5.38 5.46757 5.26339 5.60098C5.14673 5.73439 5.03028 5.75113 4.83023 5.65121C4.63017 5.55129 3.98652 5.34015 3.22283 4.6592C2.62865 4.12938 2.22756 3.47507 2.11079 3.27513C1.99402 3.07518 2.0984 2.96689 2.19864 2.8673C2.28834 2.77771 2.39848 2.63387 2.49861 2.51721C2.59875 2.40054 2.63169 2.31715 2.69823 2.18396C2.76477 2.05077 2.73161 1.93379 2.6816 1.83387C2.63159 1.73395 2.24322 0.74542 2.06556 0.350095C2.06556 0.350095 2.06556 0.349986 2.06556 0.349986Z" transform="translate(4 4.3)"/>
</svg>
