<?xml version="1.0" encoding="utf-8"?>
<svg width="16" height="16" viewBox="0 0 16 16" fill="gray" xmlns="http://www.w3.org/2000/svg">
<g transform="translate(4 0)">
<path d="M0 0L7 0L7 0L7 1C7 1.5 6.5 2 6 2L1 2C0.5 2 0 1.5 0 1Z" transform="translate(1 0)"/>
<path d="M1 0L8 0C8 3 9 4 9 4L6 11L5 11L5 6C5.6 5.8 6 5.15 6 4.5C6 3.67 5.25 3 4.5 3C3.75 3 3 3.67 3 4.5C3 5.15 3.4 5.8 4 6L4 11L3 11L0 4C0 4 1 3 1 0Z" transform="translate(0 5)"/>
<rect width="7" height="1" class="warning" fill="#FF7800" transform="translate(1 3)"/>
</g></svg>
