<?xml version="1.0" encoding="utf-8"?>
<svg width="128" height="128" viewBox="0 0 128 128" xmlns="http://www.w3.org/2000/svg">
<defs>
<pattern id="pattern" patternUnits="userSpaceOnUse" width="2" height="2" x="0" y="0">
<circle r="0.5" cx="0.5" cy="0.5" fill="#3D3846" opacity="25%"/>
<circle r="0.5" cx="1.5" cy="1.5" fill="#3D3846" opacity="25%"/>
</pattern>
<linearGradient id="grdnt1">
<stop offset="0" stop-color="#A09F9C"/>
<stop offset="4%" stop-color="#C0BFBC"/>
<stop offset="8%" stop-color="#A09F9C"/>
<stop offset="50%" stop-color="#77767B"/>
<stop offset="92%" stop-color="#A09F9C"/>
<stop offset="96%" stop-color="#C0BFBC"/>
<stop offset="1" stop-color="#A09F9C"/>
</linearGradient>
<linearGradient id="grdnt2">
<stop offset="0" stop-color="#DCDBD8"/>
<stop offset="0.5" stop-color="#B0AFAB"/>
<stop offset="1" stop-color="#DCDBD8"/>
</linearGradient>
<linearGradient id="ball" x1="0" y1="0" x2="0" y2="1">
<stop offset="0" stop-color="#9A9996"/>
<stop offset="1" stop-color="#77767B"/>
</linearGradient>
<radialGradient id="earphone">
<stop offset="0" stop-color="#EAE9E7"/>
<stop offset="1" stop-color="#B5B3AD"/>
</radialGradient>
<radialGradient id="cushion">
<stop offset="0" stop-color="#CACAC9"/>
<stop offset="0.5" stop-color="#B0AEAB"/>
<stop offset="1" stop-color="#6C6B66"/>
</radialGradient>
<linearGradient id="white" x1="0" y1="0" x2="0" y2="1">
<stop offset="0" stop-color="#FFFFFF" stop-opacity="0"/>
<stop offset="0.5" stop-color="#FFFFFF" stop-opacity="75%"/>
<stop offset="1" stop-color="#FFFFFF" stop-opacity="0"/>
</linearGradient>
<clipPath id="arc_down">
<circle r="40" cx="32" cy="40"/>
</clipPath>
<clipPath id="earphone_left">
<rect width="20" height="48" x="12" y="56"/>
</clipPath>
<clipPath id="earphone_right">
<rect width="20" height="48" x="96" y="56"/>
</clipPath>
<clipPath id="cushion_left">
<rect width="12" height="48" x="32" y="56"/>
</clipPath>
<clipPath id="cushion_right">
<rect width="12" height="48" x="84" y="56"/>
</clipPath>
<filter id="blur">
<feGaussianBlur stdDeviation="1"/>
</filter>
<path id="head" d="M0 16C8 6 19 0 32 0C45 0 56 6 64 16"/>
</defs>
<g fill="none" stroke-width="12" stroke-linecap="round">
<use href="#head" x="32" y="12" stroke="url(#grdnt1)"/>
<path d="M0 68L0 40C0 18 18 0 40 0C62 0 80 18 80 40L80 68" stroke="#77767B" stroke-width="3" transform="translate(24 12)"/>
<use href="#head" x="32" y="11" stroke="url(#grdnt1)"/>
<use href="#head" x="32" y="10" stroke="#DEDDDA"/>
<use href="#head" x="32" y="10" stroke="url(#grdnt2)" clip-path="url(#arc_down)"/>
</g><g fill="url(#ball)">
<circle r="16" cx="20" cy="80"/>
<circle r="16" cx="108" cy="80"/>
</g><g fill="url(#pattern)">
<circle r="16" cx="20" cy="80"/>
<circle r="16" cx="108" cy="80"/>
</g><g fill="url(#earphone)">
<circle r="24" cx="28" cy="80" clip-path="url(#earphone_left)"/>
<circle r="24" cx="100" cy="80" clip-path="url(#earphone_right)"/>
</g><g fill="url(#cushion)">
<circle r="24" cx="28" cy="80" clip-path="url(#cushion_left)"/>
<circle r="24" cx="100" cy="80" clip-path="url(#cushion_right)"/>
</g><g stroke="url(#white)" stroke-width="2" stroke-linecap="round" opacity="75%" filter="url(#blur)">
<line x1="41" x2="41.1" y1="64" y2="96"/>
<line x1="87" x2="87.1" y1="64" y2="96"/>
</g></svg>
