<?xml version="1.0" encoding="utf-8"?>
<svg width="128" height="128" viewBox="0 0 128 128" xmlns="http://www.w3.org/2000/svg">
<defs>
<linearGradient id="gradient_1">
<stop offset="0" stop-color="black" stop-opacity="50%"/>
<stop offset="5%" stop-color="white" stop-opacity="50%"/>
<stop offset="15%" stop-color="black" stop-opacity="40%"/>
<stop offset="85%" stop-color="black" stop-opacity="40%"/>
<stop offset="95%" stop-color="black" stop-opacity="80%"/>
<stop offset="1" stop-color="black" stop-opacity="50%"/>
</linearGradient>
<linearGradient id="gradient_2">
<stop offset="0" stop-color="#C0BFBC"/>
<stop offset="3%" stop-color="#DEDDDC"/>
<stop offset="8%" stop-color="#BDBDB9"/>
<stop offset="65%" stop-color="#C4C3C0"/>
<stop offset="94%" stop-color="#B8B7B3"/>
<stop offset="1" stop-color="#9F9D99"/>
</linearGradient>
<linearGradient id="gradient_3">
<stop offset="0" stop-color="#6A6966"/>
<stop offset="1" stop-color="#A09F9D"/>
</linearGradient>
</defs>
<path id="stick" d="M30 0C46.57 0 60 13.43 60 30L60 90C60 94.42 56.42 98 52 98L8 98C3.58 98 0 94.42 0 90L0 30C0 13.43 13.43 0 30 0Z" fill="#284AF4" transform="translate(34 8)"/>
<path id="extrusion" d="M0 16L0 0C0 4.42 3.58 8 8 8L52 8C56.42 8 60 4.42 60 0L60 16C60 20.42 56.42 24 52 24L8 24C3.58 24 0 20.42 0 16Z" fill="url(#gradient_1)" transform="translate(34 82)"/>
<rect id="mouth" width="40" height="26" rx="5" ry="5" fill="url(#gradient_2)" transform="translate(44 94)"/>
<rect id="metal" width="40" height="10" rx="5" ry="5" fill="#F6F5F4" transform="translate(44 110)"/>
<rect id="hole" width="38" height="8" rx="4" ry="4" fill="url(#gradient_3)" transform="translate(45 111)"/>
<path id="bluetooth" d="M0 15L30 45L15 60L15 0L30 15L0 45" fill="none" stroke-width="4" stroke="white" stroke-linecap="round" stroke-linejoin="round" transform="translate(50 20)"/>
</svg>
