<?xml version="1.0" encoding="utf-8"?>
<svg width="128" height="128" viewBox="0 0 128 128" xmlns="http://www.w3.org/2000/svg">
<defs>
<linearGradient id="corners">
<stop offset="0" stop-color="#241F31"/>
<stop offset="4%" stop-color="#5E5C64"/>
<stop offset="12%" stop-color="#3D3846"/>
<stop offset="88%" stop-color="#3D3846"/>
<stop offset="96%" stop-color="#5E5C64"/>
<stop offset="1" stop-color="#241F31"/>
</linearGradient>
<clipPath id="cut">
<rect width="88" height="112" rx="8" x="20" y="8"/>
</clipPath>
</defs>
<rect width="88" height="104" rx="8" x="20" y="16" fill="url(#corners)"/>
<rect width="88" height="106" rx="8" x="20" y="8" fill="#5E5C64"/>
<rect width="68" height="72" x="30" y="22" fill="#3D3846"/>
<rect width="64" height="20" x="32" y="72" fill="#F6F5F4"/>
<g fill="#3256E9">
<rect width="64" height="48" x="32" y="24"/>
<rect width="12" height="4" x="36" y="84"/>
<rect width="6" height="4" x="52" y="84"/>
</g><g clip-path="url(#cut)">
<rect width="68" height="18" x="30" y="102" fill="#3D3846"/>
<path d="M0 0L0 12M8 0L8 12M16 0L16 12M24 0L24 12M32 0L32 12M40 0L40 12M48 0L48 12M56 0L56 12" fill="none" stroke="#F8E45C" stroke-width="4" stroke-linecap="round" transform="translate(36 108)"/>
<rect width="68" height="6" x="30" y="114" fill="#000000" opacity="36%"/>
</g></svg>
