<?xml version="1.0" encoding="utf-8"?>
<svg width="128" height="128" viewBox="0 0 128 128" fill="none" xmlns="http://www.w3.org/2000/svg">
<defs>
<linearGradient id="dark" gradientUnits="userSpaceOnUse" x1="0" y1="0" x2="88" y2="0">
<stop offset="0" stop-color="#3D3846"/>
<stop offset="0.05" stop-color="#5E5C64"/>
<stop offset="0.1" stop-color="#3D3846"/>
<stop offset="0.9" stop-color="#3D3846"/>
<stop offset="0.95" stop-color="#5E5C64"/>
<stop offset="1" stop-color="#3D3846"/>
</linearGradient>
<linearGradient id="silver" gradientUnits="userSpaceOnUse" x1="0" y1="0" x2="88" y2="0">
<stop offset="0" stop-color="#424048"/>
<stop offset="0.05" stop-color="#F6F5F4"/>
<stop offset="0.1" stop-color="#606060"/>
<stop offset="0.9" stop-color="#A8A8A8"/>
<stop offset="0.95" stop-color="#F6F5F4"/>
<stop offset="1" stop-color="#424048"/>
</linearGradient>
</defs>
<rect width="88" height="84" rx="8" fill="url(#dark)" transform="translate(20 36)"/>
<rect width="88" height="96" rx="8" fill="url(#silver)" transform="translate(20 18)"/>
<rect width="88" height="104" rx="8" fill="#8E8E8E" transform="translate(20 8)"/>
<g fill="#474747">
<rect width="18" height="6" transform="translate(55 80)"/>
<rect width="18" height="6" transform="translate(55 92)"/>
<path d="M12.5 25L0 12.5L12.5 0L25 12.5L12.5 25L12.5 25Z" transform="translate(72 27)"/>
<path d="M0 0L18 0L18 6L0 6L0 0Z" transform="matrix(-0.707 0.707 -0.707 -0.707 56.22 39.5)"/>
<path d="M0 0L18 0L18 6L1.9e-06 6L0 0Z" transform="matrix(-0.707 0.707 -0.707 -0.707 47.733 31)"/>
<circle r="11" cx="64" cy="60" fill="none" stroke-width="6" stroke="#474747"/>
</g></svg>
