<?xml version="1.0" encoding="utf-8"?>
<svg width="128" height="128" viewBox="0 0 128 128" xmlns="http://www.w3.org/2000/svg">
<linearGradient id="gray">
<stop offset="0" stop-color="#5E5C64"/>
<stop offset="5%" stop-color="#9A9996"/>
<stop offset="10%" stop-color="#77767B"/>
<stop offset="90%" stop-color="#77767B"/>
<stop offset="95%" stop-color="#9A9996"/>
<stop offset="1" stop-color="#5E5C64"/>
</linearGradient>
<rect width="88" height="112" rx="8" x="20" y="8" fill="url(#gray)"/>
<rect width="88" height="16" rx="8" x="20" y="104" fill="#5E5C64"/>
<rect width="84" height="12" rx="6" x="22" y="106" fill="#9A9996"/>
<path d="M20 0L20 6M16 0L16 6M12 0L12 6M8 0L8 6M4 0L4 6M0 0L0 6" fill="none" stroke="#5E5C64" stroke-width="2" stroke-linecap="round" transform="translate(29 109)"/>
<circle r="2" cx="100" cy="112" fill="#FFFFFF"/>
<g stroke="#C0BFBC" stroke-width="4">
<circle r="10" cx="64" cy="56" fill="none"/>
<line x1="58" y1="82" x2="70" y2="82"/>
<line x1="58" y1="74" x2="70" y2="74"/>
<g transform="rotate(45 64 56)">
<line x1="46" y1="50" x2="46" y2="62"/>
<line x1="38" y1="50" x2="38" y2="62"/>
<rect width="12" height="12" x="58" y="28" fill="#C0BFBC" stroke="none"/>
</g></g></svg>
