<?xml version="1.0" encoding="utf-8"?>
<svg width="128" height="128" viewBox="0 0 128 128" xmlns="http://www.w3.org/2000/svg">
<defs>
<linearGradient id="corners">
<stop offset="0" stop-color="#3C3745"/>
<stop offset="5%" stop-color="#5D5B63"/>
<stop offset="10%" stop-color="#3C3745"/>
<stop offset="90%" stop-color="#3C3745"/>
<stop offset="95%" stop-color="#5D5B63"/>
<stop offset="1" stop-color="#3D3846"/>
</linearGradient>
</defs>
<rect width="88" height="112" rx="8" x="20" y="8" fill="url(#corners)"/>
<rect width="88" height="108" rx="8" x="20" y="8" fill="#5E5C64"/>
<rect width="72" height="12" rx="4" x="28" y="14" fill="#3D3846"/>
<rect width="72" height="88" rx="4" x="28" y="16" fill="#DEDDDA"/>
<rect width="20" height="4" rx="2" x="54" y="108" fill="#3D3846"/>
<g fill="#808080">
<rect width="24" height="2" x="64" y="42"/>
<rect width="24" height="2" x="64" y="50"/>
<rect width="24" height="2" x="64" y="58"/>
<rect width="48" height="2" x="40" y="66"/>
<rect width="48" height="2" x="40" y="74"/>
<rect width="48" height="2" x="40" y="82"/>
<rect width="24" height="2" x="40" y="90"/>
<path d="M11 0L9 0L2 18L0 18L0 20L5 20L5 18L3.75 18L5.5 13.5L12.5 13.5L14.5 18L13 18L13 20L20 20L20 18L18 18ZM9 4L12 12L6 12Z" transform="translate(40 42)"/>
</g></svg>
