<?xml version="1.0" encoding="utf-8"?>
<svg width="128" height="128" viewBox="0 0 128 128" xmlns="http://www.w3.org/2000/svg">
<defs>
<linearGradient id="grdnt1">
<stop offset="0" stop-color="#FF6918"/>
<stop offset="5%" stop-color="#FFA06D"/>
<stop offset="15%" stop-color="#C64600"/>
<stop offset="85%" stop-color="#C64600"/>
<stop offset="95%" stop-color="#8F3200"/>
<stop offset="1" stop-color="#C64600"/>
</linearGradient>
<linearGradient id="grdnt2">
<stop offset="0" stop-color="#C0BFBC"/>
<stop offset="3%" stop-color="#DEDDDA"/>
<stop offset="8%" stop-color="#BDBDB9"/>
<stop offset="65%" stop-color="#C4C3C0"/>
<stop offset="94%" stop-color="#B8B7B3"/>
<stop offset="1" stop-color="#9F9D99"/>
</linearGradient>
<linearGradient id="grdnt3">
<stop offset="0" stop-color="#6A6966"/>
<stop offset="1" stop-color="#A09F9D"/>
</linearGradient>
</defs>
<path d="M30 0C46.57 0 60 13.4 60 30L60 90C60 94.4 56.4 98 52 98L8 98C3.6 98 0 94.4 0 90L0 30C0 13.4 13.4 0 30 0Z" fill="#FF7800" transform="translate(34 8)"/>
<path d="M0 0C0 4.4 3.6 8 8 8L52 8C56.4 8 60 4.4 60 0L60 16C60 20.4 56.4 24 52 24L8 24C3.6 24 0 20.4 0 16Z" fill="url(#grdnt1)" transform="translate(34 82)"/>
<rect width="40" height="26" rx="5" x="44" y="94" fill="url(#grdnt2)"/>
<rect width="40" height="10" rx="5" x="44" y="110" fill="#F6F5F4"/>
<rect width="38" height="8" rx="4" x="45" y="111" fill="url(#grdnt3)"/>
</svg>
