<?xml version="1.0" encoding="utf-8"?>
<svg width="128" height="128" viewBox="0 0 128 128" fill="none" xmlns="http://www.w3.org/2000/svg">
<defs>
<linearGradient id="gradient" gradientUnits="userSpaceOnUse" x1="0" y1="0" x2="112" y2="0">
<stop offset="0" stop-color="#444444"/>
<stop offset="0.02" stop-color="#808080"/>
<stop offset="0.08" stop-color="#404040"/>
<stop offset="0.92" stop-color="#404040"/>
<stop offset="0.98" stop-color="#808080"/>
<stop offset="1" stop-color="#444444"/>
</linearGradient>
</defs>
<path d="M0 0C0 0 0 8 0 8C0 12.4184 3.5817 16 8 16C8 16 104 16 104 16C108.418 16 112 12.4184 112 8C112 8 112 0 112 0L0 0Z" fill="url(#gradient)" transform="translate(8 92)"/>
<rect width="112" height="84" rx="8" ry="8" fill="#505050" transform="translate(8 20)"/>
<g transform="translate(16 28)">
<path d="M8 0L88 0L96 8L96 60L0 60L0 8L8 0Z" fill="#F6F5F4"/>
<rect width="96" height="32" fill="#FBAB0A" transform="translate(0 16)"/>
<g transform="translate(18 26)">
<rect width="24" height="12" fill="#929292" transform="translate(18 0)"/>
<rect width="16" height="12" fill="#555555" transform="translate(18 0)"/>
<circle r="6" fill="#424048" transform="translate(54 6)"/>
<circle r="6" fill="#424048" transform="translate(6 6)"/>
</g></g>
<path id="trapezoid" d="M0 10L56 10L52 0L4 0L0 10Z" fill="#808080" stroke-width="8" stroke="#808080" stroke-linecap="round" stroke-linejoin="round" transform="translate(36 92)"/>
<rect id="base" width="64" height="6" fill="#606060" transform="translate(32 102)"/>
<circle r="2" fill="#424048" transform="translate(44 95)"/>
<circle r="2" fill="#424048" transform="translate(84 95)"/>
</svg>
