<?xml version="1.0" encoding="utf-8"?>
<svg width="128" height="128" viewBox="0 0 128 128" xmlns="http://www.w3.org/2000/svg">
<defs>
<linearGradient id="corners" x1="0" y1="0" x2="1" y2="0">
<stop offset="0" stop-color="#78787A"/>
<stop offset="4%" stop-color="#BFBEBB"/>
<stop offset="16%" stop-color="#9A9996"/>
<stop offset="84%" stop-color="#999894"/>
<stop offset="96%" stop-color="#BFBEBB"/>
<stop offset="1" stop-color="#77767B"/>
</linearGradient>
<linearGradient id="display" x1="0" y1="1" x2="1" y2="0">
<stop offset="0" stop-color="#1C71D9"/>
<stop offset="1" stop-color="#63A1EB"/>
</linearGradient>
<clipPath id="hole">
<rect width="10" height="5" rx="2.5" x="59" y="111"/>
</clipPath>
<clipPath id="holes">
<circle r="1.5" cy="1"/>
</clipPath>
</defs>
<rect width="72" height="112" rx="8" x="28" y="8" fill="url(#corners)"/>
<rect width="72" height="100" rx="8" x="28" y="8" fill="#DEDDDA"/>
<rect width="64" height="92" rx="4" x="32" y="12" fill="#241F31"/>
<rect width="56" height="84" x="36" y="16" fill="url(#display)"/>
<g fill="#5F5C63">
<rect width="10" height="5" rx="2.5" x="59" y="111"/>
<g transform="translate(0 113.5)">
<circle r="1.5" cx="46.5"/>
<circle r="1.5" cx="50.5"/>
<circle r="1.5" cx="54.5"/>
<circle r="1.5" cx="73.5"/>
<circle r="1.5" cx="77.5"/>
<circle r="1.5" cx="81.5"/>
</g></g><g fill="#241F31">
<rect width="10" height="5" rx="2.5" x="59" y="110" clip-path="url(#hole)"/>
<g transform="translate(0 112.5)">
<circle r="1.5" transform="translate(46.5 0)" clip-path="url(#holes)"/>
<circle r="1.5" transform="translate(50.5 0)" clip-path="url(#holes)"/>
<circle r="1.5" transform="translate(54.5 0)" clip-path="url(#holes)"/>
<circle r="1.5" transform="translate(73.5 0)" clip-path="url(#holes)"/>
<circle r="1.5" transform="translate(77.5 0)" clip-path="url(#holes)"/>
<circle r="1.5" transform="translate(81.5 0)" clip-path="url(#holes)"/>
</g></g><g fill="#241F31">
<rect width="16" height="4" rx="2" x="56" y="20"/>
<circle r="2" cx="78" cy="22"/>
</g></svg>
