<?xml version="1.0" encoding="utf-8"?>
<svg width="128" height="128" viewBox="0 0 128 128" xmlns="http://www.w3.org/2000/svg">
<defs>
<linearGradient id="corners1" x1="0" y1="0" x2="1" y2="0">
<stop offset="0" stop-color="#999894"/>
<stop offset="6%" stop-color="#C0BFBC"/>
<stop offset="12%" stop-color="#9A9996"/>
<stop offset="88%" stop-color="#76767A"/>
<stop offset="94%" stop-color="#C0BFBC"/>
<stop offset="1" stop-color="#77767B"/>
</linearGradient>
<linearGradient id="corners2" x1="0" y1="0" x2="1" y2="0">
<stop offset="0" stop-color="#77767B"/>
<stop offset="4%" stop-color="#BFBEBB"/>
<stop offset="8%" stop-color="#9A9996"/>
<stop offset="92%" stop-color="#9A9996"/>
<stop offset="96%" stop-color="#C0BFBC"/>
<stop offset="1" stop-color="#77767B"/>
</linearGradient>
<linearGradient id="shadow" x1="0" y1="0" x2="0" y2="1">
<stop offset="0" stop-color="#76767A"/>
<stop offset="1" stop-color="#BFBEBB"/>
</linearGradient>
<linearGradient id="display" x1="0" y1="0" x2="1" y2="1">
<stop offset="0" stop-color="#50DBB5"/>
<stop offset="1" stop-color="#4A86CF"/>
</linearGradient>
</defs>
<rect width="48" height="10" rx="4" x="40" y="108" fill="url(#corners1)"/>
<path d="M0 0L12 0C12 6.6 17.4 12 24 12C30.6 12 36 6.6 36 0L48 0L48 16C48 18.2 46.2 20 44 20L4 20C1.8 20 0 18.2 0 16Z" fill="url(#shadow)" transform="translate(40 96)"/>
<rect width="112" height="88" rx="8" x="8" y="12" fill="url(#corners2)"/>
<rect width="112" height="84" rx="8" x="8" y="12" fill="#DEDDDA"/>
<rect width="104" height="76" rx="4" x="12" y="16" fill="#241F31"/>
<rect width="96" height="68" x="16" y="20" fill="url(#display)"/>
<g fill="none" stroke="#FFFFFF" stroke-width="2" stroke-linecap="round">
<path d="M9 0L9 9L0 9" transform="translate(98 74)"/>
<path d="M0 0L0 9L9 9" transform="translate(21 74)"/>
<path d="M9 9L9 0L0 0" transform="translate(98 25)"/>
<path d="M0 9L0 0L9 0" transform="translate(21 25)"/>
</g></svg>
