<?xml version="1.0" encoding="utf-8"?>
<svg width="16" height="16" viewBox="0 0 16 16" fill="gray" xmlns="http://www.w3.org/2000/svg">
<path d="M9.75 0L2.5 0C1.11911 0 0 1.1191 0 2.5L0 13.5C0 14.8809 1.11911 16 2.5 16L11.5 16C12.8809 16 14 14.8809 14 13.5L14 4.25L9.75 0L9.75 0ZM9 5L13 5L13 13.5C13 14.33 12.33 15 11.5 15L2.5 15C1.67 15 1 14.33 1 13.5L1 2.5C1 1.67 1.67 1 2.5 1L9 1L9 5L9 5ZM3 7L3 6L11 6L11 7L3 7L3 7ZM3 9L3 8L11 8L11 9L3 9L3 9ZM3 11L3 10L11 10L11 11L3 11L3 11ZM3 13L3 12L7 12L7 13L3 13L3 13Z" fill-rule="evenodd" transform="translate(1 0)"/>
</svg>