<?xml version="1.0" encoding="utf-8"?>
<svg width="16" height="16" viewBox="0 0 16 16" fill="gray" xmlns="http://www.w3.org/2000/svg">
<path d="M13 0C14.65 0 16 1.35 16 3C16 4.65 14.65 6 13 6C12.0297 6 11.1631 5.53311 10.6138 4.81289L5.89566 7.2169C5.96367 7.467 6 7.72935 6 8C6 8.23603 5.97238 8.46593 5.9202 8.6866L10.6755 11.1095C11.2254 10.4347 12.0622 10 13 10C14.65 10 16 11.35 16 13C16 14.65 14.65 16 13 16C11.35 16 10 14.65 10 13C10 12.6417 10.0648 12.2982 10.1808 11.9798L5.52858 9.6094C4.99432 10.444 4.05894 11 3 11C1.35 11 0 9.65 0 8C0 6.34533 1.34534 5 3 5C4.02411 5 4.93265 5.52 5.47456 6.30914L10.1478 3.92802C10.0519 3.63549 10 3.32351 10 3C10 1.34533 11.3453 0 13 0L13 0ZM15 13C15 12.4511 14.804 11.9806 14.4116 11.5884C14.0194 11.1961 13.55 11 13 11C12.4497 11 11.9792 11.198 11.5886 11.5886C11.198 11.9792 11 12.4507 11 13C11 13.55 11.1961 14.0194 11.5884 14.4116C11.9806 14.804 12.4511 15 13 15C13.5489 15 14.0194 14.804 14.4116 14.4116C14.804 14.0194 15 13.5489 15 13L15 13ZM4.41164 6.58836C4.80388 6.9806 5 7.45114 5 8C5 8.54886 4.804 9.01941 4.41164 9.41164C4.01941 9.80388 3.54886 10 3 10C2.45114 10 1.9806 9.804 1.58836 9.41164C1.19612 9.01941 1 8.54992 1 8C1 7.45075 1.19795 6.97922 1.58858 6.58858C1.97922 6.19795 2.44969 6.00175 3 6C3.54886 6 4.01941 6.19612 4.41164 6.58836L4.41164 6.58836ZM14.4116 1.58836C14.8039 1.98059 15 2.45114 15 3C15 3.54886 14.8039 4.01941 14.4116 4.41164C14.0194 4.80388 13.549 5 13 5C12.4511 5 11.9806 4.80388 11.5884 4.41164C11.1961 4.01941 11 3.55 11 3C11.0018 2.45075 11.198 1.97922 11.5886 1.58858C11.9792 1.19795 12.4497 1 13 1C13.5489 1 14.0194 1.19612 14.4116 1.58836L14.4116 1.58836Z" fill-rule="evenodd"/>
</svg>