<?xml version="1.0" encoding="utf-8"?>
<svg width="16" height="16" viewBox="0 0 16 16" fill="gray" xmlns="http://www.w3.org/2000/svg">
<path d="M0 3C0 4.4865 1.08115 5.72048 2.5 5.95852L2.5 10.0415C1.08115 10.2795 0 11.5135 0 13C0 14.6569 1.34314 16 3 16C4.65686 16 6 14.6569 6 13C6 11.5135 4.91885 10.2795 3.5 10.0415L3.5 5.95852C4.18924 5.84289 4.7988 5.49223 5.24344 4.99178L8.22592 6.85582C8.08032 7.20842 8 7.59483 8 8C8 9.65685 9.34314 11 11 11C12.6569 11 14 9.65685 14 8C14 6.34315 12.6569 5 11 5C10.1075 5 9.30609 5.3897 8.75656 6.00822L5.77408 4.14418C5.91968 3.79158 6 3.40517 6 3C6 1.34315 4.65686 0 3 0C1.34314 0 0 1.34315 0 3L0 3ZM1 3C1 1.89543 1.89543 1 3 1C4.10457 1 5 1.89543 5 3C5 4.10457 4.10457 5 3 5C1.89543 5 1 4.10457 1 3L1 3ZM9 8C9 6.89543 9.89543 6 11 6C12.1046 6 13 6.89543 13 8C13 9.10457 12.1046 10 11 10C9.89543 10 9 9.10457 9 8L9 8ZM3 11C1.89543 11 1 11.8954 1 13C1 14.1046 1.89543 15 3 15C4.10457 15 5 14.1046 5 13C5 11.8954 4.10457 11 3 11L3 11Z" fill-rule="evenodd" transform="translate(1 0)"/>
</svg>
