<?xml version="1.0" encoding="utf-8"?>
<svg width="16" height="16" viewBox="0 0 16 16" fill="gray" xmlns="http://www.w3.org/2000/svg">
<path d="M12 0C13.1047 0 14 0.895281 14 2L14 12C14 13.1047 13.1047 14 12 14L2 14C0.895279 14 0 13.1047 0 12L0 2C0 0.895281 0.895279 0 2 0L12 0L12 0ZM3 1L3 7.5C3 7.77618 3.22382 8 3.5 8L4 8L4 13L2 13C1.33333 13 1 12.6667 1 12L1 2C1 1.33333 1.33333 1 2 1L3 1L3 1ZM9 13L5 13L5 8L5.5 8C5.77618 8 6 7.77618 6 7.5L6 1L8 1L8 7.5C8 7.77618 8.22382 8 8.5 8L9 8L9 13L9 13ZM11 7.5L11 1L12 1C12.6667 1 13 1.33333 13 2L13 12C13 12.6667 12.6667 13 12 13L10 13L10 8L10.5 8C10.7762 8 11 7.77618 11 7.5L11 7.5Z" fill-rule="evenodd" transform="translate(1 1)"/>
</svg>