<?xml version="1.0" encoding="utf-8"?>
<svg width="16" height="16" viewBox="0 0 16 16" fill="gray" xmlns="http://www.w3.org/2000/svg">
<path d="M0 8C0 5.79086 0.781067 3.90524 2.34314 2.34315C3.90523 0.781049 5.79085 0 8 0C10.2091 0 12.0947 0.781049 13.6569 2.34315C15.2189 3.90524 16 5.79086 16 8C16 10.2091 15.2189 12.0948 13.6569 13.6569C12.0947 15.219 10.2091 16 8 16C5.79085 16 3.90523 15.219 2.34314 13.6569C0.781067 12.0948 0 10.2091 0 8L0 8ZM6.20557 5L9.88086 5C9.65942 2.59957 9.12927 1.27953 8.29047 1.03987C8.19745 1.01329 8.10065 1 8 1C7.54993 1 7.11877 1.61827 6.7066 2.85481C6.48964 3.5057 6.32263 4.22076 6.20557 5L6.20557 5ZM5.19519 5L1.65192 5C1.98802 4.29627 2.45412 3.64636 3.05023 3.05025C4.01086 2.08967 5.11121 1.46662 6.35144 1.18112C6.13509 1.54805 5.93724 2.00054 5.75787 2.53859C5.50905 3.28509 5.32149 4.10557 5.19519 5L5.19519 5ZM14.3481 5L10.8684 5C10.7024 3.32932 10.3795 2.07733 9.89954 1.24402C11.0377 1.55289 12.0544 2.15496 12.9498 3.05025C13.5459 3.64636 14.012 4.29627 14.3481 5L14.3481 5ZM5.08215 6C5.02738 6.63363 5 7.3003 5 8C5 8.6997 5.02738 9.36637 5.08215 10L1.27216 10C1.09072 9.37086 1 8.70419 1 8C1 7.29581 1.09072 6.62914 1.27216 6L5.08215 6L5.08215 6ZM6.08594 10L9.95203 10C9.98401 9.38928 10 8.72261 10 8C10 7.27739 9.98401 6.61072 9.95203 6L6.08594 6C6.02865 6.62998 6 7.29665 6 8C6 8.70335 6.02865 9.37002 6.08594 10L6.08594 10ZM10.9462 10L14.7278 10C14.9093 9.37086 15 8.70419 15 8C15 7.29581 14.9093 6.62914 14.7278 6L10.9462 6C10.9821 6.61865 11 7.28531 11 8C11 8.71469 10.9821 9.38135 10.9462 10L10.9462 10ZM1.65192 11L5.19519 11C5.32149 11.8944 5.50905 12.7149 5.75787 13.4614C5.93724 13.9995 6.13509 14.4519 6.35144 14.8189C5.11121 14.5334 4.01086 13.9103 3.05023 12.9497C2.45412 12.3536 1.98802 11.7037 1.65192 11L1.65192 11ZM9.88086 11L6.20557 11C6.32263 11.7792 6.48964 12.4943 6.7066 13.1452C7.11877 14.3817 7.54993 15 8 15C9.00787 15 9.63483 13.6667 9.88086 11L9.88086 11ZM9.89954 14.756C10.3795 13.9227 10.7024 12.6707 10.8684 11L14.3481 11C14.012 11.7037 13.5459 12.3536 12.9498 12.9497C12.0544 13.845 11.0377 14.4471 9.89954 14.756L9.89954 14.756Z" fill-rule="evenodd"/>
</svg>
