<?xml version="1.0" encoding="utf-8"?>
<svg width="16" height="16" viewBox="0 0 16 16" fill="gray" xmlns="http://www.w3.org/2000/svg">
<path d="M0.707092 3.2929L4 0L16 0L16 12L15.2929 12.7071L12.7071 15.2929L12 16L0 16L0 4L0.707092 3.2929L0.707092 3.2929ZM5 1L14.2929 1L12 3.2929L11.2929 4L5 4L5 1L5 1ZM4 4L1.41422 4L4 1.41419L4 4L4 4ZM12 11L12 4.70708L12.7071 4L15 1.7071L15 11L12 11L12 11ZM4 5L4 11.2929L1 14.2929L1 5L4 5L4 5ZM5 11L11 11L11 5L5 5L5 11L5 11ZM11 15L1.70712 15L4.00003 12.7071L4.70709 12L11 12L11 15L11 15ZM12 12L14.5858 12L12 14.5858L12 12L12 12Z" fill-rule="evenodd"/>
</svg>