<?xml version="1.0" encoding="utf-8"?>
<svg width="16" height="16" viewBox="0 0 16 16" fill="gray" xmlns="http://www.w3.org/2000/svg">
<g transform="translate(0 1)">
<path d="M14 13C15.1047 13 16 12.1048 16 11L16 2C16 0.9 15.1 6.07967e-05 14 0L10 1.52588e-05C9.64935 1.52588e-05 9.31278 0.06 9 0.170717C8.9577 0.185662 8.91586 0.201529 8.87448 0.218292C8.55112 0.349251 8.2558 0.534954 8 0.763909C7.7442 0.534954 7.44885 0.349251 7.12552 0.218288C6.77796 0.077526 6.398 7.62939e-06 6 0L2 2.28882e-05L2 0C1 6.07967e-05 0 0.898224 0 2L0 11C0 12.1048 0.895294 13 2 13L6 13C6.16895 13 6.33301 13.021 6.48975 13.0604C6.64911 13.1005 6.8 13.16 6.94244 13.2355C7.57184 13.5724 8 14.2362 8 15C8 14.0644 8.64243 13.2788 9.51025 13.0604C9.66696 13.021 9.83103 13 10 13L14 13ZM14 12L10 12C9.60196 12 9.222 12.0775 8.87448 12.2183C8.55112 12.3492 8.2558 12.5349 8 12.7639C7.7442 12.5349 7.44885 12.3492 7.12549 12.2183C6.77796 12.0775 6.398 12 6 12L2 12C1.95834 12 1.91797 12 1.87891 11.9961C1.29297 11.9571 1 11.625 1 11L1 2C1 1.33335 1.33334 1 2 1L6 1L6.00791 1C6.17407 1 6.33545 1.02157 6.48975 1.06041C7.35754 1.27885 8 2.06441 8 3C8 2.25973 8.40219 1.61338 9 1.26757C9.15775 1.17633 9.32907 1.10601 9.51025 1.06041C9.66696 1.02097 9.83103 1 10 1L10 8L13 7L13 1L14 1C14.3333 1 14.5833 1.08336 14.75 1.25C14.9167 1.4167 15 1.666 15 2L15 11C15 11.625 14.707 11.9571 14.1211 11.9961C14.082 11.9987 14.0417 12 14 12L14 12Z"/>
<path d="M4.73251 7.27177e-06L2 2.28882e-05L2 0C1 6.07967e-05 0 0.898224 0 2.00002L0 11C0 12.1048 0.895294 13 2 13L4.24952 13L6 13C6.16895 13 6.33301 13.021 6.48975 13.0604C6.64911 13.1005 6.8 13.1598 6.94244 13.2355C7.57184 13.5724 8 14.2362 8 15C8 14.0644 8.64243 13.28 9.51025 13.0604C9.66696 13.021 9.83103 13 10 13L11.7103 13L14 13C15.1047 13 16 12.1048 16 11L16 2C16 1.63642 15.9016 1.29465 15.7302 1C15.3831 0.403373 14.7364 4.071e-05 14 0L11.3678 1.00136e-05L10 1.52588e-05C9.64935 1.52588e-05 9.31278 0.0601666 9 0.170717C8.9577 0.185662 8.91586 0.201529 8.87448 0.218292C8.55112 0.349251 8.2558 0.534954 8 0.763909C7.7442 0.534954 7.44885 0.349251 7.12552 0.218288C6.77796 0.077526 6.39801 7.62939e-06 6 0L4.73251 7.27177e-06ZM6 1L2 1C1.33334 1 1 1.33335 1 2L1 11C1 11.625 1.29297 11.9571 1.87891 11.9961C1.91797 11.9987 1.95834 12 2 12L4.63212 12L6 12C6.39801 12 6.77796 12.0775 7.12549 12.2183C7.44885 12.3492 7.7442 12.5349 8 12.7639C8.2558 12.5349 8.55112 12.3492 8.87448 12.2183C9.222 12.0775 9.60196 12 10 12L10.649 12L11.2772 12L14 12.0001C14.0417 12 14.082 11.9987 14.1211 11.9961C14.707 11.9571 15 11.625 15 11.0001L15 2C15 1.6667 14.9167 1.4167 14.75 1.25C14.5833 1.08337 14.3333 1 14 1L14 1L13 1L13 7L11 7.6666L10 8L10 1C9.831 1 9.66696 1.02097 9.51025 1.06041C9.32907 1.106 9.15775 1.17633 9 1.26757C8.40219 1.61338 8 2.25973 8 3C8 2.06441 7.35754 1.27885 6.48975 1.06041C6.33545 1.02157 6.17407 1 6.00791 1Z" fill-rule="evenodd"/>
</g><g transform="translate(3 4)">
<rect width="3" height="1" transform="translate(0 6)"/>
<rect width="3" height="1" transform="translate(0 4)"/>
<rect width="3" height="1" transform="translate(0 2)"/>
<rect width="3" height="1"/>
</g></svg>