<?xml version="1.0" encoding="utf-8"?>
<svg width="16" height="16" viewBox="0 0 16 16" fill="gray" xmlns="http://www.w3.org/2000/svg">
<path d="M14 2C14 0.895279 13.1047 0 12 0L2 0C0.895279 0 0 0.895279 0 2L0 4C0 4.5974 0.26181 5.13355 0.676971 5.5C0.26181 5.86645 0 6.4026 0 7L0 9C0 9.5974 0.26181 10.1336 0.676971 10.5C0.26181 10.8664 0 11.4026 0 12L0 14C0 15.1047 0.89528 16 2 16L12 16C13.1047 16 14 15.1047 14 14L14 12C14 11.4026 13.7382 10.8664 13.323 10.5C13.7382 10.1336 14 9.5974 14 9L14 7C14 6.4026 13.7382 5.86645 13.323 5.5C13.7382 5.13355 14 4.5974 14 4L14 2L14 2ZM12 5L2 5C1.72379 5 1.48806 4.9024 1.29284 4.70716C1.09761 4.51194 1 4.27622 1 4L1 2C1 1.72378 1.09761 1.4881 1.29284 1.29284C1.4881 1.09761 1.7238 1 2 1L12 1C12.2762 1 12.5119 1.09761 12.7072 1.29284C12.9024 1.48806 13 1.72378 13 2L13 4C13 4.27622 12.9024 4.51194 12.7072 4.70716C12.5119 4.9024 12.2762 5 12 5L12 5ZM10 3L10 4L12 4L12 3L10 3L10 3ZM1.29284 6.29284C1.4881 6.09761 1.72379 6 2 6L12 6C12.2762 6 12.5119 6.09761 12.7072 6.29284C12.9024 6.48806 13 6.72378 13 7L13 9C13 9.27622 12.9024 9.51194 12.7072 9.70716C12.5119 9.90239 12.2762 10 12 10L2 10C1.72379 10 1.48806 9.90239 1.29284 9.70716C1.09761 9.51194 1 9.27622 1 9L1 7C1 6.72378 1.09761 6.4881 1.29284 6.29284L1.29284 6.29284ZM10 8L10 9L12 9L12 8L10 8L10 8ZM12 11L2 11C1.72379 11 1.4881 11.0976 1.29284 11.2928C1.09761 11.4881 1 11.7238 1 12L1 14C1 14.2762 1.09761 14.5119 1.29284 14.7072C1.4881 14.9024 1.72379 15 2 15L12 15C12.2762 15 12.5119 14.9024 12.7072 14.7072C12.9024 14.5119 13 14.2762 13 14L13 12C13 11.7238 12.9024 11.4881 12.7072 11.2928C12.5119 11.0976 12.2762 11 12 11L12 11ZM10 13L10 14L12 14L12 13L10 13L10 13Z" fill-rule="evenodd" transform="translate(1 0)"/>
</svg>