<?xml version="1.0" encoding="utf-8"?>
<svg width="16" height="16" viewBox="0 0 16 16" fill="gray" xmlns="http://www.w3.org/2000/svg">
<path d="M9 1C9 0.44764 8.55237 0 8 0L5 0C4.44763 0 4 0.44764 4 1L4 2L3 2C1.8953 2 1 2.8953 1 4L0 4L0 5L1 5L1 14C1 15.1047 1.8953 16 3 16L10 16C11.1047 16 12 15.105 12 14L12 5L13 5L13 4L12 4C12 2.8953 11.1047 2 10 2L9 2L9 1L9 1ZM8 2L5 2L5 1L8 1L8 2L8 2ZM2 14L2 5L11 5L11 14C11 14.666 10.666 15 10 15L3 15C2.3333 15 2 14.666 2 14L2 14ZM4 6L4 12L5 12L5 6L4 6L4 6ZM6 6L6 12L7 12L7 6L6 6L6 6ZM8 6L8 12L9 12L9 6L8 6L8 6Z" fill-rule="evenodd" transform="translate(1 0)"/>
</svg>