<?xml version="1.0" encoding="utf-8"?>
<svg width="16" height="16" viewBox="0 0 16 16" fill="gray" xmlns="http://www.w3.org/2000/svg">
<path d="M16 2.5C16 1.1191 14.881 0 13.5 0L2.5 0C1.1191 0 0 1.1191 0 2.5L0 11.5C0 12.881 1.1191 14 2.5 14L13.5 14C14.881 14 16 12.881 16 11.5L16 2.5L16 2.5ZM4 1L13.5 1C13.9143 1 14.268 1.14642 14.5607 1.43927C14.8536 1.73212 15 2.0857 15 2.5L15 11.5C15 11.9143 14.8536 12.268 14.5607 12.5607C14.268 12.8536 13.9143 13 13.5 13L4 13L4 1L4 1Z" fill-rule="evenodd" transform="translate(0 1)"/>
</svg>