<?xml version="1.0" encoding="utf-8"?>
<svg width="128" height="128" viewBox="0 0 128 128" xmlns="http://www.w3.org/2000/svg">
<defs>
<linearGradient id="gradient">
<stop offset="0" stop-color="#73274F"/>
<stop offset="1" stop-color="#DE5223"/>
</linearGradient>
</defs>
<g transform="translate(12 12)">
<path d="M94 12C99.524 12 104 16.476 104 22L104 96C104 101.524 99.524 106 94 106L10 106C4.476 106 0 101.524 0 96L0 10C0 4.476 4.476 0 10 0L30 0C33.7 0 37 2.1 38.7 5.4L40.2 8.4C41.3 10.6 43.5 12 46 12L94 12Z" fill="#505050"/>
<path d="M94 12C99.524 12 104 16.476 104 22C104 22 104 38 104 38L0 38C0 38 0 10 0 10C0 4.476 4.476 0 10 0C10 0 30 0 30 0C33.7 0 37 2.1 38.7 5.4C38.7 5.4 40.2 8.4 40.2 8.4C41.3 10.6 43.5 12 46 12C46 12 94 12 94 12C94 12 94 12 94 12Z" fill="url(#gradient)"/>
<path d="M94 0C99.524 0 104 4.476 104 10L104 74C104 79.524 99.524 84 94 84L10 84C4.476 84 0 79.5241 0 74L0 18C0 12.4765 4.476 8 10 8L38 8C38 8 42 8 46 4C50 0 54 0 54 0L94 0Z" fill="#808080" transform="translate(0 20)"/>
</g></svg>
