<?xml version="1.0" encoding="utf-8"?>
<svg width="16" height="16" viewBox="0 0 16 16" fill="none" xmlns="http://www.w3.org/2000/svg">
<path d="M8 0C3.58172 0 0 3.58172 0 8C0 12.4183 3.58172 16 8 16C12.4183 16 16 12.4183 16 8C16 3.58172 12.4183 0 8 0L8 0ZM3.05025 12.9497C1.68342 11.5829 0.999999 9.933 0.999999 8C1 6.067 1.68342 4.41709 3.05025 3.05025C4.41709 1.68342 6.067 0.999999 8 0.999999C9.933 1 11.5829 1.68342 12.9497 3.05025C14.3166 4.41709 15 6.067 15 8C15 9.933 14.3166 11.5829 12.9497 12.9497C11.5829 14.3166 9.933 15 8 15C6.067 15 4.41709 14.3166 3.05025 12.9497L3.05025 12.9497Z" fill="#808080" fill-rule="evenodd"/>
<path d="M0.707107 0L4.35356 3.64645L6.73484 1.26517L7 1L7.70711 1.70711L4.35356 5.06067L0 0.707107L0.353554 0.353553L0.707107 0L0.707107 0Z" fill="#808080" transform="translate(3.646 3.646)"/>
</svg>