<?xml version="1.0" encoding="utf-8"?>
<svg width="16" height="16" viewBox="0 0 16 16" fill="gray" xmlns="http://www.w3.org/2000/svg">
<path d="M0.487366 5.2903L0.956979 5.46195L1.42659 5.63359C1.64106 5.04682 1.93 4.5 2.2906 4L1.88315 3.70114L1.4757 3.41135C1.0621 4 0.732664 4.61918 0.487366 5.29L0.487366 5.2903ZM0.0544246 8.97667L0.551057 8.91873L1.04769 8.8608C0.975016 8.23785 0.985469 7.61604 1.08 7L0.584635 6.92083L0.0902224 6.84628C-0.0166416 7.55507 -0.0285742 8.2652 0.0544246 8.97667L0.0544246 8.97667ZM1.35123 10.2376L0.87633 10.394L0.40143 10.5504C0.624352 11.2272 0.932937 11.863 1.32718 12.4574L1.744 12.181L2.16058 11.9047C1.816 11.385 1.54611 10.8292 1.35123 10.2376L1.35123 10.2376ZM2.34357 2.38649C5.52555 -0.8 10.4753 -0.795496 13.6573 2.38649C16.8393 5.56847 16.8393 10.5182 13.6573 13.7C10.4753 16.8822 5.52555 16.8822 2.34357 13.7L3.05068 13C5.78435 15.7268 10.2165 15.7268 12.95 13C15.6838 10.2594 15.6838 5.82726 12.9502 3.09359C10.2165 0.36 5.78435 0.36 3.05067 3.0936L2.34357 2.38649L2.34357 2.38649Z"/>
<path d="M0 0L8 4L0 8Z" transform="translate(5 4)"/>
</svg>
