<?xml version="1.0" encoding="utf-8"?>
<svg width="16" height="16" viewBox="0 0 16 16" fill="gray" xmlns="http://www.w3.org/2000/svg">
<defs>
<clipPath id="up">
<path d="M0 0L12 0L0 12Z"/>
</clipPath>
<clipPath id="dn">
<path d="M15 15L0 15L15 0Z"/>
</clipPath>
</defs>
<g clip-path="url(#up)">
<path d="M7.5 0C3.3 0 0 3.3 0 7.5C0 11.7 3.3 15 7.5 15C11.7 15 15 11.7 15 7.5C15 3.3 11.7 0 7.5 0ZM3 12C1.6 11 1 9.33 1 7.5C1 5.66 1.6 4 3 3C4 1.6 5.66 1 7.5 1C9.33 1 11 1.6 12 3C13.4 4 14 5.66 14 7.5C14 9.33 13.4 11 12 12C11 13.4 9.33 14 7.5 14C5.66 14 4 13.4 3 12Z"/>
<path d="M0 2.5C0 1 1 0 2.5 0L5 0C6 0 7 1 7 2L6 2C6 1.5 5.5 1 5 1L2.5 1C1.66 1 1 1.67 1 2.5C1 3.33 1.66 4 2.5 4L4.5 4C6 4 7 5 7 6.5C7 8 6 9 4.5 9L2 9C1 9 0 8 0 7L1 7C1 7.5 1.5 8 2 8L4.5 8C5.33 8 6 7.33 6 6.5C6 5.66 5.33 5 4.5 5L2.5 5C1 5 0 4 0 2.5Z" transform="translate(4 3)"/>
<rect width="1" height="11" x="7" y="2"/>
</g><g clip-path="url(#dn)">
<path d="M7.5 0C3.3 0 0 3.3 0 7.5C0 11.7 3.3 15 7.5 15C11.7 15 15 11.7 15 7.5C15 3.3 11.7 0 7.5 0ZM3 12C1.6 11 1 9.33 1 7.5C1 5.66 1.6 4 3 3C4 1.6 5.66 1 7.5 1C9.33 1 11 1.6 12 3C13.4 4 14 5.66 14 7.5C14 9.33 13.4 11 12 12C11 13.4 9.33 14 7.5 14C5.66 14 4 13.4 3 12Z"/>
<path d="M0 2.5C0 1 1 0 2.5 0L5 0C6 0 7 1 7 2L6 2C6 1.5 5.5 1 5 1L2.5 1C1.66 1 1 1.67 1 2.5C1 3.33 1.66 4 2.5 4L4.5 4C6 4 7 5 7 6.5C7 8 6 9 4.5 9L2 9C1 9 0 8 0 7L1 7C1 7.5 1.5 8 2 8L4.5 8C5.33 8 6 7.33 6 6.5C6 5.66 5.33 5 4.5 5L2.5 5C1 5 0 4 0 2.5Z" transform="translate(4 3)"/>
<rect width="1" height="11" x="7" y="2"/>
</g><path d="M1 15L0 14L14 0L15 1Z"/>
</svg>
