<?xml version="1.0" encoding="utf-8"?>
<svg width="16" height="16" viewBox="0 0 16 16" fill="gray" xmlns="http://www.w3.org/2000/svg">
<path d="M3 5L0 5L0 16L12 16C13.1 16 14 15.1 14 14L14 12.8C14.7 12.5 15 12.1 15 11L15 9.8C15.7 9.5 16 9.1 16 8L16 7C16 5.9 15.1 5 14 5L9 5L9.5 3.5C10 2 9 0 7 0L6.5 0ZM4 15L12 15C12.55 15 13 14.55 13 14L13 12C13.55 12 14 11.55 14 11L14 9C14.55 9 15 8.55 15 8L15 7C15 6.45 14.55 6 14 6L7.5 6L8.5 3.4C9 2 8.1 1 7 1L4 5.5ZM3 6L3 15L1 15L1 6Z" fill-rule="evenodd"/>
</svg>
