<?xml version="1.0" encoding="utf-8"?>
<svg width="16" height="15.998" viewBox="0 0 16 15.998" fill="none" xmlns="http://www.w3.org/2000/svg">
  <path id="Forma" d="M7.99805 0C7.22852 0 6.45898 0.292969 5.87695 0.875C5.87695 0.875 0.873047 5.87891 0.873047 5.87891C-0.291016 7.04297 -0.291016 8.95703 0.873047 10.1211C0.873047 10.1211 5.87695 15.125 5.87695 15.125C7.04102 16.2891 8.95508 16.2891 10.1191 15.125C10.1191 15.125 15.127 10.1211 15.127 10.1211C16.291 8.95703 16.291 7.04297 15.127 5.87891C15.127 5.87891 10.1191 0.875 10.1191 0.875C9.53711 0.292969 8.76758 0 7.99805 0C7.99805 0 7.99805 0 7.99805 0ZM6.5293 3.04688C6.83008 3.46875 6.99414 3.97656 6.99805 4.5C6.99805 5.87891 5.87695 7 4.49805 7C3.97461 6.99609 3.4668 6.82812 3.04883 6.52734C3.04883 6.52734 6.5293 3.04688 6.5293 3.04688ZM9.97071 3.55078C9.97071 3.55078 13.7129 7.29297 13.7129 7.29297C14.1152 7.69531 14.1152 8.30469 13.7129 8.70703C13.7129 8.70703 13.459 8.95703 13.459 8.95703C13.4199 8.91016 13.3848 8.86328 13.3418 8.81641C13.3418 8.81641 13.9629 7.96094 13.9629 7.96094L13.1543 7.375C13.1543 7.375 12.5332 8.22656 12.5332 8.22656C12.3652 8.14844 12.1855 8.08984 11.998 8.05078C11.998 8.05078 11.998 7 11.998 7L10.998 7C10.998 7 10.998 8.05078 10.998 8.05078C10.8145 8.08984 10.6348 8.14844 10.4668 8.22656C10.4668 8.22656 9.84571 7.375 9.84571 7.375L9.04102 7.96094C9.04102 7.96094 9.65821 8.81641 9.65821 8.81641C9.53321 8.95312 9.41992 9.10547 9.32617 9.26953C9.32617 9.26953 8.32617 8.94531 8.32617 8.94531L8.01758 9.89453C8.01758 9.89453 9.01758 10.2188 9.01758 10.2188C9.00586 10.3125 8.99805 10.4062 8.99805 10.5C8.99805 10.5938 9.00586 10.6875 9.01758 10.7812C9.01758 10.7812 8.01758 11.1055 8.01758 11.1055L8.32617 12.0547C8.32617 12.0547 9.32617 11.7305 9.32617 11.7305C9.41992 11.8945 9.53321 12.0469 9.65821 12.1836C9.65821 12.1836 9.04102 13.0391 9.04102 13.0391L9.23633 13.1797C9.23633 13.1797 8.70508 13.7109 8.70508 13.7109C8.30274 14.1172 7.69336 14.1172 7.29102 13.7109C7.29102 13.7109 2.38867 8.80859 2.38867 8.80859L2.41602 8.76953C2.41602 8.76953 2.62305 8.48047 2.62305 8.48047C2.95508 8.63281 3.30664 8.75 3.66992 8.82031C3.66992 8.82031 3.66992 10 3.66992 10L5.32227 10C5.32227 10 5.32227 8.82031 5.32227 8.82031C5.68555 8.75 6.03711 8.63281 6.36914 8.48047C6.36914 8.48047 6.57617 8.76953 6.57617 8.76953L7.06055 9.4375L8.39258 8.46484L7.91211 7.79688C7.91211 7.79688 7.70117 7.50781 7.70117 7.50781C7.95117 7.23828 8.16992 6.94141 8.3457 6.61719C8.3457 6.61719 8.68555 6.73047 8.68555 6.73047L9.4707 6.98438L9.98242 5.41797L9.19727 5.16016C9.19727 5.16016 8.85742 5.05078 8.85742 5.05078C8.88086 4.87109 8.89649 4.6875 8.89649 4.5C8.89649 4.3125 8.88086 4.12891 8.85742 3.94922C8.85742 3.94922 9.19727 3.83984 9.19727 3.83984L9.98242 3.58203L9.97071 3.55078ZM11.498 9C12.0254 9 12.4824 9.26562 12.748 9.66797C12.748 9.66797 10.6699 11.75 10.6699 11.75C10.2637 11.4805 9.99805 11.0273 9.99805 10.5C9.99805 9.66406 10.666 9 11.498 9C11.498 9 11.498 9 11.498 9Z" fill="#808080" />
</svg>