<?xml version="1.0" encoding="utf-8"?>
<svg width="16" height="16" viewBox="0 0 16 16" fill="none" xmlns="http://www.w3.org/2000/svg">
<path d="M4 2.5C4 1.1191 5.11908 0 6.5 0C7.88092 0 9 1.1191 9 2.5L9 3L13 3L13 7L13.5 7C14.8809 7 16 8.1191 16 9.5C16 10.8809 14.8809 12 13.5 12L13 12L13 16L8 16L8 14.5C8 13.6715 7.32854 13 6.5 13C5.67146 13 5 13.6715 5 14.5L5 16L0 16L0 11L1.5 11C2.32854 11 3 10.3285 3 9.5C3 8.67146 2.32854 8 1.5 8L0 8L0 3L4 3L4 2.5L4 2.5Z" style=""/>
<path d="M3 3L0 3L0 8L1.5 8C2.32854 8 3 8.67146 3 9.5C3 10.3285 2.32854 11 1.5 11L0 11L0 16L5 16L5 14.5C5 13.6715 5.67146 13 6.5 13C7.32854 13 8 13.6715 8 14.5L8 16L13 16L13 12L13.5 12C14.8809 12 16 10.8809 16 9.5C16 8.1191 14.8809 7 13.5 7L13 7L13 3L9 3L9 2.5C9 1.1191 7.88092 0 6.5 0C5.11908 0 4 1.1191 4 2.5L4 3L3 3ZM12 4L8 4L8 2.5Q8 1 6.5 1Q5 1 5 2.5L5 4L1 4L1 7L1.5 7Q4 7 4 9.5Q4 12 1.5 12L1 12L1 15L4 15L4 14.5Q4 12 6.5 12Q9 12 9 14.5L9 15L12 15L12 11L13.5 11Q15 11 15 9.5Q15 8 13.5 8L12 8L12 4Z" fill="#808080" fill-rule="evenodd" style=""/>
</svg>