<?xml version="1.0" encoding="utf-8"?>
<svg width="16" height="16" viewBox="0 0 16 16" fill="none" xmlns="http://www.w3.org/2000/svg">
<path d="M13.6162 7.05762C14.1357 7.57715 14.1357 8.4209 13.6162 8.94043C13.6162 8.94043 8.94043 13.6162 8.94043 13.6162C8.4209 14.1357 7.57715 14.1357 7.05762 13.6162C7.05762 13.6162 2.38184 8.94043 2.38184 8.94043C1.8623 8.4209 1.8623 7.57715 2.38184 7.05762C2.38184 7.05762 7.05762 2.38184 7.05762 2.38184C7.57715 1.8623 8.4209 1.8623 8.94043 2.38184C8.94043 2.38184 13.6162 7.05762 13.6162 7.05762ZM5.64746 0.975585C5.64746 0.975585 0.975586 5.64746 0.975586 5.64746C-0.325195 6.95215 -0.325195 9.0459 0.975586 10.3506C0.975586 10.3506 5.64746 15.0225 5.64746 15.0225C6.95215 16.3232 9.0459 16.3232 10.3506 15.0225C10.3506 15.0225 15.0225 10.3506 15.0225 10.3506C16.3232 9.0459 16.3232 6.95215 15.0225 5.64746C15.0225 5.64746 10.3506 0.975586 10.3506 0.975586C9.0459 -0.325195 6.95215 -0.325195 5.64746 0.975586C5.64746 0.975586 5.64746 0.975585 5.64746 0.975585Z" fill="#808080" transform="translate(0.001 0.001)" />
<path d="M3.50314 0.00146532C3.30392 0.00927734 3.11642 0.0756831 2.95626 0.188965C2.50704 0.513183 2.40548 1.14209 2.7336 1.5874C2.7336 1.5874 2.87423 1.78662 2.87423 1.78662C3.14767 2.16553 3.10079 2.73975 2.82345 3.11475C2.81173 3.13428 2.80001 3.1499 2.78829 3.16553C2.51485 3.54834 1.9797 3.76709 1.53829 3.62256C1.53829 3.62256 1.30782 3.54834 1.30782 3.54834C0.784385 3.38037 0.217979 3.66553 0.0500102 4.18897C-0.121865 4.71631 0.163291 5.28272 0.690635 5.45068C0.690635 5.45068 0.913291 5.5249 0.913291 5.5249C1.3586 5.66943 1.65157 6.16553 1.66329 6.63037C1.66329 6.63037 1.66329 6.69678 1.66329 6.69678C1.67892 7.16162 1.3586 7.65771 0.913291 7.80225C0.913291 7.80225 0.690635 7.87646 0.690635 7.87646C0.163291 8.04834 -0.121865 8.61084 0.0500102 9.13818C0.217979 9.66162 0.784385 9.95068 1.30782 9.77881C1.30782 9.77881 1.53829 9.70068 1.53829 9.70068C1.9836 9.55615 2.51485 9.78271 2.78829 10.1577C2.80001 10.1772 2.81173 10.1929 2.82735 10.2085C2.84689 10.2397 2.86251 10.2671 2.88204 10.2983C3.18282 10.1851 3.47189 10.0093 3.71798 9.76318C3.71798 9.76318 4.43673 9.04443 4.43673 9.04443C4.19064 8.7124 3.99532 8.3374 3.86251 7.93506C3.8586 7.92334 3.8547 7.91162 3.85079 7.8999C3.84689 7.89209 3.84298 7.88818 3.83907 7.88037C3.55392 7.03662 3.68673 6.23584 3.83907 5.44287C3.84298 5.43896 3.84689 5.43115 3.85079 5.42724C3.8547 5.41553 3.8586 5.3999 3.86251 5.38818C4.12423 4.59912 4.62032 3.92334 5.27657 3.44287C5.28439 3.43896 5.2961 3.43115 5.30392 3.42724C5.32345 3.41162 5.34689 3.39599 5.36642 3.37646C6.01095 2.92725 6.80001 2.66162 7.65548 2.66162C8.13204 2.66162 8.58517 2.74756 9.00704 2.896C8.90939 2.49365 8.70626 2.11084 8.38985 1.79443C8.38985 1.79443 6.63985 0.0444322 6.63985 0.0444322C6.57345 0.454589 6.2297 0.821776 5.83517 0.946776C5.81173 0.954589 5.7922 0.962401 5.77267 0.966309C5.32735 1.11475 4.76485 0.985839 4.49142 0.606933C4.49142 0.606933 4.35079 0.411621 4.35079 0.411621C4.19454 0.200683 3.96017 0.0561514 3.69845 0.0131826C3.63204 0.00146484 3.56564 -0.00244141 3.50314 0.00146484C3.50314 0.00146484 3.50314 0.00146532 3.50314 0.00146532Z" fill="#808080" transform="translate(5.93 4.557)"/>
</svg>