<?xml version="1.0" encoding="utf-8"?>
<svg width="16" height="16" viewBox="0 0 16 16" fill="none" xmlns="http://www.w3.org/2000/svg">
  <g>
    <path id="border" d="M11.5 0C12.8809 0 14 1.1191 14 2.5L14 13.5C14 14.8809 12.8809 16 11.5 16L2.5 16C1.11911 16 0 14.8809 0 13.5L0 2.5C0 1.1191 1.11911 0 2.5 0L11.5 0L11.5 0ZM2.5 1L11 1L11 15L2.5 15C2.08569 15 1.73212 14.8536 1.43927 14.5607C1.14642 14.2679 1 13.9143 1 13.5L1 2.5C1 2.08569 1.14642 1.73212 1.43927 1.43927C1.73212 1.14642 2.08569 1 2.5 1L2.5 1Z" fill="#808080" fill-rule="evenodd" transform="translate(1 0)"/>
    <path id="buddy" d="M3.00003 5L3.00003 5.002C0.00210357 5.00999 2.83718e-05 7 2.83718e-05 7C-8.74996e-05 7.49118 0.000181913 7.60707 0.000313997 7.66382L0.000333548 7.67238L0.000344992 7.67706C0.000458956 7.72356 0.000500917 7.74078 2.83718e-05 7.99805C0.500028 7.99905 1.74991 8.00005 3.00003 8.00005C4.25015 8.00005 5.50003 7.99704 6.00003 7.99605C5.99956 7.73878 5.9996 7.72156 5.99971 7.67507L5.99972 7.67039L5.99974 7.66183C5.99988 7.60507 6.00015 7.48919 6.00003 6.998C6.00003 6.998 5.99801 5.008 3.00003 5L3.00003 5ZM1.00003 2C1.00003 0.895432 1.89548 0 3.00003 0C4.10458 0 5.00003 0.895432 5.00003 2C5.00003 3.10457 4.10458 4 3.00003 4C1.89548 4 1.00003 3.10457 1.00003 2L1.00003 2Z" fill="#808080" transform="translate(4 4)"/>
  </g>
</svg>