<?xml version="1.0" encoding="utf-8"?>
<svg width="16" height="16" viewBox="0 0 16 16" fill="gray" xmlns="http://www.w3.org/2000/svg">
<path id="border" d="M11.5 0C12.9 0 14 1.12 14 2.5L14 13.5C14 14.9 12.9 16 11.5 16L2.5 16C1.12 16 0 14.9 0 13.5L0 2.5C0 1.12 1.12 0 2.5 0ZM2.5 1L11 1L11 15L2.5 15C2 15 1.73 14.85 1.44 14.56C1.15 14.27 1 14 1 13.5L1 2.5C1 2 1.15 1.73 1.44 1.44C1.73 1.15 2 1 2.5 1Z" fill-rule="evenodd" transform="translate(1 0)"/>
<path id="body" d="M3 5C0 5 0 7 0 7C0 7.5 0 7.6 0 7.67L0 7.67L0 7.67C0 7.72 0 7.75 0 8C0.5 8 1.75 8 3 8C4.25 8 5.5 8 6 8C6 7.74 6 7.72 6 7.67L6 7.67L6 7.67C6 7.6 6 7.5 6 7C6 7 6 5 3 5Z" transform="translate(4 4)"/>
<circle id="head" r="2" cx="7" cy="6"/>
</svg>
