<?xml version="1.0" encoding="utf-8"?>
<svg width="16" height="16" viewBox="0 0 16 16" fill="gray" xmlns="http://www.w3.org/2000/svg">
<path id="calendar" d="M14 4C14 2.6191 12.8809 1.5 11.5 1.5L2.5 1.5C1.1191 1.5 0 2.6191 0 4L0 13C0 14.3809 1.1191 15.5 2.5 15.5L11.5 15.5C12.8809 15.5 14 14.3809 14 13L14 4L14 4ZM2.5 4.5L11.5 4.5C11.9143 4.5 12.2679 4.64642 12.5607 4.93927C12.8536 5.23211 13 5.58569 13 6L13 13C13 13.4143 12.8536 13.7679 12.5607 14.0607C12.2679 14.3536 11.9143 14.5 11.5 14.5L2.5 14.5C2.08569 14.5 1.73212 14.3536 1.43927 14.0607C1.14642 13.7679 1 13.4143 1 13L1 6C1 5.58569 1.14642 5.23211 1.43927 4.93927C1.73212 4.64642 2.08569 4.5 2.5 4.5L2.5 4.5ZM3 0L5 0L5 3L3 3L3 0L3 0ZM9 0L11 0L11 3L9 3L9 0L9 0Z" fill-rule="evenodd" transform="translate(1 0.5)"/>
<g id="10" transform="translate(4 7)">
<path id="0" d="M5 2.5C5 1.1191 3.8809 0 2.5 0C1.1191 0 0 1.1191 0 2.5L0 3.5C0 4.8809 1.1191 6 2.5 6C3.8809 6 5 4.8809 5 3.5L5 2.5L5 2.5ZM1 2.5C1 1.5 1.5 1 2.5 1C3.5 1 4 1.5 4 2.5L4 3.5C4 4.5 3.5 5 2.5 5C1.5 5 1 4.5 1 3.5L1 2.5L1 2.5Z" fill-rule="evenodd" transform="translate(3 0)"/>
<path id="1" d="M0 0L2 0L2 6L1 6L1 1L0 1L0 0L0 0Z" fill-rule="evenodd"/>
</g></svg>
