<?xml version="1.0" encoding="utf-8"?>
<svg width="16" height="16" viewBox="0 0 16 16" fill="none" xmlns="http://www.w3.org/2000/svg">
  <defs>
    <clipPath id="clip_path_1">
      <rect width="16" height="16"/>
    </clipPath>
  </defs>
  <g clip-path="url(#clip_path_1)">
    <path id="Vector" d="M14 7L7 7L7 0C5.61553 0 4.26216 0.410542 3.11101 1.17971C1.95987 1.94888 1.06266 3.04213 0.532846 4.32122C0.0030328 5.6003 -0.13559 7.00777 0.134506 8.36563C0.404604 9.7235 1.07129 10.9708 2.05026 11.9497C3.02923 12.9287 4.27651 13.5954 5.63437 13.8655C6.99224 14.1356 8.39971 13.997 9.67879 13.4672C10.9579 12.9373 12.0511 12.0401 12.8203 10.889C13.5895 9.73785 14 8.38447 14 7L14 7Z" fill="#808080" fill-rule="evenodd" transform="translate(-0 2)"/>
    <path id="Vector" d="M0 7C0 7 0 0 0 0C0.919253 0 1.8295 0.181061 2.67878 0.532843C3.52806 0.884626 4.29974 1.40024 4.94975 2.05025C5.59976 2.70026 6.11537 3.47194 6.46716 4.32122C6.81894 5.17049 7 6.08075 7 7C7 7 0 7 0 7L0 7Z" fill="#808080" fill-rule="evenodd" transform="translate(9 0)"/>
  </g>
</svg>