<?xml version="1.0" encoding="utf-8"?>
<svg width="16" height="16" viewBox="0 0 16 16" fill="gray" xmlns="http://www.w3.org/2000/svg">
<path id="calendar" d="M12 2C13.1047 2 14 2.89528 14 4L14 14C14 15.1047 13.1047 16 12 16L2 16C0.89528 16 0 15.1047 0 14L0 4C0 2.89528 0.89528 2 2 2L12 2ZM12 5C12.5524 5 13 5.44764 13 6L13 14C13 14.5524 12.5524 15 12 15L2 15C1.44764 15 1 14.5524 1 14L1 6C1 5.44764 1.44764 5 2 5L12 5ZM10 0C10.5524 0 11 0.44764 11 1L11 3C11 3.55236 10.5524 4 10 4L10 4C9.44764 4 9 3.55236 9 3L9 1C9 0.44764 9.44764 0 10 0ZM4 0C4.55236 0 5 0.44764 5 1L5 3C5 3.55236 4.55236 4 4 4L4 4C3.44764 4 3 3.55236 3 3L3 1C3 0.44764 3.44764 0 4 0Z" fill-rule="evenodd" transform="translate(1 0)"/>
<g id="days" transform="translate(4 7)" fill-opacity="0.5">
<rect width="2" height="2"/>
<rect width="2" height="2" transform="translate(3 0)"/>
<rect width="2" height="2" transform="translate(0 3)" fill-opacity="1"/>
<rect width="2" height="2" transform="translate(3 3)"/>
<rect width="2" height="2" transform="translate(6 0)"/>
</g></svg>