<?xml version="1.0" encoding="utf-8"?>
<svg width="16" height="16" viewBox="0 0 16 16" fill="gray" xmlns="http://www.w3.org/2000/svg">
<path d="M10 0L6 0L6 2.34L5.4 2.6L3.76 0.94L0.93 3.77L2.6 5.42L2.3377 6L0 6L0 10L2.345 10L2.6 10.6L0.93 12.25L3.76 15.1L5.42 13.4L6 13.66L6 16L10 16L10 13.66L10.6 13.4L12.2426 15.1L15.1 12.253L13.4 10.6L13.655 10L16 10L16 6L13.6623 6L13.4 5.42L15.1 3.77L12.2426 0.94L10.6 2.6L10 2.34ZM12.243 2.35365L10.8 3.8L9 3L9 1L7 1L7 3L5.2 3.8L3.75736 2.35365L2.343 3.77L3.8 5.2L3 7L1 7L1 9L3 9L3.8 10.8L2.343 12.2531L3.76 13.67L5.2 12.2L7 13L7 15L9 15L9 13L10.8 12.2L12.243 13.67L13.66 12.2531L12.2 10.8L13 9L15 9L15 7L13 7L12.2 5.2L13.66 3.77ZM5 8C5 6.343 6.343 5 8 5C9.66 5 11 6.343 11 8C11 9.66 9.66 11 8 11C6.343 11 5 9.66 5 8ZM6 8C6 6.9 6.9 6 8 6C9.1 6 10 6.9 10 8C10 9.1 9.1 10 8 10C6.9 10 6 9.1 6 8Z" fill-rule="evenodd"/>
</svg>
