<?xml version="1.0" encoding="utf-8"?>
<svg width="16" height="16" viewBox="0 0 16 16" fill="gray" xmlns="http://www.w3.org/2000/svg">
<path d="M3 0L3 3L0 3L0 4L3 4L3 7L4 7L4 4L7 4L7 3L4 3L4 0Z" transform="translate(9 9)"/>
<path d="M8 0L8 1L6 1C3.24 1 1 3.24 1 6L0 6C0 2.7 2.7 0 6 0Z" transform="translate(0 10)"/>
<path id="head" d="M0 4C0 1.8 1.8 0 4 0C6.2 0 8 1.8 8 4C8 6.2 6.2 8 4 8C1.8 8 0 6.2 0 4ZM1 4C1 2.33 2.33 1 4 1C5.66 1 7 2.33 7 4C7 5.66 5.66 7 4 7C2.33 7 1 5.66 1 4Z" fill-rule="evenodd" transform="translate(4 0)"/>
</svg>
