<?xml version="1.0" encoding="utf-8"?>
<svg width="16" height="16" viewBox="0 0 16 16" fill="gray" xmlns="http://www.w3.org/2000/svg">
<path d="M14 3L14 12C14 13.1 13.1 14 12 14L2 14C0.9 14 0 13.1 0 12L0 2C0 0.9 0.9 0 2 0L11 0ZM13 3.5L13 12C13 12.55 12.55 13 12 13L2 13C1.45 13 1 12.55 1 12L1 22C1 1.45 1.45 1 2 1L3 1L3 5L10 5L10 1L10.5 1ZM7 1L9 1L9 4L7 4Z" fill-rule="evenodd" transform="translate(1 1)"/>
<g transform="translate(4 7)">
<rect width="4" height="1" y="4"/>
<rect width="7" height="1" y="2"/>
<rect width="7" height="1"/>
</g></svg>
