<?xml version="1.0" encoding="utf-8"?>
<svg width="16" height="16" viewBox="0 0 16 16" fill="gray" xmlns="http://www.w3.org/2000/svg">
<path id="diskette" d="M0 1.9L0 12.0996C0 12.6244 0.185516 13.0723 0.55658 13.4434C0.927673 13.8145 1.37561 14 1.9 14L12.0996 14C12.6244 14 13.0723 13.8145 13.4434 13.4434C13.8144 13.0723 14 12.6244 14 12.0996L14 3L11 0L1.9 0C1.37561 0 0.927673 0.18554 0.5566 0.5566C0.185547 0.927681 0 1.37561 0 1.9L0 1.9ZM1 1.9L1 12.1C1 12.3486 1.08786 12.5607 1.26355 12.7364C1.43927 12.9121 1.6514 13 1.9 13L12.1001 13C12.3486 13 12.5607 12.9121 12.7364 12.7364C12.9121 12.5607 13 12.3486 13 12.1L13 3.5L10.5 1L10 1L10 5L3 5L3 1L1.8999 1C1.6514 1 1.43927 1.08785 1.26355 1.26357C1.08786 1.4393 1 1.6514 1 1.9L1 1.9ZM7 1L9 1L9 4L7 4L7 1L7 1Z" fill-rule="evenodd" transform="translate(1 1)"/>
<g id="labels" transform="translate(4 7)">
<rect width="7" height="1" />
<rect width="7" height="1" transform="translate(0 2)" />
<rect width="4" height="1" transform="translate(0 4)" />
</g></svg>