<?xml version="1.0" encoding="utf-8"?>
<svg width="16" height="16" viewBox="0 0 16 16" fill="gray" xmlns="http://www.w3.org/2000/svg">
<path id="printer" d="M3 0L13 0L13 3L13.5 3C14.881 3 16 4.1191 16 5.5L16 10L15 10L15 5.5C15 5.0857 14.8536 4.73212 14.5608 4.43927C14.268 4.14642 13.9144 4 13.5 4L2.5 4C2.08572 4 1.73215 4.14643 1.44 4.44C1.14645 4.73212 1 5.0857 1 5.5L1 10.5C1 10.9144 1.14645 11.2679 1.44 11.5608C1.73216 11.8536 2.08574 12 2.5 12L3 12L3 9L7 9L7 10L4 10L4 15L12 15L12 16L3 16L3 13L2.5 13C1.11913 13 3.05176e-05 11.881 3.05176e-05 10.5L0 5.5C0 4.1191 1.1191 3 2.5 3L3 3L3 0L3 0ZM4 3L12 3L12 1L4 1L4 3L4 3ZM11 5L11 6L13 6L13 5L11 5L11 5ZM5 13L5 14C5 14 8.3887 14 8.3887 14C8.06045 13.7136 7.78411 13.3775 7.56253 13C7.56253 13 5 13 5 13ZM5 11L5 12C5 12 7.1445 12 7.1445 12C7.06 11.6782 7 11.347 7 11C7 11 5 11 5 11Z" fill-rule="evenodd"/>
<path d="m11 8c-1.651 0-3 1.3491-3 3 0 1.651 1.3491 3 3 3 0.67614 0 1.294-0.2346 1.797-0.61523a0.66843 0.66843 0 0 0 0.19141 0.54883l1.672 1.672a0.66843 0.66843 0 0 0 0.94531 0 0.66843 0.66843 0 0 0 0-0.94531l-1.672-1.6719a0.66843 0.66843 0 0 0-0.4961-0.19531 0.66843 0.66843 0 0 0-0.052734 0c0.38063-0.5 0.61523-1.1207 0.61523-1.797 0-1.651-1.3491-3-3-3zm0 1c1.1105 0 2 0.88951 2 2 0 1.1105-0.88951 2-2 2-1.1105 0-2-0.88951-2-2 0-1.1105 0.88951-2 2-2z" color="#000000" color-rendering="auto" dominant-baseline="auto" image-rendering="auto" shape-rendering="auto" style="font-feature-settings:normal;font-variant-alternates:normal;font-variant-caps:normal;font-variant-east-asian:normal;font-variant-ligatures:normal;font-variant-numeric:normal;font-variant-position:normal;font-variation-settings:normal;inline-size:0;isolation:auto;mix-blend-mode:normal;shape-margin:0;shape-padding:0;text-decoration-color:#000000;text-decoration-line:none;text-decoration-style:solid;text-indent:0;text-orientation:mixed;text-transform:none;white-space:normal"/>
</svg>
