<?xml version="1.0" encoding="utf-8"?>
<svg width="16" height="16" viewBox="0 0 16 16" fill="gray" xmlns="http://www.w3.org/2000/svg">
<path d="M9.75 0L2.5 0C1.1191 0 0 1.1191 0 2.5L0 13.5C0 14.881 1.1191 16 2.5 16L11.5 16C12.881 16 14 14.881 14 13.5L14 4.25L9.75 0L9.75 0ZM9 5L13 5L13 13.5C13 14.33 12.33 15 11.5 15L2.5 15C1.67 15 1 14.33 1 13.5L1 2.5C1 1.67 1.67 1 2.5 1L9 1L9 5L9 5Z" fill-rule="evenodd" transform="translate(1 0)"/>
<path d="M3.5 0C1.567 0 0 1.567 0 3.5C0 5.433 1.567 7 3.5 7C5.433 7 7 5.433 7 3.5C7 1.567 5.433 0 3.5 0ZM4 3L4 1L3 1L3 3L1 3L1 4L3 4L3 6L4 6L4 4L6 4L6 3L4 3Z" fill-rule="evenodd" transform="translate(6 7)"/>
</svg>