<?xml version="1.0" encoding="utf-8"?>
<svg width="16" height="16" viewBox="0 0 16 16" fill="gray" xmlns="http://www.w3.org/2000/svg">
<path d="M0 0L0 8L14 8L0 0ZM2 3L7 6L2 6L2 3Z" fill-rule="evenodd" transform="translate(1 4)"/>
<g id="sheet" transform="translate(1 0)">
<path d="M0 0.5L0 9.537e-07L1 9.537e-07L1 0.5C1 1.33 1.67 2 2.5 2L11.5 2C12.33 2 13 1.33 13 0.5L13 0L14 0L14 0.5C14 1.88 12.88 3 11.5 3L2.5 3C1.12 3 0 1.88 0 0.5L0 0.5Z" transform="translate(0 13)"/>
<path d="M9.75 0L2.5 0C1.12 0 0 1.12 0 2.5L0 3L1 3L1 2.5C1 1.67 1.67 1 2.5 1L9 1L9 5L13 5L13 10L14 10L14 4.25L9.75 0L9.75 0Z"/>
</g></svg>
