<?xml version="1.0" encoding="utf-8"?>
<svg width="16" height="16" viewBox="0 0 16 16" fill="gray" xmlns="http://www.w3.org/2000/svg">
<path d="M2 0L3 0L3 1L2 1C1.45 1 1 1.45 1 2L1 13C1 13.55 1.45 14 2 14L8 14L8 9L13 9L13 2C13 1.45 12.55 1 12 1L11 1L11 0L12 0C13.1 0 14 0.9 14 2L14 13C14 14.1 13.1 15 12 15L2 15C0.9 15 0 14.1 0 13L0 2C0 0.9 0.9 0 2 0ZM13 10L9 14L9 10Z" fill-rule="evenodd" transform="translate(1 1)"/>
<g transform="translate(5 0)">
<rect width="6" height="1" y="6"/>
<rect width="6" height="1" y="8"/>
<rect width="6" height="1" y="10"/>
<rect width="6" height="2" y="1"/>
</g><circle r="1" cx="8" cy="1"/>
</svg>
