<?xml version="1.0" encoding="utf-8"?>
<svg width="16" height="16" viewBox="0 0 16 16" fill="none" xmlns="http://www.w3.org/2000/svg">
<path d="M8 0C3.5 0 0 3.5 0 8C0 12.5 3.5 16 8 16C12.5 16 16 12.5 16 8C16 3.5 12.5 0 8 0L8 0ZM1 8C1 4.13401 4.13401 1 8 1C11.866 1 15 4.13401 15 8C15 11.866 11.866 15 8 15C4.13401 15 1 11.866 1 8L1 8Z" fill="#808080" fill-rule="evenodd"/>
<path d="M7.70709 7L4.56064 3.85355L7.70709 0.707108L7 0L3.85355 3.14645L0.707092 0L0 0.707108L3.14645 3.85355L0 7L0.707092 7.70711L3.85355 4.56065L7 7.70711L7.70709 7L7.70709 7Z" fill="#808080" transform="translate(4.146 4.146)"/>
</svg>
