<?xml version="1.0" encoding="utf-8"?>
<svg width="16" height="15.974" viewBox="0 0 16 15.974" fill="gray" xmlns="http://www.w3.org/2000/svg">
<path id="line" d="M0 0L0 1L1 1L1 0L0 0ZM2 0L2 1L3 1L3 0L2 0ZM4 0L4 1L5 1L5 0L4 0ZM6 0L6 1L7 1L7 0L6 0ZM8 0L8 1L9 1L9 0L8 0ZM10 0L10 1L11 1L11 0L10 0ZM12 0L12 1L13 1L13 0L12 0ZM0 2L0 3L1 3L1 2L0 2ZM12 2L12 3L13 3L13 2L12 2ZM0 4L0 5L1 5L1 4L0 4ZM12 4L12 5L13 5L13 4L12 4ZM0 6L0 7L1 7L1 6L0 6ZM12 6L12 7L13 7L13 6L12 6ZM0 8L0 9L1 9L1 8L0 8ZM12 8L12 9L13 9L13 8L12 8ZM0 10L0 11L1 11L1 10L0 10ZM12 10L12 11L13 11L13 10L12 10ZM0 12L0 13L1 13L1 12L0 12ZM2 12L2 13L3 13L3 12L2 12ZM4 12L4 13L5 13L5 12L4 12ZM6 12L6 13L7 13L7 12L6 12ZM8 12L8 13L9 13L9 12L8 12ZM10 12L10 13L11 13L11 12L10 12ZM12 12L12 13L13 13L13 12L12 12Z" transform="translate(1 1)" />
<rect width="4" height="4" transform="translate(8 8)"/>
<rect width="4" height="4" transform="translate(3 8)"/>
<rect width="9" height="4" transform="translate(3 3)"/>
</svg>