<?xml version="1.0" encoding="utf-8"?>
<svg width="16" height="16" viewBox="0 0 16 16" fill="gray" xmlns="http://www.w3.org/2000/svg">
<path d="M8 0C3.6 0 0 3.6 0 8C0 12.4 3.6 16 8 16C12.4 16 16 12.4 16 8C16 3.6 12.4 0 8 0ZM3 13C1.7 11.6 1 10 1 8C1 6 1.7 4.4 3 3C4.4 1.7 6 1 8 1C10 1 11.6 1.7 13 3C14.3 4.4 15 6 15 8C15 10 14.3 11.6 13 13C11.6 14.3 10 15 8 15C6 15 4.4 14.3 3 13Z" fill-rule="evenodd"/>
<path d="M7.7 7L4.56 3.85L7.7 0.7L7 0L3.85 3.15L0.7 0L0 0.7L3.15 3.85L0 7L0.7 7.7L3.85 4.56L7 7.7Z" transform="translate(4.146 4.146)"/>
</svg>
