<?xml version="1.0" encoding="utf-8"?>
<svg width="16" height="16" viewBox="0 0 16 16" fill="gray" opacity="0.5" xmlns="http://www.w3.org/2000/svg">
<path d="M3.5 2L2 2C0.895281 2 0 2.89528 0 4L0 12C0 13.1047 0.895281 14 2 14L14 14C15.1047 14 16 13.1047 16 12L16 4C16 2.89528 15.1047 2 14 2L12.5 2L10.5 0L5.5 0L3.5 2ZM6 1L4 3L2 3C1.5 3 1 3.5 1 4L1 12C1 12.5 1.5 13 2 13L14 13C14.5 13 15 12.5 15 12L15 4C15 3.5 14.5 3 14 3L12 3L10 1L6 1Z" fill-rule="evenodd" transform="translate(0 1)"/>
<path d="M4 0C1.79086 0 0 1.79086 0 4C0 6.20914 1.79086 8 4 8C6.20914 8 8 6.20914 8 4C8 1.79086 6.20914 0 4 0ZM4 1C5.65686 1 7 2.34315 7 4C7 5.65686 5.65686 7 4 7C2.34314 7 1 5.65686 1 4C1 2.34315 2.34314 1 4 1ZM4 2C2.89543 2 2 2.89543 2 4C2 5.10457 2.89543 6 4 6C5.10457 6 6 5.10457 6 4C6 2.89543 5.10457 2 4 2Z" fill-rule="evenodd" transform="translate(4 5)"/>
<path d="M0.75 0C0.335787 0 0 0.335787 0 0.75C0 1.16421 0.335787 1.5 0.75 1.5C1.16421 1.5 1.5 1.16421 1.5 0.75C1.5 0.335786 1.16421 0 0.75 0C0.75 0 0.75 0 0.75 0Z" transform="translate(12.75 4.75)"/>
</svg>
