<?xml version="1.0" encoding="utf-8"?>
<svg width="16" height="16" viewBox="0 0 16 16" fill="gray" xmlns="http://www.w3.org/2000/svg">
<path d="M9 3L7 1L2 1C1 1 0 2 0 3L0 13C0 14 1 15 2 15L14 15L14 15C15 15 16 14 16 13L16 5C16 4 15 3 14 3L9 3ZM1 6L7 6L9 4L14 4C14.5 4 15 4.5 15 5L15 13C15 13.5 14.5 14 14 14L2 14C1.5 14 1 13.5 1 13L1 6ZM6.5 2L2 2C1.5 2 1 2.5 1 3L1 5L6.5 5L8 3.5L6.5 2Z" fill-rule="evenodd"/>
<path id="+" d="M3.5 0C1.57 0 0 1.57 0 3.5C0 5.43 1.57 7 3.5 7C5.43 7 7 5.43 7 3.5C7 1.57 5.43 0 3.5 0ZM4 3L4 1L3 1L3 3L1 3L1 4L3 4L3 6L4 6L4 4L6 4L6 3L4 3L4 3Z" fill-rule="evenodd" transform="translate(7 6)"/>
</svg>
