<?xml version="1.0" encoding="utf-8"?>
<svg width="16" height="16" viewBox="0 0 16 16" fill="gray" xmlns="http://www.w3.org/2000/svg">
<path id="3" d="M2.5 0L0 0L0 1L2.5 1C2.77615 1 3 1.22386 3 1.5C3 1.77614 2.77615 2 2.5 2L0 2L0 3L2.5 3C2.77615 3 3 3.22386 3 3.5C3 3.77614 2.77615 4 2.5 4L0 4L0 5L2.5 5C3.32843 5 4 4.32843 4 3.5C4 3.11582 3.85557 2.76537 3.61805 2.5C3.85557 2.23463 4 1.88418 4 1.5C4 0.67157 3.32843 0 2.5 0L2.5 0Z" transform="translate(11 11)"/>
<path id="2" d="M0 0L0 1L2.5 1C2.77615 1 3 1.22386 3 1.5C3 1.77614 2.77615 2 2.5 2L1.5 2C0.67157 2 0 2.67157 0 3.5L0 5L4 5L4 4L1 4L1 3.5C1 3.22386 1.22386 3 1.5 3L2.5 3C3.32843 3 4 2.32843 4 1.5C4 0.67157 3.32843 0 2.5 0Z" transform="translate(11 5)"/>
<path id="1" d="M0 0L2 0L2 4L1 4L1 1L0 1L0 0Z" transform="translate(12 0)"/>
<rect width="8" height="1" transform="translate(2 13)"/>
<rect width="8" height="1" transform="translate(2 7)"/>
<rect width="8" height="1" transform="translate(2 1)"/>
</svg>
