<?xml version="1.0" encoding="utf-8"?>
<svg width="16" height="16" viewBox="0 0 16 16" fill="gray" xmlns="http://www.w3.org/2000/svg">
<path d="M0 0L0 1L2.5 1C2.8 1 3 1.224 3 1.5C3 1.8 2.8 2 2.5 2L0 2L0 3L2.5 3C2.8 3 3 3.224 3 3.5C3 3.8 2.8 4 2.5 4L0 4L0 5L2.5 5C3.33 5 4 4.33 4 3.5C4 3.116 3.86 2.77 3.62 2.5C3.86 2.23 4 1.9 4 1.5C4 0.67 3.33 0 2.5 0Z" transform="translate(11 11)"/>
<path d="M0 0L0 1L2.5 1C2.8 1 3 1.224 3 1.5C3 1.8 2.8 2 2.5 2L1.5 2C0.67 2 0 2.67 0 3.5L0 5L4 5L4 4L1 4L1 3.5C1 3.224 1.224 3 1.5 3L2.5 3C3.33 3 4 2.33 4 1.5C4 0.67 3.33 0 2.5 0Z" transform="translate(11 5)"/>
<path id="1" d="M0 0L2 0L2 4L1 4L1 1L0 1Z" transform="translate(12 0)"/>
<g transform="translate(2 1)">
<rect width="8" height="1" y="12"/>
<rect width="8" height="1" y="6"/>
<rect width="8" height="1"/>
</g></svg>
