<?xml version="1.0" encoding="utf-8"?>
<svg width="16" height="16" viewBox="0 0 16 16" fill="gray" xmlns="http://www.w3.org/2000/svg">
<path d="M8 7L8 10L13 5L8 0L8 3L6 3C2.68628 3 0 5.6863 0 9C0 11.1624 1.144 13.0577 2.86 14.1136C3.77318 14.6758 4.84872 15 6 15C5.02 15 4.14834 14.3725 3.6 13.4021C3.22363 12.7332 3 11.9014 3 11C3 8.79086 4.34314 7 6 7L8 7ZM9 6L9 7.6L11.6 5L9 2.4L9 4L6 4C4.62 4 3.44077 4.48816 2.46446 5.46447C1.48815 6.44078 1 7.6193 1 9C1 10.1934 1.36467 11.2357 2.094 12.127C2.03133 11.7673 2 11.3917 2 11C2 9.67321 2.36 8.53 3.07868 7.57158C3.86446 6.52386 4.83824 6 6 6L9 6Z" fill-rule="evenodd" transform="translate (2 0)"/>
</svg>