<?xml version="1.0" encoding="utf-8"?>
<svg width="16" height="16" viewBox="0 0 16 16" fill="gray" xmlns="http://www.w3.org/2000/svg">
<path d="M8 0C3.586 0 0 3.586 0 8C0 12.414 3.586 16 8 16C12.414 16 16 12.414 16 8C16 3.586 12.414 0 8 0C8 0 8 0 8 0ZM7.96 1L7.94 1.619L8.855 1.756C8.855 1.756 9.473 1.158 9.473 1.158C10.0756 1.2884 10.658 1.5 11.205 1.783C11.205 1.783 11 2.129 10.99 2.129L11.6 2.67L11 3.179L11.228 3.789L12.584 3.145C12.584 3.145 13.476 3.65 13.476 3.65C13.66 3.882 13.826 4.127 13.98 4.38C13.98 4.38 13.125 4.535 13.125 4.535L12.617 4L11.06 4.094L10.109 5.586L10.754 7.178L12.855 7.822L13.262 10.297C13.262 10.297 14.127 11.381 14.127 11.381C12.8956 13.6126 10.5488 15 8 15C4.138 15 1 11.862 1 8C1 7.188 1.145 6.411 1.4 5.686C1.4 5.686 2.518 6.127 2.518 6.127L3.941 7.177L3.975 8.703L4.891 9.957L5.431 13.347L6.414 13.957L6.144 12.703L7.804 10.398L8.516 8.84L6.856 7.28L5.06 6.434L4.314 6.873L3.432 5.551L2.924 5.789L2.484 5.043L3.264 4.637L4 5.077L5.297 3.484L7.16 2.332L6.52359 1.2C6.5236 1.2 6.9121 1 7.961 1C7.961 1 7.96 1 7.96 1Z"/>
</svg>
