<svg version="1.1" viewBox="0 0 16 16" fill="gray" xmlns="http://www.w3.org/2000/svg">
<path d="m1.4805 5a0.5 0.5 0 0 0-0.34766 0.16016 0.5 0.5 0 0 0 0.027344 0.70703l6.5 6a0.5 0.5 0 0 0 0.67969 0l6.5-6a0.5 0.5 0 0 0 0.02734-0.70703 0.5 0.5 0 0 0-0.70703-0.027344l-6.1602 5.6875-6.1602-5.6875a0.5 0.5 0 0 0-0.35938-0.13281z" color="#000000" stroke-linecap="round" stroke-linejoin="round" style="-inkscape-stroke:none"/>
<path d="M13.5 0C13.7762 0 14 0.22382 14 0.5L14 0.5C14 0.77618 13.7762 1 13.5 1L0.5 1C0.22382 1 0 0.77618 0 0.5L0 0.5C0 0.22382 0.22382 0 0.5 0L13.5 0Z" transform="translate(1 14)"/>
</svg>
