<svg version="1.1" viewBox="0 0 16 16" fill="gray" xmlns="http://www.w3.org/2000/svg">
<path d="m11 1.4805a0.5 0.5 0 0 0-0.16016-0.34766 0.5 0.5 0 0 0-0.70703 0.027344l-6 6.5a0.5 0.5 0 0 0 0 0.67969l6 6.5a0.5 0.5 0 0 0 0.70703 0.02734 0.5 0.5 0 0 0 0.02734-0.70703l-5.6875-6.1602 5.6875-6.1602a0.5 0.5 0 0 0 0.13281-0.35938z" color="#000000" stroke-linecap="round" stroke-linejoin="round" style="-inkscape-stroke:none"/>
<path d="M0.5 0C0.77618 0 1 0.22382 1 0.5L1 13.5C1 13.7762 0.77618 14 0.5 14L0.5 14C0.22382 14 0 13.7762 0 13.5L0 0.5C0 0.22382 0.22382 0 0.5 0Z" transform="translate(1 1)"/>
</svg>
