<?xml version="1.0" encoding="utf-8"?>
<svg width="16" height="16" viewBox="0 0 16 16" fill="gray" xmlns="http://www.w3.org/2000/svg">
<path id="c" d="M3.5 6L0 6L0 7L3.5 7C5.43326 7 7 5.43326 7 3.5C7 1.56674 5.43326 0 3.5 0L0 0L0 1L3.5 1C4.8809 1 6 2.1191 6 3.5C6 4.8809 4.8809 6 3.5 6L3.5 6Z" transform="translate(9 5)"/>
<rect id="_" width="8" height="1" transform="translate(4 8)"/>
<path id="c" d="M3.5 0L7 0L7 1L3.5 1C2.1191 1 1 2.1191 1 3.5C1 4.8809 2.1191 6 3.5 6L7 6L7 7L3.5 7C1.56674 7 0 5.43326 0 3.5C0 1.56674 1.56674 0 3.5 0L3.5 0Z" transform="translate(0 5)"/>
</svg>
