<?xml version="1.0" encoding="utf-8"?>
<svg width="16" height="16" viewBox="0 0 16 16" fill="gray" xmlns="http://www.w3.org/2000/svg">
<path d="M11.5 0L4.25 0L0 4.25L0 13.5C0 14.881 1.1191 16 2.5 16L11.5 16C12.881 16 14 14.881 14 13.5L14 2.5C14 1.1191 12.881 0 11.5 0L11.5 0ZM1 5L5 5L5 1L11.5 1C12.33 1 13 1.67 13 2.5L13 13.5C13 14.33 12.33 15 11.5 15L2.5 15C1.67 15 1 14.33 1 13.5L1 5L1 5ZM11 6L11 7L3 7L3 6L11 6L11 6ZM11 8L11 9L3 9L3 8L11 8L11 8ZM11 10L11 11L3 11L3 10L11 10L11 10ZM11 12L11 13L7 13L7 12L11 12L11 12Z" fill-rule="evenodd" transform="translate(1 0)"/>
</svg>
