<?xml version="1.0" encoding="utf-8"?>
<svg width="16" height="16" viewBox="0 0 16 16" fill="gray" xmlns="http://www.w3.org/2000/svg">
<path id="window" d="M13.5 0C14.881 0 16 1.1191 16 2.5L16 13.5C16 14.881 14.881 16 13.5 16L2.5 16C1.1191 16 0 14.881 0 13.5L0 2.5C0 1.1191 1.1191 0 2.5 0L13.5 0ZM15 3L15 3L15 13.5C15 14.3285 14.3285 15 13.5 15L2.5 15C1.6715 15 1 14.3285 1 13.5L1 3L15 3Z" fill-rule="evenodd"/>
<path id="+" d="M3.5 0C1.57 0 0 1.57 0 3.5C0 5.43 1.57 7 3.5 7C5.43 7 7 5.43 7 3.5C7 1.57 5.43 0 3.5 0ZM4 3L4 1L3 1L3 3L1 3L1 4L3 4L3 6L4 6L4 4L6 4L6 3L4 3L4 3Z" fill-rule="evenodd" transform="translate(7 7)"/>
</svg>
