<?xml version="1.0" encoding="utf-8"?>
<svg width="16" height="16" viewBox="0 0 16 16" fill="gray" xmlns="http://www.w3.org/2000/svg">
<path d="M15.748 6L14.7101 6C13.8496 3.10851 11.171 1 8 1C4.13401 1 1 4.134 1 8C1 11.866 4.134 15 8 15L8 16C3.58172 16 0 12.4183 0 8C0 3.58172 3.58172 0 8 0C11.7277 0 14.86 2.55 15.748 6L15.748 6Z"/>
<path d="M5 0L5 5L0 5L5 0Z" transform="translate(11 1)"/>
<path d="M0 2C0 0.895431 0.895431 0 2 0C3.10457 0 4 0.895431 4 2C4 3.10457 3.10457 4 2 4C0.895431 4 0 3.10457 0 2L0 2ZM1 2C1 1.44772 1.44772 1 2 1C2.55228 1 3 1.44772 3 2C3 2.55228 2.55228 3 2 3C1.44772 3 1 2.55228 1 2L1 2Z" fill-rule="evenodd" transform="translate(6 6)"/>
<path d="M1.14016 4.0707C0.817129 4.1612 0.485222 4.23217 0.145659 4.28216L0 3.29283C0.294856 3.24942 0.584991 3.18773 0.870404 3.10777L1.14016 4.0707L1.14016 4.0707ZM2.97083 3.3C2.6855 3.46481 2.38861 3.61267 2.08143 3.74208L1.69319 2.82052C1.96026 2.708 2.21942 2.57919 2.47066 2.43407L2.97083 3.3L2.97083 3.3ZM4.56973 2.08502C4.33114 2.31887 4.0777 2.53812 3.81076 2.74115L3.20537 1.94523C3.43864 1.7678 3.6601 1.57634 3.86975 1.37085L4.56973 2.08502L4.56973 2.08502ZM5.81231 0.51956C5.63851 0.805382 5.44716 1.07982 5.23961 1.34127L4.4564 0.719517C4.63861 0.489984 4.80577 0.250145 4.95788 0L5.81231 0.51956L5.81231 0.51956Z" transform="translate(9.027 11.632)"/>
</svg>
