<?xml version="1.0" encoding="utf-8"?>
<svg width="16" height="16" viewBox="0 0 16 16" fill="gray" xmlns="http://www.w3.org/2000/svg">
<path d="M1.03784 6L0 6C0.888 2.545 4.0203 0 7.748 0C12.1662 0 15.748 3.58172 15.748 8C15.748 12.4183 12.1662 16 7.74796 16L7.748 15C11.614 15 14.748 11.866 14.748 8C14.748 4.134 11.614 1 7.74796 1C4.57694 1 1.8984 3.10851 1.03784 6L1.03784 6Z" transform="translate(0.252 0)"/>
<path d="M0 0L5 5L0 5L0 0Z" transform="translate(0 1)"/>
<path d="M0 2C0 0.895431 0.895431 0 2 0C3.10457 0 4 0.895431 4 2C4 3.10457 3.10457 4 2 4C0.895431 4 0 3.10457 0 2L0 2ZM1 2C1 1.44772 1.44772 1 2 1C2.55228 1 3 1.44772 3 2C3 2.55228 2.55228 3 2 3C1.44772 3 1 2.55228 1 2L1 2Z" fill-rule="evenodd" transform="translate(6 6)"/>
<path d="M0.564972 1.33865C0.359896 1.07523 0.171122 0.79895 0 0.511407L0.859338 0C1 0.251603 1.17397 0.49305 1.354 0.724338L0.564972 1.33865L0.564972 1.33865ZM1.98022 2.75181C1.71535 2.54632 1.46408 2.32473 1.22775 2.08867L1.93446 1.38117C2.14211 1.58858 2.36168 1.7821 2.5932 1.9617L1.98022 2.75181L1.98022 2.75181ZM3.70102 3.7698C3.39458 3.63727 3.09857 3.4863 2.81428 3.31839L3.32281 2.45735C3.57312 2.60518 3.83151 2.73672 4.09799 2.85197L3.70102 3.7698L3.70102 3.7698ZM5.62866 4.32766C5.29026 4.27448 4.95962 4.20044 4.63795 4.10698L4.91695 3.14669C5.20109 3.22924 5.49 3.29361 5.7839 3.33978L5.62866 4.32766L5.62866 4.32766Z" transform="translate(1.121 11.574)"/>
</svg>
