<?xml version="1.0" encoding="utf-8"?>
<svg width="16" height="16" viewBox="0 0 16 16" fill="gray" xmlns="http://www.w3.org/2000/svg">
<path d="M5 8L5 7L7 7C8.65686 7 10 8.79086 10 11C10 11.9014 9.77637 12.7332 9.4 13.4021C8.85166 14.3725 7.9808 15 7 15C8.15128 15 9.22682 14.6758 10.1403 14.1136C11.856 13.0577 13 11.1624 13 9C13 5.6863 10.3137 3 7 3L5 3L5 0L0 5L5 10L5 8L5 8ZM4 7.58579L4 6L7 6C8.1618 6 9.13556 6.52386 9.92135 7.5716C10.64 8.53 11 9.67321 11 11C11 11.3917 10.9687 11.7673 10.906 12.127C11.6354 11.2357 12 10.1934 12 9C12 7.6193 11.512 6.44078 10.5356 5.46447C9.56 4.48816 8.38074 4 7 4L4 4L4 2.4L1.4 5L4 7.58579Z" fill-rule="evenodd" transform="translate(1 0)"/>
</svg>