<?xml version="1.0" encoding="utf-8"?>
<svg width="16" height="16" viewBox="0 0 16 16" fill="gray" xmlns="http://www.w3.org/2000/svg">
<path d="M8 0C4.25 0 1 2.5 0 6C1 9.5 4.25 12 8 12C11.75 12 15 9.5 16 6C15 2.5 11.75 0 8 0ZM8 1C11.2 1 14 3 14.9 6C14 9 11.2 11 8 11C4.8 11 2 9 1.1 6C2 3 4.8 1 8 1Z" transform="translate(0 2)"/>
<path d="M0 4C0 1.8 1.8 0 4 0C6.2 0 8 1.8 8 4C8 6.2 6.2 8 4 8C1.8 8 0 6.2 0 4ZM4 1C2.35 1 1 2.35 1 4C1 5.65 2.35 7 4 7C5.65 7 7 5.65 7 4C7 2.35 5.65 1 4 1Z" transform="translate(4 4)"/>
<path d="M0 2C0 0.9 0.9 0 2 0C2.1 0 2.4 0 2.6 0.1C2.25 0.25 2 0.6 2 1C2 1.55 2.45 2 3 2C3.4 2 3.75 1.75 3.9 1.4C4 1.6 4 1.9 4 2C4 3.1 3.1 4 2 4C0.9 4 0 3.1 0 2Z" transform="translate(6 6)"/>
</svg>
