<?xml version="1.0" encoding="utf-8"?>
<svg width="16" height="16" viewBox="0 0 16 16" xmlns="http://www.w3.org/2000/svg">
<defs>
<linearGradient id="dark" gradientUnits="userSpaceOnUse" x1="1" y1="0" x2="1" y2="7">
<stop offset="0" stop-color="#5D5C61"/>
<stop offset="0.4" stop-color="#888785"/>
<stop offset="1" stop-color="#47454D"/>
</linearGradient>
</defs>
<path d="M6 0C9.3 0 12 2.7 12 6L12 9L11 9L11 6C11 4.62 10.512 3.44 9.54 2.46C8.56 1.5 7.38 1 6 1C4.62 1 3.44 1.5 2.46 2.46C1.5 3.44 1 4.62 1 6L1 9L0 9L0 6C0 2.7 2.7 0 6 0L6 0Z" fill="#C0BFBC" transform="translate(2 1)"/>
<rect width="5" height="1" fill="#C0BFBC" x="8" y="14"/>
<circle r="1.5" cx="8.5" cy="14.5" fill="#5F5D62"/>
<rect width="4" height="7" fill="#C0BFBC" rx="2" x="1" y="8"/>
<rect width="4" height="7" fill="#C0BFBC" rx="2" x="11" y="8"/>
<path d="M1 0C1.55 0 2 0.45 2 1L2 6C2 6.55 1.55 7 1 7L0 7L0 0Z" fill="url(#dark)" transform="translate(3 8)"/>
<path d="M1 0C0.45 0 0 0.45 0 1L0 6C0 6.55 0.45 7 1 7L2 7L2 0Z" fill="url(#dark)" transform="translate(11 8)"/>
</svg>
