<?xml version="1.0" encoding="utf-8"?>
<svg width="16" height="16" viewBox="0 0 16 16" xmlns="http://www.w3.org/2000/svg">
<defs>
<linearGradient id="screen" gradientUnits="userSpaceOnUse" x1="10" y1="0" x2="0" y2="6">
<stop offset="0" stop-color="#62A0EA"/>
<stop offset="1" stop-color="#1C71D8"/>
</linearGradient>
</defs>
<path d="M16 0L16 0L16 0C16 1.1 15.1 2 14 2L2 2C0.9 2 0 1.1 0 0L0 0L16 0Z" fill="#77767B" transform="translate(0 13)"/>
<path d="M12 0C13.1 0 14 0.91 14 2L14 10L0 10L0 2C0 0.91 0.9 0 2 0L12 0Z" fill="#9A94A4" transform="translate(1 2)"/>
<path d="M11 0C11.55 0 12 0.45 12 1L12 8L0 8L0 1C0 0.45 0.45 0 1 0L11 0Z" fill="#241F31" transform="translate(2 3)"/>
<rect width="10" height="6" fill="url(#screen)" x="3" y="4"/>
</svg>
