<?xml version="1.0" encoding="utf-8"?>
<svg width="16" height="16" viewBox="0 0 16 16" fill="gray" xmlns="http://www.w3.org/2000/svg">
<path d="M0 8C0 3.6 3.6 0 8 0C12.4 0 16 3.60 16 8L16 9.5C16 10.9 14.9 12 13.5 12C12.1 12 11 10.9 11 9.5L11 4C11 4 12 4 12 4L12 9.5C12 10.3 12.7 11 13.5 11C14.3 11 15 10.3 15 9.5L15 8C15 4 12 1 8 1C4 1 1 4 1 8C1 12 4 15 8 15L12 15L12 16L8 16C3.6 16 0 12.4 0 8Z"/>
<path d="M4 8C4 5.8 5.8 4 8 4C10.2 4 12 5.8 12 8C12 10.2 10.2 12 8 12C5.8 12 4 10.2 4 8ZM8 5C9.65 5 11 6.35 11 8C11 9.65 9.65 11 8 11C6.35 11 5 9.65 5 8C5 6.35 6.35 5 8 5Z" fill-rule="evenodd"/>
</svg>
