<?xml version="1.0" encoding="utf-8"?>
<svg width="16" height="16" viewBox="0 0 16 16" fill="gray" xmlns="http://www.w3.org/2000/svg">
<path id="dialog" d="M11.826 15.0267C10.6575 15.6638 9.342 16 8 16L8 16C3.59087 16 0 12.4123 5.22193e-07 8C-0 5.86627 0.830334 3.85703 2.34085 2.34542C3.85137 0.833814 5.86 0 8 0C12.4092 0 16 3.58728 16 8C16 9.4 15.6328 10.78 14.9317 12L15.708 14.9051L16 16L14.8964 15.7427L11.826 15.0267L11.826 15.0267ZM13.86 11.8532L14.6043 14.6477L11.6818 13.9663L11.3472 14.1487C10.307 14.7159 9.19238 15 8 15L8 15C6.07143 15 4.423 14.3161 3.05428 12.9479C1.68562 11.5797 1 9.9313 1 8C1 6.0696 1.682 4.41942 3.04822 3.05227C4.41443 1.68507 6.065 1 8 1C9.92836 1 11.577 1.684 12.9455 3.05206C14.314 4.42008 15 6.06871 15 8C15 9.24723 14.6896 10.413 14.0654 11.4951L13.8589 11.8532L13.86 11.8532Z" fill-rule="evenodd" transform="translate(-0 0)"/>
<g id="?" transform="translate(5 3)">
<circle r="1" transform="translate(3 9)"/>
<path d="M0 3C0 1.34315 1.34314 0 3 0C4.65686 0 6 1.34315 6 3C6 4.4865 4.91885 5.72048 3.5 5.95852L3.5 7L2.5 7L2.5 5L3 5C4.10458 5 5 4.10457 5 3C5 1.89543 4.10458 1 3 1C1.89542 1 1 1.89543 1 3L0 3L0 3Z"/>
</g></svg>