<?xml version="1.0" encoding="utf-8"?>
<svg width="16" height="16" viewBox="0 0 16 16" fill="gray" xmlns="http://www.w3.org/2000/svg">
<path d="M9.75 0L2.5 0C1 0 0 1 0 2.5L0 13.5C0 15 1 16 2.5 16L11.5 16C13 16 14 15 14 13.5L14 4.25ZM13 5L13 13.5C13 14.33 12.33 15 11.5 15L2.5 15C1.67 15 1 14.33 1 13.5L1 2.5C1 1.67 1.67 1 2.5 1L9 1Z" fill-rule="evenodd" transform="translate(1 0)"/>
<g transform="translate(5 3)">
<circle r="1" transform="translate(3 9)"/>
<path d="M0 3C0 1.35 1.35 0 3 0C4.65 0 6 1.35 6 3C6 4.5 5 5.72 3.5 6L3.5 7L2.5 7L2.5 5L3 5C4 5 5 4 5 3C5 2 4 1 3 1C2 1 1 2 1 3Z"/>
</g></svg>
