<?xml version="1.0" encoding="utf-8"?>
<svg width="16" height="16" viewBox="0 0 16 16" fill="gray" xmlns="http://www.w3.org/2000/svg">
<path id="sheet" d="M9.75 0L2.5 0C1.11911 0 0 1.1191 0 2.5L0 13.5C0 14.8809 1.11911 16 2.5 16L11.5 16C12.8809 16 14 14.8809 14 13.5L14 4.25L9.75 0L9.75 0ZM13 5L13 13.5C13 14.33 12.33 15 11.5 15L2.5 15C1.67 15 1 14.33 1 13.5L1 2.5C1 1.67 1.67 1 2.5 1L9 1L13 5Z" fill-rule="evenodd" transform="translate(1 0)"/>
<g transform="translate(5 3)">
<path d="M0 1C0 0.447715 0.447715 0 1 0C1.55228 0 2 0.447715 2 1C2 1.55228 1.55228 2 1 2C0.447715 2 0 1.55228 0 1Z" transform="translate(2 8)"/>
<path d="M0 3C0 1.34315 1.34314 0 3 0C4.65686 0 6 1.34315 6 3C6 4.4865 4.91885 5.72048 3.5 5.95852L3.5 7L2.5 7L2.5 5L3 5C4.1046 5 5 4.1046 5 3C5 1.89543 4.10458 1 3 1C1.89542 1 1 1.89543 1 3L0 3L0 3Z"/>
</g></svg>
