<?xml version="1.0" encoding="utf-8"?>
<svg width="16" height="16" viewBox="0 0 16 16" fill="gray" xmlns="http://www.w3.org/2000/svg">
<path d="M0 8C0 3.58172 3.58172 0 8 0C12.4183 0 16 3.58172 16 8C16 12.4183 12.4183 16 8 16C3.58172 16 0 12.4183 0 8L0 8ZM1 8C1 4.13401 4.13401 1 8 1C11.866 1 15 4.13401 15 8C15 11.866 11.866 15 8 15C4.13401 15 1 11.866 1 8L1 8Z" fill-rule="evenodd"/>
<g transform="translate(5 3)">
<circle r="1" transform="translate(3 9)"/>
<path d="M0 3C0 1.34315 1.34314 0 3 0C4.65686 0 6 1.34315 6 3C6 4.4865 4.91885 5.72048 3.5 5.95852L3.5 7L2.5 7L2.5 5L3 5C4.10458 5 5 4.10457 5 3C5 1.89543 4.10458 1 3 1C1.89542 1 1 1.89543 1 3L0 3L0 3Z"/>
</g></svg>