<?xml version="1.0" encoding="utf-8"?>
<svg width="16" height="16" viewBox="0 0 16 16" fill="gray" xmlns="http://www.w3.org/2000/svg">
<path d="M0 8C0 3.6 3.6 0 8 0C12.42 0 16 3.6 16 8C16 12.42 12.42 16 8 16C3.6 16 0 12.42 0 8ZM1 8C1 4.13 4.13 1 8 1C11.87 1 15 4.13 15 8C15 11.87 11.87 15 8 15C4.13 15 1 11.87 1 8Z" fill-rule="evenodd"/>
<g transform="translate(5 3)">
<circle r="1" transform="translate(3 9)"/>
<path d="M0 3C0 1.35 1.35 0 3 0C4.65 0 6 1.35 6 3C6 4.5 5 5.72 3.5 6L3.5 7L2.5 7L2.5 5L3 5C4 5 5 4 5 3C5 2 4 1 3 1C2 1 1 2 1 3Z"/>
</g></svg>
