<?xml version="1.0" encoding="utf-8"?>
<svg width="16" height="16" viewBox="0 0 16 16" fill="none" xmlns="http://www.w3.org/2000/svg">
<rect width="14" height="1" fill="#808080" transform="translate(1 14)"/>
<path d="M0 2L0 4C0 4.5974 0.26181 5.13355 0.676971 5.5C0.26181 5.86645 0 6.4026 0 7L0 9C0 10.1047 0.895294 11 2 11L6 11L6 12L8 12L8 11L12 11C13.1047 11 14 10.1047 14 9L14 7C14 6.4026 13.7382 5.86645 13.323 5.5C13.7382 5.13355 14 4.5974 14 4L14 2C14 0.895279 13.1047 0 12 0L2 0C0.895294 0 0 0.895279 0 2L0 2ZM2 5L12 5C12.2762 5 12.5119 4.90239 12.7072 4.70716C12.9024 4.51194 13 4.27622 13 4L13 2C13 1.72378 12.9024 1.48806 12.7072 1.29284C12.5119 1.09761 12.2762 1 12 1L2 1C1.72379 1 1.48807 1.09761 1.29285 1.29284C1.09763 1.48806 1 1.72378 1 2L1 4C1 4.27622 1.09763 4.51194 1.29285 4.70716C1.48807 4.90239 1.72379 5 2 5L2 5ZM10 3L12 3L12 4L10 4L10 3L10 3ZM2 6C1.72379 6 1.48807 6.09761 1.29285 6.29284C1.09763 6.48806 1 6.72378 1 7L1 9C1 9.27622 1.09763 9.51194 1.29285 9.70716C1.48807 9.90239 1.72379 10 2 10L12 10C12.2762 10 12.5119 9.90239 12.7072 9.70716C12.9024 9.51194 13 9.27622 13 9L13 7C13 6.72378 12.9024 6.48806 12.7072 6.29284C12.5119 6.09761 12.2762 6 12 6L2 6L2 6ZM10 8L12 8L12 9L10 9L10 8L10 8Z" fill="#808080" fill-rule="evenodd" transform="translate(1 1)"/>
</svg>