<?xml version="1.0" encoding="utf-8"?>
<svg width="16" height="16" viewBox="0 0 16 16" fill="gray" xmlns="http://www.w3.org/2000/svg">
<path d="M0 3.5C0 1.57 1.57 0 3.5 0C5.43 0 7 1.57 7 3.5C7 5.43 5.43 7 3.5 7C1.57 7 0 5.43 0 3.5Z" transform="translate(8 8)"/>
<path d="M0 3.5C0 1.57 1.57 0 3.5 0C5.43 0 7 1.57 7 3.5C7 5.43 5.43 7 3.5 7C1.57 7 0 5.43 0 3.5Z" transform="translate(0 8)" opacity="0.5"/>
<path d="M0 3.5C0 1.57 1.57 0 3.5 0C5.43 0 7 1.57 7 3.5C7 5.43 5.43 7 3.5 7C1.57 7 0 5.43 0 3.5ZM3.5 1C2.12 1 1 2.12 1 3.5C1 4.88 2.12 6 3.5 6C4.88 6 6 4.88 6 3.5C6 2.12 4.88 1 3.5 1Z" fill-rule="evenodd" transform="translate(0 8)"/>
<path d="M0 3.5C0 1.57 1.57 0 3.5 0C5.43 0 7 1.57 7 3.5C7 5.43 5.43 7 3.5 7C1.57 7 0 5.43 0 3.5ZM3.5 1C2.12 1 1 2.12 1 3.5C1 4.88 2.12 6 3.5 6C4.88 6 6 4.88 6 3.5C6 2.12 4.88 1 3.5 1Z" fill-rule="evenodd" transform="translate(4 1)"/>
</svg>
