<?xml version="1.0" encoding="utf-8"?>
<svg width="16" height="16" viewBox="0 0 16 16" fill="gray" xmlns="http://www.w3.org/2000/svg">
<path id="printer" d="M9 2C9.55236 2 10 2.44765 10 3L10 4L8 4C7 4 6 5 6 6L3 6L3 9L6 8.93146L6 10L2 10L2 8L1 8C0.44764 8 0 7.55237 0 7L0 3C0 2.44765 0.44764 2 1 2L2 2L2 0L8 0L8 2L9 2L9 2ZM4 7L6 7L6 8L4 8L4 7ZM3 1L7 1L7 2L3 2L3 1L3 1Z" fill-rule="evenodd" transform="translate(0 1)"/>
<g id="monitor" transform="translate(7 6)">
<rect id="base" width="5" height="1" transform="translate(2 8)"/>
<path id="screen" d="M9 1C9 0.44764 8.55236 0 8 0L1 0C0.44764 0 0 0.44764 0 1L0 6C0 6.55236 0.44764 7 1 7L8 7C8.55236 7 9 6.55236 9 6L9 1L9 1ZM1 1L8 1L8 6L1 6L1 1L1 1Z" fill-rule="evenodd"/>
</g></svg>