<?xml version="1.0" encoding="utf-8"?>
<svg width="16" height="16" viewBox="0 0 16 16" fill="gray" xmlns="http://www.w3.org/2000/svg">
<path d="M8 0C9.10472 0 10 0.89528 10 2L10 14C10 15.1047 9.10472 16 8 16L2 16C0.895281 16 0 15.1047 0 14L0 2C0 0.89528 0.895281 0 2 0L8 0L8 0ZM8 1C8.55236 1 9 1.44764 9 2L9 14C9 14.5524 8.55236 15 8 15L2 15C1.44764 15 1 14.5524 1 14L1 2C1 1.44764 1.44764 1 2 1L8 1L8 1Z" fill-rule="evenodd" transform="translate(3 0)"/>
<rect width="1" height="12" transform="translate(0 2)"/>
<rect width="1" height="12" transform="translate(15 2)"/>
</svg>
