<?xml version="1.0" encoding="utf-8"?>
<svg width="16" height="16" viewBox="0 0 16 16" fill="#808080" xmlns="http://www.w3.org/2000/svg">
<path d="M0 3.5C0 1.567 1.567 0 3.5 0C5.433 0 7 1.567 7 3.5C7 5.433 5.433 7 3.5 7C1.567 7 0 5.433 0 3.5Z" transform="translate(8 8)"/>
<path d="M0 3.5C0 1.567 1.567 0 3.5 0C5.433 0 7 1.567 7 3.5C7 5.433 5.433 7 3.5 7C1.567 7 0 5.433 0 3.5Z" transform="translate(0 8)" opacity="0.5"/>
<path d="M0 3.5C0 1.567 1.567 0 3.5 0C5.433 0 7 1.567 7 3.5C7 5.433 5.433 7 3.5 7C1.567 7 0 5.433 0 3.5L0 3.5ZM3.5 1C2.11929 1 1 2.11929 1 3.5C1 4.88071 2.11929 6 3.5 6C4.88071 6 6 4.88071 6 3.5C6 2.11929 4.88071 1 3.5 1L3.5 1Z" fill-rule="evenodd" transform="translate(0 8)"/>
<path d="M0 3.5C0 1.567 1.567 0 3.5 0C5.433 0 7 1.567 7 3.5C7 5.433 5.433 7 3.5 7C1.567 7 0 5.433 0 3.5L0 3.5ZM3.5 1C2.11929 1 1 2.11929 1 3.5C1 4.88071 2.11929 6 3.5 6C4.88071 6 6 4.88071 6 3.5C6 2.11929 4.88071 1 3.5 1L3.5 1Z" fill-rule="evenodd" transform="translate(4 1)"/>
</svg>