<?xml version="1.0" encoding="utf-8"?>
<svg width="16" height="16" viewBox="0 0 16 16" fill="gray" xmlns="http://www.w3.org/2000/svg">
<rect width="6" height="2" transform="translate(5 14)"/>
<path d="M14 0C15.1047 0 16 0.89528 16 2L16 10C16 11.1047 15.1047 12 14 12L2 12C0.89528 12 0 11.1047 0 10L0 2C0 0.89528 0.89528 0 2 0L14 0ZM14 1C14.5524 1 15 1.44764 15 2L15 10C15 10.5524 14.5524 11 14 11L2 11C1.44764 11 1 10.5524 1 10L1 2C1 1.44764 1.44764 1 2 1L14 1Z" fill-rule="evenodd" transform="translate(0 1)"/>
<g id="screensaver" transform="translate(3.586 3.586)">
<path id="moon" d="M3.6654 0C4.0374 0.45 4.2624 1.026 4.2624 1.656C4.2624 3.09547 3.09548 4.2624 1.656 4.2624C1.026 4.2624 0.45 4.0368 0 3.6654C0.324423 5.03646 1.55028 6.00358 2.9592 6C4.63859 6 6 4.63859 6 2.9592C6.00361 1.55035 5.03652 0.324467 3.66546 1.4782e-05C3.66546 1.4782e-05 3.6654 0 3.6654 0Z" transform="translate(2.414 0.414)"/>
<path id="star" d="M2.38419e-07 2.8284L0.71182 1.4142L0 0L1.4142 0.71182L2.8284 0L2.11658 1.4142L2.8284 2.8284L1.4142 2.11658L2.38419e-07 2.8284Z"/>
</g></svg>