<?xml version="1.0" encoding="utf-8"?>
<svg width="16" height="16" viewBox="0 0 16 16" fill="gray" xmlns="http://www.w3.org/2000/svg">
<path d="M4 15L4 14L7 14L7 12L2 12C0.9 12 0 11.1 0 10L0 2C0 0.9 0.9 0 2 0L14 0C15.1 0 16 0.9 16 2L16 10C16 11 15.1 12 14 12L9 12L9 14L12 14L12 15ZM14 1C14.55 1 15 1.45 15 2L15 10C15 10.55 14.55 11 14 11L2 11C1.45 11 1 10.55 1 10L1 2C1 1.45 1.45 1 2 1Z" fill-rule="evenodd" transform="translate(0 1)"/>
<path d="M0 6L0 5L3 2L4.5 3.5L8 0L12 4L12 6Z" transform="translate(2 5)"/>
<circle r="1.5" cx="4.5" cy="4.5"/>
</svg>
