<?xml version="1.0" encoding="utf-8"?>
<svg width="16" height="16" viewBox="0 0 16 16" fill="gray" xmlns="http://www.w3.org/2000/svg">
<path d="M8 0C9.10472 0 10 0.89528 10 2L10 2L0 2L0 2C0 0.89528 0.89528 0 2 0L8 0Z" transform="translate(3 14)"/>
<path d="M14 0C15.1047 0 16 0.89528 16 2L16 10C16 11.1047 15.1047 12 14 12L2 12C0.89528 12 0 11.1047 0 10L0 2C0 0.89528 0.89528 0 2 0L14 0ZM14 1C14.5524 1 15 1.44764 15 2L15 10C15 10.5524 14.5524 11 14 11L2 11C1.44764 11 1 10.5524 1 10L1 2C1 1.44764 1.44764 1 2 1L14 1Z" fill-rule="evenodd" transform="translate(0 1)"/>
<g transform="translate(3 4)">
<path d="M0 0L6 0L6 6L0 6L0 0L0 0ZM1 2L5 2L5 5L1 5L1 2L1 2Z" fill-rule="evenodd"/>
<rect width="2" height="2" transform="translate(8 0)" />
<rect width="2" height="2" transform="translate(8 3)" />
</g></svg>