<?xml version="1.0" encoding="utf-8"?>
<svg width="16" height="16" viewBox="0 0 16 16" fill="gray" xmlns="http://www.w3.org/2000/svg">
<rect width="6" height="2" transform="translate(5 14)"/>
<path d="M14 0C15.1047 0 16 0.89528 16 2L16 10C16 11.1047 15.1047 12 14 12L2 12C0.89528 12 0 11.1047 0 10L0 2C0 0.89528 0.89528 0 2 0L14 0ZM14 1C14.5524 1 15 1.44764 15 2L15 10C15 10.5524 14.5524 11 14 11L2 11C1.44764 11 1 10.5524 1 10L1 2C1 1.44764 1.44764 1 2 1L14 1Z" fill-rule="evenodd" transform="translate(0 1)"/>
<g id="landscape" transform="translate(2 3)">
<path d="M0 6L0 5L3 2L4.5 3.5L8 0L12 4L12 6L0 6L0 6Z" fill-rule="evenodd" transform="translate(0 2)"/>
<path d="M0 1.5C0 0.671573 0.671573 0 1.5 0C2.32843 0 3 0.671573 3 1.5C3 2.32843 2.32843 3 1.5 3C0.671573 3 0 2.32843 0 1.5C0 1.5 0 1.5 0 1.5Z" fill-rule="evenodd" transform="translate(1 0)"/>
</g></svg>