<?xml version="1.0" encoding="utf-8"?>
<svg width="16" height="16" viewBox="0 0 16 16" fill="gray" xmlns="http://www.w3.org/2000/svg">
<rect width="6" height="2" transform="translate(5 14)"/>
<path id="display" d="M11 0L10 1L2 1C1.44764 1 1 1.44764 1 2L1 10C1 10.5524 1.44764 11 2 11L14 11C14.5524 11 15 10.5524 15 10L15 1.9895L16 0.989502L16 10C16 11.1047 15.1047 12 14 12L2 12C0.89528 12 0 11.1047 0 10L0 2C0 0.895281 0.89528 0 2 0L11 0Z" transform="translate(0 1)"/>
<g id="brush" transform="translate(6 0)">
<path id="tail" d="M2.5 0C3.88 0 5 1.119 5 2.5L5 2.5C5 3.88 3.88 5 2.5 5L0 5L0 2.5C0 1.119 1.12 0 2.5 0Z" transform="translate(0 4)"/>
<path id="bar" d="M3.5 0L6 1.46455e-07L6 0.5L1.5 5L0 3.5L3.5 0Z" transform="translate(4 0)"/>
</g></svg>