<?xml version="1.0" encoding="utf-8"?>
<svg width="16" height="16" viewBox="0 0 16 16" fill="gray" xmlns="http://www.w3.org/2000/svg">
<path d="M12 0C13.1 0 14 1 14 2L14 14C14 15.1 13.1 16 12 16L2 16C0.9 16 0 15.1 0 14L0 2C0 0.9 0.9 0 2 0ZM1 13C1 13.5 1.5 14 2 14L12 14C12.5 14 13 13.5 13 13L13 2C13 1.5 12.5 1 12 1L2 1C1.5 1 1 1.5 1 2Z" fill-rule="evenodd" transform="translate(1 0)"/>
<path d="M0 0L10 0L10 5L0 5ZM3 2L3 3L4 3L4 2L6 2L6 3L7 3L7 2C7 1.5 6.5 1 6 1L4 1C3.5 1 3 1.5 3 2Z" fill-rule="evenodd" transform="translate(3 8)"/>
<path d="M0 0L10 0L10 5L0 5ZM3 2L3 3L4 3L4 2L6 2L6 3L7 3L7 2C7 1.5 6.5 1 6 1L4 1C3.5 1 3 1.5 3 2Z" fill-rule="evenodd" transform="translate(3 2)"/>
</svg>
