<?xml version="1.0" encoding="utf-8"?>
<svg width="16" height="16" viewBox="0 0 16 16" fill="gray" xmlns="http://www.w3.org/2000/svg">
<path id="box" d="M13.8564 12L13.8564 4L6.92822 0L0 4L0 12L6.92822 16L13.8564 12L13.8564 12ZM1.46014 4.31168L6.92822 1.1547L8.42755 2.02036L3.21161 5.30879L1.46014 4.31168L1.46014 4.31168ZM5.18225 6.43068L10.3851 3.15054L12.3719 4.29767L6.92719 7.42405L5.18225 6.43068L5.18225 6.43068ZM7.42822 14.5566L7.42822 8.28946L12.8564 5.17264L12.8564 11.4226L7.42822 14.5566L7.42822 14.5566ZM1 5.2L6.42822 8.2907L6.42822 14.5566L1 11.4226L1 5.2L1 5.2Z" fill-rule="evenodd" transform="translate(1.072 0)"/>
</svg>
