<?xml version="1.0" encoding="utf-8"?>
<svg width="16" height="16" viewBox="0 0 16 16" fill="gray" xmlns="http://www.w3.org/2000/svg">
<path d="M2 0C1 0 0 1 0 2C0 2 0 14 0 14C0 15 1 16 2 16C2 16 11 16 11 16C12 16 13 15 13 14C13 14 13 8 13 8L12 9L12 14C12 14.5 11.5 15 11 15L2 15C1.5 15 1 14.5 1 14L1 2C1 1.5 1.5 1 2 1L7.5 1L9.75 3.25L10.5 2.5L8 0C8 0 2 0 2 0Z"/>
<path d="M0 7L7 0L9 2L2 9L0 9Z" transform="translate(5 3)"/>
<path d="M14.19 1a.513.513 0 00-.364.152l-1.162 1.16 2 2 1.163-1.162a.514.514 0 000-.728l-1.277-1.275a.514.514 0 00-.364-.152Z"/>
</svg>
