<?xml version="1.0" encoding="utf-8"?>
<svg width="16" height="16" viewBox="0 0 16 16" fill="#808080" xmlns="http://www.w3.org/2000/svg">
<path d="M16 0L0 0L0 14L16 14L16 0ZM1 13L1 1L15 1L15 13L1 13Z" fill-rule="evenodd" transform="translate(0 1)"/>
<rect width="3" height="1" transform="translate(7 11)"/>
<path d="M0.853553 0.146447L3.20711 2.5L0.853553 4.85355C0.806669 4.90044 0.752599 4.93657 0.691341 4.96194C0.630085 4.98731 0.566304 5 0.5 5C0.433696 5 0.369915 4.98731 0.308658 4.96194C0.247401 4.93657 0.193331 4.90044 0.146447 4.85355C0.0488155 4.75592 0 4.63807 0 4.5C0 4.36193 0.0488155 4.24408 0.146447 4.14645L0.5 3.79289L1.79289 2.5L0.146447 0.853553C0.0488155 0.755922 0 0.638071 0 0.5C0 0.361929 0.0488155 0.244078 0.146447 0.146447C0.244077 0.0488157 0.361928 0 0.5 0C0.638071 0 0.755922 0.0488157 0.853553 0.146447L0.853553 0.146447Z" fill-rule="evenodd" transform="translate(3 7)"/>
</svg>
