<?xml version="1.0" encoding="utf-8"?>
<svg width="16" height="16" viewBox="0 0 16 16" fill="gray" xmlns="http://www.w3.org/2000/svg">
<g class="suggested" fill="#438DE6">
<path d="M8 0C9.15 0 10.15 0.647 10.6523 1.6C11.68 1.28 12.8436 1.53 13.657 2.34315C14.47 3.1564 14.72 4.32 14.4 5.35C15.353 5.85 16 6.85 16 8C16 9.15 15.353 10.15 14.4 10.6523C14.72 11.68 14.47 12.8436 13.657 13.657C12.8436 14.47 11.68 14.72 10.6523 14.4C10.15 15.353 9.15 16 8 16C6.85 16 5.85 15.353 5.35 14.4C4.32 14.72 3.156 14.47 2.343 13.657C1.53 12.8436 1.28 11.68 1.6 10.6523C0.647 10.15 0 9.15 0 8C0 6.85 0.647 5.85 1.6 5.34767C1.28 4.32 1.53 3.1564 2.343 2.343C3.156 1.53 4.32 1.28 5.35 1.6C5.85 0.647 6.85 0 8 0ZM8 1C9.1 1 10 1.9 10 3L10 3.17156L10.12 3.05C10.9 2.27 12.2 2.2 13 3C13.8 3.8 13.73 5.1 12.95 5.88L12.83 6L13 6C14.1 6 15 6.9 15 8C15 9.1 14.1 10 13 10L12.83 10L12.95 10.12C13.73 10.9 13.8 12.2 13 13C12.2 13.8 10.9 13.73 10.12 12.95L10 12.83L10 13C10 14.1 9.1 15 8 15C6.9 15 6 14.1 6 13L6 12.83L5.88 12.95C5.1 13.73 3.8 13.8 3 13C2.2 12.2 2.27 10.9 3.05 10.12L3.17157 10L3 10C1.9 10 1 9.1 1 8C1 6.9 1.9 6 3 6L3.17154 6L3.05 5.88C2.27 5.1 2.2 3.8 3 3C3.8 2.2 5.1 2.27 5.88 3.05L6 3.1716L6 3C6 1.9 6.9 1 8 1Z" fill-rule="evenodd"/>
<path d="M7.5 0L2.85 4.65L0.7 2.5L0 3.2L2.85 6L8.2 0.7Z" transform="translate(4.15 5.65)"/>
</g></svg>
