<?xml version="1.0" encoding="utf-8"?>
<svg width="16" height="16" viewBox="0 0 16 16" fill="gray" xmlns="http://www.w3.org/2000/svg">
<path d="M2 2L3 2L3 3C3 3.55236 3.44764 4 4 4C4.55236 4 5 3.55236 5 3L5 2L9 2L9 3C9 3.55236 9.44764 4 10 4C10.5524 4 11 3.55236 11 3L11 2L12 2C13.1047 2 14 2.89528 14 4L14 11.5L13 10L13 6C13 5.44764 12.5524 5 12 5L2 5C1.44764 5 1 5.44764 1 6L1 14C1 14.5524 1.44764 15 2 15L7 15L7 16L2 16C0.89528 16 0 15.1047 0 14L0 4C0 2.89528 0.89528 2 2 2L2 2ZM4 0C4.55236 0 5 0.44764 5 1L5 2L3 2L3 1C3 0.44764 3.44764 0 4 0L4 0ZM11 1L11 2L9 2L9 1C9 0.44764 9.44764 0 10 0C10.5524 0 11 0.44764 11 1L11 1Z" fill-rule="evenodd" transform="translate(1 0)"/>
<path class="warning" fill="#FF7800" fill-rule="evenodd" d="M3.48 0C3.33 0 3.1938 0.0874166 3.11896 0.211579C3.119 0.21158 0.0584145 5.374 0.0584145 5.374C-0.108212 5.65266 0.101383 6 0.4373 6C0.437321 6 6.56232 6 6.56232 6C6.9 6 7.10785 5.65266 6.94123 5.374C6.94123 5.374 3.88263 0.21158 3.88263 0.21158C3.8 0.075 3.6446 0 3.48 0C3.48 0 3.48 0 3.48 0ZM4 5L4 4L3 4L3 5L4 5L4 5ZM4 1L4 3L3 3L3 1L4 1L4 1Z" transform="translate(9 10)"/>
</svg>
