<?xml version="1.0" encoding="utf-8"?>
<svg width="16" height="16" viewBox="0 0 16 16" fill="gray" xmlns="http://www.w3.org/2000/svg">
<path d="M2 2L3 2L3 3C3 3.55236 3.44764 4 4 4C4.55236 4 5 3.55236 5 3L5 2L9 2L9 3C9 3.55236 9.44764 4 10 4C10.5524 4 11 3.55236 11 3L11 2L12 2C13.1047 2 14 2.89528 14 4L14 8L13 8L13 6C13 5.44764 12.5524 5 12 5L2 5C1.44764 5 1 5.44764 1 6L1 14C1 14.5524 1.44764 15 2 15L7 15L7 16L2 16C0.89528 16 0 15.1047 0 14L0 4C0 2.89528 0.89528 2 2 2L2 2ZM4 0C4.55236 0 5 0.44764 5 1L5 2L3 2L3 1C3 0.44764 3.44764 0 4 0L4 0ZM11 1L11 2L9 2L9 1C9 0.44764 9.44764 0 10 0C10.5524 0 11 0.44764 11 1L11 1Z" fill-rule="evenodd" transform="translate(1 0)"/>
<path class="error" fill="#F22C42" fill-rule="evenodd" d="M0 3.5C0 1.567 1.567 0 3.5 0C5.433 0 7 1.567 7 3.5C7 5.433 5.433 7 3.5 7C1.567 7 0 5.433 0 3.5L0 3.5ZM4 1L4 4L3 4L3 1L4 1L4 1ZM4 6L4 5L3 5L3 6L4 6L4 6Z" transform="translate(9 9)"/>
</svg>
