<?xml version="1.0" encoding="utf-8"?>
<svg width="16" height="16" viewBox="0 0 16 16" fill="#808080" xmlns="http://www.w3.org/2000/svg">
<g transform="translate(10 1.29)" opacity="0.5">
<path d="M5 6.71012C5 9.88013 2.89149 12.5597 0 13.4202L0 12.3687C2.33038 11.545 4 9.32256 4 6.71012C4 4.09768 2.33038 1.87521 0 1.05153L0 0C2.89149 0.860549 5 3.54011 5 6.71012Z"/>
<path d="M2 3.46487C2 4.94486 1.1956 6.23812 0 6.92974L0 5.7C0.61375 5.15166 1 4.35337 1 3.46487C1 2.57637 0.61375 1.77808 0 1.22876L0 0C1.1956 0.691618 2 1.98488 2 3.46487Z" transform="translate(0 3.245)"/>
</g><path d="M7 0L3 4C3 4 0 4 0 4C0 4 0 10 0 10C0 10 3 10 3 10L7 14L7 0Z" transform="translate(1 1)"/>
</svg>