<?xml version="1.0" encoding="utf-8"?>
<svg width="16" height="16" viewBox="0 0 16 16" fill="#808080" xmlns="http://www.w3.org/2000/svg">
<path d="M0 15L15 0L16 1L13.4244 3.57558C14.4093 4.78165 15 6.32211 15 8C15 11.17 12.8915 13.8496 10 14.71L10 13.6586C12.3304 12.835 14 10.6124 14 8C14 6.59795 13.5191 5.30821 12.7133 4.28674L11.2841 5.71594C11.7354 6.36366 12 7.15111 12 8C12 9.48 11.1956 10.7733 10 11.4649L10 10.2361C10.6137 9.68678 11 8.8885 11 8C11 7.42783 10.8398 6.89308 10.5619 6.43813L8 9L8 15L5 12L1 16L0 15ZM2 11L8 5L8 1L4 5L1 5L1 11L2 11ZM11.218 1.78196C10.8317 1.58157 10.4243 1.41614 10 1.28987L10 2.3414C10.1598 2.39788 10.3165 2.46094 10.4698 2.53025L11.218 1.78196Z" opacity="0.5"/>
</svg>