<?xml version="1.0" encoding="utf-8"?>
<svg width="16" height="16" viewBox="0 0 16 16" fill="#808080" xmlns="http://www.w3.org/2000/svg">
<path d="M16 15L15 16L11 12L8 15L8 9L5.43813 6.43813C5.16018 6.89308 5 7.42783 5 8C5 8.8885 5.38625 9.68678 6 10.2361L6 11.4649C4.8044 10.7733 4 9.48 4 8C4 7.15111 4.26463 6.36366 4.71593 5.71594L3.28674 4.28674C2.481 5.30821 2 6.59795 2 8C2 10.6124 3.66962 12.8349 6 13.6586L6 14.7101C3.10851 13.8496 1 11.17 1 8C1 6.32211 1.59071 4.78165 2.57558 3.57558L0 1L1 0L16 15ZM8 5L14 11L15 11L15 5L12 5L8 1L8 5ZM5.53025 2.53025C5.68351 2.46094 5.84021 2.39788 6 2.3414L6 1.28987C5.57574 1.41614 5.16833 1.58157 4.78197 1.78196L5.53025 2.53025Z" opacity="0.5"/>
</svg>