<?xml version="1.0" encoding="utf-8"?>
<svg width="16" height="16" viewBox="0 0 16 16" fill="gray" xmlns="http://www.w3.org/2000/svg">
<defs><clipPath id="waves">
<rect width="6" height="16" x="10"/>
</clipPath></defs>
<g transform="rotate(180 8 8)">
<path d="M8 1L4 5L1 5L1 11L4 11L8 15Z"/>
<path clip-path="url(#waves)" d="M15 8C15 11.85 11.85 15 8 15L8 14C11.3 14 14 11.3 14 8C14 4.7 11.3 2 8 2L8 1C11.85 1 15 4.2 15 8ZM12 8C12 10.2 10.2 12 8 12L8 11C9.65 11 11 9.65 11 8C11 6.35 9.65 5 8 5L8 4C10.2 4 12 5.8 12 8Z" opacity="50%"/>
</g></svg>
