<?xml version="1.0" encoding="utf-8"?>
<svg width="16" height="16" viewBox="0 0 16 16" fill="gray" xmlns="http://www.w3.org/2000/svg">
<defs>
<clipPath id="waves">
<rect width="6" height="16" x="10"/>
</clipPath>
</defs>
<path d="M7 0L3 4L0 4L0 10L3 10L7 14Z" transform="translate(1 1)"/>
<g clip-path="url(#waves)" opacity="50%">
<path d="M0 0C2.2 0 4 1.8 4 4C4 6.2 2.2 8 0 8L0 7C1.65 7 3 5.65 3 4C3 2.35 1.65 1 0 1Z" transform="translate(8 4)"/>
<path d="M0 0C3.85 0 7 3.15 7 7L7 7C7 10.85 3.85 14 0 14L0 13C3.3 13 6 10.3 6 7C6 3.7 3.3 1 0 1Z" transform="translate(8 1)"/>
</g></svg>
