<?xml version="1.0" encoding="utf-8"?>
<svg width="16" height="16" viewBox="0 0 16 16" fill="gray" xmlns="http://www.w3.org/2000/svg">
<path d="M0 6.5C0 2.9 2.9 0 6.5 0C10.1 0 13 2.9 13 6.5L13 14L12 14L12 6.6C12 3.5 9.5 1 6.5 1C3.5 1 1 3.5 1 6.6L1 14L0 14Z" transform="translate(1 1)"/>
<rect width="2" height="3" rx="1" x="4" y="6"/>
<rect width="2" height="3" rx="1" x="9" y="6"/>
<g transform="translate(3 12)">
<rect width="1" height="3" x="8"/>
<rect width="1" height="3" x="6"/>
<rect width="1" height="3" x="4"/>
<rect width="1" height="3" x="2"/>
<rect width="1" height="3"/>
</g></svg>
