<?xml version="1.0" encoding="utf-8"?>
<svg width="16" height="16" viewBox="0 0 16 16" fill="gray" xmlns="http://www.w3.org/2000/svg">
<path d="M0 6.5C0 2.9 2.9 0 6.5 0C10.1 0 13 2.9 13 6.5L13 14L12 14L12 6.57C12 3.5 9.5 1 6.5 1C3.5 1 1 3.5 1 6.57L1 14L0 14L0 6.5Z" transform="translate(1 1)"/>
<rect width="1" height="3" transform="translate(3 12)"/>
<rect width="1" height="3" transform="translate(5 12)"/>
<rect width="1" height="3" transform="translate(7 12)"/>
<rect width="1" height="3" transform="translate(9 12)"/>
<rect width="1" height="3" transform="translate(11 12)"/>
<rect width="2" height="3" rx="1" transform="translate(4 6)"/>
<rect width="2" height="3" rx="1" transform="translate(9 6)"/>
</svg>
