<?xml version="1.0" encoding="utf-8"?>
<svg width="16" height="16" viewBox="0 0 16 16" xmlns="http://www.w3.org/2000/svg">
<g class="warning" fill="#FF7800">
<path d="M8 2C9.10472 2 10 2.89528 10 4L10 14C10 15.1047 9.10472 16 8 16L2 16C0.89528 16 0 15.1047 0 14L0 4C0 2.89528 0.89528 2 2 2L8 2ZM8 3C8.55236 3 9 3.44764 9 4L9 14C9 14.5524 8.55236 15 8 15L2 15C1.44764 15 1 14.5524 1 14L1 4C1 3.44764 1.44764 3 2 3L8 3ZM3 0L7 0L7 1L3 1L3 0Z" fill-rule="evenodd" transform="translate(3 0)"/>
<path d="M0.25 0L2.25 0L2.25 5L0.25 5L0.25 0L0.25 0ZM2.5 7C2.5 6.3125 1.9375 5.75 1.25 5.75C0.5625 5.75 0 6.3125 0 7C0 7.6875 0.5625 8.25 1.25 8.25C1.9375 8.25 2.5 7.6875 2.5 7L2.5 7Z" transform="translate(6.75 5)"/>
</g></svg>