<?xml version="1.0" encoding="utf-8"?>
<svg width="16" height="16" viewBox="0 0 16 16" fill="gray" xmlns="http://www.w3.org/2000/svg">
<defs>
<clipPath id="level">
<path d="M0 0L12 0L12 5L10 5L10 7L9 7L9 10C9 11.65 10.35 13 12 13L12 16C12 16 0 16 0 16Z"/>
</clipPath>
</defs>
<rect width="4" height="1" x="6"/>
<path d="M8 0C9.1 0 10 0.9 10 2L10 3L9 3L9 2C9 1.45 8.55 1 8 1L2 1C1.45 1 1 1.45 1 2L1 12C1 12.55 1.45 13 2 13L8 13C8.55 13 9 12.55 9 12L9 10C7.9 10 7 9.1 7 8L7 6L8 6L8 4L9 4L9 6L10 6L10 4L11 4L11 6L12 6L12 8C12 9.1 11.1 10 10 10L10 12C10 13.1 9.1 14 8 14L2 14C0.9 14 0 13.1 0 12L0 2C0 0.9 0.9 0 2 0Z" transform="translate(3 2)"/>
<rect width="6" height="10" x="5" y="4" clip-path="url(#level)"/>
</svg>
