<?xml version="1.0" encoding="utf-8"?>
<svg width="16" height="16" viewBox="0 0 16 16" fill="gray" xmlns="http://www.w3.org/2000/svg">
<g class="error" fill="#F22C42">
<rect width="4" height="1" x="6"/>
<path d="M2 0C0.9 0 0 0.9 0 2L0 12C0 13.1 0.9 14 2 14L8 14C9.1 14 10 13.1 10 12L10 2C10 0.9 9.1 0 8 0ZM2 1C1.45 1 1 1.45 1 2L1 12C1 12.55 1.45 13 2 13L8 13C8.55 13 9 12.55 9 12L9 2C9 1.45 8.55 1 8 1Z" fill-rule="evenodd" transform="translate(3 2)"/>
<path d="M3.5 0L4.5 0L4.5 3.5L8 3.5L8 4.5L4.5 4.5L4.5 8L3.5 8L3.5 4.5L0 4.5L0 3.5L3.5 3.5Z" transform="translate(4 5) rotate(45 4 4)"/>
</g></svg>
