<?xml version="1.0" encoding="utf-8"?>
<svg width="16" height="16" viewBox="0 0 16 16" fill="gray" xmlns="http://www.w3.org/2000/svg">
<path id="battery" d="M3 0L7 0L7 1L3 1L3 0L3 0ZM8 2C9.10472 2 10 2.89528 10 4L10 8L9 8L9 4C9 3.44764 8.55236 3 8 3L2 3C1.44764 3 1 3.44764 1 4L1 14C1 14.5524 1.44764 15 2 15L6 15L6 16L2 16C0.89528 16 0 15.1047 0 14L0 4C0 2.89528 0.89528 2 2 2L8 2L8 2Z" transform="translate(3 0)"/>
<path id="clock" d="M3.5 0C1.567 0 0 1.567 0 3.5C0 5.433 1.567 7 3.5 7C5.433 7 7 5.433 7 3.5C7 1.567 5.433 0 3.5 0L3.5 0ZM3 1L4 1L4 3L5 3L5 4L3 4L3 1L3 1Z" fill-rule="evenodd" transform="translate(9 9)"/>
</svg>