<?xml version="1.0" encoding="utf-8"?>
<svg width="16" height="16" viewBox="0 0 16 16" fill="gray" xmlns="http://www.w3.org/2000/svg">
<path id="battery" d="M8 2C9.10472 2 10 2.89528 10 4L10 14C10 15.1047 9.10472 16 8 16L2 16C0.89528 16 0 15.1047 0 14L0 4C0 2.89528 0.89528 2 2 2L8 2ZM8 3C8.55236 3 9 3.44764 9 4L9 14C9 14.5524 8.55236 15 8 15L2 15C1.44764 15 1 14.5524 1 14L1 4C1 3.44764 1.44764 3 2 3L8 3ZM3 0L7 0L7 1L3 1L3 0Z" fill-rule="evenodd" transform="translate(3 0)" opacity="0.5"/>
<g transform="translate(5 4)">
<circle r="1" transform="translate(3 9)"/>
<path d="M0 3C0 1.34315 1.34314 0 3 0C4.65686 0 6 1.34315 6 3C6 4.4865 4.91885 5.72048 3.5 5.95852L3.5 7L2.5 7L2.5 5L3 5C4.10458 5 5 4.10457 5 3C5 1.89543 4.10458 1 3 1C1.89542 1 1 1.89543 1 3L0 3L0 3Z"/>
</g></svg>