<?xml version="1.0" encoding="utf-8"?>
<svg width="16" height="16" viewBox="0 0 16 16" fill="gray" xmlns="http://www.w3.org/2000/svg">
<rect width="4" height="1" x="6"/>
<path d="M8 0C9.1 0 10 0.9 10 2L10 6L9 6L9 2C9 1.45 8.55 1 8 1L2 1C1.45 1 1 1.45 1 2L1 12C1 12.55 1.45 13 2 13L5 13L6 14L2 14C0.9 14 0 13.1 0 12L0 2C0 0.9 0.9 0 2 0Z" transform="translate(3 2)"/>
<path d="M3.5 0C1.6 0 0 1.6 0 3.5C0 5.4 1.6 7 3.5 7C5.4 7 7 5.4 7 3.5C7 1.6 5.4 0 3.5 0ZM3 1L4 1L4 3L5 3L5 4L3 4Z" fill-rule="evenodd" transform="translate(9 9)"/>
</svg>
