<?xml version="1.0" encoding="utf-8"?>
<svg width="16" height="16" viewBox="0 0 16 16" fill="gray" xmlns="http://www.w3.org/2000/svg">
<path d="M11.292 12.8882C11.292 12.8882 7.79814 13.587 5.70187 11.4907L1.50932 7.29812C-0.586957 5.20185 0.1118 1.70806 0.111801 1.70806L1.50934 0.31056C1.50934 0.31056 2.2081 -0.3882 2.90683 0.310541L4.30435 1.70807C5 2.40684 4.30435 3.10558 4.30435 3.10558C4.30435 3.10558 2.90683 4.5031 4.30434 5.9L7.1 8.69564C8.5 10.0932 9.8944 8.69565 9.8944 8.69565C9.8944 8.69565 10.5932 8 11.292 8.69565L12.7 10.1C13.3882 10.792 12.6894 11.4907 12.6894 11.4907L11.292 12.8882L11.292 12.8882Z" transform="translate(1 2)"/>
<path class="success" fill="#33D17A" d="M6.3 0L7 0L7 0.7L1.7 6L5 6L5 7L0 7L0 2L1 2L1 5.3L6.3 0Z" transform="translate(9 0)"/>
</svg>
