<?xml version="1.0" encoding="utf-8"?>
<svg width="16" height="16" viewBox="0 0 16 16" fill="gray" xmlns="http://www.w3.org/2000/svg">
<path d="M1 16L0 15L0.6 14.41L1.31776 13.6822L4.35351 10.6465L5.12853 9.8715L6 9L8 7L8.87146 6.12854L9.64649 5.35351L11.5052 3.49475L12.2552 2.745L15 0L16 1L14.0105 2.98953C15.1104 2.99516 16 3.888 16 4.9895L16 12.9895C16 14.0942 15.1047 14.9895 14 15L2.0105 15L1 16L1 16ZM10.5052 2.49475L10 2L6 1.9895L4 4L2 4C1.5 3.9895 1 4.4895 1 5L1 12L2.67932e-05 13L0 13L0 5C0 3.88478 0.895294 2.9895 2 3L3.5 3L5.5 1L10.5 0.9895L11.2552 1.74484L10.5052 2.49475L10.5052 2.5ZM14 13.9895L3.01049 13.9895L5.17157 11.8284C5.89543 12.5523 6.89543 13 8 13C10.2091 13 12 11.21 12 9C12 7.89543 11.5523 6.89543 10.8284 6.17157L13.01 3.9895L14 3.9895C14.5 3.9895 15 4.4895 15 5L15 13C15 13.4895 14.5 14 14 13.9895L14 13.9895ZM12.75 5.5C12.75 5.08579 13.0858 4.75 13.5 4.75C13.9142 4.75 14.25 5.08579 14.25 5.5C14.25 5.91421 13.9142 6.25 13.5 6.25C13.0858 6.25 12.75 5.91421 12.75 5.5L12.75 5.5ZM4 9C4 6.79086 5.79086 5 8 5L4 9ZM8 12C7.17157 12 6.42157 11.6642 5.87868 11.1213L6.58578 10.4142C6.94771 10.7761 7.4477 11 8 11C9.1046 11 10 10.1046 10 9C10 8.4477 9.77614 7.94771 9.41422 7.5858L10.1213 6.87868C10.6642 7.4216 11 8.17158 11 9C11 10.657 9.657 12 8 12L8 12Z" fill-rule="evenodd" opacity="0.5"/>
</svg>