<?xml version="1.0" encoding="utf-8"?>
<svg width="16" height="16" viewBox="0 0 16 16" fill="gray" xmlns="http://www.w3.org/2000/svg">
<path d="M3 0C1.33984 0 0 1.33984 0 3L0 13C0 14.66 1.33984 16 3 16L13 16C14.66 16 16 14.66 16 13L16 3C16 1.33984 14.66 0 13 0L3 0L3 0ZM13 1C14.1047 1 15 1.89528 15 3L15 13C15 14.1047 14.1047 15 13 15L3 15C1.89528 15 1 14.1047 1 13L1 3C1 1.89528 1.89528 1 3 1L13 1ZM10 3L6 3C5.16798 3 4.47658 3.5625 4.23048 4.05078C3.98439 4.54297 4 5 4 5L4 13L6 13L6 10L10 10L10 13L12 13L12 5C12 5 12.0156 4.54297 11.7695 4.05078C11.5235 3.5625 10.832 3 10 3L10 3ZM6 5L10 5L10 8L6 8L6 5Z" fill-rule="evenodd"/>
</svg>
