<?xml version="1.0" encoding="utf-8"?>
<svg width="16" height="16" viewBox="0 0 16 16" fill="none" xmlns="http://www.w3.org/2000/svg">
<path d="M8 0C9.10472 0 10 0.89528 10 2L10 2L0 2L0 2C0 0.89528 0.89528 0 2 0L8 0Z" fill="#808080" transform="translate(3 14)"/>
<path d="M14 0C15.1047 0 16 0.895281 16 2L16 10C16 11.1047 15.1047 12 14 12L2 12C0.89528 12 0 11.1047 0 10L0 2C0 0.895281 0.89528 0 2 0L14 0ZM14 1C14.5524 1 15 1.44764 15 2L15 10C15 10.5524 14.5524 11 14 11L2 11C1.44764 11 1 10.5524 1 10L1 2C1 1.44764 1.44764 1 2 1L14 1Z" fill="#808080" fill-rule="evenodd" transform="translate(0 1)"/>
<path d="M1.17157 1.17157C2.73367 -0.390524 5.26633 -0.390524 6.82843 1.17157C8.39052 2.73367 8.39052 5.26633 6.82843 6.82843C5.26633 8.39052 2.73367 8.39052 1.17157 6.82843C-0.390524 5.26633 -0.390524 2.73367 1.17157 1.17157L1.17157 1.17157ZM1.87868 1.87868C2.92979 0.827567 4.56683 0.719492 5.73844 1.55446L1.55446 5.73844C0.719492 4.56683 0.827567 2.92979 1.87868 1.87868L1.87868 1.87868ZM6.44554 2.26156C7.28051 3.43317 7.17243 5.07021 6.12132 6.12132C5.07021 7.17243 3.43317 7.28051 2.26156 6.44554L6.44554 2.26156L6.44554 2.26156Z" fill="#808080" fill-rule="evenodd" transform="translate(4 3)"/>
</svg>
