<?xml version="1.0" encoding="utf-8"?>
<svg width="16" height="16" viewBox="0 0 16 16" fill="gray" opacity="0.5" xmlns="http://www.w3.org/2000/svg">
<path d="M0 2.5C0 1.1191 1.11911 0 2.5 0L11.5 0C12.8809 0 14 1.1191 14 2.5L14 11.5C14 12.8809 12.8809 14 11.5 14L2.5 14C1.11911 14 0 12.8809 0 11.5L0 2.5L0 2.5ZM1.11475 9.27026L1 9.37088L1 11.5C1 11.9143 1.14642 12.2679 1.43927 12.5607C1.73212 12.8536 2.08569 13 2.5 13L11.5 13C11.9143 13 12.2679 12.8536 12.5607 12.5607C12.8536 12.2679 13 11.9143 13 11.5L13 10.9469L12.6469 10.5943L10.4467 8.39715L8.70569 10.1418L8.44562 10.4024L8.11826 10.0744L4.422 6.37027L1.11475 9.27026L1.11475 9.27026ZM11.5 1L2.5 1C2.08569 1 1.73212 1.14642 1.43927 1.43927C1.14642 1.73212 1 2.08569 1 2.5L1 8.04063L4.46765 5L8.44562 8.98642L10.4454 6.98241L13 9.53339L13 2.5C13 2.08569 12.8536 1.73212 12.5607 1.43927C12.2679 1.14642 11.9143 1 11.5 1L11.5 1ZM12 4C12 2.89543 11.1046 2 10 2C8.89542 2 8 2.89543 8 4C8 5.10457 8.89542 6 10 6C11.1046 6 12 5.10457 12 4L12 4ZM11 4C11 4.66667 10.6667 5 10 5C9.33334 5 9 4.66667 9 4C9 3.33333 9.33334 3 10 3C10.6667 3 11 3.33333 11 4L11 4Z" fill-rule="evenodd" transform="translate(1 1)"/>
</svg>
