<?xml version="1.0" encoding="utf-8"?>
<svg width="16" height="16" viewBox="0 0 16 16" fill="none" xmlns="http://www.w3.org/2000/svg">
<path d="M3.6 9.399L4.32172 8.67828L4.12768 8.38714C3.57589 7.58465 3.3 6.69373 3.3 5.71438C3.3 4.41204 3.75916 3.30056 4.67748 2.37991C5.59511 1.46 6.70261 1 8 1C9.12885 1 10.114 1.34823 10.9553 2.0447L11.6636 1.33645C10.6729 0.502352 9.39495 1.16815e-11 8 1.16815e-11C4.85197 -6.31252e-06 2.3 2.55841 2.3 5.71438C2.3 6.91713 2.67065 8 3.30367 8.95372L3.60067 9.39933L3.60067 9.39933ZM5.12161 9.87839L7 8L10.2944 4.7056L11.9125 3.08754L12.6256 2.37444L15 1.16815e-11L16 1L13.3259 3.67406C13.5676 4.30772 13.7 5 13.7 5.71438C13.7 6.91753 13.3291 8.03383 12.6957 8.95464L8.60087 15.0985L8 16L7.39912 15.0985L5.20042 11.7996L1 16L0 15L4.4 10.5995L5.12161 9.87839L5.12161 9.87839ZM5.91704 7.08297L9.38297 3.61703C8.9869 3.35354 8.51138 3.2 8 3.2C6.61929 3.2 5.5 4.31928 5.5 5.7C5.5 6.21138 5.65354 6.68689 5.91704 7.08297L5.91704 7.08297ZM12.5422 4.45775C12.6474 4.85477 12.7 5.27365 12.7 5.71438C12.7 6.69408 12.4212 7.5893 11.8636 8.4L8 14.1969L5.9215 11.0785L12.5422 4.45775Z" fill="#808080" fill-rule="evenodd" transform="matrix(1 0 0 1 0 -0)"/>
</svg>
