<?xml version="1.0" encoding="utf-8"?>
<svg width="16" height="16" viewBox="0 0 16 16" fill="gray" xmlns="http://www.w3.org/2000/svg">
<path d="M3 0C1.34314 0 0 1.34315 0 3L0 12C0 14.2091 1.79083 16 4 16C6.20917 16 8 14.2091 8 12L8 3L7 3L7 12C7 13.6569 5.65686 15 4 15C2.34314 15 1 13.6569 1 12L1 3C1 1.89543 1.89545 1 3 1C4.10455 1 5 1.89543 5 3L5 11C5 11.5523 4.55231 12 4 12C3.44769 12 3 11.5523 3 11L3 3L2 3L2 11C2 12.1046 2.89545 13 4 13C5.10455 13 6 12.1046 6 11L6 3C6 1.34315 4.65686 0 3 0L3 0Z" transform="translate(4 0)"/>
</svg>
