<?xml version="1.0" encoding="utf-8"?>
<svg width="16" height="16" viewBox="0 0 16 16" fill="gray" opacity="0.5" xmlns="http://www.w3.org/2000/svg">
<path d="M1.03784 6L0 6C0.888 2.55 4.0203 0 7.748 0C12.1662 0 15.748 3.58172 15.748 8C15.748 12.4183 12.1662 16 7.748 16C4.41441 16 1.557 13.9611 0.355 11.0623L1.27912 10.6795C2.331 13.216 4.8311 15 7.748 15C11.614 15 14.748 11.866 14.748 8C14.748 4.134 11.614 1 7.748 1C4.57694 1 1.8984 3.1085 1.03784 6L1.03784 6Z" transform="translate(0.252 0)"/>
<path d="M0 0L5 5L0 5L0 0Z" transform="translate(0 1)"/>
</svg>
