<?xml version="1.0" encoding="utf-8"?>
<svg width="16" height="16" viewBox="0 0 16 16" fill="gray" xmlns="http://www.w3.org/2000/svg">
<path d="M11 7.63e-06L11 2C11 2 10 2 10 2C8.26 2 7.045 2.642 6.244 3.582C5.444 4.522 5.028 5.71 4.65 6.84201C4.273 7.975 3.93 9.06 3.404 9.807C2.88 10.554 2.24 11 1 11C1 11 0 11 0 11L0 12C0 12 1 12 1 12C2.511 12 3.559 11.321 4.22 10.38C4.883 9.44 5.227 8.275 5.6 7.158C5.972 6.041 6.37 4.978 7 4.23C7.64301 3.483 8.5 3 10 3C10 3 11 3 11 3L11 5L16 2.5L11 0L11 7.62939e-06ZM0 2L0 3C0 3 1 3 1 3C2.24 3 2.879 3.446 3.404 4.19301C3.66 4.557 3.87 5 4.064 5.5C4.215 5.088 4.4 4.68 4.61 4.27301C4.4939 4.04687 4.3643 3.82841 4.221 3.619C3.56 2.68 2.51 2 1 2C1 2 0 2 0 2ZM6.21 8.45901C6.071 8.873 5.923 9.282 5.732 9.703C5.885 9.95301 6.052 10.193 6.244 10.418C7.044 11.358 8.26 12 10 12C10 12 11 12 11 12L11 14L16 11.5L11 9L11 11C11 11 10 11 10 11C8.5 11 7.643 10.517 7 9.77C6.7 9.4 6.435 8.951 6.211 8.46C6.211 8.46 6.21 8.46 6.21 8.46Z" transform="translate(0 1)"/>
</svg>