<?xml version="1.0" encoding="utf-8"?>
<svg width="16" height="16" viewBox="0 0 16 16" fill="gray" xmlns="http://www.w3.org/2000/svg">
<path d="M5 0L5 2C5 2 6 2 6 2C7.74 2 8.955 2.642 9.756 3.582C10.556 4.522 10.972 5.709 11.35 6.842C11.727 7.975 12.07 9.06 12.596 9.807C13.12 10.554 13.76 11 15 11C15 11 16 11 16 11L16 12C16 12 15 12 15 12C13.5 12 12.441 11.321 11.78 10.38C11.117 9.44 10.773 8.275 10.4 7.158C10.028 6.041 9.631 4.978 9 4.23C8.357 3.483 7.51 3 6 3C6 3 5 3 5 3L5 5L0 2.5L5 0L5 0ZM16 2L16 3C16 3 15 3 15 3C13.761 3 13.121 3.446 12.596 4.193C12.34 4.557 12.13 5 11.936 5.493C11.7793 5.07564 11.5972 4.66822 11.391 4.273C11.51 4.048 11.634 3.826 11.779 3.62C12.441 2.68 13.49 2 15 2C15 2 16 2 16 2ZM9.79 8.46C9.93 8.873 10.077 9.282 10.268 9.703C10.115 9.953 9.94798 10.193 9.756 10.418C8.956 11.358 7.74 12 6 12C6 12 5 12 5 12L4.998 14L0 11.5L5 9L5 11C5 11 6 11 6 11C7.51 11 8.35703 10.517 8.994 9.77C9.31 9.4 9.565 8.951 9.8 8.46C9.789 8.459 9.79 8.46 9.79 8.46Z" transform="translate(0 1)"/>
</svg>