<?xml version="1.0" encoding="utf-8"?>
<svg width="16" height="16.021" viewBox="0 0 16 16.021" fill="none" xmlns="http://www.w3.org/2000/svg">
<path d="M0 1.5C0 3.82394 1.744 5.72556 4 5.97279L4 7.979L2 7.979L2 9L7 9L7 7.979L5 7.979L5 5.97279C7.256 5.72556 9 3.82394 9 1.5L9 0L8 0L8 1.5C8 3.439 6.439 5 4.5 5C2.561 5 1 3.44 1 1.5L1 0L0 0L0 1.5L0 1.5Z" fill="#808080" transform="translate(3 7.021)"/>
<path d="M0 2.5C0 1.11929 1.11929 0 2.5 0C3.88 0 5 1.11929 5 2.5L5 8.5C5 9.88 3.88 11 2.5 11C1.1193 11 0 9.88 0 8.5L0 2.5Z" fill="#808080" fill-rule="evenodd" transform="translate(5 0)"/>
</svg>
