<?xml version="1.0" encoding="utf-8"?>
<svg width="16" height="16.021" viewBox="0 0 16 16.021" fill="none" xmlns="http://www.w3.org/2000/svg">
<path d="M4.02847 8.97153L3.18682 9.81318C3.06525 9.40419 3 8.9705 3 8.521L3 7.021L4 7.021L4 8.521C4 8.67371 4.00968 8.82408 4.02847 8.97153ZM5.30407 9.69593L4.56559 10.4344L3.84583 11.1542L0 15L1 16L4.84249 12.1575C5.45993 12.6086 6.19758 12.9059 7 12.9938L7 15L5 15L5 16.021L10 16.021L10 15L8 15L8 12.9938C10.256 12.7466 12 10.8449 12 8.521L12 7.021L11 7.021L11 8.521C11 10.46 9.439 12.021 7.5 12.021C6.78187 12.021 6.11559 11.8069 5.56126 11.4387L6.30407 10.6959C6.65931 10.8898 7.06679 11 7.5 11C8.88071 11 10 9.88071 10 8.5L10 7L16 1L15 0L10 5L9 6L6.06427 8.93573L5.30407 9.69593L5.30407 9.69593ZM6 7L5 8L5 2.5C5 1.11929 6.11929 0 7.5 0C8.88071 0 10 1.11929 10 2.5L10 3L9 4L9 2.5C9 1.67157 8.32843 1 7.5 1C6.67157 1 6 1.67157 6 2.5L6 7ZM7.5 10C7.34846 10 7.20216 9.97753 7.06427 9.93573L9 8L9 8.5C9 9.32843 8.32843 10 7.5 10Z" fill="#808080" fill-rule="evenodd"/>
</svg>
