<?xml version="1.0" encoding="utf-8"?>
<svg width="16" height="16.021" viewBox="0 0 16 16.021" fill="none" xmlns="http://www.w3.org/2000/svg">
<path d="M0 1.5C0 3.82394 1.74402 5.72556 4 5.97279L4 7.979L2 7.979L2 9L7 9L7 7.979L5 7.979L5 5.97279C7.25597 5.72556 9 3.82394 9 1.5L9 0L8 0L8 1.5C8 3.439 6.439 5 4.5 5C2.561 5 1 3.439 1 1.5L1 0L0 0L0 1.5L0 1.5Z" fill="#808080" transform="translate(3 7.021)"/>
<path d="M2.5 0C1.11929 0 0 1.11929 0 2.5L0 8.5C0 9.88071 1.11929 11 2.5 11C3.88071 11 5 9.88071 5 8.5L5 2.5C5 1.11929 3.88071 0 2.5 0L2.5 0ZM4 2.5C4 1.67157 3.32843 1 2.5 1C1.67157 1 1 1.67157 1 2.5L1 7L4 7L4 2.5Z" fill="#808080" fill-rule="evenodd" transform="translate(5 0)"/>
</svg>
