<?xml version="1.0" encoding="utf-8"?>
<svg width="16.003" height="16" viewBox="0 0 16.003 16" fill="#808080" xmlns="http://www.w3.org/2000/svg">
<path d="M5 0L5 4L7 4L7 6L2 6L2 9L0 9L0 13L5 13L5 9L3 9L3 7L12 7L12 9L13 9L13 6L8 6L8 4L10 4L10 0L5 0L5 0ZM6 1L9 1L9 3L6 3L6 1L6 1ZM4 10L1 10L1 12L4 12L4 10L4 10Z" fill-rule="evenodd" transform="translate(0 1)" opacity="0.5"/>
<path d="M1 0L0 0L0 1L1.5 2.5L0 4L0 5L1 5L2.5 3.5L4 5L5 5L5 4L3.5 2.5L5 1L5 0L4 0L2.5 1.5L1 0L1 0Z" transform="translate(11 11)"/>
</svg>