<?xml version="1.0" encoding="utf-8"?>
<svg width="16" height="16" viewBox="0 0 16 16" fill="none" xmlns="http://www.w3.org/2000/svg">
<path d="M2.01539 13L0.0153885 15L1.01539 16L6.01539 11L6.01539 13L7.01539 13L7.01539 10.4832C7.50237 10.4482 7.88506 10.3587 8.16344 10.2146C8.53098 10.0243 8.8554 9.75329 9.13671 9.40165C9.41802 9.05002 9.63479 8.64449 9.78703 8.18506C9.91288 7.80526 9.9867 7.41253 10.0085 7.00686L11.0154 6L11.0154 13L12.0154 13L12.0154 5.64754L13.2191 8.65683L14.9564 13L16.0154 13L16.0154 3L15.0154 3L15.0154 10.3525L13.7822 7.26957L12.629 4.38641L16.0154 1L15.0154 0L12.0154 3L11.0154 4L9.76507 5.25032L8.9412 6.07419L7.01539 8L6.01539 9L3.28462 11.7308L2.01539 13L2.01539 13ZM6.01539 7L7.01539 6L7.01539 4.25C7.28061 4.25 7.53573 4.31343 7.78075 4.4403C7.94756 4.52667 8.10105 4.63796 8.24122 4.77417L9.03664 3.97875C8.77923 3.68468 8.48817 3.45359 8.16344 3.28545C7.7959 3.09515 7.41322 3 7.01539 3L6.01539 3L6.01539 7ZM3.78462 9.23077L1.66923 11.3462L0 3L1.03078 3L2.51539 10.4231L4 3L5.03078 3L3.78462 9.23077Z" fill="#808080" transform="translate(0 0)"/>
</svg>