<?xml version="1.0" encoding="utf-8"?>
<svg width="16" height="16" viewBox="0 0 16 16" fill="gray" xmlns="http://www.w3.org/2000/svg">
<circle r="2" transform="translate(8 13)"/>
<path d="M0 4C0 1.8 1.8 0 4 0C6.2 0 8 1.8 8 4C8 5.9 6.7 7.43 5 7.9L5 9L3 9L3 6L4 6C5.1 6 6 5.1 6 4C6 2.9 5.1 2 4 2C2.9 2 2 2.9 2 4Z" transform="translate(4 1)"/>
<g transform="rotate(315 8 13)" opacity="50%">
<path d="M0 0C6 0 11 5 11 11L10 11C10 5.5 5.5 1 0 1Z" transform="translate(8 2)"/>
<path d="M0 0C4.5 0 8 3.5 8 8L7 8C7 4 4 1 0 1Z" transform="translate(8 5)"/>
<path d="M0 0C2.75 0 5 2.25 5 5L4 5C4 2.8 2.2 1 0 1Z" transform="translate(8 8)"/>
</g></svg>
