<?xml version="1.0" encoding="utf-8"?>
<svg width="16.003" height="16" viewBox="0 0 16.003 16" fill="#808080" xmlns="http://www.w3.org/2000/svg">
<path d="M5 0L5 4L7 4L7 6L2 6L2 9L0 9L0 13L5 13L5 9L3 9L3 7L12 7L12 9L10 9L10 13L15 13L15 9L13 9L13 6L8 6L8 4L10 4L10 0L5 0L5 0ZM6 1L9 1L9 3L6 3L6 1L6 1ZM4 10L1 10L1 12L4 12L4 10L4 10ZM11 10L14 10L14 12L11 12L11 10L11 10Z" fill-rule="evenodd" transform="translate(0 1)" opacity="0.5"/>
<g id="?" transform="translate(4 1)">
<path d="M0 1.5C0 0.671573 0.671573 0 1.5 0C2.32843 0 3 0.671573 3 1.5C3 2.32843 2.32843 3 1.5 3C0.671573 3 0 2.32843 0 1.5Z" transform="translate(2.5 11.5)"/>
<path d="M0 4C0 1.79086 1.79086 0 4 0C6.20914 0 8 1.79086 8 4C8 5.86384 6.72522 7.42994 5 7.87399L5 10L3 10L3 6L4 6C5.10458 6 6 5.10457 6 4C6 2.89543 5.10458 2 4 2C2.89542 2 2 2.89543 2 4L0 4Z"/>
</g></svg>