<?xml version="1.0" encoding="utf-8"?>
<svg width="16" height="16" viewBox="0 0 16 16" fill="none" xmlns="http://www.w3.org/2000/svg">
<g fill="#808080" opacity="0.5">
<path d="M0 0L0 10L1 10L1 2.64754L2.20371 5.65683L3.94098 10L5 10L5 0L4 0L4 7.35246L2.76685 4.26957L1.05902 0L0 0L0 0Z" transform="translate(11 3)"/>
<path d="M1 10L1 7.4832C1.48699 7.44824 1.86967 7.35869 2.14805 7.21455C2.51559 7.02425 2.84001 6.75329 3.12132 6.40165C3.40263 6.05002 3.6194 5.64449 3.77164 5.18506C3.92388 4.72563 4 4.24728 4 3.75C4 3.25272 3.92388 2.77436 3.77164 2.31494C3.61939 1.8555 3.40262 1.44997 3.12132 1.09835C2.84002 0.746719 2.51559 0.475754 2.14805 0.285452C1.78051 0.0951505 1.39783 0 1 0L0 0L0 10L1 10L1 10ZM1 6.25C1.26522 6.25 1.52034 6.18657 1.76537 6.0597C2.01039 5.93284 2.22668 5.75219 2.41422 5.51777C2.60175 5.28335 2.74627 5.01299 2.84776 4.70671C2.94925 4.40042 3 4.08152 3 3.75C3 3.41848 2.94925 3.09958 2.84776 2.79329C2.74626 2.487 2.60175 2.21665 2.41422 1.98223C2.22668 1.74781 2.0104 1.56717 1.76537 1.4403C1.52034 1.31343 1.26522 1.25 1 1.25L1 6.25L1 6.25Z" fill-rule="evenodd" transform="translate(6 3)"/>
<path d="M0 0L2 10L3.03078 10L5.03078 0L4 0L2.51539 7.42306L1.03078 0L0 0L0 0Z" transform="translate(-0.015 3)"/>
</g></svg>