<?xml version="1.0" encoding="utf-8"?>
<svg width="16" height="16" viewBox="0 0 16 16" fill="gray" xmlns="http://www.w3.org/2000/svg">
<defs>
<clipPath id="triangles">
<path d="M0 0L0 13L13 0ZM0 16L16 0L16 16Z"/>
</clipPath>
</defs>
<g clip-path="url(#triangles)">
<circle r="2" cx="8" cy="13"/>
<g transform="rotate(315 8 13)">
<path d="M0 0C6 0 11 5 11 11L10 11C10 5.5 5.5 1 0 1Z" transform="translate(8 2)"/>
<path d="M0 0C4.5 0 8 3.5 8 8L7 8C7 4 4 1 0 1Z" transform="translate(8 5)"/>
<path d="M0 0C2.75 0 5 2.25 5 5L4 5C4 2.8 2.2 1 0 1Z" transform="translate(8 8)"/>
</g></g>
<path d="M0 15L15 0L16 1L1 16Z"/>
</svg>
