<?xml version="1.0" encoding="utf-8"?>
<svg width="16" height="16" viewBox="0 0 16 16" fill="gray" xmlns="http://www.w3.org/2000/svg">
<circle r="2" transform="translate(8 13)"/>
<g transform="translate(0.22 2)">
<path d="M7.07107 1.4645C5.11845 -0.488156 1.95262 -0.488156 0 1.4645L0.707107 2.17158C2.26921 0.609477 4.80186 0.6095 6.36396 2.17158L7.07107 1.46447Z" transform="translate(4.243 6)"/>
<path d="M11.3137 2.34315C8.18951 -0.78105 3.1242 -0.78105 0 2.34315L0.707107 3.05025C3.44078 0.316582 7.87293 0.316582 10.6066 3.05025L11.3137 2.34315Z" transform="translate(2.121 3)"/>
<path d="M15.5564 3.22183C11.2606 -1.074 4.29577 -1.074 0 3.22183L0.707112 3.929C4.61236 0.0237 10.944 0.0237 14.85 3.929L15.5564 3.22183Z" opacity="0.5"/>
</g></svg>