<?xml version="1.0" encoding="utf-8"?>
<svg width="16" height="16" viewBox="0 0 16 16" fill="gray" xmlns="http://www.w3.org/2000/svg">
<circle r="2" transform="translate(8 13)"/>
<path d="M0 15L1 16L8 9C9.02308 9 10.046 9.391 10.8266 10.1716L11.5337 9.46447C10.7918 8.72254 9.87472 8.26252 8.9156 8.08441L10.5285 6.47147C11.4101 6.8126 12.2365 7.33887 12.9479 8.05026L13.655 7.34316C12.9512 6.63938 12.149 6.09414 11.2926 5.70744L12.7836 4.2164C13.604 4.66382 14.3749 5.23467 15.0692 5.92894L15.7763 5.22183C15.0852 4.53071 14.325 3.95079 13.518 3.48205L16 1L15 0L12.178 2.822L11.4045 3.59552L8.93711 6.06289L6.87227 8.12773L4.99909 10L0 15ZM9.83146 3.16854L10.6718 2.32817C7.04788 1.42389 3.05336 2.38844 0.219971 5.22183L0.927083 5.92894C3.3481 3.50793 6.70162 2.5878 9.83146 3.16854ZM6.91639 6.08361L8 5C5.952 5 3.90387 5.78 2.34131 7.34316L3.04842 8.05026C4.13924 6.95944 5.5 6.30389 6.91639 6.08361Z" fill-rule="evenodd"/>
</svg>