<?xml version="1.0" encoding="utf-8"?>
<svg width="16" height="16" viewBox="0 0 16 16" fill="gray" xmlns="http://www.w3.org/2000/svg">
<g transform="translate(8 13) rotate(225)" opacity="50%">
<path d="M0 11C6 11 11 6 11 0L10 0C10 5.5 5.5 10 0 10Z"/>
<path d="M0 8C4.5 8 8 4.5 8 0L7 0C7 4 4 7 0 7Z"/>
<path d="M0 5C2.8 5 5 2.8 5 0L4 0C4 2.2 2.2 4 0 4Z"/>
</g><circle r="2" cx="8" cy="13"/>
<path d="M0 4C0 1.8 1.8 0 4 0C6.2 0 8 1.8 8 4C8 5.9 6.7 7.43 5 7.9L5 9L3 9L3 6L4 6C5.1 6 6 5.1 6 4C6 2.9 5.1 2 4 2C2.9 2 2 2.9 2 4Z" transform="translate(4 1)"/>
</svg>
