<?xml version="1.0" encoding="utf-8"?>
<svg width="16" height="16" viewBox="0 0 16 16" fill="gray" xmlns="http://www.w3.org/2000/svg">
<g opacity="0.5">
<path d="M0 0L0 10L1 10L1 2.64754L2.2037 5.65683L3.941 10L5 10L5 0L4 0L4 7.35246L2.76685 4.26957L1.06 0L0 0L0 0Z" transform="translate(11 3)"/>
<path d="M1 10L1 7.4832C1.487 7.44824 1.87 7.3587 2.148 7.21455C2.5156 7.02425 2.8 6.7533 3.12132 6.40165C3.40263 6.05 3.62 5.6445 3.77164 5.185C3.92388 4.72563 4 4.24728 4 3.75C4 3.25272 3.92388 2.77436 3.77164 2.315C3.62 1.8555 3.40262 1.45 3.12132 1.1C2.84 0.74672 2.5156 0.475754 2.148 0.285452C1.78 0.09515 1.39783 0 1 0L0 0L0 10L1 10L1 10ZM1 6.25C1.26522 6.25 1.52034 6.18657 1.76537 6.06C2 5.93284 2.22668 5.7522 2.41422 5.51777C2.60175 5.28335 2.74627 5.013 2.84776 4.7067C2.95 4.4 3 4.08152 3 3.75C3 3.41848 2.95 3.1 2.84776 2.7933C2.74626 2.487 2.6 2.21665 2.41422 1.98223C2.22668 1.74781 2 1.56717 1.76537 1.44C1.52 1.31343 1.26522 1.25 1 1.25L1 6.25L1 6.25Z" fill-rule="evenodd" transform="translate(6 3)"/>
<path d="M0 0L2 10L3.03078 10L5.03078 0L4 0L2.5154 7.42306L1.03078 0L0 0L0 0Z" transform="translate(-0.015 3)"/>
</g><g id="dots" transform="translate(0 8)">
<circle r="2" transform="translate(2 0)"/>
<circle r="2" transform="translate(8 0)"/>
<circle r="2" transform="translate(14 0)"/>
</g></svg>