<?xml version="1.0" encoding="utf-8"?>
<svg width="16" height="16" viewBox="0 0 16 16" fill="gray" xmlns="http://www.w3.org/2000/svg">
<path d="M2 0C2.36429 0 2.70583 0.0974 3 0.267565L3 3.73244C2.70583 3.90261 2.3643 4 2 4C0.89543 4 0 3.10457 0 2C0 0.89543 0.89543 0 2 0L2 0Z" transform="translate(6 11)"/>
<g transform="translate(0.22 2)">
<path d="M0 1.46447C1.69723 -0.232767 4.31107 -0.454753 6.24807 0.79851C6.02706 1.034 5.8576 1.32152 5.73968 1.66113C4.18677 0.63365 2.07488 0.8038 0.707107 2.1716L0 1.4645L0 1.4645Z" transform="translate(4.243 6)"/>
<path d="M11.3137 2.34315C8.18951 -0.781049 3.1242 -0.78105 0 2.34315L0.707107 3.05025C3.44078 0.316582 7.87293 0.316582 10.6066 3.05025L11.3137 2.34315Z" transform="translate(2.121 3)"/>
<path d="M15.5564 3.22183C11.2606 -1.074 4.29577 -1.074 0 3.22183L0.707112 3.929C4.61236 0.0237 10.944 0.0237 14.85 3.929L15.5564 3.22183Z"/>
</g><path id="lock" d="M3 0C1.892 0 1 0.91 1 2.03C1 2.03 1 3 1 3L0 3L0 7L6 7L6 3L5 3C5 3 5 2.03 5 2.03C5 0.91 4.1 0 3 0C3 0 3 0 3 0ZM3 1C3.55 1 4 1.44 4 2C4 2 4 3 4 3L2 3C2 3 2 2 2 2C2 1.44 2.45 1 3 1C3 1 3 1 3 1Z" transform="translate(10 9)"/>
</svg>