<svg viewBox="0 0 16 16" xmlns="http://www.w3.org/2000/svg">
<path d="M5 0L5 4L7 4L7 6L2 6L2 9L0 9L0 13L5 13L5 9L3 9L3 7L12 7L12 9L13 9L13 6L8 6L8 4L10 4L10 0L5 0L5 0ZM6 1L9 1L9 3L6 3L6 1L6 1ZM4 10L1 10L1 12L4 12L4 10L4 10Z" fill="#808080" fill-rule="evenodd" transform="translate(0 1)" opacity="0.5"/>
<path class="error" d="M0 3.5C0 1.567 1.567 0 3.5 0C5.433 0 7 1.567 7 3.5C7 5.433 5.433 7 3.5 7C1.567 7 0 5.433 0 3.5L0 3.5ZM4 1L4 4L3 4L3 1L4 1L4 1ZM4 6L4 5L3 5L3 6L4 6L4 6Z" fill="#F22C42" fill-rule="evenodd" transform="translate(9 9)"/>
</svg>
