<?xml version="1.0" encoding="utf-8"?>
<svg width="16" height="16" viewBox="0 0 16 16" fill="gray" xmlns="http://www.w3.org/2000/svg">
<defs>
<clipPath id="lock">
<path d="M0 0L16 0L16 11C16 9.3 14.7 8 13 8C11.3 8 10 9.3 10 11L9 11L9 16L0 16Z"/>
</clipPath>
</defs>
<g clip-path="url(#lock)">
<circle r="2" cx="8" cy="13"/>
<g transform="translate(8 13) rotate(225)" opacity="50%">
<path d="M0 11C6 11 11 6 11 0L10 0C10 5.5 5.5 10 0 10Z"/>
<path d="M0 8C4.5 8 8 4.5 8 0L7 0C7 4 4 7 0 7Z"/>
<path d="M0 5C2.8 5 5 2.8 5 0L4 0C4 2.2 2.2 4 0 4Z"/>
</g></g>
<path d="M3 0C1.9 0 1 0.9 1 2L1 3L0 3L0 7L6 7L6 3L5 3L5 2C5 0.9 4.1 0 3 0ZM3 1C3.55 1 4 1.45 4 2L4 3L2 3L2 2C2 1.45 2.45 1 3 1Z" transform="translate(10 9)"/>
</svg>
