<?xml version="1.0" encoding="utf-8"?>
<svg width="16" height="16" viewBox="0 0 16 16" fill="gray" xmlns="http://www.w3.org/2000/svg">
<g opacity="50%"><circle r="2" cx="8" cy="13"/>
<g transform="translate(8 13) rotate(225)">
<path d="M0 11C6 11 11 6 11 0L10 0C10 5.5 5.5 10 0 10Z"/>
<path d="M0 8C4.5 8 8 4.5 8 0L7 0C7 4 4 7 0 7Z"/>
<path d="M0 5C2.8 5 5 2.8 5 0L4 0C4 2.2 2.2 4 0 4Z"/>
</g></g>
<path d="M0 0L0 1L1.5 2.5L0 4L0 5L1 5L2.5 3.5L4 5L5 5L5 4L3.5 2.5L5 1L5 0L4 0L2.5 1.5L1 0Z" transform="translate(11 11)"/>
</svg>
