<?xml version="1.0" encoding="utf-8"?>
<svg width="16" height="16" viewBox="0 0 16 16" fill="none" xmlns="http://www.w3.org/2000/svg">
<path d="M13.879 0L0 13.879L0.70703 14.586C0.70703 14.586 4.14063 11.1544 4.14063 11.1544C4.94514 11.6786 5.88356 11.96 6.84373 11.965C8.6666 11.9554 10.3398 10.9544 11.2104 9.35274C12.0809 7.75109 12.0108 5.8026 11.0273 4.26768C11.0273 4.26768 14.586 0.70718 14.5859 0.70718L13.8789 0L13.88 0ZM6.8437 1.96488C5.01054 1.97321 3.32891 2.98405 2.46153 4.59904C1.59414 6.21403 1.68 8.1742 2.6855 9.70708C2.6855 9.70708 3.47066 8.92192 3.47066 8.92192C2.84293 7.84604 2.74092 6.54237 3.19368 5.38194C3.64643 4.22152 4.60437 3.3314 5.79486 2.96492C5.0645 3.85712 4.80727 5.046 5.10345 6.16022C5.18096 6.4388 5.2918 6.70702 5.43353 6.96C5.43353 6.96 9.59173 2.8 9.59173 2.8C8.77721 2.25944 7.82178 1.96879 6.84373 1.96491C6.84373 1.96491 6.8437 1.96488 6.8437 1.96488ZM10.8437 8.01178C10.4485 9.38622 9.36316 10.4538 7.9824 10.8263C6.942 11.084 5.84187 10.922 4.9199 10.3751C4.92 10.3751 6.91 8.38491 6.91 8.38491C7.70471 8.81304 8.63127 8.92668 9.5058 8.70327C10 8.57027 10.4517 8.33286 10.8437 8.01186C10.8437 8.01186 10.8437 8.01178 10.8437 8.01178Z" fill="#808080" transform="translate(1.156 1.035)"/>
<g fill="#808080">
<circle r="1" transform="translate(8 1)"/>
<circle r="1" transform="translate(3 3)"/>
<circle r="1" transform="translate(13 13)"/>
<circle r="1" transform="translate(8 15)"/>
<circle r="1" transform="translate(1 8)"/>
<circle r="1" transform="translate(15 8)"/>
</g></svg>
