<?xml version="1.0" encoding="utf-8"?>
<svg width="16" height="16" viewBox="0 0 16 16" fill="gray" xmlns="http://www.w3.org/2000/svg">
<path d="M5 0C2.23858 0 0 2.23858 0 5C4.76837e-07 7.76142 2.23858 10 5 10C7.76142 10 10 7.76142 10 5C10 2.23858 7.76142 0 5 0C5 0 5 0 5 0ZM3.951 1C3.22088 1.8922 2.96381 3.08083 3.26 4.195C3.774 6.11235 5.7443 7.25061 7.662 6.738C8.152 6.605 8.608 6.368 9 6.047C8.60471 7.42117 7.51953 8.48853 6.139 8.861C4 9.406 1.79883 8.13543 1.20433 6C0.609818 3.86358 1.82938 1.64372 3.951 1C3.951 1 3.951 1 3.951 1Z" transform="translate(3 3)"/>
<g id="dots">
<circle r="1" transform="translate(8 1)"/>
<circle r="1" transform="translate(3 3)"/>
<circle r="1" transform="translate(13 3)"/>
<circle r="1" transform="translate(3 13)"/>
<circle r="1" transform="translate(13 13)"/>
<circle r="1" transform="translate(8 15)"/>
<circle r="1" transform="translate(1 8)"/>
<circle r="1" transform="translate(15 8)"/>
</g></svg>