<?xml version="1.0" encoding="utf-8"?>
<svg width="16" height="16" viewBox="0 0 16 16" fill="none" xmlns="http://www.w3.org/2000/svg">
<path d="M4 0C4 1.10457 3.10457 2 2 2C0.895431 2 0 1.10457 0 0L4 0Z" fill="#808080" fill-rule="evenodd" transform="translate(6 14)"/>
<path d="M4 9L3 10L3 6C3 3.57933 4.72021 1.56043 7 1.09904C7 1.06646 7 1 7 1C7 0.447716 7.44772 0 8 0C8.55228 0 9 0.447716 9 1C9 1.03342 9 1.06646 9 1.09904C9.73598 1.24865 10.4175 1.56204 11 2L10.2841 2.71586C9.63653 2.26461 8.84916 2 8 2C5.79086 2 4 3.79086 4 6L4 9ZM3 12L0 15L1 16L4 13L15 13L15 12L13 10L13 6C13 5.40215 12.8951 4.8288 12.7026 4.29737L16 1L15 0L12 3L11.2841 3.71586L3 12ZM13.5 12L5 12L11.8987 5.10135C11.965 5.39021 12 5.69101 12 6L12 10.5L13.5 12Z" fill="#808080" fill-rule="evenodd"/>
</svg>
