<?xml version="1.0" encoding="utf-8"?>
<svg width="16" height="16" viewBox="0 0 16 16" fill="gray" xmlns="http://www.w3.org/2000/svg">
<defs><clipPath id="triangles">
<path d="M0 14L0 0L14 0ZM16 0L16 16L0 16Z"/>
</clipPath></defs>
<g clip-path="url(#triangles)">
<path d="M3 13L3 6C3 3.25 5.25 1 8 1C10.75 1 13 3.25 13 6L13 10L15 12L15 13ZM13.5 12L12 10.5L12 6C12 3.8 10.2 2 8 2C5.8 2 4 3.8 4 6L4 12ZM10 14C10 15.1 9.1 16 8 16C6.9 16 6 15.1 6 14Z"/>
<circle r="1" cx="8" cy="1"/>
</g><rect width="1" height="24" x="7.5" y="-4" transform="rotate(45 8 8)"/>
</svg>
