<?xml version="1.0" encoding="utf-8"?>
<svg width="16" height="16" viewBox="0 0 16 16" fill="gray" xmlns="http://www.w3.org/2000/svg"><g opacity="0.5">
<path d="M4 0C4 1.1 3.1 2 2 2C0.9 2 0 1.1 0 0L4 0Z" transform="translate(6 14)"/>
<path d="M7 0C4.24 0 2 2.2386 2 5L2 9L0 11L0 12L14 12L14 11L12 9L12 5.83C11.6872 5.94 11.35 6 11 6L11 9.5L12.5 11L1.5 11L3 9.5L3 5C3 2.8 4.8 1 7 1C7.54 1 8.05456 1.10816 8.52516 1.304C8.72766 1 8.9815 0.752 9.274 0.546C8.592 0.197 7.81865 0 7 0Z" fill-rule="evenodd" transform="translate(1 1)"/>
<circle r="1" cx="8" cy="1"/></g>
<circle class="suggested" r="2" fill="#438DE6" transform="translate(12 4)"/>
</svg>
