<svg viewBox="0 0 16 16" xmlns="http://www.w3.org/2000/svg">
<path d="M3 0L13 0L13 3L13.5 3C14.8809 3 16 4.1191 16 5.5L16 7.9895L15 7.9895L15 5.5C15 5.08569 14.8536 4.73212 14.5608 4.43927C14.268 4.14642 13.9144 4 13.5 4L2.5 4C2.08572 4 1.73215 4.14643 1.4393 4.43928C1.14645 4.73212 1 5.0857 1 5.5L1 10.5C1 10.9144 1.14645 11.2679 1.4393 11.5608C1.73216 11.8536 2.08574 12 2.5 12L3 12L3 9L8 9L8 10L4 10L4 15L8 15L8 15.9895L13 15.9895L13 16L3 16L3 13L2.5 13C1.11913 13 3.05176e-05 11.8809 3.05176e-05 10.5L0 5.5C0 4.11909 1.11909 3 2.5 3L3 3L3 0L3 0ZM4 2.9895L12 2.9895L12 0.9895L4 0.9895L4 2.9895L4 2.9895ZM11 5L11 6L13 6L13 5L11 5L11 5ZM5 11L8 11L8 12L5 12L5 11L5 11ZM5 13L8 13L8 14L5 14L5 13L5 13Z" fill="gray" fill-rule="evenodd"/>
<path class="warning" d="M12.48 9.729a.442.442 0 0 0-.36.22l-3.061 5.397a.437.437 0 0 0 .379.654h6.125a.437.437 0 0 0 .378-.654l-3.058-5.397a.442.442 0 0 0-.403-.22zM12 11h1v.168c0 .349-.016.667-.047.957-.03.29-.069.581-.115.875h-.666a13.156 13.156 0 0 1-.125-.875 9.148 9.148 0 0 1-.047-.957zm.5 3a.5.5 0 1 1 0 1 .5.5 0 0 1 0-1z" fill="#ff7800" fill-rule="evenodd" font-family="sans-serif" font-weight="400" overflow="visible" style="isolation:auto;mix-blend-mode:normal;text-decoration-color:#000;text-decoration-line:none;text-decoration-style:solid;text-indent:0;text-transform:none" white-space="normal"/>
</svg>
