<?xml version="1.0" encoding="utf-8"?>
<svg width="16" height="16" viewBox="0 0 16 16" fill="none" xmlns="http://www.w3.org/2000/svg">
<path d="M3 0L13 0L13 3L13.5 3C14.8809 3 16 4.1191 16 5.5L16 7.9895L15 7.9895L15 5.5C15 5.08569 14.8536 4.73212 14.5608 4.43927C14.268 4.14642 13.9144 4 13.5 4L2.5 4C2.08572 4 1.73215 4.14643 1.4393 4.43928C1.14645 4.73212 1 5.0857 1 5.5L1 10.5C1 10.9144 1.14645 11.2679 1.4393 11.5608C1.73216 11.8536 2.08574 12 2.5 12L3 12L3 9L8 9L8 10L4 10L4 15L8 15L8 15.9895L13 15.9895L13 16L3 16L3 13L2.5 13C1.11913 13 3.05176e-05 11.8809 3.05176e-05 10.5L0 5.5C0 4.11909 1.11909 3 2.5 3L3 3L3 0L3 0ZM4 2.9895L12 2.9895L12 0.9895L4 0.9895L4 2.9895L4 2.9895ZM11 5L11 6L13 6L13 5L11 5L11 5ZM5 11L8 11L8 12L5 12L5 11L5 11ZM5 13L8 13L8 14L5 14L5 13L5 13Z" fill="gray" fill-rule="evenodd"/>
<path class="error" d="M0 3.5C0 1.567 1.567 0 3.5 0C5.433 0 7 1.567 7 3.5C7 5.433 5.433 7 3.5 7C1.567 7 0 5.433 0 3.5L0 3.5ZM4 1L4 4L3 4L3 1L4 1L4 1ZM4 6L4 5L3 5L3 6L4 6L4 6Z" fill="#F22C42" fill-rule="evenodd" transform="translate(9 9)"/>
</svg>
