<?xml version="1.0" encoding="utf-8"?>
<svg width="16" height="16" viewBox="0 0 16 16" xmlns="http://www.w3.org/2000/svg">
<path d="M15.7032 3.52071L10.0392 13.788C9.83278 14.1622 9.5471 14.4577 9.18214 14.6746C8.81718 14.8915 8.42313 15 8 15C7.57687 15 7.18282 14.8915 6.81786 14.6746C6.45291 14.4577 6.16722 14.1622 5.96081 13.788L0.296814 3.52071C0.0946732 3.1543 0 2.76122 0 2.3415C0 1.92177 0.111511 1.531 0.3212 1.16885C0.530891 0.806814 0.815521 0.521497 1.1751 0.312904C1.53467 0.1043 1.92164 0 2.336 0L13.664 0C14.0784 0 14.4653 0.104301 14.8249 0.313C15.1845 0.5215 15.4691 0.806816 15.6788 1.16885C15.8885 1.53089 16 1.92177 16 2.3415C16 2.76122 15.9053 3.1543 15.7032 3.52071L15.7032 3.52071ZM6.84678 13.3118L6.2441 12.2148L10.218 5.35078C10.2986 5.21158 10.3389 5.06156 10.3391 4.9C10.3392 4.73986 10.3 4.6 10.2188 4.45042C10.1384 4.31107 10.0286 4.20116 9.88936 4.1207C9.75 4.04023 9.6 4 9.44 4L1.731 4L1.18115 3C0.935104 2.55141 0.94 2.10623 1.195 1.66374C1.4502 1.22124 1.83 1 2.33437 1L13.6656 1C14.17 1 14.55 1.22124 14.8051 1.66374C15.0603 2.10623 15.065 2.55141 14.8188 3L9.15322 13.3118C8.90115 13.7706 8.51674 14 8 14C7.48326 14 7.09885 13.7706 6.84678 13.3118L6.84678 13.3118ZM9.26556 5L5.68147 11.1907L2.28035 5L9.26556 5L9.26556 5Z" fill="gray" fill-rule="evenodd"/>
</svg>
