<?xml version="1.0" encoding="utf-8"?>
<svg width="16" height="16" viewBox="0 0 16 16" fill="gray" xmlns="http://www.w3.org/2000/svg">
<rect id="base" width="6" height="2" transform="translate(5 14)"/>
<path id="screen" d="M14 0C15.1047 0 16 0.895281 16 2L16 10C16 11.1047 15.1047 12 14 12L2 12C0.89528 12 0 11.1047 0 10L0 2C0 0.895281 0.89528 0 2 0L14 0ZM14 1C14.5524 1 15 1.44764 15 2L15 10C15 10.5524 14.5524 11 14 11L2 11C1.44764 11 1 10.5524 1 10L1 2C1 1.44764 1.44764 1 2 1L14 1Z" fill-rule="evenodd" transform="translate(0 1)"/>
<path id="arrow" d="M4 0L7 3L4 6L4 4C1.792 4 0 4.89456 0 6C0 3.79 1.79138 2 4 2L4 0L4 0Z" transform="translate(5 4)"/>
</svg>
