<?xml version="1.0" encoding="utf-8"?>
<svg width="16" height="16" viewBox="0 0 16 16" fill="#FF7800" xmlns="http://www.w3.org/2000/svg">
<path class="warning" d="M10.5 2L8.5 0L7.5 0L5.5 2L2.7 2L2 2.7L2 5.5L0 7.5L3.05176e-05 8.5L2 10.5L2 13.3L2.7 14L5.5 14L7.5 16L8.5 16L10.5 14L13.3 14L14 13.3L14 10.5L16 8.5L16 7.5L14 5.5L14 2.7L13.3 2L10.5 2L10.5 2ZM7 4L9 4L9 9L7 9L7 4L7 4ZM9.25 11C9.25 10.3125 8.68754 9.75 8 9.75C7.31254 9.75 6.75 10.3125 6.75 11C6.75 11.6875 7.3125 12.25 8 12.25C8.6875 12.25 9.25 11.6875 9.25 11L9.25 11Z" fill-rule="evenodd" transform="translate(-0 -0)"/>
</svg>
