<?xml version="1.0" encoding="utf-8"?>
<svg width="16" height="16" viewBox="0 0 16 16" fill="gray" xmlns="http://www.w3.org/2000/svg">
<path d="M11 13L14 13C15 13 16 12 16 11L16 2C16 1 15 0 14 0L2 0C1 0 0 1 0 2L0 11C6.6e-7 12 1 13 2 13L5 13L8 16L11 13L11 13L11 13ZM8 14.6L10.6 12L14 12C14.5 12 15 11.5 15 11L15 2C15 1.5 14.5 1 14 1L2 1C1.5 1 1 1.5 1 2L1 11C1 11.5 1.5 12 2 12L5.4 12L8 14.6L8 14.6Z" fill-rule="evenodd"/>
<path d="M5.35 0L4.65 0.7L6.8 2.85L0 2.85L0 3.85L6.8 3.85L4.65 6L5.35 6.7L8.7 3.35Z" transform="translate(4 3.15)"/>
</svg>
