<?xml version="1.0" encoding="utf-8"?>
<svg width="16" height="16" viewBox="0 0 16 16" fill="none" xmlns="http://www.w3.org/2000/svg">
<g fill="#808080">
<path d="M0 8L0 0L3 0L3 6L4 6L4 0L5 0L5 6L6 6L6 0L7 0L7 6L8 6L8 0L11 0L11 8C11 9.10472 10.1047 10 9 10L2 10C0.895294 10 0 9.10472 0 8L0 8Z" transform="translate(2 6)"/>
<path d="M8 0C8.55237 0 9 0.44764 9 1L9 2L10 2C11.1047 2 12 2.89528 12 4L13 4L13 5L0 5L0 4L1 4C1 2.89528 1.89529 2 3 2L4 2L4 1C4 0.44764 4.44763 0 5 0L8 0L8 0ZM5 2L8 2L8 1L5 1L5 2L5 2Z" fill-rule="evenodd" transform="translate(1 0)"/>
</g></svg>
