<?xml version="1.0" encoding="utf-8"?>
<svg width="16" height="16" viewBox="0 0 16 16" fill="gray" xmlns="http://www.w3.org/2000/svg">
<path id="glasses" d="M4 6C2.34314 6 1 4.65685 1 3L0 3L0 2L1.17072 2C1.58258 0.834808 2.6938 0 4 0C5.30621 0 6.41742 0.834808 6.82929 2L8.17072 2C8.58258 0.834808 9.6938 0 11 0C12.3062 0 13.4174 0.834808 13.8293 2L15 2L15 3L14 3C14 4.65685 12.6569 6 11 6C9.34314 6 8 4.65685 8 3L7 3C7 4.65685 5.65686 6 4 6L4 6ZM4 1C2.89543 1 2 1.89543 2 3C2 4.10457 2.89543 5 4 5C5.10457 5 6 4.10457 6 3C6 1.89543 5.10457 1 4 1L4 1ZM9 3C9 1.89543 9.89543 1 11 1C12.1046 1 13 1.89543 13 3C13 4.10457 12.1046 5 11 5C9.89543 5 9 4.10457 9 3L9 3Z" fill-rule="evenodd" transform="translate(0 8)"/>
<path id="hat" d="M0 4L3 2.5L4 0L11 0L12 2.5L15 4L15 5L0 5L0 4Z" transform="translate(0 2)"/>
</svg>
