<?xml version="1.0" encoding="utf-8"?>
<svg width="16" height="16" viewBox="0 0 16 16" fill="gray" xmlns="http://www.w3.org/2000/svg">
<g id="soundwaves" transform="translate(10 1.29)">
<path d="M5 6.71012L4 6.71012C4 4.09768 2.33038 1.87521 0 1.05153L0 0C2.89149 0.860549 5 3.54011 5 6.71012Z" />
<path d="M2 3.46487L1 3.46487C1 2.57637 0.61375 1.77808 0 1.22876L0 0C1.1956 0.691618 2 1.98488 2 3.46487Z" transform="translate(0 3.245)"/>
</g>
<path id="speaker" d="M7 0L3 4C3 4 0 4 0 4C0 4 0 10 0 10C0 10 3 10 3 10L7 14L7 0Z" fill="gray" transform="translate(1 1)"/>
<path class="warning" d="M12.48 9.729a.442.442 0 0 0-.36.22l-3.061 5.397a.437.437 0 0 0 .379.654h6.125a.437.437 0 0 0 .378-.654l-3.058-5.397a.442.442 0 0 0-.403-.22zM12 11h1v.168c0 .349-.016.667-.047.957-.03.29-.069.581-.115.875h-.666a13.156 13.156 0 0 1-.125-.875 9.148 9.148 0 0 1-.047-.957zm.5 3a.5.5 0 1 1 0 1 .5.5 0 0 1 0-1z" fill="#ff7800" fill-rule="evenodd" font-family="sans-serif" font-weight="400" overflow="visible" style="isolation:auto;mix-blend-mode:normal;text-decoration-color:#000;text-decoration-line:none;text-decoration-style:solid;text-indent:0;text-transform:none" white-space="normal"/>
</svg>
