<?xml version="1.0" encoding="utf-8"?>
<svg width="16" height="16" viewBox="0 0 16 16" fill="none" xmlns="http://www.w3.org/2000/svg">
<path d="M0 16L1.06833 11.9948C0.367155 10.7791 -0.00115136 9.40012 0.000542498 7.99674C0 3.58728 3.59076 0 8 0C10.1401 0.00108728 12.1486 0.833814 13.6591 2.34542C15.1697 3.85703 16 5.86627 16 8C15.998 12.4123 12.4091 16.0002 8.00022 16.0002L7.99674 16C6.658 15.9997 5.34254 15.6638 4.17407 15.0267L0 16L0 16ZM6.06752 4.65355C5.91769 4.32074 5.76 4.314 5.61772 4.30824C5.61772 4.30824 5.23457 4.30357 5.23457 4.30357C5.10127 4.30357 4.88469 4.35358 4.7016 4.55363C4.51851 4.75369 4.00195 5.23719 4 6.22061C4.00195 7.20403 4.71824 8.15429 4.81804 8.2878C4.91785 8.42132 6.20081 10.5037 8.23256 11.3049C9.92095 11.9708 10.2645 11.8383 10.6311 11.8051C10.9978 11.7718 11.8138 11.3216 11.9802 10.8548C12.1467 10.388 12.1468 9.98815 12.0969 9.90454C12.047 9.82094 11.9137 9.77125 11.7136 9.67122C11.5136 9.57119 10.531 9.08769 10.3478 9.02094C10.1646 8.95418 10.0314 8.92102 9.89801 9.12107C9.76461 9.32113 9.382 9.77114 9.26534 9.90454C9.14868 10.038 9.03223 10.0547 8.83218 9.95478C8.63212 9.85486 8 9.64371 7.22479 8.96277C6.6306 8.43295 6.22952 7.77864 6.11274 7.5787C5.99597 7.37875 6.1 7.27046 6.20059 7.17087C6.29029 7.08128 6.40043 6.93743 6.50057 6.82077C6.6007 6.70411 6.63365 6.62072 6.70019 6.48753C6.76673 6.35434 6.73357 6.23735 6.68355 6.13743C6.63354 6.03752 6.24517 5.04899 6.06752 4.65366C6.06752 4.65366 6.06752 4.65355 6.06752 4.65355Z" fill="#808080" fill-rule="evenodd"/>
</svg>
