<?xml version="1.0" encoding="utf-8"?>
<svg width="128" height="128" viewBox="0 0 128 128" fill="none" xmlns="http://www.w3.org/2000/svg">
  <defs>
    <path id="path_1" d="M0 0L120 0L120 120L0 120L0 0Z" />
    <clipPath id="clip_path_2">
      <use p4:href="#path_1" xmlns:p4="http://www.w3.org/1999/xlink" />
    </clipPath>
    <path id="path_3" d="M120 60C120 93.1289 93.1289 120 60 120C26.8633 120 0 93.1289 0 60C0 26.8633 26.8633 0 60 0C93.1289 0 120 26.8633 120 60C120 60 120 60 120 60Z" />
    <clipPath id="clip_path_4">
      <use p4:href="#path_3" xmlns:p4="http://www.w3.org/1999/xlink" />
    </clipPath>
    <path id="path_5" d="M0 0L120 0L120 116L0 116L0 0Z" />
    <clipPath id="clip_path_6">
      <use p4:href="#path_5" xmlns:p4="http://www.w3.org/1999/xlink" />
    </clipPath>
    <path id="path_7" d="M0 0L56 0L56 71L0 71L0 0Z" />
    <clipPath id="clip_path_8">
      <use p4:href="#path_7" xmlns:p4="http://www.w3.org/1999/xlink" />
    </clipPath>
    <path id="path_9" d="M0 0L12 0L12 19L0 19L0 0Z" />
    <clipPath id="clip_path_10">
      <use p4:href="#path_9" xmlns:p4="http://www.w3.org/1999/xlink" />
    </clipPath>
    <path id="path_11" d="M0 0L29 0L29 11L0 11L0 0Z" />
    <clipPath id="clip_path_12">
      <use p4:href="#path_11" xmlns:p4="http://www.w3.org/1999/xlink" />
    </clipPath>
    <path id="path_13" d="M0 0L45 0L45 112L0 112L0 0Z" />
    <clipPath id="clip_path_14">
      <use p4:href="#path_13" xmlns:p4="http://www.w3.org/1999/xlink" />
    </clipPath>
    <linearGradient id="gradient_15" gradientUnits="userSpaceOnUse" x1="-152.213" y1="1109.931" x2="284.911" y2="966.97">
      <stop offset="0" stop-color="#9141AC" />
      <stop offset="0.228" stop-color="#33D17A" />
      <stop offset="0.511" stop-color="#F5C211" />
      <stop offset="0.789" stop-color="#E66100" />
      <stop offset="1" stop-color="#26A269" />
    </linearGradient>
  </defs>
    <g transform="translate(4 4)">
      <path d="M0 0L120 0L120 120L0 120L0 0Z" />
      <g clip-path="url(#clip_path_2)">
        <g transform="translate(0.004 0.004)">
          <g>
            <path d="M120 60C120 93.1289 93.1289 120 60 120C26.8633 120 0 93.1289 0 60C0 26.8633 26.8633 0 60 0C93.1289 0 120 26.8633 120 60C120 60 120 60 120 60Z" />
            <g clip-path="url(#clip_path_4)">
              <path d="M120 60C120 93.1289 93.1289 120 60 120C26.8633 120 0 93.1289 0 60C0 26.8633 26.8633 0 60 0C93.1289 0 120 26.8633 120 60C120 60 120 60 120 60Z" fill="#1A5FB4" fill-rule="evenodd" />
            </g>
          </g>
        </g>
      </g>
    </g>
    <g transform="translate(4 4)">
      <path d="M0 0L120 0L120 116L0 116L0 0Z" />
      <g clip-path="url(#clip_path_6)">
        <g transform="translate(0.004 0.004)">
          <g>
            <path d="M120 60C120 93.1289 93.1289 120 60 120C26.8633 120 0 93.1289 0 60C0 26.8633 26.8633 0 60 0C93.1289 0 120 26.8633 120 60C120 60 120 60 120 60Z" />
            <g clip-path="url(#clip_path_4)">
              <path d="M120 60C120 93.1289 93.1289 119.988 60 119.988C26.8633 119.988 0 93.1289 0 60C0 26.8594 26.8633 0 60 0C93.1289 0 120 26.8594 120 60C120 60 120 60 120 60Z" fill="#1C71D8" fill-rule="evenodd" transform="translate(0 -4.488)" />
            </g>
          </g>
        </g>
      </g>
    </g>
    <g transform="translate(68 27)">
      <path d="M0 0L56 0L56 71L0 71L0 0Z" />
      <g clip-path="url(#clip_path_8)">
        <g transform="translate(-63.996 -22.996)">
          <g>
            <path d="M120 60C120 93.1289 93.1289 120 60 120C26.8633 120 0 93.1289 0 60C0 26.8633 26.8633 0 60 0C93.1289 0 120 26.8633 120 60C120 60 120 60 120 60Z" />
            <g clip-path="url(#clip_path_4)">
              <path d="M15.0631 7.11719C15.0631 7.11719 15.0631 10.1523 15.0631 10.1523C15.0631 14.082 11.8756 17.2695 7.94591 17.2695C3.21935 17.6211 -0.32753 21.7383 0.0240326 26.4688C0.0240326 26.4688 0.0240326 38.8945 0.0240326 38.8945C0.0240326 42.9297 3.29747 46.2031 7.33263 46.2031C10.4498 47.1211 12.2389 50.3906 11.3209 53.5117C11.3209 53.5117 11.3209 62.2305 11.3209 62.2305C11.3209 66.6562 14.9068 70.2422 19.3326 70.2422C23.7545 70.2383 27.3365 66.6523 27.3326 62.2305C27.3326 62.2305 27.3326 48.7266 27.3326 48.7266C27.3326 45.4844 28.6217 42.375 30.9186 40.0859C33.2115 37.7969 36.3248 36.5156 39.567 36.5195C39.567 36.5195 50.8795 36.5469 50.8795 36.5469C52.7662 36.5508 54.5787 35.8047 55.9147 34.4727C57.2467 33.1406 57.9967 31.332 57.9967 29.4453C57.9967 29.4453 57.9967 7.11719 57.9967 7.11719C57.9967 3.1875 54.8131 0 50.8795 0C50.8795 0 22.1803 0 22.1803 0C18.2506 0 15.0631 3.1875 15.0631 7.11719C15.0631 7.11719 15.0631 7.11719 15.0631 7.11719Z" fill="#26A269" fill-rule="evenodd" transform="translate(64.663 23.754)" />
            </g>
          </g>
        </g>
      </g>
    </g>
    <g transform="translate(62 21)">
      <path d="M0 0L12 0L12 19L0 19L0 0Z" />
      <g clip-path="url(#clip_path_10)">
        <g transform="translate(-57.996 -16.996)">
          <g>
            <path d="M120 60C120 93.1289 93.1289 120 60 120C26.8633 120 0 93.1289 0 60C0 26.8633 26.8633 0 60 0C93.1289 0 120 26.8633 120 60C120 60 120 60 120 60Z" />
            <g clip-path="url(#clip_path_4)">
              <path d="M5.80859 0C9.01953 0 11.6172 2.60156 11.6172 5.80859C11.6172 5.80859 11.6172 12.1875 11.6172 12.1875C11.6172 15.3945 9.01953 17.9961 5.80859 17.9961C2.60156 17.9961 0 15.3945 0 12.1875C0 12.1875 0 5.80859 0 5.80859C0 2.60156 2.60156 0 5.80859 0C5.80859 0 5.80859 0 5.80859 0Z" fill="#26A269" fill-rule="evenodd" transform="translate(58.074 17.043)" />
            </g>
          </g>
        </g>
      </g>
    </g>
    <g transform="translate(83 12)">
      <path d="M0 0L29 0L29 11L0 11L0 0Z" />
      <g clip-path="url(#clip_path_12)">
        <g transform="translate(-78.996 -7.996)">
          <g>
            <path d="M120 60C120 93.1289 93.1289 120 60 120C26.8633 120 0 93.1289 0 60C0 26.8633 26.8633 0 60 0C93.1289 0 120 26.8633 120 60C120 60 120 60 120 60Z" />
            <g clip-path="url(#clip_path_4)">
              <path d="M5.25391 0C5.25391 0 23.1836 0 23.1836 0C26.0859 0 28.4375 2.35156 28.4375 5.25391C28.4375 8.15625 26.0859 10.5078 23.1836 10.5078C23.1836 10.5078 5.25391 10.5078 5.25391 10.5078C2.35547 10.5078 0 8.15625 0 5.25391C0 2.35156 2.35547 0 5.25391 0C5.25391 0 5.25391 0 5.25391 0Z" fill="#26A269" fill-rule="evenodd" transform="translate(79.227 8.281)" />
            </g>
          </g>
        </g>
      </g>
    </g>
    <g transform="translate(4 7)">
      <path d="M0 0L45 0L45 112L0 112L0 0Z" />
      <g clip-path="url(#clip_path_14)">
        <g transform="translate(0 -3)">
          <g>
            <path d="M120 60C120 93.1289 93.1289 120 60 120C26.8633 120 0 93.1289 0 60C0 26.8633 26.8633 0 60 0C93.1289 0 120 26.8633 120 60C120 60 120 60 120 60Z" />
            <g clip-path="url(#clip_path_4)">
              <path d="M40 8.4L32 8.4C32 8.4 32 16.4 32 16.4C29.793 11.9819 24.418 10.1928 20 12.4C15.582 14.6108 13.793 19.9819 16 24.4C16 24.4 16 38.4 16 38.4C16 42.8217 12.418 46.4 8 46.4C3.58203 46.4 0 49.9819 0 54.4C0 54.4 0 70.4 0 70.4C0 74.8217 3.58203 78.4 8 78.4C12.418 78.4 16 81.9819 16 86.4C16 86.4 16 102.4 16 102.4C16 106.822 19.582 110.4 24 110.4C24 110.4 28 110.4 28 110.4C32.418 110.4 36 106.822 36 102.4C36 102.4 36 72.4 36 72.4C36 67.9819 32.418 64.4 28 64.4C23.582 64.4 20 60.8217 20 56.4C20 51.9819 23.582 48.4 28 48.4C32.418 48.4 36 44.8217 36 40.4C36 35.9819 39.582 32.4 44 32.4C48.418 32.4 52 28.8217 52 24.4C52 24.4 52 12.517 52 12.517C52 10.2436 53.8438 8.4 56.1172 8.4C58.4 8.26312 60.1367 6.30218 60 4.02093C58.7891 0.809991 55.207 -0.807197 52 0.4C52 0.4 48 0.4 48 0.4C43.582 0.4 40 3.98187 40 8.4C40 8.4 40 8.4 40 8.4Z" fill="#26A269" fill-rule="evenodd" transform="translate(-15.742 3.846)" />
            </g>
          </g>
        </g>
      </g>
    </g>
    <path d="M92 0C92 0 92 32 92 32C92 39.7303 85.7304 46 78 46C78 46 43.668 46 43.668 46C34.832 46 27.668 38.8358 27.668 30C26.0508 22.7811 18.8867 18.242 11.668 19.86C11.668 19.86 0 19.86 0 19.86" fill="none" stroke-width="8" stroke="url(#gradient_15)" transform="translate(16 62)" />
    <g transform="translate(12.016 74.012)">
      <path d="M8 4C8 6.21094 6.21094 8 4 8C1.78906 8 0 6.21094 0 4C0 1.78906 1.78906 0 4 0C6.21094 0 8 1.78906 8 4C8 4 8 4 8 4Z" fill="#FFFFFF" fill-rule="evenodd" transform="translate(51.984 29.988)" />
      <path d="M8 4C8 6.21094 6.21094 8 4 8C1.78906 8 0 6.21094 0 4C0 1.78906 1.78906 0 4 0C6.21094 0 8 1.78906 8 4C8 4 8 4 8 4Z" fill="#FFFFFF" fill-rule="evenodd" transform="translate(67.984 29.988)" />
      <path d="M8 4C8 6.21094 6.21094 8 4 8C1.78906 8 0 6.21094 0 4C0 1.78906 1.78906 0 4 0C6.21094 0 8 1.78906 8 4C8 4 8 4 8 4Z" fill="#FFFFFF" fill-rule="evenodd" transform="translate(83.984 27.988)" />
      <path d="M8 4C8 6.21094 6.21094 8 4 8C1.78906 8 0 6.21094 0 4C0 1.78906 1.78906 0 4 0C6.21094 0 8 1.78906 8 4C8 4 8 4 8 4Z" fill="#FFFFFF" fill-rule="evenodd" transform="translate(91.984 15.988)" />
      <path d="M8 4C8 6.21094 6.21094 8 4 8C1.78906 8 0 6.21094 0 4C0 1.78906 1.78906 0 4 0C6.21094 0 8 1.78906 8 4C8 4 8 4 8 4Z" fill="#FFFFFF" fill-rule="evenodd" transform="translate(91.984 1.988)" />
      <path d="M8 4C8 6.21094 6.21094 8 4 8C1.78906 8 0 6.21094 0 4C0 1.78906 1.78906 0 4 0C6.21094 0 8 1.78906 8 4C8 4 8 4 8 4Z" fill="#FFFFFF" fill-rule="evenodd" transform="translate(35.984 27.988)" />
      <path d="M8 4C8 6.21094 6.21094 8 4 8C1.78906 8 0 6.21094 0 4C0 1.78906 1.78906 0 4 0C6.21094 0 8 1.78906 8 4C8 4 8 4 8 4Z" fill="#FFFFFF" fill-rule="evenodd" transform="translate(27.984 15.988)" />
      <path d="M8 4C8 6.21094 6.21094 8 4 8C1.78906 8 0 6.21094 0 4C0 1.78906 1.78906 0 4 0C6.21094 0 8 1.78906 8 4C8 4 8 4 8 4Z" fill="#FFFFFF" fill-rule="evenodd" transform="translate(20 4)" />
      <path d="M16 8C16 12.4 12.3945 16 8 16C3.57422 16 0 12.4 0 8C0 3.57813 3.57422 0 8 0C12.3945 0 16 3.57813 16 8C16 8 16 8 16 8Z" fill="#FFFFFF" fill-rule="evenodd" />
    </g>
</svg>
