<svg xmlns="http://www.w3.org/2000/svg" xmlns:xlink="http://www.w3.org/1999/xlink" width="128" height="128" version="1.0"><defs><linearGradient id="c"><stop offset="0" stop-color="#241f31"/><stop offset="1" stop-color="#3d3846"/></linearGradient><linearGradient id="a"><stop offset="0" stop-color="#e01b24"/><stop offset="1" stop-color="#f8e45c"/></linearGradient><linearGradient id="b"><stop offset="0" stop-color="#2ec27e"/><stop offset="1" stop-color="#57e389" stop-opacity="0"/></linearGradient><linearGradient xlink:href="#c" id="e" x1="127.947" y1="224.053" x2="91.947" y2="188.053" gradientUnits="userSpaceOnUse" gradientTransform="matrix(1.04757 0 0 1.04757 -21.678 .634)"/><clipPath clipPathUnits="userSpaceOnUse" id="d"><rect ry="56.25" y="179.75" x="7.75" height="114.375" width="112.5" opacity=".1" fill="#3584e4" stroke-width="4"/></clipPath></defs><g transform="matrix(1.06667 0 0 1.06667 -4.267 -187.733)" clip-path="url(#d)" stroke-width=".938"><path d="M115.962 206a60 60 0 0 1 0 60L64 236z" fill="#3584e4"/><path d="M115.962 266A60 60 0 0 1 64 296v-60z" fill="#a347ba"/><path d="M64 176a60 60 0 0 1 51.962 30L64 236z" fill="#33d17a"/><path d="M12.038 206A60 60 0 0 1 64 176v60z" fill="#f6d32d"/><path d="M12.038 266a60 60 0 0 1 0-60L64 236z" fill="#ff7800"/><path d="M64 296a60 60 0 0 1-51.962-30L64 236z" fill="#ed333b"/></g><path d="M4.049 64.994A60 60 0 0 0 4 66a60 60 0 0 0 60 60 60 60 0 0 0 60-60 60 60 0 0 0-.035-1.006A60 60 0 0 1 64 124 60 60 0 0 1 4.049 64.994z" opacity=".2"/></svg>
