<?xml version="1.0" encoding="utf-8"?>
<svg width="128" height="128" viewBox="0 0 128 128" fill="none" xmlns="http://www.w3.org/2000/svg">
  <defs>
    <linearGradient id="gradient_1" gradientUnits="userSpaceOnUse" x1="8" y1="51" x2="27" y2="42">
      <stop offset="0" stop-color="#949390" />
      <stop offset="0.764" stop-color="#68676B" />
      <stop offset="1" stop-color="#949390" />
    </linearGradient>
    <linearGradient id="gradient_2" gradientUnits="userSpaceOnUse" x1="-0" y1="45.98" x2="13" y2="50.98">
      <stop offset="0" stop-color="#949390" />
      <stop offset="0.332" stop-color="#D5D3CF" />
      <stop offset="1" stop-color="#949390" />
    </linearGradient>
  </defs>
  <g>
    <path d="M0 0L0 51C0 51 19.0352 51 19.0352 51C23.4336 51 27 47.4336 27 43.0352C27 43.0352 27 17 27 17C27 13.7109 26.2344 10.4688 24.7617 7.52734C24.7617 7.52734 21 0 21 0L0 0Z" fill="url(#gradient_1)" fill-rule="evenodd" transform="translate(27 15)" />
    <path d="M27 0L27 51C27 51 7.96484 51 7.96484 51C3.56641 51 0 47.4336 0 43.0352C0 43.0352 0 17 0 17C0 13.7109 0.765625 10.4688 2.23828 7.52734C2.23828 7.52734 6 0 6 0L27 0Z" fill="url(#gradient_2)" fill-rule="evenodd" transform="translate(2 15)" />
    <path d="M36 0C38.2094 0 40 1.79056 40 4L40 38C40 40.2094 38.2094 42 36 42L4 42C1.79056 42 0 40.2094 0 38L0 4C0 1.79056 1.79056 0 4 0L36 0Z" fill="#D3D3D3" transform="translate(8 12)" />
    <path d="M0 0L0 51C0 51 19.0352 51 19.0352 51C23.4336 51 27 47.4336 27 43.0352C27 43.0352 27 17 27 17C27 13.7109 26.2344 10.4688 24.7617 7.52734C24.7617 7.52734 21 0 21 0L0 0Z" fill="url(#gradient_1)" fill-rule="evenodd" transform="translate(79 15)" />
    <path d="M27 0L27 51C27 51 7.96484 51 7.96484 51C3.56641 51 0 47.4336 0 43.0352C0 43.0352 0 17 0 17C0 13.7109 0.765625 10.4688 2.23828 7.52734C2.23828 7.52734 6 0 6 0L27 0Z" fill="url(#gradient_2)" fill-rule="evenodd" transform="translate(54 15)" />
    <path d="M36 0C38.2094 0 40 1.79056 40 4L40 38C40 40.2094 38.2094 42 36 42L4 42C1.79056 42 0 40.2094 0 38L0 4C0 1.79056 1.79056 0 4 0L36 0Z" fill="#D3D3D3" transform="translate(60 12)" />
    <path d="M0 0L0 51C0 51 19.0352 51 19.0352 51C23.4336 51 27 47.4336 27 43.0352C27 43.0352 27 17 27 17C27 13.7109 26.2344 10.4688 24.7617 7.52734C24.7617 7.52734 21 0 21 0L0 0Z" fill="url(#gradient_1)" fill-rule="evenodd" transform="translate(47 65)" />
    <path d="M27 0L27 51C27 51 7.96484 51 7.96484 51C3.56641 51 0 47.4336 0 43.0352C0 43.0352 0 17 0 17C0 13.7109 0.765625 10.4688 2.23828 7.52734C2.23828 7.52734 6 0 6 0L27 0Z" fill="url(#gradient_2)" fill-rule="evenodd" transform="translate(22 65)" />
    <path d="M36 0C38.2094 0 40 1.79056 40 4L40 38C40 40.2094 38.2094 42 36 42L4 42C1.79056 42 0 40.2094 0 38L0 4C0 1.79056 1.79056 0 4 0L36 0Z" fill="#D3D3D3" transform="translate(28 62)" />
    <path d="M0 0L0 51C0 51 19.0352 51 19.0352 51C23.4336 51 27 47.4336 27 43.0352C27 43.0352 27 17 27 17C27 13.7109 26.2344 10.4688 24.7617 7.52734C24.7617 7.52734 21 0 21 0L0 0Z" fill="url(#gradient_1)" fill-rule="evenodd" transform="translate(99 65)" />
    <path d="M27 0L27 51C27 51 7.96484 51 7.96484 51C3.56641 51 0 47.4336 0 43.0352C0 43.0352 0 17 0 17C0 13.7109 0.765625 10.4688 2.23828 7.52734C2.23828 7.52734 6 0 6 0L27 0Z" fill="url(#gradient_2)" fill-rule="evenodd" transform="translate(74 65)" />
    <path d="M36 0C38.2094 0 40 1.79056 40 4L40 38C40 40.2094 38.2094 42 36 42L4 42C1.79056 42 0 40.2094 0 38L0 4C0 1.79056 1.79056 0 4 0L36 0Z" fill="#D3D3D3" transform="translate(80 62)" />
    <path d="M2.63867 13.5625L0.331543 13.5625L3.84863 3.38037L6.62061 3.38037L10.1309 13.5625L7.82373 13.5625L7.06836 11.2417L3.39404 11.2417L2.63867 13.5625ZM3.94092 9.56006L6.52832 9.56006L5.27393 5.70801L5.19531 5.70801L3.94092 9.56006Z" fill="#252032" transform="translate(15 16)" />
    <path d="M6.40869 6.30957Q6.34717 5.70801 5.89258 5.37646Q5.43799 5.0415 4.66895 5.0415Q3.87939 5.0415 3.45557 5.36621Q3.03174 5.6875 3.03174 6.17969Q3.02148 6.72656 3.5 7.00684Q3.98193 7.28711 4.64502 7.44092L5.55762 7.65967Q6.44287 7.86133 7.12988 8.24072Q7.82031 8.6167 8.21338 9.21143Q8.60986 9.80273 8.60986 10.6538Q8.60645 12.0518 7.56396 12.8789Q6.52148 13.7061 4.65869 13.7061Q2.80273 13.7061 1.69873 12.8618Q0.598145 12.0176 0.557129 10.3667L2.63867 10.3667Q2.69336 11.1323 3.24365 11.5186Q3.79395 11.9014 4.63477 11.9014Q5.45508 11.9014 5.94385 11.5562Q6.43262 11.2075 6.43945 10.6504Q6.43262 10.1309 5.98486 9.854Q5.53711 9.57373 4.70654 9.37549L3.59912 9.09863Q2.31055 8.79102 1.56543 8.12109Q0.820312 7.44775 0.82373 6.32324Q0.820312 5.40039 1.31934 4.70654Q1.81836 4.0127 2.69336 3.62646Q3.56836 3.24023 4.68262 3.24023Q5.81738 3.24023 6.66504 3.62988Q7.5127 4.01611 7.98438 4.70996Q8.45605 5.40039 8.47314 6.30957L6.40869 6.30957Z" fill="#252032" transform="translate(67 16)" />
    <path d="M0.775879 13.5625L0.775879 12.2842L5.85498 5.1543L0.765625 5.1543L0.765625 3.38037L8.56201 3.38037L8.56201 4.65869L3.47607 11.7886L8.57227 11.7886L8.57227 13.5625L0.775879 13.5625Z" fill="#252032" transform="translate(35 66)" />
    <path d="M2.90186 3.38037L4.95605 6.84961L5.03467 6.84961L7.09912 3.38037L9.5293 3.38037L6.42236 8.47314L9.60107 13.5625L7.12305 13.5625L5.03467 10.0864L4.95605 10.0864L2.86768 13.5625L0.40332 13.5625L3.58887 8.47314L0.461426 3.38037L2.90186 3.38037Z" fill="#252032" transform="translate(87 66)" />
  </g>
</svg>