<?xml version="1.0" encoding="utf-8"?>
<svg width="16" height="16" viewBox="0 0 16 16" fill="gray" xmlns="http://www.w3.org/2000/svg">
<path id="phone" d="M8 2C8 0.89528 7.10472 0 6 0L2 0C0.89528 0 0 0.89528 0 2L0 12C0 13.1047 0.89528 14 2 14L6 14C7.10472 14 8 13.1047 8 12L8 2L8 2ZM2 1L6 1C6.6666 1 7 1.3333 7 2L7 12C7 12.6666 6.6666 13 6 13L2 13C1.3333 13 1 12.6666 1 12L1 2C1 1.3333 1.3333 1 2 1L2 1Z" fill-rule="evenodd" transform="translate(4 1)"/>
<g id="vibration" transform="translate(0 4)">
<path d="M0 0L0 4L1 4L1 0L0 0L0 0Z" transform="translate(15 2)"/>
<path d="M0 0L0 4L1 4L1 0L0 0L0 0Z" transform="translate(0 2)"/>
<path d="M0 0L0 8L1 8L1 0L0 0L0 0Z" transform="translate(13 0)"/>
<path d="M0 0L0 8L1 8L1 0L0 0L0 0Z" transform="translate(2 0)"/>
</g></svg>
