<?xml version="1.0" encoding="utf-8"?>
<svg width="128" height="128" viewBox="0 0 128 128" fill="#F6F9FE" xmlns="http://www.w3.org/2000/svg">
<path id="body" d="M50.4194 0C25.0964 0 4.0845 17.37 0.0997076 40.1408C-0.65222 44.4377 2.9557 48 7.31788 48L93.521 48C97.8832 48 101.491 44.4377 100.74 40.1408C96.7544 17.3699 75.7425 0 50.4194 0Z" transform="translate(13 70)"/>
<path id="head" d="M0 26C0 11.6406 11.6406 0 26 0C40.3594 0 52 11.6406 52 26C52 40.3594 40.3594 52 26 52C11.6406 52 0 40.3594 0 26Z" transform="translate(38 10)"/>
</svg>