<?xml version="1.0" encoding="utf-8"?>
<svg width="128" height="128" viewBox="0 0 128 128" fill="none" xmlns="http://www.w3.org/2000/svg">
<defs>
<filter id="shadow_1">
<feDropShadow dx="0" dy="2" flood-color="#808080" stdDeviation="1"/>
</filter>
<filter id="shadow_2">
<feDropShadow dx="0" dy="3" flood-color="#77767B" stdDeviation="1"/>
</filter>
</defs>
<rect id="box" width="88" height="112" rx="8" fill="#7DC530" x="20" y="8"/>
<path id="android" d="M74.0736 1.10889C75.541 -0.36963 77.7254 -0.36963 79.1926 1.109C80.661 2.58 80.661 4.76086 79.1926 6.23047L69.67 15.7655C72.7377 17.8164 75.521 20.3262 77.9392 23.197C83.7315 30.07 87.427 39.016 87.934 48.709C87.94 48.81 88 50.334 88 51C88 55.4188 84.42 59 80 59L8 59C3.58118 59 0 55.4188 0 51C0 50.3341 0.0603046 48.81 0.0649414 48.71C0.573 39.016 4.26758 30.07 10.06 23.1962C12.4793 20.3257 15.2614 17.8158 18.3294 15.7649L8.80751 6.22986C7.33925 4.76086 7.33925 2.58 8.80751 1.10889C10.2748 -0.36963 12.458 -0.36963 13.9265 1.11L24.225 11.3854C30.061 8.46 36.605 7 43.892 6.98364C43.93 6.98364 43.9628 6.98254 44 6.98254C44.0367 6.98254 44.072 6.98364 44.1076 6.98364C51.395 7 57.94 8.46 63.776 11.3854L74.0736 1.109L74.0736 1.109ZM20 33.5C20 36.5375 22.4617 39 25.5 39C28.5345 39 31 36.5375 31 33.5C31 30.4626 28.5345 28 25.5 28C22.4617 28 20 30.4626 20 33.5L20 33.5ZM57 33.5C57 36.5375 59.4617 39 62.5 39C65.5344 39 68 36.5375 68 33.5C68 30.4626 65.5345 28 62.5 28C59.4617 28 57 30.4626 57 33.5L57 33.5Z" fill="#C6F17F" fill-rule="evenodd" transform="translate(20 61)"/>
<g id="close" transform="translate(52 8)">
<path id="squares" filter="url(#shadow_1)" d="M6 0L6 4L0 4L0 8L6 8L6 12L0 12L0 16L6 16L6 20L0 20L0 24L6 24L6 28L0 28L0 32L6 32L6 36L0 36L0 40L6 40L6 44L0 44L0 48L6 48L6 52L0 52L0 56L6 56L6 60L0 60L0 64L6 64L6 60L12 60L12 56L6 56L6 52L12 52L12 48L6 48L6 44L12 44L12 40L6 40L6 36L12 36L12 32L6 32L6 28L12 28L12 24L6 24L6 20L12 20L12 16L6 16L6 12L12 12L12 8L6 8L6 4L12 4L12 0L6 0L6 0Z" fill="#FFFFFF" transform="translate(6 42)"/>
<g id="zipper">
<rect width="24" height="30" rx="4" fill="#3D3846"/>
<rect width="24" height="27" rx="4" fill="#5E5C64"/>
<g transform="translate(6 9)">
<path fill="#FFFFFF" filter="url(#shadow_2)" d="M3 0C1.336 0 0 1.336 0 3C0 3 0 30 0 30C0 31.664 1.336 33 3 33C3 33 9 33 9 33C10.664 33 12 31.6641 12 30C12 30 12 3 12 3C12 1.336 10.664 0 9 0C9 0 3 0 3 0ZM3 24L9 24L9 30L3 30L3 24Z"/>
</g><g transform="translate(9 3)">
<rect width="6" height="15" rx="3" fill="#77767B"/>
<rect width="6" height="12" rx="3" fill="#9A9996"/>
</g></g></g>
<path d="M88 2C88 6.419 84.419 8 80 8L8 8C3.581 8 0 4.419 0 0L0 6C0 10.419 3.581 14 8 14L80 14C84.419 14 88 10.419 88 6L88 0L88 2Z" fill="#000000" opacity="0.3" transform="translate(20 106)"/>
</svg>
