<?xml version="1.0" encoding="utf-8"?>
<svg width="128" height="128" viewBox="0 0 128 128" xmlns="http://www.w3.org/2000/svg">
<path d="M0 0L0 92C0 92 80 92 80 92C84.4 92 88 88.4 88 84C88 84 88 8 88 8C88 3.6 84.4 0 80 0C80 0 0 0 0 0Z" fill="#B1571B" transform="translate(20 28)"/>
<path d="M0 0L0 70C0 70 78 70 78 70C82.4 70 86 66.4 86 62C86 62 86 8 86 8C86 3.6 82.4 0 78 0C78 0 0 0 0 0Z" fill="#E8E7E4" transform="translate(22 48)"/>
<path d="M0 0L0 76C0 76 80 76 80 76C84.4 76 88 72.4 88 68C88 68 88 8 88 8C88 3.6 84.4 0 80 0C80 0 0 0 0 0Z" fill="#B1571B" transform="translate(20 34)"/>
<path d="M0 0L8 0L8 2L2 2L2 10L8 10L8 12L0 12Z" fill="#191622" transform="translate(20 108)"/>
<path d="M0 0L0 100C0 100 80 100 80 100C84.4 100 88 96.4 88 92C88 92 88 8 88 8C88 3.6 84.4 0 80 0C80 0 0 0 0 0Z" fill="#F37726" transform="translate(20 8)"/>
<rect width="8" height="100" fill="#424048" transform="translate(20 8)"/>
<rect width="2" height="100" fill="#FFFFFF" fill-opacity="0.2" transform="translate(22 8)"/>
<path d="M0 16C0 16 7 0 25 0C43 0 50 16 50 16C50 16 41 10 25 10C9 10 0 16 0 16Z" fill="#FFFFFF" transform="translate(43 37)"/>
<path d="M25 16C43 16 50 0 50 0C50 0 41 6 25 6C9 6 0 0 0 0C0 0 7 16 25 16Z" fill="#FFFFFF" transform="translate(43 67)"/>
<path d="M0 5C0 2.25 2.25 0 5 0C7.75 0 10 2.25 10 5C10 7.75 7.75 10 5 10C2.25 10 0 7.75 0 5Z" fill="#FFFFFF" transform="translate(83 30)"/>
<path d="M0 5C0 2.25 2.25 0 5 0C7.75 0 10 2.25 10 5C10 7.75 7.75 10 5 10C2.25 10 0 7.75 0 5Z" fill="#FFFFFF" transform="translate(43 80)"/>
<path d="M0 4C0 1.8 1.8 0 4 0C6.2 0 8 1.8 8 4C8 6.2 6.2 8 4 8C1.8 8 0 6.2 0 4Z" fill="#FFFFFF" transform="translate(43 32)"/>
</svg>
