<?xml version="1.0" encoding="utf-8"?>
<svg width="128" height="128" viewBox="0 0 128 128" fill="none" xmlns="http://www.w3.org/2000/svg">
  <defs>
    <linearGradient id="gradient_1" gradientUnits="userSpaceOnUse" x1="0" y1="15.493" x2="30.986" y2="15.493">
      <stop offset="0" stop-color="#77767B" />
      <stop offset="0.176" stop-color="#C0BFBC" />
      <stop offset="0.409" stop-color="#77767B" />
      <stop offset="1" stop-color="#3D3846" />
    </linearGradient>
    <linearGradient id="gradient_2" gradientUnits="userSpaceOnUse" x1="14.808" y1="14.026" x2="8.406" y2="20.428">
      <stop offset="0" stop-color="#F6F5F4" />
      <stop offset="0.257" stop-color="#FFFFFF" />
      <stop offset="0.6" stop-color="#C0BFBC" />
      <stop offset="0.703" stop-color="#F6F5F4" />
      <stop offset="1" stop-color="#F6F5F4" />
    </linearGradient>
    <linearGradient id="gradient_3" gradientUnits="userSpaceOnUse" x1="11.36" y1="9.793" x2="9.91" y2="11.243">
      <stop offset="0" stop-color="#C0BFBC" />
      <stop offset="1" stop-color="#F6F5F4" />
    </linearGradient>
  </defs>
    <g id="sheet" transform="translate(20 8)">
      <path id="paper" d="M7.99603 0L59.9699 0L60 28L87.9778 28.1429C87.9778 28.1429 88 103.978 88 103.978C88.0001 108.41 84.3896 112 79.9598 112C79.9598 112 7.99598 112 7.99598 112C3.56621 112 0 108.432 0 104C0 104 0 8 0 8C0 3.56799 3.56621 0 7.99598 0C7.99598 0 7.99603 0 7.99603 0Z" fill="#62A0EA" />
      <path id="corner" d="M0 0L28 28L0 28Z" fill="#1A5FB4" fill-rule="evenodd" transform="translate(60 0)" />
    </g>
    <rect id="rect1236" width="88" height="15.857" fill="#241F31" fill-rule="evenodd" transform="translate(20 56)" />
    <path id="codebar" d="M58.3086 0L58.3086 14.0117L60.625 14.0117L60.625 0L58.3086 0ZM59.4648 0L59.4648 14.0117L59.4648 0ZM52.293 0L52.293 14.0117L56.9219 14.0117L56.9219 0L52.293 0ZM54.6055 0L54.6055 14.0117L54.6055 0ZM48.5898 0L48.5898 14.0117L50.9062 14.0117L50.9062 0L48.5898 0ZM49.7461 0L49.7461 14.0117L49.7461 0ZM44.7031 0L44.7031 14.0117L47.0195 14.0117L47.0195 0L44.7031 0ZM45.8594 0L45.8594 14.0117L45.8594 0ZM40.8164 0L40.8164 14.0117L43.1289 14.0117L43.1289 0L40.8164 0ZM41.9727 0L41.9727 14.0117L41.9727 0ZM32.6719 0L32.6719 14.0117L39.6133 14.0117L39.6133 0L32.6719 0ZM36.1406 0L36.1406 14.0117L36.1406 0ZM23.3242 0L23.3242 14.0117L25.6367 14.0117L25.6367 0L23.3242 0ZM24.4805 0L24.4805 14.0117L24.4805 0ZM27.0273 0L27.0273 14.0117L31.6523 14.0117L31.6523 0L27.0273 0ZM29.3398 0L29.3398 14.0117L29.3398 0ZM17.3086 0L17.3086 14.0117L21.9336 14.0117L21.9336 0L17.3086 0ZM19.6211 0L19.6211 14.0117L19.6211 0ZM13.6055 0L13.6055 14.0117L15.918 14.0117L15.918 0L13.6055 0ZM14.7617 0L14.7617 14.0117L14.7617 0ZM9.71875 0L9.71875 14.0117L12.0312 14.0117L12.0312 0L9.71875 0ZM10.875 0L10.875 14.0117L10.875 0ZM3.70312 0L3.70312 14.0117L8.32812 14.0117L8.32812 0L3.70312 0ZM6.01562 0L6.01562 14.0117L6.01562 0ZM0 0L0 14.0117L2.3125 14.0117L2.3125 0L0 0ZM1.15625 0L1.15625 14.0117L1.15625 0Z" fill="#1A5FB4" fill-rule="evenodd" transform="translate(34 80)" />
    <g id="asterisks" transform="translate(34 99)">
      <path d="M3.28906 0L4.23047 3.98438L1.16797 1.40625L0.0234375 3.44141L3.96094 4.74609L0 5.99609L1.125 8.07031L4.23438 5.47266L3.28906 9.42969L5.96875 9.42969L5.10547 5.53125L8.11719 8.13672L9.27734 6.07812L5.36328 4.75391L9.38672 3.63281L8.24219 1.57812L5.07422 4L5.96875 0L3.28906 0Z" fill="#1A5FB4" transform="translate(50.285 0)" />
      <path d="M3.29297 0L4.23438 3.98438L1.16797 1.40625L0.0273438 3.44141L3.96484 4.74609L0 5.99609L1.12891 8.07031L4.23438 5.47266L3.29297 9.42969L5.97266 9.42969L5.10547 5.53125L8.12109 8.13672L9.28125 6.07812L5.36719 4.75391L9.38672 3.63281L8.24609 1.57812L5.07812 4L5.97266 0L3.29297 0Z" fill="#1A5FB4" transform="translate(37.711 0)" />
      <path d="M3.29297 0L4.23438 3.98438L1.16797 1.40625L0.0273438 3.44141L3.96094 4.74609L0 5.99609L1.125 8.07031L4.23438 5.47266L3.29297 9.42969L5.97266 9.42969L5.10547 5.53125L8.11719 8.13672L9.27734 6.07812L5.36719 4.75391L9.38672 3.63281L8.24609 1.57812L5.07812 4L5.96875 0L3.29297 0Z" fill="#1A5FB4" transform="translate(25.141 0)" />
      <path d="M3.28906 0L4.23047 3.98438L1.16797 1.40625L0.0234375 3.44141L3.96094 4.74609L0 5.99609L1.125 8.07031L4.23438 5.47266L3.28906 9.42969L5.96875 9.42969L5.10547 5.53125L8.11719 8.13672L9.27734 6.07812L5.36719 4.75391L9.38672 3.63281L8.24609 1.57812L5.07422 4L5.96875 0L3.28906 0Z" fill="#1A5FB4" transform="translate(12.57 0)" />
      <path d="M3.28906 0L4.23047 3.98438L1.16406 1.40625L0.0234375 3.44141L3.96094 4.74609L0 5.99609L1.125 8.07031L4.23047 5.47266L3.28906 9.42969L5.96875 9.42969L5.10547 5.53125L8.11719 8.13672L9.27734 6.07812L5.36328 4.75391L9.38672 3.63281L8.24219 1.57812L5.07422 4L5.96875 0L3.28906 0Z" fill="#1A5FB4" />
    </g>
    <g id="key" transform="matrix(-1 0 0 -1 61.796 78.093)">
      <path id="path1238" d="M15.4932 30.9863C6.93652 30.9863 0 24.0498 0 15.4932C0 6.93653 6.93652 0 15.4932 0C24.0498 0 30.9863 6.93653 30.9863 15.4932C30.9863 24.0498 24.0498 30.9863 15.4932 30.9863C15.4932 30.9863 15.4932 30.9863 15.4932 30.9863ZM15.5104 24.3464C17.3535 24.3464 18.8477 22.86 18.8477 21.0264C18.8477 19.1929 17.3535 17.7065 15.5104 17.7065C13.6673 17.7065 12.1732 19.1929 12.1732 21.0264C12.1732 22.86 13.6673 24.3464 15.5104 24.3464C15.5104 24.3464 15.5104 24.3464 15.5104 24.3464Z" fill="url(#gradient_1)" transform="translate(3.873 30.71)" />
      <g id="g1246" transform="matrix(0.707 -0.707 -0.707 -0.707 18.812 40.668)">
        <path id="path1240" d="M9.38981 0L0 9.38981L4.6297 14.0195L6.65111 12.1285L8.99856 14.476L10.5635 14.476L10.5635 16.0409L11.7373 17.2147L14.0847 17.2147L14.0847 19.5621L15.6497 19.5621L15.6497 21.1271L18.7796 21.1271L18.7796 24.257L20.3446 24.257L20.3446 25.822L27.3869 25.822L30.1256 23.0833L30.1256 20.7358L9.38981 0Z" fill="#77767B" transform="translate(0.782 0.782)" />
        <path id="path1242" d="M9.38981 0L0 9.38981L4.62969 14.0195L6.65111 12.1285L8.99856 14.476L10.5635 14.476L10.5635 16.0409L11.7373 17.2147L14.0847 17.2147L14.0847 19.5621L15.6497 19.5621L15.6497 21.1271L18.7796 21.1271L18.7796 24.257L20.3446 24.257L20.3446 25.822L27.3869 25.822L30.1256 23.0833L30.1256 20.7358L9.38981 0Z" fill="url(#gradient_2)" />
        <path id="path1244" d="M1.10755 4.76837e-07C0.114995 0.00110626 -0.37425 1.20754 0.337037 1.89981C0.337037 1.89981 18.9199 20.483 18.9199 20.483L20.4849 18.918C20.4849 18.918 1.90184 0.335006 1.90184 0.335006C1.69324 0.120579 1.40671 -0.000277996 1.10756 4.76837e-07C1.10756 4.76837e-07 1.10755 4.76837e-07 1.10755 4.76837e-07Z" fill="url(#gradient_3)" transform="translate(9.25 4.557)" />
      </g>
      <path id="path1248" d="M15.4932 30.9863C24.0498 30.9863 30.9863 24.0498 30.9863 15.4932C30.9863 6.93652 24.0498 0 15.4932 0C6.93652 0 0 6.93652 0 15.4932C0 24.0498 6.93652 30.9863 15.4932 30.9863C15.4932 30.9863 15.4932 30.9863 15.4932 30.9863ZM15.4759 24.3464C13.6328 24.3464 12.1386 22.86 12.1386 21.0264C12.1386 19.1929 13.6328 17.7065 15.4759 17.7065C17.319 17.7065 18.8132 19.1929 18.8132 21.0264C18.8132 22.86 17.319 24.3464 15.4759 24.3464C15.4759 24.3464 15.4759 24.3464 15.4759 24.3464Z" fill="#F6F5F4" transform="translate(3.873 31.816)" />
    </g>
</svg>