<?xml version="1.0" encoding="utf-8"?>
<svg width="128" height="128" viewBox="0 0 128 128" xmlns="http://www.w3.org/2000/svg">
<path id="paper" d="M108 36L108 112C108 116.4 104.4 120 100 120L28 120C23.6 120 20 116.4 20 112L20 16C20 11.6 23.6 8 28 8L80 8Z" fill="#11B56A"/>
<path id="corner" d="M0 0L28 28L0 28Z" fill="#72D5A8" transform="translate(80 8)"/>
<path id="cells" d="M36 0L36 32L0 32L0 58L56 58L56 0L36 0ZM54 2L54 8L38 8L38 2L54 2ZM54 10L54 16L38 16L38 10L54 10ZM54 18L54 24L38 24L38 18L54 18ZM38 32L54 32L54 26L38 26L38 32ZM18 40L2 40L2 34L18 34L18 40ZM20 34L36 34L36 40L20 40L20 34ZM38 34L38 40L54 40L54 34L38 34ZM18 48L2 48L2 42L18 42L18 48ZM20 42L36 42L36 48L20 48L20 42ZM38 42L38 48L54 48L54 42L38 42ZM18 50L18 56L2 56L2 50L18 50ZM20 50L36 50L36 56L20 56L20 50ZM38 50L38 56L54 56L54 50L38 50Z" fill="#FFFFFF" fill-rule="evenodd" transform="translate(36 48)"/>
<g id="graph" fill="#FFFFFF" transform="translate(36 48)">
<rect width="8" height="22" x="24" y="6"/>
<rect width="8" height="28" x="12"/>
<rect width="8" height="16" y="12"/>
</g></svg>