<?xml version="1.0" encoding="utf-8"?>
<svg width="128" height="128" viewBox="0 0 128 128" fill="none" xmlns="http://www.w3.org/2000/svg">
<g transform="translate(20 8)">
<path d="M88 28L88 104C88 108.4 84.4 112 80 112L8 112C3.6 112 0 108.4 0 104L0 8C0 3.6 3.6 0 8 0L60 0Z" fill="#DD1100"/>
<path d="M0 0L28 28L0 28Z" fill="#FFFFFF" opacity="0.4" transform="translate(60 0)"/>
</g><g transform="translate(35 48)">
<path d="M56.9697 39.3939L48.7879 30L56.9697 20.6061L44.8485 18.1818L46.0606 5.75758L34.8485 10.6061L28.4848 0L22.1212 10.6061L10.9091 5.75758L12.1212 18.1818L0 20.6061L8.18182 30L0 39.3939L12.1212 41.8182L10.9091 54.2424L22.1212 49.3939L28.4848 60L34.8485 49.3939L46.0606 54.2424L44.8485 41.8182L56.9697 39.3939Z" fill="#FFFFFF" transform="translate(0.303 0)"/>
<path d="M27.8788 8.48485C27.8788 8.48485 25.1515 10.303 20.9091 10.303C16.6667 10.303 14.2424 8.48485 14.2424 8.48485C14.2424 8.48485 14.8485 11.5152 13.9394 15.4545C13.0303 17.8788 11.8182 19.697 10 21.2121C10 21.2121 13.6364 21.8182 16.3636 23.6364C19.0909 25.7576 20.9091 29.3939 20.9091 29.3939C20.9091 29.3939 22.4242 25.7576 25.1515 23.9394C27.8788 21.8182 31.8182 21.5152 31.8182 21.5152C31.8182 21.5152 29.0909 18.1818 27.8788 15.4545C26.6667 12.4242 27.8788 8.48485 27.8788 8.48485C27.8788 8.48485 27.8788 8.48485 27.8788 8.48485ZM23.9394 21.8182C22.1212 23.0303 20.9091 25.1515 20.9091 25.1515C20.9091 25.1515 17.8788 21.8182 17.8788 21.8182C17.8788 21.8182 13.9394 20.303 13.9394 20.303C13.9394 20.303 15.4545 18.1818 16.0606 16.0606C16.6667 14.8485 16.6667 13.3333 16.6667 11.8182C16.6667 11.8182 18.7879 12.7273 20.9091 12.7273C22.7273 12.7273 25.1515 11.8182 25.1515 11.8182C25.1515 11.8182 24.5455 14.2424 25.4545 16.3636C26.0606 18.1818 27.8788 20.303 27.8788 20.303C27.8788 20.303 23.9394 21.8182 23.9394 21.8182C23.9394 21.8182 23.9394 21.8182 23.9394 21.8182ZM32.4242 13.6364C31.8182 11.5152 33.9394 0 33.9394 0C33.9394 0 26.0606 5.45455 20.6061 5.45455C15.1515 5.45455 7.87879 0 7.87879 0C7.87879 0 10.303 8.18182 8.78788 13.6364C7.57576 18.7879 0 24.8485 0 24.8485C0 24.8485 9.69697 25.1515 13.3333 27.8788C17.2727 30.303 20.9091 40 20.9091 40C20.9091 40 25.7576 29.3939 27.8788 27.8788C30 26.3636 41.8182 24.5455 41.8182 24.5455C41.8182 24.5455 33.3333 16.0606 32.4242 13.6364C32.4242 13.6364 32.4242 13.6364 32.4242 13.6364ZM26.6667 26.0606C22.7273 28.4848 20.9091 34.5455 20.9091 34.5455C20.9091 34.5455 17.8788 27.8788 14.8485 25.7576C11.8182 23.6364 5.15152 23.0303 5.15152 23.0303C5.15152 23.0303 10.303 18.7879 11.5152 14.5455C12.7273 10.6061 11.2121 4.54545 11.2121 4.54545C11.2121 4.54545 16.6667 7.87879 20.6061 7.87879C24.8485 7.87879 30.6061 4.54545 30.6061 4.54545C30.6061 4.54545 28.7879 10.9091 30.303 14.5455C31.5152 18.4848 36.6667 23.0303 36.6667 23.0303C36.6667 23.0303 30.6061 23.3333 26.6667 26.0606C26.6667 26.0606 26.6667 26.0606 26.6667 26.0606Z" fill="#DD1100" transform="translate(7.879 12.121)"/>
</g></svg>
