<?xml version="1.0" encoding="utf-8"?>
<svg width="128" height="128" viewBox="0 0 128 128" xmlns="http://www.w3.org/2000/svg">
<path d="M88 28L88 104C88 108.4 84.4 112 80 112L8 112C3.6 112 0 108.4 0 104L0 8C0 3.6 3.6 0 8 0L60 0Z" fill="#00AAD8" transform="translate(20 8)"/>
<path d="M0 0L28 28L0 28Z" fill="#000000" opacity="0.3" transform="translate(80 8)"/>
<path d="M0 0L0 56L16 56L16 37L30 37L31 22L16 22L16 11L34 11L35 0Z" fill="#FFFFFF" transform="translate(49 49)"/>
<path d="M0 0L41.5 0L41 6L6 6L6 62L0 62Z" fill="#A3DAF5" transform="translate(43 43)"/>
</svg>
