<?xml version="1.0" encoding="utf-8"?>
<svg width="128" height="128" viewBox="0 0 128 128" xmlns="http://www.w3.org/2000/svg">
<path id="paper" d="M108 36L108 112C108 116.4 104.4 120 100 120L28 120C23.6 120 20 116.4 20 112L20 16C20 11.6 23.6 8 28 8L80 8Z" fill="#FF6618"/>
<path id="corner" d="M0 0L28 28L0 28Z" fill="#000000" opacity="0.35" transform="translate(80 8)"/>
<path id="rss" d="M0.359463 49.8534C0.359463 48.1288 0.951694 46.6795 2.14781 45.5155C3.29066 44.3492 4.86428 43.7061 6.49705 43.7381C8.17953 43.7381 9.59753 44.3308 10.7615 45.5155C11.9466 46.6793 12.5393 48.1286 12.5393 49.8534C12.5643 51.469 11.921 53.0232 10.7615 54.1488C9.64216 55.2946 8.09866 55.9264 6.49704 55.8945C4.87009 55.9286 3.3 55.2982 2.1478 54.1488C0.977985 53.0294 0.329582 51.472 0.359455 49.8534C0.359455 49.8534 0.359463 49.8534 0.359463 49.8534ZM0.0104027 22.2402C0.0104027 22.2402 0.0104027 32.418 0.0104027 32.4179C13 32.4179 23.5553 42.9868 23.5553 56C23.5553 56 33.7565 56 33.7565 56C33.7565 37.3585 18.6244 22.251 0 22.251C0 22.251 0.0104027 22.2402 0.0104027 22.2402ZM0.0224648 0.0015831C0.0224648 0 0.0224648 11.2477 0.0224648 11.2477C24.7199 11.2786 44.7235 31.3064 44.7191 55.9984C44.7191 55.9984 56 56 56 55.9984C56 25.0985 30.9515 0.031 0.032856 0C0.032856 0 0.0224648 0 0.0224648 0.0015831Z" fill="#F6F5F4" transform="translate(36 48)"/>
</svg>