<?xml version="1.0" encoding="utf-8"?>
<svg width="128" height="128" viewBox="0 0 128 128" xmlns="http://www.w3.org/2000/svg">
<defs>
<linearGradient id="gradient" gradientUnits="userSpaceOnUse" x1="60" y1="0" x2="60" y2="120">
<stop offset="0" stop-color="#87ADC3" />
<stop offset="1" stop-color="#5087A8" />
</linearGradient>
</defs>
<path id="rhombus" d="M54.4148 117.687C55.9573 119.23 57.82 120 60 120C62.1812 120 64.0428 119.23 65.5851 117.687L117.687 65.5852C119.23 64.0429 120 62.1813 120 60C120 57.8191 119.23 55.9575 117.687 54.4149L65.5848 2.3133C64.0426 0.771 62.181 0 60 0C57.8187 0 55.957 0.771 54.4148 2.3133L2.31311 54.415C0.771 55.9572 0 57.8188 0 60C0 62.181 0.771 64.0426 2.31311 65.585L54.4148 117.687Z" fill="url(#gradient)" transform="translate(4 4)"/>
<path d="M54.4148 63.2741C55.9573 64.8166 57.819 65.5876 60 65.5876C62.1812 65.5876 64.0428 64.8166 65.5851 63.2744L117.687 11.1728C119.23 9.63046 120 7.76883 120 5.58774C120 3.40665 119.229 1.54501 117.687 0L117.684 0L65.5851 52.1C64.0428 53.6417 62.1812 54.4127 60 54.4127C57.819 54.4127 55.9573 53.6417 54.4148 52.1L2.31552 0L2.31311 0C0.770875 1.54471 0 3.40634 0 5.58743C0 7.76852 0.770875 9.63016 2.31311 11.1725L54.4148 63.2741L54.4148 63.2741Z" fill="#304C5C" opacity="0.75" transform="translate(4 58.412)"/>
<path d="M23.7188 0C23.2 0 22.875 0.884754 22.875 1.96875C22.875 1.96875 22.875 8.8125 22.875 8.8125C20.7868 9.28798 18.8204 10.1396 17.0625 11.25C17.0625 11.25 12.1875 6.375 12.1875 6.375C11.421 5.6085 10.5855 5.25823 10.2188 5.625C10.2188 5.625 5.625 10.2188 5.625 10.2188C5.25827 10.5855 5.60865 11.421 6.375 12.1875C6.375 12.1875 11.25 17.0625 11.25 17.0625C10.1396 18.8204 9.288 20.7868 8.8125 22.875C8.8125 22.875 1.96875 22.875 1.96875 22.875C0.884773 22.875 0 23.2 0 23.7187C0 23.7187 0 30.2812 0 30.2812C0 30.8 0.884766 31.125 1.96875 31.125C1.96875 31.125 8.8125 31.125 8.8125 31.125C9.288 33.2131 10.1396 35.1796 11.25 36.9375C11.25 36.9375 6.375 41.8125 6.375 41.8125C5.60851 42.579 5.25824 43.4145 5.625 43.7812C5.625 43.7812 10.2188 48.375 10.2188 48.375C10.5855 48.7417 11.421 48.3918 12.1875 47.625C12.1875 47.625 17.0625 42.75 17.0625 42.75C18.8204 43.86 20.7868 44.712 22.875 45.1875C22.875 45.1875 22.875 52.0312 22.875 52.0312C22.875 53.1152 23.2 54 23.7187 54C23.7187 54 30.2812 54 30.2812 54C30.8 54 31.125 53.1152 31.125 52.0312C31.125 52.0312 31.125 45.1875 31.125 45.1875C33.2132 44.712 35.1796 43.8604 36.9375 42.75C36.9375 42.75 41.8125 47.625 41.8125 47.625C42.579 48.3915 43.4145 48.7418 43.7812 48.375C43.7812 48.375 48.375 43.7812 48.375 43.7812C48.7417 43.4145 48.3918 42.579 47.625 41.8125C47.625 41.8125 42.75 36.9375 42.75 36.9375C43.8604 35.1796 44.712 33.2132 45.1875 31.125C45.1875 31.125 52.0312 31.125 52.0312 31.125C53.1152 31.125 54 30.8 54 30.2812C54 30.2812 54 23.7188 54 23.7188C54 23.2 53.1152 22.875 52.0312 22.875C52.0312 22.875 45.1875 22.875 45.1875 22.875C44.712 20.7869 43.8604 18.8204 42.75 17.0625C42.75 17.0625 47.625 12.1875 47.625 12.1875C48.3915 11.421 48.7418 10.5855 48.375 10.2188C48.375 10.2188 43.7812 5.625 43.7812 5.625C43.4145 5.25828 42.579 5.6082 41.8125 6.375C41.8125 6.375 36.9375 11.25 36.9375 11.25C35.1796 10.1396 33.2132 9.288 31.125 8.81251C31.125 8.81251 31.125 1.96877 31.125 1.96877C31.125 0.884769 30.8 1.14441e-05 30.2813 1.14441e-05C30.2813 1.14441e-05 23.7188 0 23.7188 0ZM27 19C31.397 19 35 22.6031 35 27C35 31.3969 31.3969 35 27 35C22.6031 35 19 31.3969 19 27C19 22.6031 22.6031 19 27 19C27 19 27 19 27 19Z" fill="#F4F4F4" transform="translate(37 51)"/>
<path d="M25.5848 2.3133L30 6.72844L30 23L40 23L20 43L0 23L10 23L10 6.7281L14.4148 2.3133C15.957 0.771 17.8187 0 20 0C22.181 0 24.0426 0.771 25.5848 2.3133L25.5848 2.3133Z" fill="#F4F4F4" transform="translate(44 4)"/>
</svg>