<?xml version="1.0" encoding="utf-8"?>
<svg width="128" height="128" viewBox="0 0 128 128" xmlns="http://www.w3.org/2000/svg">
<path d="M88 28L88 104C88 108.4 84.4 112 80 112L8 112C3.6 112 0 108.4 0 104L0 8C0 3.6 3.6 0 8 0L60 0Z" fill="#D1322A" transform="translate(20 8)"/>
<path d="M0 0L28 28L0 28Z" fill="#FFFFFF" opacity="40%" transform="translate(80 8)"/>
<path d="M0 49.8C0 49.8 0 62.6 0 62.6C0 62.6 20.57 65.6 29.624 38.187C29.624 38.187 46 38.187 46 38.187L46 26.187C46 26.187 34.55 26.187 34.55 26.187C34.55 26.187 38.9 12.187 50 12.187C50 12.187 50 0.187 50 0.187C50 0.187 32.72 -3.8 21.616 25C12 53.2225 0 49.8 0 49.8C0 49.8 0 49.8 0 49.8Z" fill="#FFFFFF" transform="translate(39 46)"/>
</svg>
