<?xml version="1.0" encoding="utf-8"?>
<svg width="128" height="128" viewBox="0 0 128 128" xmlns="http://www.w3.org/2000/svg">
<path id="diamond" d="M54.415 117.687C55.9573 119.23 57.82 120 60 120C62.1812 120 64.043 119.23 65.585 117.687L117.687 65.5852C119.23 64.043 120 62.1813 120 60C120 57.8191 119.229 55.9575 117.687 54.4149L65.585 2.3133C64.0426 0.771 62.181 0 60 0C57.8187 0 55.957 0.771 54.415 2.3133L2.31311 54.4149C0.770875 55.9572 0 57.8188 0 60C0 62.181 0.771 64.0426 2.31311 65.585L54.415 117.687Z" fill="#7DC530" transform="translate(4 4)"/>
<path d="M39.5954 92.6741C39.183 92.3904 38.7895 92.0613 38.4149 91.6866L17.5954 70.8671L17.5954 34.9756L70.4042 34.9756L70.4042 70.8678L49.5852 91.6868C49.2104 92.0616 48.8167 92.3909 48.4042 92.6746L48.4042 83.3773L39.5954 83.3773L39.5954 92.6741ZM13.1912 66.463L0 53.2717L0 41.5687C0 38.064 3.0719 34.9756 6.59528 34.9756C10.1193 34.9756 13.1912 38.064 13.1912 41.5687L13.1912 66.463ZM88 53.272L74.8088 66.4632L74.8088 41.5687C74.8088 38.064 77.881 34.9756 81.4047 34.9756C84.9281 34.9756 88 38.064 88 41.5687L88 53.272ZM65.1189 0.664627C64.2384 -0.221542 62.9275 -0.221542 62.047 0.664627L56.14 6.55202L55.8674 6.82417C52.3647 5.07021 48.4377 4.19429 44.0645 4.18587C44.043 4.18587 44.0219 4.1852 44 4.1852C43.9776 4.1852 43.9572 4.18587 43.9351 4.18587C39.5621 4.1943 35.635 5.0702 32.133 6.82417L31.86 6.55202L25.9528 0.664627C25.0716 -0.221542 23.7614 -0.221542 22.881 0.664627C22 1.546 22 2.85353 22.8809 3.73402L28.595 9.45C26.7538 10.6784 25.0843 12.1828 23.6324 13.9033C20.1565 18.0234 17.9394 23.3855 17.6345 29.1951C17.6317 29.2556 17.6257 29.3154 17.623 29.3759C17.6043 29.7715 17.6 30.1692 17.5955 30.5683L70.4043 30.5683C70.4043 30.1692 70.395 29.7715 70.3769 29.3759C70.3741 29.3154 70.3681 29.2556 70.3646 29.1951C70.0604 23.3855 67.8427 18.023 64.3668 13.9036C62.9155 12.183 61.2453 10.6788 59.4041 9.44948L65.12 3.73439C66 2.85353 66 1.5458 65.12 0.664627ZM33 22.8784C31.1697 22.8784 29.6924 21.4011 29.6924 19.579C29.6924 17.7569 31.1697 16.2796 33 16.2796C34.814 16.2796 36.2912 17.757 36.2912 19.579C36.2912 21.4011 34.814 22.8784 33 22.8784ZM55 22.8784C53.1859 22.8784 51.7086 21.4011 51.7086 19.579C51.7086 17.7569 53.186 16.2796 55 16.2796C56.8302 16.2796 58.3074 17.7569 58.3074 19.579C58.3074 21.4011 56.83 22.8784 55 22.8784Z" fill="#D8FF98" fill-rule="evenodd" transform="translate(20 30)"/>
<path id="shadow" d="M54.4148 63.2741C55.9573 64.8166 57.82 65.5876 60 65.5876C62.1812 65.5876 64.043 64.8166 65.585 63.2744L117.687 11.173C119.23 9.63046 120 7.76883 120 5.58774C120 3.40665 119.23 1.545 117.687 0L117.684 0L65.585 52.1C64.043 53.6417 62.1812 54.4127 60 54.4127C57.82 54.4127 55.9573 53.6417 54.4148 52.1L2.31552 0L2.31311 0C0.770875 1.5447 0 3.40634 0 5.58743C0 7.76852 0.770875 9.63016 2.31311 11.1725L54.4148 63.2741L54.4148 63.2741Z" fill="#41661C" opacity="0.4" transform="translate(4 58.412)"/>
</svg>
