<?xml version="1.0" encoding="utf-8"?>
<svg width="128" height="128" viewBox="0 0 128 128" fill="none" xmlns="http://www.w3.org/2000/svg">
<g id="sheet" transform="translate(20 8)">
<path id="paper" d="M88 28L88 104C88 108.4 84.4 112 80 112L8 112C3.6 112 0 108.4 0 104L0 8C0 3.6 3.6 0 8 0L60 0Z" fill="#D1322A"/>
<path id="corner" d="M0 0L28 28L0 28Z" fill="#FFFFFF" opacity="0.4" transform="translate(60 0)"/>
</g>
<path d="M0 49.7906C0 49.7906 0 62.5826 0 62.5826C0 62.5826 20.57 65.6105 29.624 38.1866C29.624 38.1866 46 38.1866 46 38.1866L46 26.1866C46 26.1866 34.548 26.1866 34.548 26.1866C34.548 26.1866 38.896 12.1866 50 12.1866C50 12.1866 50 0.186558 50 0.186558C50 0.186558 32.72 -3.79344 21.616 25.0126C12.014 53.2225 0 49.7906 0 49.7906C0 49.7906 0 49.7906 0 49.7906Z" fill="#FFFFFF" transform="translate(39 46)"/>
</svg>
