<?xml version="1.0" encoding="utf-8"?>
<svg width="128" height="128" viewBox="0 0 128 128" xmlns="http://www.w3.org/2000/svg">
<path id="paper" d="M108 36L108 112C108 116.4 104.4 120 100 120L28 120C23.6 120 20 116.4 20 112L20 16C20 11.6 23.6 8 28 8L80 8Z" fill="#971579"/>
<path id="corner" d="M0 0L28 28L0 28Z" fill="#FF66F6" transform="translate(80 8)"/>
<g id="Xd" fill="#FF66F6" transform="translate(34 62)">
<path d="M31.9181 0.572851L21.4407 17.4369C21.4407 17.437 32.651 35.694 32.65 35.6938C32.7225 35.8225 32.7427 35.9734 32.7075 36.1164C32.6689 36.2484 32.538 36.333 32.3128 36.3699C32.3128 36.37 24.314 36.37 24.3139 36.3699C24.084 36.3931 23.8522 36.353 23.6437 36.2535C23.4352 36.1542 23.26 36 23.1311 35.8064C22.3788 34.342 21.628 33 20.877 31.548C20.1263 30.1 19.3284 28.6288 18.4834 27.126C17.6389 25.6247 16.8033 24.1038 15.9766 22.5633C15.9766 22.5633 15.92 22.5633 15.92 22.5633C15.1686 24.066 14.3895 25.5679 13.5829 27.0699C12.774 28.5723 11.976 30.065 11.1884 31.5481C10.3997 33.0323 9.59235 34.3984 8.76568 35.8629C8.70466 36.02 8.59556 36.1533 8.454 36.2443C8.31247 36.3354 8.14575 36.3793 7.9777 36.37C7.9777 36.37 0.259784 36.37 0.259784 36.3699C0.22808 36.3731 0.19604 36.3697 0.165733 36.36C0.135426 36.3502 0.107518 36.334 0.0837375 36.3129C0.0599584 36.2917 0.040842 36.2658 0.0276533 36.237C0.0144647 36.208 0 36.1764 0.00700463 36.1445C-0.0149094 36 0.015 35.8667 0.0910655 35.7502C0.0910655 35.7502 10.9632 18.0004 10.9632 18C10.9632 18 0.372686 0.516367 0.372686 0.516367C0.259717 0.366898 0.241866 0.2446 0.316201 0.150219C0.357832 0.1022 0.41 0.064428 0.468735 0.0399845C0.527483 0.0155385 0.591027 0.00507998 0.654438 0.00934362C0.654438 0. 8.59762 0 8.59762 0.00934362C8.7708 -0.000113726 8.94392 0.02886 9.10465 0.0940702C9.24 0.170536 9.35436 0.276378 9.44215 0.403731C10.1186 1.90615 10.8694 2.97935 11.6954 4.48063C12.5213 6 13.3569 7.46682 14.2 8.93094C15.0474 10.3955 15.8267 11.8789 16.5401 13.3813C16.54 13.3813 16.6 13.3813 16.5966 13.3813C17.3474 11.8417 18.1077 10.3396 18.8773 8.87479C19.6475 7.41 20.4362 5.936 21.2436 4.45272C22.051 2.96962 22.8292 1.92467 23.5815 0.46C23.6243 0.321 23.7 0.194983 23.807 0.0940702C23.946 0.0233314 24.1022 0 24.2573 0C24.2573 0 31.6371 0 31.6371 0C31.7082 -0.00817347 31.7831 0 31.85 0.0299251C31.916 0.0607 31.97 0.113185 32 0.178728C32.0354 0.244271 32.045 0.32 32 0.39061C32.0141 0.462215 31.9748 0.526492 31.918 0.57285C31.918 0.57285 31.918 0.57285 31.918 0.57285Z" transform="translate(0 2.664)"/>
<path d="M14.7133 39.998C12.1205 40.0374 9.55149 39.4986 7.19308 38.4205C4.99581 37.4036 3.15895 35.7438 1.9253 33.66C0.570282 31.2285 -0.0920715 28.4716 0.0103 25.6895C-0.0109444 23.104 0.64961 20.56 1.9253 18.3101C3.23975 16.0196 5.17245 14.1456 7.50228 12.9023C10.2288 11.4823 13.2736 10.7842 16.3465 10.8744C16.5346 10.8744 16.7786 10.8837 17.0788 10.9026C17.379 10.9219 18.0187 10.9502 18.432 10.987C18.432 10.987 18.432 1.02071 18.432 1.02071C18.4 0.784046 18.4618 0.5442 18.605 0.35309C18.7482 0.162057 18.9611 0.0351687 19.1973 0C19.1973 0 24.6494 0 24.6494 0C24.9192 0 25.1776 0.1083 25.3688 0.299136C25.5593 0.49 25.6672 0.748544 25.6679 1.01838C25.668 1.01838 25.6679 33.1253 25.6679 33.1253C25.668 33.7643 25.696 34.46 25.7518 35.2098C25.8084 35.9613 25.8557 36.6372 25.893 37.2374C25.9 37.3543 25.8717 37.4707 25.8111 37.5712C25.7511 37.6717 25.662 37.7518 25.556 37.8C23.8115 38.5627 21.9891 39.1294 20.1208 39.491C18.337 39.82 16.5273 40 14.7133 40C14.7133 39.998 14.7133 39.998 14.7133 40ZM18.301 33.0126C18.3 33.0126 18.3 17.634 18.3 17.634C17.9451 17.5527 17.5839 17.4963 17.22 17.4653C16.8363 17.4265 16.4507 17.4076 16.065 17.4088C14.698 17.3952 13.3471 17.704 12.1218 18.31C10.8092 18.9359 9.71515 19.942 8.98172 21.1977C8.24836 22.4535 7.90952 23.9 8 25.3515C7.98219 26.58 8.18282 27.8018 8.60112 28.9566C8.94142 29.8873 9.47962 30.7331 10.1786 31.4355C10.8474 32.0817 11.6572 32.5636 12.5441 32.8435C13.4809 33.147 14.4601 33.3 15.445 33.2943C15.9711 33.2943 16.4596 33.2755 16.9101 33.2379C17.3797 33.2058 17.8453 33.13 18.3 33.0126C18.301 33.0126 18.301 33.0126 18.301 33.0126Z" transform="translate(32.638 0)"/>
</g></svg>