<?xml version="1.0" encoding="utf-8"?>
<svg width="128" height="128" viewBox="0 0 128 128" xmlns="http://www.w3.org/2000/svg">
<defs>
<linearGradient id="gradient" x1="0" y1="0" x2="0" y2="1">
<stop offset="0" stop-color="#16A085"/>
<stop offset="1" stop-color="#663579"/>
</linearGradient>
</defs>
<g transform="translate(8 20)">
<path d="M84 88L8 88C3.6 88 0 84.4 0 80L0 8C0 3.6 3.6 0 8 0L104 0C108.4 0 112 3.6 112 8L112 60Z" fill="url(#gradient)"/>
<path d="M0 0L28 0L0 28Z" fill="#FFFFFF" opacity="27%" transform="translate(84 60)"/>
</g><g fill="#FFFFFF" stroke="#44484C" stroke-width="2" transform="translate(33 34)">
<path d="M32.36 18.5C32.36 23 25 27.74 25 33.3C25 39.76 32.36 42.5 55.5 42.5C55.5 42.5 55.5 46.25 55.5 46.25C32.36 46.25 23 41.6 23 33.3C23 26.8 30.5 22.2 30.5 18.5C30.5 15.72 27.74 0 0 0C27.74 0 32.36 13.87 32.36 18.5C32.36 18.5 32.36 18.5 32.36 18.5Z" fill="#232425" stroke="#232425" stroke-width="1" transform="translate(3 4)"/>
<circle r="4.5" transform="translate(4.5 4.5)"/>
<circle r="5" transform="translate(34 19)"/>
<circle r="5.5" transform="translate(27.5 37.5)"/>
</g></svg>
