<?xml version="1.0" encoding="utf-8"?>
<svg width="128" height="128" viewBox="0 0 128 128" xmlns="http://www.w3.org/2000/svg">
<defs>
<clipPath id="sheet">
<rect width="88" height="112" rx="8" x="20" y="8"/>
</clipPath>
<linearGradient id="brown">
<stop offset="0" stop-color="#865E3C"/>
<stop offset="50%" stop-color="#B5835A"/>
<stop offset="1" stop-color="#865E3C"/>
</linearGradient>
<linearGradient id="roller" x1="0" y1="0" x2="0" y2="1">
<stop offset="0" stop-color="#000000" stop-opacity="20%"/>
<stop offset="50%" stop-color="#000000" stop-opacity="0"/>
<stop offset="1" stop-color="#000000" stop-opacity="30%"/>
</linearGradient>
<filter id="blur">
<feGaussianBlur stdDeviation="1"/>
</filter>
</defs>
<path d="M90 28L90 105C90 110 86 114 81 114L9 114C4 114 0 110 0 105L0 9C0 4 4 0 9 0L62 0Z" fill="#F6F5F4" transform="translate(19 7)"/>
<g clip-path="url(#sheet)">
<g transform="translate(66 44) rotate(315 26 58)">
<g transform="translate(0 -62)" opacity="50%">
<rect width="12" height="72" fill="#3584E4"/>
<rect width="12" height="72" fill="#33D17A" x="12"/>
<rect width="12" height="72" fill="#F6D32D" x="24"/>
<rect width="12" height="72" fill="#E01B24" x="36"/>
</g><g fill="none" stroke-linejoin="round" transform="translate(24 10)">
<path d="M0 26L0 14L28 14L28 0L24 0" stroke="#9A9996" stroke-width="4"/>
<path d="M0 26L0 14L28 14L28 0L24 0" stroke="#F6F5F4" stroke-width="2" filter="url(#blur)"/>
</g><rect width="8" height="24" rx="4" x="20" y="34" fill="url(#brown)"/>
<path d="M0 0L4 0M0 2.5L4 2.5M0 5L4 5" fill="none" stroke="#865E3C" stroke-width="1" stroke-linecap="round" transform="translate(22 48)"/>
<rect width="16" height="20" fill="#3584E4" rx="4"/>
<rect width="16" height="20" fill="#E01B24" rx="4" x="32"/>
<rect width="12" height="20" fill="#33D17A" x="12"/>
<rect width="12" height="20" fill="#F6D32D" x="24"/>
<rect width="48" height="20" fill="url(#roller)" rx="4"/>
</g></g>
<path d="M90 28L90 105C90 110 86 114 81 114L9 114C4 114 0 110 0 105L0 9C0 4 4 0 9 0L62 0Z" fill="none" stroke="#77767B" stroke-width="2" stroke-linejoin="round" transform="translate(19 7)"/>
<path d="M0 0L28 28L0 28Z" fill="#C0BFBC" stroke="#77767B" stroke-width="2" stroke-linejoin="round" transform="translate(81 7)"/>
</svg>
