<?xml version="1.0" encoding="utf-8"?>
<svg width="128" height="128" viewBox="0 0 128 128" xmlns="http://www.w3.org/2000/svg">
<g id="sheet" stroke="#707070" stroke-width="2" stroke-linejoin="round" transform="translate(19 7)">
<path id="paper" fill="#F6F5F4" d="M61.5 0L90 28.5L90 105C90 110 86 114 81 114L9 114C4 114 0 110 0 105L0 9C0 4 4 0 9 0Z"/>
<path id="corner" fill="#C8C8C8" d="M0 0L28 28L0 28Z" transform="translate(62 0)"/>
</g><g id="text" fill="#5A5A5A" transform="translate(36 48)">
<rect width="28" height="2" x="28"/>
<rect width="28" height="2" x="28" y="8"/>
<rect width="28" height="2" x="28" y="16"/>
<rect width="28" height="2" x="28" y="24"/>
<rect width="56" height="2" y="32"/>
<rect width="56" height="2" y="40"/>
<rect width="56" height="2" y="48"/>
<rect width="28" height="2" y="56"/>
</g><path id="Sigma" d="M0 0L20 0L20 6L19 6L18 2L5 2L13 12L5 22L20 22L21 18L22 18L22 26L0 26L0 24L9 13L0 2Z" fill="#5A5A5A" transform="translate(36 48)"/>
</svg>
