<?xml version="1.0" encoding="utf-8"?>
<svg width="128" height="128" viewBox="0 0 128 128" fill="none" xmlns="http://www.w3.org/2000/svg">
  <defs>
    <linearGradient id="gradient_1" gradientUnits="userSpaceOnUse" x1="10.768" y1="8.032" x2="4.783" y2="2.048">
      <stop offset="0" stop-color="#E01B24" />
      <stop offset="1" stop-color="#F66151" />
    </linearGradient>
    <linearGradient id="gradient_2" gradientUnits="userSpaceOnUse" x1="8.385" y1="7.747" x2="4.024" y2="3.387">
      <stop offset="0" stop-color="#D0BB8E" />
      <stop offset="1" stop-color="#FFFFFF" />
    </linearGradient>
    <linearGradient id="gradient_3" gradientUnits="userSpaceOnUse" x1="7.79" y1="7.791" x2="2.471" y2="2.471">
      <stop offset="0" stop-color="#9A9996" />
      <stop offset="0.533" stop-color="#DEDDDA" />
      <stop offset="1" stop-color="#F6F5F4" />
    </linearGradient>
  </defs>
    <g id="sheet" transform="translate(18 6)">
      <path id="border" d="M92 29.1716L62.8323 0L10 0C7.23828 0 4.88118 0.976235 2.92871 2.92871C0.976236 4.88118 1.21307e-15 7.23828 1.21307e-15 10L1.21307e-15 106C1.21307e-15 108.762 0.976236 111.119 2.92871 113.071C4.88118 115.024 7.23827 116 10 116L82 116C84.7617 116 87.1188 115.024 89.0713 113.071C91.0238 111.119 92 108.762 92 106L92 29.1716Z" fill="#8BB5E6" fill-rule="evenodd" />
      <path id="paper" d="M88 28L88 104C88 108.419 84.4189 112 80 112L8 112C3.58112 112 0 108.419 0 104L0 8C0 3.58112 3.58112 0 8 0L60.0038 0L60 28L88 28Z" fill="#D3E3F9" fill-rule="evenodd" transform="translate(2 2)" />
    </g>
    <path id="codebar" d="M58.3086 0L58.3086 14.0117L60.625 14.0117L60.625 0L58.3086 0ZM59.4648 0L59.4648 14.0117L59.4648 0ZM52.293 0L52.293 14.0117L56.9219 14.0117L56.9219 0L52.293 0ZM54.6055 0L54.6055 14.0117L54.6055 0ZM48.5898 0L48.5898 14.0117L50.9062 14.0117L50.9062 0L48.5898 0ZM49.7461 0L49.7461 14.0117L49.7461 0ZM44.7031 0L44.7031 14.0117L47.0195 14.0117L47.0195 0L44.7031 0ZM45.8594 0L45.8594 14.0117L45.8594 0ZM40.8164 0L40.8164 14.0117L43.1289 14.0117L43.1289 0L40.8164 0ZM41.9727 0L41.9727 14.0117L41.9727 0ZM32.6719 0L32.6719 14.0117L39.6133 14.0117L39.6133 0L32.6719 0ZM36.1406 0L36.1406 14.0117L36.1406 0ZM23.3242 0L23.3242 14.0117L25.6367 14.0117L25.6367 0L23.3242 0ZM24.4805 0L24.4805 14.0117L24.4805 0ZM27.0273 0L27.0273 14.0117L31.6523 14.0117L31.6523 0L27.0273 0ZM29.3398 0L29.3398 14.0117L29.3398 0ZM17.3086 0L17.3086 14.0117L21.9336 14.0117L21.9336 0L17.3086 0ZM19.6211 0L19.6211 14.0117L19.6211 0ZM13.6055 0L13.6055 14.0117L15.918 14.0117L15.918 0L13.6055 0ZM14.7617 0L14.7617 14.0117L14.7617 0ZM9.71875 0L9.71875 14.0117L12.0312 14.0117L12.0312 0L9.71875 0ZM10.875 0L10.875 14.0117L10.875 0ZM3.70312 0L3.70312 14.0117L8.32812 14.0117L8.32812 0L3.70312 0ZM6.01562 0L6.01562 14.0117L6.01562 0ZM0 0L0 14.0117L2.3125 14.0117L2.3125 0L0 0ZM1.15625 0L1.15625 14.0117L1.15625 0Z" fill="#1A5FB4" fill-rule="evenodd" transform="translate(34 80)" />
    <g id="asterisks" transform="translate(34 99)">
      <path d="M3.28906 0L4.23047 3.98438L1.16797 1.40625L0.0234375 3.44141L3.96094 4.74609L0 5.99609L1.125 8.07031L4.23438 5.47266L3.28906 9.42969L5.96875 9.42969L5.10547 5.53125L8.11719 8.13672L9.27734 6.07812L5.36328 4.75391L9.38672 3.63281L8.24219 1.57812L5.07422 4L5.96875 0L3.28906 0Z" fill="#1A5FB4" transform="translate(50.285 0)" />
      <path d="M3.29297 0L4.23438 3.98438L1.16797 1.40625L0.0273438 3.44141L3.96484 4.74609L0 5.99609L1.12891 8.07031L4.23438 5.47266L3.29297 9.42969L5.97266 9.42969L5.10547 5.53125L8.12109 8.13672L9.28125 6.07812L5.36719 4.75391L9.38672 3.63281L8.24609 1.57812L5.07812 4L5.97266 0L3.29297 0Z" fill="#1A5FB4" transform="translate(37.711 0)" />
      <path d="M3.29297 0L4.23438 3.98438L1.16797 1.40625L0.0273438 3.44141L3.96094 4.74609L0 5.99609L1.125 8.07031L4.23438 5.47266L3.29297 9.42969L5.97266 9.42969L5.10547 5.53125L8.11719 8.13672L9.27734 6.07812L5.36719 4.75391L9.38672 3.63281L8.24609 1.57812L5.07812 4L5.96875 0L3.29297 0Z" fill="#1A5FB4" transform="translate(25.141 0)" />
      <path d="M3.28906 0L4.23047 3.98438L1.16797 1.40625L0.0234375 3.44141L3.96094 4.74609L0 5.99609L1.125 8.07031L4.23438 5.47266L3.28906 9.42969L5.96875 9.42969L5.10547 5.53125L8.11719 8.13672L9.27734 6.07812L5.36719 4.75391L9.38672 3.63281L8.24609 1.57812L5.07422 4L5.96875 0L3.28906 0Z" fill="#1A5FB4" transform="translate(12.57 0)" />
      <path d="M3.28906 0L4.23047 3.98438L1.16406 1.40625L0.0234375 3.44141L3.96094 4.74609L0 5.99609L1.125 8.07031L4.23047 5.47266L3.28906 9.42969L5.96875 9.42969L5.10547 5.53125L8.11719 8.13672L9.27734 6.07812L5.36328 4.75391L9.38672 3.63281L8.24219 1.57812L5.07422 4L5.96875 0L3.28906 0Z" fill="#1A5FB4" />
    </g>
    <g id="pencil" transform="matrix(-0.966 -0.258 -0.258 0.966 72.117 25.282)">
      <path id="path54" d="M0.944607 3.22426C0.944607 3.22426 3.22426 0.944608 3.22426 0.944608C4.48374 -0.314869 6.52724 -0.314869 7.78672 0.944608C7.78672 0.944608 11.2062 4.36409 11.2062 4.36409C12.4657 5.62357 12.4657 7.66706 11.2062 8.92654C11.2062 8.92654 8.92654 11.2062 8.92654 11.2062C7.66707 12.4657 5.62357 12.4657 4.36409 11.2062C4.36409 11.2062 0.944607 7.78672 0.944607 7.78672C-0.314869 6.52724 -0.314869 4.48374 0.944607 3.22426C0.944607 3.22426 0.944607 3.22426 0.944607 3.22426Z" fill="url(#gradient_1)" transform="translate(32.75 0)" />
      <path id="path56" d="M3.98939 8.86672L0 4.87732L0.887931 0L8.86672 7.97879L3.98939 8.86672Z" fill="url(#gradient_2)" transform="translate(0.888 35.146)" />
      <path id="path58" d="M0 4.87732L0.887931 0L4.87733 3.98939L0 4.87732Z" fill="#424048" transform="translate(0 40.023)" />
      <path id="path60" d="M5.01587 34.6356L0 29.6198L29.6198 0L34.6356 5.01587L5.01587 34.6356Z" fill="#5E5C64" transform="translate(3.829 7.576)" />
      <path id="path62" d="M2.27965 31.9214L0 29.6386L29.6386 0L31.9025 2.29855L2.27965 31.9214Z" fill="#77767B" transform="translate(1.776 5.504)" />
      <path id="path64" d="M0 29.6229L2.27965 31.9026L31.9183 2.26391L29.6229 0L0 29.6229Z" fill="#3D3846" transform="translate(7.475 11.222)" />
      <path id="path66" d="M0 2.27965L2.27965 0L10.2616 7.98194L7.97879 10.2616L0 2.27965Z" fill="url(#gradient_3)" transform="translate(31.415 3.224)" />
    </g>
</svg>