<?xml version="1.0" encoding="utf-8"?>
<svg width="128" height="128" viewBox="0 0 128 128" xmlns="http://www.w3.org/2000/svg">
  <defs>
    <linearGradient id="gradient_1" gradientUnits="userSpaceOnUse" x1="9.7" y1="3.355" x2="6.742" y2="0.398">
      <stop offset="0" stop-color="#9A9996" />
      <stop offset="0.5" stop-color="#FFFFFF" />
      <stop offset="1" stop-color="#C0BFBC" />
    </linearGradient>
    <linearGradient id="gradient_2" gradientUnits="userSpaceOnUse" x1="12.502" y1="9.915" x2="15.459" y2="12.873">
      <stop offset="0" stop-color="#9A9996" />
      <stop offset="0.5" stop-color="#FFFFFF" />
      <stop offset="1" stop-color="#C0BFBC" />
    </linearGradient>
    <linearGradient id="gradient_3" gradientUnits="userSpaceOnUse" x1="7.455" y1="12.505" x2="10.412" y2="9.547">
      <stop offset="0" stop-color="#9A9996" />
      <stop offset="0.5" stop-color="#FFFFFF" />
      <stop offset="1" stop-color="#C0BFBC" />
    </linearGradient>
    <linearGradient id="gradient_4" gradientUnits="userSpaceOnUse" x1="3.536" y1="4.4" x2="6.493" y2="1.443">
      <stop offset="0" stop-color="#9A9996" />
      <stop offset="0.5" stop-color="#FFFFFF" />
      <stop offset="1" stop-color="#C0BFBC" />
    </linearGradient>
    <linearGradient id="gradient_5" gradientUnits="userSpaceOnUse" x1="7.718" y1="14.179" x2="14.718" y2="7.179">
      <stop offset="0" stop-color="#865E3C" />
      <stop offset="0.5" stop-color="#B5835A" />
      <stop offset="1" stop-color="#865E3C" />
    </linearGradient>
    <linearGradient id="gradient_6" gradientUnits="userSpaceOnUse" x1="3.166" y1="3.742" x2="17.166" y2="17.742">
      <stop offset="0" stop-color="#1C71D8" />
      <stop offset="0.5" stop-color="#3584E4" />
      <stop offset="1" stop-color="#1A5FB4" />
    </linearGradient>
    <linearGradient id="gradient_7" gradientUnits="userSpaceOnUse" x1="4.022" y1="4.613" x2="18.022" y2="18.613">
      <stop offset="0" stop-color="#2EC27E" />
      <stop offset="0.5" stop-color="#33D17A" />
      <stop offset="1" stop-color="#26A269" />
    </linearGradient>
    <linearGradient id="gradient_8" gradientUnits="userSpaceOnUse" x1="4.28" y1="2.627" x2="18.28" y2="16.627">
      <stop offset="0" stop-color="#C01C28" />
      <stop offset="0.5" stop-color="#E01B24" />
      <stop offset="1" stop-color="#A51D2D" />
    </linearGradient>
    <linearGradient id="gradient_9" gradientUnits="userSpaceOnUse" x1="4.151" y1="4.484" x2="18.151" y2="18.484">
      <stop offset="0" stop-color="#F5C211" />
      <stop offset="0.5" stop-color="#F6D32D" />
      <stop offset="1" stop-color="#E5A50A" />
    </linearGradient>
  </defs>
    <g id="sheet" stroke="#707070" stroke-width="2" stroke-linejoin="round" transform="translate(19 7)">
<path id="paper" fill="#F6F5F4" d="M61.5 0L90 28.5L90 105C90 109.971 85.9712 114 81 114L9 114C4.02876 114 0 109.971 0 105L0 9C0 4.02876 4.02876 0 9 0L61.5 0Z"/>
<path id="corner" fill="#C8C8C8" d="M0 0L28 28L0 28Z" transform="translate(62 0)"/>
</g>
    <g id="paint" transform="translate(19.974 8)">
      <g id="rainbow-trail">
        <path id="rect1069-2" d="M7.74414 0C7.46714 0 7.19342 0.0138006 6.92383 0.0410156C6.65424 0.0682306 6.38781 0.108999 6.12695 0.162109C5.86609 0.215219 5.61018 0.281692 5.35938 0.359375C5.10857 0.437058 4.86248 0.526015 4.62305 0.626953C4.38361 0.727891 4.15057 0.84002 3.92383 0.962891C3.69708 1.08576 3.47641 1.2198 3.26367 1.36328C3.05094 1.50677 2.84584 1.65949 2.64844 1.82227C2.45103 1.98504 2.26278 2.15714 2.08203 2.33789C1.90128 2.51864 1.72918 2.70885 1.56641 2.90625C1.40363 3.10365 1.24895 3.30875 1.10547 3.52148C0.961985 3.73422 0.829903 3.95294 0.707031 4.17969C0.58416 4.40643 0.470078 4.64142 0.369141 4.88086C0.268202 5.1203 0.179245 5.36443 0.101562 5.61523C0.0644131 5.73517 0.0316124 5.8523 0 5.97461C0 5.97461 39.8633 45.8398 39.8633 45.8398L48.7363 36.9688L11.7676 0C11.7676 0 7.74414 0 7.74414 0Z" fill="#E01B24" fill-rule="evenodd" fill-opacity="0.5" transform="translate(0.261 0)" />
        <path id="path26083" d="M0.255859 0C0.221369 0.133471 0.18787 0.272081 0.160149 0.408203C0.107039 0.669064 0.0682182 0.935489 0.041008 1.20508C0.0137997 1.47467 0 1.74839 0 2.02539C0 2.02539 0 17.4883 0 17.4883L31.25 48.7383L40.1191 39.8652C40.1191 39.8652 0.255859 0 0.255859 0Z" fill="#F6D32D" fill-rule="evenodd" fill-opacity="0.5" transform="translate(0.005 5.975)" />
        <path id="rect1069-3-5-3" d="M0 0L3.8147e-06 17.7439L22.3816 40.1255L31.2539 31.2532L0 0Z" fill="#33D17A" fill-rule="evenodd" fill-opacity="0.5" transform="translate(0 23.459)" />
        <path id="path3144-9" d="M0 0L0 17.7447L13.5093 31.2539L22.3816 22.3816L0 0Z" fill="#3584E4" fill-rule="evenodd" fill-opacity="0.5" transform="translate(0 41.203)" />
      </g>
      <g id="arm" transform="translate(44.033 36.002)">
        <path id="path1208-1-9" d="M6.52655 0.612634C6.52655 0.612634 0.612625 6.52928 0.612625 6.52928C-0.204208 7.34612 -0.204208 8.6694 0.612625 9.48624C1.42947 10.3031 2.75275 10.3031 3.5696 9.48624C3.5696 9.48624 9.48351 3.57232 9.48351 3.57232C10.3004 2.75548 10.3004 1.42947 9.48351 0.612634C8.66668 -0.204211 7.34339 -0.204211 6.52655 0.612634C6.52655 0.612634 6.52655 0.612634 6.52655 0.612634Z" fill="url(#gradient_1)" transform="translate(4.931 0)" />
        <path id="path1210-0-4" d="M3.56958 24.7639C3.56958 24.7639 24.7639 3.5696 24.7639 3.5696C25.578 2.75275 25.578 1.42947 24.7639 0.612634C23.947 -0.204211 22.621 -0.204211 21.8042 0.612634C21.8042 0.612634 0.612628 21.8069 0.612628 21.8069C-0.204209 22.6238 -0.204209 23.947 0.612628 24.7639C1.42675 25.5807 2.75276 25.5807 3.56958 24.7639C3.56958 24.7639 3.56958 24.7639 3.56958 24.7639Z" fill="url(#gradient_2)" transform="translate(0.003 10.352)" />
        <path id="path1212-3-8" d="M0 0L0 5.0508L7.39513 12.4432C7.39513 12.4432 12.4432 12.4432 12.4432 12.4432C12.4432 11.9095 12.239 11.3731 11.8306 10.9647C11.8306 10.9647 1.47848 0.615356 1.47848 0.615356C1.07006 0.204216 0.533669 0 0 0C0 0 0 0 0 0Z" fill="url(#gradient_3)" transform="translate(12.936 0)" />
        <path id="path1214-0-1" d="M5.0508 0C5.0508 0 0 0 0 0C0 0.533669 0.204208 1.07006 0.615349 1.47849C0.615349 1.47849 7.51493 8.37806 7.51493 8.37806C8.3345 9.19762 9.65234 9.19762 10.4719 8.37806C11.2915 7.5585 11.2915 6.24067 10.4719 5.4211C10.4719 5.4211 5.0508 0 5.0508 0Z" fill="url(#gradient_4)" transform="translate(0 33.637)" />
      </g>
      <g id="bar" transform="translate(51.308 74.821)">
        <path id="path1224-7-0" d="M1.22526 1.22526C2.85894 -0.408421 5.5055 -0.408421 7.13918 1.22526C7.13918 1.22526 19.9554 14.0388 19.9554 14.0388C21.5864 15.6725 21.5864 18.3217 19.9554 19.9554C18.3217 21.5891 15.6724 21.5891 14.0388 19.9554C14.0388 19.9554 1.22526 7.13919 1.22526 7.13919C-0.408421 5.5055 -0.408421 2.85894 1.22526 1.22526C1.22526 1.22526 1.22526 1.22526 1.22526 1.22526Z" fill="url(#gradient_5)" />
        <path id="path1226-3-9" d="M0.204208 3.16118C0.204208 3.16118 3.16117 0.204208 3.16117 0.204208C3.43345 -0.0680695 3.87455 -0.0680695 4.14682 0.204208C4.41911 0.476494 4.41911 0.91758 4.14682 1.18986C4.14682 1.18986 1.18987 4.14955 1.18987 4.14955C0.91758 4.41911 0.476494 4.41911 0.204208 4.14955C-0.0680695 3.87727 -0.0680695 3.43345 0.204208 3.16118C0.204208 3.16118 0.204208 3.16118 0.204208 3.16118Z" fill="#865E3C" transform="translate(10.385 10.385)" />
        <path id="path1228-1-6" d="M0.204214 3.1639C0.204214 3.1639 3.16118 0.204214 3.16118 0.204214C3.43345 -0.0680714 3.87455 -0.0680714 4.14683 0.204214C4.41911 0.476492 4.41911 0.917593 4.14683 1.18987C4.14683 1.18987 1.18986 4.14955 1.18986 4.14955C0.917578 4.42183 0.476492 4.42183 0.204214 4.14955C-0.0680714 3.87727 -0.0680714 3.43619 0.204214 3.1639C0.204214 3.1639 0.204214 3.1639 0.204214 3.1639Z" fill="#865E3C" transform="translate(12.356 12.356)" />
        <path id="path1230-7-3" d="M0.204208 3.16118C0.204208 3.16118 3.16118 0.204214 3.16118 0.204214C3.43346 -0.0680714 3.87727 -0.0680714 4.14955 0.204214C4.42183 0.473776 4.42183 0.917593 4.14955 1.18986C4.14955 1.18986 1.18987 4.14684 1.18987 4.14684C0.91758 4.41911 0.476486 4.41911 0.204208 4.14684C-0.0680695 3.87455 -0.0680695 3.43345 0.204208 3.16118C0.204208 3.16118 0.204208 3.16118 0.204208 3.16118Z" fill="#865E3C" transform="translate(14.327 14.33)" />
      </g>
      <g id="rainbow-roll" transform="translate(12.86 36.373)">
        <path id="path1216-4-0" d="M1.2273 5.91665L4.18699 2.95969L7.14396 0L20.9431 13.8019C20.9431 13.8019 15.0292 19.7158 15.0292 19.7158C13.3901 21.3549 10.7517 21.3549 9.11526 19.7158C9.11526 19.7158 1.2273 11.8306 1.2273 11.8306C-0.4091 10.1914 -0.4091 7.55305 1.2273 5.91665C1.2273 5.91665 1.2273 5.91665 1.2273 5.91665Z" fill="url(#gradient_6)" transform="translate(0 24.885)" />
        <path id="path1218-4-8" d="M0 8.87089L8.87089 0L22.6728 13.8019L13.7992 22.6728L0 8.87089Z" fill="url(#gradient_7)" transform="translate(7.144 16.014)" />
        <path id="path1220-4-8" d="M2.95696 4.18631C2.95696 4.18631 5.91664 1.22935 5.91664 1.22935C7.55304 -0.409782 10.1914 -0.409782 11.8306 1.22935C11.8306 1.22935 19.7158 9.11457 19.7158 9.11457C21.3549 10.7537 21.3549 13.3894 19.7158 15.0285C19.7158 15.0285 13.8019 20.9424 13.8019 20.9424L0 7.14327L2.95696 4.18631Z" fill="url(#gradient_8)" transform="translate(24.886 0)" />
        <path id="path1222-4-5" d="M0 8.87089L8.87089 0L22.6728 13.7992L13.8019 22.6728L0 8.87089Z" fill="url(#gradient_9)" transform="translate(16.015 7.143)" />
      </g>
    </g>
</svg>
