<?xml version="1.0" encoding="utf-8"?>
<svg width="128" height="128" viewBox="0 0 128 128" xmlns="http://www.w3.org/2000/svg">
<rect width="90" height="114" rx="9" x="19" y="7" fill="#000000" stroke="#777777" stroke-width="2" stroke-opacity="50%"/>
<g fill="none" stroke="white" stroke-width="2" stroke-linecap="round" stroke-linejoin="round" transform="translate(39 27)">
<rect width="8" height="14" transform="translate(42 60)"/>
<path d="M0 0L4 0L4 14L0 14L8 14L8 10" transform="translate(28 60)"/>
<path d="M0 0L4 0L4 14L0 14L8 14L8 10" transform="translate(14 60)"/>
<rect width="8" height="14" transform="translate(0 60)"/>
<path d="M0 0L4 0L4 14L0 14L8 14L8 10" transform="translate(42 40)"/>
<rect width="8" height="14" transform="translate(28 40)"/>
<rect width="8" height="14" transform="translate(14 40)"/>
<path d="M0 0L4 0L4 14L0 14L8 14L8 10" transform="translate(0 40)"/>
<rect width="8" height="14" transform="translate(42 20)"/>
<path d="M0 0L4 0L4 14L0 14L8 14L8 10" transform="translate(28 20)"/>
<rect width="8" height="14" transform="translate(14 20)"/>
<rect width="8" height="14" transform="translate(0 20)"/>
<rect width="8" height="14" transform="translate(42 0)"/>
<rect width="8" height="14" transform="translate(28 0)"/>
<path d="M0 0L4 0L4 14L0 14L8 14L8 10" transform="translate(14 0)"/>
<rect width="8" height="14"/>
</g></svg>
