<?xml version="1.0" encoding="utf-8"?>
<svg width="128" height="128" viewBox="0 0 128 128" xmlns="http://www.w3.org/2000/svg">
<path d="M88 28L88 104C88 108.4 84.4 112 80 112L8 112C3.6 112 0 108.4 0 104L0 8C0 3.6 3.6 0 8 0L60 0Z" fill="#E66100" transform="translate(20 8)"/>
<path d="M28 28L0 28L0 0Z" fill="#FFA348" transform="translate(80 8)"/>
<circle r="6" cx="42" cy="98" fill="#F6F5F4"/>
<g fill="none" stroke="#F6F5F4" stroke-width="8">
<path d="M0 0C13.2 0 24 10.8 24 24" transform="translate(36 80)"/>
<path d="M0 0C22 0 40 18 40 40" transform="translate(36 64)"/>
</g></svg>
