<?xml version="1.0" encoding="utf-8"?>
<svg width="128" height="128" viewBox="0 0 128 128" fill="#EC1C24" xmlns="http://www.w3.org/2000/svg">
<defs>
<linearGradient id="paper" gradientUnits="userSpaceOnUse" x1="69" y1="0" x2="82" y2="0">
<stop offset="0" stop-color="#DEDDDA"/>
<stop offset="0.6" stop-color="#FFFFFF"/>
<stop offset="1" stop-color="#C0BFBC"/>
</linearGradient>
<linearGradient id="velvet" gradientUnits="userSpaceOnUse" x1="40" y1="0" x2="54" y2="0">
<stop offset="0" stop-color="#EC1C24"/>
<stop offset="1" stop-color="#A01010"/>
</linearGradient>
<clipPath id="between">
<rect width="24" height="96"/>
</clipPath>
<filter id="shadow" x="-14" width="24">
<feDropShadow dx="0" dy="0" flood-color="#585858" stdDeviation="4"/>
</filter>
</defs>
<rect id="sheet" width="112" height="88" rx="8" x="8" y="20"/>
<rect id="border" width="30" height="84" rx="10" x="54" y="6"/>
<rect id="border" width="28" height="84" rx="10" x="38" y="10"/>
<rect id="back" width="20" height="100" rx="10" x="62" y="8" fill="url(#paper)"/>
<rect id="fold" width="54" height="20" rx="10" fill="url(#velvet)" transform="translate(26 88)"/>
<rect id="back" width="16" height="96" rx="8" x="48" y="12" fill="#DEDDDA"/>
<rect id="fold" width="54" height="16" rx="8" fill="url(#velvet)" transform="translate(8 92)"/>
<rect id="page" width="24" height="80" rx="8" x="40" y="12" fill="#DEDDDA"/>
<g clip-path="url(#between)" transform="translate(40 12)">
<rect id="border" width="20" height="84" rx="10" filter="url(#shadow)" transform="translate(14 -6)"/></g>
<rect id="page" width="26" height="80" rx="8" x="56" y="8" fill="url(#paper)"/>
</svg>