<?xml version="1.0" encoding="utf-8"?>
<svg width="128" height="128" viewBox="0 0 128 128" xmlns="http://www.w3.org/2000/svg">
<path d="M84 88L8 88C3.6 88 0 84.4 0 80L0 8C0 3.6 3.6 0 8 0L104 0C108.4 0 112 3.6 112 8L112 60Z" fill="#3584E4" transform="translate(8 20)"/>
<g stroke-width="2"><g stroke="#62A0EA">
<line x1="12" y1="93" x2="105" y2="93"/>
<line x1="12" y1="35" x2="116" y2="35"/>
<line x1="23" y1="24" x2="23" y2="93"/>
<line x1="15" y1="35" x2="15" y2="93"/>
<line x1="105" y1="24" x2="105" y2="93"/>
<line x1="23" y1="43" x2="116" y2="43"/>
<line x1="23" y1="27" x2="105" y2="27"/>
<line x1="113" y1="35" x2="113" y2="43"/>
<line x1="33" y1="43" x2="33" y2="60"/>
<line x1="33" y1="72" x2="33" y2="93"/>
<line x1="39" y1="72" x2="39" y2="82"/>
<line x1="47" y1="43" x2="47" y2="82"/>
<line x1="23" y1="63" x2="36" y2="63"/>
<line x1="44" y1="61" x2="105" y2="61"/>
<line x1="44" y1="73" x2="105" y2="73"/>
<line x1="23" y1="75" x2="36" y2="75"/>
<line x1="39" y1="79" x2="47" y2="79"/>
</g><g fill="none" stroke="#FFFFFF">
<rect width="82" height="58" x="23" y="35"/>
<rect width="82" height="8" x="23" y="35"/>
<line x1="46" y1="73" x2="86" y2="73"/>
<line x1="46" y1="61" x2="86" y2="61"/>
<circle r="3" cx="36" cy="72"/>
<circle r="3" cx="36" cy="60"/>
</g></g>
<path d="M0 28L0 0L28 0Z" fill="#99C1F1" transform="translate(92 80)"/>
</svg>
