<?xml version="1.0" encoding="utf-8"?>
<svg width="128" height="128" viewBox="0 0 128 128" xmlns="http://www.w3.org/2000/svg">
<g id="sheet" stroke="#707070" stroke-width="2" stroke-linejoin="round" transform="translate(19 7)">
<path id="paper" fill="#F6F5F4" d="M61.5 0L90 28.5L90 105C90 109.971 85.9712 114 81 114L9 114C4.02876 114 0 109.971 0 105L0 9C0 4.02876 4.02876 0 9 0L61.5 0Z"/>
<path id="corner" fill="#C8C8C8" d="M0 0L28 28L0 28Z" transform="translate(62 0)"/>
</g><g id="chromatic" transform="translate(34 46)">
<path d="M0 7.77176L12.3742 20.1456C13.903 18.6168 15.8257 17.4822 17.9771 16.9072L13.4467 0C8.2834 1.38 3.66879 4.10297 0 7.77176L0 7.77176Z" fill="#B00144" transform="translate(8.787 1.015)"/>
<path d="M0 13.4467C1.38001 8.2834 4.103 3.66878 7.77177 0L20.146 12.3738C18.6173 13.9025 17.4828 15.8253 16.9078 17.9767L0 13.4467L0 13.4467Z" fill="#702083" transform="translate(1.015 8.787)"/>
<path d="M17.5 7.76582C17.5 6.6468 17.647 5.56211 17.923 4.53L1 0C0.353 2.47717 0 5.08063 0 7.76654C0 10.4524 0.352962 13.056 1.015 15.533L17.923 11C17.6471 9.97 17.5 8.885 17.5 7.76582L17.5 7.76582Z" fill="#472383" transform="translate(0 22.233)"/>
<path d="M0 4.53088L16.908 0C17.483 2.15134 18.6176 4.07405 20.1463 5.60267L7.77176 17.9776C4.10296 14.3088 1.38 9.69419 0 4.53088L0 4.53088Z" fill="#0F3F94" transform="translate(1.015 33.236)"/>
<path d="M0 12.3749L12.3745 0C13.9032 1.52861 15.8259 2.66313 17.9772 3.2381L13.4467 20.1467C8.2834 18.7667 3.66879 16.0437 0 12.3749L0 12.3749Z" fill="#007EC8" transform="translate(8.787 38.838)"/>
<path d="M0 16.9086L4.53055 0C5.56268 0.275856 6.64744 0.42292 7.76654 0.42292C8.88563 0.42292 9.97037 0.27586 11.0025 1.14441e-05L15.533 16.9086C13.0559 17.5707 10.4524 17.9236 7.76652 17.9236C5.08062 17.9236 2.47717 17.5707 0 16.9086L0 16.9086Z" fill="#4DAD30" transform="translate(22.233 42.076)"/>
<path d="M4.53053 20.1467L0 3.23811C2.15134 2.66313 4.07407 1.52861 5.60273 0L17.9773 12.3749C14.3085 16.0437 9.69384 18.7667 4.53053 20.1467L4.53053 20.1467Z" fill="#AFCB05" transform="translate(33.236 38.838)"/>
<path d="M12.3745 17.9776L0 5.60267C1.52867 4.07405 2.66326 2.15134 3.2383 0L20.1463 4.53087C18.7663 9.69418 16.0433 14.3088 12.3745 17.9776L12.3745 17.9776Z" fill="#FEED01" transform="translate(38.839 33.236)"/>
<path d="M16.908 15.533L0 11C0.275906 9.97 0.423 8.885 0.423 7.76582C0.423 6.6468 0.276 5.56211 0 4.53004L16.908 0C17.57 2.47717 17.923 5.08063 17.923 7.76654C17.923 10.4524 17.57 13.0558 16.908 15.533L16.908 15.533Z" fill="#FBB901" transform="translate(42.077 22.233)"/>
<path d="M12.3742 0C16.043 3.66878 18.766 8.28338 20.146 13.4467L3.23816 17.9767C2.66319 15.8253 1.52865 13.9025 0 12.3738L12.3742 0L12.3742 0Z" fill="#F29200" transform="translate(38.84 8.787)"/>
<path d="M17.9771 7.77174L5.60287 20.1456C4.0742 18.6168 2.15142 17.4822 0 16.9072L4.53037 0C9.69367 1.38 14.3083 4.10296 17.9771 7.77174L17.9771 7.77174Z" fill="#E74C0A" transform="translate(33.236 1.015)"/>
<path d="M0 1.01504C2.47716 0.352965 5.08061 0 7.7665 0C10.4524 0 13.0558 0.352962 15.533 1.015L11 17.9222C9.97044 17.6464 8.88564 17.5 7.76648 17.5C6.64734 17.5 5.56256 17.6464 4.5304 17.9222L0 1.015L0 1.015Z" fill="#E3010F" transform="translate(22.234 0)"/>
</g></svg>
