<?xml version="1.0" encoding="utf-8"?>
<svg width="128" height="128" viewBox="0 0 128 128" xmlns="http://www.w3.org/2000/svg">
<g id="sheet" transform="translate(20 8)">
<path id="paper" d="M88 28L88 104C88 108.4 84.4 112 80 112L8 112C3.6 112 0 108.4 0 104L0 8C0 3.6 3.6 0 8 0L60 0Z" fill="#FF6F36"/>
<path id="corner" d="M0 0L28 28L0 28Z" fill="#FFFFFF" transform="translate(60 0)" opacity="0.5"/>
</g><g fill="#FFFFFF" transform="translate(36 48)">
<rect width="18" height="2" x="38"/>
<rect width="18" height="2" x="38" y="8"/>
<rect width="18" height="2" x="38" y="16"/>
<rect width="18" height="2" x="38" y="24"/>
<rect width="18" height="2" x="38" y="32"/>
<rect width="56" height="2" y="40"/>
<rect width="56" height="2" y="48"/>
<rect width="28" height="2" y="56"/>
</g><g id="piechart" fill="#FFFFFF" transform="translate(35 47)">
<path id="pacman" d="M0 15C0 6.71573 6.71573 0 15 0L15 15L30 15C30 23.2843 23.2843 30 15 30C6.71573 30 0 23.2843 0 15Z" transform="translate(0 4)"/>
<path id="corner" d="M0 0C8.28427 0 15 6.71573 15 15L0 15L0 0Z" transform="translate(19 0)"/>
</g></svg>
