<?xml version="1.0" encoding="utf-8"?>
<svg width="128" height="128" viewBox="0 0 128 128" fill="none" xmlns="http://www.w3.org/2000/svg">
  <defs>
    <linearGradient id="gradient_1" gradientUnits="userSpaceOnUse" x1="16" y1="18" x2="16" y2="42">
      <stop offset="0" stop-color="#113E74" />
      <stop offset="0.161" stop-color="#1A5FB4" />
      <stop offset="0.271" stop-color="#76AAEB" />
      <stop offset="0.396" stop-color="#154A8D" />
      <stop offset="1" stop-color="#1A5FB4" />
    </linearGradient>
    <radialGradient id="gradient_2" gradientUnits="userSpaceOnUse" cx="0" cy="0" r="1" gradientTransform="matrix(26 0 0 18.891 19.062 10.711)">
      <stop offset="0" stop-color="#F58B8F" />
      <stop offset="1" stop-color="#ED333B" />
    </radialGradient>
  </defs>
    <g id="sheet" transform="translate(18 6)">
      <path id="border" d="M92 29.1716L62.8323 0L10 0C7.23828 0 4.88118 0.976235 2.92871 2.92871C0.976236 4.88118 1.21307e-15 7.23828 1.21307e-15 10L1.21307e-15 106C1.21307e-15 108.762 0.976236 111.119 2.92871 113.071C4.88118 115.024 7.23827 116 10 116L82 116C84.7617 116 87.1188 115.024 89.0713 113.071C91.0238 111.119 92 108.762 92 106L92 29.1716Z" fill="#8BB5E6"/>
      <path id="paper" d="M88 28L88 104C88 108.4 84.4 112 80 112L8 112C3.6 112 0 108.4 0 104L0 8C0 3.6 3.6 0 8 0L60 0L60 28Z" fill="#D3E3F9" transform="translate(2 2)"/>
    </g>
    <path id="codebar" d="M58.3086 0L58.3086 14.0117L60.625 14.0117L60.625 0L58.3086 0ZM59.4648 0L59.4648 14.0117L59.4648 0ZM52.293 0L52.293 14.0117L56.9219 14.0117L56.9219 0L52.293 0ZM54.6055 0L54.6055 14.0117L54.6055 0ZM48.5898 0L48.5898 14.0117L50.9062 14.0117L50.9062 0L48.5898 0ZM49.7461 0L49.7461 14.0117L49.7461 0ZM44.7031 0L44.7031 14.0117L47.0195 14.0117L47.0195 0L44.7031 0ZM45.8594 0L45.8594 14.0117L45.8594 0ZM40.8164 0L40.8164 14.0117L43.1289 14.0117L43.1289 0L40.8164 0ZM41.9727 0L41.9727 14.0117L41.9727 0ZM32.6719 0L32.6719 14.0117L39.6133 14.0117L39.6133 0L32.6719 0ZM36.1406 0L36.1406 14.0117L36.1406 0ZM23.3242 0L23.3242 14.0117L25.6367 14.0117L25.6367 0L23.3242 0ZM24.4805 0L24.4805 14.0117L24.4805 0ZM27.0273 0L27.0273 14.0117L31.6523 14.0117L31.6523 0L27.0273 0ZM29.3398 0L29.3398 14.0117L29.3398 0ZM17.3086 0L17.3086 14.0117L21.9336 14.0117L21.9336 0L17.3086 0ZM19.6211 0L19.6211 14.0117L19.6211 0ZM13.6055 0L13.6055 14.0117L15.918 14.0117L15.918 0L13.6055 0ZM14.7617 0L14.7617 14.0117L14.7617 0ZM9.71875 0L9.71875 14.0117L12.0312 14.0117L12.0312 0L9.71875 0ZM10.875 0L10.875 14.0117L10.875 0ZM3.70312 0L3.70312 14.0117L8.32812 14.0117L8.32812 0L3.70312 0ZM6.01562 0L6.01562 14.0117L6.01562 0ZM0 0L0 14.0117L2.3125 14.0117L2.3125 0L0 0ZM1.15625 0L1.15625 14.0117L1.15625 0Z" fill="#1A5FB4" fill-rule="evenodd" transform="translate(33.711 80)" />
    <path d="M0 0L16 0C16 0 16 20 16 20C16 22.2109 17.7891 24 20 24C22.2109 24 24 25.7891 24 28C24 28 24 42.1562 24 42.1562L16 36.1562L8 42.1562C8 42.1562 8 28 8 28C8 25.7891 6.21094 24 4 24C1.78906 24 0 22.2109 0 20C0 20 0 0 0 0Z" fill="url(#gradient_1)" fill-rule="evenodd" transform="translate(38 34)" />
    <path d="M32.9373 32.0864C31.449 33.6098 28.8631 33.0434 26.9881 34.0591C25.2615 34.9966 24.4647 37.4106 22.5272 37.7388C20.4256 38.0981 18.6678 36.1177 16.5545 35.8403C14.6053 35.5825 12.5428 37.0669 10.7811 36.1958C8.8709 35.2505 8.60918 32.6138 7.06621 31.1489C5.63653 29.7934 3.09746 29.7817 2.18731 28.0395C1.19512 26.1528 2.53496 23.8677 2.14824 21.7739C1.78887 19.8403 -0.258005 18.3364 0.0271511 16.3911C0.331839 14.2817 2.76153 13.2231 3.67949 11.2973C4.52324 9.52391 3.74981 7.10594 5.12481 5.69969C6.61309 4.17234 9.20293 4.74266 11.074 3.72312C12.8006 2.78562 13.5975 0.375467 15.535 0.043437C17.6365 -0.315938 19.3943 1.66453 21.5076 1.94578C23.4568 2.19969 25.5193 0.719218 27.2811 1.59031C29.1912 2.53562 29.4529 5.17234 30.9959 6.63719C32.4256 7.99266 34.9647 8.00047 35.8787 9.74266C36.867 11.6294 35.5272 13.9145 35.9139 16.0122C36.2732 17.9458 38.3201 19.4458 38.035 21.3911C37.7303 23.5005 35.3006 24.563 34.3826 26.4848C33.5389 28.2622 34.3123 30.6802 32.9373 32.0864C32.9373 32.0864 32.9373 32.0864 32.9373 32.0864Z" fill="url(#gradient_2)" fill-rule="evenodd" transform="translate(26.938 15.289)" />
    <g id="asterisks" transform="translate(34 98.527)">
      <path d="M3.28906 0L4.23047 3.98438L1.16797 1.40625L0.0234375 3.44141L3.96094 4.74609L0 5.99609L1.125 8.07031L4.23438 5.47266L3.28906 9.42969L5.96875 9.42969L5.10547 5.53125L8.11719 8.13672L9.27734 6.07812L5.36328 4.75391L9.38672 3.63281L8.24219 1.57812L5.07422 4L5.96875 0L3.28906 0Z" fill="#1A5FB4" transform="translate(50.285 0)" />
      <path d="M3.29297 0L4.23438 3.98438L1.16797 1.40625L0.0273438 3.44141L3.96484 4.74609L0 5.99609L1.12891 8.07031L4.23438 5.47266L3.29297 9.42969L5.97266 9.42969L5.10547 5.53125L8.12109 8.13672L9.28125 6.07812L5.36719 4.75391L9.38672 3.63281L8.24609 1.57812L5.07812 4L5.97266 0L3.29297 0Z" fill="#1A5FB4" transform="translate(37.711 0)" />
      <path d="M3.29297 0L4.23438 3.98438L1.16797 1.40625L0.0273438 3.44141L3.96094 4.74609L0 5.99609L1.125 8.07031L4.23438 5.47266L3.29297 9.42969L5.97266 9.42969L5.10547 5.53125L8.11719 8.13672L9.27734 6.07812L5.36719 4.75391L9.38672 3.63281L8.24609 1.57812L5.07812 4L5.96875 0L3.29297 0Z" fill="#1A5FB4" transform="translate(25.141 0)" />
      <path d="M3.28906 0L4.23047 3.98438L1.16797 1.40625L0.0234375 3.44141L3.96094 4.74609L0 5.99609L1.125 8.07031L4.23438 5.47266L3.28906 9.42969L5.96875 9.42969L5.10547 5.53125L8.11719 8.13672L9.27734 6.07812L5.36719 4.75391L9.38672 3.63281L8.24609 1.57812L5.07422 4L5.96875 0L3.28906 0Z" fill="#1A5FB4" transform="translate(12.57 0)" />
      <path d="M3.28906 0L4.23047 3.98438L1.16406 1.40625L0.0234375 3.44141L3.96094 4.74609L0 5.99609L1.125 8.07031L4.23047 5.47266L3.28906 9.42969L5.96875 9.42969L5.10547 5.53125L8.11719 8.13672L9.27734 6.07812L5.36328 4.75391L9.38672 3.63281L8.24219 1.57812L5.07422 4L5.96875 0L3.28906 0Z" fill="#1A5FB4" />
    </g>
    <path d="M14 0C21.7305 0 28 6.26953 28 14C28 21.7305 21.7305 28 14 28C6.26953 28 0 21.7305 0 14C0 6.26953 6.26953 0 14 0C14 0 14 0 14 0Z" fill="#A9141B" fill-rule="evenodd" transform="translate(32 21.293)" />
    <path d="M14 0C21.7305 0 28 6.26953 28 14C28 21.7305 21.7305 28 14 28C6.26953 28 0 21.7305 0 14C0 6.26953 6.26953 0 14 0C14 0 14 0 14 0Z" fill="#E01B24" fill-rule="evenodd" transform="translate(32 20)" />
</svg>