<?xml version="1.0" encoding="utf-8"?>
<svg width="128" height="128" viewBox="0 0 128 128" xmlns="http://www.w3.org/2000/svg">
<path d="M0 0L0 18L80 18C85 18 88 14.4 88 10L88 0Z" fill="#557919" transform="translate(20 102)"/>
<rect width="8" height="10" x="20" y="110" fill="#191622"/>
<linearGradient id="pages">
<stop offset="90%" stop-color="#DEDDDA"/>
<stop offset="95%" stop-color="#F6F5F4"/>
<stop offset="1" stop-color="#C0BFBC"/>
</linearGradient>
<path d="M0 8L0 14L78 14C82.4 14 86 10.4 86 6L86 0C86 4.4 82.4 8 78 8Z" fill="url(#pages)" transform="translate(22 104)"/>
<path d="M0 0L0 102L80 102C85 102 88 98.4 88 94L88 8C88 3.6 85 0 80 0Z" fill="#85B916" transform="translate(20 8)"/>
<rect width="8" height="102" fill="#424048" x="20" y="8"/>
<rect width="2" height="102" fill="#FFFFFF" x="22" y="8" opacity="22%"/>
<path d="M21 27L36 12L24 0L0 24L24 48L51 21" fill="none" stroke="#FFFFFF" stroke-width="8.5" transform="translate(44 36)"/>
</svg>
