<?xml version="1.0" encoding="utf-8"?>
<svg width="128" height="128" viewBox="0 0 128 128" xmlns="http://www.w3.org/2000/svg">
  <defs>
    <linearGradient id="gradient_1" gradientUnits="userSpaceOnUse" x1="24.358" y1="5.578" x2="41.866" y2="94.828">
      <stop offset="0" stop-color="#B9E5FF" stop-opacity="0.102" />
      <stop offset="1" stop-color="#FFFFFF" stop-opacity="0.361" />
    </linearGradient>
  </defs>
		<path id="paper" d="M108 36L108 112C108 116.4 104.4 120 100 120L28 120C23.6 120 20 116.4 20 112L20 16C20 11.6 23.6 8 28 8L80 8Z" fill="#2A7BB1"/>
      <path id="corner" d="M0 0L28 28L0 28Z" fill="#FFFFFF" opacity="0.3" transform="translate(80 8)"/>
    <path id="ink" d="M39.0453 42.1642C23.4032 72.2299 43.5562 101.987 43.5562 101.987C43.7481 102.536 17.7504 85.807 0 62.9346L0 8C0 3.58112 3.58112 0 8 0L50.9856 0C51.2866 12.5372 46.8597 26.9721 39.0453 42.1642Z" fill="url(#gradient_1)" fill-rule="evenodd" transform="translate(20 8)" />
    <g id="pen" transform="translate(64 50)">
      <g fill="#C59D47" fill-rule="evenodd">
        <path id="hrot-6" d="M28.4991 0C24.9733 0.0118103 25.6966 1.99062 25.1003 2.57031C21.3471 11.0452 13.4858 23.0092 12.3763 25.1484C9.25459 29.4737 2.64423 50.8209 0 59.959C0 59.959 0.18947 59.969 0.18947 59.969C0.18947 59.968 0.261579 59.7684 0.261777 59.7678C0.261777 59.7678 0.259778 59.7678 0.259778 59.7678C0.304682 59.631 0.569851 58.9486 0.628958 58.7756C1.52315 56.0425 3.65873 50.2358 6.00649 44.2307C6.0997 43.9922 6.17708 43.8157 6.27019 43.5784C6.2962 43.5104 6.3047 43.4821 6.3307 43.4143C7.62728 40.0323 8.887 36.7968 9.84083 34.4182C10.3178 33.2289 10.7176 32.2542 11.0089 31.5803C11.1546 31.2434 11.2731 30.9829 11.3625 30.803C11.4072 30.713 11.4435 30.6446 11.4797 30.5881C11.495 30.5642 11.512 30.5408 11.5363 30.5139C11.4956 29.9484 11.8062 29.0252 12.3372 28.133C12.9827 27.0582 13.7928 26.2876 14.3003 26.2659C14.3895 26.262 14.4669 26.2817 14.5307 26.3245C14.7405 26.4642 14.7937 26.8447 14.6787 27.3821C14.5636 27.9195 14.2898 28.5697 13.9174 29.1897C13.3763 30.0829 12.7132 30.7762 12.2102 30.9748C12.2102 30.9748 12.1887 31.0041 12.1887 31.0041C12.0384 31.2055 11.7357 31.7756 11.3605 32.5784C10.9852 33.3811 10.5261 34.4293 10.0107 35.6487C9.05414 37.9119 7.88913 40.821 6.72716 43.7815C4.16178 50.4775 1.39512 57.8063 0.677677 59.9924C0.677677 59.9924 0.857388 60.0004 0.857388 60.0004C0.60701 59.7665 13.1787 41.1272 28.5478 38.5961C28.5951 18.5032 37.8351 11.112 38.42 9.85395C37.1851 3.17882 33.5588 0.65844 30.2863 0.127384C29.593 0.0390358 29.0027 -0.00125504 28.499 0.000431061C28.499 0.000431061 28.4991 0 28.4991 0Z" />
        <path d="M28.5267 -0.999619Q28.5113 -1.00005 28.4958 -0.999994Q25.126 -0.988707 24.4306 1.63167Q24.3746 1.84271 24.3494 1.9099Q24.2481 2.0251 24.186 2.16538Q21.4803 8.27488 13.7083 20.9689Q11.9011 23.9205 11.5241 24.621Q7.57427 30.186 -0.960592 59.681Q-1.01588 59.8721 -0.993843 60.0698Q-0.971804 60.2675 -0.875791 60.4417Q-0.779778 60.6159 -0.624407 60.7401Q-0.469037 60.8643 -0.277963 60.9196Q-0.167535 60.9515 -0.0527376 60.9576L0.136732 60.9676Q0.263056 60.9743 0.387063 60.9493Q0.507469 60.9858 0.633186 60.9914L0.812897 60.9994Q1.01161 61.0083 1.19859 60.9404Q1.38556 60.8726 1.53234 60.7383Q1.75374 60.5358 1.82707 60.2448Q1.83095 60.2377 1.83549 60.2294Q1.94819 60.0234 2.18285 59.6632Q2.78252 58.7426 3.71318 57.5185Q6.34429 54.0575 9.55046 50.8688Q19.3476 41.1248 28.7103 39.5828Q28.7972 39.5685 28.8803 39.5393Q28.9633 39.51 29.04 39.4667Q29.1166 39.4233 29.1845 39.3673Q29.2524 39.3112 29.3095 39.2441Q29.3665 39.1771 29.411 39.1011Q29.4555 39.0251 29.486 38.9425Q29.5165 38.8599 29.5321 38.7732Q29.5476 38.6865 29.5478 38.5985Q29.5873 21.7851 38.4344 11.4576Q39.1841 10.5824 39.3268 10.2755Q39.3925 10.1343 39.4121 9.97974Q39.4316 9.8252 39.4033 9.67203Q37.6718 0.312805 30.4465 -0.859702Q30.4297 -0.862437 30.4127 -0.864595Q29.3516 -0.999808 28.5267 -0.999619ZM29.4982 0.0436674C29.1319 0.0134072 28.8001 -0.000572832 28.4991 0.000430674L28.499 0.000431061L28.4991 0L28.499 3.88877e-07C28.1195 0.00127618 27.7893 0.0253379 27.5013 0.0679887C25.8138 0.317911 25.5781 1.20612 25.3971 1.88816C25.322 2.17114 25.2564 2.41862 25.1003 2.57031C21.3471 11.0452 13.4858 23.0092 12.3763 25.1484C10.4669 27.794 7.25225 36.808 4.43837 45.5012C3.46634 48.5041 2.54214 51.4688 1.73607 54.1194C1.21757 55.8245 0.747946 57.3996 0.345924 58.7714C0.316853 58.8706 0.288135 58.9687 0.259777 59.0657C0.25054 59.0973 0.241341 59.1288 0.23218 59.1602C0.184403 59.3239 0.137674 59.4844 0.0920274 59.6415C0.0863114 59.6612 0.0806122 59.6808 0.0749301 59.7004C0.0643246 59.737 0.0537784 59.7733 0.043292 59.8095C0.0338711 59.842 0.0244983 59.8743 0.0151742 59.9066C0.0101015 59.9241 0.00504317 59.9415 -7.15256e-07 59.959L0.0102693 59.9595L0.189469 59.969C0.189469 59.968 0.257298 59.7803 0.261567 59.7684L0.261777 59.7678L0.259777 59.7678L0.259989 59.7672C0.301625 59.6407 0.526413 59.0605 0.609629 58.8303C0.617392 58.8088 0.623922 58.7904 0.628958 58.7756C0.692948 58.58 0.763297 58.3687 0.839625 58.1427C1.66445 55.7003 3.18761 51.5429 4.93313 47.0001C5.28325 46.0889 5.64232 45.1622 6.00649 44.2307C6.0997 43.9922 6.17708 43.8157 6.27019 43.5784C6.2962 43.5104 6.3047 43.4821 6.3307 43.4143C7.62728 40.0323 8.887 36.7968 9.84083 34.4182C10.3178 33.2289 10.7176 32.2542 11.0089 31.5803C11.1546 31.2434 11.2731 30.9829 11.3625 30.803C11.4072 30.713 11.4435 30.6446 11.4797 30.5881C11.495 30.5642 11.512 30.5408 11.5363 30.5139C11.5301 30.4275 11.5321 30.3327 11.5418 30.231C11.5957 29.667 11.8873 28.8889 12.3372 28.133C12.9827 27.0582 13.7928 26.2876 14.3003 26.2659C14.3895 26.262 14.4669 26.2817 14.5307 26.3245C14.7405 26.4642 14.7937 26.8447 14.6787 27.3821C14.5636 27.9195 14.2898 28.5697 13.9174 29.1897C13.4704 29.9275 12.9402 30.529 12.4857 30.8278C12.39 30.8908 12.2977 30.9403 12.2102 30.9748L12.1887 31.0041C12.0384 31.2055 11.7357 31.7756 11.3605 32.5784C10.9852 33.3811 10.5261 34.4293 10.0107 35.6487C9.05414 37.9119 7.88913 40.821 6.72715 43.7815C5.26511 47.5976 3.73769 51.6193 2.56148 54.7774C2.31494 55.4394 2.08383 56.0634 1.87199 56.6396C1.51805 57.6024 1.21788 58.4318 0.989399 59.0818C0.952721 59.1862 0.91789 59.2859 0.88498 59.3808C0.815851 59.5802 0.755198 59.7584 0.703707 59.9136C0.694752 59.9405 0.686074 59.9668 0.677676 59.9924L0.857387 60.0004C0.852341 59.9957 0.852503 59.9835 0.85779 59.9641C0.858233 59.9625 0.858712 59.9608 0.859226 59.9591C0.884143 59.8757 0.993207 59.6743 1.18095 59.374C1.1987 59.3456 1.21716 59.3163 1.23631 59.2862C1.38039 59.0594 1.56401 58.7833 1.78519 58.4649C2.05388 58.0781 2.378 57.6287 2.75404 57.1289C6.8023 51.7478 16.8671 40.5198 28.5478 38.5961C28.5951 18.5032 37.8351 11.112 38.42 9.85395C37.1851 3.17882 33.5588 0.65844 30.2863 0.127384C30.0073 0.091826 29.7449 0.0640526 29.4982 0.0436674ZM1.82079 59.7324Q1.82641 59.7161 1.83255 59.6983Q1.90601 59.9184 1.84455 60.1602Q1.85382 60.1029 1.8564 60.0449Q1.86348 59.8858 1.82079 59.7324ZM24.3566 1.90186Q24.3791 1.87679 24.4033 1.85329Q24.3702 1.8854 24.3566 1.90186Z" fill="#175782" fill-rule="evenodd" />
      </g>
      <path id="shine" d="M0 35.8025C3.4753 33.0757 5.00699 30.8565 8.44785 30.1802C7.85342 21.654 14.4196 11.3582 19.7571 1.73099L18.796 0C16.588 3.33739 3.46664 27.3173 0 35.8025L0 35.8025Z" fill="#FFF9DB" fill-rule="evenodd" fill-opacity="0.733" transform="translate(16.489 4.577)" />
    </g>
</svg>