<?xml version="1.0" encoding="utf-8"?>
<svg width="128" height="128" viewBox="0 0 128 128" xmlns="http://www.w3.org/2000/svg">
<defs>
<clipPath id="rhombus">
<rect width="88" height="88" rx="8" x="20" y="20" transform="rotate(45 64 64)"/>
</clipPath>
<linearGradient id="graydient" x1="0" y1="0" x2="0" y2="100%">
<stop offset="0" stop-color="#87ADC3"/>
<stop offset="1" stop-color="#5087A8"/>
</linearGradient>
</defs>
<g clip-path="url(#rhombus)">
<rect width="128" height="128" fill="url(#graydient)"/>
<rect width="100" height="100" rx="12" transform="translate(14 5) rotate(45 50 50)" fill="none" stroke="#304C5C" stroke-width="8" opacity="0.75"/>
<path d="M30 0L30 27L40 27L20 47L0 27L10 27L10 0Z" fill="#F6F5F4" transform="translate(44 0)"/>
<g stroke="#F6F5F4" stroke-width="8" transform="translate(37 52)">
<circle r="13" cx="27" cy="27" fill="none" stroke-width="10"/>
<line x1="36" y1="18" x2="46" y2="8"/>
<line x1="40" y1="27" x2="54" y2="27"/>
<line x1="36" y1="36" x2="46" y2="46"/>
<line x1="27" y1="40" x2="27" y2="54"/>
<line x1="18" y1="36" x2="8" y2="46"/>
<line x1="14" y1="27" x2="0" y2="27"/>
<line x1="18" y1="18" x2="8" y2="8"/>
<line x1="27" y1="14" x2="27" y2="0"/>
</g></g></svg>
