<?xml version="1.0" encoding="utf-8"?>
<svg width="128" height="128" viewBox="0 0 128 128" xmlns="http://www.w3.org/2000/svg">
<defs>
<clipPath id="rhombus">
<rect width="88" height="88" rx="8" x="20" y="20" transform="rotate(45 64 64)"/>
</clipPath>
</defs>
<g clip-path="url(#rhombus)">
<rect width="128" height="128" fill="#3584E4"/>
<path d="M52.2 0L49.8 7.27L49.43 7.26L43.6 7.7L40.23 0.76L33 2.7L33.62 10.36L28 13.12L22.3 8L16.43 12.53L19.87 19.37L15.8 24L8.5 21.5L4.82 28L10.6 33L8.66 38.85L0.92 39.3L0 46.7L7.27 49L7.26 49.43L7.7 55.27L0.76 58.63L2.7 65.8L10.36 65.25L13.12 70.8L8 76.57L12.53 82.44L19.37 79L24 83L21.5 90.4L28 94L33 88.26L38.85 90.2L39.3 98L46.7 99L49 91.6L49.43 91.6L55.27 91.16L58.63 98.1L65.8 96.16L65.25 88.5L70.8 85.75L76.57 91L82.44 86.34L79 79.5L83 74.8L90.4 77.35L94 71L88.26 66L90.2 60L97.95 59.56L98.87 52.2L91.6 49.8L91.6 49.43L91.16 43.6L98.1 40.23L96.16 33L88.5 33.62L85.75 28L91 22.3L86.34 16.43L79.5 19.87L74.8 15.8L77.35 8.5L71 4.82L66 10.6L60 8.66L59.56 0.92L52.2 0L52.2 0Z" fill="#1A5FB4" transform="translate(-38.35 -6.3)"/>
<path d="M52.2 0L49.8 7.27L49.43 7.26L43.6 7.7L40.23 0.76L33 2.7L33.62 10.36L28 13.12L22.3 8L16.43 12.53L19.87 19.37L15.8 24L8.5 21.5L4.82 28L10.6 33L8.66 38.85L0.92 39.3L0 46.7L7.27 49L7.26 49.43L7.7 55.27L0.76 58.63L2.7 65.8L10.36 65.25L13.12 70.8L8 76.57L12.53 82.44L19.37 79L24 83L21.5 90.4L28 94L33 88.26L38.85 90.2L39.3 98L46.7 99L49 91.6L49.43 91.6L55.27 91.16L58.63 98.1L65.8 96.16L65.25 88.5L70.8 85.75L76.57 91L82.44 86.34L79 79.5L83 74.8L90.4 77.35L94 71L88.26 66L90.2 60L97.95 59.56L98.87 52.2L91.6 49.8L91.6 49.43L91.16 43.6L98.1 40.23L96.16 33L88.5 33.62L85.75 28L91 22.3L86.34 16.43L79.5 19.87L74.8 15.8L77.35 8.5L71 4.82L66 10.6L60 8.66L59.56 0.92L52.2 0L52.2 0ZM49.43 18.5C66.53 18.5 80.4 32.34 80.4 49.43C80.4 66.53 66.53 80.4 49.43 80.4C32.34 80.4 18.5 66.53 18.5 49.43C18.5 32.34 32.34 18.5 49.43 18.5C49.43 18.5 49.43 18.5 49.43 18.5Z" fill="#98C1F1" transform="translate(48.74 32.88)"/>
<rect width="100" height="100" rx="12" transform="translate(14 5) rotate(45 50 50)" fill="none" stroke="#1A5FB4" stroke-width="8" opacity="0.5"/>
</g></svg>
