<?xml version="1.0" encoding="utf-8"?>
<svg width="128" height="128" viewBox="0 0 128 128" xmlns="http://www.w3.org/2000/svg">
<defs>
<linearGradient id="pages">
<stop offset="90%" stop-color="#DEDDDA"/>
<stop offset="95%" stop-color="#F6F5F4"/>
<stop offset="1" stop-color="#C0BFBC"/>
</linearGradient>
<filter id="buckle" y="-50%" height="200%">
<feDropShadow dx="0" dy="4" flood-color="#3D3846" stdDeviation="0"/>
</filter><filter id="round">
<feDropShadow dx="0" dy="2" flood-color="#865E3C" stdDeviation="0"/>
</filter><filter id="stick" y="-50%" height="200%">
<feDropShadow dx="0" dy="3" flood-color="#77767B" stdDeviation="0"/>
</filter>
</defs>
<path d="M0 0L0 18L80 18C84.4 18 88 14.4 88 10L88 0Z" fill="#26A269" transform="translate(20 102)"/>
<path d="M0 0L0 18L80 18C84.4 18 88 14.4 88 10L88 0Z" fill="#1D60B5" transform="translate(20 92)"/>
<path d="M0 0L0 18L80 18C84.4 18 88 14.4 88 10L88 0Z" fill="#9141AC" transform="translate(20 82)"/>
<g fill="url(#pages)">
<path d="M0 8L0 14L78 14C82.4 14 86 10.4 86 6L86 0C86 4.4 82.4 8 78 8Z" transform="translate(22 104)"/>
<path d="M0 8L0 14L78 14C82.4 14 86 10.4 86 6L86 0C86 4.4 82.4 8 78 8Z" transform="translate(22 94)"/>
<path d="M0 8L0 14L78 14C82.4 14 86 10.4 86 6L86 0C86 4.4 82.4 8 78 8Z" transform="translate(22 84)"/>
</g><path d="M0 0L0 82L80 82C84.4 82 88 78.4 88 74L88 8C88 3.6 84.4 0 80 0Z" fill="#C061CB" transform="translate(20 8)"/>
<rect width="2" height="82" x="22" y="8" fill="#FFFFFF" opacity="20%"/>
<rect width="16" height="112" x="56" y="8" fill="#FFA348"/>
<rect width="16" height="30" x="56" y="90" fill="#986A44"/>
<rect width="24" height="28" x="52" y="32" rx="4" fill="#5E5C64" filter="url(#buckle)"/>
<rect width="16" height="24" x="56" y="36" fill="#FFA348"/>
<rect width="16" height="34" x="56" y="36" rx="8" fill="#FFA348" filter="url(#round)"/>
<rect width="4" height="12" x="62" y="32" rx="2" fill="#FFFFFF" filter="url(#stick)"/>
</svg>
