<?xml version="1.0" encoding="utf-8"?>
<svg width="128" height="128" viewBox="0 0 128 128" xmlns="http://www.w3.org/2000/svg">
<path d="M108 36L108 112C108 116.4 104.4 120 100 120L28 120C23.6 120 20 116.4 20 112L20 16C20 11.6 23.6 8 28 8L80 8Z" fill="#DD1100"/>
<path d="M0 0L28 28L0 28Z" fill="#FFFFFF" opacity="0.4" transform="translate(80 8)"/>
<path id="wolf" d="M0 30C0 13.4314 13.4315 -3.8147e-06 30 0C46.5686 -1.14441e-05 60 13.4314 60 30C60 46.5685 46.5686 60 30 60C13.4315 60 0 46.5685 0 30ZM39.8496 4.84375C36.6147 3.57658 33.2395 2.96932 29.8984 2.98242L29.8984 2.98246C22.5482 3.01127 15.3594 6.04267 10.17 11.6543C2.62157 19.8167 0.846714 31.7697 5.69726 41.7735C5.70475 41.7944 5.71429 41.8154 5.72656 41.834C7.5 37 9.55 31.6318 12.043 26.9473C12.4 26.2806 12.7676 25.6252 13.1426 24.9883C13.6723 24.0836 14.2273 23.22 14.8047 22.3985C15.0844 22 15.3763 21.6018 15.668 21.2149C16.1144 20.6315 16.5649 20.0843 17.0352 19.5664C19.184 13.1974 22.1732 7.74373 26.09 4.52347C27.3934 8.74373 28 10.2036 29.3105 14.4239C32.3046 11.662 32.6856 11.1971 35.6797 8.209L35.6797 8.20854C35.6879 8.20768 36.6772 17.445 36.2148 24.3985C40.2803 28.5413 52.1738 36.0606 52.1738 36.0606C52.1738 36.0606 48.0296 41.8937 47.2617 42.1973C46.4224 42.5783 42.7383 42.1973 42.7383 42.1973L35.0664 41.3516L44.3281 52.8926C44.3326 52.892 44.3366 52.89 44.3398 52.8867C52.2236 47.95 57 39.3019 57 30C57 18.8823 50.2014 8.9 39.8496 4.84375ZM25.625 8.13086C26.7024 11.3511 28.3942 18.0297 29.543 21.25C34.6084 26.3155 42.2811 32.6077 47.418 35.2148C47.9537 35.5244 48.6426 37.6738 48.6426 37.6738L46.5723 40.2793L24.4766 38.0547C23.9825 38.013 23.4882 38 23 38C21.4589 38.0157 19.9292 38.1639 18.418 38.4355C19.49 35.751 21.793 33.6016 21.793 33.6016C21.793 33.6016 19.6424 32.2985 18.0293 32.0723C18.4936 31 19.7198 29.6134 20.0293 29.2324C19.4103 29.4586 14.9643 31.4521 14.5 33.1426C15.759 33.452 17 33.8624 18.1855 34.3691C16.5819 36.1944 15.5886 38.4751 15.3457 40.8926C15.3457 40.8926 22.4055 39.8154 27.7031 40.5059C27.7948 40.56 27.9 40.5878 28 40.584L30.7676 40.6602L39.543 55.2676L39.6133 55.3809C39.6 55.387 39.5958 55.3926 39.59 55.3926C23.0422 61.3747 11.083 50.3629 8.5293 46.5117C8.54 46.4787 8.55 46.4464 8.55469 46.4121C10.8523 36.6978 13.6843 25.0713 18.2617 21.6367C20.6427 17.488 21.3333 11.3511 25.625 8.13086ZM34.2207 23.0176C34.453 18.3331 34.5298 16.3392 34.375 12.5059C32.3809 14.4225 32.0715 14.7266 30 16.7266C30.31 17.7206 30.7676 20.4043 30.7676 20.4043C30.7676 20.4043 33.0719 21.8628 34.2207 23.0176ZM30.4883 28.7051C30.1829 28.7013 29.87 28.72 29.543 28.7676C29.4336 29.0524 29.3328 29.34 29.2407 29.6311C29.1198 30.0108 29.0138 30.3952 28.9229 30.7835C30.149 30.6346 31.4526 31.1 32.911 31.9382C34.2919 31.5513 34.4467 31.474 35.8277 31.093C35.8214 31.0884 35.8152 31.0838 35.81 31.0792C35.8172 31.077 35.8256 31.0746 35.834 31.0723C34.2871 29.9316 32.626 28.732 30.4883 28.7051Z" fill="#FFFFFF" fill-rule="evenodd" transform="translate(34 44)"/>
</svg>