<?xml version="1.0" encoding="utf-8"?>
<svg width="128" height="128" viewBox="0 0 128 128" fill="none" xmlns="http://www.w3.org/2000/svg">
<g transform="translate(20 8)">
<path d="M88 28L88 104C88 108.4 84.4 112 80 112L8 112C3.6 112 0 108.4 0 104L0 8C0 3.6 3.6 0 8 0L60 0Z" fill="#DD1100"/>
<path d="M0 0L28 28L0 28Z" fill="#FFFFFF" opacity="0.4" transform="translate(60 0)"/>
</g><g fill="#FFFFFF" transform="translate(36.68 44)">
<path d="M0.231277 12.4646C0.602596 10.0159 2.78927 5.95193 4.83757 3.90363C6.69268 2.04852 10.352 0.000522614 11.8125 0C14.7787 -0.000999451 19.3298 3.32173 21.2203 6.86873C22.2155 8.73598 23.373 12.2912 23.373 13.4808C23.373 13.7478 22.4389 13.1014 21.2972 12.0443C20.1555 10.9873 18.1662 9.60302 16.8766 8.96813C14.7458 7.91909 14.2461 7.81377 11.3989 7.81377C8.60962 7.81377 8.04084 7.92762 6.21534 8.85141C5.08757 9.42211 3.22775 10.8117 2.08242 11.9394C2.08242 11.9394 0 13.9897 0 13.9897C0 13.9897 0.231277 12.4646 0.231277 12.4646Z" fill-opacity="0.7" transform="translate(18.883 13.54)"/>
<path d="M3.99385 11.7161C1.87948 10.7842 0 8.17257 0 6.16636C0 5.18676 3.45623 1.47483 5.21536 0.565147C5.21536 0.565147 6.30825 0 6.30825 0C6.30825 0 5.32595 1.67329 5.32595 1.67329C4.02679 3.88633 3.96058 6.82047 5.1621 8.93451C5.99038 10.3919 7.42647 11.4891 8.56221 11.5323C9.14862 11.5546 9.14405 11.5821 8.50863 11.8552C7.46333 12.3044 5.16816 12.2337 3.99385 11.7161C3.99385 11.7161 3.99385 11.7161 3.99385 11.7161Z" fill-opacity="0.7" transform="translate(18.987 22.868)"/>
<path d="M3.62988 10.5056C4.92904 8.29259 4.99525 5.35844 3.79373 3.24441C2.96544 1.78707 1.52936 0.689848 0.393616 0.646597C-0.815132 0.6 1.01407 0.0276165 2.45527 0C5.63944 -0.0583363 8.95582 3.02589 8.95582 6.04632C8.95582 6.99178 5.45826 10.7255 3.74046 11.6138C3.74046 11.6138 2.64758 12.1789 2.64758 12.1789C2.64758 12.1789 3.62988 10.5056 3.62988 10.5056Z" fill-opacity="0.7" transform="translate(26.701 25.023)"/>
<path d="M9.4478 13.9067C5.51766 12.3964 1.72373 7.52585 0.528811 2.45664C0.240789 1.23477 0 0.134 5.72205e-06 0.0105228C-0.00279427 -0.112974 1.074 0.864992 2.39268 2.18379C4.0605 3.8516 5.51427 4.92307 7.16793 5.70323C9.294 6.70626 9.87591 6.82533 12.671 6.82923C15.4568 6.83313 16.02 6.72077 17.8471 5.79595C18.9749 5.22525 20.8347 3.83566 21.98 2.70798C21.98 2.708 24.0624 0.65764 24.0624 0.65764C24.0624 0.65764 23.8312 2.18281 23.8312 2.18281C23.4598 4.63145 21.2732 8.69544 19.2249 10.7437C17.3014 12.6672 13.672 14.6605 12.1501 14.6293C11.6725 14.6195 10.4565 14.2943 9.4478 13.9067C9.4478 13.9067 9.44779 13.9067 9.44779 13.9067Z" fill-opacity="0.7" transform="translate(11.7 31.9)"/>
<path d="M15.3119 46.3635C12.0275 45.6488 8.37883 43.6305 5.9655 41.1934C-1.07186 34.0868 -1.98855 21.8382 3.77884 11.9756C5.86312 8.41134 10.5192 3.91244 13.7894 2.30304C16.491 0.973468 20.213 0.0104212 22.6899 8.7161e-05C26.1015 -0.014134 32.0626 1.71357 36.3274 3.95267C36.3274 3.95267 37.866 4.76046 37.866 4.76046C37.866 4.76046 35.8064 5 35.8064 5.00394C29.2147 5.78322 22.5544 8.49726 18.745 11.9565C12.006 18.076 9.47115 27.4015 12.2059 36.0134C13.63 40.4946 16.7732 44.3048 20.4674 46.0247C20.4674 46.0247 22.2863 46.8715 22.2863 46.8715C22.2863 46.8715 19.8553 46.8473 19.8553 46.8473C18.5182 46.834 16.4737 46.6163 15.312 46.3635C15.3119 46.3635 15.3119 46.3635 15.3119 46.3635Z"/>
<path d="M10.9397 46.3686C8.54179 45.8901 4.15007 44.2715 1.56281 42.9126C1.56281 42.9126 0 42.0918 0 42.0918C0 42.0918 1.73645 41.8569 1.73645 41.8569C12.2229 40.4383 20.4064 34.8878 24.1012 26.688C28.5621 16.788 25.6546 4.97895 17.7884 1.04818C17.7884 1.04818 15.6908 0 15.6908 0C15.6908 0 17.9168 0.00600052 17.9168 0.00600052C32.6855 0.046 41.59 14.3669 36.4454 29.8061C35.1123 33.8069 33.1002 36.9495 29.716 40.3164C24.2121 45.7923 18.033 47.7839 10.9397 46.3685C10.9397 46.3685 10.9397 46.3686 10.9397 46.3686Z" transform="translate(16.73 13.19)"/>
</g></svg>
