<?xml version="1.0" encoding="utf-8"?>
<svg width="128" height="128" viewBox="0 0 128 128" xmlns="http://www.w3.org/2000/svg">
<path id="diamond" d="M54.4148 117.687C55.9573 119.229 57.819 120 60 120C62.1812 120 64.0428 119.229 65.5851 117.687L117.687 65.5852C119.229 64.0429 120 62.1813 120 60.0002C120 57.8191 119.229 55.9575 117.687 54.4149L65.5848 2.31329C64.0426 0.770996 62.1809 0 59.9999 0C57.8187 0 55.957 0.770996 54.4148 2.31329L2.31311 54.4149C0.770875 55.9572 0 57.8188 0 59.9999C0 62.181 0.770875 64.0426 2.31311 65.5849L54.4148 117.687Z" fill="#3584E4" fill-rule="evenodd" transform="translate(4 4)"/>
<path id="rhombus" d="M51 2.83773L49.7812 6.51562C49.6641 6.50781 49.5508 6.50391 49.4336 6.5C47.4805 6.51172 45.5312 6.66406 43.5977 6.94922L40.2344 0C37.7969 0.46875 35.4023 1.11719 33.0625 1.94531L33.6211 9.60156C31.7109 10.3828 29.8555 11.3086 28.0781 12.3633L22.2969 7.21484C20.2305 8.58594 18.2695 10.1055 16.4297 11.7695L19.8672 18.6133C18.4023 20.0742 17.0469 21.6406 15.8086 23.3008L8.48047 20.75C7.10156 22.8086 5.875 24.9688 4.82031 27.2109L10.6055 32.2109C9.8125 34.1211 9.16406 36.0898 8.66016 38.0977L0.921875 38.5469C0.429688 40.9766 0.121094 43.4414 0 45.918L7.27344 48.3281C7.26953 48.4414 7.26172 48.5586 7.25781 48.6758C7.27344 50.6289 7.42188 52.5781 7.70703 54.5117L0.757812 57.875C1.22656 60.3086 1.875 62.707 2.70312 65.043L10.3594 64.4883C11.1445 66.3984 12.0664 68.2539 13.1211 70.0312L7.97266 75.8125C9.34375 77.8789 10.8672 79.8398 12.5273 81.6797L19.3711 78.2422C20.832 79.707 22.3984 81.0625 24.0586 82.2969L22.7059 86.191L33.6143 75.2826C24.5537 69.8843 18.4844 59.9893 18.4844 48.6758C18.4844 31.582 32.3398 17.7266 49.4336 17.7266C60.1732 17.7266 69.6346 23.1958 75.1846 31.5011C75.2334 31.1333 75.2578 30.7554 75.2578 30.3674C75.2578 28.1863 74.4868 26.3246 72.9443 24.782L51 2.83773Z" fill="#98C1F1" fill-rule="evenodd" transform="translate(48.742 33.633)"/>
<path id="rhombus" d="M46.9676 0L2.31311 44.6544C0.770875 46.1967 0 48.0583 0 50.2394C0 52.4205 0.770875 54.2822 2.31311 55.8245L22.8183 76.3296C23.0303 76.258 23.2419 76.185 23.4531 76.1106L22.8945 68.4505C24.8086 67.6692 26.6602 66.7474 28.4375 65.6927L34.2227 70.8372C36.2891 69.47 38.25 67.9466 40.0859 66.2825L36.6484 59.4388C38.1172 57.9778 39.4727 56.4153 40.707 54.7552L48.0352 57.3021C49.418 55.2435 50.6406 53.0833 51.6992 50.845L45.9102 45.845C46.7031 43.931 47.3555 41.9622 47.8594 39.9544L55.5938 39.5052C56.0859 37.0755 56.3945 34.6146 56.5156 32.138L49.2422 29.7278C49.25 29.6107 49.2539 29.4935 49.2617 29.3802C49.2461 27.4271 49.0938 25.4778 48.8086 23.5442L55.7578 20.1771C55.2891 17.7435 54.6406 15.3489 53.8164 13.0091L46.1562 13.5677C45.375 11.6536 44.4531 9.80206 43.3984 8.02471L48.543 2.23956C48.0379 1.4784 47.5128 0.731559 46.9676 0Z" fill="#1A5FB4" fill-rule="evenodd" transform="translate(4 13.76)"/>
<path id="shadow" d="M54.4148 63.2741C55.9573 64.8166 57.819 65.5876 60 65.5876C62.1812 65.5876 64.0428 64.8166 65.5851 63.2744L117.687 11.1728C119.229 9.63046 120 7.76883 120 5.58774C120 3.40665 119.229 1.54501 117.687 0.00241089L117.684 0.000270844L65.5851 52.0995C64.0428 53.6417 62.1812 54.4127 60 54.4127C57.819 54.4127 55.9573 53.6417 54.4148 52.0993L2.31552 0L2.31311 0.00241089C0.770875 1.54471 0 3.40634 0 5.58743C0 7.76852 0.770875 9.63016 2.31311 11.1725L54.4148 63.2741L54.4148 63.2741Z" fill="#1A5FB4" fill-rule="evenodd" fill-opacity="0.749" transform="translate(4 58.412)"/>
</svg>