<?xml version="1.0" encoding="utf-8"?>
<svg width="128" height="128" viewBox="0 0 128 128" xmlns="http://www.w3.org/2000/svg">
<defs>
<linearGradient id="gradient_1" gradientUnits="userSpaceOnUse" x1="13.407" y1="-14.826" x2="10.467" y2="-16.233">
<stop offset="0" stop-color="#E5A50A"/>
<stop offset="1" stop-color="#F6D32D"/>
</linearGradient>
</defs>
<g id="sheet" stroke="#707070" stroke-width="2" stroke-linejoin="round" transform="translate(19 7)">
<path id="paper" fill="#F6F5F4" d="M61.5 0L90 28.5L90 105C90 109.971 85.9712 114 81 114L9 114C4.02876 114 0 109.971 0 105L0 9C0 4.02876 4.02876 0 9 0L61.5 0Z"/>
<path id="corner" fill="#C8C8C8" d="M0 0L28 28L0 28Z" transform="translate(62 0)"/>
</g>
<path id="path4144" d="M33.7576 0C31.071 0 29.8677 1.01756 26.2551 6.67072C26.2551 6.67072 21.1592 14.7305 21.1592 14.7305C21.1592 14.7305 18.75 6.48497 18.75 6.48497C17.2666 1.29753 15.2288 7.62939e-06 12.8221 7.62939e-06C10.1355 7.62939e-06 6.8917 2.31511 2.72184 7.03952C2.25881 7.411 3.09333 8.24552 3.46482 7.78251C5.96568 5.18745 8.09502 3.98413 9.66982 3.98413C10.9674 3.98413 12.8221 4.6302 14.3027 9.54037C14.3027 9.54037 17.4523 20.1037 17.4523 20.1037C17.4523 20.1037 10.9674 29.7382 10.9674 29.7382C9.48677 31.8676 8.1 32.5164 6.8917 32.5164C5.03963 32.5164 4.85388 30.6643 2.72184 30.6643C1.24125 30.6643 0.220985 31.5903 0.0352478 32.8879C-0.333549 35.3887 2.25881 37.5181 4.66814 37.5181C7.44894 37.5181 8.65225 36.4063 12.1733 30.7558C12.1733 30.7558 17.9153 21.6785 17.9153 21.6785C17.9153 21.6785 20.882 31.682 20.882 31.682C22.271 36.5 24.0315 37.5181 26.4381 37.5181C29.1247 37.5181 32.3685 35.1114 36.5357 30.4785C37 30.0155 36.2585 29.2752 35.7954 29.644C33.2946 32.2391 31.2568 33.4424 29.682 33.4424C28.2929 33.4424 26.6239 33.0709 25.3264 28.718C25.3264 28.718 21.6222 16.2111 21.6222 16.2111C21.6222 16.2111 27.4584 7.68829 27.4584 7.68829C28.9417 5.65046 30.3307 4.91 31.534 4.91C33.3861 4.91 33.572 6.76225 35.7039 6.76225C37.1845 6.76225 38.2048 5.83621 38.3905 4.53868C38.7593 2.12936 36.1669 1.52588e-05 33.7576 1.52588e-05C33.7576 1.52588e-05 33.7576 0 33.7576 0Z" fill="#3D3846" transform="translate(32 67.042)" />
<g id="g4158" transform="matrix(1 0 0 1 66.543 44)">
<path id="path4146" d="M2.34333 2.2585C1.918 3.16031 1.10503 3.653 0.528943 3.35682C-0.05 3.06071 -0.171 2.1 0.25167 1.1844C0.677 0.2826 1.5 -0.21 2.06606 0.0860748C2.64483 0.3822 2.76867 1.354 2.34333 2.2585C2.34333 2.2585 2.34333 2.2585 2.34333 2.2585Z" fill="#77767B" transform="matrix(1 0 0 1 0.077 51.407)"/>
<path id="path4148" d="M0.457953 9.9603C-0.65114 9.42 0.632932 3.68262 0.4 0C0.4 0 9.468 4.67057 9.468 4.67057C6.49067 6.76493 3.42182 11.5324 2.4204 11C2.4204 11 0.457953 9.9603 0.457953 9.9603Z" fill="url(#gradient_1)" transform="translate(0 42.67)"/>
<path id="path4150" d="M22.7149 0.377712C21.482 -0.255 20.163 -0.0745395 19.76 0.781508C19.7591 0.781508 7.85 26.07 7.85 26.07L0.753753 41.1396L0.027 42.6875L0 45.2098L5.88735 48.2329L9.08 47.3338L9.80686 45.7859L16.9029 30.7163C16.9029 30.7163 28.8122 5.42786 28.8122 5.42786C29.216 4.57181 28.5457 3.3712 27.3128 2.73857C27.3128 2.73857 22.7149 0.377712 22.7149 0.377712Z" fill="#FFBE6F" transform="matrix(1 0 0 1 0.396 0)"/>
<path id="path4152" d="M21.4173 0L8.7866 26.82L1.69056 41.8898L0 45.4809L2.93156 46.9857L5.43509 45.7313L6.89684 46.4823L7.62367 44.9344L14.72 29.8648C14.72 29.8648 26.63 4.57636 26.629 4.57636C27.0328 3.72031 26.5779 2.69467 25.7676 2.28C25.7676 2.28 21.4173 0 21.4173 0Z" fill="#FF7800" transform="matrix(1 0 0 1 2.579 0.852)"/>
<path id="path4154" d="M1.69325 41.8925L0 45.4836L2.26664 46.6465L4.18871 45.096L4.91554 43.5481C4.91554 43.5481 23.921 3.2 23.921 3.2C24.4431 2.0809 24.2358 1.43213 22.3865 0.481863C22.3865 0.481863 21.447 0 21.447 0L1.69325 41.8925Z" fill="#E66100" transform="translate(5.287 2.238)"/>
<path id="path4156" d="M2.9558 0.377712C1.72286 -0.254902 0.4038 -0.07454 0 0.781508C0 0.781508 9.05311 5.42786 9.05311 5.42786C9.77187 4.08456 8.7866 3.3712 7.55368 2.73857C7.55368 2.73857 2.95579 0.377712 2.9558 0.377712Z" fill="#3D3846" transform="matrix(1 0 0 1 20.155 0)"/>
</g></svg>