<?xml version="1.0" encoding="utf-8"?>
<svg width="128" height="128" viewBox="0 0 128 128" xmlns="http://www.w3.org/2000/svg">
<path d="M108 36L108 112C108 116.4 104.4 120 100 120L28 120C23.6 120 20 116.4 20 112L20 16C20 11.6 23.6 8 28 8L80 8Z" fill="#6D51CF"/>
<path d="M0 0L28 28L0 28Z" fill="#FFFFFF" opacity="0.36" transform="translate(80 8)"/>
<g fill="none" stroke="#F6F5F4" stroke-width="4" transform="translate(36 44)">
<path d="M28 0C18 0 8.753 5.33677 3.7513 14C-1.25043 22.6632 -1.25043 33.3368 3.7513 42C8.753 50.6632 18 56 28 56C28 56 72 56 72 56"/>
<path d="M27.6176 1.50786C20.1424 -1.5711 11.5488 0.153 5.84 5.87716C0.130766 11.6013 -1.57066 20.2 1.528 27.6665C4.62677 35.1335 11.9162 40 20 40C20 40 64 40 64 40" transform="translate(8 8)"/>
<path d="M20.4864 3.515C16.646 -0.325486 10.7047 -1.10766 6 1.608C1.29747 4.32362 -1 9.86 0.41 15.1061C1.8157 20.3523 6.56982 24 12 24C12 24 56 24 56 24" transform="translate(16 16)"/>
</g></svg>