<?xml version="1.0" encoding="utf-8"?>
<svg width="128" height="128" viewBox="0 0 128 128" xmlns="http://www.w3.org/2000/svg">
<path id="paper" d="M108 36L108 112C108 116.4 104.4 120 100 120L28 120C23.6 120 20 116.4 20 112L20 16C20 11.6 23.6 8 28 8L80 8Z" fill="#269C80"/>
<path id="corner" d="M0 0L28 28L0 28Z" fill="#7FC9B7" transform="translate(80 8)"/>
<g fill="#FFFFFF" transform="translate(36 48)">
<rect width="18" height="2" x="38"/>
<rect width="18" height="2" x="38" y="8"/>
<rect width="18" height="2" x="38" y="16"/>
<rect width="18" height="2" x="38" y="24"/>
<rect width="18" height="2" x="38" y="32"/>
<rect width="56" height="2" y="40"/>
<rect width="56" height="2" y="48"/>
<rect width="28" height="2" y="56"/>
</g><path id="pic" d="M34 4C34 1.79056 32.21 0 30 0L4 0C1.79056 0 0 1.79056 0 4L0 30C0 32.21 1.79056 34 4 34L30 34C32.21 34 34 32.21 34 30L34 4L34 4ZM20 16L14 22L10 18L4 24L4 30L22 30L22 30L30 30L30 26L20 16L20 16ZM6 10C6 7.79086 7.79086 6 10 6C12.21 6 14 7.79086 14 10C14 12.21 12.21 14 10 14C7.79086 14 6 12.21 6 10Z" fill="#FFFFFF" fill-rule="evenodd" transform="translate(36 48)"/>
</svg>