<?xml version="1.0" encoding="utf-8"?>
<svg width="128" height="128" viewBox="0 0 128 128" fill="none" xmlns="http://www.w3.org/2000/svg">
  <g>
    <g transform="translate(19 7)">
      <path d="M61.5 0L90 28.5L90 105C90 109.971 85.9712 114 81 114L9 114C4.02876 114 0 109.971 0 105L0 9C0 4.02876 4.02876 0 9 0L61.5 0Z" fill="#F6F5F4" fill-rule="evenodd" stroke-width="2" stroke="#707070" />
      <path d="M0 0L28 28L0 28L0 0Z" fill="#C8C8C8" fill-rule="evenodd" stroke-width="2" stroke="#707070" stroke-linejoin="round" transform="translate(62 0)" />
    </g>
    <g transform="translate(35 48)">
      <path d="M36.4693 1.65495C39.5243 1.65495 42.3248 2.67338 43.725 4.42381C47.1619 0.954781 50.376 0 53.1446 0C57.5999 0 59.0001 2.83251 59.0001 4.71024C59.0001 7.06536 57.5044 8.72031 55.245 8.72031C52.7946 8.72031 54.0039 3.11894 50.5351 3.11894C47.7029 3.11894 45.348 10.598 44.1705 17.1224C44.1705 17.1224 50.2806 17.1224 50.2806 17.1224C50.9807 17.1224 51.108 17.6316 51.108 18.1726C51.108 19.6366 50.4397 20.8778 49.2304 20.8778C49.2304 20.8778 43.2158 20.8778 43.2158 20.8778C43.2158 20.8778 40.451 33.9644 38.4105 42.1376C35.6642 53.1382 27.2406 56.2046 21.958 56.2046C19.4439 56.2046 16.7708 55.3135 14.9887 53.4676C12.602 55.9182 8.97412 57.8596 5.0917 57.8596C3.18231 57.8596 0 56.5866 0 54.1678C0 52.7993 1.36839 50.7306 2.83226 50.7306C5.40993 50.7306 5.72816 53.5313 8.62407 53.5313C10.0243 53.5313 10.9948 53.145 12.1564 48.9483C14.7023 39.7506 18.5529 20.8778 18.5529 20.8778C18.5529 20.8778 14.0022 20.8778 14.0022 20.8778C13.2702 20.8778 13.1748 20.4323 13.1748 19.9549C13.1748 18.6818 13.6521 17.1224 15.2751 17.1224C15.2751 17.1224 19.5076 17.1224 19.5076 17.1224C21.8307 9.13405 26.986 1.65495 36.4693 1.65495C36.4693 1.65495 36.4693 1.65495 36.4693 1.65495ZM33.9868 4.83756C29.4997 4.83756 27.463 12.2848 26.4765 17.1224C26.4765 17.1224 37.1054 17.1224 37.1054 17.1224C37.8692 14.1944 39.1421 11.2027 40.5105 8.75215C38.983 6.33338 36.3417 4.83756 33.9868 4.83756C33.9868 4.83756 33.9868 4.83756 33.9868 4.83756ZM24.4404 52.3218C26.9226 52.3218 28.8956 51.4944 30.1049 47.166C32.969 36.8544 36.1513 20.8778 36.1513 20.8778C36.1513 20.8778 25.6497 20.8778 25.6497 20.8778C24.1246 27.92 22.4434 35.5112 20.9659 41.2146C19.9605 45.0957 19.1165 47.2751 18.2349 49.1074C20.0488 51.2398 22.4037 52.3218 24.4404 52.3218C24.4404 52.3218 24.4404 52.3218 24.4404 52.3218Z" fill="#232C31" />
      <path d="M3.88587 27.8513C3.88587 27.8513 3.78512 30.3642 3.78512 30.3642C3.32738 30.3463 2.86964 30.3283 2.41233 30.3088C2.41233 30.3088 2.51264 27.7976 2.51264 27.7976L0 27.6968L0.0553932 26.3239L2.56847 26.423L2.66714 23.9114L4.042 23.9656L3.97463 25.6373C3.97463 25.6373 13.8749 16.4969 13.8749 16.4969C13.5811 15.9189 13.5035 15.2313 13.7119 14.5645C14.1355 13.2047 15.5797 12.4466 16.9377 12.8698C17.1472 12.9347 17.3416 13.0234 17.5185 13.132C17.5185 13.132 27.5741 3.84818 27.5741 3.84818L25.9835 3.78503L26.0389 2.41211L28.5515 2.51287L28.6523 0L30.0251 0.055397L29.9247 2.56663L32.4374 2.66739L32.382 4.0403L29.8689 3.94117C29.8689 3.94117 29.7702 6.45284 29.7702 6.45284C29.3109 6.43449 28.8531 6.41655 28.3954 6.39863C28.3954 6.39863 28.4553 4.90472 28.4553 4.90472C28.4553 4.90472 18.457 14.1375 18.457 14.1375C18.7616 14.7202 18.8431 15.4193 18.6338 16.0964C18.2101 17.4561 16.766 18.2142 15.4064 17.7906C15.1887 17.7235 14.9854 17.6289 14.8 17.5129C14.8 17.5129 5.04146 26.5219 5.04146 26.5219L6.45389 26.5792L6.3985 27.9521L3.88587 27.8513Z" fill="#FF5900" fill-rule="evenodd" transform="translate(16.726 37.636)" />
    </g>
  </g>
</svg>