<?xml version="1.0" encoding="utf-8"?>
<svg width="128" height="128" viewBox="0 0 128 128" xmlns="http://www.w3.org/2000/svg">
<path d="M88 28L88 104C88 108.4 84.4 112 80 112L8 112C3.6 112 0 108.4 0 104L0 8C0 3.6 3.6 0 8 0L60 0Z" fill="#505050" transform="translate(20 8)"/>
<path d="M0 0L28 28L0 28Z" fill="#808080" transform="translate(80 8)"/>
<path d="M17.7 0L17.7 7L0 21.2L3.6 28.3C3.6 28.3 12.3 25.36 12.3 25.36C13.65 27.1 15.7676 28.1232 18 28.124C21.8 28.12 25 25.15 25.16 21.33C25.16 21.33 25.16 21.33 25.16 21.33C25.16 21.33 25.16 28.3 25.16 28.3C25.1536 31.8 23.134 34.5 19.75 35.3C16.73 36 15.8 35 12.15 36.53C6.64 38.777 3 43.5 3 49.44C3 49.44 10.7 57.24 10.7 57.24C6.45 57.24 2.66 60.42 2.66 64.45C2.66 64.45 46.16 64.45 46.16 64.45C46.16 60 42.8 57.24 39 57.24C39 57.24 47 50 47 49.6C47 49.6 47 28.1235 47 28.1235C47 16.22 37.22 7.125 25.3 7.125C25.2 7.13 25 7.136 25 7.14C25 6.55 25 6 24.8 5.4C24 2.24 21 0 17.7 0C17.7 0 17.7 0 17.7 0Z" fill="#BDBDBD" transform="translate(40 40)"/>
</svg>
