<?xml version="1.0" encoding="utf-8"?>
<svg width="128" height="128" viewBox="0 0 128 128" xmlns="http://www.w3.org/2000/svg">
<defs>
<linearGradient id="gradient" x1="1" y1="0" x2="0" y2="1">
<stop offset="0" stop-color="#EB963C"/>
<stop offset="75%" stop-color="#EC2200"/>
</linearGradient>
<filter id="shadow">
<feDropShadow dx="0" dy="0" flood-color="#000000" flood-opacity="40%" stdDeviation="3"/>
</filter>
<filter id="blur">
<feGaussianBlur stdDeviation="1"/>
</filter>
</defs>
<path d="M88 28L88 104C88 108.4 84.4 112 80 112L8 112C3.6 112 0 108.4 0 104L0 8C0 3.6 3.6 0 8 0L60 0Z" fill="url(#gradient)" transform="translate(20 8)"/>
<path d="M0 0L28 28L0 28Z" fill="#EC2200" transform="translate(80 8)"/>
<g fill="none" stroke-linecap="round" stroke-linejoin="round">
<g stroke="#DEBCBC" stroke-width="8" filter="url(#shadow)">
<path d="M48 18L30 3C27 0.5 26 0 24 0C22 0 21 0.5 18 3L0 18" transform="translate(40 82)"/>
<path d="M0 0L18 15C21 17.5 22 18 24 18C26 18 27 17.5 30 15L48 0" transform="translate(40 50)"/>
</g><g stroke="#FFF9F9" stroke-width="4" filter="url(#blur)">
<path d="M48 18L30 3C27 0.5 26 0 24 0C22 0 21 0.5 18 3L0 18" transform="translate(40 82)"/>
<path d="M0 0L18 15C21 17.5 22 18 24 18C26 18 27 17.5 30 15L48 0" transform="translate(40 50)"/>
</g></g>
</svg>
