<?xml version="1.0" encoding="utf-8"?>
<svg width="128" height="128" viewBox="0 0 128 128" xmlns="http://www.w3.org/2000/svg">
<path d="M88 28L88 104C88 108.4 84.4 112 80 112L8 112C3.6 112 0 108.4 0 104L0 8C0 3.6 3.6 0 8 0L60 0Z" fill="#9C4221" transform="translate(20 8)"/>
<path d="M28 28L0 28L0 0Z" fill="#FFFFFF" opacity="33%" transform="translate(80 8)"/>
<path d="M9 50L0 50L0 0L9 0M9 12L41 12M25 12L25 47M41 0L50 0L50 50L42 50" fill="none" stroke="#F6F5F4" stroke-width="6" transform="translate(39 51)"/>
</svg>
