<?xml version="1.0" encoding="utf-8"?>
<svg width="128" height="128" viewBox="0 0 128 128" xmlns="http://www.w3.org/2000/svg">
<path id="paper" d="M108 36L108 112C108 116.4 104.4 120 100 120L28 120C23.6 120 20 116.4 20 112L20 16C20 11.6 23.6 8 28 8L80 8Z" fill="#505050"/>
<path id="corner" d="M0 0L28 28L0 28Z" fill="#808080" transform="translate(80 8)"/>
<g id="jason" fill="#BDBDBD" transform="translate(35.5 45.519)">
<path d="M5.94461 13.8237C8.49388 11.6405 11.1718 10.5846 13.9782 10.6559C13.5021 11.0557 13.0282 11.4982 12.5566 11.9836C9.35463 15.279 7.75364 19.4383 7.75365 24.4614C7.75365 29.5148 9.34185 33.6805 12.5183 36.9583C14.1708 38.6637 15.8365 39.8314 17.5154 40.4615C22.2594 42.4728 27.0356 41.4686 31.844 37.45C36.8463 33.2672 39.3474 27.5528 39.3474 20.3057C39.3474 11.7404 37.1 4.97185 32.6062 0C34.1402 0.937156 35.631 2.03563 37.0785 3.29543C43.415 8.81 46.5832 15.8337 46.5832 24.3662C46.5832 32.4 43.6643 39.1978 37.8264 44.7924C32.2 50.184 25.6398 52.8796 18.1443 52.88C14.9721 52.8797 11.733 51.6372 8.427 49.1523C2.809 44.9296 0 38.0758 0 28.5909C0 22.14 1.98154 17.2175 5.94461 13.8237L5.94461 13.8237Z" transform="translate(10.417 4.102)"/>
<path d="M28.4374 3.6478e-05C29.3415 3.6478e-05 30.3314 0.0956383 31.407 0.286842C35.1556 1.21533 38.3822 3.26853 41.087 6.44646C44.872 10.8937 46.7645 16.8744 46.7645 24.3888C46.7645 30.7012 44.622 35.6488 40.337 39.2315C37.6 41.5176 34.9344 42.6148 32.332 42.523C32.8617 42.0924 33.389 41.61 33.9136 41.073C37.127 37.7893 38.7337 33.6341 38.7337 28.6075C38.7337 23.5541 37.1458 19.3885 33.97 16.1105C32.395 14.4847 30.799 13.3442 29.1822 12.6893C29.1406 12.6653 29.1 12.6433 29.0544 12.6234C29.0108 12.6035 28.9663 12.5858 28.9209 12.5702C23.72 10.7776 18.8832 11.7971 14.41 15.6287C9.74841 19.6213 7.41768 25.3034 7.41768 32.6748C7.41768 41.36 9.61915 48.1038 14.0221 52.9087C12.4719 51.9654 10.9657 50.8575 9.50376 49.5851C3.16792 44.0707 -1.3113e-06 37.0472 9.09495e-13 28.5146C-1.3113e-06 20.4915 2.91863 13.6826 8.756 8.08775C14.38 2.69832 20.936 0 28.4269 0L28.4374 3.6478e-05L28.4374 3.6478e-05Z"/>
</g></svg>