<?xml version="1.0" encoding="utf-8"?>
<svg width="128" height="128" viewBox="0 0 128 128" xmlns="http://www.w3.org/2000/svg">
<defs>
<clipPath id="rhombus">
<rect width="88" height="88" rx="8" x="20" y="20" transform="rotate(45 64 64)"/>
</clipPath>
<clipPath id="windows">
<path d="M64 68L4 128L124 128ZM68 64L128 4L128 124ZM0 4L60 64L0 124Z"/>
</clipPath>
</defs>
<g clip-path="url(#rhombus)">
<path d="M64 68L4 128L124 128Z" fill="#03A4EE"/>
<path d="M68 64L128 4L128 124Z" fill="#FFBB10"/>
<path d="M0 4L60 64L0 124Z" fill="#EF4F21"/>
<path d="M4 0L124 0L64 60Z" fill="#7EB903"/>
<g clip-path="url(#windows)">
<rect width="100" height="100" rx="12" transform="translate(14 5) rotate(45 50 50)" fill="none" stroke="#000000" stroke-width="8" opacity="0.4"/>
</g></g></svg>
