<?xml version="1.0" encoding="utf-8"?>
<svg width="128" height="128" viewBox="0 0 128 128" xmlns="http://www.w3.org/2000/svg">
<g id="sheet" transform="translate(19 7)">
<path id="paper" d="M61.5 0L90 28.5L90 105C90 109.971 85.9712 114 81 114L9 114C4.02876 114 0 109.971 0 105L0 9C0 4.02876 4.02876 0 9 0L61.5 0Z" fill="#F6F5F4" fill-rule="evenodd" stroke-width="2" stroke="#707070"/>
<path id="corner" d="M0 0L28 28L0 28Z" fill="#C8C8C8" fill-rule="evenodd" stroke-width="2" stroke="#707070" stroke-linejoin="round" transform="translate(62 0)"/>
</g><g fill="#707070" opacity="0.6">
<rect width="60" height="2" x="20" y="24"/>
<rect width="88" height="2" x="20" y="40"/>
<rect width="88" height="2" x="20" y="56"/>
<rect width="88" height="2" x="20" y="72"/>
<rect width="88" height="2" x="20" y="88"/>
<rect width="88" height="2" x="20" y="104"/>
</g><rect width="2" height="112" fill="#A13F12" x="32" y="8"/>
<path id="path438" d="M48.4738 13.1926C48.28 12.1457 50.2862 6 43.8711 2.52214C42.5974 1.8326 41 1.2047 39.1275 0.747471C35 -0.244488 29.7081 -0.421627 23.9867 1.28783C19.1935 2.72 14.6255 5.34078 10.7303 8.96414C7.25552 12.1963 4.44115 16.1103 2.49183 20.435C2.322 20.8116 2.16 21.1922 2 21.5766C0.914158 24.26 0.17035 27.2948 0.0256271 30.5C-0.113628 33.586 0.297932 37 1.67165 40.3763C3 43.277 5.26437 46.3181 8.52223 48.6157C10.488 50 12.8987 51.1478 15.6115 51.7138C16.665 51.9336 17.8126 52.0723 19.03 52.0761C21.2713 52.0984 23.3916 51.6563 25.3471 50.936C27.1145 50.2846 28.7271 49.414 30.1675 48.4827C31.4795 47.6332 32.6705 46.7262 33.7108 45.9296C34.743 45.1393 35.585 44.49 36.435 43.9196C37.2176 43.3921 37.9328 43 38.578 42.7296C39.1964 42.474 39.6764 42.3678 40.0341 42.3398C40.3646 42.2742 40.6387 42.2967 40.7415 42.2728C40.8467 42.2072 40.87 42.2628 40.8672 42.03C40.884 41.8179 41 41.954 41.0737 42.0909C41.143 42.3 41.1212 42.66 40.9788 43.112C40.7693 43.5772 40.44 44.0737 39.9643 44.6276C39.4441 45.2337 38.81 45.8387 38.1144 46.4662C37.9269 46.635 37.7355 46.8051 37.5422 46.9763C36.95 47.5 36.3 48.0544 35.6291 48.6566C34.716 49.4756 33.7532 50.3931 32.8584 51.4573C31.9042 52.6 31.055 53.8787 30.4393 55.2943C29.7807 56.8088 29.394 58.46 29.4323 60.1729C29.4888 61.5462 29.831 62.7936 30.3264 63.8461C30.9 65.0691 31.6884 66.0426 32.5367 66.7468C33.3565 67.4274 34.2075 67.8283 34.9574 68C35.2192 68.0806 35.48 68.1171 35.7317 68.1295C37.4813 68.216 38.6067 67.2145 39.057 66.9196C38.6146 66.3855 38.26 65.3035 37.9558 64.1783C37.9148 64.0268 37.8743 63.8768 37.8338 63.74C37.7145 63.3375 37.6071 62.9525 37.5453 62.5712C37.4831 62.1871 37.4455 61.7814 37.4632 61.3873C37.4791 61.0406 37.5369 60.7137 37.6474 60.4307C37.7452 60.0763 37.937 59.6421 38.2633 59.16C38.5794 58.6923 39 58.193 39.5655 57.7118C40.1198 57.2236 40.7717 56.7463 41.58 56.2106C42.1936 55.8038 42.7896 55.433 43.5253 54.9662C43.7551 54.8204 44 54.665 44.2444 54.5C45.1391 53.9118 46.2512 53.1283 47.3325 52.1647C48.3276 51.2781 49.4145 50.1368 50.3425 48.69C51.2334 47.3952 52.07 45.7072 52.4451 43.6919C52.7934 41.8153 52.7414 39.6084 51.9134 37.4226C50.9376 34.8884 49.1123 32.8708 46.9892 31.5513C44.87 30.2327 42.527 29.6242 40.3456 29.5C38.12 29.407 36.07 29.8033 34.2943 30.3784C32.4847 30.9647 30.8615 31.7691 29.5 32.5577C28.1403 33.3362 26.8332 34.2123 25.846 34.8615C24.7143 35.6057 23.8523 36.1546 23 36.6C22.154 37.0519 21.4356 37.3247 20.8522 37.4555C20.2188 37.5975 19.8463 37.551 19.6463 37.4724C19.551 37.421 19.4474 37.3556 19.3441 37.2761C19.064 37.0605 18.8213 36.7366 18.721 36.3869C18.5197 35.7818 18.5 35 18.607 34.3971C18.5526 33.7482 18.6084 32.9256 18.7882 32C18.9818 31 19.3111 29.9 19.7715 28.7384C19.8379 28.572 19.9072 28.406 19.9794 28.24C20.815 26.3257 22.12 24.532 23.7645 23C25.611 21.311 27.6932 20.1272 29.746 19.38C32.2274 18.4766 34.6723 18.2 36.8412 18.0283C37.8265 17.95 38.732 17.89 39.5445 17.7918C43.82 17.273 46.7142 13.6338 48.4738 13.1926C48.4738 13.1926 48.4738 13.1926 48.4738 13.1926Z" fill="#555555" transform="translate(39 39)"/>
</svg>
