<?xml version="1.0" encoding="utf-8"?>
<svg width="128" height="128" viewBox="0 0 128 128" xmlns="http://www.w3.org/2000/svg">
<defs>
<linearGradient id="gradient" gradientUnits="userSpaceOnUse" x1="44" y1="0" x2="44" y2="112">
<stop offset="0" stop-color="#FB3333"/>
<stop offset="1" stop-color="#920D1B"/>
</linearGradient>
</defs>
<path d="M88 28L88 112C85.1024 112 85.0138 111.111 83.746 111.111C82.9821 111.116 82.0747 111.563 80.9023 111.563C79.2763 111.563 79.7772 109.112 78.0692 109.112C76.5087 109.123 76.709 110.951 75.2265 110.951C74.4414 110.951 73.8046 110.234 73.8046 108.861C73.8046 107.118 73.1775 106.177 72.3924 106.177C71.6073 106.177 70.9706 106.807 70.9706 108.178C70.9706 109.22 70.3329 110.118 69.5478 110.118C68.7627 110.118 68.125 108.83 68.125 106.62C68.125 104 67.5 102.367 66.7137 102.367C65.9286 102.367 65.291 104.048 65.291 105.765C65.291 107.431 64.6541 109.083 63.869 109.083C63.0839 109.083 62.4472 107.086 62.4472 103.9C62.4472 100.22 61.8191 97.8348 61.035 97.8348C60.2508 97.8348 59.6131 99.9652 59.6131 102.741C59.6131 105.431 58.9764 107.9 58.1913 107.9C57.4062 107.9 56.7684 105.094 56.7684 100.851C56.7684 96.083 56.1317 92.8578 55.3466 92.8578C54.5615 92.8578 53.9353 96.085 53.9353 99.2824C53.9353 103 53.2967 106.651 52.5125 106.651C51.7284 106.651 51.0907 103 51.0907 97.7337C51.0916 91.96 50.4539 87.9 49.6688 87.9C48.8837 87.9 48.2566 91.9614 48.2566 96.2661C48.2576 101.044 47.62 105.485 46.8347 105.485C46.05 105.485 45.4129 101.046 45.4129 94.93C45.4139 88.3929 44.7742 83.6 44 83.6C43.206 83.6 42.5788 88.3843 42.5788 93.7733C42.5798 99.5084 41.94 104.58 41.157 104.58C40.3728 104.58 39.7342 99.5075 39.7342 92.8778C39.7342 86 39.0974 80.7228 38.3123 80.7228C37.5272 80.723 36.9 86 36.9 92.2951C36.9 98.7293 36.2624 104.117 35.4783 104.117C34.6941 104.117 34.0564 98.7322 34.0564 92.0625C34.0564 85.3937 33.4197 80 32.6345 80C31.85 80 31.2223 85.3947 31.2223 92.174C31.2223 98.9544 30.5856 104.248 29.8 104.248C29.0154 104.248 28.3786 98.9505 28.3786 92.8473C28.3796 87.0321 27.74 81.97 26.9568 81.97C26.1717 82 25.5446 87.0311 25.5446 94C25.5455 100.48 24.9078 105.153 24.1227 105.153C23.3376 105.153 22.7 100.48 22.7 95.733C22.7 91.6686 22.0631 87.55 21.278 87.55C20.5 87.55 19.8668 91.6648 19.8668 98.0351C19.8678 103.547 19.2281 106.982 18.444 106.982C17.66 106.982 17.0221 104.031 17.0221 101.071C17.0231 97.3475 16.3854 96.1965 15.6 96.1965C14.8152 96.1965 14.1784 98.86 14.1784 102.147L14.1881 104.872C14.1881 107.25 13.55 109.174 12.7652 109.174C11.9811 109.174 11.3434 108.043 11.3434 106.621C11.3434 105.5 10.7066 104.36 9.92155 104.36C9.13645 104.36 8.5 105.65 8.5 108.2C8.5 110.1 7.87161 110.863 7.0875 110.863C5.5616 110.863 5.86407 109.732 4.24474 109.728C2.71565 109.728 3.2216 112 7.63e-06 112L0 8C0 3.58112 3.58113 0 8 0L60 0L88 28L88 28Z" fill="url(#gradient)" transform="translate(20 8)"/>
<path d="M0 0L28 28L0 28Z" fill="#FFFFFF" transform="translate(80 8)" opacity="0.36"/>
</svg>