<?xml version="1.0" encoding="utf-8"?>
<svg width="128" height="128" viewBox="0 0 128 128" xmlns="http://www.w3.org/2000/svg">
<path d="M28.8075 0L0 28.8075L23.2223 52.0297C24.7647 53.5722 26.6264 54.3432 28.8075 54.3432C30.9886 54.3432 32.8503 53.5722 34.3926 52.03L57.615 28.8075L28.8075 0L28.8075 0Z" fill="#03A4EE" transform="translate(35.193 69.657)"/>
<path d="M52.0299 34.3926L28.8075 57.6149L0 28.8074L28.8074 0L52.0297 23.2222C53.5722 24.7648 54.3431 26.6265 54.3431 28.8076C54.3431 30.9887 53.5722 32.8503 52.0299 34.3926L52.0299 34.3926Z" fill="#FFBB10" transform="translate(69.657 35.193)"/>
<path d="M2.31311 23.2224L25.5356 0L54.3432 28.8076L25.5357 57.615L2.31311 34.3925C0.770875 32.8502 0 30.9885 0 28.8074C0 26.6264 0.770875 24.7647 2.31311 23.2224L2.31311 23.2224Z" fill="#EF4F21" transform="translate(4 35.192)"/>
<path d="M34.3924 2.31329L57.6149 25.5358L28.8076 54.3431L0 25.5356L23.2223 2.31329C24.7646 0.770996 26.6263 0 28.8074 0C30.9885 0 32.8502 0.770996 34.3924 2.31329L34.3924 2.31329Z" fill="#7EB903" transform="translate(35.192 4)"/>
<path d="M31.1216 28.806L2.31552 0L2.31311 0.00244141C0.770874 1.54468 0 3.40637 0 5.5874C0 7.76855 0.770874 9.63013 2.31311 11.1725L25.5342 34.3936L31.1216 28.806L31.1216 28.806ZM94.4628 34.3967L117.687 11.1727C119.229 9.63049 120 7.7688 120 5.58777C120 3.40662 119.229 1.54504 117.687 0.00244141L117.684 0.000244141L88.8753 28.8092L94.4628 34.3967L94.4628 34.3967ZM83.2185 34.4661L65.5851 52.0995C64.0428 53.6417 62.1812 54.4127 60 54.4127C57.819 54.4127 55.9573 53.6417 54.4148 52.0992L36.7784 34.4629L31.191 40.0503L54.4148 63.2742C55.9573 64.8167 57.819 65.5876 60 65.5876C62.1812 65.5876 64.0428 64.8167 65.5851 63.2744L88.8059 40.0536L83.2185 34.4661L83.2185 34.4661Z" fill="#000000" opacity="0.3" transform="translate(4 58.412)"/>
</svg>