<?xml version="1.0" encoding="utf-8"?>
<svg width="128" height="128" viewBox="0 0 128 128" xmlns="http://www.w3.org/2000/svg">
<path id="paper" d="M84 88L8 88C3.581 88 0 84.419 0 80L0 8C0 3.581 3.581 0 8 0L104 0C108.419 0 112 3.581 112 8L112 60L84 88L84 88Z" fill="#478CC0" transform="translate(8 20)"/>
<path id="corner" d="M0 0L28 0L0 28Z" fill="#000000" opacity="0.3" transform="translate(92 80)"/>
<path id="path84-6" d="M50.4663 44.0062C50.4663 44.0062 50.1464 48.5905 50.1464 48.5905C50.1078 49.143 49.6683 49.5828 49.1158 49.6225C49.1158 49.6225 38.1124 50.4076 38.1124 50.4076C38.0856 50.4096 38.0587 50.4104 38.0322 50.4104C37.4854 50.4104 37.0136 50.0092 36.9328 49.4601C36.9328 49.4601 36.3018 45.1808 36.3018 45.1808L27.3236 45.1808C27.3236 45.1808 26.6926 49.4601 26.6926 49.4601C26.6078 50.036 26.093 50.4501 25.513 50.4076C25.513 50.4076 14.5096 49.6225 14.5096 49.6225C13.9571 49.5828 13.5176 49.143 13.4791 48.5905C13.4791 48.5905 13.1591 44.0062 13.1591 44.0062C13.1591 44.0062 3.87036 43.1106 3.87036 43.1106C3.87461 44.1089 3.88749 45.2025 3.88749 45.4203C3.88749 55.2305 16.3321 59.9458 31.7937 60C31.7937 60 31.8126 60 31.8126 60C31.8126 60 31.8317 60 31.8317 60C47.2933 59.9458 59.7336 55.2305 59.7336 45.4203C59.7336 45.1985 59.7471 44.1095 59.7516 43.1106C59.7516 43.1106 50.4663 44.0062 50.4663 44.0062ZM25.3414 0C22.435 0.646137 19.5598 1.54572 16.8643 2.90248C16.9259 5.28266 17.0797 7.56329 17.3916 9.87984C16.3448 10.5505 15.2446 11.1261 14.2668 11.9112C13.2734 12.6755 12.2588 13.4067 11.3593 14.3006C9.56213 13.1119 7.65989 11.9949 5.70039 11.0088C3.58817 13.282 1.61334 15.7356 0 18.4811C1.21379 20.4446 2.48091 22.285 3.84909 24.0317C3.84909 24.0317 3.88739 24.0317 3.88739 24.0317L3.88739 37.592L3.88739 39.3143C3.88739 39.3143 3.88739 40.8817 3.88739 40.8817C3.91822 40.882 3.94899 40.8832 3.97952 40.886C3.97952 40.886 14.3097 41.882 14.3097 41.882C14.8508 41.9343 15.2749 42.3698 15.3125 42.9121C15.3125 42.9121 15.6311 47.4721 15.6311 47.4721L24.6421 48.1151C24.6421 48.1151 25.263 43.9064 25.263 43.9064C25.3434 43.3607 25.8115 42.9563 26.3634 42.9563C26.3634 42.9563 37.262 42.9563 37.262 42.9563C37.8137 42.9563 38.2818 43.3607 38.3622 43.9064C38.3622 43.9064 38.983 48.1151 38.983 48.1151L47.9943 47.4721C47.9943 47.4721 48.3126 42.9121 48.3126 42.9121C48.3506 42.3698 48.7744 41.9346 49.3155 41.882C49.3155 41.882 59.6416 40.886 59.6416 40.886C59.6722 40.8832 59.7027 40.882 59.7335 40.8817C59.7335 40.8817 59.7335 39.5373 59.7335 39.5373L59.7378 39.5358L59.7378 24.0317C59.7378 24.0317 59.7759 24.0317 59.7759 24.0317C61.1444 22.285 62.4108 20.4446 63.6252 18.4811C62.0124 15.7356 60.0363 13.282 57.9241 11.0088C55.9651 11.9949 54.0623 13.1119 52.2652 14.3006C51.3659 13.4067 50.353 12.6755 49.3582 11.9112C48.3807 11.1261 47.279 10.5505 46.2342 9.87984C46.5453 7.56329 46.6992 5.28266 46.7611 2.90248C44.0653 1.54572 41.1904 0.646137 38.2825 0C37.1215 1.95125 36.0599 4.06429 35.1353 6.12997C34.0388 5.94675 32.9371 5.87889 31.8341 5.86577C31.8341 5.86577 31.8341 5.86405 31.8341 5.86405C31.8264 5.86405 31.8193 5.86577 31.8127 5.86577C31.8058 5.86577 31.7987 5.86405 31.7918 5.86405C31.7918 5.86405 31.7918 5.86577 31.7918 5.86577C30.6868 5.87889 29.586 5.94675 28.4892 6.12997C27.5651 4.06429 26.5041 1.95125 25.3414 0C25.3414 0 25.3414 0 25.3414 0ZM17.1689 24.6495C20.6074 24.6495 23.3942 27.4345 23.3942 30.8717C23.3942 34.3113 20.6074 37.0976 17.1689 37.0976C13.7322 37.0976 10.9444 34.3113 10.9444 30.8717C10.9444 27.4345 13.7322 24.6495 17.1689 24.6495C17.1689 24.6495 17.1689 24.6495 17.1689 24.6495ZM46.4569 24.6495C49.8933 24.6495 52.6809 27.4344 52.6809 30.8717C52.6809 34.3113 49.8933 37.0976 46.4569 37.0976C43.0179 37.0976 40.2311 34.3113 40.2311 30.8717C40.2311 27.4344 43.0179 24.6495 46.4569 24.6495C46.4569 24.6495 46.4569 24.6495 46.4569 24.6495ZM31.8122 28.2908C32.9189 28.2908 33.8179 29.1072 33.8179 30.1118C33.8179 30.1118 33.8179 35.8429 33.8179 35.8429C33.8179 36.8483 32.9189 37.664 31.8122 37.664C30.7054 37.664 29.8084 36.8483 29.8084 35.8429C29.8084 35.8429 29.8084 30.1118 29.8084 30.1118C29.8084 29.1072 30.7054 28.2908 31.8122 28.2908C31.8122 28.2908 31.8122 28.2908 31.8122 28.2908ZM42 31.1322C42 33.4137 43.8485 35.2628 46.13 35.2628C48.4137 35.2628 50.2622 33.4137 50.2622 31.1322C50.2622 28.8508 48.4137 27 46.13 27C43.8485 27 42 28.8508 42 31.1322C42 31.1322 42 31.1322 42 31.1322ZM22.2645 31.1322C22.2645 33.4137 20.4154 35.2628 18.1322 35.2628C15.8502 35.2628 14 33.4137 14 31.1322C14 28.8508 15.8502 27 18.1322 27C20.4154 27 22.2645 28.8508 22.2645 31.1322C22.2645 31.1322 22.2645 31.1322 22.2645 31.1322Z" fill="#FFFFFF" transform="translate(32 34)"/>
</svg>