<?xml version="1.0" encoding="utf-8"?>
<svg width="128" height="128" viewBox="0 0 128 128" xmlns="http://www.w3.org/2000/svg">
<path id="paper" d="M108 36L108 112C108 116.4 104.4 120 100 120L28 120C23.6 120 20 116.4 20 112L20 16C20 11.6 23.6 8 28 8L80 8Z" fill="#702500"/>
<path id="corner" d="M0 0L28 28L0 28Z" fill="#FF9A00" transform="translate(80 8)"/>
<g id="Ai" fill="#FF9A00" transform="translate(40 62)">
<path id="i" d="M4.34478 8.9154C3.76228 8.93869 3.18142 8.83889 2.64012 8.6224C2.09882 8.4059 1.60931 8.07759 1.20354 7.65899C0.79892 7.22215 0.48465 6.70969 0.278755 6.15104C0.0728645 5.59238 -0.0205917 4.99848 0.00378799 4.40357C-0.0168762 3.81459 0.0869827 3.22785 0.308468 2.68169C0.530025 2.13553 0.864288 1.64231 1.28951 1.23411C1.71033 0.830092 2.20713 0.513591 2.75106 0.302839C3.29507 0.0921541 3.87539 -0.0085968 4.45856 0.00639271C5.05233 -0.0262215 5.64636 0.0662219 6.20211 0.277652C6.75793 0.489146 7.2631 0.815033 7.68494 1.23411C8.07917 1.65933 8.38547 2.15822 8.58643 2.70208C8.78746 3.24601 8.87909 3.82418 8.85614 4.40357C8.87997 5.00084 8.78355 5.59677 8.57253 6.15603C8.3615 6.71529 8.04013 7.22641 7.62768 7.65899C7.19693 8.0838 6.68284 8.41468 6.11777 8.63097C5.55277 8.84719 4.94907 8.94403 4.34478 8.9154C4.34478 8.9154 4.34478 8.9154 4.34478 8.9154ZM0.647118 39.4286C0.647118 39.4286 0.647118 13.3181 0.647118 13.3181C0.647118 12.9752 0.79858 12.8041 1.10461 12.8041C1.10461 12.8041 7.59351 12.8041 7.59351 12.8041C7.89799 12.8041 8.05026 12.9755 8.05026 13.3181C8.05026 13.3181 8.05026 39.4286 8.05026 39.4286C8.05026 39.81 7.89799 40.0004 7.59351 39.9999C7.59351 39.9999 1.16114 39.9999 1.16114 39.9999C0.818233 39.9999 0.646847 39.8094 0.647118 39.4286C0.647118 39.4286 0.647118 39.4286 0.647118 39.4286Z" transform="translate(38.313 0)"/>
<path id="A" d="M23.6934 27.7218L10.5015 27.7218C10.5015 27.7218 7.80643 36.533 7.80643 36.533C7.7699 36.685 7.68151 36.8195 7.55645 36.9133C7.43139 37.0072 7.27756 37.0545 7.12137 37.0471C7.12137 37.0471 0.439481 37.0471 0.439481 37.0471C0.0588984 37.0471 -0.0745363 36.8376 0.0393146 36.4188C0.0393146 36.4188 11.428 3.52761 11.428 3.52761C11.5426 3.18504 11.6566 2.7948 11.7701 2.35682C11.9271 1.71761 12.004 1.06144 11.9993 0.403325C11.9915 0.349034 11.9965 0.293728 12.0139 0.241666C12.0311 0.18967 12.0604 0.142398 12.0991 0.103638C12.1378 0.0648105 12.1851 0.0355706 12.2371 0.0182164C12.2891 0.000862122 12.3444 -0.00420213 12.3987 0.00349474C12.3987 0.00349474 21.4787 0.00349474 21.4787 0.00349474C21.7447 0.00349474 21.8977 0.0991814 21.9354 0.289135C21.9354 0.289135 34.9334 36.4758 34.9334 36.4758C35.0472 36.8571 34.9329 37.0475 34.5905 37.0471C34.5905 37.0471 27.1662 37.0471 27.1662 37.0471C27.0387 37.0612 26.9104 37.0283 26.8052 36.9548C26.7001 36.8812 26.6254 36.7719 26.5949 36.6473C26.5949 36.6473 23.6934 27.7218 23.6934 27.7218L23.6934 27.7218ZM12.484 21.6444C12.484 21.6444 22.1499 21.6444 22.1499 21.6444C21.9215 20.8832 21.136 19.1238 20.8315 18.1716C20.5263 17.2204 20.1085 16.4629 19.7656 15.3776C19.4227 14.2927 19.08 13.2078 18.7376 12.1226C18.3947 11.0373 18.0807 9.9903 17.7956 8.98138C17.51 7.97299 17.253 7.04976 17.0246 6.21175C17.0246 6.21175 16.9673 6.21175 16.9673 6.21175C16.6462 7.75421 16.2456 9.27917 15.7675 10.7804C15.2339 12.4939 14.6915 14.2452 14.1404 16.0345C13.588 17.8243 13.0162 20.122 12.484 21.6444C12.484 21.6444 12.484 21.6444 12.484 21.6444Z" transform="translate(0 3)"/>
</g></svg>