<?xml version="1.0" encoding="utf-8"?>
<svg width="128" height="128" viewBox="0 0 128 128" xmlns="http://www.w3.org/2000/svg">
<g id="sheet" transform="translate(20 8)">
<path id="paper" d="M88 28L88 104C88 108.4 84.4 112 80 112L8 112C3.6 112 0 108.4 0 104L0 8C0 3.6 3.6 0 8 0L60 0Z" fill="#0A50C8"/>
<path id="corner" d="M0 0L28 28L0 28Z" fill="#28D2FF" transform="translate(60 0)"/>
</g><g id="Ps" fill="#28D2FF" transform="translate(38 62)">
<path d="M0 39.155C0 39.155 0 0.610775 0 0.610775C0 0.32983 0.121037 0.188539 0.362181 0.188539C1.00459 0.188539 1.76854 0.178483 2.65395 0.158298C3.53837 0.138398 4.49353 0.118357 5.51966 0.0982422C6.54494 0.0783451 7.6307 0.0581596 8.77694 0.0376885C9.92326 0.0177887 11.0592 0.00773271 12.1847 0.00744702C14.8052 -0.0597399 17.4174 0.328118 19.9054 1.15376C21.7922 1.79211 23.513 2.84299 24.9426 4.23002C26.1542 5.43232 27.0906 6.88312 27.6873 8.48241C28.2509 10.039 28.5366 11.6826 28.531 13.3381C28.645 16.1611 27.8638 18.9479 26.299 21.3003C24.8018 23.3996 22.6966 24.9891 20.2675 25.8543C17.5603 26.8293 14.6998 27.3096 11.8225 27.272C10.9373 27.272 10.3143 27.262 9.9535 27.2418C9.59132 27.2219 9.0484 27.2118 8.32489 27.2116C8.32489 27.2116 8.32489 39.0946 8.32489 39.0946C8.33531 39.1683 8.32853 39.2435 8.30492 39.3141C8.28139 39.3847 8.24166 39.4489 8.18902 39.5016C8.13639 39.5543 8.0722 39.5939 8.00151 39.6175C7.9309 39.6411 7.85573 39.6479 7.78198 39.6374C7.78198 39.6374 0.422734 39.6374 0.422734 39.6374C0.140935 39.6374 0 39.4766 0 39.155C0 39.155 0 39.155 0 39.155ZM8.32482 7.42675C8.32482 7.42675 8.32482 19.9127 8.32482 19.9127C8.84698 19.9534 9.32942 19.9735 9.77198 19.9733C9.77198 19.9733 11.7621 19.9733 11.7621 19.9733C13.2221 19.9948 14.6768 19.7914 16.0749 19.3702C17.2703 19.0153 18.3385 18.3243 19.1523 17.3794C19.9943 16.2752 20.4115 14.9052 20.328 13.5191C20.36 12.3524 20.0563 11.201 19.4532 10.2017C18.8193 9.23544 17.9033 8.48775 16.8296 8.06039C15.4274 7.51512 13.9296 7.25864 12.426 7.30614C11.4612 7.30614 10.6068 7.31627 9.86284 7.33638C9.11773 7.35706 8.60505 7.38723 8.32482 7.42675C8.32482 7.42675 8.32482 7.42675 8.32482 7.42675Z"/>
<path d="M20.4238 8.69299C19.0242 8.11748 17.5674 7.69296 16.0779 7.42649C14.7028 7.11089 13.2969 6.94898 11.886 6.94377C11.1227 6.92316 10.3605 7.0146 9.62374 7.21516C9.15471 7.31958 8.73789 7.58676 8.44725 7.96941C8.25096 8.27539 8.14647 8.63122 8.14633 8.99469C8.15717 9.34745 8.2842 9.68674 8.50773 9.95991C8.86028 10.3721 9.29101 10.7104 9.77501 10.9553C10.635 11.4184 11.5211 11.8312 12.429 12.1915C14.4531 12.8694 16.3874 13.7911 18.189 14.9362C19.416 15.7109 20.4316 16.7784 21.1448 18.0427C21.744 19.2398 22.0442 20.5645 22.0193 21.903C22.0557 23.6707 21.5507 25.4071 20.5714 26.8793C19.5244 28.3742 18.0691 29.5362 16.3797 30.227C14.2247 31.0918 11.9145 31.5026 9.59349 31.4337C7.88236 31.4511 6.17409 31.2892 4.49663 30.951C3.09769 30.705 1.73134 30.3002 0.424128 29.7446C0.292246 29.6765 0.18255 29.5723 0.107805 29.444C0.0331306 29.3158 -0.0035305 29.1689 0.00224304 29.0206C0.00224304 29.0206 0.00224304 22.5064 0.00224304 22.5064C-0.00495529 22.4425 0.00524139 22.3779 0.0319176 22.3194C0.0585213 22.261 0.100599 22.2109 0.153524 22.1744C0.205236 22.1453 0.264647 22.1325 0.323774 22.1379C0.382973 22.1433 0.439032 22.1666 0.484606 22.2047C2.01314 23.0573 3.66015 23.6772 5.37142 24.0443C6.81209 24.4055 8.28991 24.5979 9.77501 24.6174C10.8387 24.6836 11.9029 24.4976 12.8811 24.0746C13.1809 23.9374 13.4344 23.7163 13.6111 23.4379C13.7877 23.1596 13.8798 22.836 13.8761 22.5064C13.8506 22.2027 13.7558 21.9088 13.5991 21.6474C13.4423 21.386 13.2278 21.164 12.9719 20.9984C11.8306 20.2506 10.5925 19.662 9.29186 19.2492C7.39794 18.5898 5.60222 17.6767 3.95372 16.5348C2.77445 15.7152 1.80367 14.6306 1.11903 13.3682C0.525118 12.1798 0.224848 10.8662 0.243464 9.53775C0.240252 7.94174 0.678892 6.37604 1.51074 5.01397C2.45899 3.51368 3.8207 2.31958 5.43197 1.57539C7.30243 0.552751 9.40441 0.0281658 11.5361 0.0519152C13.2313 -0.0365973 14.9305 -0.01192 16.6224 0.125876C17.9989 0.406038 19.3362 0.852239 20.6049 1.45478C20.687 1.47825 20.7626 1.52047 20.8253 1.57803C20.8881 1.63566 20.9359 1.70712 20.9665 1.78672C21.0072 1.93393 21.0279 2.08607 21.0272 2.23884C21.0272 2.23884 21.0272 8.33123 21.0272 8.33123C21.0314 8.40206 21.0165 8.47274 20.9851 8.53622C20.953 8.5997 20.9052 8.65376 20.846 8.69299C20.7832 8.733 20.7098 8.75418 20.6349 8.75418C20.56 8.75418 20.4865 8.733 20.4238 8.69299C20.4238 8.69299 20.4238 8.69299 20.4238 8.69299Z" transform="translate(31.38 8.56)"/>
</g></svg>