<?xml version="1.0" encoding="utf-8"?>
<svg width="128" height="128" viewBox="0 0 128 128" xmlns="http://www.w3.org/2000/svg">
<path id="paper" d="M108 36L108 112C108 116.4 104.4 120 100 120L28 120C23.6 120 20 116.4 20 112L20 16C20 11.6 23.6 8 28 8L80 8Z" fill="#808080"/>
<path id="corner" d="M0 0L28 28L0 28Z" fill="#505050" transform="translate(80 8)"/>
<path id="gear" d="M31.5 0L28.5 0C27.9957 0 27.5545 0.166878 27.1764 0.5C26.7983 0.834404 26.578 1.2515 26.5154 1.75193L25.9455 6.31116C24.4551 6.54744 23 6.9183 21.6414 7.42371L18.8934 3.79465C18.589 3.39262 18.1896 3.14163 17.6954 3.04168C17.2011 2.94173 16.7356 3.01785 16.2988 3.27L13.7012 4.77C13.2645 5.0222 12.966 5.38728 12.8054 5.8653C12.6448 6.34332 12.6626 6.81464 12.8585 7.27925L14.6524 11.5325C14.099 12 13.558 12.5 13.0292 13.0292C12.5 13.5578 12 14.1 11.5327 14.6522L7.27924 12.8582C6.81461 12.6622 6.3433 12.6445 5.86528 12.8051C5.38726 12.9656 5.02217 13.2642 4.77 13.7L3.27 16.2985C3.0178 16.7353 2.9417 17.2 3.0417 17.6952C3.14171 18.1896 3.3928 18.6 3.795 18.8933L7.42412 21.6403C6.9185 23.0196 6.5475 24.4547 6.31116 25.9455L1.75193 26.5154C1.2515 26.578 0.8344 26.7983 0.5 27.1764C0.166878 27.5545 0 27.9957 0 28.5L0 31.5C0 32 0.166878 32.4455 0.5 32.8236C0.834404 33.2017 1.2515 33.422 1.75193 33.4846L6.31116 34.0545C6.54744 35.545 6.9183 36.9796 7.42371 38.3586L3.79465 41.1066C3.39262 41.411 3.14163 41.81 3.04168 42.3047C2.94173 42.7989 3.01785 43.2644 3.27 43.7012L4.77 46.3C5.0222 46.7355 5.38728 47.0341 5.8653 47.1946C6.34331 47.3552 6.81463 47.3374 7.27926 47.1415L11.5325 45.3476C12 45.901 12.5 46.4421 13.0292 46.971C13.5578 47.5 14.0988 47.9983 14.6522 48.4674L12.8582 52.721C12.6623 53.1854 12.6446 53.6567 12.8051 54.1347C12.9656 54.6127 13.2642 54.9778 13.7 55.23L16.2986 56.7299C16.7353 56.9821 17.2 57.0583 17.6951 56.9583C18.1893 56.8584 18.5887 56.6074 18.8931 56.2053L21.6412 52.5762C23 53.0817 24.455 53.4525 25.9455 53.6888L26.5154 58.2481C26.578 58.7485 26.7983 59.1656 27.1764 59.5C27.5545 59.8331 27.9957 60 28.5 60L31.5 60C32 60 32.4455 59.8331 32.8236 59.4994C33.2017 59.1656 33.422 58.7485 33.4846 58.2481L34.0545 53.6888C35.545 53.4526 36.98 53.0817 38.3587 52.5762L41.107 56.2054C41.4113 56.6075 41.81 56.8585 42.305 56.9584C42.7992 57.0584 43.2647 56.9823 43.7014 56.7301L46.2991 55.23C46.7358 54.978 47.0344 54.6128 47.195 54.1348C47.3555 53.6568 47.3377 53.1855 47.1418 52.7208L45.3478 48.4674C45.9012 47.9983 46.4422 47.4995 46.9708 46.9708C47.4995 46.4421 47.9985 45.901 48.4676 45.3475L52.7208 47.1415C53.1855 47.3374 53.6568 47.3551 54.1348 47.1946C54.6128 47.0341 54.9779 46.7355 55.2301 46.2988L56.7301 43.7011C56.9822 43.2644 57.0584 42.7989 56.9584 42.3046C56.8585 41.8103 56.6075 41.411 56.2054 41.1066L52.5763 38.3585C53.0817 36.9796 53.4526 35.5449 53.6888 34.0545L58.2481 33.4846C58.7485 33.422 59.1656 33.2017 59.4994 32.8236C59.8331 32.4455 60 32 60 31.5L60 28.5C60 27.9957 59.8331 27.5545 59.4994 27.1764C59.1656 26.7983 58.7485 26.578 58.2481 26.5154L53.6888 25.9455C53.4525 24.4547 53.0815 23.0196 52.576 21.64L56.205 18.8934C56.6073 18.589 56.8584 18.1896 56.9584 17.6952C57.0584 17.2 56.9823 16.7353 56.73 16.2985L55.2301 13.7C54.978 13.2642 54.6128 12.9656 54.1348 12.805C53.6568 12.6445 53.1855 12.6623 52.721 12.8582L48.4674 14.6522C47.9984 14.0988 47.5 13.5578 46.9708 13.03C46.4421 12.5 45.9 12 45.3475 11.5324L47.1415 7.28C47.3374 6.81453 47.3552 6.3432 47.1946 5.86519C47.0341 5.38718 46.7355 5.02209 46.2988 4.77L43.7012 3.27C43.2644 3.01775 42.8 2.94163 42.3047 3.04157C41.8104 3.14153 41.411 3.39251 41.1066 3.79455L38.3585 7.42369C36.9796 6.9183 35.545 6.54744 34.0545 6.31116L33.4846 1.75193C33.422 1.2515 33.2017 0.834404 32.8236 0.5C32.4455 0.166878 32 0 31.5 0L31.5 0ZM39.9 20.1C42.6333 22.8337 44 26.1336 44 30C44 33.8664 42.6333 37.1663 39.8998 39.8998C37.1663 42.6333 33.8663 44 30 44C26.1336 44 22.8337 42.6333 20.1 39.8998C17.3667 37.1663 16 33.8664 16 30C16 26.1336 17.3667 22.8337 20.1 20.1C22.8337 17.3667 26.1336 16 30 16C33.8664 16 37.1663 17.3667 39.9 20.1L39.9 20.1Z" fill="#F6F5F4" transform="translate(34 48)"/>
</svg>