<?xml version="1.0" encoding="utf-8"?>
<svg width="128" height="128" viewBox="0 0 128 128" xmlns="http://www.w3.org/2000/svg">
<path id="paper" d="M108 36L108 112C108 116.4 104.4 120 100 120L28 120C23.6 120 20 116.4 20 112L20 16C20 11.6 23.6 8 28 8L80 8Z" fill="#3C2CB7"/>
<path id="corner" d="M0 0L28 28L0 28Z" fill="#9999FF" transform="translate(80 8)"/>
<g id="Ae" fill="#9999FF" transform="translate(31 62)">
<path d="M25.1436 29.4485L11.1374 29.4485C11.1374 29.4485 8.28816 38.6836 8.28816 38.6836C8.24916 38.845 8.15517 38.9879 8.02226 39.0874C7.88934 39.187 7.72588 39.2372 7.56 39.2292C7.56 39.2292 0.466106 39.2292 0.466106 39.2292C0.0620536 39.2292 -0.0793227 39 0.0420512 38.5623C0.0420512 38.5623 12.1688 4.12674 12.1688 4.12674C12.2896 3.76312 12.4107 3.34875 12.532 2.88375C12.6908 2.07478 12.772 1.25255 12.7745 0.428174C12.7664 0.370461 12.7718 0.311673 12.7902 0.256471C12.8087 0.201269 12.8398 0.151085 12.881 0.109934C12.9222 0.0687121 12.9724 0.0377403 13.0277 0.0193159C13.0829 0.000891412 13.1417 0 13.1993 0.0037575C13.1993 0.0037575 22.8393 0.0037575 22.8393 0.0037575C23.1209 0.0037575 23.2834 0.105345 23.3242 0.307013C23.3242 0.307013 37.0872 38.6228 37.0872 38.6228C37.208 39.0276 37.0867 39.2298 36.7231 39.2292C36.7231 39.2292 28.8418 39.2292 28.8418 39.2292C28.7064 39.2445 28.5701 39.2097 28.4584 39.1317C28.3468 39.0535 28.2675 38.9373 28.2354 38.8048C28.2354 38.8048 25.1436 29.4485 25.1436 29.4485L25.1436 29.4485ZM13.3204 23C13.3204 23 22.9 23 22.9 23C22.6571 22.1881 22.3739 20.5294 22.0506 19.5185C21.7273 18.5087 21.3838 17.4275 21.02 16.2747C20.6568 15.1229 20.293 13.9711 19.9287 12.819C19.5654 11.6668 19.232 10.5552 18.9285 9.48404C18.626 8.41347 18.3535 7.4333 18.1108 6.54361C18.1108 6.54361 18.0499 6.54361 18.0499 6.54361C17.7085 8.18112 17.2834 9.8 16.7761 11.394C16.2096 13.2131 15.6335 15.0725 15.0478 16.9722C14.4621 18.8724 13.886 21.38 13.3204 23C13.3204 23 13.3204 23 13.3204 23Z"/>
<path d="M20.3521 17.6C20.3521 17.6 8.40755 17.6 8.40755 17.6C8.58119 18.8291 9 20.0102 9.64079 21.0732C10.3185 22.0841 11.2773 22.8746 12.3988 23.3472C13.9456 24.0409 15.6226 24.3966 17.3177 24.3905C18.453 24.4182 19.588 24.3291 20.7048 24.1246C21.9236 23.9067 23.1136 23.5507 24.2521 23.0636C24.4536 22.9024 24.5546 23.0033 24.5554 23.3664C24.5554 23.3664 24.5554 29.1265 24.5554 29.1265C24.5654 29.2836 24.5339 29.4404 24.4643 29.5814C24.3948 29.6918 24.3016 29.785 24.1912 29.8542C22.9358 30.4481 21.6117 30.8859 20.2496 31.1576C18.6236 31.3874 16.9784 31.452 15.3393 31.3505C12.8667 31.4268 10.4064 30.9718 8.12452 30.0163C6.29093 29.2086 4.67135 27.9837 3.39502 26.4393C2.20329 24.9837 1.31668 23.3031 0.788174 21.4977C0.264969 19.7157 0 17.868 7.24792e-05 16.0108C-0.00545502 13.9828 0.311855 11.9669 0.940231 10.0387C1.54459 8.15762 2.50125 6.4087 3.75907 4.88504C4.99934 3.37901 6.55045 2.1589 8.30618 1.30806C10.2808 0.397003 12.4381 -0.0490618 14.612 0C16.7294 -0.0246868 18.8294 0.389835 20.7772 1.2211C22.3336 1.92597 23.6958 2.99733 24.7482 4.34363C25.7411 5.62533 26.5 7.07228 26.9907 8.61788C27.4689 10.1074 27.7141 11.6616 27.7191 13.2259C27.7191 14.1152 27.6883 14.9236 27.6281 15.651C27.5772 16.0843 27.499 16.5139 27.3943 16.9374C27.3793 17.0711 27.3148 17.1945 27.2144 17.284C27.1133 17.3734 26.9836 17.4228 26.8488 17.4227C26.6072 17.4227 26.1921 17.4531 25.6071 17.5135C25.0199 17.5743 23.979 17.55 23.1108 17.5701C22.2404 17.5908 21.3206 17.6009 20.3521 17.6C20.3521 17.6 20.3521 17.6 20.3521 17.6ZM8.37335 12.7834C8.37335 12.7834 16.3155 12.7834 16.3155 12.7834C17.286 12.7834 18.0035 12.7733 18.4678 12.7533C18.7633 12.7535 19.058 12.7229 19.3472 12.6621C19.3472 12.6621 19.3472 12.2984 19.3472 12.2984C19.382 11.573 19.3393 10.8459 19.2199 10.1294C18.8927 9.09512 18.235 8.19675 17.3477 7.57246C16.4604 6.94817 15.3928 6.63244 14.3087 6.67367C13.2883 6.61215 12.2721 6.84881 11.3839 7.35481C10.4956 7.86081 9.77377 8.61422 9.30635 9.52334C8.85132 10.5635 8.53753 11.66 8.37335 12.7834C8.37335 12.7834 8.37335 12.7834 8.37335 12.7834Z" transform="translate(39.43 8.6)"/>
</g></svg>