<?xml version="1.0" encoding="utf-8"?>
<svg width="128" height="128" viewBox="0 0 128 128" fill="none" xmlns="http://www.w3.org/2000/svg">
  <defs>
    <path id="path_1" d="M108 7.89844L108 84.1015Q108 84.2954 107.99 84.4891Q107.981 84.6828 107.962 84.8757Q107.943 85.0687 107.914 85.2605Q107.886 85.4523 107.848 85.6425Q107.81 85.8326 107.763 86.0207Q107.716 86.2088 107.66 86.3943Q107.604 86.5799 107.538 86.7625Q107.473 86.945 107.399 87.1241Q107.325 87.3033 107.242 87.4786Q107.159 87.6538 107.067 87.8248Q106.976 87.9958 106.876 88.1621Q106.777 88.3285 106.669 88.4897Q106.561 88.6509 106.446 88.8066Q106.33 88.9624 106.207 89.1123Q106.084 89.2621 105.954 89.4058Q105.824 89.5495 105.687 89.6866Q105.549 89.8237 105.406 89.9539Q105.262 90.0841 105.112 90.2071Q104.962 90.3301 104.807 90.4456Q104.651 90.5611 104.49 90.6688Q104.328 90.7766 104.162 90.8763Q103.996 90.9759 103.825 91.0673Q103.654 91.1587 103.479 91.2416Q103.303 91.3245 103.124 91.3987Q102.945 91.4729 102.762 91.5383Q102.58 91.6036 102.394 91.6599Q102.209 91.7162 102.021 91.7633Q101.833 91.8104 101.642 91.8482Q101.452 91.886 101.26 91.9145Q101.069 91.9429 100.876 91.9619Q100.683 91.9809 100.489 91.9905Q100.295 92 100.102 92L7.89844 92Q7.70454 92 7.51088 91.9905Q7.31722 91.981 7.12426 91.962Q6.93129 91.943 6.7395 91.9145Q6.5477 91.8861 6.35753 91.8482Q6.16736 91.8104 5.97928 91.7633Q5.79119 91.7162 5.60564 91.6599Q5.4201 91.6036 5.23754 91.5383Q5.05497 91.473 4.87584 91.3988Q4.6967 91.3246 4.52142 91.2417Q4.34614 91.1588 4.17514 91.0674Q4.00414 90.976 3.83783 90.8763Q3.67152 90.7766 3.5103 90.6689Q3.34908 90.5611 3.19334 90.4456Q3.03761 90.3301 2.88772 90.2071Q2.73784 90.0841 2.59417 89.9539Q2.4505 89.8237 2.3134 89.6866Q2.17629 89.5495 2.04608 89.4058Q1.91587 89.2622 1.79286 89.1123Q1.66986 88.9624 1.55435 88.8067Q1.43885 88.6509 1.33113 88.4897Q1.2234 88.3285 1.12372 88.1622Q1.02404 87.9959 0.932638 87.8249Q0.841236 87.6539 0.758335 87.4786Q0.675434 87.3033 0.601233 87.1242Q0.527032 86.945 0.461711 86.7625Q0.396389 86.5799 0.340104 86.3944Q0.283819 86.2088 0.236706 86.0207Q0.189593 85.8326 0.151766 85.6425Q0.113939 85.4523 0.0854887 85.2605Q0.0570383 85.0687 0.0380331 84.8757Q0.019028 84.6828 0.00951402 84.4891Q0 84.2955 0 84.1016L0 7.89844Q0 7.70454 0.00951401 7.51088Q0.019028 7.31722 0.0380331 7.12426Q0.0570382 6.93129 0.0854886 6.7395Q0.113939 6.5477 0.151766 6.35753Q0.189593 6.16736 0.236706 5.97927Q0.283819 5.79119 0.340104 5.60564Q0.396389 5.42009 0.46171 5.23753Q0.527032 5.05497 0.601233 4.87584Q0.675433 4.6967 0.758334 4.52142Q0.841236 4.34614 0.932637 4.17514Q1.02404 4.00414 1.12372 3.83783Q1.2234 3.67152 1.33113 3.5103Q1.43885 3.34908 1.55435 3.19334Q1.66986 3.0376 1.79286 2.88772Q1.91587 2.73784 2.04608 2.59417Q2.17629 2.4505 2.3134 2.3134Q2.4505 2.17629 2.59417 2.04608Q2.73784 1.91587 2.88772 1.79286Q3.0376 1.66986 3.19334 1.55435Q3.34908 1.43885 3.5103 1.33113Q3.67152 1.2234 3.83783 1.12372Q4.00414 1.02404 4.17514 0.932637Q4.34614 0.841236 4.52142 0.758334Q4.6967 0.675433 4.87584 0.601233Q5.05497 0.527032 5.23753 0.46171Q5.4201 0.396389 5.60564 0.340104Q5.79119 0.283819 5.97927 0.236706Q6.16736 0.189593 6.35753 0.151766Q6.5477 0.113939 6.7395 0.0854886Q6.93129 0.0570382 7.12426 0.0380331Q7.31722 0.019028 7.51088 0.00951401Q7.70454 0 7.89844 0L100.102 0Q100.295 0 100.489 0.00951402Q100.683 0.019028 100.876 0.0380332Q101.069 0.0570383 101.26 0.0854887Q101.452 0.113939 101.642 0.151766Q101.833 0.189594 102.021 0.236706Q102.209 0.283819 102.394 0.340104Q102.58 0.396389 102.762 0.461711Q102.945 0.527032 103.124 0.601233Q103.303 0.675434 103.479 0.758335Q103.654 0.841236 103.825 0.932638Q103.996 1.02404 104.162 1.12372Q104.328 1.2234 104.49 1.33113Q104.651 1.43885 104.807 1.55435Q104.962 1.66986 105.112 1.79286Q105.262 1.91587 105.406 2.04608Q105.55 2.1763 105.687 2.3134Q105.824 2.45051 105.954 2.59417Q106.084 2.73784 106.207 2.88772Q106.33 3.03761 106.446 3.19335Q106.561 3.34908 106.669 3.5103Q106.777 3.67152 106.876 3.83783Q106.976 4.00414 107.067 4.17514Q107.159 4.34614 107.242 4.52142Q107.325 4.6967 107.399 4.87584Q107.473 5.05498 107.538 5.23754Q107.604 5.4201 107.66 5.60565Q107.716 5.79119 107.763 5.97928Q107.81 6.16736 107.848 6.35753Q107.886 6.5477 107.915 6.7395Q107.943 6.9313 107.962 7.12426Q107.981 7.31722 107.99 7.51088Q108 7.70455 108 7.89844Z" />
    <linearGradient id="gradient_2" gradientUnits="userSpaceOnUse" x1="54" y1="0" x2="54" y2="92">
      <stop offset="0" stop-color="#F70CFF" />
      <stop offset="1" stop-color="#FFFFFF" stop-opacity="0" />
    </linearGradient>
    <linearGradient id="gradient_3" gradientUnits="userSpaceOnUse" x1="0" y1="0" x2="108" y2="92">
      <stop offset="0" stop-color="#FFFFFF" stop-opacity="0" />
      <stop offset="0.629" stop-color="#FFFF00" />
    </linearGradient>
    <linearGradient id="gradient_4" gradientUnits="userSpaceOnUse" x1="108" y1="0" x2="0" y2="92">
      <stop offset="0.219" stop-color="#FFFFFF" stop-opacity="0" />
      <stop offset="0.871" stop-color="#55FFFF" />
    </linearGradient>
    <linearGradient id="gradient_5" gradientUnits="userSpaceOnUse" x1="34.475" y1="17.355" x2="39.31" y2="22.175">
      <stop offset="0.006" stop-color="#8D8D8D" />
      <stop offset="1" stop-color="#3A3A3A" />
    </linearGradient>
    <linearGradient id="gradient_6" gradientUnits="userSpaceOnUse" x1="17.409" y1="22.853" x2="12.209" y2="17.789">
      <stop offset="0" stop-color="#8E8E8E" />
      <stop offset="1" stop-color="#FFFFFF" />
    </linearGradient>
    <radialGradient id="gradient_7" gradientUnits="userSpaceOnUse" cx="0" cy="0" r="1" gradientTransform="matrix(-27 0 -0 -26.414 21 10)">
      <stop offset="0" stop-color="#5B5B5B" />
      <stop offset="0.534" stop-color="#262626" />
      <stop offset="1" stop-color="#113F78" />
    </radialGradient>
    <linearGradient id="gradient_8" gradientUnits="userSpaceOnUse" x1="7.25" y1="16.43" x2="42.82" y2="52">
      <stop offset="0" stop-color="#20D29D" />
      <stop offset="1" stop-color="#103C72" />
    </linearGradient>
    <radialGradient id="gradient_9" gradientUnits="userSpaceOnUse" cx="0" cy="0" r="1" gradientTransform="matrix(11.089 0 0 9 20.094 2)">
      <stop offset="0" stop-color="#113F78" stop-opacity="0" />
      <stop offset="0.786" stop-color="#113F78" stop-opacity="0.106" />
      <stop offset="1" stop-color="#103C72" />
    </radialGradient>
  </defs>
    <g id="tripod" transform="translate(24 4)">
      <path id="Sendero" d="M0 0L0 2L16 2L16 0L0 0Z" fill="#404040" transform="translate(64 119)" />
      <path id="Sendero" d="M0 0L0 2L16 2L16 0L0 0Z" fill="#404040" transform="translate(0 119)" />
      <path id="Sendero" d="M24 100L24 96L0 0L0 4L24 100Z" fill="#444444" fill-rule="evenodd" transform="translate(40 21)" />
      <path id="Sendero" d="M0 100L0 96L24 0L24 4L0 100Z" fill="#444444" fill-rule="evenodd" transform="translate(16 21)" />
      <path id="Forma" d="M40 4.76837e-07C37.0938 0.00390625 34.582 2.02734 33.9609 4.86719C33.9609 4.86719 33.957 4.86328 33.957 4.86328L0 119L16 119L40 18L64 119L80 119L46.0078 4.71484C46.0078 4.71484 46 4.72656 46 4.72656C45.3281 1.95312 42.8516 0.00390625 40 0C40 0 40 4.76837e-07 40 4.76837e-07ZM40 5C41.6562 5 43 6.34375 43 8C43 9.65625 41.6562 11 40 11C38.3438 11 37 9.65625 37 8C37 6.34375 38.3438 5 40 5C40 5 40 5 40 5Z" fill="#777777" />
    </g>
    <g transform="translate(10 20)">
      <use p4:href="#path_1" fill="#F6F5F4" fill-rule="evenodd" xmlns:p4="http://www.w3.org/1999/xlink" />
      <use p4:href="#path_1" fill="url(#gradient_2)" fill-rule="evenodd" xmlns:p4="http://www.w3.org/1999/xlink" />
      <use p4:href="#path_1" fill="url(#gradient_3)" fill-rule="evenodd" xmlns:p4="http://www.w3.org/1999/xlink" />
      <use p4:href="#path_1" fill="url(#gradient_4)" fill-rule="evenodd" xmlns:p4="http://www.w3.org/1999/xlink" />
    </g>
    <path id="Vector" d="M100 0C104.419 0 108 3.58112 108 8L108 84C108 88.4189 104.419 92 100 92L8 92C3.58112 92 0 88.4189 0 84L0 8C0 3.58112 3.58112 0 8 0L100 0L100 0ZM100 2C103.314 2 106 4.68584 106 8L106 80C106 83.3142 103.314 86 100 86L8 86C4.68584 86 2 83.3142 2 80L2 8C2 4.68584 4.68584 2 8 2L100 2L100 2Z" fill="#000000" fill-rule="evenodd" fill-opacity="0.4" transform="translate(10 20)" />
    <g id="brush" transform="translate(56 32.806)">
      <path id="Sendero" d="M58.6492 3.19437C58.6492 3.19437 9.74298 52.1045 9.74298 52.1045C7.54376 54.3897 3.89923 54.4287 1.65704 52.1866C-0.585146 49.9444 -0.546083 46.2998 1.73907 44.1006C1.73907 44.1006 42.8719 2.9678 42.8719 2.9678C47.7703 -1.23532 54.6492 -0.805633 58.6492 3.19437C58.6492 3.19437 58.6492 3.19437 58.6492 3.19437Z" fill="url(#gradient_5)" transform="translate(13.351 0)" />
      <path id="Sendero" d="M27.3057 0C32.4542 0.00390625 34.9932 6.25781 31.3018 9.84766C31.3018 9.84766 12.2354 30.9062 12.2354 30.9062C9.45026 33.7344 4.89557 33.7539 2.09089 30.9453C-0.713802 28.1406 -0.694271 23.5859 2.13385 20.8047C2.13385 20.8047 23.1924 1.73828 23.1924 1.73828C24.2706 0.625 25.7549 0 27.3057 0C27.3057 0 27.3057 0 27.3057 0Z" fill="url(#gradient_6)" transform="translate(7.378 26.78)" />
      <path id="Sendero" d="M16 0C24.8359 0 32 7.16406 32 16C32 24.8359 24.8359 32 16 32C16 32 0 32 0 32C0 32 0 16 0 16C0 7.16406 7.16406 0 16 0C16 0 16 0 16 0Z" fill="url(#gradient_7)" transform="translate(0 35.194)" />
      <path id="shine" d="M5 2.49796C5 1.11654 3.88346 0 2.50204 0C1.12062 0 0 1.11654 0 2.49796C0 3.87938 1.12062 5 2.50204 5C3.88346 5 5 3.87938 5 2.49796C5 2.49796 5 2.49796 5 2.49796Z" fill="#D3D3D3" fill-opacity="0.498" transform="translate(19 43.194)" />
    </g>
    <g id="paint" transform="translate(12 39.57)">
      <path id="Sendero" d="M0 0.296941C0 0.296941 0 24.2969 0 24.2969C2.00391 23.1719 4.42578 22.8087 6.67188 23.293C8.91797 23.7774 10.9766 25.1055 12.3398 26.9571C14.1016 29.3477 14.6523 32.418 14.7969 35.3868C14.9414 38.3516 14.7305 41.3438 15.1914 44.2813C15.8203 48.2774 17.7305 52.0743 20.6016 54.9298C23.4688 57.7852 27.2891 59.6837 31.3047 60.1993C33.9141 60.5352 36.5586 60.4024 39.1914 60.4102C39.1914 60.4102 44 60.4298 44 60.4298C44 59.9883 44 59.543 44 59.1016C44 58.879 44 58.6524 44 58.4298C41.9648 57.9532 39.9141 57.5665 37.8438 57.2696C36.5039 57.0782 35.1484 56.9258 33.8477 56.5352C32.5469 56.1485 31.2852 55.5118 30.3867 54.4962C29.6289 53.6407 29.1602 52.5548 28.957 51.4298C28.75 50.3087 28.8047 49.1485 29.0039 48.0274C29.4102 45.7813 30.3945 43.6876 31.1367 41.5274C33.5352 34.5391 33.3047 26.7305 30.7617 19.7969C27.957 12.1524 22.2148 5.48444 14.75 2.23444C10.1445 0.226628 4.96875 -0.453059 0 0.296941C0 0.296941 0 0.296941 0 0.296941Z" fill="url(#gradient_8)" />
      <path id="Sendero" d="M0 8.375L4.28516 11.9805L23.0938 12C23.0938 12 21.0938 9 21.0938 9C17.9492 4.28516 11.9609 0 9.09375 0C9.09375 6 3.53125 9.09766 0 8.375C0 8.375 0 8.375 0 8.375Z" fill="url(#gradient_9)" transform="translate(34.906 48.43)" />
    </g>
</svg>