<?xml version="1.0" encoding="utf-8"?>
<svg width="128" height="128" viewBox="0 0 128 128" xmlns="http://www.w3.org/2000/svg">
<path id="paper" d="M108 36L108 112C108 116.4 104.4 120 100 120L28 120C23.6 120 20 116.4 20 112L20 16C20 11.6 23.6 8 28 8L80 8Z" fill="#505050"/>
<path id="corner" d="M0 0L28 28L0 28Z" fill="#808080" transform="translate(80 8)"/>
<path id="recycle" d="M24 0L19.6074 0L26.5332 12L27.8027 14.1953L24.338 16.1953L37 18.125L41.6582 6.19531L38.1934 8.19531L35.1934 3C34.123 1.14453 32.1426 0 30 0L24 0L24 0ZM17.318 0L22.843 9.60864L21.463 12L20.1934 14.1953L9.80273 8.19531L12.8027 3C13.76 1.34253 15.4412 0.25238 17.318 0L17.318 0ZM13 13.4844L0.338 15.41L3.80273 17.4102L0.802734 22.6055C-0.267578 24.4648 -0.267578 26.75 0.802734 28.6055L3.8 33.805L6 37.6055L12.9238 25.6055L14.1934 23.41L17.6582 25.4102L13 13.4844L13 13.4844ZM44.1934 17.41L33.8027 23.41L35.0684 25.61L36.45 28L47.5 28C48.2515 26.2667 48.1493 24.2667 47.1934 22.61L44.1934 17.41L44.1934 17.4102ZM22 36L30 26L30 30L46.3887 30L44.1934 33.805L41.1934 39C40.123 40.8555 38.1426 42 36 42L30 42L30 46L22 36L22 36ZM7.17456 39.5679C8.29651 41.0862 10.0818 42 12 42L18 42L18 30L12.6967 30L7.17456 39.568L7.17456 39.568Z" fill="#F6F5F4" transform="translate(40 54)"/>
</svg>