<?xml version="1.0" encoding="utf-8"?>
<svg width="128" height="128" viewBox="0 0 128 128" xmlns="http://www.w3.org/2000/svg">
<defs>
<filter id="blur" x="0" y="0">
<feGaussianBlur in="SourceGraphic" stdDeviation="3"/>
</filter>
</defs>
<g transform="translate(20 8)">
<rect width="88" height="112" rx="8" fill="#891516" id="bottom"/>
<rect width="88" height="108" rx="8" fill="#D72123" id="bag"/>
</g><g id="holder" transform="translate(38 12)">
<g fill="#1A1A1A" opacity="0.3">
<circle r="4" transform="translate(48 4)"/>
<circle r="4" transform="translate(4 4)"/>
</g><g fill="none" stroke-linecap="round" transform="translate(4 4)">
<path id="shadow" filter="url(#blur)" d="M44 0C44 14.36 34.15 26 22 26C9.85 26 0 14.36 0 0" stroke-width="4" stroke="#1A1A1A" opacity="0.2"/>
<path d="M44 0C44 12.15 34.15 22 22 22C9.85 22 0 12.15 0 0" stroke-width="4" stroke="#E4D1C1"/>
<path d="M44 0C44 12.15 34.15 22 22 22C9.85 22 0 12.15 0 0" stroke-width="2" stroke="#F5F4F3"/>
</g></g>
<path id="redhat" d="M51.9517 23.3115C52.5152 25.98 52.5152 26.26 52.5152 26.611C52.5152 31.171 47.3884 33.7 40.65 33.7C25.42 33.7116 12.0775 24.787 12.0775 18.8883C12.0767 18.0672 12.244 17.2546 12.57 16.5C7.09083 16.7744 0 17.7515 0 24C0 34.2653 24.2951 46.9 43.532 46.9031C58.28 46.9 62 40.2324 62 34.9656C62 30.8225 58.417 26.12 51.9582 23.3115C51.9582 23.3115 51.9517 23.3115 51.9517 23.3115ZM41.356 27.0311C45.4308 27.0311 51.3263 26.191 51.3263 21.3441C51.3385 20.97 51.3046 20.596 51.2253 20.23C51.2253 20.23 48.8 9.69 48.8 9.69C48.2385 7.371 47.7467 6.32 43.6752 4.28316C40.516 2.66761 33.6334 0 31.6 0C29.7 0 29.1516 2.44287 26.89 2.44287C24.7153 2.44287 23.1 0.618858 21.064 0.618858C19.11 0.618858 17.8362 1.95 16.8525 4.69C16.8525 4.69 14.1133 12.4163 13.7615 13.5367C13.7056 13.7425 13.6814 13.9556 13.69 14.1686C13.69 17.1717 25.5133 27.018 41.3561 27.018C41.3561 27.018 41.3561 27.0311 41.3561 27.0311Z" fill="#F6F5F4" opacity="0.5" transform="translate(32 54)"/>
</svg>