<?xml version="1.0" encoding="utf-8"?>
<svg width="128" height="128" viewBox="0 0 128 128" xmlns="http://www.w3.org/2000/svg">
<path d="M88 28L88 104C88 108.4 84.4 112 80 112L8 112C3.6 112 0 108.4 0 104L0 8C0 3.6 3.6 0 8 0L60 0Z" fill="#478CC0" transform="translate(20 8)"/>
<path d="M28 28L0 28L0 0Z" fill="#000000" opacity="30%" transform="translate(80 8)"/>
<path d="M50.4663 44C50.4663 44 50.1464 48.6 50.1464 48.6C50.1078 49.143 49.6683 49.6 49.1158 49.6225C49.1158 49.6225 38.1124 50.4 38.1124 50.4C38.0856 50.4 38 50.4 38.0322 50.4C37.4854 50.4 37.0136 50 36.933 49.46C36.9328 49.46 36.3 45.2 36.3 45.2L27.3236 45.2C27.3236 45.2 26.6926 49.4601 26.7 49.46C26.6 50 26.1 50.45 25.513 50.4C25.513 50.4 14.5 49.6225 14.5 49.6225C14 49.6 13.5176 49.143 13.48 48.6C13.48 48.6 13.16 44 13.16 44C13.16 44 3.87036 43.11 3.87 43.1106C3.875 44.1 3.9 45.2 3.9 45.4203C3.88749 55.2305 16.3321 59.9458 31.7937 60C31.8 60 31.8126 60 31.8126 60C31.8126 60 31.8317 60 31.8317 60C47.2933 59.9458 59.7336 55.23 59.7336 45.42C59.7336 45.1985 59.75 44.1095 59.7516 43.1106C59.7516 43.1106 50.4663 44 50.4663 44ZM25.3414 0C22.435 0.646137 19.56 1.54572 16.8643 2.90248C16.9259 5.28266 17.0797 7.5633 17.4 9.87984C16.3448 10.55 15.2446 11.1261 14.267 11.9112C13.2734 12.6755 12.26 13.4 11.36 14.3C9.56213 13.1119 7.66 12 5.7 11C3.6 13.3 1.61334 15.7356 0 18.4811C1.2 20.4446 2.5 22.285 3.85 24C3.85 24 3.9 24 3.9 24L3.9 37.6L3.9 39.3143C3.9 39.3143 3.9 40.9 3.9 40.9C3.92 40.9 4 40.9 4 40.9C4 40.9 14.3097 41.882 14.3097 41.882C14.8508 41.9343 15.2749 42.37 15.3125 42.9121C15.3125 42.9121 15.6311 47.4721 15.6311 47.4721L24.6421 48.1151C24.6421 48.115 25.263 43.9 25.263 43.9C25.3434 43.3607 25.8115 42.9563 26.3634 42.9563C26.3634 42.9563 37.262 42.9563 37.262 42.9563C37.8137 42.9563 38.2818 43.3607 38.3622 43.9C38.3622 43.9 39 48.115 38.983 48.1151L47.9943 47.4721C47.9943 47.4721 48.3126 42.9121 48.3126 42.9121C48.3506 42.3698 48.7744 41.9346 49.3155 41.882C49.3155 41.882 59.6416 40.9 59.6416 40.9C59.6722 40.8832 59.7027 40.882 59.7335 40.8817C59.7335 40.8817 59.7335 39.5373 59.7335 39.5373L59.7378 39.5358L59.7378 24C59.7378 24 59.776 24 59.776 24C61.1444 22.285 62.4108 20.4446 63.6252 18.4811C62.0124 15.7356 60 13.282 57.9241 11C55.9651 12 54 13.1119 52.2652 14.3006C51.3659 13.4 50.353 12.6755 49.3582 11.9112C48.4 11.1261 47.279 10.5505 46.2342 9.87984C46.5453 7.5633 46.7 5.28266 46.7611 2.90248C44 1.54572 41.1904 0.646137 38.2825 0C37.1215 1.95125 36 4 35.1353 6.12997C34.0388 5.94675 32.9371 5.87889 31.8341 5.86577C31.8341 5.86577 31.8341 5.86405 31.8341 5.86405C31.8264 5.86405 31.8193 5.86577 31.8127 5.86577C31.8058 5.86577 31.7987 5.86405 31.8 5.86405C31.8 5.86405 31.8 5.86577 31.8 5.86577C30.6868 5.87889 29.586 5.94675 28.4892 6.12997C27.5651 4 26.5041 1.95125 25.3414 0C25.3414 0 25.3414 0 25.3414 0ZM17.1689 24.6495C20.6074 24.6495 23.3942 27.4345 23.3942 30.8717C23.3942 34.3113 20.6074 37.1 17.1689 37.1C13.7322 37.1 10.9444 34.3113 10.9444 30.8717C10.9444 27.4345 13.7322 24.6495 17.1689 24.6495C17.1689 24.6495 17.1689 24.6495 17.1689 24.6495ZM46.4569 24.6495C49.8933 24.6495 52.6809 27.4344 52.6809 30.8717C52.6809 34.3113 49.8933 37.1 46.4569 37.1C43.0179 37.1 40.2311 34.3113 40.2311 30.8717C40.2311 27.4344 43.0179 24.6495 46.4569 24.6495C46.4569 24.6495 46.4569 24.6495 46.4569 24.6495ZM31.8122 28.3C32.9189 28.3 33.8179 29.1072 33.8179 30.1118C33.8179 30.1118 33.8179 35.843 33.8179 35.843C33.8179 36.8483 32.9189 37.664 31.8122 37.664C30.7054 37.664 29.8084 36.8483 29.8084 35.843C29.8084 35.843 29.8084 30.1118 29.8084 30.1118C29.8084 29.1072 30.7054 28.3 31.8122 28.3C31.8122 28.3 31.8122 28.3 31.8122 28.3ZM42 31.1322C42 33.4137 43.8485 35.2628 46.13 35.2628C48.4137 35.2628 50.2622 33.4137 50.2622 31.1322C50.2622 28.8508 48.4137 27 46.13 27C43.8485 27 42 28.8508 42 31.1322C42 31.1322 42 31.1322 42 31.1322ZM22.2645 31.1322C22.2645 33.4137 20.4154 35.2628 18.1322 35.2628C15.8502 35.2628 14 33.4137 14 31.1322C14 28.8508 15.8502 27 18.1322 27C20.4154 27 22.2645 28.8508 22.2645 31.1322C22.2645 31.1322 22.2645 31.1322 22.2645 31.1322Z" fill="#FFFFFF" transform="translate(32 48)"/>
</svg>
