<?xml version="1.0" encoding="utf-8"?>
<svg width="128" height="128" viewBox="0 0 128 128" xmlns="http://www.w3.org/2000/svg">
<defs>
<linearGradient id="dark" gradientUnits="userSpaceOnUse" x1="120" y1="0" x2="0" y2="120">
<stop offset="0" stop-color="#4F4F4F"/>
<stop offset="1" stop-color="#262626"/>
</linearGradient>
<linearGradient id="orange" gradientUnits="userSpaceOnUse" x1="0" y1="50" x2="50" y2="0">
<stop offset="0" stop-color="#E01B24"/>
<stop offset="0.4" stop-color="#E66100"/>
<stop offset="1" stop-color="#DF97E0"/>
</linearGradient>
</defs>
<circle r="60" fill="url(#dark)" transform="translate(64 64)"/>
<circle r="25" fill="url(#orange)" transform="translate(64 64)"/>
<path id="play" d="M0 0L0 22C0 22 2.22178 22 2.22178 22C2.60852 22 2.98737 21.9023 3.32676 21.7109C3.32676 21.7109 18.8792 12.9141 18.8792 12.9141C19.5738 12.5195 20 11.7891 20 11C20 10.2109 19.5738 9.48047 18.8792 9.08984C18.8792 9.08984 3.32676 0.289062 3.32676 0.289062C3.00316 0.105469 2.63615 0.0078125 2.26519 0C2.25335 0 2.23757 0 2.22178 0C2.22178 0 0 0 0 0Z" fill="#E6E6E6" transform="translate(56 53)"/>
<g id="shinelines" fill="none" stroke="white" stroke-width="4" stroke-linecap="round" transform="translate(16 16)" opacity="0.5">
<path d="M0 0C0 26.5097 21.4903 48 48 48" transform="translate(0 48)"/>
<path d="M0 0C0 19.8822 16.1177 36 36 36" transform="translate(12 48)"/>
<path d="M36 36C36 16.1178 19.8823 0 0 0" transform="translate(48 12)"/>
<path d="M48 48C48 21.4903 26.5097 0 0 0" transform="translate(48 0)"/>
</g></svg>