<?xml version="1.0" encoding="utf-8"?>
<svg width="128" height="128" viewBox="0 0 128 128" xmlns="http://www.w3.org/2000/svg">
<g stroke="#707070" stroke-width="2" stroke-linejoin="round">
<path id="paper" fill="#F6F5F4" d="M61.5 0L90 28.5L90 105C90 110 86 114 81 114L9 114C4 114 0 110 0 105L0 9C0 4 4 0 9 0Z" transform="translate(19 7)"/>
<path id="corner" fill="#C8C8C8" d="M28 28L0 28L0 0Z" transform="translate(81 7)"/>
</g><g fill="none" stroke-width="4" transform="translate(20 55)">
<linearGradient id="wave">
<stop offset="0" stop-color="#2EC27E" stop-opacity="0"/>
<stop offset="1" stop-color="#2EC27E"/>
</linearGradient>
<path d="M0 23L26 23L36 0L42 39L50 23L88 23" stroke="#26A269" opacity="32%"/>
<path d="M0 23L26 23L36 0L42 39L50 23L56 23" stroke="url(#wave)" stroke-linecap="round"/>
</g></svg>
