<?xml version="1.0" encoding="utf-8"?>
<svg width="128" height="128" viewBox="0 0 128 128" xmlns="http://www.w3.org/2000/svg">
<defs>
<linearGradient id="gradient" gradientUnits="userSpaceOnUse" x1="0" y1="50" x2="42" y2="0">
<stop offset="0" stop-color="#2C76F1"/>
<stop offset="1" stop-color="#44DC78"/>
</linearGradient>
</defs>
<g id="sheet" stroke="#707070" stroke-width="2" stroke-linejoin="round" transform="translate(19 7)">
<path id="paper" fill="#F6F5F4" d="M61.5 0L90 28.5L90 105C90 109.971 85.9712 114 81 114L9 114C4.02876 114 0 109.971 0 105L0 9C0 4.02876 4.02876 0 9 0L61.5 0Z"/>
<path id="corner" fill="#C8C8C8" d="M0 0L28 28L0 28Z" transform="translate(62 0)"/>
</g>
<rect id="image" width="42" height="50" fill="url(#gradient)" fill-rule="evenodd" transform="translate(32 54)"/>
<g id="text" fill="#5A5A5A" transform="translate(32 30)">
<rect width="16" height="2" transform="translate(48 72)"/>
<rect width="16" height="2" transform="translate(48 64)"/>
<rect width="16" height="2" transform="translate(48 56)"/>
<rect width="16" height="2" transform="translate(48 48)"/>
<rect width="16" height="2" transform="translate(48 40)"/>
<rect width="16" height="2" transform="translate(48 32)"/>
<rect width="16" height="2" transform="translate(48 24)"/>
<rect width="64" height="2" transform="translate(0 16)"/>
<rect width="42" height="2" transform="translate(0 8)"/>
<rect width="42" height="2"/>
</g></svg>