<?xml version="1.0" encoding="utf-8"?>
<svg width="128" height="128" viewBox="0 0 128 128" xmlns="http://www.w3.org/2000/svg">
<path d="M10.4534 0L0 23.1741L7.3876 42.3422L17.8 16.2427L30.6832 49L10 49L15.37 63L34.7702 63L42.4342 84L59.1013 84L25.0353 0L10.4534 0L10.4534 0Z" fill="#197DDD" transform="translate(60.9 8)"/>
<path d="M47.193 0L37.6484 0L8.1745 77L0 77L0 84L21.2104 84L21.2104 77L15.7283 77L23.8066 56L53.717 56L61.8 77L56.5616 77L56.5616 84L84.8423 84L84.8423 77L76.916 77L47.1931 0ZM38.7613 17.1444L51.0237 49L26.5 49L38.7613 17.1444Z" fill="#DC3C28" fill-rule="evenodd" transform="translate(8 36)"/>
</svg>