<?xml version="1.0" encoding="utf-8"?>
<svg width="128" height="128" viewBox="0 0 128 128" xmlns="http://www.w3.org/2000/svg">
<defs>
<clipPath id="pic">
<rect width="104" height="104" rx="8" x="12" y="12"/>
</clipPath>
<filter id="shadow">
<feDropShadow dx="0" dy="3" flood-color="#000000" stdDeviation="1"/>
</filter>
<linearGradient id="gradient">
<stop offset="0" stop-color="#3D3846"/>
<stop offset="5%" stop-color="#77767B"/>
<stop offset="10%" stop-color="#5E5C64"/>
<stop offset="90%" stop-color="#504E56"/>
<stop offset="95%" stop-color="#77767B"/>
<stop offset="1" stop-color="#3D3846"/>
</linearGradient>
</defs>
<g clip-path="url(#pic)">
<rect width="104" height="100" rx="8" x="12" y="12" fill="#FFFFFF"/>
<rect width="102" height="102" rx="7" x="13" y="13" fill="none" stroke="#000000" stroke-width="2" opacity="30%"/>
<rect width="72" height="72" rx="9" fill="#E5A50A" transform="translate(76 64) rotate(45)"/>
<rect width="96" height="96" rx="10" fill="#1C71D8" transform="translate(36 54) rotate(45)"/>
<circle r="12" cx="88" cy="40" fill="#ED333B"/>
</g><g id="cursor" transform="translate(48 54)">
<rect width="80" height="74" rx="8" fill="url(#gradient)"/>
<rect width="80" height="66" rx="8" fill="#3D3846"/>
<path id="arrow" d="M0 0L11.6328 34.9062L19.2227 28.4063C19.2227 28.4063 24.1562 34.3242 24.1562 34.3242C25.4414 35.8672 27.7383 36.0781 29.2812 34.793C30.8203 33.5039 31.0312 31.2148 29.7461 29.6719C29.7461 29.6719 24.7461 23.6719 24.7461 23.6719L32 17.4531L0 0Z" fill="#FFFFFF" filter="url(#shadow)" transform="translate(24 15.184)"/>
<path id="arrow-half" d="M0 0L11.6328 34.9062L19.2227 28.4063C19.2227 28.4063 24.1562 34.3242 24.1562 34.3242C25.4414 35.8672 27.7383 36.0781 29.2812 34.793C29.4023 34.6875 29.5195 34.5742 29.625 34.4531C29.625 34.4531 0 0 0 0Z" fill="#DEDDDA" transform="translate(24 15.184)"/>
</g></svg>
