<?xml version="1.0" encoding="utf-8"?>
<svg width="128" height="128" viewBox="0 0 128 128" fill="none" xmlns="http://www.w3.org/2000/svg">
<rect id="opensky" width="104" height="104" rx="8" fill="#0C9EE6" transform="translate(12 12)"/>
<g id="basketball" transform="translate(24 64)" opacity="0.45">
<path d="M20 0C8.9717 0 0 8.9721 0 20C0 31.0281 8.9717 40 20 40C31.0278 40 40 31.0281 40 20C40 8.9721 31.0277 0 20 0C20 0 20 0 20 0Z" fill="#161616" transform="scale(1 1)"/>
<path d="M12.8619 11.515C15.7322 8.35086 17.5 4.32333 17.9155 0C13.3381 0.0441895 9.16217 1.796 6 4.64838L12.8619 11.515L12.8619 11.515ZM14.21 12.863L18.0927 16.7457L30.1904 4.64798C27.3849 2.12134 23.7877 0.458282 19.8209 0.08066C19.3812 4.88293 17.4161 9.35971 14.21 12.863L14.21 12.863ZM19.4396 18.0927L23.323 21.9761C26.8265 18.77 31.3033 16.8047 36.1057 16.365C35.728 12.3979 34.0646 8.8 31.5374 6L19.4396 18.0927L19.4396 18.0927ZM0 17.9151C0.0445 13.338 1.79608 9.16211 4.64838 6L11.515 12.8618C8.351 15.7322 4.32343 17.5 0 17.9151L0 17.9151ZM16.7458 18.0927L12.8632 14.21C9.36 17.416 4.88312 19.381 0.08075 19.8206C0.458252 23.7875 2.12134 27.3849 4.6482 30.1903L16.7458 18.0927L16.7458 18.0927ZM31.5377 30.1908C34.3903 27.024 36.1422 22.8478 36.1865 18.2704C31.863 18.6861 27.8353 20.4536 24.6712 23.3242L31.5377 30.1908L31.5377 30.1908ZM18.0926 19.4395L21.976 23.323C18.77 26.8263 16.805 31.303 16.3652 36.105C12.3981 35.7276 8.8 34.0644 6 31.5372L18.0926 19.4395L18.0926 19.4395ZM18.2708 36.1858C18.6866 31.8625 20.4539 27.8351 23.3243 24.6711L30.1907 31.5376C27.0239 34.3898 22.848 36.1414 18.2708 36.1858L18.2708 36.1858Z" fill="#FF681D" fill-rule="evenodd" transform="translate(1.907 1.907)"/>
</g><g id="basketball" transform="matrix(-1 0 0 1 84 44)" opacity="0.6">
<path d="M24 0C10.766 0 0 10.7665 0 24C0 37.2337 10.766 48 24 48C37.2334 48 48 37.2337 48 24C48 10.7665 37.2333 0 24 0C24 0 24 0 24 0Z" fill="#161616" transform="scale(1 1)"/>
<path d="M15.4343 13.8179C18.8787 10.021 21 5.188 21.4986 0C16 0.0530243 11 2.1551 7.1944 5.57806L15.4343 13.8179L15.4343 13.8179ZM17.052 15.4357L21.7112 20.0948L36.2286 5.57761C32.8619 2.54561 28.5453 0.55 23.7852 0.0968018C23.2575 5.85954 20.9 11.2317 17.052 15.4357L17.052 15.4357ZM23.3276 21.7112L27.9877 26.3713C32.1919 22.5239 37.564 20.1656 43.3269 19.6379C42.8737 14.8775 40.8776 10.5605 37.845 7.19383L23.3276 21.7112L23.3276 21.7112ZM0 21.4982C0.0533447 16 2.15533 11 5.57806 7.19429L13.8179 15.4342C10.0211 18.8786 5.18811 21 0 21.4982L0 21.4982ZM20.095 21.7112L15.4358 17.052C11.2318 20.9 5.86 23.2573 0.0969238 23.7848C0.55 28.545 2.54559 32.8618 5.57782 36.2283L20.095 21.7112L20.095 21.7112ZM37.8453 36.2289C41.2685 32.4287 43.3707 27.4174 43.4238 21.9245C38.2357 22.4233 33.4025 24.5443 29.6055 27.989L37.8453 36.2289L37.8453 36.2289ZM21.7112 23.3275L26.3713 27.9876C22.524 32.1916 20.1661 37.5634 19.6383 43.3261C14.8779 42.8732 10.5609 40.8773 7.19409 37.8447L21.7112 23.3275L21.7112 23.3275ZM21.9249 43.423C22.4239 38.235 24.5447 33.4021 27.9891 29.6054L36.2289 37.8452C32.4287 41.2678 27.4176 43.3697 21.925 43.423L21.9249 43.423Z" fill="#FF681D" fill-rule="evenodd" transform="translate(2.288 2.288)"/>
</g><g id="basketball" transform="matrix(1 0 0 1 50 22)">
<path d="M28 0C12.56 0 0 12.561 0 28C0 43.4393 12.56 56 28 56C43.439 56 56 43.4393 56 28C56 12.561 43.4388 0 28 0C28 0 28 0 28 0Z" fill="#161616" transform="scale(1 1)"/>
<path d="M18 16.1209C22.0252 11.6912 24.5 6.05267 25.0818 0C18.6735 0.0618744 12.8271 2.51427 8.3935 6.50774L18 16.121L18 16.1209ZM19.894 18L25.33 23.444L42.2667 6.5072C38.34 2.96986 33.3028 0.641602 27.7493 0.11293C27.1337 6.83614 24.3826 13.1036 19.894 18L19.894 18ZM27.2155 25.3297L32.6523 30.7665C37.5572 26.2779 43.8246 23.5265 50.548 22.9109C50.0193 17.3571 47.69 12.32 44.1524 8.39279L27.2155 25.3297L27.2155 25.3297ZM0 25.0812C0.062256 18.6732 2.51453 12.827 6.50775 8.39333L16.121 18C11.6913 22.0251 6.0528 24.5 0 25.0812L0 25.0812ZM23.444 25.33L18 19.894C13.1037 24.3824 6.83636 27.1335 0.113037 27.7489C0.641541 33.3025 2.97 38.3388 6.50745 42.2664L23.4441 25.3297L23.444 25.3297ZM44.1528 42.2671C48.1465 37.8335 50.6 31.987 50.6611 25.5785C44.6083 26.1605 38.9695 28.6351 34.5397 32.6539L44.1528 42.2671L44.1528 42.2671ZM25.33 27.2153L30.7665 32.6521C26.278 37.5568 23.527 43.824 22.9113 50.5471C17.3575 50.0187 12.321 47.69 8.39307 44.1521L25.3297 27.2153L25.3297 27.2153ZM25.579 50.6601C26.1612 44.6075 28.6354 38.9691 32.654 34.5396L42.267 44.1526C37.8334 48.1457 31.9872 50.598 25.579 50.66L25.58 50.66Z" fill="#FF681D" fill-rule="evenodd" transform="translate(2.67 2.67)"/>
</g></svg>
