<?xml version="1.0" encoding="utf-8"?>
<svg width="128" height="128" viewBox="0 0 128 128" fill="none" xmlns="http://www.w3.org/2000/svg">
  <g>
    <path d="M84 88L8 88C3.58112 88 0 84.4189 0 80L0 8C0 3.58112 3.58112 0 8 0L104 0C108.419 0 112 3.58112 112 8L112 60.0038L84 88L84 88Z" fill="#0D7272" fill-rule="evenodd" transform="translate(8 20)" />
    <path d="M60.0002 28.0001C60.0002 22 54 16 48.0002 16L20 15.9995C18 16 16 18 16 20L16 40.0003C16 42 18 44.0003 20 44.0003L39 44C42 44 44.0002 42 44.0002 39.0003L44 34L24 34L24.0002 28.9999C24.0002 26 26 23.9999 29 23.9999L48.0005 24.0001C50 24 52 26 52.0002 28.0001L52.0002 48.0002C52 50 50 52 48.0002 52.0002L12 52.0002C10 52 8 50 8 48.0002L8 12.0001C8 10 10 8 12 8L52.0002 8L52.0002 0L12 0C6 0 0 6 0 12L0 48.0002C0 54.0001 6 60.0001 12 60.0002L48.0002 60.0002C54 60.0002 60 54.0001 60.0002 48.0002L60.0002 28.0001L60.0002 28.0001ZM32 27L32 31L28 31L28 27L32 27ZM40 37L36 37L36 41L40 41L40 37Z" fill="#F6F5F4" fill-rule="evenodd" transform="translate(34 34)" />
    <path d="M0 0L28 0L0 28L0 0Z" fill="#7FC9B7" fill-rule="evenodd" transform="translate(91.999 80)" />
  </g>
</svg>