<?xml version="1.0" encoding="utf-8"?>
<svg width="128" height="128" viewBox="0 0 128 128" xmlns="http://www.w3.org/2000/svg">
<rect width="104" height="104" rx="8" fill="#FE9900" x="12" y="12"/>
<path d="M80.5484 50.346C85.1507 45.744 85.1504 38.2561 80.5484 33.6541C78.3192 31.4247 75.3549 30.1974 72.2021 30.1974C71.4532 30.1974 70.7165 30.2657 69.9975 30.4C73.1303 28.2573 75.1608 24.6541 75.1608 20.6475C75.1608 14.1393 69.8654 8.84468 63.3568 8.84468C59.3421 8.84468 55.7324 10.8826 53.5909 14.026C54.2993 10.2894 53.1882 6.29571 50.349 3.45708C48.1205 1.22768 45.1558 0 42.0033 0C38.8502 0 35.8862 1.22768 33.6567 3.45708C30.8178 6.29571 29.7067 10.2894 30.4148 14.026C28.2736 10.8829 24.6639 8.84468 20.649 8.84468C14.1406 8.84468 8.8456 14.139 8.84559 20.6475C8.84559 24.6544 10.8754 28.2573 14 30.4C13.2813 30.2646 12.5434 30.1968 11.804 30.1974C8.65082 30.1974 5.68685 31.425 3.45763 33.6544C1.22776 35.8835 0 38.8476 0 42C0 45.153 1.22776 48.1166 3.45731 50.346C5.68652 52.5751 8.65082 53.8031 11.8033 53.8031C12.5522 53.8031 13.2889 53.7348 14.0079 53.6001C10.8751 55.7431 8.84526 59.3464 8.84526 63.3529C8.84526 69.8608 14.1399 75.1554 20.6486 75.1554C24.6636 75.1554 28.2736 73.1172 30.4148 69.9741C29.7064 73.711 30.8175 77.7047 33.6567 80.5431C35.886 82.7724 38.85 84 42 84C45.1558 84 48.1201 82.7724 50.3494 80.5431C53.1882 77.7044 54.2994 73.7107 53.5909 69.9741C55.7324 73.1172 59.3421 75.1554 63.3568 75.1554C69.8654 75.1554 75.1604 69.8611 75.1604 63.3529C75.1604 59.346 73.1306 55.7431 70 53.6C70.7165 53.7348 71.4535 53.8031 72.2021 53.8031C75.3549 53.8031 78.3192 52.5751 80.5484 50.346C80.5484 50.346 80.5484 50.346 80.5484 50.346Z" fill="#000000" transform="translate(22 22)"/>
<path d="M72.0153 32.2091C69.3694 29.5634 65.0795 29.5634 62.4336 32.2091C62.4336 32.2091 48.5665 32.2091 48.5665 32.2091C48.5665 32.2091 58.3721 22.4037 58.3721 22.4037C62.114 22.4037 65.1472 19.3702 65.1472 15.6283C65.1472 11.8864 62.114 8.85252 58.3721 8.85252C54.6299 8.85252 51.5967 11.8864 51.5967 15.6283C51.5967 15.6283 41.7911 25.434 41.7911 25.434C41.7911 25.434 41.7911 11.5665 41.7911 11.5665C44.437 8.92056 44.437 4.63065 41.7911 1.9847C39.1449 -0.661568 34.855 -0.661568 32.209 1.9847C29.5631 4.63097 29.5631 8.92089 32.209 11.5665C32.209 11.5665 32.209 25.4339 32.209 25.4339C32.209 25.4339 22.4038 15.628 22.4038 15.628C22.4038 11.8864 19.3703 8.85284 15.6284 8.85284C11.8865 8.85284 8.85296 11.8864 8.85296 15.628C8.85296 19.3702 11.8865 22.4037 15.628 22.4037C15.628 22.4037 25.434 32.2091 25.434 32.2091C25.434 32.2091 11.5666 32.2091 11.5666 32.2091C8.92035 29.5631 4.63045 29.5634 1.9842 32.2091C-0.6614 34.8553 -0.6614 39.1452 1.9842 41.7915C4.63046 44.4371 8.92035 44.4371 11.5666 41.7915C11.5666 41.7915 25.4333 41.7915 25.4333 41.7915C25.4333 41.7915 15.6284 51.5965 15.6284 51.5965C11.8865 51.5965 8.85296 54.6297 8.85296 58.3716C8.85296 62.1139 11.8865 65.1474 15.628 65.1474C19.3703 65.1474 22.4038 62.1139 22.4038 58.372C22.4038 58.372 32.209 48.5663 32.209 48.5663C32.209 48.5663 32.209 62.4334 32.209 62.4334C29.5631 65.0794 29.5631 69.3696 32.209 72.0155C34.8553 74.6615 39.1452 74.6615 41.7914 72.0155C44.437 69.3693 44.437 65.0794 41.7914 62.4331C41.7914 62.4331 41.7914 48.5663 41.7914 48.5663C41.7914 48.5663 51.5967 58.372 51.5967 58.372C51.5967 62.1139 54.6299 65.1471 58.3718 65.1471C62.114 65.1471 65.1475 62.1139 65.1475 58.372C65.1475 54.6297 62.114 51.5965 58.3721 51.5965C58.3721 51.5965 48.5662 41.791 48.5662 41.791C48.5662 41.791 62.4336 41.791 62.4336 41.791C65.0798 44.4371 69.3697 44.4371 72.0153 41.791C74.6616 39.1449 74.6616 34.8547 72.0153 32.2087C72.0153 32.2087 72.0153 32.2091 72.0153 32.2091Z" fill="#E6E6E6" transform="translate(27 27)"/>
</svg>