<?xml version="1.0" encoding="utf-8"?>
<svg width="128" height="128" viewBox="0 0 128 128" fill="none" xmlns="http://www.w3.org/2000/svg">
<g id="mountains" transform="translate(0 41)">
<path id="mountain-back" d="M39.712 3.51718L64.9536 41.3796Q65.1014 41.6014 65.234 41.8326Q65.3666 42.0638 65.4832 42.3035Q65.5999 42.5431 65.7001 42.7901Q65.8 43.037 65.8838 43.2902Q65.9671 43.5433 66.0333 43.8015Q66.0994 44.0597 66.1479 44.3218Q66.1965 44.5838 66.2273 44.8486Q66.2581 45.1133 66.2709 45.3795Q66.2838 45.6457 66.2787 45.9122Q66.2736 46.1787 66.2505 46.4442Q66.2275 46.7097 66.1866 46.9731Q66.1457 47.2365 66.0871 47.4965Q66.0285 47.7565 65.9526 48.012Q65.8766 48.2674 65.7836 48.5172Q65.6906 48.767 65.581 49Q65.4713 49.2528 65.3456 49.4878Q65.2198 49.7228 65.0785 49.9488Q64.9372 50.1748 64.7809 50.3907Q64.6247 50.6066 64.4543 50.8116Q64.2839 51.0165 64.1 51.2094Q63.9161 51.4024 63.7197 51.5825Q63.5233 51.7626 63.3151 51.9291Q63.107 52.0956 62.8881 52.2476Q62.6692 52.3997 62.4405 52.5367Q62.2119 52.6736 61.9746 52.7949Q61.7372 52.9161 61.4922 53.0211Q61.2472 53.126 60.9957 53.2142Q60.7442 53.3024 60.4873 53.3735Q60.2304 53.4445 59.9694 53.4981Q59.7083 53.5517 59.4442 53.5875Q59.1801 53.6234 58.9142 53.6414Q58.6482 53.6593 58.3817 53.6593L7.89844 53.6593Q7.63191 53.6593 7.36599 53.6414Q7.1 53.6234 6.83597 53.5875Q6.57187 53.5517 6.31078 53.4981Q6.0497 53.4445 5.79282 53.3735Q5.53594 53.3024 5.28443 53.2142Q5.03293 53.126 4.78794 53.0211Q4.54295 52.9161 4.3056 52.7949Q4.06824 52.6736 3.8396 52.5367Q3.61096 52.3997 3.39207 52.2476Q3.17318 52.0956 2.96504 51.9291Q2.7569 51.7626 2.56045 51.5825Q2.36401 51.4024 2.18015 51.2094Q1.9963 51.0165 1.82587 50.8116Q1.65544 50.6066 1.49921 50.3907Q1.34298 50.1748 1.20166 49.9488Q1.06035 49.7228 0.934586 49.4878Q0.808824 49.2528 0.699189 49.0099Q0.589554 48.767 0.496545 48.5172Q0.403535 48.2674 0.327575 48.012Q0.251614 47.7565 0.193048 47.4965Q0.134482 47.2365 0.0935774 46.9731Q0.0526723 46.7097 0.0296142 46.4442Q0.00655607 46.1787 0 45.9122Q-0.00365634 45.6457 0.00921258 45.3795Q0.0220815 45.1133 0.052867 44.8486Q0.0836525 44.5838 0.132215 44.3218Q0.180777 44.0597 0.246894 43.8015Q0.313012 43.5433 0.396384 43.2902Q0.479757 43.037 0.580004 42.7901Q0.680252 42.5431 0.79692 42.3035Q0.913587 42.0638 1.04614 41.8326Q1.1787 41.6014 1.32654 41.3796L26.5682 3.51717Q26.7028 3.31527 26.8495 3.12201Q26.9963 2.92876 27.1546 2.74487Q27.3129 2.56098 27.4822 2.38716Q27.6515 2.21334 27.8312 2.05025Q28.0109 1.88715 28.2002 1.73539Q28.3896 1.58362 28.5879 1.44377Q28.7862 1.30392 28.9927 1.1765Q29.1992 1.04909 29.4131 0.934587Q29.6271 0.820088 29.8476 0.718938Q30.0682 0.617788 30.2946 0.530369Q30.5209 0.44295 30.7522 0.369591Q30.9835 0.296232 31.2189 0.23721Q31.4543 0.178188 31.6928 0.133725Q31.9314 0.0892629 32.1722 0.0595278Q32.413 0.0297927 32.6552 0.0148971Q32.8974 1.43051e-06 33.1401 1.43051e-06Q33.3827 1.43051e-06 33.6249 0.0148971Q33.8671 0.0297927 34.1079 0.0595278Q34.3488 0.0892629 34.5873 0.133725Q34.826 0.178188 35.0612 0.23721Q35.2966 0.296232 35.5279 0.369591Q35.7592 0.44295 35.9856 0.530369Q36.2119 0.617788 36.4325 0.718938Q36.6531 0.82 36.867 0.934587Q37.081 1.0491 37.2875 1.1765Q37.494 1.30392 37.6923 1.44377Q37.8906 1.58362 38.0799 1.73539Q38.2693 1.88715 38.4489 2.05025Q38.6286 2.21334 38.7979 2.38716Q38.9672 2.561 39.1256 2.74487Q39.2839 2.92876 39.4306 3.12201Q39.5774 3.31527 39.712 3.51717L39.712 3.51718Z" fill="#FE9900" transform="translate(0 15)"/>
<path id="mountain-front" d="M49.712 3.51717L84.9536 56.3796Q85.1014 56.6014 85.234 56.8326Q85.3666 57.0638 85.4832 57.3035Q85.5999 57.5431 85.7001 57.7901Q85.8 58.037 85.8838 58.2902Q85.9671 58.5433 86.0332 58.8015Q86.0994 59.0597 86.1479 59.3218Q86.1965 59.5838 86.2273 59.8486Q86.2581 60.1133 86.2709 60.3795Q86.2838 60.6457 86.2787 60.9122Q86.2736 61.1787 86.2505 61.4442Q86.2275 61.7097 86.1866 61.9731Q86.1457 62.2365 86.0871 62.4965Q86.0285 62.7565 85.9526 63.012Q85.8766 63.2674 85.7836 63.5172Q85.6906 63.767 85.581 64.0099Q85.4713 64.2528 85.3456 64.4878Q85.2198 64.7228 85.0785 64.9488Q84.9372 65.1748 84.7809 65.3907Q84.6247 65.6066 84.4543 65.8116Q84.2839 66.0165 84.1 66.2094Q83.9161 66.4024 83.7197 66.5825Q83.5233 66.7626 83.3151 66.9291Q83.107 67.0956 82.8881 67.2477Q82.6692 67.3997 82.4406 67.5367Q82.2119 67.6736 81.9746 67.7949Q81.7372 67.9161 81.4922 68.0211Q81.2472 68.126 80.9957 68.2142Q80.7442 68.3024 80.4873 68.3735Q80.2305 68.4445 79.9694 68.4981Q79.7083 68.5517 79.4442 68.5875Q79.1801 68.6234 78.9142 68.6414Q78.6482 68.6593 78.3817 68.6593L7.89844 68.6593Q7.63191 68.6593 7.36599 68.6414Q7.10007 68.6234 6.83597 68.5875Q6.57187 68.5517 6.31078 68.4981Q6.0497 68.4445 5.79282 68.3735Q5.53594 68.3024 5.28443 68.2142Q5.03293 68.126 4.78794 68.0211Q4.54295 67.9161 4.3056 67.7949Q4.06824 67.6736 3.8396 67.5367Q3.61096 67.3997 3.39207 67.2476Q3.17318 67.0956 2.965 66.9291Q2.7569 66.7626 2.56045 66.5825Q2.364 66.4024 2.18015 66.2094Q1.9963 66.0165 1.82587 65.8116Q1.65544 65.6066 1.49921 65.3907Q1.34298 65.1748 1.20167 64.9488Q1.06035 64.7228 0.934586 64.4878Q0.808824 64.2528 0.699189 64.0099Q0.589554 63.767 0.496545 63.5172Q0.403536 63.2674 0.327575 63.012Q0.251615 62.7565 0.193049 62.4965Q0.134483 62.2365 0.093578 61.9731Q0.0526729 61.7097 0.0296149 61.4442Q0.00655681 61.1787 0.00145065 60.9122Q-0.00365551 60.6457 0.00921345 60.3795Q0.0220824 60.1133 0.0528679 59.8486Q0.0836535 59.5838 0.132216 59.3218Q0.180778 59.0597 0.246895 58.8015Q0.313013 58.5433 0.396385 58.2902Q0.479758 58.037 0.580006 57.7901Q0.680254 57.5431 0.796921 57.3035Q0.913588 57.0638 1.04614 56.8326Q1.1787 56.6014 1.32654 56.3796L36.5682 3.51717Q36.7028 3.31527 36.8495 3.12201Q36.9963 2.92875 37.1546 2.74487Q37.3129 2.561 37.4822 2.38716Q37.6515 2.21334 37.8312 2.05024Q38.0109 1.88715 38.2002 1.73538Q38.3896 1.58362 38.5879 1.44377Q38.7862 1.30392 38.9927 1.1765Q39.1992 1.04908 39.4131 0.934585Q39.6271 0.820086 39.8476 0.718937Q40.0682 0.617787 40.2946 0.530367Q40.5209 0.442948 40.7522 0.369589Q40.9835 0.29623 41.2189 0.237208Q41.4543 0.178186 41.6928 0.133723Q41.9314 0.089261 42.1722 0.0595259Q42.413 0.0297908 42.6552 0.0148952Q42.8974 -4.76837e-07 43.1401 -4.76837e-07Q43.3827 -4.76837e-07 43.6249 0.0148952Q43.8671 0.0297908 44.108 0.0595259Q44.3488 0.089261 44.5873 0.133723Q44.8259 0.178186 45.0612 0.237208Q45.2966 0.29623 45.5279 0.369589Q45.7592 0.442948 45.9856 0.530367Q46.2119 0.617787 46.4325 0.718936Q46.6531 0.820086 46.867 0.934585Q47.081 1.04908 47.2875 1.1765Q47.494 1.30392 47.6923 1.44377Q47.8906 1.58362 48.0799 1.73538Q48.2693 1.88715 48.4489 2.05024Q48.6286 2.21334 48.7979 2.38716Q48.9672 2.56098 49.1256 2.74487Q49.2839 2.92875 49.4306 3.12201Q49.5774 3.31527 49.712 3.51717L49.712 3.51717Z" fill="#2953FF" fill-rule="evenodd" transform="translate(28 0)"/>
</g>
<path id="sun" d="M0 14C0 6.268 6.268 0 14 0C21.732 0 28 6.268 28 14C28 21.732 21.732 28 14 28C6.268 28 0 21.732 0 14C0 14 0 14 0 14Z" fill="#FF354A" transform="translate(16 12)"/>
</svg>