<?xml version="1.0" encoding="utf-8"?>
<svg width="128" height="128" viewBox="0 0 128 128" xmlns="http://www.w3.org/2000/svg">
<defs>
<clipPath id="pic">
<rect width="104" height="104" rx="8" x="12" y="12"/>
</clipPath>
<linearGradient id="gradient_3" x1="1" y1="0" x2="0" y2="1">
<stop offset="0" stop-color="#9A9996" stop-opacity="0"/>
<stop offset="1" stop-color="#9A9996"/>
</linearGradient>
<linearGradient id="gradient_4" x1="1" y1="0" x2="0" y2="1">
<stop offset="0" stop-color="#FFFFFF" stop-opacity="0"/>
<stop offset="66%" stop-color="#FFFFFF"/>
</linearGradient>
</defs>
<g clip-path="url(#pic)">
<g fill="none" stroke-width="12" stroke-dasharray="12 12">
<path d="M0 0L102 0L102 12L6 12L6 24L102 24L102 36L6 36L6 48L102 48L102 60L6 60L6 72L102 72L102 84L6 84" stroke="url(#gradient_3)" transform="translate(10 16)"/>
<path d="M6 0L96 0L96 12L0 12L0 24L96 24L96 36L0 36L0 48L96 48L96 60L0 60L0 72L96 72L96 84L0 84" stroke="url(#gradient_4)" transform="translate(16 16)"/></g>
<rect width="72" height="72" rx="9" fill="#F5C211" transform="translate(76 64) rotate(45)"/>
<rect width="96" height="96" rx="10" fill="#1C71D8" transform="translate(36 54) rotate(45)"/>
<circle r="12" cx="88" cy="40" fill="#ED333B"/>
</g></svg>
