<?xml version="1.0" encoding="utf-8"?>
<svg width="128" height="128" viewBox="0 0 128 128" xmlns="http://www.w3.org/2000/svg">
<defs><filter y="-50%" height="200%" id="shadow">
<feDropShadow dx="0" dy="1" flood-color="#241F31" stdDeviation="0"/>
</filter></defs>
<path d="M84 88L112 60L112 8C112 3.6 108.4 0 104 0L8 0C3.6 0 0 3.6 0 8L0 80C0 84.4 3.6 88 8 88Z" fill="#9A9996" transform="translate(8 20)"/>
<g id="fkeys" filter="url(#shadow)" fill="#3D3846" transform="translate(12 36)">
<rect id="f1" width="12" height="5" rx="2.5"/>
<rect id="f2" width="12" height="5" rx="2.5" x="14"/>
<rect id="f3" width="12" height="5" rx="2.5" x="28"/>
<rect id="f4" width="12" height="5" rx="2.5" x="42"/>
<rect id="f5" width="12" height="5" rx="2.5" x="56"/>
<rect id="f6" width="12" height="5" rx="2.5" x="78"/>
<rect id="f7" width="12" height="5" rx="2.5" x="92"/>
</g><g id="keys" filter="url(#shadow)" fill="#3D3846" transform="translate(12 46)">
<rect width="12" height="11" rx="3"/>
<rect width="12" height="11" rx="3" transform="translate(14 0)"/>
<rect width="12" height="11" rx="3" transform="translate(28 0)"/>
<rect width="12" height="11" rx="3" transform="translate(42 0)"/>
<rect width="12" height="11" rx="3" transform="translate(56 0)"/>
<rect width="12" height="11" rx="3" transform="translate(70 0)"/>
<rect width="20" height="11" rx="3" transform="translate(84 0)" id="backspace"/>
<rect width="20" height="11" rx="3" transform="translate(0 14)" id="bloqmayus"/>
<rect width="12" height="11" rx="3" transform="translate(22 14)"/>
<rect width="12" height="11" rx="3" transform="translate(36 14)"/>
<rect width="12" height="11" rx="3" transform="translate(50 14)"/>
<rect width="12" height="11" rx="3" transform="translate(64 14)"/>
<rect width="12" height="11" rx="3" transform="translate(78 14)"/>
<rect width="12" height="11" rx="3" transform="translate(0 28)"/>
<rect width="12" height="11" rx="3" transform="translate(14 28)"/>
<rect width="12" height="11" rx="3" transform="translate(28 28)"/>
<rect width="12" height="11" rx="3" transform="translate(42 28)"/>
<rect width="12" height="11" rx="3" transform="translate(56 28)"/>
<rect width="12" height="11" rx="3" transform="translate(70 28)"/>
<rect width="12" height="11" rx="3" transform="translate(84 28)"/>
<rect width="20" height="11" rx="3" transform="translate(0 42)" id="control"/>
<rect width="12" height="11" rx="3" transform="translate(22 42)"/>
<rect width="12" height="11" rx="3" transform="translate(36 42)"/>
<rect width="40" height="11" rx="3" transform="translate(50 42)" id="space"/>
<path d="M9 0C12 0 12 3 12 3L12 22C12 22 12 25 9 25C6 25 6 22 6 22L6 14C6 14 6 11 3 11C0 11 0 8 0 8L0 3C0 3 0 0 3 0Z" transform="translate(92 14)" id="enter"/>
</g><path d="M0 0L28 0L0 28Z" fill="#5E5C64" transform="translate(92 80)"/>
<path d="M0 29L0 0L29 0" fill="none" stroke="#9A9996" stroke-width="2" transform="translate(91 79)"/>
</svg>
