<?xml version="1.0" encoding="utf-8"?>
<svg width="128" height="128" viewBox="0 0 128 128" xmlns="http://www.w3.org/2000/svg">
<g id="sheet" stroke="#707070" stroke-width="2" stroke-linejoin="round" transform="translate(19 7)">
<path id="paper" fill="#F6F5F4" d="M61.5 0L90 28.5L90 105C90 109.971 85.9712 114 81 114L9 114C4.02876 114 0 109.971 0 105L0 9C0 4.02876 4.02876 0 9 0L61.5 0Z"/>
<path id="corner" fill="#C8C8C8" d="M0 0L28 28L0 28Z" transform="translate(62 0)"/>
</g><g fill="#5A5A5A">
<rect width="26" height="2" x="66" y="48"/>
<rect width="26" height="2" x="66" y="56"/>
<rect width="26" height="2" x="66" y="64"/>
<rect width="26" height="2" x="66" y="72"/>
<rect width="56" height="2" x="36" y="80"/>
<rect width="56" height="2" x="36" y="88"/>
<rect width="56" height="2" x="36" y="96"/>
<rect width="28" height="2" x="36" y="104"/>
</g>
<path id="@" d="M12.452 0.013C8.2032 0.190666 4.3165 2.4318 2 6.01885C-1.07 10.8947 -0.58 17.2308 3.22414 21.5797C7.041 25.9159 13.2648 27.2238 18.5043 24.78C19.3172 24.3986 19.6728 23.4336 19.2918 22.6209C18.9107 21.8083 17.9454 21.4527 17.1261 21.8337C13.2 23.6748 8.5271 22.6971 5.67 19.4338C2.805 16.1769 2.43664 11.4153 4.77375 7.76477C7.09816 4.1 11.5692 2.42 15.73 3.63806C19.8951 4.85067 22.7593 8.6663 22.753 13C22.753 13 22.753 13.066 22.753 13.066C22.753 13.066 22.753 14.6278 22.753 14.6278C22.753 15.212 22.4481 15.7388 21.94 16.031C21.4384 16.323 20.8223 16.323 20.3143 16C19.8125 15.7452 19.5 15.2055 19.5 14.6278C19.5 14.6278 19.5 13 19.5 13C19.5 9.42815 16.5736 6.5 13 6.5C9.43 6.5 6.49483 9.42815 6.49483 13C6.49483 16.5705 9.42892 19.5037 13 19.5037C14.7 19.5037 16.237 18.8243 17.4 17.7514C17.7612 18.1831 18.1931 18.5577 18.6884 18.85C20.2 19.72 22.0607 19.72 23.566 18.85C25.0774 17.9736 26 16.3674 26 14.6278C26 14.6278 26 13 26 13C26 7.21877 22.1878 2.13974 16.6371 0.514454C15.278 0.12083 13.8682 -0.0505867 12.452 0C12.452 0 12.452 0 12.452 0ZM13 9.752C14.8144 9.752 16.25 11.1868 16.25 13C16.25 14.812 14.8144 16.2531 13 16.2531C11.188 16.2531 9.74646 14.812 9.74646 13C9.74646 11.1868 11.1881 9.752 13 9.752C13 9.752 13 9.752 13 9.752Z" fill="#1A5EB2" transform="translate(36 48)"/>
</svg>