<?xml version="1.0" encoding="UTF-8"?>
<svg width="128" height="128" viewBox="0 0 128 128" xmlns="http://www.w3.org/2000/svg">
<path d="M84 88L8 88C3.6 88 0 84.4 0 80L0 8C0 3.6 3.6 0 8 0L104 0C108.4 0 112 3.6 112 8L112 60Z" fill="#1C71D8" transform="translate(8 20)"/>
<g fill="none" stroke="#FFFFFF">
<g stroke-width="2" opacity="60%" stroke-dasharray="2 2">
<line x1="47" y1="36" x2="47" y2="92"/>
<line x1="81" y1="36" x2="81" y2="92"/>
<rect width="56" height="23" rx="10" x="36" y="69"/>
</g><g stroke-width="4">
<rect width="56" height="56" rx="10" x="36" y="36"/>
<rect width="56" height="24" rx="10" x="36" y="36" stroke-dasharray="4 4"/>
</g></g>
<path d="M0 28L0 0L28 0Z" fill="#62A0EA" transform="translate(92 80)"/>
</svg>
