<?xml version="1.0" encoding="utf-8"?>
<svg width="128" height="128" viewBox="0 0 128 128" xmlns="http://www.w3.org/2000/svg">
<defs>
<linearGradient id="corners">
<stop offset="0" stop-color="#986A44"/>
<stop offset="5%" stop-color="#CDAB8F"/>
<stop offset="10%" stop-color="#B5835A"/>
<stop offset="90%" stop-color="#B5835A"/>
<stop offset="95%" stop-color="#CDAB8F"/>
<stop offset="1" stop-color="#986A44"/>
</linearGradient>
<filter id="under">
<feDropShadow dx="0" dy="2" flood-color="#000000" flood-opacity="10%" stdDeviation="0"/>
</filter><filter id="zipper">
<feDropShadow dx="0" dy="2" flood-color="#949390" stdDeviation="0"/>
</filter><filter id="zipp3r">
<feDropShadow dx="0" dy="3" flood-color="#949390" stdDeviation="0"/>
</filter><filter id="plate" y="-50%" height="200%">
<feDropShadow dx="0" dy="4" flood-color="#3D3846" stdDeviation="0"/>
</filter><filter id="brag" y="-50%" height="200%">
<feDropShadow dx="0" dy="2" flood-color="#68676B" stdDeviation="0"/>
</filter>
</defs>
<rect width="88" height="112" rx="8" x="20" y="8" fill="url(#corners)"/>
<rect width="88" height="104" rx="8" x="20" y="8" fill="#CDAB8F" filter="url(#under)"/>
<rect width="3" height="64" x="64" y="48" fill="#EADCD0"/>
<path d="M6 0L12 0L12 4L0 4L0 8L12 8L12 12L0 12L0 16L12 16L12 20L0 20L0 24L12 24L12 28L0 28L0 32L12 32L12 36L0 36L0 40L12 40L12 44L0 44L0 48L12 48L12 52L0 52L0 56L12 56L12 60L0 60L0 64L6 64Z" fill="#FFFFFF" filter="url(#zipper)" transform="translate(58 48)"/>
<rect width="24" height="28" rx="6" x="52" y="4" fill="#5E5C64" filter="url(#plate)"/>
<rect width="12" height="32" rx="3" x="58" y="14" fill="#FFFFFF" filter="url(#zipp3r)"/>
<rect width="6" height="3" x="61" y="40" fill="#CDAB8F"/>
<rect width="6" height="3" x="61" y="37" fill="#949390"/>
<rect width="6" height="12" rx="3" x="61" y="8" fill="#949390" filter="url(#brag)"/>
</svg>
