<?xml version="1.0" encoding="utf-8"?>
<svg width="128" height="128" viewBox="0 0 128 128" xmlns="http://www.w3.org/2000/svg">
<defs>
<filter id="shadow_1">
<feDropShadow dx="0" dy="2" flood-color="#808080" stdDeviation="0"/>
</filter>
<filter id="shadow_2">
<feDropShadow dx="0" dy="3" flood-color="#77767B" stdDeviation="0"/>
</filter>
</defs>
<g id="box" transform="translate(20 8)">
<rect width="88" height="112" rx="8" fill="#96744F"/>
<rect width="88" height="106" rx="8" fill="#D5A571"/>
</g><g id="close">
<rect id="tape" width="18" height="86" fill="#A1724B" x="55" y="34"/>
<rect width="18" height="6" fill="#715035" x="55" y="114"/>
<path id="squares" filter="url(#shadow_1)" d="M6 0L6 4L0 4L0 8L6 8L6 12L0 12L0 16L6 16L6 20L0 20L0 24L6 24L6 28L0 28L0 32L6 32L6 36L0 36L0 40L6 40L6 44L0 44L0 48L6 48L6 52L0 52L0 56L6 56L6 60L0 60L0 64L6 64L6 60L12 60L12 56L6 56L6 52L12 52L12 48L6 48L6 44L12 44L12 40L6 40L6 36L12 36L12 32L6 32L6 28L12 28L12 24L6 24L6 20L12 20L12 16L6 16L6 12L12 12L12 8L6 8L6 4L12 4L12 0Z" fill="#FFFFFF" transform="translate(58 50)"/>
<g id="zipper" transform="translate(52 8)">
<rect width="24" height="30" rx="4" fill="#3D3846"/>
<rect width="24" height="27" rx="4" fill="#5E5C64"/>
<path fill="#FFFFFF" filter="url(#shadow_2)" d="M3 0C1.336 0 0 1.336 0 3C0 3 0 30 0 30C0 31.664 1.336 33 3 33C3 33 9 33 9 33C10.664 33 12 31.6641 12 30C12 30 12 3 12 3C12 1.336 10.664 0 9 0C9 0 3 0 3 0ZM3 24L9 24L9 30L3 30L3 24Z" transform="translate(6 9)"/>
<g transform="translate(9 3)">
<rect width="6" height="15" rx="3" fill="#77767B"/>
<rect width="6" height="12" rx="3" fill="#9A9996"/>
</g></g></g>
</svg>