<?xml version="1.0" encoding="utf-8"?>
<svg width="128" height="128" viewBox="0 0 128 128" fill="none" xmlns="http://www.w3.org/2000/svg">
  <g>
    <path d="M88 28L88 104C88 108.419 84.4189 112 80 112L8 112C3.58112 112 0 108.419 0 104L0 8C0 3.58112 3.58112 0 8 0L60.0038 0L88 28Z" fill="#3030FC" fill-rule="evenodd" transform="translate(20 8)" />
    <path d="M0 0L28 28L0 28L0 0Z" fill="#FFFFFF" fill-rule="evenodd" fill-opacity="0.4" transform="translate(80 8)" />
    <g transform="matrix(1 0 0 1 34 48)">
      <path d="M5.49748 2.74917C5.498 4.26655 4.26759 5.49786 2.74921 5.49843C1.23089 5.49843 0 4.26749 0 2.74917C0.00056839 1.22989 1.23183 -0.000473976 2.75016 0C4.26844 0 5.49928 1.23084 5.49933 2.74917C5.49933 2.74917 5.49748 2.74917 5.49748 2.74917Z" fill="#FFFFFF" fill-opacity="0.99" transform="matrix(1 0 0 1 9.276 9.887)" />
      <path d="M5.49748 2.74917C5.498 4.26654 4.26759 5.49786 2.74921 5.49843C1.23089 5.49843 0 4.26749 0 2.74917C0.00056839 1.22989 1.23183 -0.000473499 2.75016 0C4.26844 0 5.49928 1.23084 5.49933 2.74917C5.49933 2.74917 5.49748 2.74917 5.49748 2.74917Z" fill="#FFFFFF" fill-opacity="0.99" transform="matrix(1 0 0 1 37.618 6.514)" />
      <path d="M6.85071 3.4259C6.85134 5.31682 5.31808 6.85117 3.42595 6.85186C1.53389 6.85186 0 5.31796 0 3.4259C0.000684738 1.5327 1.53503 -0.000629425 3.4271 0C5.31916 5.72205e-05 6.85294 1.53384 6.85299 3.4259C6.85299 3.4259 6.85071 3.4259 6.85071 3.4259Z" fill="#FFFFFF" fill-opacity="0.99" transform="matrix(1 0 0 1 29.77 32.845)" />
      <path d="M4.52055 2.26063C4.52096 3.50838 3.50921 4.52085 2.26067 4.5213C1.01216 4.5213 0 3.50914 0 2.26063C0.000452042 1.01137 1.01292 -0.000415802 2.26142 0C3.50993 3.8147e-05 4.52202 1.01212 4.52205 2.26063C4.52205 2.26063 4.52055 2.26063 4.52055 2.26063Z" fill="#FFFFFF" fill-opacity="0.99" transform="matrix(1 0 0 1 4.297 37.269)" />
      <path d="M4.52055 2.26064C4.52096 3.50839 3.50921 4.52085 2.26067 4.52131C1.01216 4.52131 0 3.50914 0 2.26064C0.000452042 1.01137 1.01292 -0.000415802 2.26142 0C3.50993 3.8147e-05 4.52202 1.01213 4.52206 2.26064C4.52206 2.26064 4.52055 2.26064 4.52055 2.26064Z" fill="#FFFFFF" fill-opacity="0.99" transform="matrix(1 0 0 1 23.68 55.812)" />
      <path d="M4.52055 2.26064C4.52096 3.50839 3.50921 4.52085 2.26067 4.52131C1.01216 4.52131 0 3.50914 0 2.26064C0.000453949 1.01137 1.01292 -0.000415802 2.26142 0C3.50993 3.8147e-05 4.52201 1.01213 4.52205 2.26064C4.52205 2.26064 4.52055 2.26064 4.52055 2.26064Z" fill="#FFFFFF" fill-opacity="0.99" transform="matrix(1 0 0 1 45.794 49.39)" />
      <path d="M4.52055 2.26063C4.52096 3.50838 3.50921 4.52085 2.26067 4.5213C1.01216 4.5213 0 3.50914 0 2.26063C0.000453949 1.01137 1.01292 -0.000413895 2.26142 0C3.50993 3.8147e-05 4.52201 1.01213 4.52205 2.26063C4.52205 2.26063 4.52055 2.26063 4.52055 2.26063Z" fill="#FFFFFF" fill-opacity="0.99" transform="matrix(1 0 0 1 55.378 28.522)" />
      <path d="M3.54361 1.77209C3.54394 2.75019 2.75084 3.54385 1.77212 3.5442C0.793427 3.5442 0 2.75078 0 1.77209C0.000354767 0.792805 0.794014 -0.000324249 1.77271 0C2.7514 2.86102e-05 3.54477 0.793394 3.5448 1.77209C3.5448 1.77209 3.54361 1.77209 3.54361 1.77209Z" fill="#FFFFFF" fill-opacity="0.99" transform="matrix(1 0 0 1 52.73 17.24)" />
      <path d="M3.54361 1.77209C3.54393 2.75019 2.75084 3.54385 1.77211 3.5442C0.793423 3.5442 0 2.75078 0 1.77209C0.000354767 0.792805 0.794014 -0.000324845 1.77271 0C2.7514 2.95639e-05 3.54476 0.793395 3.54479 1.77209C3.54479 1.77209 3.54361 1.77209 3.54361 1.77209Z" fill="#FFFFFF" fill-opacity="0.99" transform="matrix(1 0 0 1 39.412 1.444)" />
      <path d="M3.54361 1.77209C3.54394 2.75019 2.75084 3.54385 1.77212 3.54421C0.793425 3.54421 0 2.75078 0 1.77209C0.000354353 0.792805 0.794015 -0.000324249 1.77271 0C2.7514 3.05176e-05 3.54477 0.793396 3.5448 1.77209C3.5448 1.77209 3.54361 1.77209 3.54361 1.77209Z" fill="#FFFFFF" fill-opacity="0.99" transform="matrix(1 0 0 1 0 36.457)" />
      <path d="M3.54361 1.77209C3.54394 2.75019 2.75084 3.54385 1.77212 3.5442C0.793425 3.5442 0 2.75078 0 1.77209C0.000354767 0.792805 0.794015 -0.000324249 1.77271 0C2.7514 3.05176e-05 3.54476 0.793396 3.54479 1.77209C3.54479 1.77209 3.54361 1.77209 3.54361 1.77209Z" fill="#FFFFFF" fill-opacity="0.99" transform="matrix(1 0 0 1 14.292 50.95)" />
      <path d="M4.52055 2.26063C4.52096 3.50838 3.50921 4.52085 2.26067 4.5213C1.01216 4.5213 0 3.50914 0 2.26063C0.000452042 1.01137 1.01292 -0.000414848 2.26142 0C3.50993 3.8147e-05 4.52202 1.01213 4.52206 2.26063C4.52206 2.26063 4.52055 2.26063 4.52055 2.26063Z" fill="#FFFFFF" fill-opacity="0.99" transform="matrix(1 0 0 1 0.832 15.68)" />
      <path d="M4.52055 2.26063C4.52096 3.50839 3.50921 4.52085 2.26067 4.5213C1.01216 4.5213 0 3.50914 0 2.26063C0.000452042 1.01137 1.01292 -0.000414373 2.26142 0C3.50993 3.76703e-05 4.52202 1.01213 4.52206 2.26063C4.52206 2.26063 4.52055 2.26063 4.52055 2.26063Z" fill="#FFFFFF" fill-opacity="0.99" transform="matrix(1 0 0 1 17.94 0)" />
      <path d="M3.54361 1.77209C3.54394 2.75019 2.75084 3.54385 1.77212 3.5442C0.793425 3.5442 0 2.75078 0 1.77209C0.000354767 0.792805 0.794015 -0.000324249 1.77271 0C2.7514 2.86102e-05 3.54476 0.793396 3.5448 1.77209C3.5448 1.77209 3.54361 1.77209 3.54361 1.77209Z" fill="#FFFFFF" fill-opacity="0.99" transform="matrix(1 0 0 1 13.291 23.429)" />
      <path d="M3.54361 1.77209C3.54393 2.75019 2.75084 3.54385 1.77211 3.5442C0.793423 3.5442 0 2.75078 0 1.77209C0.000354767 0.792805 0.794014 -0.000324249 1.77271 0C2.7514 3.05176e-05 3.54476 0.793396 3.54479 1.77209C3.54479 1.77209 3.54361 1.77209 3.54361 1.77209Z" fill="#FFFFFF" fill-opacity="0.99" transform="matrix(1 0 0 1 32.699 46.623)" />
      <path d="M7.22747 0L0 28.1963" fill="none" stroke-width="3" stroke="#FFFFFF" transform="matrix(1 0 0 1 33.026 8.692)" />
      <path d="M28.152 0L0 3.28028" fill="none" stroke-width="3" stroke="#FFFFFF" transform="matrix(1 0 0 1 11.75 9.436)" />
      <path d="M21.2223 24.0088L0 0" fill="none" stroke-width="3" stroke="#FFFFFF" transform="matrix(1 0 0 1 11.777 12.553)" />
      <path d="M7.01093 0L0 21.7057" fill="none" stroke-width="2.5" stroke="#FFFFFF" transform="matrix(1 0 0 1 25.988 36.725)" />
      <path d="M0 9.44528L8.14785 0" fill="none" stroke-width="1.5" stroke="#FFFFFF" transform="matrix(1 0 0 1 11.696 3.015)" />
      <path d="M0 5.56019L8.44556 0" fill="none" stroke-width="1.5" stroke="#FFFFFF" transform="matrix(1 0 0 1 2.979 12.39)" />
      <path d="M0 27.1494L5.1973 0" fill="none" stroke-width="1.5" stroke="#FFFFFF" transform="matrix(1 0 0 1 6.498 12.204)" />
      <path d="M19.2191 18.0764L0 0" fill="none" stroke-width="2.5" stroke="#FFFFFF" transform="matrix(1 0 0 1 6.363 39.865)" />
      <path d="M22.5487 0L0 6.58377" fill="none" stroke-width="2.5" stroke="#FFFFFF" transform="matrix(1 0 0 1 25.501 51.265)" />
      <path d="M9.36595 0L0 20.6122" fill="none" stroke-width="2.5" stroke="#FFFFFF" transform="matrix(1 0 0 1 48.049 30.723)" />
      <path d="M0 5.67651L24.3894 0" fill="none" stroke-width="2.5" stroke="#FFFFFF" transform="matrix(1 0 0 1 32.701 30.886)" />
      <path d="M0 0L16.7287 21.4031" fill="none" stroke-width="2.5" stroke="#FFFFFF" transform="matrix(1 0 0 1 40.308 9.25)" />
      <path d="M0 2.79169L25.9865 0" fill="none" stroke-width="2.5" stroke="#FFFFFF" transform="matrix(1 0 0 1 6.03 36.562)" />
      <path d="M9.47422 5.09491L0 0" fill="none" stroke-width="1.5" stroke="#FFFFFF" transform="matrix(1 0 0 1 15.802 52.661)" />
      <path d="M0 0L14.1031 14.4704" fill="none" stroke-width="1.5" stroke="#FFFFFF" transform="matrix(1 0 0 1 1.212 38.051)" />
      <path d="M1.0557 0L0 19.9142" fill="none" stroke-width="1.5" stroke="#FFFFFF" transform="matrix(1 0 0 1 1.645 18.137)" />
      <path d="M0 0L20.9786 0.721226" fill="none" stroke-width="1.5" stroke="#FFFFFF" transform="matrix(1 0 0 1 19.835 2.201)" />
      <path d="M13.291 16.285L0 0" fill="none" stroke-width="1.5" stroke="#FFFFFF" transform="matrix(1 0 0 1 41.382 2.852)" />
      <path d="M3.49194 11.6787L0 0" fill="none" stroke-width="1.5" stroke="#FFFFFF" transform="matrix(1 0 0 1 54.402 18.974)" />
      <path d="M0 5.93245L1.24519 0" fill="none" stroke-width="1.5" stroke="#FFFFFF" transform="matrix(1 0 0 1 40.056 3.015)" />
      <path d="M5.49502 1.04689L0 0" fill="none" stroke-width="1.5" stroke="#FFFFFF" transform="matrix(1 0 0 1 1.266 38.539)" />
      <path d="M0 4.44349L18.1364 0" fill="none" stroke-width="1" stroke="#FFFFFF" transform="matrix(1 0 0 1 15.802 48.403)" />
      <path d="M0 0L13.0473 2.815" fill="none" stroke-width="1" stroke="#FFFFFF" transform="matrix(1 0 0 1 34.398 48.379)" />
      <path d="M0 2.6569L23.7461 0" fill="none" stroke-width="1" stroke="#FFFFFF" transform="matrix(1 0 0 1 2.427 15.477)" />
      <path d="M0 5.25537L14.1321 0" fill="none" stroke-width="1" stroke="#FFFFFF" transform="matrix(1 0 0 1 26.173 9.696)" />
      <path d="M3.31573 1.65813C3.31604 2.57333 2.57394 3.31596 1.65816 3.31629C0.742401 3.31629 0 2.57389 0 1.65813C0.000331879 0.741821 0.742954 -0.000305176 1.65871 0C2.57446 2.67029e-05 3.31681 0.742374 3.31684 1.65813C3.31684 1.65813 3.31573 1.65813 3.31573 1.65813Z" fill="#FFFFFF" fill-opacity="0.99" transform="matrix(1 0 0 1 46.424 35.079)" />
      <path d="M3.54361 1.77209C3.54394 2.75019 2.75084 3.54385 1.77212 3.5442C0.793425 3.5442 0 2.75078 0 1.77209C0.000354767 0.792805 0.794016 -0.000325203 1.77271 0C2.7514 2.95639e-05 3.54476 0.793395 3.54479 1.77209C3.54479 1.77209 3.54361 1.77209 3.54361 1.77209Z" fill="#FFFFFF" fill-opacity="0.99" transform="matrix(1 0 0 1 24.101 13.466)" />
      <path d="M0 17.8723L6.36458 0" fill="none" stroke-width="1" stroke="#FFFFFF" transform="matrix(1 0 0 1 47.878 18.807)" />
      <path d="M0 15.0423L0.220989 0" fill="none" stroke-width="1" stroke="#FFFFFF" transform="matrix(1 0 0 1 47.789 36.28)" />
      <path d="M0 13.951L9.0921 0" fill="none" stroke-width="1" stroke="#FFFFFF" transform="matrix(1 0 0 1 6.183 25.185)" />
      <path d="M5.01174 0L0 22.7943" fill="none" stroke-width="1" stroke="#FFFFFF" transform="matrix(1 0 0 1 15.008 2.391)" />
    </g>
  </g>
</svg>