<?xml version="1.0" encoding="utf-8"?>
<svg width="128" height="128" viewBox="0 0 128 128" xmlns="http://www.w3.org/2000/svg">
<g id="sheet" stroke="#707070" stroke-width="2" stroke-linejoin="round" transform="translate(19 7)">
<path id="paper" d="M61.5 0L90 28.5L90 105C90 109.971 85.9712 114 81 114L9 114C4.02876 114 0 109.971 0 105L0 9C0 4.02876 4.02876 0 9 0L61.5 0Z" fill="#F6F5F4" stroke-width="2" stroke="#707070"/>
<path id="corner" d="M0 0L28 28L0 28Z" fill="#C8C8C8" transform="translate(62 0)"/>
</g><g id="TEX" fill="#222222" transform="translate(30 60)">
<path id="X" d="M0.470619 0L0.470619 1.17647C0.470619 1.17647 1.25492 1.17647 1.25492 1.17647C3.34324 1.17647 4.06292 1.44666 4.78433 2.50981C4.78433 2.50981 11.7647 13.098 11.7647 13.098C11.7647 13.098 5.49021 22.2745 5.49021 22.2745C4.95863 23.0339 3.83492 24.7843 0 24.7843C0 24.7843 0 25.9608 0 25.9608C0 25.9608 4.2353 25.8039 4.2353 25.8039C5.64016 25.8039 7.73115 25.8468 9.09805 25.9608C9.09805 25.9608 9.09805 24.7843 9.09805 24.7843C7.35146 24.7463 6.66667 23.6638 6.66667 22.9804C6.66667 22.6387 6.79311 22.5353 7.05883 22.1177C7.05883 22.1177 12.4706 14.1177 12.4706 14.1177C12.4706 14.1177 18.4314 23.2157 18.4314 23.2157C18.5073 23.3674 18.6667 23.4939 18.6667 23.6078C18.6667 24.0635 17.7895 24.7463 16.157 24.7843C16.1569 24.7843 16.1569 25.9608 16.157 25.9608C17.4858 25.8468 20.2827 25.804 21.7255 25.8039C21.7255 25.8039 26.6667 25.9608 26.6667 25.9608L26.6667 24.7843C26.6667 24.7843 25.9608 24.7843 25.9608 24.7843C23.9864 24.7843 23.1503 24.5496 22.353 23.3725C22.353 23.3725 14.353 11.2941 14.353 11.2941C14.353 11.2941 19.5294 3.68627 19.5294 3.68627C20.3648 2.47124 21.7188 1.21444 25.0981 1.17646C25.0981 1.17646 25.0981 0 25.0981 0C25.0981 0 20.8628 0.156853 20.8628 0.156853C19.344 0.156853 17.5188 0.113899 16 0C16 0 16 1.17647 16 1.17647C17.5188 1.21447 18.3529 2.02867 18.3529 2.90196C18.3529 3.28165 18.305 3.42548 18.0392 3.84314C18.0392 3.84314 13.6471 10.1961 13.6471 10.1961C13.6471 10.1961 8.78431 2.90197 8.78431 2.90197C8.70834 2.78807 8.54903 2.50482 8.54903 2.35295C8.54903 1.89732 9.3477 1.21445 10.9804 1.17648C10.9804 1.17648 10.9804 0 10.9804 0C9.65147 0.113892 6.8546 0.156853 5.41177 0.156853C5.41177 0.156853 0.470619 0 0.470619 0Z" transform="translate(41.136 0)"/>
<path id="E" d="M0 0L0 1.17647C0 1.17647 0.941181 1.17647 0.941181 1.17647C3.86482 1.17647 3.92158 1.53506 3.92158 2.90197C3.92158 2.90197 3.92158 23.011 3.92158 23.011C3.92158 24.3779 3.86487 24.815 0.941181 24.815C0.941181 24.815 0 24.815 0 24.815L0 25.9914L21.8823 25.9914L23.5294 16.1875C23.5294 16.1875 22.5098 16.1875 22.5098 16.1875C21.5606 22.0348 20.7268 24.815 14.1961 24.815C14.1961 24.815 9.17646 24.815 9.17646 24.815C7.39191 24.815 7.29412 24.4993 7.29412 23.2463C7.29412 23.2463 7.29412 13.0349 7.29412 13.0349C7.29412 13.0349 10.6667 13.0349 10.6667 13.0349C14.3497 13.0349 14.8235 14.2781 14.8235 17.5055C14.8235 17.5055 15.7647 17.5055 15.7647 17.5055L15.7647 7.38788C15.7647 7.38788 14.8235 7.38788 14.8235 7.38788C14.8235 10.6532 14.3497 11.8585 10.6667 11.8585C10.6667 11.8585 7.29412 11.8585 7.29412 11.8585C7.29412 11.8585 7.29412 2.66667 7.29412 2.66667C7.29412 1.41369 7.39202 1.17648 9.17646 1.17648C9.17646 1.17648 14.0392 1.17648 14.0392 1.17648C19.8485 1.17648 20.8827 3.19285 21.4902 8.4706C21.4902 8.4706 22.4314 8.4706 22.4314 8.4706L21.3333 0L0 0Z" transform="translate(21.074 10)"/>
<path id="T" d="M0.705879 0L0 8.54903C0 8.54903 0.941181 8.54903 0.941181 8.54903C1.47274 2.43594 2.03132 1.17647 7.76471 1.17647C8.44816 1.17647 9.42424 1.17897 9.80393 1.2549C10.6013 1.40675 10.6667 1.79337 10.6667 2.66666C10.6667 2.66666 10.6667 23.1042 10.6667 23.1042C10.6667 24.3951 10.6534 25.0659 6.66668 24.9865C6.66668 24.9865 5.09803 24.9865 5.09803 24.9865C5.09803 24.9865 5.09803 26.163 5.09803 26.163C6.65479 26.049 10.5671 26.0061 12.3137 26.0061C14.0603 26.0061 17.9727 26.049 19.5294 26.163C19.5294 26.163 19.5294 24.9865 19.5294 24.9865C19.5294 24.9865 17.9608 24.9865 17.9608 24.9865C13.974 24.9865 14.0392 24.3951 14.0392 23.1042C14.0392 23.1042 14.0392 2.66666 14.0392 2.66666C14.0392 1.90727 13.9832 1.40678 14.6667 1.2549C15.0843 1.17896 16.1413 1.17647 16.8628 1.17647C22.5961 1.17647 23.1547 2.436 23.6863 8.55C23.6863 8.54903 24.6275 8.55 24.6275 8.54903L23.9216 0L0.705879 0Z"/>
</g></svg>