<?xml version="1.0" encoding="utf-8"?>
<svg width="128" height="128" viewBox="0 0 128 128" xmlns="http://www.w3.org/2000/svg">
<path id="paper" d="M108 36L108 112C108 116.4 104.4 120 100 120L28 120C23.6 120 20 116.4 20 112L20 16C20 11.6 23.6 8 28 8L80 8Z" fill="#663399"/>
<path id="corner" d="M0 0L28 28L0 28Z" fill="#FFFFFF" opacity="0.3" transform="translate(80 8)"/>
<path id="less" d="M63.1843 10.3038C63.1843 8.18934 63.5143 6.94136 63.5143 4.67225C63.5143 1.14482 62.2147 0.0101891 59.3372 0.0101891C59.3372 0.0101891 57.2228 0.0101891 57.2228 0.0101891L57.2228 2.50615C57.2228 2.50615 57.8726 2.50615 57.8726 2.50615C59.3372 2.50615 59.6569 2.99096 59.6569 4.78559C59.6569 6.46674 59.4919 8.14787 59.4919 10.0973C59.4919 12.5933 60.3067 13.5629 61.9263 13.9446C61.9263 13.9446 61.9263 14.1094 61.9263 14.1094C60.2967 14.4909 59.4919 15.4606 59.4919 17.9567C59.4919 19.906 59.6569 21.4838 59.6569 23.2684C59.6569 25.1148 59.2753 25.5995 57.8726 25.5995C57.8726 25.5995 57.8726 25.6509 57.8726 25.6509L57.2228 25.6509L57.2228 28.25C57.2228 28.25 59.3372 28.25 59.3372 28.25C62.2044 28.25 63.5143 27.1155 63.5143 23.5881C63.5143 21.2571 63.1843 20.0608 63.1843 17.9567C63.1843 16.8222 63.8857 15.6254 66 15.5224C66 15.5224 66 12.7068 66 12.7068C63.8857 12.6347 63.1843 11.4383 63.1843 10.3038C63.1843 10.3038 63.1843 10.3038 63.1843 10.3038C63.1843 10.3038 63.1843 10.3038 63.1843 10.3038ZM52.2925 13.6042C50.663 12.9544 49.1468 12.5728 49.1468 11.4899C49.1468 10.6751 49.7965 10.1904 50.9928 10.1904C52.1893 10.1904 53.2726 10.6751 54.4586 11.5414C54.4586 11.5414 56.6244 8.67416 56.6244 8.67416C55.2731 7.64268 53.4271 6.55971 50.931 6.55971C47.2487 6.55971 44.7528 8.67416 44.7528 11.6548C44.7528 14.3056 47.0839 15.667 49.0333 16.42C50.7145 17.0695 52.344 17.6165 52.344 18.6995C52.344 19.5143 51.6942 20.0504 50.2297 20.0504C48.8785 20.0504 47.5169 19.5036 46.0524 18.3693C46.0524 18.3693 43.8867 21.5151 43.8867 21.5151C45.5159 22.8664 48.002 23.7948 50.0647 23.7948C54.3964 23.7948 56.7275 21.5151 56.7275 18.5346C56.7275 15.5537 54.4069 14.3056 52.2925 13.6042C52.2925 13.6042 52.2925 13.6042 52.2925 13.6042C52.2925 13.6042 52.2925 13.6042 52.2925 13.6042ZM15.2752 19.7308C14.8935 19.7308 14.4089 19.4008 14.4089 18.3798C14.4089 18.3798 14.4089 0 14.4089 0C14.4089 0 6.71452 0 6.71452 0C3.78511 0 2.48563 1.13448 2.48563 4.66191C2.48563 6.99301 2.81563 8.2925 2.81563 10.2935C2.81563 11.4281 2.1143 12.6244 0 12.7276C0 12.7276 0 15.5435 0 15.5435C2.1143 15.5949 2.81563 16.7913 2.81563 17.9258C2.81563 19.9269 2.48563 21.1231 2.48563 23.4541C2.48563 26.9815 3.78511 28.1161 6.66273 28.1161C6.66273 28.1161 8.77717 28.1161 8.77717 28.1161L8.77717 25.6202C8.77717 25.6202 8.12736 25.6202 8.12736 25.6202C6.77636 25.6202 6.34291 25.0734 6.34291 23.2889C6.34291 21.5048 6.50791 19.9786 6.50791 17.9772C6.50791 15.4814 5.69324 14.5119 4.07394 14.1301C4.07394 14.1301 4.07394 13.9649 4.07394 13.9649C5.70328 13.5836 6.50791 12.6139 6.50791 10.1178C6.50791 8.16869 6.34291 6.59056 6.34291 4.80611C6.34291 3.02181 6.72471 2.52667 8.12736 2.52667C8.12736 2.52667 9.5818 2.52667 9.5818 2.52667C9.5818 2.52667 9.5818 18.0805 9.5818 18.0805C9.5818 21.3911 10.7163 23.5574 14.0271 23.5574C15.0584 23.5574 15.8732 23.3922 16.4612 23.1759C16.4612 23.1759 15.9144 19.6483 15.9144 19.6483C15.5949 19.7308 15.4402 19.7308 15.2752 19.7308C15.2752 19.7308 15.2752 19.7308 15.2752 19.7308C15.2752 19.7308 15.2752 19.7308 15.2752 19.7308ZM39.1729 13.6042C37.4916 12.9544 35.9756 12.5728 35.9756 11.4899C35.9756 10.6751 36.6253 10.1904 37.8218 10.1904C39.0182 10.1904 40.1012 10.6751 41.2872 11.5414C41.2872 11.5414 43.4532 8.67416 43.4532 8.67416C42.1022 7.64268 40.2559 6.55971 37.7599 6.55971C34.0777 6.55971 31.5817 8.67416 31.5817 11.6548C31.5817 14.3056 33.9128 15.667 35.8623 16.42C37.5433 17.0695 39.1728 17.6165 39.1728 18.6995C39.1728 19.5143 38.5229 20.0504 37.0585 20.0504C35.7075 20.0504 34.3458 19.5036 32.8814 18.3693C32.8814 18.3693 30.7669 21.5151 30.7669 21.5151C32.3964 22.8664 34.8822 23.7948 36.9453 23.7948C41.2772 23.7948 43.6081 21.5151 43.6081 18.5346C43.6184 15.5537 41.2873 14.3056 39.1729 13.6042C39.1729 13.6042 39.1729 13.6042 39.1729 13.6042C39.1729 13.6042 39.1729 13.6042 39.1729 13.6042ZM23.1863 6.5082C19.2256 6.5082 15.4403 9.81912 15.5434 15.0174C15.5434 20.3809 19.0708 23.5267 23.7225 23.5267C25.6718 23.5267 27.8379 22.8249 29.5189 21.6807C29.5189 21.6807 27.8893 18.8131 27.8893 18.8131C26.6928 19.5144 25.5583 19.8443 24.3619 19.8443C22.1959 19.8443 20.5148 18.8131 20.0815 16.3173C20.0815 16.3173 29.9007 16.3173 29.9007 16.3173C29.9522 15.9353 30.0656 15.1828 30.0656 14.3163C30.1276 9.92214 27.7348 6.5082 23.1863 6.5082C23.1863 6.5082 23.1863 6.5082 23.1863 6.5082C23.1863 6.5082 23.1863 6.5082 23.1863 6.5082ZM20.0919 13.3361C20.4218 11.1701 21.7216 10.1388 23.2377 10.1388C25.187 10.1388 25.9502 11.4899 25.9502 13.3361C25.9502 13.3361 20.0919 13.3361 20.0919 13.3361C20.0919 13.3361 20.0919 13.3361 20.0919 13.3361Z" fill="#FFFFFF" transform="translate(31 63)"/>
</svg>