<?xml version="1.0" encoding="utf-8"?>
<svg width="128" height="128" viewBox="0 0 128 128" xmlns="http://www.w3.org/2000/svg">
<g id="sheet" stroke="#707070" stroke-width="2" stroke-linejoin="round" transform="translate(19 7)">
<path id="paper" fill="#F6F5F4" d="M61.5 0L90 28.5L90 105C90 109.97 86 114 81 114L9 114C4.02876 114 0 109.971 0 105L0 9C0 4.02876 4.02876 0 9 0L61.5 0Z"/>
<path id="corner" fill="#C8C8C8" d="M0 0L28 28L0 28Z" transform="translate(62 0)"/>
</g><g id="math" fill="#5A5A5A">
<rect width="16" height="4" x="32" y="96"/>
<rect width="16" height="4" x="56" y="96"/>
<rect width="16" height="4" x="80" y="96"/>
<path d="M3.55415 0.0247C2.65263 0.126211 1.81239 0.531172 1.17135 1.17312C-0.39045 2.73517 -0.39045 5.26748 1.17135 6.83C1.17135 6.83 6.34335 12 6.34335 12C6.34335 12 1.17135 17.1735 1.17135 17.1735C-0.39045 18.7356 -0.39045 21.268 1.17135 22.83C2.7334 24.4 5.26571 24.4 6.82775 22.83C6.82775 22.83 12 17.66 12 17.66C12 17.66 17.1717 22.83 17.1717 22.83C18.734 24.4 21.266 24.4 22.83 22.83C24.4 21.268 24.4 18.7356 22.83 17.1735C22.83 17.1735 17.6562 12 17.6562 12C17.66 12 22.83 6.83 22.83 6.83C24.4 5.26748 24.4 2.73517 22.83 1.17312C21.266 -0.388674 18.734 -0.388674 17.1717 1.17312C17.1717 1.17312 12 6.34512 12 6.34512C12 6.34512 6.82775 1.17312 6.82775 1.17312C6 0.31246 4.76333 -0.110186 3.55431 0.0247C3.55431 0.0247 3.55415 0.0247 3.55415 0.0247Z" fill="#DD2850" transform="translate(68 64)"/>
<path d="M28.7656 3.8147e-06L14 29.5312L7.2344 16L0 16L0 20L4.76564 20L14 38.4688L31.2344 4L64 4L64 0L28.7656 3.8147e-06Z" transform="translate(32 52)"/>
</g></svg>