<?xml version="1.0" encoding="utf-8"?>
<svg width="128" height="128" viewBox="0 0 128 128" xmlns="http://www.w3.org/2000/svg">
<defs>
<filter color-interpolation-filters="sRGB" x="-7" y="-21" width="9" height="23" id="blur">
<feFlood flood-opacity="0" result="BackgroundImageFix_1"/>
<feBlend mode="normal" in="SourceGraphic" in2="BackgroundImageFix_1" result="Shape_2"/>
<feGaussianBlur stdDeviation="3"/>
</filter>
</defs>
<path d="M108 36L108 112C108 116.4 104.4 120 100 120L28 120C23.6 120 20 116.4 20 112L20 16C20 11.6 23.6 8 28 8L80 8Z" fill="#5D87BF"/>
<path d="M0 0L28 28L0 28Z" fill="#536B8A" transform="translate(80 8)"/>
<g transform="translate(36.55 50)">
<path d="M16.6755 53.1477C16.6755 53.1477 35.2717 1.43543 35.2717 1.43543C35.587 0.55837 35.09 -0.0811182 34.1622 0.00835349C34.1622 0 19.538 1.41712 19.5381 1.41712C18.6105 1.5066 17.6084 2.29367 17.302 3.17367C17.3 3.17367 0.0894127 52.594 0.0894127 52.5938C-0.217276 53.4738 0.29 54.1883 1.2225 54.1883C1.22247 54.1883 15.457 54.1883 15.4568 54.1883C15.923 54.1883 16.43 53.8325 16.5868 53.3938C16.587 53.394 16.6755 53.1477 16.6755 53.1477Z" fill="#E6E6E6" transform="translate(19.53 0)"/>
<path d="M7.7426 23.0582C7.7426 23.0582 0 0.691328 0 0.691328L1.1 0L8.987 22.812C8.987 22.812 7.7426 23.0582 7.7426 23.0582Z" fill="#000000" filter="url(#blur)" transform="translate(26.343 30.336)"/>
<path d="M15.8284 1.41712C16.756 1.5066 17.7592 2.29328 18.0671 3.173C18.0671 3.173 35.6438 53.3915 35.6438 53.3915C35.7977 53.8315 35.5444 54.1883 35.0783 54.1883C35.0783 54.1883 20.754 54.1883 20.754 54.1883C19.822 54.1883 18.81 53.4764 18.5 52.6C18.494 52.6 0.0947683 1.43543 0.0947683 1.43543C-0.2205 0.55837 0.27653 -0.0811182 1.20427 0.00835349C1.20427 0 15.8284 1.41712 15.8284 1.41712Z" fill="#FFFFFF"/>
</g></svg>