<?xml version="1.0" encoding="utf-8"?>
<svg width="128" height="128" viewBox="0 0 128 128" fill="#FFFFFF" xmlns="http://www.w3.org/2000/svg">
<path id="paper" d="M108 36L108 112C108 116.4 104.4 120 100 120L28 120C23.6 120 20 116.4 20 112L20 16C20 11.6 23.6 8 28 8L80 8Z" fill="#7B3FBE"/>
<path id="corner" d="M0 0L28 28L0 28Z" opacity="0.33" transform="translate(80 8)"/>
<g transform="translate(36 48)">
<rect width="18" height="2" x="38" y="0"/>
<rect width="21" height="2" x="35" y="8"/>
<rect width="24" height="2" x="32" y="16"/>
<rect width="27" height="2" x="29" y="24"/>
<rect width="30" height="2" x="26" y="32"/>
<rect width="56" height="2" y="40"/>
<rect width="56" height="2" y="48"/>
<rect width="56" height="2" y="56"/>
</g><path id="V" d="M12.1532 34C12.1532 34 11.3956 3.032 11.3956 3.032C9.19 3.82866 7.467 5.07533 6.227 6.772C5 8.47 4.388 10.58 4.388 13.103C4.388 13.6783 4.41882 14.1507 4.48 14.52C4.5565 14.874 4.633 15.1617 4.70976 15.383C4.78656 15.59 4.85575 15.752 4.91733 15.87C5 16 5.0315 16.0913 5.0315 16.18C4.22 16.18 3.5 16.1063 2.87276 15.96C2.24452 15.8 1.716 15.5453 1.287 15.206C0.87318 14.8673 0.551445 14.4173 0.321732 13.856C0.107246 13.3 0 12.6027 0 11.776C0 10.7727 0.221756 9.784 0.66526 8.81C1.12468 7.83666 1.745 6.91433 2.52612 6.043C3.3225 5.173 4.25 4.37 5.30652 3.631C6.38 2.893 7.52 2.25833 8.73 1.727C9.954 1.181 11.225 0.760666 12.5424 0.466C13.875 0.155334 15.2 0 16.5174 0C16.87 0 17.1913 0 17.4826 0.022C17.7884 0.0367 18.0942 0.0587158 18.4 0.088C18.4 0.088 18.8141 28 18.8141 28L28.7152 0.22L32 0.22L18.93 34L12.1522 34L12.1532 34Z" transform="translate(36 48)"/>
</svg>