<?xml version="1.0" encoding="utf-8"?>
<svg width="128" height="128" viewBox="0 0 128 128" xmlns="http://www.w3.org/2000/svg">
<g id="sheet" transform="translate(20 8)">
<path id="paper" d="M0 104L0 28L28 0L80 0C84.4 0 88 3.6 88 8L88 84L60 112L8 112C3.6 112 0 108.4 0 104Z" fill="#1DBF58"/>
<path id="corner-down" d="M28 0L0 28L0 0L28 0Z" fill="#000000" opacity="0.4" transform="translate(60 84)"/>
<path id="corner-up" d="M28 0L0 28L28 28L28 0Z" fill="#000000" opacity="0.4" transform="translate(0 0)"/>
</g><g fill="#111111" transform="translate(36 48)">
<rect width="18" height="2" transform="translate(38 0)"/>
<rect width="18" height="2" transform="translate(38 8)"/>
<rect width="18" height="2" transform="translate(38 16)"/>
<rect width="18" height="2" transform="translate(38 24)"/>
<rect width="56" height="2" transform="translate(0 32)"/>
<rect width="38" height="2" transform="translate(0 40)"/>
<rect width="38" height="2" transform="translate(0 48)"/>
<rect width="38" height="2" transform="translate(0 56)"/>
</g><g id="Qt" fill="#111111" transform="translate(36 48)">
<path id="t" d="M7.59871 24.745C5.99933 24.935 4.39506 24.431 3.20329 23.364C2.24514 21.8019 1.8322 19.9742 2.0274 18.1596C2.0274 18.1596 2.0274 9.9778 2.0274 9.9778L0 9.9778L0 5.98668L2.0274 5.98668L2.0274 0L6.08221 0L6.08221 5.98668L10.137 5.98668L10.137 9.9778L6.08221 9.9778C6.08221 9.9778 6.08221 17.7605 6.08221 17.7605C6.01338 18.7289 6.12889 19.7014 6.42281 20.6281C6.64988 21.0891 7.21958 21.3365 8.16638 21.3365C8.16638 21.3365 11.2744 21.2308 11.2744 21.2308C11.2744 21.2308 11.4629 24.3119 11.4629 24.3119C10.188 24.5533 8.89613 24.6981 7.59869 24.745C7.59869 24.745 7.59871 24.745 7.59871 24.745Z" transform="translate(23 0.799)"/>
<path id="Q" d="M19.0454 28.2998L15.3569 30L12.185 24.8295C11.4705 24.9987 10.7359 25.0699 10.0018 25.041C6.27903 25.041 3.70034 24.0433 2.23343 22.0676C0.551143 19.2364 -0.210979 15.9623 0.0502187 12.6885C-0.189183 9.36553 0.58392 6.04786 2.26975 3.1637C4.15766 0.909968 7.061 -0.25942 10.0038 0.0486257C13.6923 0.0486257 16.2326 1.07634 17.7379 3.12977C19.4237 6.01393 20.1968 9.33161 19.9574 12.6546C20.0291 14.9765 19.7211 17.2946 19.0453 19.5193C18.5209 21.1345 17.4773 22.536 16.0732 23.5105L19.0454 28.2998L19.0454 28.2998ZM9.98585 3.46154C8.14892 3.26172 6.35714 4.11331 5.36722 5.65665C4.41176 7.86675 3.99698 10.2686 4.15656 12.6671C3.97796 15.0205 4.39399 17.3809 5.36721 19.5358C6.41064 21.024 8.20299 21.8165 10.0202 21.5932C11.8193 21.8226 13.5984 21.0454 14.6388 19.5757C15.5856 17.4134 15.9912 15.0573 15.8212 12.707C15.9839 10.2967 15.5691 7.88248 14.6105 5.66064C13.6207 4.11369 11.8257 3.26016 9.98585 3.46154L9.98585 3.46154Z" fill-rule="evenodd"/>
</g></svg>