<?xml version="1.0" encoding="utf-8"?>
<svg width="128" height="128" viewBox="0 0 128 128" xmlns="http://www.w3.org/2000/svg">
<path d="M88 28L88 104C88 108.4 84.4 112 80 112L8 112C3.6 112 0 108.4 0 104L0 8C0 3.6 3.6 0 8 0L60 0L60 28Z" fill="#5F5087" transform="translate(20 8)"/>
<path d="M0 0L28 28L0 28Z" fill="#463C64" transform="translate(80 8)"/>
<g fill="#FFFFFF">
<path d="M0 0L11 0L25 22L11 44L0 44L14 22Z" opacity="56%" transform="translate(33 56)"/>
<path d="M0 0L11 0L39 44L28 44L19.5 30.65L11 44L0 44L14 22Z" transform="translate(48 56)"/>
<path d="M0 0L24 0L24 8L5 8Z" transform="translate(70 68)"/>
<path d="M0 0L16 0L16 8L5 8Z" transform="translate(78 80)"/>
</g></svg>
