<?xml version="1.0" encoding="utf-8"?>
<svg width="128" height="128" viewBox="0 0 128 128" xmlns="http://www.w3.org/2000/svg">
<path d="M88 28L88 104C88 108.4 84.4 112 80 112L8 112C3.6 112 0 108.4 0 104L0 8C0 3.6 3.6 0 8 0L60 0Z" fill="#63452C" transform="translate(20 8)"/>
<path d="M28 28L0 28L0 0Z" fill="#986A44" transform="translate(80 8)"/>
<path d="M23.8 2.126C23.87 2.4535 23.7 2.7264 23.16 3C22.45 2.62 20.9 2.4 19.67 2.5C18.3 2.62 17.1575 3 17.32 4C17.54 4.9 18.85 5.46 21.2 5.237C26.93 4.746 26.87 0.87 35.28 0C41.826 -0.5 45.5 1.5257 46 4C46.356 5.9 44.77 7.7474 40 8.13C35.8226 8.5 33.37 7.3654 33.15 6.22C33 5.62 33.37 4.746 35.4 4.527C35.6 5.46 36.75 6.4376 39.5 6.165C41.444 6 43.1 5.3 42.86 4.2C42.645 3 40.57 2.4 37.3 2.672C30.64 3.27 29 6.93 23.3246 7.42C19.286 7.8 16 6.33 15.575 4.145C15.4 3.33 15.4 1.41656 19.67 1C21.85 0.87 23.6 1.253 23.816 2.126C23.8 2.126 23.816 2.126 23.816 2.126ZM2.53 25C0.67535 27.286 -0.14 30 0 32.7C0.1842 35.363 1.5 37.546 3.57 39.24C5.75 40.93 8.1 41.42 10.77 40.93C11.8 40.77 13 40.22 14 39.9C11.8 39.9 9.95335 39.2 8.1 37.7C6.1 36.236 4.714 34.1625 4.4 31.65C3.9 29.3 4.4 27.122 5.7 25.212C7.17 23.356 9 22.32 11.6 22C14.1 21.83 16.3 22.5 18.4673 24C18 23.3 17.27 22.8 16.612 22.1556C14.43 20.7 12.1 20 9.2 20.7C6.57 21.23 4.4 22.6 2.53 24.94C2.53 24.94 2.53 24.94 2.53 24.94ZM31.784 12.33C24.7436 12.332 18.4673 11.6224 13.94 10.64C9.1 9.44 6.515 8.13 6.515 6.4376C6.515 5.73 6.8425 5.13 7.825 4.42C4.77 5.62 3.13 6.6 3.13 8.13C3.3 9.82 6 11.5132 11.6 12.823C16.83 14.133 23.543 14.8424 31.62 14.8424C39.86 14.8424 46.4 14.133 51.65 12.823C57.217 11.5132 59.9 9.77 59.9 8.13C59.9 6.93 58.7 5.8 56.5 4.9C57 5.237 57.4 5.8 57.4 6.4C57.4 8.1 54.87 9.44 49.8 10.6C45.1 11.6224 39.1 12.332 31.8 12.332C31.8 12.332 31.784 12.332 31.8 12.332ZM51.87 17C46.63 18.226 39.916 19 31.84 19C23.6 19 16.9 18.172 11.645 17C7 15.825 4.44 14.515 3.57 13.15C4.44 19 6.46 24.6 9.135 29.5235C11.154 32.6 13.173 35.254 15.2 38.1465C16.1 39.84 16.7 41.53 17 43.2222C18.36 45.1 20.27 46.3 22.615 46.9334C25.5 48 28.5 48.4 31.5657 48.243C31.5657 48.243 31.9 48.243 31.9 48.243C35 48.4 38.17 47.916 41.1165 46.9334C43.3 46.224 45.155 45.1 46.52 43.2222C46.52 43.2222 46.7 43.2222 46.7 43.2222C47 41.53 47.5566 39.84 48.375 38.1465C50.4 35.254 52.414 32.58 54.433 29.5235C57.1 24.666 59 19.1 60 13.15C58.9 14.7 56.4 16 51.87 17C51.87 17 51.87 17 51.87 17Z" fill="#FFFFFF" transform="translate(34 55.919)"/>
</svg>
