<?xml version="1.0" encoding="utf-8"?>
<svg width="128" height="128" viewBox="0 0 128 128" xmlns="http://www.w3.org/2000/svg">
<path id="rhombus" d="M53.508 115.725C55 117.242 56.8553 118 59 118C61.1448 118 62.9755 117.242 64.492 115.725L115.725 64.4921C117.242 62.9755 118 61.145 118 59C118 56.8554 117.242 55 115.725 53.508L64.4918 2.27474C62.9752 0.758146 61.1446 0 59 0C56.8551 0 55 0.758146 53.508 2.27474L2.27456 53.508C0.758 55 0 56.8551 0 59C0 61.1446 0.758 62.9752 2.27456 64.4918L53.508 115.725Z" fill="none" stroke-width="2" stroke="#808080" transform="translate(5 5)"/>
<g id="dart" transform="translate(22 22)">
<path d="M17.132 52.5C17.132 52.5 2.76482 38.1336 2.76482 38.1336C1.0615 36.381 0 33.9123 0 31.5C0 30.3822 0.63 28.6357 1.1 27.63C1.1 27.63 14.3672 0 14.3672 0L17.132 52.5L17.132 52.5Z" fill="#01579B" transform="translate(0 14.367)"/>
<path d="M51.9453 17.132C51.9453 17.132 37.5781 2.76482 37.5781 2.76482C36.3253 1.50584 33.7086 0 31.5 0C29.6 0 27.7346 0.382632 26.525 1.1C26.525 1.1 0 14.3672 0 14.3672L51.9453 17.132L51.9453 17.132Z" fill="#40C4FF" transform="translate(14.373 0)"/>
<path d="M14.9165 23.211L49.736 23.211L49.736 8.3L23.76 0L0 8.3L14.9165 23.211Z" fill="#40C4FF" transform="translate(19.348 60.8)"/>
<path d="M0 44.7617C0 49.193 0.555433 50.2852 2.76482 52.5C2.76482 52.5 4.97421 54.71 4.97421 54.71L54.71 54.71L30.3945 27.08L0 0L0 44.7617C0 44.7617 0 44.7617 0 44.7617Z" fill="#29B6F6" transform="translate(14.373 14.373)"/>
<path d="M44.2125 0L0 0L54.71 54.71L69.6328 54.71L69.6328 20.4461C69.6328 20.4461 51.9515 2.76482 51.9515 2.76482C49.4706 0.271544 47.2612 0 44.2125 0C44.2125 0 44.2125 0 44.2125 0Z" fill="#01579B" transform="translate(14.367 14.367)"/>
</g></svg>