<?xml version="1.0" encoding="utf-8"?>
<svg width="128" height="128" viewBox="0 0 128 128" xmlns="http://www.w3.org/2000/svg">
<path id="paper" d="M108 36L108 112C108 116.4 104.4 120 100 120L28 120C23.6 120 20 116.4 20 112L20 16C20 11.6 23.6 8 28 8L80 8Z" fill="#C62828"/>
<path id="corner" d="M0 0L28 28L0 28Z" fill="#FFFFFF" fill-opacity="0.4" transform="translate(80 8)"/>
<path d="M1.34557 25.3922C1.34557 25.3922 7.39594 14.9766 7.39594 14.9766C7.452 14.8734 7.52676 14.7797 7.61086 14.7047C7.61086 14.7047 18.4688 4.55156 18.4688 4.55156C18.5856 4.44375 18.7258 4.35938 18.8753 4.30312C18.8753 4.30312 28.2008 0.867188 28.2008 0.867188L36.064 6.37969L32.1487 18.8672L17.4596 32.5594L5.48038 35.2547L1.34557 25.3922ZM6.33537 37.5234L11.9232 53.5547L16.5206 35.2266L6.33537 37.5234ZM48.4217 1.05L39.5587 5.99063C39.5587 5.99063 54.2478 16.6922 54.2478 16.6922C54.5562 15.3141 54.9159 13.4344 55 11.8359C54.9953 11.8172 54.9953 11.7938 54.9953 11.7703C55.0421 9.49219 54.6683 7.11094 53.4348 5.05313C52.3276 3.20156 50.6643 1.84687 48.4824 0.993752C48.4637 1.0125 48.4497 1.03594 48.4217 1.05C48.4217 1.05 48.4217 1.05 48.4217 1.05ZM38.7224 40.2937L32.6487 21.6703L20.319 33.1734L38.7224 40.2937ZM34.8586 20.7234C34.8586 20.7234 40.8902 39.2156 40.8902 39.2156C45.6091 34.0641 50.44 27.8953 53.1966 20.3109C53.1966 20.3109 34.8586 20.7234 34.8586 20.7234ZM51.8884 17.9391L38.0963 7.89375L34.8259 18.3234L51.8884 17.9391ZM4.49924 39.525C4.49924 39.525 0.401802 46.5797 0.401802 46.5797C1.80343 53.0906 6.65775 54.5484 9.85814 54.9047C9.85814 54.9047 4.49924 39.525 4.49924 39.525ZM3.44334 36.5813L0 28.3734L0 42.5063L3.44334 36.5813ZM45.3568 0.014061C45.3381 0.00937653 45.3194 0 45.296 0C45.296 0 31.1442 0 31.1442 0L37.4516 4.425C37.4516 4.425 45.3568 0.014061 45.3568 0.014061ZM18.9874 35.2266C18.9874 35.2266 14.0864 54.7594 14.0864 54.7594C24.052 53.2875 31.5274 47.9156 37.5871 42.4266C37.5871 42.4266 18.9874 35.2266 18.9874 35.2266ZM53.8226 54.6C53.8226 54.6 40.2082 43.2703 40.2082 43.2703C35.8631 47.3156 30.7342 52.4272 21.9277 55C21.9277 55 53.8226 54.6 53.8226 54.6ZM41.9368 41.6016L54.8194 53L54.8194 22.1C54.8194 22.0999 54.0563 24.4969 54.0563 24.4969C50.9306 31.2937 46.3379 36.8766 41.9368 41.6016C41.9368 41.6016 41.9368 41.6016 41.9368 41.6016Z" fill="#FFFFFF" opacity="0.5" transform="translate(36 50)"/>
</svg>