<?xml version="1.0" encoding="utf-8"?>
<svg width="128" height="128" viewBox="0 0 128 128" xmlns="http://www.w3.org/2000/svg">
<path d="M88 28L88 104C88 108.4 84.4 112 80 112L8 112C3.6 112 0 108.4 0 104L0 8C0 3.6 3.6 0 8 0L60 0Z" fill="#505050" transform="translate(20 8)"/>
<path d="M28 28L0 28L0 0Z" fill="#808080" transform="translate(80 8)"/>
<path d="M0 0L56 0M0 8L56 8M0 16L56 16M0 24L56 24M0 32L56 32M0 40L56 40M0 48L56 48M0 56L28 56" fill="none" stroke="#C0BFBC" stroke-width="2" transform="translate(36 49)"/>
<g transform="translate(52 36) rotate(45 12 40)">
<rect width="24" height="80" rx="12" fill="#FFA348"/>
<rect width="16" height="32" rx="3" x="4" y="24" fill="#FF7800"/>
<g fill="#C64600">
<circle r="1" cx="6" cy="64"/>
<circle r="1" cx="10" cy="64"/>
<circle r="1" cx="14" cy="64"/>
<circle r="1" cx="18" cy="64"/>
<circle r="1" cx="8" cy="68"/>
<circle r="1" cx="12" cy="68"/>
<circle r="1" cx="16" cy="68"/>
<circle r="1" cx="10" cy="72"/>
<circle r="1" cx="14" cy="72"/>
<circle r="1" cx="6" cy="16"/>
<circle r="1" cx="10" cy="16"/>
<circle r="1" cx="14" cy="16"/>
<circle r="1" cx="18" cy="16"/>
<circle r="1" cx="8" cy="12"/>
<circle r="1" cx="12" cy="12"/>
<circle r="1" cx="16" cy="12"/>
<circle r="1" cx="10" cy="8"/>
<circle r="1" cx="14" cy="8"/>
</g></g>
</svg>
