<?xml version="1.0" encoding="utf-8"?>
<svg width="128" height="128" viewBox="0 0 128 128" xmlns="http://www.w3.org/2000/svg">
<path d="M88 28L88 104C88 108.4 84.4 112 80 112L8 112C3.6 112 0 108.4 0 104L0 8C0 3.6 3.6 0 8 0L60 0Z" fill="#39B6C2" transform="translate(20 8)"/>
<path d="M0 0L28 28L0 28Z" fill="#02303A" opacity="38%" transform="translate(80 8)"/>
<path d="M30.265 5.735c-2-2-5-2-7-0.136-0.13 0.136-0.13 0.265-0.13 0.4s0 0.265 0.13 0.4l0.667 0.667c0.136 0.13 0.4 0.13 0.667 0 0.537-0.4 1-0.537 1.735-0.537 1.6 0 2.93 1.333 2.93 2.94 0 0.8-0.265 1.463-0.8 2-4 4-9.47-7.2-21.6-1.47-0.8 0.4-1.2 1.333-0.8 2.136v0.13l2 3.6c0.4 0.8 1.47 1 2.265 0.667l0.93-0.53c1-0.667 2-1.333 2.94-2.136 0.13-0.13 0.53-0.13 0.667 0 0.265 0.136 0.265 0.4 0.13 0.667l-0.13 0.136c-0.94 0.8-2 1.6-3 2.265l-0.93 0.4c-0.4 0.265-0.8 0.4-1.333 0.4-0.94 0-1.87-0.537-2.27-1.333l-2-3.47c-3.73 2.667-6.13 7.87-4.8 14.4 0 0.265 0.265 0.4 0.53 0.4h2.265c0.27 0 0.4-0.136 0.537-0.4 0.265-1.864 1.864-3 3.735-2.8 1.463 0.136 2.667 1.333 2.8 2.8 0 0.265 0.265 0.4 0.537 0.4h2.13c0.265 0 0.4-0.136 0.537-0.4 0.265-1.864 1.864-3 3.73-2.8 1.47 0.136 2.667 1.333 2.8 2.8 0 0.265 0.265 0.4 0.53 0.4h2.136c0.265 0 0.53-0.265 0.53-0.537 0-3.061 0.94-6.53 3.2-8.265 7.864-6.13 5.735-11.333 3.864-13.197zM22 14.93l-1.6-0.8c0-0.537 0.4-0.94 0.93-0.94s0.93 0.4 0.93 0.94c0.136 0.395 0 0.667-0.265 0.8z" fill="#02303A" transform="translate(32 52) scale(2)"/>
</svg>
