<?xml version="1.0" encoding="utf-8"?>
<svg width="128" height="128" viewBox="0 0 128 128" xmlns="http://www.w3.org/2000/svg">
<path d="M88 28L88 104C88 108.4 84.4 112 80 112L8 112C3.6 112 0 108.4 0 104L0 8C0 3.6 3.6 0 8 0L60 0Z" fill="#524743" transform="translate(20 8)"/>
<path d="M0 0L28 28L0 28Z" fill="#FFFFFF" opacity="36%" transform="translate(80 8)"/>
<path d="M23.8 2.126C23.87 2.4535 23.7 2.7264 23.16 3C22.4514 2.62 20.92 2.4 19.67 2.5C18.3 2.61725 17.1575 3 17.32 4C17.54 4.9 18.85 5.455 21.2 5.23692C26.9266 4.74573 26.872 0.87 35.277 0C41.826 -0.5 45.5 1.5257 46 4C46.356 5.89183 44.7732 7.74744 40 8.12947C35.8226 8.51151 33.3667 7.3654 33.1484 6.22C33 5.62 33.3667 4.74573 35.386 4.52742C35.6043 5.45522 36.7504 6.4376 39.48 6.16472C41.444 6 43.1 5.3 42.863 4.2C42.6447 3 40.5708 2.39894 37.2962 2.67183C30.6378 3.27217 29 6.93 23.3246 7.42C19.286 7.8 16 6.32845 15.5747 4.1454C15.411 3.32674 15.411 1.41656 19.668 1C21.851 0.87 23.5975 1.25284 23.8158 2.12606C23.8 2.12606 23.816 2.12606 23.8158 2.12606ZM2.53096 24.94C0.675354 27.286 -0.1433 30 0 32.6889C0.184162 35.363 1.494 37.5462 3.56791 39.2381C5.75 40.93 8.1 41.4211 10.772 40.93C11.8 40.7662 13 40.22 14 39.9C11.8 39.9 9.95335 39.2 8.1 37.7C6.1 36.2364 4.71401 34.1625 4.4 31.6519C3.9 29.3052 4.38655 27.1221 5.7 25.2119C7.17 23.3563 9 22.3194 11.6 22C14.1 21.8282 16.2842 22.4831 18.4673 24C17.9761 23.3 17.2666 22.8106 16.6117 22.1556C14.4286 20.682 12.1 19.9726 9.18928 20.6821C6.57 21.2278 4.38655 22.5923 2.53095 24.939C2.53095 24.939 2.53096 24.939 2.53096 24.939ZM31.784 12.332C24.7436 12.3319 18.4673 11.6224 13.9374 10.64C9.1 9.43931 6.51504 8.12947 6.51504 6.4376C6.515 5.72811 6.8425 5.12777 7.82487 4.41827C4.76859 5.61896 3.13129 6.60133 3.13129 8.13C3.3 9.82135 6 11.5132 11.6 12.8231C16.83 14.1329 23.5429 14.8424 31.6202 14.8424C39.86 14.8424 46.4 14.133 51.65 12.8231C57.2166 11.5132 59.9 9.76678 59.9 8.12948C59.9 6.93 58.6902 5.7827 56.5 4.9C57 5.237 57.4 5.7827 57.4 6.38303C57.4 8.1 54.87 9.43932 49.7942 10.5854C45.1 11.6224 39.1 12.3319 31.784 12.3319C31.784 12.3319 31.784 12.3319 31.784 12.3319ZM51.87 17C46.6288 18.226 39.9159 19 31.8385 19C23.5975 19 16.8846 18.1716 11.6452 17C6.95166 15.825 4.44114 14.5149 3.56791 13.1505C4.44114 19 6.46047 24.6116 9.13472 29.5235C11.154 32.58 13.1734 35.254 15.1927 38.1465C16.1 39.8384 16.6663 41.5303 17 43.2222C18.3581 45.1 20.27 46.28 22.615 46.9334C25.5077 48 28.5094 48.4069 31.5657 48.2432C31.5657 48.243 31.9 48.2432 31.8931 48.2432C34.9494 48.4 38.1694 47.9157 41.1165 46.9334C43.3 46.224 45.1552 45.1 46.5196 43.2222C46.5196 43.2222 46.6833 43.2222 46.6833 43.2222C47 41.53 47.5566 39.84 48.3752 38.1465C50.3946 35.254 52.4139 32.58 54.4332 29.5235C57.1075 24.6662 59 19.1 60 13.1505C58.9085 14.6787 56.4 16 51.87 17C51.87 17 51.87 17 51.87 17Z" fill="#FFFFFF" transform="translate(34 55.919)"/>
</svg>
