<?xml version="1.0" encoding="utf-8"?>
<svg width="128" height="128" viewBox="0 0 128 128" xmlns="http://www.w3.org/2000/svg">
<g id="sheet" stroke="#707070" stroke-width="2" stroke-linejoin="round" transform="translate(19 7)">
<path id="paper" fill="#F6F5F4" d="M61.5 0L90 28.5L90 105C90 109.97 85.97 114 81 114L9 114C4.02876 114 0 109.97 0 105L0 9C0 4.02876 4.02876 0 9 0L61.5 0Z"/>
<path id="corner" fill="#C8C8C8" d="M0 0L28 28L0 28Z" transform="translate(62 0)"/>
</g><g fill="#5A5A5A" transform="translate(36 48)">
<rect width="18" height="2" x="38"/>
<rect width="18" height="2" x="38" y="8"/>
<rect width="18" height="2" x="38" y="16"/>
<rect width="18" height="2" x="38" y="24"/>
<rect width="18" height="2" x="38" y="32"/>
<rect width="56" height="2" y="40"/>
<rect width="56" height="2" y="48"/>
<rect width="28" height="2" y="56"/>
</g>
<path id="pacman" d="M0 15C0 6.71573 6.71573 0 15 0L15 15L30 15C30 23.2843 23.2843 30 15 30C6.71573 30 0 23.2843 0 15Z" fill="#197DDD" transform="translate(35 51)"/>
<path id="corner" d="M0 0C8.28427 0 15 6.71573 15 15L0 15L0 0Z" fill="#DC3C28" transform="translate(54 47)"/>
</svg>