<?xml version="1.0" encoding="utf-8"?>
<svg width="128" height="128" viewBox="0 0 128 128" xmlns="http://www.w3.org/2000/svg">
<g id="sheet" stroke="#707070" stroke-width="2" stroke-linejoin="round" transform="translate(19 7)">
<path id="paper" fill="#F6F5F4" d="M61.5 0L90 28.5L90 105C90 109.97 85.97 114 81 114L9 114C4.02876 114 0 109.97 0 105L0 9C0 4.02876 4.02876 0 9 0L61.5 0Z"/>
<path id="corner" fill="#C8C8C8" d="M0 0L28 28L0 28Z" transform="translate(62 0)"/>
</g><g fill="#5A5A5A" transform="translate(36 48)">
<rect width="10" height="2" x="46"/>
<rect width="10" height="2" x="46" y="8"/>
<rect width="10" height="2" x="46" y="16"/>
<rect width="10" height="2" x="46" y="24"/>
<rect width="56" height="2" y="32"/>
<rect width="56" height="2" y="40"/>
<rect width="56" height="2" y="48"/>
<rect width="28" height="2" y="56"/>
</g><g id="markdown" fill="#5A5A5A" transform="translate(36 48)">
<path d="M44 0L0 0L0 26L44 26ZM3 23L3 3L41 3L41 23Z" fill-rule="evenodd"/>
<path d="M9 0L5 0L5 7L0 7L7 14L14 7L9 7Z" transform="translate(25 6)"/>
<path d="M0 14L0 0L4 0L9 6L14 0L18 0L18 14L14 14L14 5L9 11L4 5L4 14Z" transform="translate(6 6)"/>
</g></svg>