<?xml version="1.0" encoding="utf-8"?>
<svg width="128" height="128" viewBox="0 0 128 128" xmlns="http://www.w3.org/2000/svg">
<path d="M108 36L108 112C108 116.4 104.4 120 100 120L28 120C23.6 120 20 116.4 20 112L20 16C20 11.6 23.6 8 28 8L80 8Z" fill="#5837B4"/>
<path d="M0 0L28 28L0 28Z" fill="#FFFFFF" transform="translate(80 8)" opacity="36%"/>
<path d="M28.2245 0C10.8723 9.8 0.1 28.153 0 48.1C18.154 58 39.4714 57.652 56 48.2C56 48.148 56 48.1 56 48C56 28.22 45.4 9.9 28.225 0C28.225 0 28.2245 0 28.2245 0ZM37.566 21.2286C40.1387 23 39.757 27.186 39.343 30C38.8155 33.2426 35.7717 38.462 31.817 41.87C32.33 42.6 32.628 43.5 32.6237 44.47C30.1732 45.7 27.7417 44.31 24.8 41.8C21.86 39.2726 18.7 34.227 17.636 29C16.7 29.14 15.7463 28.9314 14.926 28.4142C15.14 25.5 18.2268 23.8 21 22.76C23 22 27.4332 21.6143 31.616 22.2C33 22.4 34.4466 22.7 35.7125 23.16C36.1 22.35 36.7416 21.6636 37.566 21.23C37.566 21.23 37.566 21.2286 37.566 21.2286Z" fill="#E6E6E6" transform="translate(36 48)"/>
</svg>
