<?xml version="1.0" encoding="utf-8"?>
<svg width="128" height="128" viewBox="0 0 128 128" xmlns="http://www.w3.org/2000/svg">
<path d="M88 28L88 104C88 108.4 84.4 112 80 112L8 112C3.6 112 0 108.4 0 104L0 8C0 3.6 3.6 0 8 0L60 0Z" fill="#1A5FB4" transform="translate(20 8)"/>
<path d="M28 28L0 28L0 0Z" fill="#F5C211" transform="translate(80 8)"/>
<path d="M38 0C43.5 0 48 4.5 48 10L48 24C48 28 45 31 41 31L23 31C18 31 14 35 14 40L14 48L10 48C4.5 48 0 43.5 0 38L0 26C0 20.5 4.5 16 10 16L32 16L32 14L16 14L16 10C16 4.5 20.5 0 26 0ZM50 16L54 16C59.5 16 64 20.5 64 26L64 38C64 43.5 59.5 48 54 48L32 48L32 50L48 50L48 54C48 59.5 43.5 64 38 64L26 64C20.5 64 16 59.5 16 54L16 40C16 36 19 33 23 33L41 33C46 33 50 29 50 24ZM24 7C24 5.3 25.3 4 27 4C28.7 4 30 5.3 30 7C30 8.7 28.7 10 27 10C25.3 10 24 8.7 24 7ZM34 57C34 55.3 35.3 54 37 54C38.7 54 40 55.3 40 57C40 58.7 38.7 60 37 60C35.3 60 34 58.7 34 57Z" fill="#F6F5F4" fill-rule="evenodd" transform="translate(32 44)"/>
</svg>
