<?xml version="1.0" encoding="utf-8"?>
<svg width="128" height="128" viewBox="0 0 128 128" xmlns="http://www.w3.org/2000/svg">
<g id="sheet" stroke="#707070" stroke-width="2" stroke-linejoin="round" transform="translate(19 7)">
<path id="paper" fill="#F6F5F4" d="M61.5 0L90 28.5L90 105C90 109.97 85.97 114 81 114L9 114C4.02876 114 0 109.97 0 105L0 9C0 4.02876 4.02876 0 9 0Z"/>
<path id="corner" fill="#C8C8C8" d="M0 0L28 28L0 28Z" transform="translate(62 0)"/>
</g><g id="translation" transform="translate(34 51)">
<path id="A" d="M18.31 23.964L16.1778 17.9264L5.55056 17.9264L3.41833 23.964L0 23.964L9.44271 0L12.455 0L21.8976 23.964L18.31 23.964ZM15.23 15.1771L10.864 3.83838L6.5 15.1771L15.23 15.1771Z" fill="#444444" transform="translate(0 27)"/>
<path id="arrow" d="M18.043 10.1156L19.3334 14.06L28.3274 4.15L15.2551 0C15.2551 0 16 3.64824 16 3.64824C3.12138 10.1467 1.7753 15.837 0 21.5575C0 21.5575 6.96455 22.79 6.96455 22.79C8.60786 15.8425 12.9455 12.296 18.043 10.1156C18.043 10.1156 18.043 10.1156 18.043 10.1156Z" fill="#1EA45A" transform="translate(3.37 0.15)"/>
<path id="arrow" d="M10.2845 12.674L9 8.73046L0 18.64L13.0723 22.79C13.0723 22.79 12.31 19.1413 12.31 19.1413C25.206 12.643 26.5521 6.95248 28.3274 1.23207C28.3274 1.23207 21.363 0 21.366 0C19.72 6.94706 15.382 10.4935 10.2845 12.674C10.2845 12.674 10.2845 12.674 10.2845 12.674Z" fill="#1EA45A" transform="translate(26.771 30.433)"/>
<path id="1" d="M10.6667 0L10.6667 4L0 4L0 6.66667C0 6.66667 4.41211 6.66667 4.41211 6.66667C6 10.7631 7.9482 14.237 10.2445 17.0723C7.57284 19.84 4.48056 21.7 0.962 22.72C0.962 22.72 1.705 25.2806 1.705 25.2806C5.615 24.147 9.05312 22.0564 12 19.05C14.95 22.0564 18.3851 24.147 22.295 25.2806C22.295 25.2806 23.038 22.72 23.038 22.72C19.52 21.7 16.4272 19.84 13.7555 17.0723C16.0518 14.2371 18 10.7631 19.588 6.66667C19.588 6.66667 24 6.66667 24 6.66667L24 4L13.3333 4L13.3333 0L10.6667 0ZM7.28157 6.66666C7.28157 6.66666 16.7184 6.66666 16.7184 6.66666C15.3647 9.9626 13.792 12.7464 12 15.0472C10.208 12.7464 8.63534 9.9626 7.28157 6.66666C7.28157 6.66666 7.28157 6.66666 7.28157 6.66666Z" fill="#444444" transform="translate(34 0)"/>
</g></svg>