<?xml version="1.0" encoding="utf-8"?>
<svg width="128" height="128" viewBox="0 0 128 128" xmlns="http://www.w3.org/2000/svg">
<g id="sheet" transform="translate(20 8)">
<path id="paper" d="M88 28L88 104C88 108.4 84.4 112 80 112L8 112C3.6 112 0 108.4 0 104L0 8C0 3.6 3.6 0 8 0L60 0Z" fill="#953DAC"/>
<path id="corner" d="M0 0L28 28L0 28Z" fill="#66217B" transform="translate(60 0)"/>
</g><g id="C++" fill="#FFFFFF" transform="translate(34 46)">
<path id="#" d="M4 0L4 4L0 4L0 7L4 7L4 11L0 11L0 14L4 14L4 18L7 18L7 14L11 14L11 18L14 18L14 14L18 14L18 11L14 11L14 7L18 7L18 4L14 4L14 0L11 0L11 4L7 4L7 0L4 0L4 0ZM7 11L7 7L11 7L11 11L7 11L7 11Z" transform="translate(47 21)"/>
<path id="C" d="M30 60C13.458 60 0 46.542 0 30C0 13.458 13.458 0 30 0C40.674 0 50.63 5.744 56 15C56 15 43 22.5 43 22.5C40.32 17.8753 35.3382 15 30 15C21.73 15 15 21.73 15 30C15 38.27 21.73 45 30 45C35.34 45 40.32 42.125 43 37.5C43 37.5 56 45 56 45C50.63 54.256 40.675 60 30 60C30 60 30 60 30 60Z"/>
</g></svg>
