<?xml version="1.0" encoding="utf-8"?>
<svg width="128" height="128" viewBox="0 0 128 128" xmlns="http://www.w3.org/2000/svg">
<defs>
<linearGradient id="green" x1="0" y1="0" x2="0" y2="1">
<stop offset="0" stop-color="#B1BD26"/>
<stop offset="1" stop-color="#54860E"/>
</linearGradient>
<linearGradient id="white2" x1="0" y1="0" x2="0" y2="1">
<stop offset="0.2" stop-color="#FFFFFF"/>
<stop offset="0.8" stop-color="#767676"/>
</linearGradient>
<linearGradient id="white3" x1="0" y1="0" x2="0" y2="1">
<stop offset="0.2" stop-color="#FFFFFF"/>
<stop offset="1" stop-color="#999999"/>
</linearGradient>
</defs>
<path d="M88 28L88 104C88 108.4 84.4 112 80 112L8 112C3.6 112 0 108.4 0 104L0 8C0 3.6 3.6 0 8 0L60 0Z" fill="url(#green)" transform="translate(20 8)"/>
<path d="M0 0L28 28L0 28Z" fill="#000000" fill-opacity="0.329" transform="translate(80 8)"/>
<path d="M30 76C30 34 16 2 8 2C2 2 0 6 0 6C0 6 3 0 8 0C22 0 38 30 38 70L38 104L30 104Z" fill="url(#white2)" transform="translate(26 16)"/>
<path d="M10 38C10 8 0 0 0 0C6 0 18 24 18 44L18 54L10 54Z" fill="url(#white3)" transform="translate(42 66)"/>
<path d="M0 34C0 28 2 0 23 0C23 0 6 2 6 28L6 40L0 40Z" fill="url(#white3)" transform="translate(60 80)"/>
<path d="M6 0C6 0 5 34 6 50L0 50C0 30 6 0 6 0Z" fill="url(#white2)" transform="translate(86 70)"/>
<path d="M6 10C6 0 0 0 0 0C0 0 9 -1 9 9L9 14L6 14Z" fill="url(#white3)" transform="translate(80 106)"/>
<path d="M0 18C0 11 6 0 9 0C8 0 3 7 3 21L3 23L0 23Z" fill="url(#white3)" transform="translate(89 97)"/>
</svg>
