<?xml version="1.0" encoding="utf-8"?>
<svg width="128" height="128" viewBox="0 0 128 128" xmlns="http://www.w3.org/2000/svg">
<path d="M88 28L88 104C88 108.4 84.4 112 80 112L8 112C3.6 112 0 108.4 0 104L0 8C0 3.6 3.6 0 8 0L60 0Z" fill="#00ACD6" transform="translate(20 8)"/>
<path d="M28 28L0 28L0 0Z" fill="#007997" transform="translate(80 8)"/>
<g fill="none" stroke="#FFFFFF" stroke-width="8">
<path d="M12 12L24 12C24 18.6 18.6 24 12 24C5.4 24 0 18.6 0 12C0 5.4 5.4 0 12 0C15.4 0 18.5 1.5 20.5 3.5" transform="translate(38 78)"/>
<circle r="12" cx="78" cy="90"/>
</g></svg>
