<?xml version="1.0" encoding="utf-8"?>
<svg width="128" height="128" viewBox="0 0 128 128" xmlns="http://www.w3.org/2000/svg">
<path id="paper" d="M108 36L108 112C108 116.4 104.4 120 100 120L28 120C23.6 120 20 116.4 20 112L20 16C20 11.6 23.6 8 28 8L80 8Z" fill="#2396E1"/>
<path id="corner" d="M0 0L28 28L0 28Z" fill="#000000" opacity="0.33" transform="translate(80 8)"/>
<g id="globe" fill="none" stroke="#FFFFFF" stroke-width="4" transform="translate(36 48)">
<circle r="28" cx="28" cy="28"/>
<ellipse rx="14" ry="28" cx="28" cy="28"/>
<path d="M39.6 0C28.6 10.9 10.9 10.9 0 0" transform="translate(8 7.8)"/>
<path d="M0 8.2C10.9 -2.7 28.6 -2.7 39.6 8.2" transform="translate(8 40)"/>
<line x1="0" y1="28" x2="56" y2="28"/>
<line x1="28" y1="0" x2="28" y2="56"/>
</g></svg>