<?xml version="1.0" encoding="utf-8"?>
<svg width="128" height="128" viewBox="0 0 128 128" xmlns="http://www.w3.org/2000/svg">
<path d="M108 36L108 112C108 116.4 104.4 120 100 120L28 120C23.6 120 20 116.4 20 112L20 16C20 11.6 23.6 8 28 8L80 8Z" fill="#505050"/>
<path d="M0 0L28 28L0 28Z" fill="#808080" transform="translate(80 8)"/>
<path fill="#DBDBDB" transform="translate(32 44)" d="M9.09878 18.1704C8.2624 18.1129 7.49406 18.6315 7.23454 19.4287C7.23454 19.4287 4.59648 27.544 4.59648 27.544C4.36794 28.2476 4.5858 29.0196 5.14845 29.4999C5.71109 29.9802 6.50769 30.0742 7.16668 29.738C7.16668 29.738 12.5428 26.9988 12.5428 26.9988C13.4424 26.5401 13.8 25.4391 13.3416 24.5393C13.3416 24.5393 10.6023 19.1632 10.6023 19.1632C10.3103 18.5912 9.73953 18.2143 9.09878 18.1704C9.09878 18.1704 9.09878 18.1704 9.09878 18.1704ZM8.97742 22.6073C9.1138 22.6195 9.24837 22.6471 9.3786 22.6894C10.3392 23.0011 10.8652 24.0324 10.5536 24.9929C10.4037 25.4543 10.0766 25.8371 9.64439 26.0573C9.21215 26.2774 8.71015 26.3168 8.24887 26.1667C7.2888 25.8545 6.76337 24.8234 7.07508 23.8632C7.33873 23.0521 8.12802 22.5311 8.97742 22.6073C8.97742 22.6073 8.97742 22.6073 8.97742 22.6073ZM19.4351 47.3925C19.3482 47.3938 19.2615 47.4014 19.1756 47.4151C19.1756 47.4151 13.2162 48.3591 13.2162 48.3591C12.4862 48.4752 11.8979 49.0192 11.7252 49.7379C11.5525 50.4566 11.8294 51.2086 12.4269 51.6436C12.4269 51.6436 19.3304 56.66 19.3304 56.66C19.9288 57.0948 20.73 57.1262 21.3605 56.7398C21.9911 56.3533 22.3269 55.6252 22.2113 54.8947C22.2113 54.8947 21.2673 48.9353 21.2673 48.9353C21.1252 48.037 20.3445 47.3796 19.4352 47.3925C19.4352 47.3925 19.4351 47.3925 19.4351 47.3925ZM17.5891 49.8603C18 49.8417 18.41 49.9638 18.745 50.2067C19.1375 50.4918 19.4007 50.9211 19.4766 51.4C19.5526 51.8794 19.435 52.369 19.1497 52.7614C18.5563 53.5782 17.4132 53.7593 16.5962 53.1662C16.2037 52.8812 15.9405 52.4518 15.8645 51.9727C15.7886 51.4936 15.9062 51.0039 16.1915 50.6115C16.5188 50.1615 17.0332 49.885 17.5891 49.8603C17.5891 49.8603 17.5891 49.8603 17.5891 49.8603ZM44.566 47.3925C43.6571 47.3803 42.8771 48.0375 42.7351 48.9354C42.7351 48.9354 41.7911 54.8948 41.7911 54.8948C41.6759 55.6248 42.0116 56.3524 42.6416 56.7387C43.2717 57.1249 44.0724 57.094 44.6708 56.66C44.6708 56.66 51.5742 51.6437 51.5742 51.6437C52.1717 51.2088 52.4488 50.457 52.2763 49.7384C52.1039 49.0198 51.5159 48.4756 50.7861 48.3592C50.7861 48.3592 44.8267 47.4152 44.8267 47.4152C44.7405 47.4014 44.6533 47.3938 44.566 47.3925C44.566 47.3925 44.566 47.3925 44.566 47.3925ZM46.4136 49.8603C46.9695 49.885 47.4839 50.1615 47.8112 50.6115C48.0964 51.0039 48.214 51.4936 48.1381 51.9727C48.0621 52.4518 47.799 52.8812 47.4064 53.1662C46.5894 53.7594 45.4464 53.5782 44.8529 52.7614C44.5675 52.3692 44.4498 51.8796 44.5254 51.4005C44.6011 50.9214 44.8641 50.4919 45.2565 50.2067C45.5918 49.9635 45.9998 49.8414 46.4136 49.8603C46.4136 49.86 46.4136 49.8603 46.4136 49.8603ZM54.9039 18.1704C54.2631 18.2144 53.6924 18.5913 53.4003 19.1633C53.4003 19.1633 50.6611 24.5394 50.6611 24.5394C50.2026 25.4391 50.5602 26.5402 51.46 26.9988C51.46 26.9988 56.836 29.7381 56.836 29.7381C57.4949 30.0734 58.2909 29.979 58.8531 29.4989C59.4153 29.0188 59.6331 28.2473 59.405 27.5441C59.405 27.5441 56.7681 19.4287 56.7681 19.4287C56.5394 18.7258 55.91 18.2297 55.1729 18.1716C55.0834 18.1646 54.9935 18.1642 54.9039 18.1705C54.9039 18.1705 54.9039 18.1704 54.904 18.1704ZM55.0242 22.6073C55.874 22.5305 56.664 23.0517 56.9277 23.8632C57.2394 24.8234 56.714 25.8545 55.7539 26.1667C55.2927 26.3168 54.7906 26.2774 54.3584 26.0573C53.9262 25.8371 53.6 25.4543 53.4492 25C53.1375 24.0327 53.6629 23.0016 54.623 22.6894C54.7532 22.6471 54.8878 22.6195 55.0242 22.6073C55.0242 22.6073 55.0242 22.6073 55.0242 22.6073ZM27.7339 4.53381C26.9945 4.53409 26.328 4.97961 26.0451 5.66273C25.7621 6.34586 25.9184 7.13215 26.441 7.65517C26.441 7.65517 30.7076 11.9218 30.7076 11.9218C31.4217 12.6356 32.5792 12.6356 33.2933 11.9218C33.2933 11.9218 37.56 7.65517 37.56 7.65517C38.0825 7.13215 38.2388 6.34586 37.9559 5.66273C37.6729 4.97961 37.0065 4.53409 36.2671 4.5338C36.2671 4.5338 27.7339 4.53381 27.7339 4.53381ZM32 5.75282C33.0103 5.75282 33.8289 6.57149 33.8289 7.58136C33.8289 8.59123 33.0103 9.41 32 9.41C31 9.41 30.1719 8.59123 30.1719 7.58136C30.1715 6.57212 30.9899 5.75317 32 5.75282C32 5.75282 32 5.75282 32 5.75282ZM32 3.04823C16.0429 3.04823 3.04818 16.043 3.04818 32C3.04818 47.9571 16.0429 60.9519 32 60.9519C47.9571 60.9519 60.9518 47.9571 60.9518 32C60.9518 16.043 47.9571 3.04823 32 3.04823C32 3.04823 32 3.04823 32 3.04823ZM32 5.74337C33.0097 5.74337 33.8283 6.56204 33.8283 7.57191C33.818 7.93409 33.7004 8.28505 33.4902 8.58023C42.7423 9.15577 50.5147 15.0551 53.7946 23.2633C54.01 22.9949 54.2968 22.7927 54.622 22.68C55.0833 22.5299 55.5853 22.5693 56.0175 22.7894C56.4498 23.0096 56.7768 23.3924 56.9267 23.8538C57.0768 24.315 57.0374 24.817 56.8173 25.2493C56.5971 25.6815 56.2143 26.0086 55.7529 26.1585C55.4237 26.2583 55.073 26.2632 54.741 26.1727C55.2141 28.0348 55.466 29.9874 55.466 32C55.466 39.2451 52.209 45.7076 47.0745 50.0068C47.3677 50.1372 47.6215 50.3425 47.8102 50.602C48.0954 50.9944 48.213 51.4841 48.1371 51.9632C48.0612 52.4423 47.798 52.8717 47.4055 53.1567C46.5885 53.7498 45.4454 53.5687 44.8519 52.752C44.6641 52.493 44.5475 52.1892 44.5139 51.871C40.8954 54.1493 36.6058 55.4662 32 55.4662C27.3913 55.4662 23.1 54.148 19.4798 51.8675C19.4488 52.1862 19.3347 52.4912 19.1489 52.752C18.5554 53.5687 17.4123 53.7499 16.5953 53.1567C16.2028 52.8717 15.9396 52.4424 15.8637 51.9632C15.7878 51.4841 15.9053 50.9944 16.1906 50.602C16.3793 50.3425 16.6331 50.1372 16.9263 50.0068C11.7914 45.7075 8.53357 39.2454 8.53357 31.9999C8.53357 29.9937 8.7848 28.0486 9.25499 26.1917C8.92278 26.2752 8.57382 26.2636 8.24786 26.1584C7.78654 26.0085 7.40367 25.6814 7.18353 25.2492C6.96339 24.8169 6.92402 24.3149 7.07408 23.8537C7.38623 22.8936 8.41739 22.3681 9.3776 22.6799C9.70584 22.7864 9.99722 22.9837 10.2181 23.2489C13.5019 15.0493 21.2653 9.15548 30.5105 8.58014C30.3 8.28509 30.1819 7.93413 30.1713 7.57183C30.1713 6.56193 30.9899 5.74326 32 5.74327C32 5.74327 32 5.74337 32 5.74337ZM58.5455 24.0447C58.296 24.2596 58.1813 24.5921 58.2453 24.9152C58.2453 24.9152 58.9588 28.502 58.9588 28.502C59.0229 28.8251 59.2559 29.0887 59.5687 29.1921C59.8815 29.2954 60.2257 29.2226 60.4697 29.0013C60.4697 29.0013 63.102 26.6134 63.102 26.6134C63.3403 26.3976 63.4478 26.0725 63.3851 25.7572C63.3224 25.4419 63.0987 25.1827 62.7959 25.0745C62.7959 25.0745 59.4502 23.8756 59.4502 23.8756C59.1402 23.7651 58.7947 23.8296 58.5455 24.0447C58.5455 24.0447 58.5455 24.0447 58.5455 24.0447ZM60.3542 26.1428L60.7448 26.2824L60.4373 26.5609L60.3542 26.1428ZM59.8554 28.3236L62.4877 25.9357L59.1419 24.7368L59.8554 28.3236ZM56.4835 19.0187C56.2806 19.2782 56.233 19.6267 56.3588 19.9311C56.3588 19.9311 57.7583 23.3098 57.7583 23.3098C57.8843 23.6141 58.1643 23.8272 58.4912 23.8676C58.8181 23.9079 59.1415 23.7693 59.3377 23.5047C59.3377 23.5047 61.4535 20.6491 61.4535 20.6491C61.6451 20.391 61.6871 20.0512 61.5641 19.7542C61.4411 19.4572 61.1711 19.2466 60.8531 19.1996C60.8531 19.1996 57.3378 18.6765 57.3378 18.6765C57.0121 18.6285 56.6859 18.7592 56.4835 19.0187C56.4835 19.0187 56.4835 19.0187 56.4835 19.0187ZM58.6667 20.7238L59.0771 20.7844L58.8298 21.1175L58.6667 20.7238ZM58.6031 22.96L60.7189 20.1043L57.2036 19.5812L58.6031 22.96ZM53.4808 14.4916C53.3325 14.7857 53.3538 15.1368 53.5365 15.4108C53.5365 15.4108 55.5683 18.4515 55.5683 18.4515C55.7512 18.7254 56.0674 18.8798 56.3959 18.8556C56.7244 18.8314 57.0145 18.6324 57.1553 18.3346C57.1553 18.3346 58.6734 15.1211 58.6734 15.1211C58.811 14.8305 58.7859 14.4891 58.6073 14.2217C58.4287 13.9544 58.1228 13.8006 57.8017 13.8165C57.8017 13.8165 54.2519 13.9893 54.2519 13.9893C53.9232 14.0057 53.6287 14.1976 53.4808 14.4916C53.4808 14.4916 53.4808 14.4916 53.4808 14.4916ZM55.954 15.7381L56.3683 15.7175L56.1908 16.0924L55.954 15.7381ZM56.3282 17.9436L57.8463 14.7301L54.2964 14.9029L56.3282 17.9436ZM49.6523 10.6374C49.5642 10.9547 49.6536 11.2949 49.8863 11.528C49.8863 11.528 52.4722 14.1139 52.4722 14.1139C52.7051 14.3469 53.0452 14.4367 53.3627 14.3488C53.6802 14.261 53.9259 14.0092 54.0059 13.6897C54.0059 13.6897 54.8679 10.2418 54.8679 10.2418C54.9462 9.92994 54.8549 9.6 54.6276 9.37259C54.4003 9.14526 54.0703 9.05402 53.7584 9.13229C53.7584 9.13229 50.3105 9.99427 50.3105 9.99427C49.9913 10.0746 49.7399 10.3202 49.6523 10.6374C49.6523 10.6374 49.6523 10.6374 49.6523 10.6374ZM52.3212 11.3773L52.7235 11.2763L52.6225 11.6787L52.3212 11.3773ZM53.1185 13.4675L53.9805 10.0195L50.5325 10.8815L53.1185 13.4675ZM45.1453 7.60412C45.1208 7.93255 45.2749 8.24878 45.5486 8.43195C45.5486 8.43195 48.5893 10.4637 48.5893 10.4637C48.8632 10.6468 49.2143 10.6684 49.5086 10.5204C49.8028 10.3723 49.9947 10.0774 50 9.7484C50 9.7484 50.1836 6.19856 50.1836 6.19856C50.1995 5.87746 50.0456 5.57159 49.7783 5.39297C49.511 5.21437 49.1695 5.18926 48.879 5.32687C48.879 5.32687 45.6655 6.84494 45.6655 6.84494C45.3681 6.98595 45.1694 7.27589 45.1453 7.60412C45.1453 7.60412 45.1453 7.60412 45.1453 7.60412ZM47.9075 7.80909L48.2825 7.63151L48.2619 8.04585L47.9075 7.80909ZM49.1 9.70354L49.2699 6.1537L46.0564 7.67178L49.1 9.70354ZM40.1332 5.50838C40.1733 5.83528 40.3861 6.11537 40.6902 6.24163C40.6902 6.24163 44.0689 7.64114 44.0689 7.64114C44.3732 7.76728 44.7218 7.72001 44.9816 7.51738C45.2413 7.31475 45.3719 6.98809 45.3236 6.66225C45.3236 6.66225 44.8005 3.14691 44.8005 3.14691C44.7534 2.82888 44.5428 2.5589 44.2458 2.43587C43.9488 2.31284 43.609 2.35484 43.3509 2.54649C43.3509 2.54649 40.4953 4.66232 40.4953 4.66232C40.2311 4.85863 40.0928 5.18176 40.1332 5.50839C40.1332 5.50839 40.1332 5.50838 40.1332 5.50838ZM42.8824 5.17048L43.2155 4.92318L43.2761 5.33358L42.8824 5.17048ZM44.4191 6.79648L43.896 3.28114L41.0404 5.39697L44.4191 6.79648ZM34.8088 4.43068C34.9119 4.74348 35.1752 4.97667 35.4982 5.04117C35.4982 5.04117 39.085 5.75464 39.085 5.75464C39.4081 5.819 39.7408 5.70462 39.956 5.45521C40.1712 5.20581 40.2356 4.86 40.1246 4.54979C40.1246 4.54979 38.9257 1.20406 38.9257 1.20406C38.8176 0.901302 38.5583 0.677589 38.243 0.614868C37.9277 0.552147 37.6026 0.65963 37.3868 0.897949C37.3868 0.897949 34.9989 3.53023 34.9989 3.53023C34.7781 3.7743 34.7055 4.1182 34.8088 4.43068C34.8088 4.43068 34.8088 4.43068 34.8088 4.43068ZM37.4392 3.56296L37.7177 3.25542L37.8572 3.6461L37.4392 3.56296ZM39.2635 4.85794L38.0646 1.51221L35.6767 4.14449L39.2635 4.85794ZM29.3762 4.41248C29.5383 4.69916 29.8421 4.87651 30.1714 4.87676C30.1714 4.87676 33.8285 4.87676 33.8285 4.87676C34.1579 4.87686 34.4619 4.69976 34.6243 4.41317C34.7867 4.12657 34.7824 3.77478 34.613 3.49225C34.613 3.49225 32.7845 0.444687 32.7845 0.444687C32.6193 0.168842 32.3215 0 32 0C31.6785 0 31.3806 0.168842 31.2155 0.444687C31.2155 0.444687 29.3869 3.49225 29.3869 3.49225C29.2181 3.77474 29.214 4.12619 29.3764 4.41248C29.3764 4.41248 29.3762 4.41248 29.3762 4.41248ZM31.7869 3.04824L32 2.69228L32.2131 3.04824L31.7869 3.04824ZM33.8285 3.96249L32 0.914932L30.1714 3.96249L33.8285 3.96249ZM24.0447 5.4544C24.2596 5.70395 24.5921 5.81863 24.9152 5.75463C24.9152 5.75463 28.502 5.04116 28.502 5.04116C28.8251 4.977 29.0887 4.744 29.192 4.43124C29.2954 4.11847 29.2225 3.77428 29.0013 3.53023C29.0013 3.53023 26.6134 0.897949 26.6134 0.897949C26.3976 0.659626 26.0725 0.552147 25.7572 0.614868C25.4419 0.677589 25.1827 0.901299 25.0745 1.20405C25.0745 1.20405 23.8756 4.54978 23.8756 4.54978C23.7651 4.85976 23.8296 5.20526 24.0447 5.45441C24.0447 5.45441 24.0447 5.4544 24.0447 5.4544ZM26.1428 3.6461L26.2824 3.25542L26.5608 3.56296L26.1428 3.6461ZM28.3234 4.14449L25.9354 1.51221L24.7365 4.85794L28.3234 4.14449ZM19.0187 7.51651C19.2782 7.71933 19.6267 7.76694 19.9311 7.64114C19.9311 7.64114 23.3098 6.24164 23.3098 6.24164C23.6141 6.11567 23.8272 5.83572 23.8676 5.5088C23.9079 5.18187 23.7693 4.85851 23.5047 4.6623C23.5047 4.6623 20.6491 2.54648 20.6491 2.54648C20.391 2.35484 20.0512 2.31284 19.7542 2.43587C19.4571 2.5589 19.2466 2.82888 19.1995 3.14691C19.1995 3.14691 18.6764 6.66225 18.6764 6.66225C18.6285 6.98785 18.7592 7.31411 19.0187 7.51651C19.0187 7.51651 19.0187 7.51651 19.0187 7.51651ZM20.724 5.33358L20.7846 4.92318L21.1177 5.17048L20.724 5.33358ZM22.96 5.39692L20.1043 3.28109L19.5812 6.79642L22.96 5.39692ZM14.4918 10.5195C14.7859 10.6678 15.137 10.6465 15.4109 10.4637C15.4109 10.4637 18.4517 8.43195 18.4517 8.43195C18.7256 8.24902 18.88 7.93288 18.8558 7.60437C18.8316 7.27586 18.6326 6.98574 18.3348 6.84493C18.3348 6.84493 15.1213 5.32687 15.1213 5.32687C14.8307 5.18926 14.4892 5.21437 14.2219 5.39297C13.9546 5.57159 13.8007 5.87746 13.8167 6.19856C13.8167 6.19856 13.9894 9.7484 13.9894 9.7484C14.0059 10.0771 14.1978 10.3716 14.4918 10.5195C14.4918 10.5195 14.4918 10.5195 14.4918 10.5195ZM15.738 8.04585L15.7174 7.63151L16.0924 7.80907L15.738 8.04585ZM17.9435 7.67178L14.73 6.1537L14.9028 9.70354L17.9435 7.67178ZM10.6372 14.348C10.9546 14.436 11.2948 14.3466 11.5278 14.1139C11.5278 14.1139 14.1138 11.528 14.1138 11.528C14.3468 11.2951 14.4365 10.955 14.3487 10.6375C14.2609 10.32 14.0091 10.0743 13.6895 9.99428C13.6895 9.99428 10.2416 9.1323 10.2416 9.1323C9.92978 9.05402 9.6 9.14526 9.37243 9.37259C9.1451 9.6 9.05386 9.92994 9.13214 10.2418C9.13214 10.2418 9.99412 13.6897 9.99412 13.6897C10.0744 14.0089 10.32 14.2603 10.6372 14.348C10.6372 14.348 10.6372 14.348 10.6372 14.348ZM11.3775 11.6787L11.2765 11.2763L11.6788 11.3773L11.3775 11.6787ZM13.4675 10.8815L10.0195 10.0195L10.8815 13.4674L13.4675 10.8815ZM7.60396 18.8547C7.93239 18.8792 8.24861 18.7252 8.43179 18.4515C8.43179 18.4515 10.4636 15.4107 10.4636 15.4107C10.6466 15.1369 10.6683 14.7858 10.5202 14.4915C10.3721 14.1973 10.0772 14.0054 9.74823 13.9893C9.74823 13.9893 6.19839 13.8165 6.19839 13.8165C5.8773 13.8006 5.57143 13.9544 5.39282 14.2218C5.2142 14.4891 5.1891 14.8305 5.3267 15.1211C5.3267 15.1211 6.84477 18.3346 6.84477 18.3346C6.98578 18.632 7.27573 18.8306 7.60396 18.8548C7.60396 18.8548 7.60396 18.8547 7.60396 18.8547ZM7.80909 16.0924L7.63151 15.7175L8.04586 15.7381L7.80909 16.0924ZM9.70348 14.9028L6.15364 14.73L7.67172 17.9435L9.70348 14.9028ZM5.50844 23.8668C5.83533 23.8267 6.11544 23.6139 6.2417 23.3097C6.2417 23.3097 7.6412 19.931 7.6412 19.931C7.76735 19.6267 7.72008 19.2781 7.51744 19.0184C7.31481 18.7587 6.98814 18.6281 6.66231 18.6764C6.66231 18.6764 3.14698 19.1995 3.14698 19.1995C2.82894 19.2465 2.55896 19.4571 2.43593 19.7541C2.3129 20.0512 2.3549 20.391 2.54654 20.6491C2.54654 20.6491 4.66238 23.5047 4.66238 23.5047C4.85868 23.7689 5.18181 23.9071 5.50844 23.8668C5.50844 23.8668 5.50844 23.8668 5.50844 23.8668ZM5.17048 21.1175L4.92318 20.7844L5.33357 20.7238L5.17048 21.1175ZM6.79658 19.5812L3.28125 20.1043L5.39708 22.96L6.79658 19.5812ZM4.4306 29.1913C4.7434 29.0882 4.9766 28.8249 5.0411 28.502C5.0411 28.502 5.75456 24.9151 5.75456 24.9151C5.81892 24.5921 5.70454 24.2594 5.45514 24.0442C5.20573 23.829 4.85986 23.7646 4.54972 23.8756C4.54972 23.8756 1.20399 25.0744 1.20399 25.0744C0.901234 25.1826 0.677528 25.4418 0.614807 25.7571C0.55209 26.0724 0.659576 26.3975 0.897896 26.6133C0.897896 26.6133 3.53016 29.0013 3.53016 29.0013C3.77424 29.222 4.11814 29.2946 4.43062 29.1913C4.43062 29.1913 4.4306 29.1913 4.4306 29.1913ZM3.56274 26.5608L3.25521 26.2823L3.64588 26.1428L3.56274 26.5608ZM4.85789 24.7368L1.51215 25.9356L4.14443 28.3236L4.85789 24.7368ZM4.41242 34.6238C4.6991 34.4616 4.87645 34.1579 4.8767 33.8285C4.8767 33.8285 4.8767 30.1715 4.8767 30.1715C4.87682 29.8421 4.69974 29.5381 4.41315 29.3757C4.12657 29.2133 3.77478 29.2176 3.49225 29.3869C3.49225 29.3869 0.444683 31.2155 0.444683 31.2155C0.168842 31.3806 0 31.6785 0 32C0 32.3215 0.168842 32.6193 0.444683 32.7845C0.444683 32.7845 3.49225 34.613 3.49225 34.613C3.77473 34.7819 4.12617 34.7859 4.41246 34.6236C4.41246 34.6236 4.41242 34.6238 4.41242 34.6238ZM3.04821 32.2131L2.69228 32L3.04821 31.7869L3.04821 32.2131ZM3.96249 30.1715L0.914932 32L3.96249 33.8286L3.96249 30.1715ZM5.45436 39.9555C5.70391 39.7405 5.81859 39.408 5.75458 39.085C5.75458 39.085 5.04112 35.4982 5.04112 35.4982C4.97696 35.1751 4.74396 34.9114 4.43119 34.8081C4.11842 34.7047 3.77423 34.7776 3.53017 35C3.53017 35 0.897896 37.3868 0.897896 37.3868C0.659576 37.6025 0.552094 37.9276 0.614811 38.243C0.677532 38.5583 0.901241 38.8175 1.204 38.9256C1.204 38.9256 4.54973 40.1245 4.54973 40.1245C4.85971 40.2351 5.20521 40.1705 5.45436 39.9555C5.45436 39.9555 5.45436 39.9555 5.45436 39.9555ZM3.64589 37.8572L3.25521 37.7177L3.56274 37.4392L3.64589 37.8572ZM4.14443 35.6765L1.51215 38.0644L4.85788 39.2633L4.14443 35.6765ZM7.51656 44.9814C7.71939 44.7219 7.76699 44.3734 7.64119 44.069C7.64119 44.069 6.24169 40.6903 6.24169 40.6903C6.11573 40.3859 5.83578 40.1729 5.50885 40.1325C5.18193 40.0921 4.85856 40.2308 4.66236 40.4954C4.66236 40.4954 2.54653 43.351 2.54653 43.351C2.35489 43.6091 2.3129 43.9489 2.43592 44.2459C2.55896 44.5429 2.82893 44.7535 3.14697 44.8005C3.14697 44.8005 6.6623 45.3236 6.6623 45.3236C6.9879 45.3716 7.31416 45.2409 7.51657 44.9814C7.51657 44.9814 7.51656 44.9814 7.51656 44.9814ZM5.33357 43.2763L4.92318 43.2156L5.17048 42.8825L5.33357 43.2763ZM5.39708 41.0402L3.28125 43.8958L6.79658 44.4189L5.39708 41.0402ZM10.5193 49.5085C10.6676 49.2144 10.6463 48.8633 10.4636 48.5893C10.4636 48.5893 8.43179 45.5486 8.43179 45.5486C8.24887 45.2746 7.93273 45.1203 7.60421 45.1445C7.2757 45.1686 6.98559 45.3677 6.84478 45.6655C6.84478 45.6655 5.32671 48.879 5.32671 48.879C5.1891 49.1695 5.2142 49.511 5.39282 49.7783C5.57143 50.0456 5.87731 50.1995 6.1984 50.1836C6.1984 50.1836 9.74825 50 9.74825 50C10.077 49.9943 10.3714 49.8025 10.5193 49.5085C10.5193 49.5085 10.5193 49.5085 10.5193 49.5085ZM8.04586 48.262L7.63151 48.2826L7.80907 47.9077L8.04586 48.262ZM7.67172 46.0565L6.15364 49.27L9.70348 49.0973L7.67172 46.0565ZM14.3478 53.3627C14.4359 53.0454 14.3465 52.7052 14.1138 52.4721C14.1138 52.4721 11.5278 49.8862 11.5278 49.8862C11.295 49.6532 10.9548 49.5635 10.6373 49.6513C10.3198 49.7391 10.0741 49.9909 9.99412 50.3104C9.99412 50.3104 9.13214 53.7584 9.13214 53.7584C9.05386 54.0702 9.1451 54.4 9.37243 54.6275C9.6 54.8549 9.92978 54.9461 10.2416 54.8678C10.2416 54.8678 13.6895 54.0059 13.6895 54.0059C14.0087 53.9256 14.26 53.68 14.3478 53.3627C14.3478 53.3627 14.3478 53.3627 14.3478 53.3627ZM11.6788 52.6227L11.2765 52.7238L11.3775 52.3214L11.6788 52.6227ZM10.8815 50.5327L10.0195 53.9806L13.4675 53.1186L10.8815 50.5327ZM18.8549 56.396C18.8794 56.0675 18.7254 55.7513 18.4517 55.5681C18.4517 55.5681 15.4109 53.5364 15.4109 53.5364C15.1371 53.3533 14.7859 53.3316 14.4917 53.4797C14.1974 53.6278 14.0056 53.9227 13.9894 54.2517C13.9894 54.2517 13.8167 57.8015 13.8167 57.8015C13.8007 58.1226 13.9546 58.4285 14.2219 58.6071C14.4892 58.7857 14.8307 58.8108 15.1213 58.6732C15.1213 58.6732 18.3348 57.1551 18.3348 57.1551C18.6321 57.0141 18.8308 56.7242 18.8549 56.396C18.8549 56.396 18.8549 56.396 18.8549 56.396ZM16.0924 56.191L15.7174 56.3686L15.738 55.9542L16.0924 56.191ZM14.9028 54.2965L14.73 57.8464L17.9435 56.3283L14.9028 54.2965ZM23.8669 58.4917C23.8269 58.1649 23.6141 57.8848 23.31 57.7585C23.31 57.7585 19.9312 56.359 19.9312 56.359C19.6269 56.2328 19.2783 56.2801 19.0186 56.4828C18.7589 56.6854 18.6282 57.012 18.6766 57.3379C18.6766 57.3379 19.1997 60.8532 19.1997 60.8532C19.2467 61.1713 19.4573 61.4412 19.7543 61.5643C20.0513 61.6873 20.3911 61.6453 20.6493 61.4537C20.6493 61.4537 23.5049 59.3378 23.5049 59.3378C23.769 59.1415 23.9073 58.8184 23.8669 58.4918C23.8669 58.4918 23.8669 58.4917 23.8669 58.4917ZM21.1177 58.8296L20.7846 59.0769L20.724 58.6665L21.1177 58.8296ZM19.5812 57.2037L20.1043 60.719L22.96 58.6032L19.5812 57.2037ZM29.1912 59.5694C29.0882 59.2566 28.8248 59.0234 28.5019 58.9589C28.5019 58.9589 24.9151 58.2455 24.9151 58.2455C24.592 58.1811 24.2593 58.2955 24.0441 58.5449C23.8289 58.7943 23.7645 59.1402 23.8755 59.4503C23.8755 59.4503 25.0744 62.796 25.0744 62.796C25.1825 63.0988 25.4417 63.3225 25.7571 63.3852C26.0724 63.4479 26.3975 63.3405 26.6133 63.1021C26.6133 63.1021 29.0012 60.4699 29.0012 60.4699C29.222 60.2258 29.2946 59.8819 29.1912 59.5694C29.1912 59.5694 29.1912 59.5694 29.1912 59.5694ZM26.5608 60.4372L26.2824 60.7447L26.1428 60.354L26.5608 60.4372ZM24.7365 59.1421L25.9354 62.4879L28.3234 59.8556L24.7365 59.1421ZM34.6239 59.5876C34.4618 59.301 34.158 59.1236 33.8286 59.1234C33.8286 59.1234 30.1716 59.1234 30.1716 59.1234C29.8422 59.1233 29.5382 59.3004 29.3758 59.5869C29.2134 59.8735 29.2177 60.2253 29.3871 60.5079C29.3871 60.5079 31.2156 63.5554 31.2156 63.5554C31.3807 63.8313 31.6786 64 32 64C32.3216 64 32.6195 63.8313 32.7846 63.5554C32.7846 63.5554 34.6132 60.5079 34.6132 60.5079C34.782 60.2254 34.7861 59.8739 34.6237 59.5876C34.6237 59.5876 34.6239 59.5876 34.6239 59.5876ZM32.2131 60.9519L32 61.3079L31.7869 60.9519L32.2131 60.9519ZM30.1714 60.0376L32 63.0852L33.8285 60.0376L30.1714 60.0376ZM39.9553 58.5457C39.7404 58.2961 39.4079 58.1814 39.0848 58.2454C39.0848 58.2454 35.498 58.9589 35.498 58.9589C35.1749 59.0231 34.9113 59.256 34.8079 59.5688C34.7046 59.8816 34.7774 60.2258 34.9986 60.4698C34.9986 60.4698 37.3866 63.1021 37.3866 63.1021C37.6024 63.3404 37.9275 63.4479 38.2428 63.3852C38.5581 63.3225 38.8173 63.0988 38.9255 62.796C38.9255 62.796 40.1243 59.4503 40.1243 59.4503C40.2349 59.1403 40.1703 58.7948 39.9553 58.5457C39.9553 58.5457 39.9553 58.5457 39.9553 58.5457ZM37.8572 60.354L37.7177 60.7447L37.4392 60.4371L37.8572 60.354ZM35.6767 59.8556L38.0646 62.4879L39.2635 59.1421L35.6767 59.8556ZM44.9812 56.4836C44.7217 56.2807 44.3732 56.2331 44.0688 56.3589C44.0688 56.3589 40.6901 57.7585 40.6901 57.7585C40.3858 57.8844 40.1727 58.1644 40.1323 58.4913C40.092 58.8182 40.2306 59.1416 40.4952 59.3378C40.4952 59.3378 43.3508 61.4536 43.3508 61.4536C43.6089 61.6452 43.9487 61.6872 44.2457 61.5642C44.5428 61.4412 44.7534 61.1712 44.8004 60.8532C44.8004 60.8532 45.3235 57.3378 45.3235 57.3378C45.3714 57.0122 45.2407 56.686 44.9812 56.4836C44.9812 56.4836 44.9812 56.4836 44.9812 56.4836ZM43.2761 58.6665L43.2155 59.0769L42.8824 58.8296L43.2761 58.6665ZM41.0404 58.6032L43.896 60.719L44.4191 57.2037L41.0404 58.6032ZM49.5084 53.4806C49.2143 53.3323 48.8632 53.3537 48.5893 53.5364C48.5893 53.5364 45.5485 55.5682 45.5485 55.5682C45.2746 55.7511 45.1202 56.0672 45.1444 56.3958C45.1686 56.7243 45.3676 57.0144 45.6654 57.1552C45.6654 57.1552 48.8789 58.6733 48.8789 58.6733C49.1695 58.8109 49.511 58.7858 49.7783 58.6072C50.0456 58.4285 50.1995 58.1227 50.1835 57.8016C50.1835 57.8016 50 54.2517 50 54.2517C49.9943 53.923 49.8024 53.6285 49.5084 53.4807C49.5084 53.4807 49.5084 53.4806 49.5084 53.4806ZM48.2619 55.9543L48.2825 56.3686L47.9075 56.191L48.2619 55.9543ZM46.0564 56.3283L49.2699 57.8464L49.1 54.2965L46.0564 56.3283ZM53.3626 49.6521C53.0453 49.5641 52.7051 49.6534 52.472 49.8862C52.472 49.8862 49.8861 52.4721 49.8861 52.4721C49.6531 52.7049 49.5634 53.0451 49.6512 53.3626C49.739 53.6801 49.9908 53.9258 50.3103 54.0058C50.3103 54.0058 53.7583 54.8678 53.7583 54.8678C54.0701 54.9461 54.4001 54.8548 54.6274 54.6275C54.8548 54.4 54.946 54.0701 54.8677 53.7583C54.8677 53.7583 54.0057 50.3104 54.0057 50.3104C53.9254 49.9912 53.6798 49.7398 53.3626 49.6521C53.3626 49.6521 53.3626 49.6521 53.3626 49.6521ZM52.6225 52.3214L52.7235 52.7238L52.3212 52.6228L52.6225 52.3214ZM50.5325 53.1186L53.9805 53.9806L53.1185 50.5327L50.5325 53.1186ZM56.3958 45.1453C56.0674 45.1208 55.7511 45.2749 55.5679 45.5486C55.5679 45.5486 53.5362 48.5893 53.5362 48.5893C53.3531 48.8632 53.3315 49.2143 53.4795 49.5086C53.6276 49.8028 53.9225 49.9947 54.2515 50C54.2515 50 57.8013 50.1836 57.8013 50.1836C58.1224 50.1995 58.4283 50.0457 58.6069 49.7783C58.7855 49.511 58.8106 49.1695 58.673 48.879C58.673 48.879 57.155 45.6655 57.155 45.6655C57.014 45.3681 56.724 45.1694 56.3958 45.1453C56.3958 45.1453 56.3958 45.1453 56.3958 45.1453ZM56.1908 47.9077L56.3683 48.2826L55.954 48.262L56.1908 47.9077ZM54.2964 49.0973L57.8463 49.27L56.3282 46.0565L54.2964 49.0973ZM58.4915 40.1333C58.1646 40.1734 57.8846 40.3862 57.7583 40.6904C57.7583 40.6904 56.3588 44.069 56.3588 44.069C56.2326 44.3733 56.2799 44.722 56.4825 44.9817C56.6852 45.2414 57.0118 45.372 57.3377 45.3237C57.3377 45.3237 60.853 44.8006 60.853 44.8006C61.1711 44.7535 61.441 44.543 61.5641 44.2459C61.6871 43.9489 61.6451 43.6091 61.4534 43.351C61.4534 43.351 59.3376 40.4954 59.3376 40.4954C59.1413 40.2312 58.8182 40.093 58.4915 40.1333C58.4915 40.1333 58.4915 40.1333 58.4915 40.1333ZM58.8298 42.8826L59.0771 43.2157L58.6667 43.2763L58.8298 42.8826ZM57.2036 44.419L60.7189 43.8959L58.6031 41.0403L57.2036 44.419ZM59.5695 34.8088C59.2567 34.9118 59.0235 35.1752 58.959 35.4981C58.959 35.4981 58.2455 39.085 58.2455 39.085C58.1812 39.408 58.2955 39.7407 58.5449 39.9559C58.7943 40.1711 59.1402 40.2355 59.4504 40.1245C59.4504 40.1245 62.7961 38.9256 62.7961 38.9256C63.0988 38.8175 63.3226 38.5583 63.3853 38.243C63.448 37.9276 63.3405 37.6026 63.1022 37.3868C63.1022 37.3868 60.4699 35 60.4699 35C60.2258 34.778 59.8819 34.7055 59.5695 34.8088C59.5695 34.8088 59.5695 34.8088 59.5695 34.8088ZM60.4373 37.4393L60.7448 37.7177L60.3542 37.8573L60.4373 37.4393ZM59.1419 39.2633L62.4877 38.0645L59.8554 35.6765L59.1419 39.2633ZM59.5875 29.3763C59.3009 29.5384 59.1235 29.8422 59.1233 30.1715C59.1233 30.1715 59.1233 33.8286 59.1233 33.8286C59.1232 34.158 59.3 34.462 59.5868 34.6244C59.8734 34.7868 60.2252 34.7825 60.5077 34.6131C60.5077 34.6131 63.5553 32.7846 63.5553 32.7846C63.8311 32.6194 64 32.3216 64 32C64 31.6786 63.8311 31.3807 63.5553 31.2156C63.5553 31.2156 60.5077 29.387 60.5077 29.387C60.2252 29.2182 59.8738 29.2141 59.5875 29.3765C59.5875 29.3765 59.5875 29.3763 59.5875 29.3763ZM60.9518 31.787L61.3078 32L60.9518 32.2132L60.9518 31.787ZM63.0853 32L60.0378 30.1715L60.0378 33.8286L63.0853 32ZM10.667 16.1527C10.4987 16.1527 10.3623 16.2892 10.3623 16.4575C10.3623 16.4575 10.3623 23.1621 10.3623 23.1621C10.3623 23.3304 10.4987 23.4668 10.667 23.4669C10.667 23.4669 16.4574 23.4669 16.4574 23.4669L16.4574 38.7047C16.4574 38.7047 7.61942 38.7047 7.61942 38.7047C7.45112 38.7047 7.31469 38.8411 7.31467 39.0094C7.31467 39.0094 7.31467 45.7141 7.31467 45.7141C7.31467 45.8823 7.45108 46.0188 7.61938 46.0188C7.61938 46.0188 31.9999 46.0188 31.9999 46.0188C32.1682 46.0188 32.3046 45.8824 32.3046 45.7141C32.3046 45.7141 32.3046 39.0094 32.3046 39.0094C32.3046 38.8412 32.1682 38.7047 31.9999 38.7047C31.9999 38.7047 26.8191 38.7047 26.8191 38.7047L26.8191 34.4381C26.8191 34.4381 32.6094 34.4381 32.6094 34.4381C34.1979 34.4381 35.0978 35.0849 35.7427 36.1059C36.3876 37.127 36.7318 38.5442 37.0355 39.9868C37.3392 41.4294 37.6024 42.8933 38.1653 44.0391C38.7281 45.1849 39.664 46.0188 41.1426 46.0188C41.1426 46.0188 56.3804 46.0188 56.3804 46.0188C56.5487 46.0188 56.6852 45.8824 56.6852 45.7141C56.6852 45.7141 56.6852 34.1333 56.6852 34.1333C56.6852 33.9651 56.5488 33.8286 56.3804 33.8286C56.3804 33.8286 52.7234 33.8286 52.7234 33.8286C52.5551 33.8286 52.4186 33.965 52.4186 34.1333C52.4186 34.1333 52.4186 35.3524 52.4186 35.3524C52.4186 36.5143 52.0966 37.3081 51.6305 37.8249C51.1645 38.3418 50.5432 38.5941 49.8889 38.6285C48.5803 38.6974 47.1981 37.8671 46.927 36.5119C46.61 34.9268 45.8263 33.5204 45.0414 32.5C44.6489 31.9898 44.2574 31.5761 43.9128 31.2822C43.7874 31.1752 43.6747 31.1023 43.5616 31.0274C45.5828 29.8337 46.9336 28.402 47.5675 26.8585C48.2554 25.1836 48.1945 23.4223 47.6 21.836C46.41 18.6633 43.1066 16.1527 39.3141 16.1527C39.3141 16.1527 10.667 16.1527 10.667 16.1527ZM26.819 23.4669C26.819 23.4669 34.4379 23.4669 34.4379 23.4669C35.6061 23.4669 36.4541 23.7597 36.9986 24.1681C37.5431 24.5764 37.7902 25.0923 37.7902 25.6C37.7902 26.1081 37.5431 26.6239 36.9986 27.0323C36.4541 27.4407 35.6061 27.7335 34.4379 27.7335C34.4379 27.7335 26.819 27.7335 26.819 27.7335L26.819 23.4669Z"/>
</svg>