<?xml version="1.0" encoding="utf-8"?>
<svg width="128" height="128" viewBox="0 0 128 128" xmlns="http://www.w3.org/2000/svg">
<path id="paper" d="M108 36L108 112C108 116.4 104.4 120 100 120L28 120C23.6 120 20 116.4 20 112L20 16C20 11.6 23.6 8 28 8L80 8Z" fill="#3A75B0"/>
<path id="corner" d="M0 0L28 28L0 28Z" fill="#F29111" transform="translate(80 8)"/>
<path id="coffee" d="M21.3814 13.5963C25.7897 10.1435 30.3006 6.61035 28.6221 0C28.6221 0 34.8531 6.24023 22.706 15.8299C15.1739 21.7783 17.9613 25.7476 20.6377 29.5587C21.4225 30.6763 22.1978 31.7802 22.7005 32.9164C17.0146 27.7864 12.8453 23.2745 15.6446 19.0715C17.0115 17.019 19.1836 15.3177 21.3813 13.5964L21.3814 13.5963L21.3814 13.5963ZM35.5068 12.2547C35.5068 12.2547 14.9707 17.3866 24.7811 28.6907C27.6752 32.0227 24.0194 35.0237 24.0194 35.0237C24.0194 35.0237 31.3699 31.2281 28 26.4777C27.8591 26.287 27.7247 26.1 27.5928 25.9169C24.663 21.8477 22.9849 19.517 35.5068 12.2547L35.5068 12.2547ZM14.611 32.5986C13.1759 32.6362 9.82112 32.9456 5.91491 34.8338C-0.24361 37.8127 21.1467 39.1696 32.2203 36.2572C33.3715 35.4711 34.9614 34.7893 34.9614 34.7893C34.9614 34.7893 30.4335 35.5985 25.9205 35.9792C20.3985 36.4418 14.4656 36.533 11.4918 36.1349C4.45 35.1943 15.3562 32.6041 15.3562 32.6041C15.3562 32.6041 15.0895 32.5861 14.611 32.5986L14.611 32.5986ZM39.5931 33.1916C38.7835 33.1528 37.9115 33.2761 37.0131 33.6C36.3818 33.816 36.0512 34.3314 36.0512 34.3314C36.0512 34.3314 36.4452 34.1721 37.3356 33.9867C40.9684 33.2294 46.1738 38.8517 34.917 44.7C34.8649 44.8404 34.689 44.996 34.6889 44.9959C47.8438 41.5377 45.26 33.463 39.5931 33.1916L39.5931 33.1916ZM32.6706 43.4364C18.4695 47.589 2.6521 43.7625 12.8151 40.3894C12.8151 40.3894 10.2443 42.2962 14.1717 42.7025C19.2507 43.2264 23.2615 43.266 30.2019 41.9296C30.2019 41.9296 31.1611 42.9042 32.6706 43.4364L32.6706 43.4364ZM14.2552 47.6681C5.02967 50.2458 19.8631 55.5711 31.6086 50.5372C29.6848 49.8 28.3114 48.9247 28.3114 48.9247C23.0719 49.9164 20.6388 50 15.8843 49.4473C11.9598 48.9962 14.2552 47.6681 14.2552 47.6681L14.2552 47.6681ZM3.00694 56.834C-4.67667 55.5884 4.32444 51.627 8.28912 51.7797C8.85553 51.8016 9.32043 51.9093 9.61805 52.12C9.61805 52.12 8.86116 52.0613 7.54411 52.3469C6.28123 52.6181 2.26727 53.9121 4.40812 54.8434C10.3635 57.4356 31.8014 56.8138 38.5811 54.76C42.1465 53.6785 40.4494 52.28 40.4494 52.2802C46.6611 55.0821 26.9547 60.7177 3.00694 56.834L3 56.834ZM44.2525 54.3177C44.2525 54.3177 43.4973 56.2536 35.3229 57.7928C26.1 59.5284 14.7242 59.3277 7.97778 58.2154C7.99972 58.2328 9.41619 59.3593 16.4627 59.8112C27.2678 60.5029 43.8596 59.4304 44.2525 54.3177L44.2525 54.3177Z" fill="#FFFFFF" transform="translate(41.874 44.184)"/>
</svg>