<?xml version="1.0" encoding="utf-8"?>
<svg width="128" height="128" viewBox="0 0 128 128" xmlns="http://www.w3.org/2000/svg">
<path id="paper" d="M108 36L108 112C108 116.4 104.4 120 100 120L28 120C23.6 120 20 116.4 20 112L20 16C20 11.6 23.6 8 28 8L80 8Z" fill="#D25491"/>
<path id="corner" d="M0 0L28 28L0 28Z" fill="#FFFFFF" opacity="0.4" transform="translate(80 8)"/>
<path id="Sass" d="M58.5533 29.3156C56.181 29.328 54.1192 29.8993 52.3928 30.7439C51.7593 29.4894 51.1259 28.3716 51.0141 27.5518C50.8899 26.5955 50.7408 26.0117 50.8899 24.869C51.0389 23.7263 51.7096 22.0993 51.6972 21.9751C51.6848 21.8509 51.5482 21.2671 50.1819 21.2547C48.8157 21.2423 47.6357 21.5155 47.4991 21.8757C47.3625 22.2359 47.1017 23.0556 46.9278 23.9002C46.6918 25.1423 44.1953 29.5764 42.7669 31.899C42.3074 30.9923 41.9099 30.1974 41.823 29.564C41.6988 28.6076 41.5497 28.0238 41.6988 26.8811C41.8478 25.7385 42.5185 24.1114 42.5061 23.9872C42.4937 23.863 42.357 23.2792 40.9908 23.2668C39.6245 23.2544 38.4446 23.5276 38.308 23.8878C38.1713 24.248 38.0223 25.0926 37.7366 25.9123C37.451 26.7321 34.1347 34.1347 33.2653 36.0474C32.8181 37.0287 32.4331 37.8111 32.1598 38.3452C32.1598 38.3452 32.1598 38.3452 32.1598 38.3452C32.1598 38.3452 32.1474 38.3825 32.1102 38.4446C31.8742 38.9041 31.7375 39.1526 31.7375 39.1526C31.7375 39.1526 31.7375 39.1526 31.7375 39.165C31.5512 39.5003 31.3525 39.8108 31.2531 39.8108C31.1786 39.8108 31.042 38.9166 31.278 37.6994C31.7748 35.1283 32.9547 31.1289 32.9423 30.9923C32.9423 30.9178 33.1659 30.2223 32.1723 29.8621C31.2035 29.5019 30.8557 30.098 30.7687 30.098C30.6818 30.098 30.6197 30.3092 30.6197 30.3092C30.6197 30.3092 31.7003 25.813 28.5579 25.813C26.5955 25.813 23.8878 27.9617 22.5464 29.8993C21.7018 30.3589 19.9008 31.3401 17.9757 32.3958C17.2429 32.8057 16.4852 33.2156 15.7772 33.6006C15.7276 33.5509 15.6779 33.4888 15.6282 33.4391C11.8275 29.3777 4.79755 26.5085 5.09564 21.056C5.20742 19.0687 5.89055 13.8521 18.5967 7.51765C29.0547 2.36316 37.3764 3.79152 38.8172 6.95873C40.879 11.4798 34.3583 19.876 23.5525 21.0932C19.4289 21.5528 17.2677 19.963 16.7212 19.3668C16.1499 18.7457 16.0629 18.7085 15.8518 18.8327C15.504 19.019 15.7276 19.5779 15.8518 19.9008C16.1747 20.7454 17.5037 22.2359 19.7518 22.9687C21.7391 23.6146 26.5706 23.9748 32.4207 21.7142C38.9663 19.1805 44.0835 12.1381 42.5806 6.23835C41.0777 0.251686 31.1414 -1.72317 21.7391 1.61794C16.1499 3.60521 10.0887 6.73516 5.72909 10.8091C0.549759 15.6531 -0.269993 19.8636 0.065361 21.6273C1.27015 27.8872 9.90237 31.9611 13.3553 34.9793C13.1814 35.0786 13.0199 35.1656 12.8833 35.2401C11.1568 36.0971 4.57399 39.5376 2.93449 43.1768C1.07142 47.3004 3.23258 50.2564 4.66093 50.6539C9.09504 51.8835 13.6533 49.6727 16.1002 46.0211C18.547 42.3695 18.2489 37.6248 17.1187 35.4513C17.1062 35.4264 17.0938 35.4016 17.069 35.3767C17.5161 35.1159 17.9757 34.8427 18.4228 34.5818C19.3047 34.0602 20.1741 33.5758 20.9193 33.1783C20.497 34.3334 20.1865 35.7121 20.0375 37.6994C19.8512 40.0344 20.8075 43.065 22.062 44.2574C22.6209 44.779 23.2792 44.7914 23.7015 44.7914C25.1671 44.7914 25.8254 43.5742 26.5582 42.1335C27.4525 40.3698 28.2598 38.3204 28.2598 38.3204C28.2598 38.3204 27.2538 43.8599 29.9863 43.8599C30.9799 43.8599 31.986 42.5682 32.4331 41.9099C32.4331 41.9223 32.4331 41.9223 32.4331 41.9223C32.4331 41.9223 32.4579 41.8851 32.5076 41.7981C32.607 41.6367 32.6691 41.5373 32.6691 41.5373C32.6691 41.5373 32.6691 41.5249 32.6691 41.5124C33.0665 40.8169 33.9608 39.2395 35.2898 36.6188C37.0038 33.2404 38.6557 29.0175 38.6557 29.0175C38.6557 29.0175 38.8048 30.0484 39.314 31.7624C39.6121 32.7684 40.2331 33.8739 40.73 34.942C40.3325 35.5009 40.0841 35.8115 40.0841 35.8115C40.0841 35.8115 40.0841 35.8115 40.0965 35.8239C39.7736 36.2462 39.4258 36.7057 39.0408 37.1529C37.6869 38.7675 36.0723 40.6182 35.8487 41.1523C35.5879 41.7857 35.65 42.2453 36.1468 42.6179C36.507 42.8911 37.1529 42.9284 37.8111 42.8911C39.0284 42.8042 39.8854 42.5061 40.3077 42.3198C40.9659 42.0838 41.736 41.7236 42.4564 41.1895C43.7854 40.2083 44.5927 38.8048 44.5182 36.9541C44.4809 35.9357 44.1456 34.9172 43.7357 33.9608C43.8599 33.7869 43.9717 33.613 44.0959 33.4391C46.195 30.3713 47.822 27.0053 47.822 27.0053C47.822 27.0053 47.9711 28.0362 48.4803 29.7503C48.7287 30.6197 49.238 31.5637 49.6851 32.4828C47.7103 34.085 46.493 35.9481 46.0583 37.1653C45.2758 39.4258 45.8844 40.4443 47.0396 40.6803C47.5612 40.7921 48.3064 40.5436 48.8529 40.3077C49.5485 40.0841 50.3682 39.6991 51.1507 39.1277C52.4797 38.1465 53.759 36.7803 53.6845 34.9296C53.6472 34.085 53.4237 33.2528 53.1132 32.4455C54.7899 31.75 56.9511 31.3649 59.7084 31.6879C65.6206 32.3834 66.7881 36.0723 66.5645 37.6248C66.341 39.1774 65.0989 40.022 64.689 40.2828C64.2792 40.5436 64.1425 40.6306 64.1798 40.8169C64.2295 41.0901 64.4282 41.0777 64.776 41.028C65.2604 40.9411 67.8811 39.7736 67.9929 36.9169C68.1792 33.2653 64.7015 29.2783 58.5533 29.3156C58.5533 29.3156 58.5533 29.3156 58.5533 29.3156ZM12.9454 44.6921C10.9829 46.8284 8.25045 47.6357 7.0705 46.9526C5.80362 46.2198 6.30043 43.065 8.71 40.8045C10.1756 39.4258 12.0635 38.1465 13.318 37.364C13.6037 37.1901 14.026 36.9417 14.5352 36.6312C14.6221 36.5815 14.6718 36.5567 14.6718 36.5567C14.6718 36.5567 14.6718 36.5567 14.6718 36.5567C14.7712 36.4946 14.8706 36.4325 14.9699 36.3704C15.8518 39.5997 15.0072 42.444 12.9454 44.6921C12.9454 44.6921 12.9454 44.6921 12.9454 44.6921ZM27.2289 34.9793C26.5458 36.6436 25.1174 40.9038 24.248 40.6679C23.5028 40.4691 23.0432 37.2398 24.099 34.0478C24.633 32.4455 25.7633 30.5328 26.4216 29.7875C27.4897 28.5952 28.6697 28.1977 28.9554 28.6821C29.3156 29.3156 27.6512 33.936 27.2289 34.9793C27.2289 34.9793 27.2289 34.9793 27.2289 34.9793ZM39.0159 40.6182C38.7303 40.7673 38.457 40.8666 38.3328 40.7921C38.2459 40.7424 38.457 40.5437 38.457 40.5437C38.457 40.5437 39.935 38.9539 40.5188 38.2335C40.8541 37.8112 41.2516 37.3143 41.6739 36.7554C41.6739 36.8051 41.6739 36.8672 41.6739 36.9169C41.6739 38.8172 39.8357 40.0965 39.0159 40.6182C39.0159 40.6182 39.0159 40.6182 39.0159 40.6182ZM48.1077 38.5439C47.8965 38.3949 47.9338 37.8981 48.6418 36.3455C48.915 35.7369 49.5609 34.7184 50.6663 33.7372C50.7905 34.1347 50.8775 34.5197 50.8651 34.8799C50.8527 37.2771 49.1386 38.1713 48.1077 38.5439C48.1077 38.5439 48.1077 38.5439 48.1077 38.5439Z" fill="#FFFFFF" transform="translate(33 56)"/>
</svg>