<?xml version="1.0" encoding="utf-8"?>
<svg width="128" height="128" viewBox="0 0 128 128" xmlns="http://www.w3.org/2000/svg">
<path id="paper" d="M108 36L108 112C108 116.4 104.4 120 100 120L28 120C23.6 120 20 116.4 20 112L20 16C20 11.6 23.6 8 28 8L80 8Z" fill="#505050"/>
<path id="corner" d="M0 0L28 28L0 28Z" fill="#808080" transform="translate(80 8)"/>
<path id="rect4316-3" d="M2.93803 41.5354C2.93803 41.5354 42.92 2.84325 42.92 2.84325C46.8373 -0.94775 53.1447 -0.94775 57.0621 2.84325C60.9795 6.63424 60.9795 12.7382 57.0621 16.5292C57.0621 16.5292 17.0802 55.2213 17.0802 55.2213C13.1628 59.0123 6.8554 59.0123 2.93803 55.2213C-0.979343 51.4303 -0.979343 45.3264 2.93803 41.5354C2.93803 41.5354 2.93803 41.5354 2.93803 41.5354Z" fill="#DBA600" transform="translate(34 44.471)" />
<path id="rect4316" d="M17.0802 2.84325C17.0802 2.84325 57.0621 41.5354 57.0621 41.5354C60.9795 45.3264 60.9795 51.4303 57.0621 55.2213C53.1447 59.0123 46.8373 59.0123 42.92 55.2213C42.92 55.2213 2.93803 16.5292 2.93803 16.5292C-0.979343 12.7382 -0.979343 6.63424 2.93803 2.84325C6.8554 -0.94775 13.1628 -0.94775 17.0802 2.84325C17.0802 2.84325 17.0802 2.84325 17.0802 2.84325Z" fill="#FFC510" transform="translate(34 44.471)" />
<path id="rect5291" d="M10.7809 0.852978C10.7809 0.852978 24.2159 13.8546 24.2159 13.8546C25.3911 14.9919 25.3911 16.8231 24.2159 17.9604C24.2159 17.9604 18.5591 23.4347 18.5591 23.4347C17.3839 24.572 15.4917 24.572 14.3164 23.4347C14.3164 23.4347 0.881409 10.4331 0.881409 10.4331C-0.2938 9.29581 -0.2938 7.46464 0.881409 6.32734C0.881409 6.32734 6.53826 0.852974 6.53826 0.852974C7.71347 -0.284325 9.60569 -0.284325 10.7809 0.852974C10.7809 0.852974 10.7809 0.852978 10.7809 0.852978Z" fill="#DBA600" transform="translate(51.451 61.36)" />
<g id="dots" transform="translate(36.84 47.22)">
<path id="path3135-5" d="M0.366549 0.350151C-0.122182 0.824112 -0.122186 1.5864 0.366553 2.06041C0.855289 2.53442 1.64851 2.54102 2.13696 2.06741C2.62568 1.59344 2.61851 0.824188 2.12996 0.350506C1.64147 -0.116745 0.848338 -0.116817 0.366725 0.350185C0.366725 0.350185 0.366549 0.350151 0.366549 0.350151Z" fill="#A88000" transform="translate(3.53 12.744)" />
<path id="path3137-9" d="M2.13451 0.354707C1.64477 -0.118236 0.857106 -0.118236 0.367322 0.354711C-0.122466 0.827653 -0.122416 1.58829 0.367326 2.06128C0.857068 2.53422 1.65191 2.54084 2.14136 2.06828C2.62424 1.58808 2.61705 0.820798 2.13436 0.354764C2.13436 0.354764 2.13451 0.354707 2.13451 0.354707Z" fill="#A88000" transform="translate(6.711 9.66)" />
<path id="path3139-2" d="M0.366481 2.06149C0.855308 2.53455 1.64867 2.54118 2.13721 2.06839C2.62604 1.59534 2.61886 0.827569 2.13021 0.354794C1.64139 -0.118263 0.855208 -0.118267 0.366324 0.354794C-0.122159 0.82753 -0.122167 1.58844 0.366656 2.06145C0.366656 2.06145 0.366481 2.06149 0.366481 2.06149Z" fill="#A88000" transform="translate(9.898 6.58)" />
<path id="path3141-2" d="M2.13754 2.06803C2.62615 1.59505 2.61897 0.827418 2.12954 0.354731C1.64094 -0.118242 0.855103 -0.118246 0.36644 0.354731C-0.122147 0.8277 -0.122147 1.58839 0.36644 2.0614C0.855385 2.53406 1.64841 2.541 2.13672 2.0681C2.13672 2.0681 2.13754 2.06803 2.13754 2.06803Z" fill="#A88000" transform="translate(13.081 3.5)" />
<path id="path3143-8" d="M2.1299 0.354688C1.64121 -0.118231 0.85525 -0.118227 0.366526 0.354688C-0.122194 0.827608 -0.122156 1.58821 0.366522 2.06118C0.855204 2.53414 1.64834 2.54072 2.13675 2.06808C2.62575 1.59516 2.61859 0.827604 2.12975 0.354646C2.12975 0.354646 2.1299 0.354688 2.1299 0.354688Z" fill="#A88000" transform="translate(1.765 7.951)" />
<path id="path3145-9" d="M2.1299 0.354696C1.64121 -0.118227 0.855246 -0.118235 0.366507 0.354692C-0.122171 0.827611 -0.122167 1.58822 0.366507 2.06119C0.855196 2.53411 1.64835 2.54073 2.13675 2.06809C2.62576 1.59485 2.61858 0.827608 2.12975 0.354642C2.12975 0.354642 2.1299 0.354696 2.1299 0.354696Z" fill="#A88000" transform="translate(4.948 4.87)" />
<path id="path3147-7" d="M2.13755 2.06802C2.62615 1.59505 2.61897 0.827422 2.12955 0.354727C1.64094 -0.118246 0.855106 -0.118242 0.366455 0.354735C-0.122173 0.827704 -0.122131 1.58839 0.366463 2.0614C0.8554 2.53406 1.64842 2.541 2.13673 2.0681C2.13673 2.0681 2.13755 2.06802 2.13755 2.06802Z" fill="#A88000" transform="translate(8.131 1.79)" />
<path id="path3149-3" d="M2.1299 0.354688C1.64121 -0.118228 0.855241 -0.118232 0.36651 0.354692C-0.122168 0.827611 -0.122172 1.58823 0.36651 2.06119C0.855199 2.53411 1.64835 2.54074 2.13675 2.06809C2.62575 1.59486 2.61857 0.827615 2.12975 0.35465C2.12975 0.35465 2.1299 0.354688 2.1299 0.354688Z" fill="#A88000" transform="translate(0 3.163)" />
<path id="path3151-61" d="M2.13754 2.07027C2.62615 1.59679 2.61897 0.828315 2.12954 0.355113C1.64094 -0.118371 0.85509 -0.118371 0.366443 0.355113C-0.122148 0.828597 -0.122148 1.59011 0.366443 2.06364C0.855384 2.5368 1.64807 2.53681 2.13671 2.07033C2.13671 2.07033 2.13754 2.07027 2.13754 2.07027Z" fill="#A88000" transform="translate(3.184 0.081)" />
<path id="path3135-5-2" d="M2.13342 0.350151C2.62215 0.824112 2.62215 1.5864 2.13341 2.06041C1.64467 2.53442 0.851456 2.54102 0.362999 2.06741C-0.125725 1.59344 -0.118561 0.824188 0.370003 0.350506C0.85849 -0.116745 1.65162 -0.116817 2.13323 0.350185C2.13323 0.350185 2.13342 0.350151 2.13342 0.350151Z" fill="#A88000" transform="translate(48.291 12.662)" />
<path id="path3137-9-5" d="M0.365459 0.354707C0.855198 -0.118236 1.64286 -0.118236 2.13264 0.354711C2.62243 0.827653 2.62238 1.58829 2.13264 2.06128C1.6429 2.53422 0.848057 2.54084 0.358608 2.06828C-0.124271 1.58808 -0.117085 0.820798 0.365612 0.35476C0.365612 0.35476 0.365459 0.354707 0.365459 0.354707Z" fill="#A88000" transform="translate(45.109 9.579)" />
<path id="path3139-2-4" d="M2.1338 2.06149C1.64497 2.53455 0.851616 2.54118 0.363068 2.06839C-0.125755 1.59535 -0.118576 0.827569 0.370071 0.354794C0.858902 -0.118263 1.64508 -0.118267 2.13396 0.354794C2.62245 0.82753 2.62245 1.58844 2.13363 2.06145C2.13363 2.06145 2.1338 2.06149 2.1338 2.06149Z" fill="#A88000" transform="translate(41.922 6.499)" />
<path id="path3141-2-7" d="M0.362785 2.06803C-0.125824 1.59505 -0.118645 0.827418 0.370789 0.354731C0.85939 -0.118242 1.64523 -0.118246 2.13389 0.354731C2.62247 0.8277 2.62247 1.58839 2.13389 2.0614C1.64494 2.53406 0.851921 2.541 0.363609 2.0681C0.363609 2.0681 0.362785 2.06803 0.362785 2.06803Z" fill="#A88000" transform="translate(38.74 3.419)" />
<path id="path3143-8-4" d="M0.370064 0.354688C0.858749 -0.118231 1.64471 -0.118227 2.13343 0.354688C2.62215 0.827608 2.62211 1.58821 2.13344 2.06118C1.64475 2.53414 0.851624 2.54072 0.363213 2.06808C-0.125793 1.59516 -0.118629 0.827604 0.370216 0.354646C0.370216 0.354646 0.370064 0.354688 0.370064 0.354688Z" fill="#A88000" transform="translate(50.056 7.87)" />
<path id="path3145-9-4" d="M0.370056 0.354694C0.858749 -0.118229 1.64471 -0.118233 2.13345 0.354691C2.62213 0.82761 2.62213 1.58822 2.13345 2.06119C1.64477 2.53411 0.851608 2.54073 0.363213 2.06809C-0.125801 1.59485 -0.118622 0.827606 0.370216 0.354645C0.370216 0.354645 0.370056 0.354694 0.370056 0.354694Z" fill="#A88000" transform="translate(46.872 4.789)" />
<path id="path3147-7-3" d="M0.362778 2.06802C-0.125816 1.59505 -0.118645 0.827422 0.370781 0.354728C0.85939 -0.118245 1.64523 -0.118241 2.13387 0.354732C2.6225 0.827701 2.62246 1.58839 2.13387 2.0614C1.64493 2.53406 0.851906 2.54099 0.363594 2.0681C0.363594 2.0681 0.362778 2.06802 0.362778 2.06802Z" fill="#A88000" transform="translate(43.689 1.709)" />
<path id="path3149-3-0" d="M0.370056 0.354688C0.858749 -0.118228 1.64471 -0.118232 2.13345 0.354692C2.62212 0.827611 2.62213 1.58823 2.13345 2.06119C1.64475 2.53411 0.851608 2.54074 0.363205 2.06809C-0.125801 1.59486 -0.118622 0.827615 0.370209 0.35465C0.370209 0.35465 0.370056 0.354688 0.370056 0.354688Z" fill="#A88000" transform="translate(51.82 3.081)" />
<path id="path3151-61-7" d="M0.362785 2.07027C-0.125824 1.59679 -0.118645 0.828315 0.370789 0.355113C0.85939 -0.118371 1.64524 -0.118371 2.13389 0.355113C2.62247 0.828597 2.62247 1.59011 2.13389 2.06363C1.64495 2.5368 0.852264 2.5368 0.363617 2.07033C0.363617 2.07033 0.362785 2.07027 0.362785 2.07027Z" fill="#A88000" transform="translate(48.636 0)" />
<path id="path3135-5-6" d="M2.13342 2.06913C2.62215 1.59517 2.62215 0.832882 2.13341 0.358875C1.64467 -0.115139 0.851456 -0.121731 0.362999 0.351871C-0.125725 0.82584 -0.118561 1.5951 0.370003 2.06878C0.85849 2.53603 1.65163 2.5361 2.13323 2.0691C2.13323 2.0691 2.13342 2.06913 2.13342 2.06913Z" fill="#A88000" transform="translate(48.29 37.486)" />
<path id="path3137-9-8" d="M0.365459 2.06466C0.855198 2.5376 1.64286 2.5376 2.13264 2.06465C2.62243 1.59171 2.62238 0.83107 2.13264 0.358086C1.6429 -0.114853 0.848057 -0.121483 0.358608 0.351082C-0.124271 0.831284 -0.117085 1.59856 0.365612 2.0646C0.365612 2.0646 0.365459 2.06466 0.365459 2.06466Z" fill="#A88000" transform="translate(45.109 40.57)" />
<path id="path3139-2-8" d="M2.1338 0.358158C1.64497 -0.114902 0.851616 -0.121525 0.363068 0.351261C-0.125755 0.824314 -0.118576 1.59209 0.370071 2.06486C0.858902 2.53792 1.64508 2.53792 2.13396 2.06486C2.62245 1.59212 2.62245 0.831219 2.13363 0.358204C2.13363 0.358204 2.1338 0.358158 2.1338 0.358158Z" fill="#A88000" transform="translate(41.922 43.65)" />
<path id="path3141-2-4" d="M0.362785 0.351326C-0.125824 0.824295 -0.118645 1.59194 0.370789 2.06462C0.85939 2.5376 1.64523 2.5376 2.13389 2.06462C2.62247 1.59166 2.62247 0.830963 2.13389 0.357948C1.64494 -0.1147 0.851921 -0.121651 0.363609 0.35125C0.363609 0.35125 0.362785 0.351326 0.362785 0.351326Z" fill="#A88000" transform="translate(38.74 46.73)" />
<path id="path3143-8-3" d="M0.370064 2.06456C0.858749 2.53747 1.64471 2.53747 2.13343 2.06456C2.62215 1.59163 2.62211 0.831028 2.13344 0.358067C1.64475 -0.114887 0.851624 -0.121479 0.363213 0.35117C-0.125793 0.824085 -0.118629 1.59164 0.370216 2.0646C0.370216 2.0646 0.370064 2.06456 0.370064 2.06456Z" fill="#A88000" transform="translate(50.056 42.279)" />
<path id="path3145-9-1" d="M0.370056 2.06455C0.858749 2.53747 1.64471 2.53748 2.13345 2.06455C2.62213 1.59163 2.62213 0.83102 2.13345 0.358051C1.64477 -0.114872 0.851608 -0.121487 0.363213 0.351154C-0.125801 0.82439 -0.118622 1.59163 0.370216 2.0646C0.370216 2.0646 0.370056 2.06455 0.370056 2.06455Z" fill="#A88000" transform="translate(46.872 45.36)" />
<path id="path3147-7-4" d="M0.362778 0.351337C-0.125816 0.824314 -0.118645 1.59194 0.370781 2.06463C0.85939 2.53761 1.64523 2.53761 2.13387 2.06463C2.6225 1.59166 2.62246 0.830967 2.13387 0.357967C1.64493 -0.114697 0.851906 -0.121632 0.363594 0.35117C0.363594 0.35117 0.362778 0.351337 0.362778 0.351337Z" fill="#A88000" transform="translate(43.689 48.44)" />
<path id="path3149-3-9" d="M0.370049 2.06455C0.858742 2.53747 1.64471 2.53748 2.13345 2.06455C2.62212 1.59163 2.62213 0.831017 2.13345 0.358055C1.64476 -0.114868 0.851608 -0.12149 0.363205 0.351158C-0.125801 0.824394 -0.118622 1.59163 0.370209 2.0646C0.370209 2.0646 0.370049 2.06455 0.370049 2.06455Z" fill="#A88000" transform="translate(51.82 47.067)" />
<path id="path3151-61-2" d="M0.362785 0.349106C-0.125824 0.822594 -0.118645 1.59105 0.370789 2.06425C0.85939 2.53774 1.64524 2.53774 2.13389 2.06425C2.62248 1.59077 2.62248 0.829254 2.13389 0.355728C1.64495 -0.117439 0.852264 -0.117439 0.363617 0.34893C0.363617 0.34893 0.362785 0.349106 0.362785 0.349106Z" fill="#A88000" transform="translate(48.636 50.149)" />
<path id="path3135-5-68" d="M0.366549 2.06914C-0.122182 1.59518 -0.122186 0.83289 0.366553 0.358875C0.855289 -0.115131 1.64851 -0.121731 2.13696 0.351871C2.62568 0.82584 2.61851 1.5951 2.12996 2.06878C1.64147 2.53603 0.848338 2.5361 0.366725 2.0691C0.366725 2.0691 0.366549 2.06914 0.366549 2.06914Z" fill="#A88000" transform="translate(3.53 37.486)" />
<path id="path3137-9-9" d="M2.13451 2.06465C1.64477 2.53759 0.857106 2.53759 0.367322 2.06465C-0.122466 1.59171 -0.122416 0.83107 0.367326 0.358086C0.857068 -0.114853 1.65191 -0.121483 2.14136 0.351082C2.62424 0.831276 2.61705 1.59856 2.13436 2.0646C2.13436 2.0646 2.13451 2.06465 2.13451 2.06465Z" fill="#A88000" transform="translate(6.711 40.57)" />
<path id="path3139-2-2" d="M0.366481 0.358158C0.855308 -0.114902 1.64867 -0.121525 2.13721 0.351261C2.62604 0.824314 2.61886 1.59209 2.13021 2.06486C1.64139 2.53792 0.855208 2.53792 0.366324 2.06486C-0.122159 1.59212 -0.122167 0.831219 0.366656 0.358204C0.366656 0.358204 0.366481 0.358158 0.366481 0.358158Z" fill="#A88000" transform="translate(9.898 43.65)" />
<path id="path3141-2-6" d="M2.13754 0.351326C2.62615 0.824295 2.61897 1.59193 2.12954 2.06462C1.64094 2.5376 0.855103 2.5376 0.36644 2.06462C-0.122147 1.59164 -0.122147 0.830963 0.36644 0.357948C0.855385 -0.1147 1.64841 -0.121651 2.13672 0.35125C2.13672 0.35125 2.13754 0.351326 2.13754 0.351326Z" fill="#A88000" transform="translate(13.081 46.73)" />
<path id="path3143-8-6" d="M2.1299 2.06456C1.64121 2.53748 0.85525 2.53748 0.366526 2.06456C-0.122194 1.59164 -0.122156 0.831032 0.366522 0.35807C0.855204 -0.114891 1.64834 -0.121475 2.13675 0.351173C2.62575 0.824089 2.61859 1.59164 2.12975 2.06461C2.12975 2.06461 2.1299 2.06456 2.1299 2.06456Z" fill="#A88000" transform="translate(1.765 42.279)" />
<path id="path3145-9-49" d="M2.1299 2.06455C1.64121 2.53747 0.855246 2.53748 0.366507 2.06455C-0.122171 1.59163 -0.122167 0.83102 0.366507 0.358051C0.855196 -0.114872 1.64835 -0.121487 2.13675 0.351154C2.62576 0.82439 2.61858 1.59163 2.12975 2.0646C2.12975 2.0646 2.1299 2.06455 2.1299 2.06455Z" fill="#A88000" transform="translate(4.948 45.36)" />
<path id="path3147-7-5" d="M2.13755 0.351337C2.62615 0.824314 2.61897 1.59194 2.12955 2.06463C1.64094 2.53761 0.855106 2.53759 0.366455 2.06462C-0.122173 1.59166 -0.122131 0.830967 0.366463 0.35796C0.8554 -0.114697 1.64842 -0.121632 2.13673 0.351162C2.13673 0.351162 2.13755 0.351337 2.13755 0.351337Z" fill="#A88000" transform="translate(8.131 48.44)" />
<path id="path3149-3-04" d="M2.1299 2.06456C1.64121 2.53748 0.855241 2.53748 0.36651 2.06456C-0.122168 1.59164 -0.122172 0.831017 0.36651 0.358055C0.855199 -0.114868 1.64835 -0.12149 2.13675 0.351158C2.62575 0.824394 2.61857 1.59164 2.12975 2.0646C2.12975 2.0646 2.1299 2.06456 2.1299 2.06456Z" fill="#A88000" transform="translate(0 47.067)" />
<path id="path3151-61-8" d="M2.13754 0.349102C2.62615 0.822575 2.61897 1.59105 2.12954 2.06424C1.64094 2.53773 0.85509 2.53773 0.366443 2.06424C-0.122148 1.59076 -0.122148 0.829258 0.366443 0.355732C0.855384 -0.117435 1.64807 -0.117443 2.13671 0.348934C2.13671 0.348934 2.13754 0.349102 2.13754 0.349102Z" fill="#A88000" transform="translate(3.184 50.149)" />
</g></svg>