<?xml version="1.0" encoding="utf-8"?>
<svg width="128" height="128" viewBox="0 0 128 128" xmlns="http://www.w3.org/2000/svg">
<path d="M88 28L88 104C88 108.4 84.4 112 80 112L8 112C3.6 112 0 108.4 0 104L0 8C0 3.6 3.6 0 8 0L60 0Z" fill="#505050" transform="translate(20 8)"/>
<path d="M28 28L0 28L0 0Z" fill="#808080" transform="translate(80 8)"/>
<g transform="translate(32 52) rotate(45 26 30)">
<g fill="#9A9996">
<path d="M18 10C12 10 6 10 3 14L0 12L0 9C1 3 10 0 18 0Z" transform="translate(0 1)"/>
<rect width="20" height="16" rx="2" x="16" y="1"/>
<rect width="4" height="10" x="36" y="4"/>
</g><g fill="#C0BFBC">
<path d="M3 11C6 7 12 7 18 7L17.9998 0C10 0 1 3 0 9L3 11Z" transform="translate(0 1)"/>
<rect width="20" height="11" rx="2" x="16" y="1"/></g>
<linearGradient id="hit" x1="0" y1="0" x2="0" y2="1">
<stop offset="0" stop-color="#BFBEBB"/>
<stop offset="50%" stop-color="#DEDDDA"/>
<stop offset="1" stop-color="#9A9996"/>
</linearGradient>
<rect width="12" height="18" rx="2" x="40" fill="url(#hit)"/>
<linearGradient id="neck">
<stop offset="0" stop-color="#C0BFBC"/>
<stop offset="50%" stop-color="#DEDDDA"/>
<stop offset="1" stop-color="#9A9996"/>
</linearGradient>
<rect width="6" height="30" rx="3" x="23" y="14" fill="url(#neck)"/>
<linearGradient id="handle">
<stop offset="0" stop-color="#FF7800"/>
<stop offset="25%" stop-color="#FFA348"/>
<stop offset="75%" stop-color="#FF7800"/>
<stop offset="1" stop-color="#E66100"/>
</linearGradient>
<rect width="12" height="34" rx="3" x="20" y="26" fill="url(#handle)"/>
<rect width="12" height="6" rx="3" x="20" y="54" fill="#C64600"/>
<g fill="#8F3200" transform="translate(23 44)">
<rect width="6" height="1" rx="0.5" y="6"/>
<rect width="6" height="1" rx="0.5" y="3"/>
<rect width="6" height="1" rx="0.5"/>
</g></g>
</svg>
