<?xml version="1.0" encoding="utf-8"?>
<svg width="128" height="128" viewBox="0 0 128 128" xmlns="http://www.w3.org/2000/svg">
<path d="M108 36L108 112C108 116.4 104.4 120 100 120L28 120C23.6 120 20 116.4 20 112L20 16C20 11.6 23.6 8 28 8L80 8Z" fill="#505050"/>
<path d="M0 0L28 28L0 28Z" fill="#808080" transform="translate(80 8)"/>
<g fill="white" transform="translate(36 72)">
<rect width="56" height="2"/>
<rect width="56" height="2" y="8"/>
<rect width="56" height="2" y="16"/>
<rect width="56" height="2" y="24"/>
<rect width="28" height="2" y="32"/>
</g><g fill="#FF9B00">
<path d="M0 0L22 10L22 16L0 26L0 20L15.5 13L0 6Z" transform="translate(70 40)"/>
<path d="M0 10L22 0L22 6L6.5 13L22 20L22 26L0 16Z" transform="translate(36 40)"/>
</g></svg>