<?xml version="1.0" encoding="utf-8"?>
<svg width="128" height="128" viewBox="0 0 128 128" xmlns="http://www.w3.org/2000/svg">
  <defs>
    <linearGradient id="gradient_1" gradientUnits="userSpaceOnUse" x1="4.711" y1="-0" x2="4.711" y2="17.589">
      <stop offset="0" stop-color="#C0BFBC" />
      <stop offset="0.5" stop-color="#DEDDDA" />
      <stop offset="1" stop-color="#9A9996" />
    </linearGradient>
    <linearGradient id="gradient_2" gradientUnits="userSpaceOnUse" x1="-0" y1="14.448" x2="6.282" y2="14.448">
      <stop offset="0" stop-color="#C0BFBC" />
      <stop offset="0.5" stop-color="#DEDDDA" />
      <stop offset="1" stop-color="#9A9996" />
    </linearGradient>
    <linearGradient id="gradient_3" gradientUnits="userSpaceOnUse" x1="0" y1="16.333" x2="11.307" y2="16.333">
      <stop offset="0" stop-color="#FF7800" />
      <stop offset="0.25" stop-color="#FFA348" />
      <stop offset="0.75" stop-color="#FF7800" />
      <stop offset="1" stop-color="#C64600" />
    </linearGradient>
  </defs>
      <path id="paper" d="M108 36L108 112C108 116.4 104.4 120 100 120L28 120C23.6 120 20 116.4 20 112L20 16C20 11.6 23.6 8 28 8L80 8Z" fill="#505050"/>
      <path id="corner" d="M0 0L28 28L0 28Z" fill="#808080" transform="translate(80 8)"/>
    <g id="hammer" transform="matrix(-0.707 -0.707 -0.707 0.707 94.364 79.183)">
      <path id="path71608" d="M1.4354 3L1.4354 0.48644L0 0L0.0554085 2.56659L1.4354 3Z" fill="#9A9996" fill-rule="evenodd" transform="translate(45.993 10.193)" />
      <rect id="rect71610" width="11.307" height="10.051" fill="#9A9996" fill-rule="evenodd" transform="translate(9.423 3.769)" />
      <path id="rect71612" d="M0 3.90873L0 1.95437C0 1.41468 0.183992 0.954034 0.551977 0.57242C0.919961 0.190807 1.36416 0 1.88457 0L9.42283 0C9.94324 0 10.3874 0.190807 10.7554 0.57242C11.1234 0.954034 11.3074 1.41468 11.3074 1.95437L11.3074 15.6349C11.3074 16.1746 11.1234 16.6353 10.7554 17.0169C10.3874 17.3985 9.94324 17.5893 9.42283 17.5893L1.88457 17.5893C1.36416 17.5893 0.919961 17.3985 0.551977 17.0169C0.183992 16.6353 0 16.1746 0 15.6349L0 3.90873Z" fill="url(#gradient_1)" fill-rule="evenodd" />
      <path id="rect71614" d="M0 3.76913L0 1.88457C0 1.36416 0.183992 0.919961 0.551976 0.551977C0.919961 0.183992 1.36416 0 1.88457 0L16.9611 0C17.4815 0 17.9257 0.183992 18.2937 0.551977C18.6617 0.919961 18.8457 1.36416 18.8457 1.88457L18.8457 13.192C18.8457 13.7124 18.6617 14.1566 18.2937 14.5245C17.9257 14.8925 17.4815 15.0765 16.9611 15.0765L1.88457 15.0765C1.36416 15.0765 0.919961 14.8925 0.551976 14.5245C0.183992 14.1566 0 13.7124 0 13.192L0 3.76913Z" fill="#9A9996" fill-rule="evenodd" transform="translate(15.077 1.256)" />
      <path id="path212891" d="M1.88457 6.28218C8.48055 6.28218 13.5061 6.28169 16.3329 10.3651C16.3329 10.3651 18.2175 9.42283 18.2175 9.42283C16.647 3.14075 11.6215 0 4.71142 0C4.71142 0 0 0 0 0C0 0 1.88457 6.28218 1.88457 6.28218Z" fill="#9A9996" fill-rule="evenodd" transform="translate(29.211 3.769)" />
      <path id="path71618" d="M1.88457 6.28218C8.51484 6.28218 13.5061 6.28169 16.3329 10.3651C16.3329 10.3651 18.2175 9.42283 18.2175 9.42283C16.647 3.14075 9.10874 0 2.19866 0C2.19866 0 0 0 0 0C0 0 1.88457 6.28218 1.88457 6.28218Z" fill="#C0BFBC" fill-rule="evenodd" transform="translate(29.211 1.256)" />
      <path id="rect71620" d="M0 3.65492L0 1.82746C0 1.32282 0.183992 0.892083 0.551976 0.53525C0.919961 0.178417 1.36416 0 1.88457 0L16.9611 0C17.4815 0 17.9257 0.178417 18.2937 0.53525C18.6617 0.892083 18.8457 1.32282 18.8457 1.82746L18.8457 8.22356C18.8457 8.7282 18.6617 9.15894 18.2937 9.51577C17.9257 9.8726 17.4815 10.051 16.9611 10.051L1.88457 10.051C1.36416 10.051 0.919961 9.8726 0.551976 9.51577C0.183992 9.15894 0 8.7282 0 8.22356L0 3.65492Z" fill="#C0BFBC" fill-rule="evenodd" transform="translate(15.077 1.256)" />
      <path id="rect152896" d="M0 6.28189L0 3.14095C0 2.2736 0.306654 1.53327 0.919962 0.919962C1.53327 0.306654 2.2736 0 3.14095 0C4.00829 0 4.74862 0.306654 5.36193 0.919962C5.97524 1.53327 6.28189 2.2736 6.28189 3.14095L6.28189 25.7557C6.28189 26.6231 5.97524 27.3634 5.36193 27.9767C4.74862 28.59 4.00829 28.8967 3.14095 28.8967C2.2736 28.8967 1.53327 28.59 0.919962 27.9767C0.306654 27.3634 0 26.6231 0 25.7557L0 6.28189Z" fill="url(#gradient_2)" fill-rule="evenodd" transform="translate(21.358 12.564)" />
      <path id="rect71622" d="M0 7.53826L0 3.76913C0 2.72832 0.367985 1.83992 1.10395 1.10395C1.83992 0.367985 2.72832 0 3.76913 0L7.53827 0C8.57908 0 9.46747 0.367985 10.2034 1.10395C10.9394 1.83992 11.3074 2.72832 11.3074 3.76913L11.3074 28.8967C11.3074 29.9375 10.9394 30.8259 10.2034 31.5619C9.46747 32.2978 8.57908 32.6658 7.53827 32.6658L3.76913 32.6658C2.72832 32.6658 1.83992 32.2978 1.10395 31.5619C0.367985 30.8259 0 29.9375 0 28.8967L0 7.53826Z" fill="url(#gradient_3)" fill-rule="evenodd" transform="translate(18.846 23.871)" />
      <path id="rect71624" d="M0 3.29784C0 2.38717 0.321972 1.60986 0.965916 0.965916C1.60986 0.321972 2.38717 0 3.29784 0L8.00955 0C8.92023 0 9.69754 0.321972 10.3415 0.965916C10.9854 1.60986 11.3074 2.38717 11.3074 3.29784C11.3074 4.20852 10.9854 4.98583 10.3415 5.62977C9.69754 6.27372 8.92023 6.59569 8.00955 6.59569L3.29784 6.59569C2.38717 6.59569 1.60986 6.27372 0.965916 5.62977C0.321972 4.98583 0 4.20852 0 3.29784L0 3.29784Z" fill="#C64600" fill-rule="evenodd" transform="translate(18.846 49.941)" />
      <path id="g310124" d="M0 0.628189Q0 0.367985 0.183992 0.18399Q0.367985 0 0.628189 0L4.39732 0Q4.65753 0 4.84152 0.18399C4.96418 0.306652 5.02551 0.45472 5.02551 0.628189Q5.02551 0.888393 4.84152 1.07238C4.71886 1.19505 4.57079 1.25638 4.39732 1.25638L0.628189 1.25638Q0.367985 1.25638 0.183992 1.07238Q0 0.888393 0 0.628189ZM0.183994 3.58515C0.0613308 3.46249 0 3.31442 0 3.14095Q0 2.88074 0.183994 2.69675Q0.367987 2.51276 0.628193 2.51276L4.39732 2.51276Q4.65752 2.51276 4.84152 2.69675C4.96418 2.81941 5.02551 2.96748 5.02551 3.14095Q5.02551 3.40115 4.84152 3.58515C4.71885 3.70781 4.57079 3.76914 4.39732 3.76914L0.628193 3.76914Q0.367987 3.76914 0.183994 3.58515ZM0 5.6537Q0 5.3935 0.183992 5.2095Q0.367987 5.02551 0.628191 5.02551L4.39732 5.02551Q4.65752 5.02551 4.84152 5.2095Q5.02551 5.3935 5.02551 5.6537C5.02551 5.82717 4.96418 5.97524 4.84152 6.0979Q4.65752 6.28189 4.39732 6.28189L0.628191 6.28189Q0.367987 6.28189 0.183992 6.0979C0.0613308 5.97524 0 5.82717 0 5.6537Z" fill="#8F3200" fill-rule="evenodd" transform="translate(21.987 41.46)" />
    </g>
</svg>