<?xml version="1.0" encoding="utf-8"?>
<svg width="128" height="128" viewBox="0 0 128 128" xmlns="http://www.w3.org/2000/svg">
<rect width="88" height="88" rx="8" x="20" y="20" transform="rotate(45 64 64)" fill="none" stroke="#808080" stroke-width="2"/>
<g id="dart" transform="translate(22 22)">
<path d="M17.132 52.5C17.132 52.5 2.765 38.134 2.765 38.134C1 36.4 0 34 0 31.5C0 30.4 0.63 28.636 1.1 27.63C1.1 27.63 14.37 0 14.37 0L17.132 52.5L17.132 52.5Z" fill="#01579B" transform="translate(0 14.37)"/>
<path d="M52 17.132C52 17.132 37.6 2.765 37.6 2.765C36.3253 1.5 33.7 0 31.5 0C29.6 0 27.735 0.4 26.525 1.1C26.525 1.1 0 14.37 0 14.37L52 17.132L52 17.132Z" fill="#40C4FF" transform="translate(14.37 0)"/>
<path d="M15 23.2L49.74 23.2L49.74 8.3L23.76 0L0 8.3L15 23.2Z" fill="#40C4FF" transform="translate(19.35 60.8)"/>
<path d="M0 44.76C0 49.2 0.555 50.3 2.765 52.5C2.765 52.5 5 54.7 5 54.7L54.7 54.7L30.4 27L0 0L0 44.76C0 44.76 0 44.76 0 44.76Z" fill="#29B6F6" transform="translate(14.37 14.37)"/>
<path d="M44.2125 0L0 0L54.7 54.7L69.633 54.7L69.633 20.45C69.633 20.45 52 2.765 52 2.765C49.47 0.2715 47.2612 0 44.2125 0C44.2125 0 44.2125 0 44.2125 0Z" fill="#01579B" transform="translate(14.37 14.37)"/>
</g></svg>
