<?xml version="1.0" encoding="utf-8"?>
<svg width="128" height="128" viewBox="0 0 128 128" xmlns="http://www.w3.org/2000/svg">
<path id="paper" d="M108 36L108 112C108 116.4 104.4 120 100 120L28 120C23.6 120 20 116.4 20 112L20 16C20 11.6 23.6 8 28 8L80 8Z" fill="#1A5FB4"/>
<path id="corner" d="M0 0L28 28L0 28Z" fill="#FFFFFF" opacity="0.3" transform="translate(80 8)"/>
<path id="spinner" d="M49.2389 38.9688C48.8681 38.7726 48.4897 38.6054 48.11 38.4563L48.382 38.4344C48.382 38.4344 45.961 37.3624 45.7498 29.5834C45.54 21.8037 48.057 20.4764 48.057 20.4764L47.6954 20.4923C49.597 19.5171 51.2324 17.9754 52.3116 15.9421C55.1241 10.6522 53.1115 4.08256 47.8207 1.27C42.528 -1.53967 35.9596 0.467487 33.1487 5.76204C32 7.93377 31.6652 10.32 32 12.574L31.9057 12.3836C31.9057 12.3836 32.5431 15.2063 25.9247 19.3147C19.3075 23.4252 16.3222 21.3785 16.3222 21.3785L16.5121 21.6591C16.3228 21.5421 16.1413 21.4224 15.9435 21.319C10.6514 18.5067 4.08121 20.516 1.27 25.8091C-1.54056 31.1017 0.47 37.67 5.76133 40.4828C9.70626 42.5766 14.3575 42 17.6353 39.367L17.5643 39.505C17.5643 39.505 19.974 37.5226 26.9165 41.25C32.3973 44.1913 33.2111 47.0742 33.3153 48.1568C33.172 52.1755 35.2668 56.1181 39.0568 58.1318C44.3481 60.945 50.9181 58.9332 53.7288 53.6417C56.5409 48.35 54.5316 41.78 49.24 38.9688ZM36.052 16.1464C33.0096 13.272 33.0765 8.19211 36.2336 4.7384C39.42 1.25116 44.5412 0.740116 47.6736 3.60116L47.6213 3.59751C46.2501 2.34483 42.9032 2.564 39.987 4.47442C40.3485 4.85748 40.5824 5.35658 40.608 5.92038C40.665 7.1773 39.6931 8.24 38.4363 8.29734C38.2383 8.3058 38.0463 8.28234 37.86 8.24181C37.8272 8.24647 37.7715 8.24 37.6886 8.21076C36.8615 7.933 36.2956 8.54324 36.1 8.80183C34.5808 11.685 34.5483 14.6982 36.0519 16.1464ZM37 40.3951C36.1272 40.7054 33.6223 41.05 28.3477 38.2201C22.6357 35.1533 21.7876 32.5915 21.6637 31.8224C21.745 30.8894 21.6932 29.96 21.5338 29.05L21.5687 29.1024C21.5687 29.1024 21.104 26.6104 27.6397 22.5513C33.4897 18.9207 36.1488 19.6426 36.6437 19.8324C36.9622 20.05 37.2923 20.25 37.6385 20.4346C38.2971 20.7841 38.9757 21.06 39.6628 21.2613C40.4675 22.0276 41.9481 24.2025 42.1 29.9215C42.259 35.6843 40.5666 37.9063 39.6436 38.6918C38.6924 39.1227 37.8032 39.7 37 40.3951ZM4.4573 25.1457C1.29963 28.6 1.234 33.6788 4.27494 36.5537C2.7717 35.1056 2.804 32.0922 4.3232 29.2092C4.51924 28.95 5.08567 28.3403 5.91288 28.6181C5.99524 28.6465 6.05077 28.6534 6.08298 28.649C6.27 28.6891 6.4624 28.7131 6.66 28.704C7.917 28.6468 8.88848 27.584 8.83178 26.3276C8.8057 25.764 8.572 25.264 8.212 24.8816C11.1265 22.9711 14.4738 22.751 15.845 24L15.8968 24C12.7653 21.147 7.64323 21.6578 4.4573 25.1457ZM37.9463 53.9C34.9051 51.0253 34.9709 45.9456 38.129 42.49C41.3141 39 46.4365 38.4926 49.5679 41.3541L49.5162 41.3499C48.1444 40.0972 44.7981 40.3168 41.8826 42.2268C42.2428 42.61 42.4767 43.11 42.5024 43.6723C42.56 44.93 41.5879 46 40.3318 46.0512C40.1339 46.06 39.94 46.036 39.7542 46C39.7214 46 39.667 45.9923 39.5842 45.9647C38.7564 45.6868 38.19 46.296 38 46.5555C36.4755 49.4383 36.4424 52.4521 37.9463 53.9Z" fill="#F6F5F4" fill-rule="evenodd" transform="translate(36 48)"/>
</svg>