<?xml version="1.0" encoding="utf-8"?>
<svg width="128" height="128" viewBox="0 0 128 128" xmlns="http://www.w3.org/2000/svg">
<defs>
<linearGradient id="gradient" gradientUnits="userSpaceOnUse" x1="0" y1="0" x2="0" y2="112">
<stop offset="0" stop-color="#E46829"/>
<stop offset="1" stop-color="#CD2032"/>
</linearGradient>
</defs>
<path d="M108 36L108 112C108 116.4 104.4 120 100 120L28 120C23.6 120 20 116.4 20 112L20 16C20 11.6 23.6 8 28 8L80 8Z" fill="url(#gradient)"/>
<path d="M0 0L28 28L0 28Z" fill="#F69923" transform="translate(80 8)"/>
<g fill="#F69923">
<path d="M22.4043 4.96714C24.3735 2.55943 26.0337 0.898785 27.0298 0.305523C29.082 -0.915668 30.8369 1.91832 30.8369 1.91832C30.8369 1.91832 32.2134 3.69761 31.5132 7.58775C29.5781 7.92173 27.2856 8.2396 25.4971 8.39293C27.2852 8.2401 29.5767 7.92369 31.5015 7.59948C31.4302 7.97935 31.3472 8.37095 31.2407 8.78599C31.1099 9.26011 30.9321 9.7938 30.7065 10.3749C30.3633 11.2762 29.9004 12.2845 29.3784 13.3045C28.8447 14.3602 28.2397 15.4154 27.6231 16.3763C27.4214 16.6961 27.2197 17.0047 27.0186 17.2894C26.2676 18.3339 25.4927 19.0536 23.7881 19.8495C23.8394 19.8407 23.8887 19.8343 23.9346 19.828C23.9463 19.8158 23.9585 19.8158 23.9702 19.8158C24.8594 19.6498 25.963 19.2938 26.6035 18.9144C26.6982 18.867 26.7808 18.8075 26.8521 18.7484C26.8286 18.9027 26.7808 19.1161 26.71 19.3768C26.6621 19.5545 26.5913 19.7567 26.52 19.9818C26.4966 20.0653 26.4604 20.1356 26.437 20.2191C26.3657 20.4208 26.2827 20.6341 26.188 20.8714C25.9981 21.3456 25.7607 21.8793 25.4644 22.4725C25.4053 22.6029 25.334 22.7333 25.2627 22.8758C25.2153 22.9706 25.1562 23.0536 25.0967 23.1488C24.9189 23.4452 24.7173 23.7181 24.5039 23.9667C24.4087 24.0736 24.314 24.1683 24.2192 24.2753C24.0649 24.4295 23.9111 24.5839 23.7446 24.7259C23.6382 24.8212 23.5312 24.9159 23.4126 24.9989C22.8672 25.4139 22.2383 25.7577 21.5029 26.0663C21.5508 26.0663 21.5864 26.0546 21.6216 26.0541C21.7759 26.0306 21.9302 26.0067 22.0723 25.9715C23.1636 25.7225 24.0767 25.224 24.6343 24.8446C23.6611 26.7894 22.3218 28.3671 20.1865 29.1854C20.3174 29.1615 20.4355 29.1498 20.5542 29.1258L20.9106 29.055C21.5747 28.9125 22.1797 28.7108 22.7012 28.4383C22.2978 29.6952 21.8706 30.8573 21.4321 31.9251C20.9219 33.1586 20.4004 34.2616 19.8306 35.2577C19.0718 36.598 18.2534 37.7367 17.3521 38.7093C15.395 40.8202 12.3594 42.5282 10.0698 42.8129C10.1177 42.8246 10.1528 42.8246 10.1885 42.8363C12.7383 43.2987 15.1572 42.6937 17.2451 40.5472C16.9961 41.034 16.7471 41.4725 16.498 41.8754C15.4424 43.5716 14.2446 44.6034 11.8604 45.6708C13.4853 45.766 14.3394 45.3861 15.0395 44.5087C14.9204 44.7577 14.79 44.995 14.6592 45.2201C13.1416 47.7347 10.1763 48.6004 6.74854 48.4462C7.51953 49.1581 7.92285 50.0829 7.98242 51.0672C7.46094 50.1185 6.90283 49.288 6.20312 48.9681C6.62988 47.7342 6.80859 47.1888 7.02148 46.5838C7.05762 46.4535 7.10449 46.3353 7.15234 46.2045C7.1521 46.1987 7.15497 46.1928 7.15788 46.187C7.16083 46.181 7.16382 46.175 7.16358 46.1688C7.47216 45.2674 7.79248 44.39 8.10107 43.536C8.16016 43.37 8.21973 43.2157 8.27881 43.0497C8.2793 43.0262 8.29102 43.0028 8.30273 42.9789C8.70605 41.8758 9.10937 40.7967 9.50049 39.7528C9.52441 39.7054 9.53613 39.6464 9.56054 39.5985C9.96338 38.5428 10.3545 37.5111 10.7456 36.515C11.1851 35.388 11.624 34.31 12.0508 33.2538C12.5015 32.1503 12.9521 31.0712 13.3911 30.0394C13.853 28.9481 14.3042 27.9047 14.7549 26.8963C15.1221 26.078 15.478 25.2831 15.834 24.5126C15.9531 24.2518 16.0713 24.0023 16.1899 23.7533C16.4272 23.2552 16.6523 22.7689 16.8779 22.2948C17.0796 21.8558 17.293 21.4286 17.4946 21.0018C17.5659 20.8597 17.625 20.7289 17.6963 20.5868C17.708 20.5751 17.7192 20.5506 17.7075 20.5038L17.7451 20.4994C18.2739 19.4422 18.7681 18.4437 19.2622 17.5033C19.8311 16.4003 20.3765 15.3919 20.8984 14.4432C21.5029 13.3402 22.0728 12.3441 22.6182 11.4305C22.6416 11.3714 22.6772 11.3236 22.7129 11.2645C23.3418 10.2206 23.9229 9.28404 24.4565 8.46568C26.3896 5.48863 27.6704 3.994 28.0977 3.53209C26.793 4.93151 25.4883 6.56773 24.2192 8.39439L24.2114 8.37974L22.4043 4.96714L22.4043 4.96714ZM24.207 8.38267L22.3926 4.96666C22.2617 5.13267 22.1201 5.29869 21.9771 5.47642C21.4556 6.12877 20.9097 6.82847 20.3525 7.57553C19.7241 8.41783 19.084 9.30748 18.4189 10.2445C17.8145 11.1102 17.1978 12.0233 16.5811 12.9603C16.0591 13.767 15.5376 14.5853 15.0156 15.4276C14.9917 15.4632 14.98 15.4867 14.9565 15.5223L14.9634 15.5365L14.9395 15.5834C14.9126 15.6307 14.8838 15.6805 14.85 15.724C14.3037 16.6253 13.7466 17.5384 13.2129 18.4754C12.6675 19.4242 12.1333 20.3851 11.6118 21.3695C11.1724 22.1991 10.7456 23.0296 10.32 23.8719C10.2354 24.038 10.1528 24.2157 10.0698 24.3817C9.55957 25.4374 9.085 26.4691 8.66992 27.4535C8.1958 28.5682 7.78027 29.6356 7.41309 30.6439C7.17578 31.308 6.95068 31.9486 6.74854 32.5653C6.583 33.0873 6.42871 33.621 6.2749 34.1424C5.91894 35.3763 5.62207 36.6097 5.37304 37.8431L5.37988 37.8568C5.35986 37.91 5.34863 37.9544 5.3374 38.0091C5.04052 39.5033 4.82715 40.9979 4.7207 42.492C4.7207 42.5155 4.71777 42.5417 4.71483 42.5678C4.71178 42.595 4.70874 42.6222 4.71 42.6463C3.97567 41.4644 1.99509 40.3063 1.99268 40.3104C3.41602 42.3739 4.49561 44.4134 4.64941 46.4178C3.89013 46.5721 2.84668 46.3465 1.64892 45.9081C2.90576 47.0585 3.84277 47.3788 4.21094 47.4618C3.06054 47.5331 1.8623 48.3275 0.652832 49.2406C2.41992 48.517 3.85498 48.2328 4.87451 48.4696C3.24952 53.0594 1.625 58.1361 0 63.5204C0.498047 63.3783 0.794918 63.034 0.960934 62.5833C1.24561 61.6107 3.17871 55.2064 6.19141 46.7977C6.27441 46.5604 6.36914 46.3231 6.45215 46.0741C6.4756 46 6.5 45.9437 6.524 45.8724C6.84359 44.9948 7.17545 44.0934 7.52 43.1683C7.6 42.9549 7.67382 42.7533 7.75732 42.5399L7.75683 42.5277L7.75 42.5145C8.05713 41.6766 8.38721 40.84 8.70605 39.9779C8.80029 39.7406 8.89551 39.5033 9 39.2542C9.40576 38.187 9.83252 37.1078 10.2593 36.0165C10.6748 34.973 11.1016 33.93 11.54 32.874C12 31.8182 12.4302 30.7626 12.8804 29.7074C13.3428 28.6278 13.8174 27.5604 14.3042 26.493C14.7783 25.4374 15.2759 24.3817 15.7627 23.3377C15.9404 22.9588 16.1187 22.5907 16.3081 22.2113C16.6167 21.5711 16.9365 20.9305 17.2573 20.2899C17.2686 20.2543 17.2925 20.2186 17.3047 20.1835L15.7349 17.0604L17.3164 20.1835C17.8384 19.1991 18.3486 18.2147 18.8579 17.2421C19.4155 16.21 19.9727 15.202 20.5303 14.2176C21.1118 13.1976 21.7046 12.2132 22.3096 11.2528L22.3164 11.2406C22.3521 11.181 22.3843 11.1288 22.4165 11.0868C23.0093 10.1493 23.6025 9.2484 24.207 8.38267L24.207 8.38267Z" transform="matrix(0.806 -0.592 0.6 0.806 20 64)"/>
<path d="M34.6865 4.64816C37.2852 2.27713 39.416 0.69162 40.6279 0.191559C43.125 -0.838593 44.6235 2.6218 44.6235 2.6218C44.6235 2.6218 45.8711 4.83853 44.4492 9.07706C42.2295 9.13309 39.6108 9.11209 37.5845 8.9899C39.6108 9.1124 42.2266 9.13498 44.4346 9.08835C44.2925 9.50143 44.1353 9.92575 43.9478 10.3728C43.7236 10.8823 43.437 11.4503 43.0894 12.0637C42.5566 13.0159 41.8735 14.0681 41.1221 15.1239C40.3511 16.2175 39.501 17.2995 38.6533 18.2732C38.375 18.5985 38.0986 18.9105 37.8262 19.1959C36.8145 20.2412 35.8296 20.919 33.7915 21.5301C33.8352 21.5292 33.8781 21.5294 33.9187 21.5297L33.9233 21.5297L33.9585 21.5299C33.9736 21.5186 33.9868 21.5205 34 21.5225C35.0229 21.4827 36.3154 21.2657 37.0947 20.9461C37.2085 20.9086 37.311 20.8559 37.4004 20.8012C37.3486 20.9698 37.2607 21.201 37.1382 21.4812C37.0557 21.6725 36.9429 21.8865 36.8262 22.127C36.7861 22.216 36.7349 22.2898 36.6943 22.3788C36.582 22.5927 36.4536 22.818 36.3086 23.0679C36.0186 23.5677 35.6655 24.1259 35.2363 24.7409C35.1484 24.8772 35.0474 25.0115 34.9443 25.1591C34.8755 25.2575 34.7954 25.3406 34.7139 25.437C34.4658 25.7397 34.1953 26.0118 33.9155 26.2555C33.792 26.36 33.6704 26.45 33.5464 26.5539C33.3486 26.7011 33.1509 26.8483 32.9414 26.9803C32.8066 27.07 32.6714 27.1576 32.5254 27.231C31.8467 27.606 31.0864 27.8877 30.213 28.112C30.2407 28.1162 30.2661 28.116 30.29 28.1158L30.3 28.1158C30.312 28.1157 30.33 28.1156 30.3477 28.1183C30.5239 28.117 30.7 28.1158 30.8657 28.1C32.1274 28 33.2314 27.5923 33.9175 27.2591C32.51 29.2761 30.751 30.8213 28.2275 31.3866C28.2954 31.3842 28.36 31.3842 28.4272 31.3842C28.5025 31.3843 28.5752 31.3844 28.6489 31.3806L29.0586 31.3593C29.8252 31.31 30.5352 31.183 31.1641 30.9632C30.5063 32.304 29.838 33.5345 29.1714 34.657C28.4 35.9536 27.6328 37.1023 26.8325 38.1237C25.7627 39.5 24.66 40.6386 23.4917 41.5789C20.9551 43.62 17.2769 45.0329 14.6685 44.9756C14.72 45 14.7593 45.0025 14.7974 45.0216C17.5752 45.9579 20.3823 45.6783 23.0708 43.6187C22.7119 44.122 22.3613 44.5722 22.0161 44.9826C20.5566 46.7072 19.047 47.6653 16.2036 48.4684C18 48.8413 19.0244 48.5568 19.9517 47.69C19.7778 47.9488 19.5928 48.193 19.41 48.4236C17.2983 50.9881 13.8379 51.4701 10.0273 50.7348C10.7734 51.6577 11.0728 52.7592 10.9775 53.8705C10.5493 52.7231 10.0615 51.7024 9.33105 51.2292C10.0117 49.9189 10.3003 49.3376 10.6382 48.6958C10.7 48.5556 10.7725 48.4306 10.8467 48.2924C10.8486 48.2792 10.8638 48.2679 10.8657 48.2545C11.36 47.2965 11.8613 46.367 12.3467 45.462C12.4404 45.2859 12.5322 45.123 12.6255 44.947C12.6294 44.9204 12.6465 44.9 12.6636 44.8712C13.2959 43.703 13.9243 42.5614 14.5337 41.4577C14.5684 41.4085 14.5913 41.3441 14.6255 41.295C15.25 40.18 15.8574 39.0894 16.459 38.0388C17.1353 36.8499 17.8037 35.7142 18.4546 34.6031C19.1401 33.4427 19.8218 32.3089 20.4824 31.2263C21.18 30.0811 21.855 28.9872 22.5244 27.933C23.0703 27.0775 23.5991 26.2467 24.124 25.4424C24.2993 25.17 24.4731 24.9107 24.6465 24.6514C24.9941 24.1329 25.3262 23.6258 25.6562 23.132C25.9536 22.6739 26.2627 22.2311 26.5586 21.7864C26.6616 21.6388 26.7495 21.5025 26.8521 21.3549C26.8677 21.3437 26.8848 21.3191 26.8794 21.264L26.9224 21.2656C27.6875 20.1694 28.4038 19.1327 29.1108 18.1612C29.9292 17.0203 30.7051 15.9817 31.4448 15.0056C32.3032 13.8706 33.1035 12.8492 33.8643 11.9168C33.9004 11.8543 33.9482 11.807 33.9976 11.7465C34.8726 10.6817 35.6768 9.72867 36.4082 8.9C39.06 5.8865 40.7393 4.42447 41.293 3.97696C39.603 5.32889 37.8745 6.94632 36.1543 8.78189L36.1484 8.76486L34.6865 4.64816L34.6865 4.64816ZM36.1431 8.76669L34.6733 4.64621C34.5 4.8106 34.3135 4.97305 34.125 5.14877C33.434 5.79306 32.7085 6.48654 31.962 7.23123C31.1206 8.07034 30.2578 8.9606 29.36 9.9C28.5415 10.7697 27.7 11.69 26.8574 12.6377C26.1411 13.4545 25.4224 14.2846 24.7 15.1413C24.668 15.1772 24.651 15.2018 24.6182 15.2377L24.624 15.2548C24.58 15.3135 24.5283 15.3873 24.466 15.4458C23.707 16.365 22.9336 17.2954 22.1821 18.2563C21.416 19.2285 20.6611 20.216 19.9155 21.2319C19.2881 22.089 18.6738 22.9479 18.0576 23.8202C17.9375 24 17.8154 24.1778 17.6953 24.35C16.9512 25.4475 16.251 26.5243 15.6245 27.5578C14.9106 28.7275 14.271 29.8539 13.7 30.9217C13.32 31.626 12.9619 32.3057 12.6353 32.9628C12.3638 33.5195 12.1035 34.0915 11.8452 34.6501C11.2446 35.9721 10.71 37.3037 10.229 38.6432L10.2344 38.6588C10.2026 38.7152 10.1831 38.7635 10.1616 38.8232C9.58447 40.4468 9.1001 42.0841 8.73535 43.7389C8.72754 43.792 8.7046 43.8564 8.69678 43.9095C8.0708 42.4667 6.04398 40.8452 6.04102 40.8488C7.29492 43.3919 8.16748 45.8521 8.01123 48.1205C7.13623 48.1684 6.00537 47.7448 4.73682 47.057C5.95508 48.5509 6.95068 49.063 7.34863 49.2163C6.04932 49.1071 4.57861 49.7997 3.07471 50.623C5.17139 50.1035 6.82373 50 7.92627 50.4536C5.35449 55.3233 2.70264 60.7372 0 66.5C0.581055 66.4186 0.969238 66.0824 1.23 65.6053C1.70703 64.5637 4.92236 57.7139 9.67432 48.8C9.80615 48.5465 9.95117 48.2967 10.085 48.0315C10.123 47.9558 10.1597 47.8933 10.1978 47.8176C10.7002 46.888 11.2197 45.9338 11.7568 44.955C11.8848 44.73 12 44.5158 12.1255 44.2906L12.1274 44.2773L12.1221 44.261C12.603 43.3741 13.11 42.491 13.608 41.5794C13.7529 41.33 13.8984 41.08 14.0454 40.8166C14.6851 39.6902 15.3403 38.5525 15.9971 37.4015C16.6328 36.3017 17.2822 35.2038 17.9468 34.0946C18.6108 32.9854 19.2886 31.8782 19.9663 30.7709C20.6611 29.64 21.3672 28.5224 22.0869 27.4077C22.791 26.3044 23.522 25.2049 24.2373 24.1168C24.5 23.7213 24.7583 23.339 25.0332 22.9455C25.4834 22.2794 25.9468 21.6153 26.41 20.9511C26.4292 20.9132 26.4619 20.8773 26.481 20.8394L25.2373 17.0866L26.4941 20.8414C27.2397 19.8255 27.9722 18.8076 28.7026 17.803C29.5 16.7398 30.2852 15.7032 31.0708 14.693C31.8887 13.6471 32.7139 12.6428 33.55 11.667C33.6 11.6065 33.6475 11.546 33.6953 11.4987C34.5127 10.5476 35.3242 9.63626 36.1431 8.76669L36.1431 8.76669Z" transform="translate(46.57 48.6)"/>
</g></svg>