<?xml version="1.0" encoding="utf-8"?>
<svg width="128" height="128" viewBox="0 0 128 128" xmlns="http://www.w3.org/2000/svg">
<path id="paper" d="M108 36L108 112C108 116.4 104.4 120 100 120L28 120C23.6 120 20 116.4 20 112L20 16C20 11.6 23.6 8 28 8L80 8Z" fill="#246ABE"/>
<path id="corner" d="M0 0L28 28L0 28Z" fill="#FFFFFF" opacity="0.3" transform="translate(80 8)"/>
<g fill="#FFFFFF" transform="translate(34 58.777)">
<path id="O" d="M35 35C22.5 35 11.8767 28.74 11.8767 21.2391C11.8767 13.74 21.25 7.5 33.75 7.5C49.537 7.5 56.853 13.573 56.853 21.073C56.853 28.573 48.7887 35 35 35C35 35 35 35 35 35ZM30 0C13.75 0 0 8.75 0 20C0 30.6251 13.6669 39.446 29.917 39.446C46.167 39.446 60 31.25 60 20C60 8.75 46.25 0 30 0C30 0 30 0 30 0Z"/>
<path id="R" d="M0 2.86e-06L0 33.0724L10 33.0724C10 33.0724 10 20.2111 10 20.2111C12.493 20.2111 14 19.6655 15.6162 22.661C18.1148 26.95 21.24 33.0724 21.24 33.0724C21.24 33.0724 33.1064 33.0724 33.1064 33.0724C33.1064 33.0724 25.6106 20.8235 25 20.2111C23.834 19 22.4873 19 20.6135 18.3736C24.3614 17.7612 27.8555 16.206 29.07 12.8742C30.1322 9.812 30 5.917 27.731 3.3047C25.76 1.23773 23.7368 0 18.74 0C18.74 0 0 2.86102e-06 0 2.861e-06ZM10 6.88782C10 6.88782 16.5532 6.88782 16.5532 6.88782C18.1085 6.88782 19.364 8.42 19.364 9.95C19.364 11.48 18.1148 13 16.5532 13C16.5532 13 10 13 10 13L10 6.88782Z" transform="translate(24.831 12.147)"/>
</g></svg>