<?xml version="1.0" encoding="utf-8"?>
<svg width="128" height="128" viewBox="0 0 128 128" xmlns="http://www.w3.org/2000/svg">
<path id="paper" d="M108 36L108 112C108 116.4 104.4 120 100 120L28 120C23.6 120 20 116.4 20 112L20 16C20 11.6 23.6 8 28 8L80 8Z" fill="#0080CD"/>
<path id="corner" d="M0 0L28 28L0 28Z" fill="#00549E" transform="translate(80 8)"/>
<g id="C++" fill="#FFFFFF" transform="translate(34 46)">
<path id="+" d="M7 10L7 7L10 7L10 3L7 3L7 0L3 0L3 3L0 3L0 7L3 7L3 10Z" transform="translate(55 25)"/>
<path id="+" d="M7 10L7 7L10 7L10 3L7 3L7 0L3 0L3 3L0 3L0 7L3 7L3 10Z" transform="translate(43 25)"/>
<path id="C" d="M30 60C13.458 60 0 46.542 0 30C0 13.458 13.458 0 30 0C40.674 0 50.63 5.744 56 15C56 15 43 22.5 43 22.5C40.32 17.8753 35.3382 15 30 15C21.73 15 15 21.73 15 30C15 38.27 21.73 45 30 45C35.34 45 40.32 42.125 43 37.5C43 37.5 56 45 56 45C50.63 54.256 40.675 60 30 60C30 60 30 60 30 60Z"/>
</g></svg>