<?xml version="1.0" encoding="utf-8"?>
<svg width="128" height="128" viewBox="0 0 128 128" xmlns="http://www.w3.org/2000/svg">
<path d="M108 36L108 112C108 116.4 104.4 120 100 120L28 120C23.6 120 20 116.4 20 112L20 16C20 11.6 23.6 8 28 8L80 8Z" fill="#04A0A5"/>
<path d="M0 0L28 28L0 28Z" fill="#FFFFFF" opacity="45%" transform="translate(80 8)"/>
<g transform="translate(0 24)">
<path d="M0 14C0 6.3 6.3 0 14 0C33 0 33 28 52 28C59.7 28 66 21.7 66 14C66 6.3 59.7 0 52 0C33 0 33 28 14 28C6.3 28 0 21.7 0 14Z" fill="none" stroke="#FFFFFF" stroke-width="6" transform="translate(31 50)"/>
<g fill="#FFFFFF">
<rect width="12" height="3" transform="translate(40 62)"/>
<path d="M3 0L6 0L6 3L9 3L9 6L6 6L6 9L3 9L3 6L0 6L0 3L3 3Z" transform="translate(77 59)"/>
</g></g></svg>
