<?xml version="1.0" encoding="utf-8"?>
<svg width="128" height="128" viewBox="0 0 128 128" xmlns="http://www.w3.org/2000/svg">
<path d="M108 36L108 112C108 116.4 104.4 120 100 120L28 120C23.6 120 20 116.4 20 112L20 16C20 11.6 23.6 8 28 8L80 8Z" fill="#00979D"/>
<path d="M0 0L28 28L0 28Z" fill="#FFFFFF" opacity="0.4" transform="translate(80 8)"/>
<g fill="#FFFFFF" transform="translate(31 73)">
<path d="M18 0C8.05884 0 0 8.0589 0 18C0 27.9411 8.05884 36 18 36C24.261 36 29.7753 32.8035 33 27.9534C36.2247 32.8035 41.739 36 48 36C57.9412 36 66 27.9411 66 18C66 8.0589 57.9412 0 48 0C41.739 0 36.2247 3.19653 33 8.04663C29.7753 3.19653 24.261 0 18 0L18 0ZM26.4852 9.51471C28.8284 11.8578 30 14.6863 30 18C30 21.3137 28.8284 24.1422 26.4852 26.4853C24.1421 28.8284 21.3137 30 18 30C14.6863 30 11.8579 28.8284 9.51477 26.4853C7.17163 24.1422 6 21.3137 6 18C6 14.6863 7.17163 11.8578 9.51477 9.51471C11.8579 7.17157 14.6863 6 18 6C21.3137 6 24.1421 7.17157 26.4852 9.51471L26.4852 9.51471ZM39.5148 26.4853C37.1716 24.1422 36 21.3137 36 18C36 14.6863 37.1716 11.8578 39.5148 9.51471C41.8579 7.17157 44.6863 6 48 6C51.3137 6 54.1421 7.17157 56.4852 9.51471C58.8284 11.8578 60 14.6863 60 18C60 21.3137 58.8284 24.1422 56.4852 26.4853C54.1421 28.8284 51.3137 30 48 30C44.6863 30 41.8579 28.8284 39.5148 26.4853L39.5148 26.4853Z" fill-rule="evenodd"/>
<path d="M5 0L11 0L11 5L16 5L16 11L11 11L11 16L5 16L5 11L0 11L0 5L5 5Z" transform="translate(40 10)"/>
<path d="M16 0L16 6L0 6L0 0Z" transform="translate(10 15)"/>
</g></svg>