<?xml version="1.0" encoding="UTF-8"?>
<svg width="128" height="128" viewBox="0 0 128 128" xmlns="http://www.w3.org/2000/svg">
<path id="paper" d="M108 36L108 112C108 116.4 104.4 120 100 120L28 120C23.6 120 20 116.4 20 112L20 16C20 11.6 23.6 8 28 8L80 8Z" fill="#1B71D8"/>
<path id="corner" d="M0 0L28 28L0 28Z" fill="#5BA7FF" transform="translate(80 8)"/>
<g fill="none" stroke="#FFFFFF" transform="translate(0 12)">
<g stroke-width="2" opacity="0.6" stroke-dasharray="2 2">
<line x1="47" y1="36" x2="47" y2="92"/>
<line x1="81" y1="36" x2="81" y2="92"/>
<rect width="56" height="23" rx="10" x="36" y="69"/>
</g><g stroke-width="4">
<rect width="56" height="56" rx="10" x="36" y="36"/>
<rect width="56" height="24" rx="10" x="36" y="36" stroke-dasharray="4 4"/>
</g></g>
</svg>
