<?xml version="1.0" encoding="utf-8"?>
<svg width="128" height="128" viewBox="0 0 128 128" xmlns="http://www.w3.org/2000/svg">
<path id="paper" d="M108 36L108 112C108 116.4 104.4 120 100 120L28 120C23.6 120 20 116.4 20 112L20 16C20 11.6 23.6 8 28 8L80 8Z" fill="#007ACC"/>
<path id="corner" d="M0 0L28 28L0 28Z" fill="#FFFFFF" opacity="0.4" transform="translate(80 8)"/>
<path id="TS" d="M33.2429 32.7253C33.2429 32.7253 39.9762 28.827 39.9762 28.827C41.7489 31.7216 44.0528 33.848 48.1283 33.848C51.5551 33.848 53.74 32.1348 53.74 29.7718C53.74 26.9366 51.4953 25.9322 47.7147 24.2787C47.7147 24.2787 45.6478 23.3918 45.6478 23.3918C39.6813 20.8526 35.7237 17.6626 35.7237 10.93C35.7237 4.72588 40.4492 0 47.8333 0C53.0906 0 56.8712 1.8315 59.5882 6.61616C59.5882 6.61616 53.15 10.7515 53.15 10.7515C51.7311 8.2115 50.2 7.20741 47.833 7.20741C45.4109 7.20741 43.875 8.74329 43.875 10.7515C43.875 13.2323 45.4109 14.2371 49 15.773C49 15.773 51.0223 16.6588 51.0223 16.6588C58.052 19.6718 62.0096 22.7432 62.0096 29.6539C62.0096 37.0975 56.1617 41.173 48.3053 41.173C40.6263 41.173 35.6642 37.5107 33.2425 32.7257C33.2425 32.7257 33.2429 32.7253 33.2429 32.7253ZM12 40.5911L12 7.7L0 7.7L0 0.473L32 0.470001L32 7.7L20 7.7L20 40.705L12 40.5911Z" fill="#E6E6E6" transform="translate(39 72)"/>
</svg>