<?xml version="1.0" encoding="utf-8"?>
<svg width="128" height="128" viewBox="0 0 128 128" xmlns="http://www.w3.org/2000/svg">
<path id="paper" d="M108 36L108 112C108 116.4 104.4 120 100 120L28 120C23.6 120 20 116.4 20 112L20 16C20 11.6 23.6 8 28 8L80 8Z" fill="#505050"/>
<path id="corner" d="M0 0L28 28L0 28Z" fill="#808080" transform="translate(80 8)"/>
<path id="meson" d="M28.2245 0C10.8723 9.8 0.1 28.1531 0 48.1C18.154 58 39.4714 57.652 56 48.1958C56 48.148 56 48.1 56 48.0523C55.98 28.22 45.3921 9.90482 28.225 3.8147e-06C28.225 3.8147e-06 28.2245 0 28.2245 0ZM37.566 21.2286C40.1387 22.977 39.7572 27.186 39.343 30.068C38.8155 33.2426 35.7717 38.462 31.8173 41.8679C32.3288 42.6 32.628 43.5044 32.6237 44.47C30.1732 45.7067 27.7417 44.31 24.8 41.791C21.8602 39.2726 18.6884 34.2272 17.636 29.0412C16.7023 29.14 15.7463 28.9314 14.9263 28.4142C15.14 25.5062 18.2268 23.78 20.962 22.76C23 22 27.4332 21.6143 31.616 22.1982C33.046 22.4 34.4466 22.711 35.7125 23.1608C36.1 22.3474 36.7416 21.6636 37.566 21.2303C37.566 21.23 37.566 21.2286 37.566 21.2286Z" fill="#E6E6E6" transform="translate(36 48)"/>
</svg>