<?xml version="1.0" encoding="utf-8"?>
<svg width="128" height="128" viewBox="0 0 128 128" xmlns="http://www.w3.org/2000/svg">
<path d="M108 36L108 112C108 116.4 104.4 120 100 120L28 120C23.6 120 20 116.4 20 112L20 16C20 11.6 23.6 8 28 8L80 8Z" fill="#663399"/>
<path d="M0 0L28 28L0 28Z" fill="#FFFFFF" opacity="0.3" transform="translate(80 8)"/>
<path id="CSS" d="M49.9117 33C47.0645 33 44.887 32.1666 43.3628 30.5C41.8553 28.8262 41.0703 26.437 41 23.3165C41 23.3165 47.1357 23.3165 47.1357 23.3165C47.1708 26.0762 48.1395 27.4595 50.0435 27.4595C51.014 27.4595 51.7014 27.1515 52.1 26.5426C52.4855 25.9354 52.6885 24.9647 52.6885 23.6342C52.6885 22.5764 52.424 21.6947 51.9123 21C51.2181 20.1706 50.327 19.5309 49.3209 19.1382C49.3209 19.1382 47.0469 18.0444 47.0469 18.0444C45.02 17.0746 43.5474 15.93 42.6394 14.5886C41.7577 13.2572 41.3173 11.389 41.3173 9C41.3173 6.33 42.0935 4.16064 43.6353 2.49392C45.222 0.82808 47.3818 0 50.1402 0C52.8037 0 54.8659 0.819283 56.32 2.45C57.8 4.09024 58.5763 6.43456 58.6387 9.50224C58.6387 9.50224 52.7325 9.50224 52.7325 9.50224C52.7676 8.49904 52.5655 7.50288 52.1418 6.59296C51.8077 5.92416 51.1546 5.58888 50.185 5.58888C48.4577 5.58888 47.5936 6.61937 47.5936 8.67329C47.5936 9.71432 47.8046 10.5248 48.2283 11.1417C48.8386 11.8242 49.6033 12.3504 50.4584 12.6764C50.4584 12.6764 52.6358 13.6374 52.6358 13.6374C54.8835 14.6687 56.5053 15.9298 57.5 17.4548C58.506 18.971 59 21 59 23.5374C59 26.5786 58.2062 28.9142 56.5932 30.5448C54.989 32.1754 52.7589 33 49.9125 33C49.9125 33 49.9117 33 49.9117 33ZM29.9121 33C27.0639 33 24.8873 32.1666 23.3621 30.5C21.8545 28.8262 21.0703 26.437 21 23.3165C21 23.3165 27.1351 23.3165 27.1351 23.3165C27.1702 26.0762 28.1399 27.4595 30.0448 27.4595C31.0136 27.4595 31.7 27.1515 32.0887 26.5426C32.486 25.9354 32.6794 24.9647 32.6794 23.6342C32.6794 22.5764 32.4245 21.6947 31.9129 21C31.2186 20.1706 30.3274 19.5309 29.3213 19.1382C29.3213 19.1382 27.0472 18.0444 27.0472 18.0444C25.0191 17.0746 23.5476 15.93 22.6395 14.5886C21.7578 13.2572 21.3173 11.389 21.3173 9C21.3173 6.33 22.0927 4.16064 23.6355 2.49392C25.2222 0.828079 27.3821 0 30.1407 0C32.8034 0 34.8657 0.819283 36.3118 2.45C37.8106 4.09024 38.5772 6.43456 38.6387 9.50224C38.6387 9.50224 32.7331 9.50224 32.7331 9.50224C32.7682 8.49904 32.566 7.50288 32.1423 6.59296C31.8074 5.92416 31.1551 5.58888 30.1855 5.58888C28.4572 5.58888 27.5931 6.61937 27.5931 8.67329C27.5931 9.71432 27.8049 10.5248 28.2278 11.1417C28.8381 11.8242 29.6028 12.3504 30.458 12.6764C30.458 12.6764 32.6355 13.6374 32.6355 13.6374C34.8833 14.6687 36.5052 15.9298 37.5021 17.4548C38.5 18.971 39 21 39 23.5374C39 26.5786 38.2 28.9142 36.594 30.5448C35 32.1754 32.7594 33 29.9121 33C29.9121 33 29.9121 33 29.9121 33ZM9.09172 33C6.30414 33 4.09167 32.238 2.45166 30.7196C0.811653 29.211 0 26.9417 0 23.9401C0 23.9401 0 9.10952 0 9.10952C0 6.12648 0.86441 3.86606 2.59236 2.31241C4.34756 0.776382 6.64885 0 9.4971 0C12.2574 0 14.4347 0.794014 16.0483 2.36529C17.6804 3.94537 18.5 6.29392 18.5 9.42766C18.5 9.42766 18.5 10.6015 18.5 10.6015L12 10.6015C12 10.6015 12 9.463 12 9.463C12 8.25383 11.7368 7.362 11.225 6.7795C10.7717 6.18872 10.0638 5.85072 9.32035 5.87C8.26247 5.87 7.51326 6.23135 7.08941 6.96456C6.63827 7.97884 6.43566 9.08653 6.5 10.1952C6.5 10.1952 6.5 23.0844 6.5 23.0844C6.5 25.7767 7.443 27.1453 9.32123 27.1717C10.2023 27.1717 10.8636 26.8536 11.3227 26.2182C11.8212 25.4156 12.0584 24.4775 12 23.5339C12 23.5339 12 22.5724 12 22.5724L18.5 22.5724C18.5 22.5724 18.5 23.5788 18.5 23.5788C18.5 25.671 18.0946 27.4184 17.2742 28.8135C16.4943 30.1749 15.324 31.2699 13.915 31.956C12.4104 32.6758 10.7586 33.0325 9.09171 33C9.09171 33 9.09172 33 9.09172 33Z" fill="#FFFFFF" transform="translate(42 80)"/>
</svg>