<?xml version="1.0" encoding="utf-8"?>
<svg width="128" height="128" viewBox="0 0 128 128" xmlns="http://www.w3.org/2000/svg">
<g id="sheet" stroke="#707070" stroke-width="2" stroke-linejoin="round" transform="translate(19 7)">
<path id="paper" fill="#F6F5F4" d="M61.5 0L90 28.5L90 105C90 109.97 85.97 114 81 114L9 114C4.02876 114 0 109.97 0 105L0 9C0 4.02876 4.02876 0 9 0Z"/>
<path id="corner" fill="#C8C8C8" d="M0 0L28 28L0 28Z" transform="translate(62 0)"/>
</g><g fill="#5A5A5A" transform="translate(36 48)">
<rect width="26" height="2" x="30"/>
<rect width="26" height="2" x="30" y="8"/>
<rect width="26" height="2" x="30" y="16"/>
<rect width="26" height="2" x="30" y="24"/>
<rect width="56" height="2" y="32"/>
<rect width="56" height="2" y="40"/>
<rect width="56" height="2" y="48"/>
<rect width="28" height="2" y="56"/>
</g><path id="copyright" d="M0 13C0 5.82 5.82 0 13 0C20.18 0 26 5.82 26 13C26 20.1797 20.18 26 13 26C5.82 26 0 20.18 0 13ZM3 13C3 7.47715 7.47715 3 13 3C18.5228 3 23 7.47715 23 13C23 18.5228 18.5228 23 13 23C7.47715 23 3 18.5228 3 13ZM6 13C6 9.134 9.134 6 13 6C16.171 6 18.8496 8.10851 19.71 11L16.465 11C15.7733 9.8044 14.4806 9 13 9C10.791 9 9 10.791 9 13C9 15.2091 10.791 17 13 17C14.4806 17 15.7733 16.1956 16.4649 15L19.7101 15C18.8496 17.8915 16.171 20 13 20C9.134 20 6 16.866 6 13L6 13Z" fill="#505050" fill-rule="evenodd" transform="translate(36 48)"/>
</svg>