<?xml version="1.0" encoding="utf-8"?>
<svg width="128" height="128" viewBox="0 0 128 128" xmlns="http://www.w3.org/2000/svg">
<defs><filter id="blur"><feGaussianBlur stdDeviation="2"/></filter></defs>
<path d="M88 28L88 104C88 108.4 84.4 112 80 112L8 112C3.6 112 0 108.4 0 104L0 8C0 3.6 3.6 0 8 0L60 0Z" fill="#5D87BF" transform="translate(20 8)"/>
<path d="M0 0L28 28L0 28Z" fill="#000000" opacity="30%" transform="translate(80 8)"/>
<path d="M36 0L18 2L0 54L16 54Z" fill="#E6E6E6" transform="translate(56 50)"/>
<path d="M0 0L1 0L9 23L8 23Z" fill="#000000" filter="url(#blur)" transform="translate(63 81)"/>
<path d="M0 0L18 2L36 54L20 54Z" fill="#FFFFFF" transform="translate(36 50)"/>
</svg>
