<?xml version="1.0" encoding="utf-8"?>
<svg width="128" height="128" viewBox="0 0 128 128" xmlns="http://www.w3.org/2000/svg">
<path id="paper" d="M108 36L108 112C108 116.4 104.4 120 100 120L28 120C23.6 120 20 116.4 20 112L20 16C20 11.6 23.6 8 28 8L80 8Z" fill="#00ACD7"/>
<path id="corner" d="M0 0L28 28L0 28Z" fill="#000000" opacity="0.3" transform="translate(80 8)"/>
<g id="go" fill="#F6F5F4" transform="translate(34 74)">
<path id="O" d="M16 0C7.16344 0 0 7.16344 0 16C0 24.8366 7.16344 32 16 32C24.8366 32 32 24.8366 32 16C32 7.16344 24.8366 0 16 0L16 0ZM8 16C8 11.5817 11.5817 8 16 8C20.4183 8 24 11.5817 24 16C24 20.4183 20.4183 24 16 24C11.5817 24 8 20.4183 8 16Z" fill-rule="evenodd" transform="translate(28 0)"/>
<path id="G" d="M21.6569 10.3432L27.3137 4.6863C24.6962 2.06882 21.2522 0.44 17.5682 0.0770566C13.8844 -0.285736 10.1887 0.64 7.111 2.6965C4.0331 4.7531 1.76356 7.8132 0.7 11.3555C-0.385614 14.8977 -0.1986 18.703 1.2179 22.123C2.63453 25.543 5.19312 28.3658 8.45765 30.1107C11.7223 31.8557 15.5 32.415 19.1215 31.6926C22.752 30.9704 26.02 29.0117 28.3682 26.1503C30.7166 23.3 32 19.7017 32 16L32 13L16 13L16 19L23.4163 19C23.115 19.7447 22.7012 20.4451 22.1841 21.0752C21.01 22.506 19.376 23.5 17.561 23.8463C15.7455 24.2074 13.8611 23.928 12.229 23.0554C10.5966 22.183 9.31727 20.7715 8.61 19.0615C7.9 17.3515 7.80726 15.449 8.3445 13.6778C8.88172 11.9066 10.0165 10.3766 11.5554 9.35C13.1 8.32 14.9423 7.85715 16.7842 8.03854C18.6261 8.21994 20.35 9.03445 21.657 10.3432L21.657 10.3432Z"/>
</g></svg>