<?xml version="1.0" encoding="utf-8"?>
<svg width="128" height="128" viewBox="0 0 128 128" xmlns="http://www.w3.org/2000/svg">
<path id="paper" d="M108 36L108 112C108 116.4 104.4 120 100 120L28 120C23.6 120 20 116.4 20 112L20 16C20 11.6 23.6 8 28 8L80 8Z" fill="#FBBC00"/>
<path id="corner" d="M0 0L28 28L0 28Z" fill="#CC8100" transform="translate(80 8)"/>
<path id="JS" d="M29.243 32.7253C29.243 32.7253 35.9762 28.827 35.9762 28.827C37.7489 31.7216 40.0527 33.848 44.1283 33.848C47.5551 33.848 49.74 32.1348 49.74 29.7718C49.74 26.9366 47.4953 25.9322 43.7147 24.2787C43.7147 24.2787 41.6478 23.3918 41.6478 23.3918C35.6813 20.8526 31.7237 17.6626 31.7237 10.9285C31.7237 4.72588 36.45 0 43.8333 0C49.0906 0 52.8712 1.8315 55.5882 6.61616C55.5882 6.61616 49.15 10.7515 49.1491 10.7515C47.7311 8.2115 46.2 7.20741 43.833 7.20741C41.411 7.20741 39.875 8.7433 39.875 10.7515C39.875 13.2323 41.411 14.2371 44.955 15.773C44.955 15.773 47.0223 16.6588 47.0223 16.6588C54.052 19.6718 58 22.7432 58 29.654C58 37.0975 52.1617 41.173 44.3053 41.173C36.6263 41.173 31.6642 37.5107 29.2425 32.7257C29.2425 32.7257 29.243 32.7253 29.243 32.7253ZM0 33.6115C0 33.6115 6.73441 29.536 6.73441 29.536C8.03378 31.8395 9.2156 33.7886 12 33.7886C14.7678 33.7886 16.4814 32.7257 16.4814 28.6C16.4814 28.6 16.4814 0.473 16.4814 0.473L24.751 0.473C24.751 0.473 24.751 28.7079 24.751 28.7079C24.751 37.2731 19.73 41.172 12.4049 41.172C5.78944 41.172 1.94941 37.7458 0 33.6108C0 33.6 0 33.6115 0 33.6115Z" fill="#000000" transform="translate(43.138 71.928)"/>
</svg>