<?xml version="1.0" encoding="utf-8"?>
<svg width="128" height="128" viewBox="0 0 128 128" xmlns="http://www.w3.org/2000/svg">
<path id="paper" d="M108 36L108 112C108 116.4 104.4 120 100 120L28 120C23.6 120 20 116.4 20 112L20 16C20 11.6 23.6 8 28 8L80 8Z" fill="#505050"/>
<path id="corner" d="M0 0L28 28L0 28Z" fill="#808080" transform="translate(80 8)"/>
<g id="systemd" transform="translate(30 60)">
<g fill="#D0D0D0">
<path d="M0 0L12 0L12 36L0 36L0 30L6 30L6 6L0 6Z" transform="translate(56 0)"/>
<path d="M12 0L0 0L0 36L12 36L12 30L6 30L6 6L12 6Z"/>
</g><g fill="#16FEA1">
<path d="M18 0L18 24L0 12Z" transform="translate(36 6)"/>
<circle r="10" cx="22" cy="18"/>
</g></g></svg>