<?xml version="1.0" encoding="utf-8"?>
<svg width="128" height="128" viewBox="0 0 128 128" xmlns="http://www.w3.org/2000/svg">
<path d="M0 104L0 28L28 0L80 0C84.4 0 88 3.6 88 8L88 84L60 112L8 112C3.6 112 0 108.4 0 104Z" fill="#00CC5C" transform="translate(20 8)"/>
<path d="M28 0L0 28L28 28Z" fill="#000000" opacity="24%" transform="translate(20 8)"/>
<g fill="#FFFFFF"><g transform="translate(36 48)">
<rect width="16" height="2" x="40"/>
<rect width="16" height="2" x="40" y="8"/>
<rect width="16" height="2" x="40" y="16"/>
<rect width="16" height="2" x="40" y="24"/>
<rect width="56" height="2" y="32"/>
<rect width="56" height="2" y="40"/>
<rect width="48" height="2" y="48"/>
<rect width="40" height="2" y="56"/>
</g><path d="M3 0L7 0L7 6L11 6L11 10L7 10L7 19C7 20 7 20.6 7.3 21.4C7.6 22 8 22.2 8.6 22.2C9.66 22.2 11 22 11 22L11 25.5C9.5 25.9 9 26 7 26C6 26 4.3 25.6 3.5 24C3 22.7 3 20.5 3 19L3 10L0 10L0 6L3 6Z" transform="translate(61 48)"/>
<path d="M11.3 0C8.9 0 6.377 0.3 4.34 1.62C2.6 2.714 1.57577 4.57554 1 6.44C0.15 8.92 0 11.55 0 14.13C0 16.523 0.25 19 1 21.23C1.526 22.57 2.233 23.9 3.36 24.85C4.824 26.1 6.76 26.65 8.66 26.87C10.2437 27 11.86 27.1 13.4343 26.8L16.92 32.4L21 30.566L17.732 25.4537C19.24 24.4 20.4 22.9 21 21.2C21.9 18.6735 22 16 22 13.352C22 10.74 21.7 8.1 20.72 5.6234C20.1265 4.12553 19.2336 2.6774 17.86 1.74C16 0.417 13.5744 0 11.3 0ZM14 4.46C12.6 4 11 3.92 9.5 4.1C8.334 4.232 7.163 4.614 6.322 5.354C5.3555 6.22 4.9 7.4 4.5525 8.54C3.76 11.5767 3.9 14.74 4.5 17.8C4.67226 18.757 4.94 19.72 5.446 20.6C5.85776 21.3367 6.563 21.94 7.4 22.32C8.82 23 10.5 23.1 12 23C13.552 22.8655 15.11 22.433 16.12 21.425C17.1156 20.42 17.4587 19.1 17.7 17.8C18 15.7 18.1 13.5 17.9 11.3415C17.7464 9.724 17.4427 8.1 16.65 6.6C16.133 5.6244 15.155 4.852 14 4.457Z" fill-rule="evenodd" transform="translate(36 46)"/>
</g></svg>
