<?xml version="1.0" encoding="utf-8"?>
<svg width="128" height="128" viewBox="0 0 128 128" xmlns="http://www.w3.org/2000/svg">
<defs>
<linearGradient id="gradient" gradientUnits="userSpaceOnUse" x1="0" y1="40" x2="112" y2="0">
<stop offset="0" stop-color="#E01B24"/>
<stop offset="0.4" stop-color="#E66100"/>
<stop offset="1" stop-color="#DF97E0"/>
</linearGradient>
<clipPath id="videocut">
<rect width="112" height="40"/>
</clipPath>
</defs>
<rect width="112" height="88" rx="8" x="8" y="20" fill="#464646"/>
<g id="frames" fill="url(#gradient)" clip-path="url(#videocut)" transform="translate(8 44)">
<rect width="23" height="40" rx="4" x="-8"/>
<rect width="62" height="40" rx="4" x="25"/>
<rect width="23" height="40" rx="4" x="97"/>
</g>
<path id="play" d="M0 0L0 22C0 22 2.222 22 2.222 22C2.60852 22 3 21.9023 3.32676 21.711C3.32676 21.711 18.88 12.9141 18.88 12.9141C19.574 12.52 20 11.8 20 11C20 10.211 19.574 9.48047 18.88 9.09C18.88 9.09 3.32676 0.289062 3.32676 0.289062C3 0.10547 2.63615 0 2.2652 0C2.25335 0 2.23757 0 2.222 0C2.222 0 0 0 0 0Z" fill="#E6E6E6" transform="translate(55 53)"/>
<g id="pokes" stroke="#E6E6E6" stroke-width="8" stroke-dasharray="8 10">
<line x1="0" y1="0" x2="98" y2="0" transform="translate(15 95)"/>
<line x1="0" y1="0" x2="98" y2="0" transform="translate(15 31)"/>
</g></svg>