<?xml version="1.0" encoding="utf-8"?>
<svg width="128" height="128" viewBox="0 0 128 128" xmlns="http://www.w3.org/2000/svg">
<rect width="96" height="88" rx="12" x="16" y="20" fill="#3C3846"/>
<rect width="112" height="16" rx="8" x="8" y="56" fill="#3C3846"/>
<rect width="72" height="40" rx="4" x="28" y="44" fill="#0091F5"/>
<path d="M28 4C24 4 18 6 18 12C18 18 20 22 20 28C20 34 18 40 8 44C18 48 20 54 20 60C20 66 18 70 18 76C18 82 24 84 28 84L28 88C14 88 6 80 6 72C6 68 8 62.55 8 56C8 50 4 46.5 0 46.5L0 41.5C4 41.5 8 37.4 8 32C8 26.7 6 20 6 16C6 8 14 0 28 0ZM100 84C104 84 110 82 110 76C110 70 108 66 108 60C108 54 110 48 120 44C110 40 108 34 108 28C108 22 110 18 110 12C110 6 104 4 100 4L100 0C114 0 122 8 122 16C122 20 120 25.5 120 32C120 38 124 41.5 128 41.5L128 46.5C124 46.5 120 50.6 120 56C120 61.32 122 68 122 72C122 80 114 88 100 88Z" fill="#0091F5" transform="translate(0 20)"/>
<path d="M0 0C0 0 0 24 0 24L2 24L20.5 14C21.5 13.5 22 13 22 12C22 11 21.5 10.5 20.5 10L2 0Z" fill="#DEDDDA" transform="translate(54 52)"/>
<g stroke="#DEDDDA" stroke-width="8" stroke-dasharray="8 8">
<line x1="28" y1="32" x2="100" y2="32"/>
<line x1="28" y1="96" x2="100" y2="96"/>
</g></svg>
