<?xml version="1.0" encoding="utf-8"?>
<svg width="128" height="128" viewBox="0 0 128 128" xmlns="http://www.w3.org/2000/svg">
<defs>
<linearGradient id="gradient" gradientUnits="userSpaceOnUse" x1="0" y1="0" x2="88" y2="0">
<stop offset="0" stop-color="#000000" stop-opacity="0.5"/>
<stop offset="0.05" stop-color="#FFFFFF" stop-opacity="0.3"/>
<stop offset="0.12" stop-color="#000000" stop-opacity="0.5"/>
<stop offset="0.88" stop-color="#000000" stop-opacity="0.4"/>
<stop offset="0.95" stop-color="#FFFFFF" stop-opacity="0.3"/>
<stop offset="1" stop-color="#000000" stop-opacity="0.6"/>
</linearGradient>
</defs>
<rect width="88" height="112" rx="8" fill="#7536F6" transform="translate(20 8)"/>
<path d="M88 0C88 4.419 84.419 8 80 8L8 8C3.581 8 0 4.419 0 0L0 6C0 10.419 3.581 14 8 14L80 14C84.419 14 88 10.419 88 6L88 0L88 0Z" fill="url(#gradient)" transform="translate(20 106)"/>
<g transform="translate(34 38.4)">
<path id="path1" d="M59.9872 27.6403L30.7015 27.6403L25.9056 44.1836C25.9056 44.1836 20.0893 44.1836 20.0893 44.1836C19.949 44.1836 19.8214 44.0944 19.7831 43.954C19.7831 43.954 9.28572 7.01532 9.28572 7.01532L16.5944 7.01532L20.4592 20.625L27.7551 20.625L21.8878 0L0 0C0 0 13.0357 45.88 13.0357 45.88C13.9286 49.018 16.824 51.2116 20.0893 51.2116C20.0893 51.2116 31.1862 51.2116 31.1862 51.2116L35.9822 34.6684L52.9848 34.6684C52.9848 34.6684 52.9848 43.8776 52.9848 43.8776C52.9848 43.9668 52.9592 44.0432 52.8956 44.1072C52.8316 44.1708 52.7552 44.1964 52.666 44.1964C52.666 44.1964 40.51 44.1964 40.5104 44.1964L38.4694 51.2116C38.4694 51.2116 52.666 51.2116 52.666 51.2116C54.63 51.2116 56.4668 50.4464 57.8572 49.056C59.2476 47.666 60 45.8292 60 43.8648C60 43.8648 60 27.6403 60 27.6403L59.9872 27.6403Z" fill="#FFFFFF"/>
<path d="M25.255 20.625L27.245 20.625C27.245 20.625 27.245 7.34692 27.245 7.34692C27.245 5.38264 26.4794 3.54591 25.1022 2.1556C23.7246 0.765312 21.875 0 19.9106 0C19.9106 0 6 0 6 0L0 20.625L25.255 20.625ZM11.2626 7.01532C11.2626 7.01532 19.9234 7.01532 19.9234 7.01532C20.0126 7.01532 20.0894 7.04084 20.153 7.1046C20.217 7.16836 20.2422 7.24488 20.2422 7.3342C20.2422 7.3342 20.2422 13.6097 20.2422 13.6097L9.35 13.6097L11.2754 7L11.2626 7.01532Z" fill="#FFFFFF" transform="translate(32.74 0)"/>
</g></svg>