<?xml version="1.0" encoding="utf-8"?>
<svg width="128" height="128" viewBox="0 0 128 128" xmlns="http://www.w3.org/2000/svg">
<path id="paper" d="M108 36L108 112C108 116.4 104.4 120 100 120L28 120C23.6 120 20 116.4 20 112L20 16C20 11.6 23.6 8 28 8L80 8Z" fill="#1EB27B"/>
<path id="corner" d="M0 0L28 28L0 28Z" fill="#F6F5F4" opacity="0.5" transform="translate(80 8)"/>
<path id="cells" d="M32 0L32 32L0 32L0 58L56 58L56 0L32 0ZM54 2L54 8L34 8L34 2L54 2ZM54 10L54 16L34 16L34 10L54 10ZM54 18L54 24L34 24L34 18L54 18ZM34 32L54 32L54 26L34 26L34 32ZM34 34L34 40L54 40L54 34L34 34ZM34 42L34 48L54 48L54 42L34 42ZM34 50L34 56L54 56L54 50L34 50ZM18 34L32 34L32 40L18 40L18 34ZM18 42L32 42L32 48L18 48L18 42ZM18 50L32 50L32 56L18 56L18 50ZM16 40L2 40L2 34L16 34L16 40ZM16 48L2 48L2 42L16 42L16 48ZM16 50L16 56L2 56L2 50L16 50Z" fill="#FFFFFF" fill-rule="evenodd" transform="translate(36 48)"/>
<path id="S" d="M22 0L5.5 0C5.5 0 0 -7.62939e-06 0 5.5C0 11 5.5 11 5.5 11L16.5 11C16.5 11 22 11 22 16.5C22 22 16.5 22 16.5 22L0 22" fill="none" stroke-width="4" stroke="#FFFFFF" stroke-linecap="round" stroke-linejoin="round" transform="translate(38 50)"/>
</svg>