<?xml version="1.0" encoding="utf-8"?>
<svg width="128" height="128" viewBox="0 0 128 128" xmlns="http://www.w3.org/2000/svg">
<defs>
<clipPath id="upper">
<rect width="108" height="22" x="10" y="10"/>
</clipPath>
<clipPath id="lower">
<rect width="108" height="88" x="10" y="32"/>
</clipPath>
</defs>
<g clip-path="url(#lower)">
<rect width="108" height="108" rx="10" x="10" y="10" fill="#A1A1A1"/>
<rect width="104" height="104" rx="8" x="12" y="12" fill="#F6F5F4"/>
</g><g clip-path="url(#upper)">
<rect width="108" height="32" rx="10" x="10" y="10" fill="#3584E4"/>
<rect width="108" height="2" x="10" y="30" fill="#1A5FB4"/>
</g><g fill="#A1A1A1">
<circle r="4" cx="40" cy="50"/>
<circle r="4" cx="56" cy="50"/>
<circle r="4" cx="72" cy="50"/>
<circle r="4" cx="88" cy="50"/>
<circle r="4" cx="104" cy="50"/>
<circle r="4" cx="24" cy="73"/>
<circle r="4" cx="40" cy="73"/>
<circle r="6" cx="56" cy="73" fill="#ED333B"/>
<circle r="4" cx="72" cy="73"/>
<circle r="4" cx="88" cy="73"/>
<circle r="4" cx="104" cy="73"/>
<circle r="4" cx="24" cy="96"/>
<circle r="4" cx="40" cy="96"/>
<circle r="4" cx="56" cy="96"/>
</g></svg>
