<?xml version="1.0" encoding="utf-8"?>
<svg width="128" height="128" viewBox="0 0 128 128" xmlns="http://www.w3.org/2000/svg">
<g id="sheet" stroke="#707070" stroke-width="2" stroke-linejoin="round" transform="translate(19 7)">
<path id="paper" fill="#F6F5F4" d="M61.5 0L90 28.5L90 105C90 109.97 85.97 114 81 114L9 114C4.02876 114 0 109.97 0 105L0 9C0 4.02876 4.02876 0 9 0Z"/>
<path id="corner" fill="#C8C8C8" d="M0 0L28 28L0 28Z" transform="translate(62 0)"/>
</g><g fill="#5A5A5A" transform="translate(36 48)">
<rect width="18" height="2" x="38"/>
<rect width="18" height="2" x="38" y="8"/>
<rect width="18" height="2" x="38" y="16"/>
<rect width="18" height="2" x="38" y="24"/>
<rect width="18" height="2" x="38" y="32"/>
<rect width="56" height="2" y="40"/>
<rect width="56" height="2" y="48"/>
<rect width="28" height="2" y="56"/>
</g><g id="pic" transform="translate(37 49)">
<rect id="frame" width="32" height="32" fill="none" stroke-width="2" stroke="#5A5A5A" />
<rect id="sky" width="26" height="26" fill="#25AFF4" transform="translate(3 3)"/>
<path id="mountain" d="M0 13L0 6.5L6.5 0L19.5 13L0 13Z" fill="#184697" transform="translate(3 16)"/>
<path id="shadow" d="M1.90735e-06 14L10 14L10 10L0 0L1.90735e-06 14Z" fill="#00783C" transform="translate(19 15)"/>
<path id="side" d="M14 0L14 14L0 14L14 0Z" fill="#05C96B" transform="translate(5 15)"/>
<circle id="sun" r="3" fill="#FFE08A" transform="translate(9 9)"/>
</g></svg>