<?xml version="1.0" encoding="utf-8"?>
<svg width="128" height="128" viewBox="0 0 128 128" xmlns="http://www.w3.org/2000/svg">
<defs>
<linearGradient id="gradient" gradientUnits="userSpaceOnUse" x1="78" y1="7" x2="86" y2="7">
<stop offset="0" stop-color="#DEDDDA"/>
<stop offset="0.5" stop-color="#FFFFFF"/>
<stop offset="1" stop-color="#C0BFBC"/>
</linearGradient>
</defs>
<g id="tags" transform="translate(100 24)">
<rect fill="#F9F06B" width="16" height="24" rx="8" id="yellow"/>
<rect fill="#26A26A" width="16" height="24" rx="8" id="green" y="16"/>
<rect fill="#8F5AA0" width="16" height="24" rx="8" id="purple" y="32"/>
<rect fill="#F66151" width="16" height="24" rx="8" id="orange" y="48"/>
</g>
<path id="hardback" d="M0 0L0 112C0 112 80 112 80 112C84.43 112 88 108.43 88 104C88 104 88 8 88 8C88 3.57 84.43 0 80 0C80 0 0 0 0 0Z" fill="#716449" transform="translate(20 8)"/>
<path id="pages" d="M0 14L0 8L78 8C82.43 8 86 4.43 86 0L86 6C86 10.43 82.43 14 78 14L0 14L0 14Z" fill="url(#gradient)" transform="translate(22 104)"/>
<path id="hardcover" d="M0 0L0 102C0 102 80 102 80 102C84.43 102 88 98.43 88 94C88 94 88 8 88 8C88 3.57 84.43 0 80 0C80 0 0 0 0 0Z" fill="#AA9B7C" transform="translate(20 8)"/>
<rect id="shineline" width="2" height="102" fill="#FFFFFF" opacity="0.2" transform="translate(22 8)"/>
<path id="@" d="M25 17.5C25 21.5 21.5 25 17.5 25C13.5 25 10 21.5 10 17.5C10 13.5 13.5 10 17.5 10C21.5 10 25 13.5 25 17.5C25 21.5 25 20 25 20C25 22.5 27.5 25 30 25C32.5 25 35 22.5 35 20L35 17.5C35 7.5 27.5 0 17.5 0C7.5 0 0 7.5 0 17.5C0 27.5 7.5 35 17.5 35C19.5 35 22.5 34.5 25 33.5" fill="none" stroke="#FFFFFF" stroke-width="5" stroke-linecap="round" transform="translate(46.5 41.5)"/>
</svg>
