<?xml version="1.0" encoding="utf-8"?>
<svg width="16" height="16" viewBox="0 0 16 16" fill="none" xmlns="http://www.w3.org/2000/svg">
<path d="M8 0C3.58172 0 0 3.58172 0 8C0 12.4183 3.58172 16 8 16C12.4183 16 16 12.4183 16 8C16 3.58172 12.4183 0 8 0L8 0ZM3.05025 12.9497C1.68342 11.5829 1 9.933 1 8C1 6.067 1.68342 4.41709 3.05025 3.05025C4.41709 1.68342 6.067 1 8 1C9.933 1 11.5829 1.68342 12.9497 3.05025C14.3166 4.41709 15 6.067 15 8C15 9.933 14.3166 11.5829 12.9497 12.9497C11.5829 14.3166 9.933 15 8 15C6.067 15 4.41709 14.3166 3.05025 12.9497L3.05025 12.9497Z" fill="#808080" fill-rule="evenodd"/>
<path d="M9.70711 0.707107L3.35355 7.06066L0 3.70711L0.353554 3.35355L0.707107 3L0.883884 3.17678L3.35355 5.64645L8.29289 0.707107L9 0L9.70711 0.707107L9.70711 0.707107Z" fill="#808080" transform="translate(3.146 4.646)"/>
</svg>
