<?xml version="1.0" encoding="utf-8"?>
<svg width="16" height="16" viewBox="0 0 16 16" fill="gray" xmlns="http://www.w3.org/2000/svg">
<path d="M8 8C3.58173 8 0 4.41827 0 0L1 0C1 3.866 4.134 7 8 7C10.1877 7 12.141 5.99646 13.4246 4.42459L11 2L16 2L16 7L14.1349 5.13486C12.6674 6.88629 10.4637 8 8 8L8 8Z" transform="translate(0 8)"/>
<path d="M8 0C5.53629 0 3.33267 1.11371 1.86517 2.86516L0 1L0 6L5 6L2.57541 3.57542C3.85904 2 5.81232 1 8 1C11.866 1 15 4.134 15 8L16 8C16 3.58173 12.4183 0 8 0L8 0Z"/>
</svg>