<?xml version="1.0" encoding="utf-8"?>
<svg width="16" height="16" viewBox="0 0 16 16" fill="gray" xmlns="http://www.w3.org/2000/svg">
<path d="M0 11C0 13.75 2.25 16 5 16L11 16C13.75 16 16 13.75 16 11L16 9C16 7.9 15.1 7 14 7C13.65 7 13.3 7.1 13 7.27L13 3C13 1.9 12.1 1 11 1C10.6 1 10.2 1.1 9.9 1.3C9.6 0.5 8.9 0 8 0C7.1 0 6.4 0.5 6.1 1.3C5.8 1.1 5.4 1 5 1C3.9 1 3 1.9 3 3L3 3.3C2.7 3.1 2.4 3 2 3C0.9 3 0 3.9 0 5ZM13 11L12 11L12 3C12 2.45 11.55 2 11 2C10.45 2 10 2.45 10 3L10 8L9 8L9 2C9 1.45 8.55 1 8 1C7.45 1 7 1.45 7 2L7 8L6 8L6 3C6 2.45 5.55 2 5 2C4.45 2 4 2.45 4 3L4 9L3 9L3 5C3 4.45 2.55 4 2 4C1.45 4 1 4.45 1 5L1 11C1 13.2 2.8 15 5 15L11 15C13.2 15 15 13.2 15 11L15 9C15 8.45 14.55 8 14 8C13.45 8 13 8.45 13 9Z" fill-rule="evenodd"/>
</svg>
