<?xml version="1.0" encoding="utf-8"?>
<svg width="16" height="16" viewBox="0 0 16 16" fill="gray" xmlns="http://www.w3.org/2000/svg">
<path d="m 8 0 c 0.555 0 1 0.445 1 1 v 6.5 s 0 0.5 0.5 0.5 s 0.5 -0.5 0.5 -0.5 v -4.5 c 0 -0.555 0.445 -1 1 -1 s 1 0.445 1 1 v 8.5 c 0 0.5 0.5 0.5 0.5 0.5 l 1.8 -1.7 c 0.2 -0.2 0.445 -0.3 0.72 -0.3 c 1.1 0.1 1.1445 1.27 0.7 1.72 l -3 3 c -0.7 0.8 -1.76 1.3 -2.7 1.3 h -6 c -3 0 -3 -3 -3 -3 v -8 c 0 -0.555 0.445 -1 1 -1 s 1 0.445 1 1 v 3.5 s 0 0.5 0.5 0.5 s 0.5 -0.5 0.5 -0.5 v -6.5 c 0 -0.555 0.445 -1 1 -1 s 1 0.445 1 1 v 5.5 s 0 0.5 0.5 0.5 s 0.5 -0.5 0.5 -0.5 v -6.5 c 0 -0.555 0.445 -1 1 -1 z m 0 0"/>
</svg>
