<?xml version="1.0" encoding="utf-8"?>
<svg width="128" height="128" viewBox="0 0 128 128" xmlns="http://www.w3.org/2000/svg">
<defs>
<clipPath id="left">
<rect width="64" height="128"/>
</clipPath>
<clipPath id="right">
<rect width="64" height="128" x="64"/>
</clipPath>
<filter id="shadow">
<feDropShadow dx="0" dy="2" flood-color="#000000" flood-opacity="20%" stdDeviation="0"/>
</filter>
</defs>
<g clip-path="url(#right)">
<rect width="104" height="104" rx="8" x="12" y="12" fill="#C64600"/>
<rect width="104" height="100" rx="8" x="12" y="12" fill="#FF7800"/>
</g><g clip-path="url(#left)">
<rect width="104" height="104" rx="8" x="12" y="12" fill="#5E5C64"/>
<rect width="104" height="100" rx="8" x="12" y="12" fill="#77767B"/>
<rect width="52" height="2" x="12" y="62" fill="#5E5C64"/>
</g><g fill="#FFFFFF" filter="url(#shadow)">
<path d="M8 0L8 8L0 8L0 12L8 12L8 20L12 20L12 12L20 12L20 8L12 8L12 0Z" transform="translate(28 76)"/>
<path d="M0 0L0 4L20 4L20 0Z" transform="translate(28 36)"/>
<path d="M0 0L0 4L20 4L20 0ZM0 8L0 12L20 12L20 8Z" transform="translate(80 80)"/>
</g></svg>
