<?xml version="1.0" encoding="utf-8"?>
<svg width="128" height="128" viewBox="0 0 128 128" xmlns="http://www.w3.org/2000/svg">
<defs>
<linearGradient id="corners">
<stop offset="0" stop-color="#9A9996"/>
<stop offset="5%" stop-color="#DEDDDA"/>
<stop offset="12%" stop-color="#9A9996"/>
<stop offset="88%" stop-color="#9A9996"/>
<stop offset="95%" stop-color="#DEDDDA"/>
<stop offset="1" stop-color="#9A9996"/>
</linearGradient>
<linearGradient id="handles">
<stop offset="0" stop-color="#DEDDDA"/>
<stop offset="5%" stop-color="#EEEEEC"/>
<stop offset="10%" stop-color="#DEDDDA"/>
<stop offset="90%" stop-color="#DEDDDA"/>
<stop offset="95%" stop-color="#EEEEEC"/>
<stop offset="1" stop-color="#C0BFBC"/>
</linearGradient>
<linearGradient id="downers" x1="0" y1="0" x2="0" y2="0.5">
<stop offset="0" stop-color="#C0BFBC"/>
<stop offset="1" stop-color="#999894"/>
</linearGradient>
<clipPath id="handler">
<path d="M0 0L24 0L24 8L20 8L20 6L4 6L4 8L0 8Z"/>
</clipPath>
</defs>
<rect width="88" height="112" rx="8" x="20" y="8" fill="url(#corners)"/>
<rect width="88" height="108" rx="8" x="20" y="8" fill="#F6F5F4"/>
<rect width="80" height="100" rx="4" x="24" y="12" fill="#E95420"/>
<g fill="#000000" opacity="40%">
<path d="M0 0C0 2.2 1.8 4 4 4L76 4C78.2 4 80 2.2 80 0L80 2C80 4.2 78.2 6 76 6L4 6C1.8 6 0 4.2 0 2Z" transform="translate(24 106)"/>
<rect width="80" height="2" x="24" y="76"/>
<rect width="80" height="2" x="24" y="44"/>
</g><g transform="translate(52 24)">
<g fill="#000000" fill-opacity="10%">
<rect width="24" height="4" rx="2" y="6"/>
<rect width="16" height="2" x="4" y="6"/>
</g><g clip-path="url(#handler)">
<rect width="24" height="12" rx="3" fill="url(#handles)"/>
<rect width="24" height="8" rx="3" y="4" fill="url(#downers)"/>
</g></g>
<g transform="translate(52 56)">
<g fill="#000000" fill-opacity="10%">
<rect width="24" height="4" rx="2" y="6"/>
<rect width="16" height="2" x="4" y="6"/>
</g><g clip-path="url(#handler)">
<rect width="24" height="12" rx="3" fill="url(#handles)"/>
<rect width="24" height="8" rx="3" y="4" fill="url(#downers)"/>
</g></g>
<g transform="translate(52 88)">
<g fill="#000000" fill-opacity="10%">
<rect width="24" height="4" rx="2" y="6"/>
<rect width="16" height="2" x="4" y="6"/>
</g><g clip-path="url(#handler)">
<rect width="24" height="12" rx="3" fill="url(#handles)"/>
<rect width="24" height="8" rx="3" y="4" fill="url(#downers)"/>
</g></g>
</svg>
