<?xml version="1.0" encoding="utf-8"?>
<svg width="16" height="16" viewBox="0 0 16 16" xmlns="http://www.w3.org/2000/svg">
<g id="sheet" transform="translate(1 0)">
<path id="border" d="M0 0L10 0L14 4L14 16L0 16L0 0Z" fill="#28D2FF"/>
<path id="paper" d="M0 0L8 0L8 4L12 4L12 14L0 14L0 0Z" fill="#0F45A2" transform="translate(1 1)"/>
</g><g id="Ps" fill="none" stroke-width="1" stroke="#28D2FF" transform="translate(4.5 5.5)">
<path id="s" d="M0 4L2.5 4C2.5 4 3.5 4 3.5 3C3.5 2 2.5 2 2.5 2L1.5 2C1.5 2 0.5 2 0.5 1C0.5 2e-06 1.5 0 1.5 0L4 0" transform="translate(4.5 3)"/>
<path id="P" d="M0 7.5L0 0L2 0C2 0 4 7e-07 4 2C4 4 2 4 2 4L0 4"/>
</g></svg>
