<?xml version="1.0" encoding="utf-8"?>
<svg width="16" height="16" viewBox="0 0 16 16" fill="none" xmlns="http://www.w3.org/2000/svg">
  <g>
    <path d="M9.88997 0.457645C10.7184 0.457645 11.4779 0.739274 11.8576 1.22332C12.7896 0.264027 13.6613 0 14.4121 0C15.6203 0 16 0.783278 16 1.30253C16 1.9538 15.5944 2.41144 14.9817 2.41144C14.3172 2.41144 14.6451 0.862486 13.7044 0.862486C12.9364 0.862486 12.2977 2.93069 11.9784 4.73487C11.9784 4.73487 13.6354 4.73487 13.6354 4.73487C13.8252 4.73487 13.8598 4.87569 13.8598 5.0253C13.8598 5.43014 13.6785 5.77338 13.3506 5.77338C13.3506 5.77338 11.7195 5.77338 11.7195 5.77338C11.7195 5.77338 10.9697 9.39222 10.4164 11.6524C9.67164 14.6944 7.38727 15.5424 5.95469 15.5424C5.27292 15.5424 4.548 15.2959 4.06472 14.7855C3.41748 15.4631 2.43366 16 1.3808 16C0.862999 16 0 15.648 0 14.9791C0 14.6007 0.37109 14.0286 0.768069 14.0286C1.4671 14.0286 1.5534 14.8031 2.33873 14.8031C2.71845 14.8031 2.98164 14.6963 3.29666 13.5358C3.98705 10.9923 5.03128 5.77338 5.03128 5.77338C5.03128 5.77338 3.7972 5.77338 3.7972 5.77338C3.59871 5.77338 3.57282 5.65017 3.57282 5.51815C3.57282 5.16612 3.70227 4.73487 4.14239 4.73487C4.14239 4.73487 5.29018 4.73487 5.29018 4.73487C5.92017 2.52585 7.31823 0.457645 9.88997 0.457645C9.88997 0.457645 9.88997 0.457645 9.88997 0.457645ZM9.21674 1.33774C7.99991 1.33774 7.44759 3.39714 7.18006 4.73488C7.18006 4.73488 10.0625 4.73488 10.0625 4.73488C10.2696 3.9252 10.6148 3.09791 10.9859 2.42025C10.5716 1.75138 9.85536 1.33774 9.21674 1.33774C9.21674 1.33774 9.21674 1.33774 9.21674 1.33774ZM6.6279 14.4686C7.30104 14.4686 7.8361 14.2398 8.16403 13.0429C8.94073 10.1914 9.80373 5.77337 9.80373 5.77337C9.80373 5.77337 6.95584 5.77337 6.95584 5.77337C6.54224 7.72075 6.08633 9.81997 5.68566 11.3971C5.41301 12.4704 5.18413 13.0731 4.94505 13.5797C5.43696 14.1694 6.07558 14.4686 6.6279 14.4686C6.6279 14.4686 6.6279 14.4686 6.6279 14.4686Z" fill="#808080" />
  </g>
</svg>