<?xml version="1.0" encoding="utf-8"?>
<svg width="16" height="16" viewBox="0 0 16 16" fill="none" xmlns="http://www.w3.org/2000/svg">
  <g>
    <rect width="16" height="16" fill="#4F7E9A" fill-rule="evenodd" />
    <path id="gear" d="M6 0L4 0L4 1.64494C3.76724 1.71422 3.54462 1.80705 3.3349 1.92069L2.17157 0.757359L0.757355 2.17157L1.92068 3.33491C1.80704 3.54461 1.7142 3.76723 1.64493 4L0 4L0 6L1.64493 6C1.7142 6.23277 1.80704 6.45539 1.92068 6.66509L0.757355 7.82843L2.17157 9.24264L3.3349 8.07931C3.54462 8.19294 3.76724 8.28579 4 8.35506L4 10L6 10L6 8.35506C6.23276 8.28579 6.45538 8.19294 6.6651 8.07931L7.82843 9.24264L9.24265 7.82843L8.07932 6.66509C8.19296 6.45539 8.2858 6.23277 8.35507 6L10 6L10 4L8.35507 4C8.2858 3.76723 8.19296 3.54461 8.07932 3.33491L9.24265 2.17157L7.82843 0.757359L6.6651 1.92069C6.45538 1.80705 6.23276 1.71422 6 1.64494L6 0L6 0ZM3 5C3 3.89543 3.89543 3 5 3C6.10457 3 7 3.89543 7 5C7 6.10457 6.10457 7 5 7C3.89543 7 3 6.10457 3 5L3 5Z" fill="#FFFFFF" fill-rule="evenodd" transform="translate(3 6)" />
    <path id="arrow" d="M2 0L4 0L4 2L6 2L3 5L0 2L2 2L2 0L2 0Z" fill="#FFFFFF" fill-rule="evenodd" transform="translate(5 0)" />
  </g>
</svg>