<?xml version="1.0" encoding="utf-8"?>
<svg width="16" height="16" viewBox="0 0 16 16" fill="#205CF5" xmlns="http://www.w3.org/2000/svg">
<path d="M6 0C9.3 0 12 2.7 12 6L12 9L11 9L11 6C11 4.6 10.5 3.4 9.5 2.4C8.5 1.5 7.4 1 6 1C4.6 1 3.4 1.5 2.5 2.5C1.5 3.4 1 4.6 1 6L1 9L0 9L0 6C0 2.7 2.7 0 6 0Z" transform="translate(2 1)"/>
<path d="M2 7C1 7 0 6 0 5L0 2C0 1 1 0 2 0Z" transform="translate(1 8)"/>
<path d="M0 0C1 0 2 1 2 2L2 5C2 6 1 7 0 7Z" transform="translate(13 8)"/>
<rect width="1" height="7" transform="translate(4.001 8)"/>
<rect width="1" height="7" transform="translate(11.001 8)"/>
</svg>
