<?xml version="1.0" encoding="utf-8"?>
<svg width="16" height="16" viewBox="0 0 16 16" fill="gray" xmlns="http://www.w3.org/2000/svg">
<path id="gear" d="M7 0L7 3.1C6.3618 3.23 5.7677 3.4807 5.243 3.82814L3.05087 1.636L1.63666 3.05L3.82864 5.24223C3.481 5.76713 3.23 6.36147 3.1 7L0 7L0 9L3.1 9C3.23 9.63837 3.4808 10.2326 3.8284 10.7574L1.636 12.95L3.05 14.364L5.24261 12.1716C5.76743 12.52 6.36163 12.77 7 12.9L7 16L9 16L9 12.9C9.63852 12.77 10.233 12.52 10.7578 12.1713L12.95 14.364L14.3646 12.95L12.1718 10.757C12.52 10.2323 12.77 9.63822 12.9 9L16 9L16 7L12.9 7C12.77 6.36162 12.52 5.76741 12.1716 5.24261L14.364 3.05L12.95 1.636L10.7574 3.8284C10.2326 3.48081 9.63837 3.23 9 3.1L9 0L7 0L7 0ZM5 8C5 6.34315 6.34315 5 8 5C9.65685 5 11 6.34315 11 8C11 9.65685 9.65685 11 8 11C6.34315 11 5 9.65685 5 8L5 8Z" fill-rule="evenodd"/>
</svg>
