<?xml version="1.0" encoding="utf-8"?>
<svg width="16" height="16" viewBox="0 0 16 16" xmlns="http://www.w3.org/2000/svg">
<defs>
<filter id="shadow">
<feDropShadow dx="0" dy="1" flood-color="#1856A4" stdDeviation="0"/>
</filter>
</defs>
<path d="M3 5L3 0L7 0L7 1C7 1 6 1 6 2C6 3 7 3 7 3L9 3C9 3 10 3 10 2C10 1 9 1 9 1L9 0L13 0L13 5L14 5C14 5 14 4 15 4C16 4 16 5 16 5L16 7C16 7 16 8 15 8C14 8 14 7 14 7L13 7L13 12L9 12L9 11C9 11 10 11 10 10C10 9 9 9 9 9L7 9C7 9 6 9 6 10C6 11 7 11 7 11L7 12L3 12L3 7L2 7C2 7 2 8 1 8C0 8 0 7 0 7L0 5C0 5 0 4 1 4C2 4 2 5 2 5L3 5Z" fill="#62A0EA" filter="url(#shadow)" transform="translate(0 2)"/>
</svg>
