<?xml version="1.0" encoding="utf-8"?>
<svg width="16" height="16" viewBox="0 0 16 16" xmlns="http://www.w3.org/2000/svg">
<g transform="translate(1 0)">
<path d="M0 0L10 0L14 4L14 16L0 16L0 0Z" fill="#888888"/>
<path d="M0 0L8 0L8 4L12 4L12 14L0 14L0 0Z" fill="#FFFFFF" transform="translate(1 1)"/>
</g><g transform="translate(3 2)">
<path d="M0 0L10 1L10 4L0 4L0 0Z" fill="#F66151" transform="translate(0 8)"/>
<path d="M0 0L10 0L10 3.9812L0 3L0 0Z" fill="#888888" transform="translate(0 4)"/>
<rect width="3" height="3" fill="#E39F4C"/>
<rect width="2" height="3" fill="#6799D5" transform="translate(4 0)"/>
</g></svg>
