<?xml version="1.0" encoding="utf-8"?>
<svg width="16" height="16" viewBox="0 0 16 16" xmlns="http://www.w3.org/2000/svg">
<g fill="#686868">
<path d="M0 2L3.46382 0C3.46382 0 4.4639 1.73321 4.4639 1.73321C4.82071 2.35175 4.82071 3.11353 4.4639 3.73338C4.4639 3.73338 3.46382 5.4653 3.46382 5.4653L2.732 6.73232L0.421909 2.7333L0 2Z" transform="translate(11.268 5.804)"/>
<path d="M5.464 0L5.464 4C5.464 4 3.46382 4 3.46382 4C2.74892 4 2.08871 3.61878 1.73191 3C1.73191 3 0.73183 1.26833 0.73183 1.26833L0 0L5.464 0Z" transform="translate(0.536 10)"/>
<path d="M3.46382 4.73216L0 2.732C0 2.732 1 1 1 1C1.35688 0.381541 2.01709 0 2.732 0C2.732 0 6.19582 0 6.19582 0L3.887 4L3.46382 4.73216Z" transform="translate(3.268 0)"/>
</g><g fill="#888888">
<path d="M1.46366 0L0 0L2.30878 4L2.732 4.73216L1.57695 5.4L5.79735 6.04216L7.35086 2.06527L6.19582 2.732C6.19582 2.732 5.19573 1 5.19573 1C4.83893 0.381541 4.17873 0 3.46382 0C3.46382 0 1.46366 0 1.46366 0Z" transform="translate(6.536 0)"/>
<path d="M2.66688 0L0 3.3336L2.66688 6.66721L2.66688 5.33377C2.66688 5.33377 4.66705 5.33377 4.66705 5.33377C5.38195 5.33377 6.04216 4.95223 6.39896 4.33369C6.39896 4.33369 7.4 2.6018 7.4 2.6018L8.13087 1.33344L2.66688 1.33344L2.66688 0Z" transform="translate(7.333 8.667)"/>
<path d="M4.333 0L0.112639 0.641979L1.26768 1.3087C1.26768 1.3087 0.2676 3.04061 0.2676 3.04061C-0.0892 3.66045 -0.0892 4.42223 0.2676 5.04077C0.2676 5.04077 1.26638 6.774 1.26638 6.774L1.99951 8.04102L4.3083 4.04069L4.7315 3.30886L5.88655 3.97558L4.333 0Z" transform="translate(0 4.5)"/>
</g></svg>
