<?xml version="1.0" encoding="utf-8"?>
<svg width="16" height="16" viewBox="0 0 16 16" xmlns="http://www.w3.org/2000/svg">
<path d="M0 0L10 0L14 4L14 16L0 16L0 0Z" fill="#888888" transform="translate(1 0)"/>
<path d="M0 0L8 0L8 4L12 4L12 14L0 14L0 0Z" fill="#FFFFFF" transform="translate(2 1)"/>
<path d="M0 10L0 9L12 9L12 10L0 10ZM0 7L0 6L12 6L12 7L0 7ZM0 4L0 3L12 3L12 4L0 4ZM0 1L0 0L8 0L8 1L0 1Z" fill="#5A5A5A" transform="translate(2 3)"/>
<rect width="1" height="14" fill="#A13F12" transform="translate(4 1)"/>
</svg>
