<?xml version="1.0" encoding="utf-8"?>
<svg width="16" height="16" viewBox="0 0 16 16" fill="#478CCD" xmlns="http://www.w3.org/2000/svg">
<path d="M8 16C4.1 16 0.9776 14.6161 0.9776 12L3 12L3 13L7 13L7 12L9 12L9 13L13 13L13 12L15 12C15 14.6161 11.9 16 8 16ZM6.4 0L4.2 0.8L4.4 2.6L3 3.8L1.5 3L0 5L1 6.3C1 6.3 1 11 1 11L4 11L4 12L6 12L6 11L10 11L10 12L12 12L12 11L15 11L15 6.3L16 5L14.5072 3L13 3.8L11.6 2.6L11.8 0.8L9.6 0L8.8 1.6L7.2 1.6L6.4 0ZM2 8C2 6.8954 2.8954 6 4 6C5.1046 6 6 6.8954 6 8C6 9.1046 5.1046 10 4 10C2.8954 10 2 9.1046 2 8ZM10 8C10 6.8954 10.8954 6 12 6C13.1046 6 14 6.8954 14 8C14 9.1046 13.1046 10 12 10C10.8954 10 10 9.1046 10 8ZM8 7C8.55236 7 9 7.44764 9 8L9 9C9 9.55236 8.55236 10 8 10L8 10C7.44764 10 7 9.55236 7 9L7 8C7 7.44764 7.44764 7 8 7Z"/>
</svg>
