<?xml version="1.0" encoding="utf-8"?>
<svg width="16" height="16" viewBox="0 0 16 16" fill="none" xmlns="http://www.w3.org/2000/svg">
<path id="debian" d="M7.95192 16C5.43872 15.112 3.93757 14.0334 2.30598 11.6392C1.8983 10.973 1.16377 9.48257 1.19645 7.56336C1.1311 5.62884 2.1265 3.40872 4 2.23513C5.79796 0.982407 8.1314 0.966524 9.51815 1.458C10.9379 1.96541 11.525 2.8378 11.5417 2.79016C11.4926 2.80604 12.3083 3.45636 12.6672 4.89939C13.0589 6.27916 12.6512 8.57841 10.6927 9.51405C9.79568 9.98967 8.62079 10.0691 7.69074 9.73612C6.77674 9.3714 6.10788 8.57841 5.8791 7.75367C5.40604 5.93 6.82547 4.91527 7.46195 4.82C10.0075 3.97935 11.3126 7.88073 8.32662 8.21369C9.681 8.65754 11.0841 7.29393 10.8232 5.89827C10.7742 4.51878 9.04481 3.139 7.13568 3.71C6.6463 3.8367 5.87908 4.18582 5.29193 4.94675C4.68814 5.70797 4.41062 6.89716 4.73717 8.03898C5.03104 9.21257 5.97743 10.3226 7.26642 10.8141C8.57234 11.2898 10.0405 11.1471 11.2484 10.5444C13.8097 9.30758 14.3318 6.29448 13.8264 4.62939C13.3694 2.85312 12.374 2.04454 12.423 2.02866C12.4063 2.0763 11.6887 1.01389 9.91 0.363564C8.18071 -0.239114 5.48804 -0.191467 3.31802 1.26772C1.11503 2.6475 -0.0922524 5.35912 0 7.54748C-0.0271754 9.7676 0.821452 11.4645 1.27816 12.2098C3.15431 14.985 5.29193 15.8573 7.95192 16C7.95192 16 7.95192 16 7.95192 16Z" fill="#F62460" fill-rule="evenodd" transform="translate(1 0)"/>
</svg>