<?xml version="1.0" encoding="utf-8"?>
<svg width="16" height="16" viewBox="0 0 16 16" xmlns="http://www.w3.org/2000/svg">
<path d="M1.47853 0L0 3.31059L1.0449 6.04889L2.51756 2.32039L4.33983 7.00009L1.41013 7.00009L2.1738 9.00009L4.9179 9.00009L6.00189 12.0001L8.35929 12.0001L3.54099 8.98838e-05L1.47853 0Z" fill="#197DDD" fill-rule="evenodd" transform="translate(7.482 0)"/>
<path d="M6.675 0L5.325 0L1.1562 11L0 11L0 12L3 12L3 11L2.22461 11L3.36721 8L7.59771 8L8.74031 11L8.00008 11L8.00008 12L12.0001 12L12.0001 11L10.879 11L6.675 0ZM5.4824 2.4492L7.2168 7L3.748 7L5.4824 2.4492Z" fill="#DC3C28" transform="translate(0 4)"/>
</svg>