<?xml version="1.0" encoding="utf-8"?>
<svg width="16" height="16" viewBox="0 0 16 16" fill="#953DAC" xmlns="http://www.w3.org/2000/svg">
<path d="M1 0L1 1L0 1L0 2L1 2L1 4L0 4L0 5L1 5L1 6L2 6L2 5L4 5L4 6L5 6L5 5L6 5L6 4L5 4L5 2L6 2L6 1L5 1L5 0L4 0L4 1L2 1L2 0L1 0ZM2 4L2 2L4 2L4 4L2 4Z" fill-rule="evenodd" transform="translate(9 5)"/>
<path d="M2.34315 2.34315C5.46734 -0.781 10.5327 -0.781 13.657 2.34315L11.5355 4.4645C9.583 2.51185 6.4171 2.51185 4.4645 4.4645C2.51185 6.4171 2.51185 9.583 4.4645 11.5355C6.4171 13.4882 9.583 13.4882 11.5355 11.5355L13.657 13.657C10.5327 16.781 5.46734 16.781 2.34315 13.657C-0.781 10.5327 -0.781 5.46734 2.34315 2.34315L2.34315 2.34315Z"/>
</svg>
