<?xml version="1.0" encoding="utf-8"?>
<svg width="16" height="16" viewBox="0 0 16 16" fill="none" xmlns="http://www.w3.org/2000/svg">
<path d="M0 16L0 14C1.33333 14 2 13.3333 2 12L2 11C2 9.89543 2.39052 8.95262 3.17157 8.17157C3.17403 8.16912 3.17648 8.16667 3.17894 8.16422C2.39298 7.50246 2 6.44772 2 5L2 4C2 3.4476 1.80477 2.97617 1.4143 2.5857C1.02383 2.19523 0.552396 2 0 2L0 0C2.66667 0 4 1.33333 4 4L4 5C4 6.33333 4.66667 7 6 7L6 9C4.66667 9 4 9.66667 4 11L4 12C4 14.6667 2.66667 16 0 16L0 16Z" fill="#3584E4" transform="translate(10 0)"/>
<path d="M6 16C3.33333 16 2 14.6667 2 12L2 11C2 9.66667 1.33333 9 0 9L0 7C1.33333 7 2 6.33333 2 5L2 4C2 2.89532 2.3905 1.95248 3.17149 1.17149C3.95248 0.390496 4.89532 3.03265e-15 6 3.03265e-15L6 2C5.44761 2 4.97617 2.19523 4.5857 2.5857C4.19524 2.97617 4 3.4476 4 4L4 5C4 6.44772 3.60702 7.50246 2.82106 8.16422C2.82352 8.16667 2.82598 8.16912 2.82843 8.17157C3.60948 8.95262 4 9.89543 4 11L4 12C4 12.5524 4.19524 13.0238 4.5857 13.4143C4.97617 13.8048 5.44761 14 6 14L6 16L6 16Z" fill="#3584E4"/>
</svg>
