<?xml version="1.0" encoding="utf-8"?>
<svg width="16" height="16" viewBox="0 0 16 16" xmlns="http://www.w3.org/2000/svg">
<path d="M11 13L14 13C15 13 16 12 16 11L16 2C16 1 15 0 14 0L2 0C1 0 0 1 0 2L0 11C6.6e-7 12 1 13 2 13L5 13L8 16L11 13L11 13L11 13Z" fill="#707070"/>
<g fill="#FFFFFF">
<rect width="2" height="1" x="11" y="9"/>
<rect width="4" height="1" x="6" y="9"/>
<rect width="2" height="1" x="3" y="9"/>
<rect width="5" height="1" x="8" y="7"/>
<rect width="4" height="1" x="3" y="7"/>
</g></svg>
