<?xml version="1.0" encoding="utf-8"?>
<svg width="16" height="16" viewBox="0 0 16 16" fill="gray" xmlns="http://www.w3.org/2000/svg">
<path d="M7 0L7 2L0 2L0 4C0 4 2.94141 4 2.94141 4C3.99938 6.59264 5.3 9 6.83075 10.805C5.04967 12.5563 3 13.7333 0.642387 14.379C0.642387 14.38 1.13761 16 1.13761 16C3.7444 15.2825 6.03652 13.96 8 12.0547C9.9657 13.96 12.26 15.2825 14.8646 16C14.8646 16 15.36 14.38 15.36 14.379C13.0141 13.7333 10.9525 12.5563 9.17147 10.805C10.7 9 12 6.59264 13.0586 4C13.0586 4 16 4 16 4L16 2L9 2L9 0L7 0ZM4.8555 4C4.8555 4 11.1467 4 11.1467 4C10.2442 6.16306 9.19582 8 8 9.5C6.8064 8 5.76 6.163 4.8555 4C4.8555 4 4.8555 4 4.8555 4Z"/>
</svg>
