<?xml version="1.0" encoding="utf-8"?>
<svg width="16" height="16" viewBox="0 0 16 16" fill="none" xmlns="http://www.w3.org/2000/svg">
<path d="M8 9.53791C8 9.53791 9.87262 8.40168 9.87262 8.40168C10.3656 9.24536 11 9.86512 12.1397 9.86512C13.0927 9.86512 13.7003 9.36578 13.7003 8.6771C13.7003 7.85075 13.076 7.55801 12.0247 7.07611C12.0247 7.07611 11.4498 6.81763 11.4498 6.81763C9.7906 6.07755 8.69 5.14781 8.69 3.18515C8.69001 1.37737 10 0 12.0576 0C13.5197 0 14.571 0.533797 15.3266 1.9283C15.3266 1.9283 13.5359 3.13355 13.5359 3.13355C13.1416 2.39327 12.7147 2.1 12.0575 2.12C11.384 2.10062 10.9569 2.54826 10.9569 3.13355C10.9569 3.8566 11.384 4.14945 12.3696 4.59708C12.3696 4.59708 12.9445 4.85526 12.9445 4.85526C14.9 5.7334 16 6.62857 16 8.64273C16 10.8122 14.3737 12 12.19 12C10.0534 12 8.67347 10.9326 8 9.538C8 9.538 8 9.53791 8 9.53791ZM9.79065e-05 9.77082C9.79065e-05 9.77082 1.9046 8.56917 1.9046 8.56917C2.27209 9.24834 2.60632 9.82302 3.40808 9.82302C4.17659 9.82302 4.66122 9.50963 4.66122 8.29055C4.66122 8.29055 4.66122 0 4.66122 0L7 0C7 0 7 8.32501 7 8.32501C7 10.8504 5.58 12 3.50831 12C1.63735 12 0.551325 10.9898 0 9.772C0 9.77062 9.79065e-05 9.77082 9.79065e-05 9.77082Z" fill="#F89400" transform="translate(0 2)"/>
</svg>
