<?xml version="1.0" encoding="utf-8"?>
<svg width="16" height="16" viewBox="0 0 16 16" xmlns="http://www.w3.org/2000/svg">
<path d="M8.06416 0C3.10638 2.82936 0.0282177 8.13062 0 13.8889C5.18686 16.7473 11.2775 16.6499 15.9975 13.919C15.998 13.9052 15.9988 13.8913 16 13.8775C15.994 8.15017 12.9692 2.86052 8.06422 9.95446e-07C8.06422 9.95446e-07 8.06416 0 8.06416 0ZM10.7332 6.13083C11.4682 6.63572 11.3592 7.8513 11.2408 8.68362C11.0901 9.60048 10.2205 11.1078 9.09066 12.0915C9.23681 12.3033 9.32228 12.5641 9.32105 12.8424C8.62092 13.2001 7.92619 12.7965 7.08597 12.0692C6.24576 11.3419 5.33955 9.88482 5.03882 8.3871C4.77207 8.41565 4.49894 8.35539 4.26467 8.20602C4.32585 7.36621 5.20767 6.86738 5.98918 6.57291C6.57157 6.35347 7.83805 6.2422 9.03308 6.41085C9.44166 6.46851 9.84189 6.55889 10.2036 6.68886C10.3143 6.45395 10.4976 6.25646 10.7332 6.13133C10.7332 6.13133 10.7332 6.13083 10.7332 6.13083Z" fill="#5837B4"/>
</svg>
