<?xml version="1.0" encoding="utf-8"?>
<svg width="16" height="16" viewBox="0 0 16 16" fill="gray" xmlns="http://www.w3.org/2000/svg">
<path d="M4.5 0C2.01471 0 0 2.01472 0 4.5C0 6.98528 2.01471 9 4.5 9C5.91364 9 7.17502 8.34816 8 7.32866C8.82498 8.34816 10.0864 9 11.5 9C13.9853 9 16 6.98528 16 4.5C16 2.01472 13.9853 0 11.5 0C10.0864 0 8.82498 0.65184 8 1.67134C7.17502 0.65184 5.91364 0 4.5 0L4.5 0ZM9 5L9 4L11 4L11 2L12 2L12 4L14 4L14 5L12 5L12 7L11 7L11 5L9 5L9 5ZM7 4L7 5L2 5L2 4L7 4L7 4Z" transform="translate(0 4)"/>
</svg>