<?xml version="1.0" encoding="utf-8"?>
<svg width="16" height="16" viewBox="0 0 16 16" fill="gray" xmlns="http://www.w3.org/2000/svg">
<path id="O" d="M8 0C3.58172 0 0 3.58172 0 8C0 12.4183 3.58172 16 8 16C12.4183 16 16 12.4183 16 8C16 3.58172 12.4183 0 8 0L8 0ZM2 8C2 4.68629 4.68629 2 8 2C11.3137 2 14 4.68629 14 8C14 11.3137 11.3137 14 8 14C4.68629 14 2 11.3137 2 8Z" fill-rule="evenodd"/>
<path id="c" d="M4 0C1.79086 0 -4.76837e-07 1.79086 0 4C-9.53674e-07 6.20914 1.79086 8 4 8L4 6C2.89543 6 2 5.10457 2 4C2 2.89543 2.89543 2 4 2C5.10457 2 6 2.89543 6 4L8 4C8 1.79086 6.20914 0 4 0L4 0Z" transform="matrix(0.707 -0.707 0.707 0.707 2.343 8)"/>
</svg>