<?xml version="1.0" encoding="utf-8"?>
<svg width="16" height="16" viewBox="0 0 16 16" xmlns="http://www.w3.org/2000/svg">
<path d="M15.1248 0.774293C14.1243 -0.246226 12.5896 -0.246226 11.5891 0.704897C11.5245 0.774293 11.5245 0.840116 11.5245 0.909512C11.5245 0.978907 11.5245 1.04473 11.5891 1.11413C11.5891 1.11413 11.9227 1.45447 11.9227 1.45447C12 1.52029 12.1233 1.52029 12.2564 1.45447C12.525 1.24985 12.7907 1.18046 13.1243 1.18046C13.9242 1.18046 14.591 1.86063 14.6 2.68011C14.591 3.08628 14.4585 3.42662 14.1928 3.7C12.1919 5.74167 9.45604 0.0247211 3.4 3C3 3.15567 2.78581 3.63124 2.98641 4.04097C2.98641 4.04097 2.98641 4.1068 3 4.1068C2.98641 4.107 4 5.94322 3.98689 5.94322C4.18749 6.35296 4.72175 6.48818 5.12 6.28357C5.12 6.28357 5.58617 6.01262 5.58617 6.01262C6.12042 5.67227 6.58665 5.33244 7.05638 4.9227C7.12091 4.85688 7.32201 4.85688 7.39 4.9227C7.5226 5 7.5226 5.12732 7.45457 5.26305C7.45457 5.26305 7.39 5.33244 7.39 5.33244C6.92031 5.74218 6.38955 6.14835 5.8553 6.48818C5.8553 6.48818 5.38907 6.69279 5.38907 6.69279C5.18847 6.82801 4.98738 6.89741 4.72225 6.89741C4.25252 6.89741 3.7863 6.6234 3.5857 6.21723C3.5857 6.21723 2.58521 4.44714 2.58521 4.44714C0.720312 5.808 -0.480769 8.46339 0.186054 11.7954C0.186054 11.93 0.318618 12 0.451682 12C0.451682 12 1.58473 12 1.58473 12C1.7208 12 1.78533 11.9306 1.85336 11.7954C1.98592 10.8443 2.78581 10.23 3.72176 10.3651C4.45362 10.4345 5.05591 11.0453 5.12 11.8C5.12044 11.9306 5.253 12 5.38907 12C5.38907 12 6.45409 12 6.45409 12C6.58665 12 6.6547 11.93 6.72271 11.7954C6.85528 10.8443 7.65517 10.23 8.58762 10.3651C9.32247 10.4345 9.92176 11.0453 9.98979 11.7954C9.98979 11.9306 10.1224 12 10.2554 12C10.2554 12 11.3239 12 11.3239 12C11.4565 12 11.6 11.8648 11.5896 11.726C11.5896 10.1641 12.0593 8.39349 13.1923 7.5087C17.1262 4.38132 16.06 1.72592 15.1253 0.774801C15.1253 0.774801 15.1248 0.774293 15.1248 0.774293ZM11 5.46715C11 5.46715 10.1904 5.06 10.1904 5.06C10.1904 4.78698 10.391 4.58185 10.6567 4.58185C10.9223 4.58185 11.1229 4.78647 11.1229 5.06C11.1909 5.26254 11.1229 5.4 11 5.46715C11 5.46715 11 5.46715 11 5.46715Z" fill="#39B6C2" transform="translate(0 2)"/>
</svg>
