<?xml version="1.0" encoding="utf-8"?>
<svg width="16" height="16" viewBox="0 0 16 16" xmlns="http://www.w3.org/2000/svg">
<linearGradient id="orange" x1="0" y1="0" x2="0" y2="1">
<stop offset="0" stop-color="#FAAF3E"/>
<stop offset="1" stop-color="#FF3426"/>
</linearGradient>
<path d="M0 9.1C4.1 11.8 6.9 11 8.9 10.1C8.9 10.1 3.1 5.1 1.53 2.2C4.66 4.9 7.9 6.9 7.9 6.9C7.9 6.9 4.333 3 3.3 1.23C4.84 3 9.4 6.4 11.22 7.5C12.2 4.92 11.47 2.456 9.7 0C13.7656 2.2 15.55 6.4 14.66 9.825C15.8 11.1 16.315 13 15.8 14C14.8 12.526 13.7656 12.3 12.236 13C8.157 15.23 2.3 13 0 9.1Z" fill="url(#orange)" transform="translate(0 1)"/>
</svg>
