<?xml version="1.0" encoding="utf-8"?>
<svg width="16" height="16" viewBox="0 0 16 16" fill="none" xmlns="http://www.w3.org/2000/svg">
<path id="contour" d="M5 0L8 0L8 3C8.772 3 9.43875 3.25435 10 3.763L10 3L13 3C15 3 16 4 16 6L16 7C16 9 15 10 13 10L13 13L10 13L10 10L5 10L5 9.4641C4.512 9.82137 3.8453 10 3 10L3 13L0 13L0 3L3 3C3.8453 3 4.512 3.17863 5 3.536L5 0L5 0Z" fill="gray" transform="translate(0 2)"/>
<g fill="black">
<path id="p" d="M0 0L2 0C3.10472 0 4 0.895279 4 2L4 3C4 4.10472 3.10472 5 2 5L1 5L1 8L0 8L0 0L0 0ZM1 4L1 1L2 1C2.55235 1 3 1.44765 3 2L3 3C3 3.55235 2.55235 4 2 4L1 4L1 4Z" fill-rule="evenodd" transform="translate(11 6)"/>
<path id="h" d="M0 0L1 0L1 3L2 3C3.10472 3 4 3.89528 4 5L4 8L3 8L3 5C3 4.44765 2.55235 4 2 4L1 4L1 8L0 8L0 0L0 0Z" transform="translate(6 3)"/>
<path id="p" d="M0 0L2 0C3.10472 0 4 0.895279 4 2L4 3C4 4.10472 3.10472 5 2 5L1 5L1 8L0 8L0 0L0 0ZM1 4L1 1L2 1C2.55235 1 3 1.44765 3 2L3 3C3 3.55235 2.55235 4 2 4L1 4L1 4Z" fill-rule="evenodd" transform="translate(1 6)"/>
</g></svg>