<?xml version="1.0" encoding="utf-8"?>
<svg width="16" height="16" viewBox="0 0 16 16" xmlns="http://www.w3.org/2000/svg">
<path d="M6.35088 0.572508C6.36543 0.660686 6.32177 0.734168 6.17623 0.80765C5.98703 0.704775 5.57953 0.645989 5.24479 0.6754C4.9 0.704775 4.57532 0.822347 4.61898 1.07219C4.6772 1.32202 5.02649 1.46899 5.6523 1.4102C7.18 1.27794 7.16588 0.2345 9.40716 0.0287397C11.1536 -0.132921 12.1287 0.410846 12.2597 1.07219C12.3616 1.58656 11.94 2.08624 10.6733 2.18911C9.55269 2.29199 8.89778 1.98336 8.83956 1.67474C8.81 1.513 8.89778 1.27794 9.43626 1.21915C9.49448 1.46899 9.8 1.73352 10.5278 1.66C11.0517 1.616 11.5 1.4249 11.4301 1.13097C11.3719 0.822347 10.8189 0.645989 9.94565 0.719472C8.17 0.881133 7.7335 1.86579 6.21989 1.99806C5.14292 2.1 4.26969 1.70413 4.15326 1.11627C4.1096 0.895829 4.11 0.381454 5.24479 0.278579C5.82694 0.23449 6.29266 0.337366 6.35087 0.572508C6.35087 0.5725 6.35 0.5725 6.35088 0.572508ZM0.674922 6.7156C0.2 7.34755 0 8.08238 0 8.8025C0 9.52262 0.4 10.11 0.95144 10.5661C1.53359 11.0217 2.1594 11.1539 2.87253 11.0217C3.15 10.9776 3.45468 10.8306 3.73 10.7424C3.14905 10.7424 2.65423 10.5514 2.16 10.1546C1.62 9.75777 1.25707 9.1993 1.16975 8.52327C1.03876 7.89132 1.16975 7.3 1.52 6.8C1.912 6.3 2.42137 6.01018 3.09084 5.922C3.76031 5.87791 4.34246 6.05427 4.92461 6.46577C4.8 6.27472 4.60443 6.14245 4.42978 5.96609C3.84763 5.56929 3.22182 5.37824 2.45047 5.57C1.752 5.71626 1.16975 6.08367 0.674921 6.71561C0.674921 6.71561 0.674922 6.71561 0.675 6.71561ZM8.47572 3.32074C6.59829 3.32074 4.92461 3.12968 3.71665 2.86515C2.42137 2.542 1.73734 2.2 1.73734 1.73352C1.73734 1.54247 1.82467 1.38081 2.08663 1.18976C1.27162 1.513 0.835 1.7776 0.835 2.18911C0.878673 2.6447 1.60636 3.1 3.1 3.453C4.488 3.80572 6.27811 4 8.432 4C10.63 4 12.3761 3.80572 13.7733 3.45301C15.26 3.1 16 2.63 16 2.2C16 1.866 15.65 1.55717 15.0686 1.32203C15.2 1.4102 15.3 1.55717 15.3 1.72C15.3 2.17442 14.6319 2.54183 13.2784 2.85046C12.0268 3.12969 10.4259 3.32 8.47572 3.32074C8.47572 3.32074 8.47572 3.32074 8.47572 3.32074ZM13.83 4.58463C12.4343 4.9 10.6442 5.1284 8.49027 5.1284C6.3 5.1284 4.50255 4.89326 3.1 4.6C1.85378 4.2613 1.1843 3.9 0.95 3.54118C1.1843 5.1284 1.7228 6.62743 2.43592 8C2.97441 8.773 3.5129 9.5 4 10.2721C4.28425 10.7277 4.44434 11.1833 4.5462 11.6389C4.8955 12.1386 5.4 12.462 6 12.64C6.8 12.9175 7.6025 13.0351 8.41751 13C8.4175 13 8.5 13 8.5 13C9.31984 13 10.1785 12.9 10.9644 12.6383C11.5466 12.4472 12.0414 12.1386 12.4 11.64C12.4 11.64 12.45 11.64 12.4489 11.6389C12.5362 11.1833 12.6817 10.7277 12.9 10.2721C13.4385 9.5 13.977 8.77311 14.5155 7.95011C15.2287 6.64213 15.7235 5.14309 16 3.54118C15.71 3.95268 15.04 4.3054 13.8315 4.58463C13.8315 4.58463 13.8315 4.58463 13.8315 4.58463Z" fill="#986A44" transform="translate(0 1)"/>
</svg>
