<?xml version="1.0" encoding="utf-8"?>
<svg width="16" height="16" viewBox="0 0 16 16" xmlns="http://www.w3.org/2000/svg">
<path d="M9 7L9 0C9.91925 0 10.8295 0.181061 11.6788 0.532845C12.5281 0.884624 13.2997 1.40024 13.9498 2.05025C14.5998 2.70026 15.1154 3.47194 15.4672 4.32122C15.8189 5.17049 16 6.08075 16 7L9 7L9 7ZM14 9L7 9L7 2C5.61553 2 4.26216 2.41054 3.11101 3.17971C1.95987 3.94888 1.06266 5.04213 0.532843 6.32122C0.00303544 7.6003 -0.135591 9.00777 0.134505 10.3656C0.404601 11.7235 1.07129 12.9708 2.05026 13.9497C3.02923 14.9287 4.27651 15.5954 5.63437 15.8655C6.99224 16.1356 8.3997 15.997 9.67879 15.4672C10.9579 14.9373 12.0511 14.0401 12.8203 12.889C13.5895 11.7379 14 10.3845 14 9L14 9Z" fill="#808080" fill-rule="evenodd" transform="translate(0 0)"/>
</svg>