<?xml version="1.0" encoding="utf-8"?>
<svg width="16" height="16" viewBox="0 0 16 16" fill="gray" xmlns="http://www.w3.org/2000/svg">
<path d="M0 0L0 8C0 13 7 16 7 16C7 16 14 13 14 8L14 0L0 0ZM1 1L1 8C1 12 7 14.9077 7 14.9077C7 14.9077 13 12 13 8L13 1L1 1Z" fill-rule="evenodd" transform="translate(1 0)"/>
<g transform="translate(6.75 3)">
<path d="M2.5 1.25C2.5 0.5625 1.9375 0 1.25 0C0.5625 0 0 0.5625 0 1.25C0 1.9375 0.5625 2.5 1.25 2.5C1.9375 2.5 2.5 1.9375 2.5 1.25L2.5 1.25Z" transform="translate(0 6.25)"/>
<path d="M0 0L2 0L2 5L0 5L0 0L0 0Z" transform="translate(0.25 0)"/>
</g></svg>
