<?xml version="1.0" encoding="utf-8"?>
<svg width="16" height="16" viewBox="0 0 16 16" fill="none" xmlns="http://www.w3.org/2000/svg">
<path d="M9 1C9 0.44764 8.55237 0 8 0L5 0C4.44763 0 4 0.44764 4 1L4 2L3 2C1.89529 2 1 2.89528 1 4L0 4L0 5L1 5L1 14C1 15.1047 1.89529 16 3 16L8 16L8 15L3 15C2.33334 15 2 14.6667 2 14L2 5L11 5L11 8L12 8L12 5L13 5L13 4L12 4C12 2.89528 11.1047 2 10 2L9 2L9 1L9 1ZM8 2L5 2L5 1L8 1L8 2L8 2Z" fill="#808080" fill-rule="evenodd" transform="translate(1 0)"/>
<g fill="#808080" transform="translate(5 6)">
<path d="M0 0L0 6L1 6L1 0L0 0L0 0Z"/>
<path d="M0 0L0 6L1 6L1 0L0 0L0 0Z" transform="translate(2 0)"/>
<path d="M0 0L0 3L1 3L1 0L0 0L0 0Z" transform="translate(4 0)"/>
</g><path d="M3.5 0C1.567 0 0 1.567 0 3.5C0 5.433 1.567 7 3.5 7C5.433 7 7 5.433 7 3.5C7 1.567 5.433 0 3.5 0L3.5 0ZM3 1L4 1L4 3L5 3L5 4L3 4L3 1L3 1Z" fill="#808080" fill-rule="evenodd" transform="translate(9 9)"/>
</svg>
