<?xml version="1.0" encoding="utf-8"?>
<svg width="16" height="16" viewBox="0 0 16 16" fill="gray" xmlns="http://www.w3.org/2000/svg">
<path id="shoulder" d="M10 0L10 1L6 1C3.2382 1 1 3.2377 1 6L0 6C0 2.6858 2.6858 0 6 0L10 0L10 0Z" transform="translate(0 10)"/>
<path id="head" d="M0 4C0 1.791 1.791 0 4 0C6.209 0 8 1.791 8 4C8 6.209 6.209 8 4 8C1.791 8 0 6.209 0 4L0 4ZM1 4C1 2.343 2.343 1 4 1C5.657 1 7 2.343 7 4C7 5.657 5.657 7 4 7C2.343 7 1 5.657 1 4L1 4Z" fill-rule="evenodd" transform="translate(4 0)"/>
<path id="quaver" d="M3 3.05176e-05C3 3.05176e-05 3 3.26953 3 3.26953C2.69615 3.09344 2.35125 3 2 3C1.98375 3 1.96748 3 1.9512 3C0.8657 3.02651 0 3.91422 0 5C0 6.1046 0.89543 7 2 7C3.1046 7 4 6.10457 4 5C4 5 4 1 4 1L6 1L6 0L3 3.05176e-05Z" transform="translate(10 9)"/>
</svg>
