<?xml version="1.0" encoding="utf-8"?>
<svg width="16" height="16" viewBox="0 0 16 16" fill="gray" xmlns="http://www.w3.org/2000/svg">
<path d="M10 0L10 1L6 1C3.24 1 1 3.24 1 6L0 6C0 2.7 2.7 0 6 0Z" transform="translate(0 10)"/>
<path d="M0 4C0 1.8 1.8 0 4 0C6.2 0 8 1.8 8 4C8 6.2 6.2 8 4 8C1.8 8 0 6.2 0 4L0 4ZM1 4C1 2.343 2.343 1 4 1C5.66 1 7 2.343 7 4C7 5.66 5.66 7 4 7C2.343 7 1 5.66 1 4L1 4Z" fill-rule="evenodd" transform="translate(4 0)"/>
<path d="M3 0C3 0 3 3.27 3 3.27C2.7 3.1 2.35 3 2 3C2 3 2 3 2 3C0.9 3 0 3.9 0 5C0 6.1 0.9 7 2 7C3.1 7 4 6.1 4 5C4 5 4 1 4 1L6 1L6 0Z" transform="translate(10 9)"/>
</svg>
