<?xml version="1.0" encoding="utf-8"?>
<svg width="16" height="16" viewBox="0 0 16 16" fill="gray" xmlns="http://www.w3.org/2000/svg">
<defs><clipPath id="triangle">
<path d="M16 0L16 16L8 8L0 16L0 0Z"/>
</clipPath></defs>
<circle r="2" cx="8" cy="8"/>
<path d="M0 3C0 1.35 1.35 0 3 0L5 0C6.65 0 8 1.35 8 3Z" transform="translate(4 12)"/>
<g clip-path="url(#triangle)" opacity="50%">
<path d="M0 8C0 3.6 3.6 0 8 0C12.4 0 16 3.6 16 8C16 12.4 12.4 16 8 16C3.6 16 0 12.4 0 8ZM8 1C4.15 1 1 4.15 1 8C1 11.85 4.15 15. 8 15.C11.85 15 15 11.85 15 8C15 4.15 11.85 1 8 1Z"/>
<path d="M0 5C0 2.25 2.25 0 5 0C7.75 0 10 2.25 10 5C10 7.75 7.75 10 5 10C2.25 10 0 7.75 0 5ZM5 1C2.8 1 1 2.8 1 5C1 7.2 2.8 9 5 9.0C7.2 9 9 7.2 9 5C9 2.8 7.2 1 5 1Z" transform="translate(3 3)"/>
</g></svg>
