<?xml version="1.0" encoding="utf-8"?>
<svg width="16" height="16" viewBox="0 0 16 16" fill="gray" xmlns="http://www.w3.org/2000/svg">
<path d="M1 6L0 6C1 2.545 4 0 7.75 0C12.166 0 15.75 3.6 15.75 8C15.75 12.42 12.166 16 7.75 16L7.75 15C11.614 15 14.75 11.866 14.75 8C14.75 4.134 11.614 1 7.75 1C4.577 1 1.9 3.11 1 6Z" transform="translate(0.25 0)"/>
<path d="M0 0L5 5L0 5Z" transform="translate(0 1)"/>
<path d="M0.565 1.34C0.36 1.07523 0.17 0.8 0 0.5114L0.86 0C1 0.252 1.174 0.5 1.354 0.72434L0.565 1.34L0.565 1.34ZM2 2.75181C1.71535 2.5463 1.464 2.32473 1.23 2.1L1.93446 1.38117C2.142 1.6 2.3617 1.8 2.6 2L2 2.75L2 2.75ZM3.7 3.77C3.4 3.63727 3.1 3.5 2.8143 3.32L3.323 2.45735C3.57312 2.6 3.8315 2.737 4.1 2.852L3.70102 3.7698L3.7 3.77ZM5.63 4.32766C5.3 4.2745 5 4.2 4.64 4.11L4.917 3.1467C5.2 3.23 5.49 3.3 5.7839 3.34L5.63 4.33L5.63 4.33Z" transform="translate(1.12 11.575)"/>
<path id="0" d="M2 0C3.1 0 4 0.9 4 2L4 4C4 5.1 3.1 6 2 6C0.9 6 0 5.1 0 4L0 2C0 0.9 0.9 0 2 0L2 0ZM3 4C3 4.55 2.55 5 2 5C1.45 5 1 4.55 1 4L1 2C1 1.45 1.45 1 2 1C2.55 1 3 1.45 3 2Z" fill-rule="evenodd" transform="translate(8 5)"/>
<path id="3" d="M0 0L1 0L1.5 0C2.33 0 3 0.67 3 1.5C3 2 2.8 2.37 2.47 2.644C2.8 3 3 3.477 3 4L3 4C3 5.1 2.1 6 1 6L0 6L0 5L1 5L1 5C1.55 5 2 4.55 2 4C2 3.45 1.55 3 1 3L0 3L0 2L1 2L1.5 2C1.776 2 2 1.776 2 1.5C2 1.224 1.776 1 1.5 1L1 1L0 1Z" transform="translate(4 5)"/>
</svg>
