<?xml version="1.0" encoding="utf-8"?>
<svg width="16" height="16" viewBox="0 0 16 16" fill="gray" xmlns="http://www.w3.org/2000/svg">
<path d="M15.748 6L14.7101 6C13.8496 3.10851 11.171 1 8 1C4.13401 1 1 4.134 1 8C1 11.866 4.134 15 8 15L8 16C3.58172 16 0 12.4183 0 8C0 3.58172 3.58172 0 8 0C11.7277 0 14.86 2.55 15.748 6L15.748 6Z"/>
<path d="M5 0L5 5L0 5L5 0Z" transform="translate(11 1)"/>
<path d="M1.14016 4.0707C0.817129 4.1612 0.485222 4.23217 0.145659 4.28216L0 3.29283C0.294856 3.24942 0.584991 3.18773 0.870404 3.10777L1.14016 4.0707L1.14016 4.0707ZM2.97083 3.3C2.6855 3.46481 2.38861 3.61267 2.08143 3.74208L1.69319 2.82052C1.96026 2.708 2.21942 2.57919 2.47066 2.43407L2.97083 3.3L2.97083 3.3ZM4.56973 2.08502C4.33114 2.31887 4.0777 2.53812 3.81076 2.74115L3.20537 1.94523C3.43864 1.7678 3.6601 1.57634 3.86975 1.37085L4.56973 2.08502L4.56973 2.08502ZM5.81231 0.51956C5.63851 0.805382 5.44716 1.07982 5.23961 1.34127L4.4564 0.719517C4.63861 0.489984 4.80577 0.250145 4.95788 0L5.81231 0.51956L5.81231 0.51956Z" transform="translate(9.027 11.632)"/>
<path id="0" d="M2 0C3.10472 0 4 0.89528 4 2L4 4C4 5.10472 3.10472 6 2 6C0.89528 6 0 5.10472 0 4L0 2C0 0.89528 0.89528 0 2 0L2 0ZM2 1C2.55236 1 3 1.44764 3 2L3 4C3 4.55236 2.55236 5 2 5C1.44764 5 1 4.55236 1 4L1 2C1 1.44764 1.44764 1 2 1L2 1Z" fill-rule="evenodd" transform="translate(8 5)"/>
<path id="1" d="M0 0L2 0L2 6L1 6L1 1L0 1L0 0L0 0Z" transform="translate(4 5)"/>
</svg>
