<?xml version="1.0" encoding="utf-8"?>
<svg width="16" height="16" viewBox="0 0 16 16" fill="gray" xmlns="http://www.w3.org/2000/svg">
<path d="M15.75 6L14.7 6C13.85 3.1 11.17 1 8 1C4.134 1 1 4.134 1 8C1 11.866 4.134 15 8 15L8 16C3.6 16 0 12.42 0 8C0 3.6 3.6 0 8 0C11.73 0 14.86 2.55 15.75 6L15.75 6Z"/>
<path d="M5 0L5 5L0 5Z" transform="translate(11 1)"/>
<path d="M1.14 4.0707C0.817 4.16 0.5 4.232 0.1457 4.3L0 3.3C0.3 3.25 0.6 3.2 0.87 3.1L1.14 4.0707L1.14 4.0707ZM3 3.3C2.7 3.465 2.4 3.6 2.1 3.74L1.7 2.82C2 2.71 2.22 2.58 2.47 2.434L3 3.3L3 3.3ZM4.57 2.1C4.33 2.32 4.1 2.54 3.8 2.74L3.2 2C3.44 1.77 3.66 1.576 3.87 1.37L4.57 2.1L4.57 2.1ZM5.8123 0.52C5.64 0.8 5.45 1.1 5.24 1.3413L4.4564 0.72C4.64 0.5 4.8 0.25 5 0L5.8123 0.52L5.8123 0.52Z" transform="translate(9 11.63)"/>
<path id="0" d="M2 0C3.1 0 4 0.9 4 2L4 4C4 5.1 3.1 6 2 6C0.9 6 0 5.1 0 4L0 2C0 0.9 0.9 0 2 0L2 0ZM3 4C3 4.55 2.55 5 2 5C1.45 5 1 4.55 1 4L1 2C1 1.45 1.45 1 2 1C2.55 1 3 1.45 3 2Z" fill-rule="evenodd" transform="translate(8 5)"/>
<path id="1" d="M0 0L2 0L2 6L1 6L1 1L0 1Z" transform="translate(4 5)"/>
</svg>
