<?xml version="1.0" encoding="utf-8"?>
<svg width="16" height="16" viewBox="0 0 16 16" fill="none" xmlns="http://www.w3.org/2000/svg">
<path d="M0 8C0 3.586 3.586 0 8 0C12.414 0 16 3.586 16 8C16 12.414 12.414 16 8 16C3.586 16 0 12.414 0 8L0 8ZM8 1.1C8.47597 1.1 8.94068 1.17345 9.38953 1.31333L8.85612 2.1L7.941 1.89117L7.95782 1.1002C7.97187 1.1 7.98593 1.1 8 1.1L8 1.1ZM1.48546 5.72036C2.27184 3.47298 4.18828 1.75639 6.55354 1.25185L7.161 2.3322L5.29762 3.48435L4 5.07758L3.26432 4.63752L2.48421 5.04358L2.92428 5.78968L3.43235 5.55165L4.31448 6.87384L5.06 6.43478L6.85683 7.28L8.51707 8.84112L7.80497 10.4L6.14474 12.7047L6.41477 13.9588L5.43163 13.3488L4.89156 9.95827L3.97543 8.7041L3.94142 7.17788L2.51822 6.12773L1.48546 5.72036L1.48546 5.72036ZM11.1569 1.86289C11.958 2.27589 12.6681 2.8412 13.2485 3.52055L12.5857 3.1453L11.23 3.7894L11 3.17931L11.6015 2.7L10.9914 2.12916L11.1569 1.86289L11.157 1.86289ZM14.9 8C14.9 9.19479 14.5963 10.3186 14.062 11.2986L13.2637 10.2983L12.8567 7.82298L10.7554 7.17888L10.1103 5.58665L11 4.1L12.6187 3.99242L13.1267 4.53551L13.8862 4.39782C14.5293 5.44633 14.9 6.67987 14.9 8L14.9 8Z" fill="#3584E4" fill-rule="evenodd"/>
</svg>