<?xml version="1.0" encoding="utf-8"?>
<svg width="128" height="128" viewBox="0 0 128 128" xmlns="http://www.w3.org/2000/svg">
<path d="M94 12C99.524 12 104 16.4765 104 22L104 96C104 101.524 99.524 106 94 106L10 106C4.4765 106 6.10352e-05 101.524 6.10352e-05 96L0 10C0 4.4765 4.4765 9.53672e-07 10 9.53672e-07L30 0C33.7 0 37 2.1 38.7 5.4L40.2 8.4C41.3 10.6 43.5 12 46 12L94 12Z" fill="#438DE6" transform="translate(12 12)"/>
<path d="M94 0C99.524 0 104 4.4765 104 10L104 74C104 79.524 99.524 84 94 84L10 84C4.4765 84 6.0633e-05 79.524 6.0633e-05 74L0 18C0 12.4765 4.4765 8 10 8L38 8C38 8 42 8 46 4C50 0 54 3.8147e-06 54 3.8147e-06L94 0Z" fill="#A4CAEE" transform="translate(12 32)"/>
<path d="M25.923 0C19.446 0 13.944 4 11.3157 9.69722C11.3157 9.69722 11.1328 10.084 11.1328 10.084C11.1328 10.084 10.717 10.114 10.717 10.114C4.73474 10.55 0 15.7248 0 22.0203C0 28.6 5.1484 34 11.5137 34C11.5137 34 25.9277 34 25.9277 34C25.9277 34 39.3693 34 39.37 34C44.1423 34 48 29.9457 48 25.032C48 21.306 45.76 18.1767 42.586 16.8288C42.586 16.8288 42.176 16.653 42.176 16.653C42.176 16.653 42.146 16.2077 42.146 16.2077C41.7389 7.22841 34.6851 0 25.933 0C25.933 0 25.923 0 25.923 0ZM25.923 3C33.026 3 38.797 8.8566 39.136 16.342C39.136 16.342 39.136 16.372 39.136 16.372L39.2889 18.7C39.2889 18.7 41.4 19.6 41.4 19.6C43.5013 20.482 44.9843 22.5074 44.9843 25.032C45.0143 28.3742 42.4466 31 39.3713 31C39.3713 31 25.9356 31 25.9356 31C25.9356 31 11.516 31 11.516 31C6.84723 31 3 27.0335 3 22.0202C3 17.23 6.55573 13.4213 10.9356 13.1024C10.9356 13.1024 13.1038 12.95 13.1038 12.95L14.0352 10.9637C14.0352 10.9637 14.0352 10.9517 14.0352 10.9517C16.22 6.2105 20.673 3 25.9182 3C25.9182 3 25.923 3 25.923 3Z" fill="#3584E4" transform="translate(40 55)"/>
</svg>
