<?xml version="1.0" encoding="utf-8"?>
<svg width="128" height="128" viewBox="0 0 128 128" xmlns="http://www.w3.org/2000/svg">
<path d="M94 12C99.524 12 104 16.4765 104 22L104 96C104 101.524 99.524 106 94 106L10 106C4.4765 106 6.10352e-05 101.524 6.10352e-05 96L0 10C0 4.4765 4.4765 9.53672e-07 10 9.53672e-07L30 0C33.7 0 37 2.1 38.7 5.4L40.2 8.4C41.3 10.6 43.5 12 46 12L94 12Z" fill="#438DE6" transform="translate(12 12)"/>
<path d="M94 0C99.524 0 104 4.4765 104 10L104 74C104 79.524 99.524 84 94 84L10 84C4.4765 84 6.0633e-05 79.524 6.0633e-05 74L0 18C0 12.4765 4.4765 8 10 8L38 8C38 8 42 8 46 4C50 0 54 3.8147e-06 54 3.8147e-06L94 0Z" fill="#A4CAEE" transform="translate(12 32)"/>
<g fill="#3584E4">
<path d="M4.4356 0L0 9.93177L3.1347 18.1467L7.55268 6.96117L13.02 21L4.23039 21L6.5214 27L14.7537 27L18 36L25.078 36L10.623 0L4.4356 0L4.4356 0Z" fill-rule="evenodd" transform="translate(62.446 50)"/>
<path d="M20.025 0L15.975 0L3.4686 33L0 33L0 36L9 36L9 33L6.67383 33L10.1016 24L22.7931 24L26.2209 33L24 33L24 36L36 36L36 33L32.637 33L20.025 0L20.025 0ZM16.4472 7.3476L21.6504 21L11.244 21L16.4472 7.3476L16.4472 7.3476Z" transform="translate(40 62)"/>
</g></svg>
