<?xml version="1.0" encoding="utf-8"?>
<svg width="128" height="128" viewBox="0 0 128 128" xmlns="http://www.w3.org/2000/svg">
<path d="M94 12C99.524 12 104 16.4765 104 22L104 96C104 101.524 99.524 106 94 106L10 106C4.4765 106 6.10352e-05 101.524 6.10352e-05 96L0 10C0 4.4765 4.4765 9.53672e-07 10 9.53672e-07L30 0C33.7 0 37 2.1 38.7 5.4L40.2 8.4C41.3 10.6 43.5 12 46 12L94 12Z" fill="#438DE6" transform="translate(12 12)"/>
<path d="M94 0C99.524 0 104 4.4765 104 10L104 74C104 79.524 99.524 84 94 84L10 84C4.4765 84 6.0633e-05 79.524 6.0633e-05 74L0 18C0 12.4765 4.4765 8 10 8L38 8C38 8 42 8 46 4C50 0 54 3.8147e-06 54 3.8147e-06L94 0Z" fill="#A4CAEE" transform="translate(12 32)"/>
<path d="M0 2.73949e-06L0 45L3 45L3 42L6 42L6 45L36 45L36 42L39 42L39 45L42 45L42 0L39 0L39 3L36 3L36 0L6 2.73949e-06L6 3L3 3L3 2.73949e-06L0 2.73949e-06L0 2.73949e-06ZM9 24L33 24L33 42L9 42L9 24L9 24ZM9 3L33 3L33 21L9 21L9 3L9 3ZM36 36L39 36L39 39L36 39L36 36L36 36ZM36 30L39 30L39 33L36 33L36 30L36 30ZM36 24L39 24L39 27L36 27L36 24L36 24ZM36 18L39 18L39 21L36 21L36 18L36 18ZM36 12L39 12L39 15L36 15L36 12L36 12ZM36 6L39 6L39 9L36 9L36 6L36 6ZM3 36L6 36L6 39L3 39L3 36L3 36ZM3 30L6 30L6 33L3 33L3 30L3 30ZM3 24L6 24L6 27L3 27L3 24L3 24ZM3 18L6 18L6 21L3 21L3 18L3 18ZM3 12L6 12L6 15L3 15L3 12L3 12ZM3 6L6 6L6 9L3 9L3 6L3 6Z" fill="#3584E4" transform="translate(43 50)"/>
</svg>
