<?xml version="1.0" encoding="utf-8"?>
<svg width="128" height="128" viewBox="0 0 128 128" xmlns="http://www.w3.org/2000/svg">
<path d="M94 12C99.524 12 104 16.4765 104 22L104 96C104 101.524 99.524 106 94 106L10 106C4.4765 106 6.10352e-05 101.524 6.10352e-05 96L0 10C0 4.4765 4.4765 9.53672e-07 10 9.53672e-07L30 0C33.7 0 37 2.1 38.7 5.4L40.2 8.4C41.3 10.6 43.5 12 46 12L94 12Z" fill="#438DE6" transform="translate(12 12)"/>
<path d="M94 0C99.524 0 104 4.4765 104 10L104 74C104 79.524 99.524 84 94 84L10 84C4.4765 84 6.0633e-05 79.524 6.0633e-05 74L0 18C0 12.4765 4.4765 8 10 8L38 8C38 8 42 8 46 4C50 0 54 3.8147e-06 54 3.8147e-06L94 0Z" fill="#A4CAEE" transform="translate(12 32)"/>
<g fill="#3584E4" transform="translate(42 52)">
<path d="M6 0L9 0L9 6L15 6L15 9L9 9L9 15L6 15L6 9L0 9L0 6L6 6L6 0L6 0L6 0Z" transform="translate(33 33)"/>
<path d="M6 9L9 9L9 0L0 0L0 3L6 3Z" transform="translate(33 3)"/>
<path d="M0 0L3 0L3 6L9 6L9 9L0 9Z" transform="translate(3 33)"/>
<path d="M0 0L9 0L9 3L3 3L3 9L0 9Z" transform="translate(3 3)"/>
<rect width="9" height="3" x="18" y="39"/>
<rect width="3" height="9" x="39" y="18"/>
<rect width="3" height="9" x="3" y="18"/>
<rect width="9" height="3" x="18" y="3"/>
</g></svg>
