<?xml version="1.0" encoding="utf-8"?>
<svg width="128" height="128" viewBox="0 0 128 128" xmlns="http://www.w3.org/2000/svg">
<path d="M94 12C99.524 12 104 16.4765 104 22L104 96C104 101.524 99.524 106 94 106L10 106C4.4765 106 6.10352e-05 101.524 6.10352e-05 96L0 10C0 4.4765 4.4765 9.53672e-07 10 9.53672e-07L30 0C33.7 0 37 2.1 38.7 5.4L40.2 8.4C41.3 10.6 43.5 12 46 12L94 12Z" fill="#438DE6" transform="translate(12 12)"/>
<path d="M94 0C99.524 0 104 4.4765 104 10L104 74C104 79.524 99.524 84 94 84L10 84C4.4765 84 6.0633e-05 79.524 6.0633e-05 74L0 18C0 12.4765 4.4765 8 10 8L38 8C38 8 42 8 46 4C50 0 54 3.8147e-06 54 3.8147e-06L94 0Z" fill="#A4CAEE" transform="translate(12 32)"/>
<path id="controller" d="M33 30C33 30 37.2 36.6 37.2 36.6C38.25 38.1 40 39 42 39C45.3 39 48 36.3138 48 33C48 33 48 6 48 6C48 2.6786 45.3 0 42 0C42 0 6 0 6 0C2.69 0 0 2.6786 0 6C0 6 0 33 0 33C0 36.3138 2.7 39 6 39C7.98 39 9.75 38.1 10.8 36.6C10.8 36.6 15 30 15 30L33 30L33 30ZM8.31 34.924L13.35 27L34.65 27C34.65 27 39.7 34.924 39.69 34.924C40.2 35.64 40.98 36 42 36C43.65 36 45 34.65 45 33C45 33 45 6 45 6C45 4.35 43.65 3 42 3C42 3 6 3 6 3C4.35 3 3 4.35 3 6C3 6 3 33 3 33C3 34.65 4.35 36 6 36C7.018 36 7.788 35.64 8.31 34.924C8.31 34.924 8.31 34.924 8.31 34.924L8.31 34.924ZM36 18C36 16.3431 37.3431 15 39 15C40.657 15 42 16.3431 42 18C42 19.657 40.6577 21 39 21C37.3431 21 36 19.657 36 18C36 18 36 18 36 18ZM30 9C30 7.3431 31.3431 6 33 6C34.657 6 36 7.3431 36 9C36 10.657 34.657 12 33 12C31.3431 12 30 10.657 30 9C30 9 30 9 30 9ZM12 6L18 6L18 12L24 12L24 18L18 18L18 24L12 24L12 18L6 18L6 12L12 12L12 6L12 6Z" fill="#3584E4" fill-rule="evenodd" transform="translate(40 56)"/>
</svg>
