<?xml version="1.0" encoding="utf-8"?>
<svg width="128" height="128" viewBox="0 0 128 128" xmlns="http://www.w3.org/2000/svg">
<path d="M94 12C99.524 12 104 16.4765 104 22L104 96C104 101.524 99.524 106 94 106L10 106C4.4765 106 6.10352e-05 101.524 6.10352e-05 96L0 10C0 4.4765 4.4765 9.53672e-07 10 9.53672e-07L30 0C33.7 0 37 2.1 38.7 5.4L40.2 8.4C41.3 10.6 43.5 12 46 12L94 12Z" fill="#438DE6" transform="translate(12 12)"/>
<path d="M94 0C99.524 0 104 4.4765 104 10L104 74C104 79.524 99.524 84 94 84L10 84C4.4765 84 6.0633e-05 79.524 6.0633e-05 74L0 18C0 12.4765 4.4765 8 10 8L38 8C38 8 42 8 46 4C50 0 54 3.8147e-06 54 3.8147e-06L94 0Z" fill="#A4CAEE" transform="translate(12 32)"/>
<path d="M24 0C10.7452 0 0 10.7452 0 24C0 37.2549 10.7452 48 24 48C37.2549 48 48 37.2549 48 24C48 10.7452 37.2549 0 24 0C24 0 24 0 24 0C24 0 24 0 24 0ZM9.15075 38.85C5 34.7487 3 29.8 3 24C3 18.2 5 13.2513 9.15075 9.15075C13.2513 5 18.2 3 24 3C29.8 3 34.7487 5 38.85 9.15075C42.95 13.2513 45 18.2 45 24C45 29.8 42.95 34.7487 38.85 38.85C34.7487 42.95 29.8 45 24 45C18.2 45 13.2513 42.95 9.15075 38.85C9.15075 38.85 9.15075 38.85 9.15075 38.85C9.15075 38.85 9.15075 38.85 9.15075 38.85ZM13.06 10.94L24 21.8773L31.1425 14.7335L31.94 13.94L34.06 16.06L24 26.12L10.94 13.06L12 12L13.06 10.94L13.06 10.94L13.06 10.94Z" fill="#3584E4" fill-rule="evenodd" transform="translate(40 50)"/>
</svg>
