<?xml version="1.0" encoding="utf-8"?>
<svg width="128" height="128" viewBox="0 0 128 128" xmlns="http://www.w3.org/2000/svg">
<path d="M94 12C99.524 12 104 16.4765 104 22L104 96C104 101.524 99.524 106 94 106L10 106C4.4765 106 6.10352e-05 101.524 6.10352e-05 96L0 10C0 4.4765 4.4765 9.53672e-07 10 9.53672e-07L30 0C33.7 0 37 2.1 38.7 5.4L40.2 8.4C41.3 10.6 43.5 12 46 12L94 12Z" fill="#438DE6" transform="translate(12 12)"/>
<path d="M94 0C99.524 0 104 4.4765 104 10L104 74C104 79.524 99.524 84 94 84L10 84C4.4765 84 6.0633e-05 79.524 6.0633e-05 74L0 18C0 12.4765 4.4765 8 10 8L38 8C38 8 42 8 46 4C50 0 54 3.8147e-06 54 3.8147e-06L94 0Z" fill="#A4CAEE" transform="translate(12 32)"/>
<g fill="#3584E4" transform="translate(40 57.175)">
<path d="M2.04827 0C1.5 4.79221e-05 0.984417 0.215741 0.6 0.6C0.216 0.983827 0 1.5 0 2.04845C0 2.6 0.216 3.11307 0.6 3.49723C0.6 3.49723 10.4228 13.32 10.4228 13.32C10.4228 13.32 0.6 23.144 0.6 23.144C-0.2 23.9437 -0.2 25.24 0.6 26.04C1.4 26.84 2.69636 26.84 3.49617 26.04C3.49617 26.04 16.2162 13.32 16.2162 13.32C16.2162 13.32 3.49617 0.6 3.49617 0.6C3.11211 0.215745 2.6 5.07832e-05 2.04827 0C2.04827 0 2.04827 0 2.04827 0Z" transform="translate(31.784 3.5)"/>
<path d="M10.5 0C9.4 -0.222 8.28 0.425835 7.98765 1.51812C7.98765 1.51812 0 31.0708 0 31.071C-0.222 32.1632 0.425838 33.286 1.51813 33.579C2.61054 33.8715 3.73333 33.2233 4 32.131C4 32.131 11.9455 2.57842 11.9455 2.57842C12.086 2 12 1.49444 11.74 1C11.4683 0.55366 11 0.21 10.5 0C10.5 0 10.5 0 10.5 0Z" transform="translate(18 0)"/>
<path d="M14.168 0C13.625 5e-05 13.1 0.215744 12.72 0.6C12.72 0.6 0 13.32 0 13.32C0 13.32 12.72 26.04 12.72 26.04C13.52 26.84 14.8161 26.84 15.616 26.04C16.4152 25.24 16.4152 23.9437 15.616 23.144C15.616 23.144 5.7934 13.32 5.79338 13.32C5.7934 13.32 15.616 3.49723 15.616 3.49723C16 3.113 16.2162 2.6 16.2162 2.04845C16.2162 1.5 16 1 15.616 0.6C15.2318 0.215743 14.711 4.86374e-05 14.168 0C14.168 0 14.168 0 14.168 0Z" transform="translate(0 3.5)"/>
</g></svg>
