<?xml version="1.0" encoding="utf-8"?>
<svg width="128" height="128" viewBox="0 0 128 128" xmlns="http://www.w3.org/2000/svg">
<path d="M94 12C99.524 12 104 16.4765 104 22L104 96C104 101.524 99.524 106 94 106L10 106C4.4765 106 6.10352e-05 101.524 6.10352e-05 96L0 10C0 4.4765 4.4765 9.53672e-07 10 9.53672e-07L30 0C33.7 0 37 2.1 38.7 5.4L40.2 8.4C41.3 10.6 43.5 12 46 12L94 12Z" fill="#438DE6" transform="translate(12 12)"/>
<path d="M94 0C99.524 0 104 4.4765 104 10L104 74C104 79.524 99.524 84 94 84L10 84C4.4765 84 6.0633e-05 79.524 6.0633e-05 74L0 18C0 12.4765 4.4765 8 10 8L38 8C38 8 42 8 46 4C50 0 54 3.8147e-06 54 3.8147e-06L94 0Z" fill="#A4CAEE" transform="translate(12 32)"/>
<path d="M6.12143 50L25.7334 29.8185L19.6537 23.1L6.12143 50L6.12143 50ZM28.7833 14.22L28.7833 27.5792L37.8927 18.6221L28.7833 14.2203L28.7833 14.22ZM0 0L27.2533 29.072L27.2533 13.3971L0 0L0 0ZM28.7732 12.65L50 23.0904L45.4402 12.65L28.7732 12.6506L28.7732 12.6506Z" fill="#3584E4" transform="translate(39 50)"/>
</svg>
