<?xml version="1.0" encoding="utf-8"?>
<svg width="128" height="128" viewBox="0 0 128 128" xmlns="http://www.w3.org/2000/svg">
<path d="M94 12C99.524 12 104 16.4765 104 22L104 96C104 101.524 99.524 106 94 106L10 106C4.4765 106 6.10352e-05 101.524 6.10352e-05 96L0 10C0 4.4765 4.4765 9.53672e-07 10 9.53672e-07L30 0C33.7 0 37 2.1 38.7 5.4L40.2 8.4C41.3 10.6 43.5 12 46 12L94 12Z" fill="#438DE6" transform="translate(12 12)"/>
<path d="M94 0C99.524 0 104 4.4765 104 10L104 74C104 79.524 99.524 84 94 84L10 84C4.4765 84 6.0633e-05 79.524 6.0633e-05 74L0 18C0 12.4765 4.4765 8 10 8L38 8C38 8 42 8 46 4C50 0 54 3.8147e-06 54 3.8147e-06L94 0Z" fill="#A4CAEE" transform="translate(12 32)"/>
<g fill="#3584E4" transform="translate(40 50)">
<path d="M29.25 0C29.25 0 7.5 0 7.5 0C3.3573 0 0 3.3573 0 7.5C0 7.5 0 40.5 0 40.5C0 44.6427 3.3573 48 7.5 48C7.5 48 34.5 48 34.5 48C38.6427 48 42 44.6427 42 40.5C42 40.5 42 12.75 42 12.75L29.25 0L29.25 0L29.25 0ZM27 15L39 15C39 15 39 40.5 39 40.5C39 42.99 36.99 45 34.5 45C34.5 45 7.5 45 7.5 45C5.01 45 3 42.99 3 40.5C3 40.5 3 7.5 3 7.5C3 5 5 3 7.5 3C7.5 3 27 3 27 3L27 15L27 15L27 15Z" fill-rule="evenodd" transform="translate(3 0)"/>
<path d="M10.5 0C4.701 0 0 4.7 0 10.5C0 16.3 4.701 21 10.5 21C16.3 21 21 16.3 21 10.5C21 4.701 16.3 0 10.5 0C10.5 0 10.5 0 10.5 0ZM12 9L12 3L9 3L9 9L3 9L3 12L9 12L9 18L12 18L12 12L18 12L18 9L12 9L12 9Z" fill-rule="evenodd" transform="translate(18 21)"/>
</g></svg>
