<?xml version="1.0" encoding="utf-8"?>
<svg width="128" height="128" viewBox="0 0 128 128" xmlns="http://www.w3.org/2000/svg">
<path d="M94 12C99.524 12 104 16.4765 104 22L104 96C104 101.524 99.524 106 94 106L10 106C4.4765 106 6.10352e-05 101.524 6.10352e-05 96L0 10C0 4.4765 4.4765 9.53672e-07 10 9.53672e-07L30 0C33.7 0 37 2.1 38.7 5.4L40.2 8.4C41.3 10.6 43.5 12 46 12L94 12Z" fill="#438DE6" transform="translate(12 12)"/>
<path d="M94 0C99.524 0 104 4.4765 104 10L104 74C104 79.524 99.524 84 94 84L10 84C4.4765 84 6.0633e-05 79.524 6.0633e-05 74L0 18C0 12.4765 4.4765 8 10 8L38 8C38 8 42 8 46 4C50 0 54 3.8147e-06 54 3.8147e-06L94 0Z" fill="#A4CAEE" transform="translate(12 32)"/>
<path d="M12 2.26498e-05C12 2.26498e-05 12 28.4995 12 28.4995C10.7465 27.5579 9.18843 27 7.5 27C3.35787 27 0 30.3579 0 34.5C0 38.6421 3.35787 42 7.5 42C11.6421 42 15 38.6421 15 34.5C15 34.5 15 9 15 9L39 9C39 9 39 28.4995 39 28.4995C37.7466 27.5579 36.1884 27 34.5 27C30.3579 27 27 30.3579 27 34.5C27 38.6421 30.3579 42 34.5 42C38.6421 42 42 38.6421 42 34.5C42 34.5 42 0 42 0L12 2.26498e-05L12 2.26498e-05L12 2.26498e-05Z" fill="#3584E4" transform="translate(43 53)"/>
</svg>
