<?xml version="1.0" encoding="utf-8"?>
<svg width="128" height="128" viewBox="0 0 128 128" xmlns="http://www.w3.org/2000/svg">
<defs>
<linearGradient id="corners">
<stop offset="0" stop-color="#3D3846"/>
<stop offset="4%" stop-color="#79718E"/>
<stop offset="8%" stop-color="#4E475A"/>
<stop offset="92%" stop-color="#716881"/>
<stop offset="96%" stop-color="#847A96"/>
<stop offset="1" stop-color="#3D3846"/>
</linearGradient>
<linearGradient id="blue" x1="0" y1="1" x2="1" y2="0">
<stop offset="0" stop-color="#1C71D9"/>
<stop offset="1" stop-color="#63A1EB"/>
</linearGradient>
<linearGradient id="base">
<stop offset="0" stop-color="#999894"/>
<stop offset="6%" stop-color="#C0BFBC"/>
<stop offset="12%" stop-color="#9A9996"/>
<stop offset="88%" stop-color="#76767A"/>
<stop offset="94%" stop-color="#C0BFBC"/>
<stop offset="1" stop-color="#77767B"/>
</linearGradient>
<linearGradient id="shadow" x1="0" y1="0" x2="0" y2="1">
<stop offset="0" stop-color="#434348"/>
<stop offset="1" stop-color="#77767B"/>
</linearGradient>
</defs>
<g transform="translate(8 8)" filter="brightness(60%)">
<rect width="84" height="68" rx="7" fill="url(#corners)"/>
<rect width="84" height="64" rx="7" fill="#9A94A4"/>
<rect width="76" height="56" rx="3" x="4" y="4" fill="#241F31"/>
<rect width="68" height="48" x="8" y="8" fill="url(#blue)"/>
</g><g transform="translate(36 40)">
<rect width="36" height="8" rx="3" x="24" y="74" fill="url(#base)"/>
<path d="M0 0L9 0C9 5 13 9 18 9C23 9 27 5 27 0L36 0L36 12.8C36 14.5676 34.7 16 33 16L3 16C1.3 16 0 14.6 0 12.8Z" fill="url(#shadow)" transform="translate(24 64)"/>
<rect width="84" height="68" rx="7" fill="url(#corners)"/>
<rect width="84" height="64" rx="7" fill="#9A94A4"/>
<rect width="76" height="56" rx="3" x="4" y="4" fill="#241F31"/>
<rect width="68" height="48" x="8" y="8" fill="url(#blue)"/>
</g></svg>
