<?xml version="1.0" encoding="utf-8"?>
<svg width="128" height="128" viewBox="0 0 128 128" xmlns="http://www.w3.org/2000/svg">
<path d="M94 12C99.524 12 104 16.4765 104 22L104 96C104 101.524 99.524 106 94 106L10 106C4.4765 106 6.10352e-05 101.524 6.10352e-05 96L0 10C0 4.4765 4.4765 9.53672e-07 10 9.53672e-07L30 0C33.7 0 37 2.1 38.7 5.4L40.2 8.4C41.3 10.6 43.5 12 46 12L94 12Z" fill="#438DE6" transform="translate(12 12)"/>
<path d="M94 0C99.524 0 104 4.4765 104 10L104 74C104 79.524 99.524 84 94 84L10 84C4.4765 84 6.0633e-05 79.524 6.0633e-05 74L0 18C0 12.4765 4.4765 8 10 8L38 8C38 8 42 8 46 4C50 0 54 3.8147e-06 54 3.8147e-06L94 0Z" fill="#A4CAEE" transform="translate(12 32)"/>
<path d="M36 48C36 48 36 7.5 36 7.5C36 3.3573 32.6427 0 28.5 0C28.5 0 7.5 0 7.5 0C3.3573 0 0 3.3573 0 7.5C0 7.5 0 48 0 48L18 30C18 30 36 48 36 48ZM3 40.7574C3 40.7574 18 25.7574 18 25.7574L33 40.7574C33 40.7574 33 7.5 33 7.5C33 6.25707 32.5608 5.19636 31.6821 4.31781C30.8037 3.43926 29.7429 3 28.5 3C28.5 3 7.5 3 7.5 3C6.25707 3 5.19636 3.43926 4.31781 4.31781C3.43926 5.19636 3 6.25707 3 7.5C3 7.5 3 40.7574 3 40.7574Z" fill="#3584E4" fill-rule="evenodd" transform="translate(46 50)"/>
</svg>
