<?xml version="1.0" encoding="utf-8"?>
<svg width="128" height="128" viewBox="0 0 128 128" xmlns="http://www.w3.org/2000/svg">
<path d="M94 12C99.524 12 104 16.4765 104 22L104 96C104 101.524 99.524 106 94 106L10 106C4.4765 106 6.10352e-05 101.524 6.10352e-05 96L0 10C0 4.4765 4.4765 9.53672e-07 10 9.53672e-07L30 0C33.7 0 37 2.1 38.7 5.4L40.2 8.4C41.3 10.6 43.5 12 46 12L94 12Z" fill="#438DE6" transform="translate(12 12)"/>
<path d="M94 0C99.524 0 104 4.4765 104 10L104 74C104 79.524 99.524 84 94 84L10 84C4.4765 84 6.0633e-05 79.524 6.0633e-05 74L0 18C0 12.4765 4.4765 8 10 8L38 8C38 8 42 8 46 4C50 0 54 3.8147e-06 54 3.8147e-06L94 0Z" fill="#A4CAEE" transform="translate(12 32)"/>
<path d="M48 24L24 0L0 24L2.12132 26.1087L6 22.23L6 45L42 45L42 22.23L45.885 26.115L48 24L48 24ZM33 27L33 42L39 42L39 19.23L24 4.23L9 19.23L9 42L24 42L24 27L33 27L33 27ZM33.255 6L42 15L42 6L33.255 6L33.255 6Z" fill="#3584E4" fill-rule="evenodd" transform="translate(40 50)"/>
</svg>
