<?xml version="1.0" encoding="utf-8"?>
<svg width="16" height="16" viewBox="0 0 16 16" fill="gray" xmlns="http://www.w3.org/2000/svg">
<path d="M1 0L1 2L0 2L0 3C0 4.10535 0.887726 5 1.992 5L2 13.46C2 15 3.25 16 4.5 16C5.75 16 7 15 7 13.46L7 5L7 5L7 3C7 2.445 7.59192 1.992 8 1.992C8.403 2 9 2.46 9 3L9 5L9 5L9 13C9 13.636 9.274 14.17 9.66211 14.504C10.05 14.84 10.5352 15 11 14.992C11.9861 14.992 13 14.191 12.992 13L13 5L12.9921 5L13 4.42C13 4.072 13.086 4.047 13.213 3.985C13.34 3.92303 13.483 3.92 13.483 3.919L13.504 2.92C13.504 2.92 13.147 2.904 12.774 3.08701C12.4 3.27 11.992 3.74499 12 4.42L12 13C11.9921 13.604 11.4221 13.992 11 13.992C10.7512 14 10.51 13.9056 10.3173 13.748C10.1343 13.6 10 13.377 10 13L10 3C10.0081 1.836 9.018 1 8 1C6.98706 0.992 6 1.83 6 3L6 13.46C6 14.39 5.13205 14.96 4.5 14.96C3.86795 14.96 2.99206 14.386 3 13.46L3 5C4.10803 5 5 4.108 5 3L5 2L4 2L4 0L3 0L3 2L2 2L2 0L1 0L1 0Z" transform="translate(1 0)"/>
</svg>