<?xml version="1.0" encoding="utf-8"?>
<svg width="16" height="16" viewBox="0 0 16 16" fill="none" xmlns="http://www.w3.org/2000/svg">
  <g>
    <path id="frame" d="M14 2.5C14 1.1191 12.8809 0 11.5 0L2.5 0C1.1191 0 0 1.1191 0 2.5L0 11.5C0 12.8809 1.1191 14 2.5 14L11.5 14C12.8809 14 14 12.8809 14 11.5L14 2.5L14 2.5ZM2.5 1L11.5 1C11.9143 1 12.2679 1.14642 12.5607 1.43927C12.8536 1.73211 13 2.08569 13 2.5L13 11.5C13 11.9143 12.8536 12.2679 12.5607 12.5607C12.2679 12.8536 11.9143 13 11.5 13L2.5 13C2.08569 13 1.73212 12.8536 1.43927 12.5607C1.14642 12.2679 1 11.9143 1 11.5L1 2.5C1 2.08569 1.14642 1.73211 1.43927 1.43927C1.73212 1.14642 2.08569 1 2.5 1L2.5 1Z" fill="#808080" fill-rule="evenodd" transform="translate(1 1)"/>
    <path id="Vector" d="M3 0L3 6.26757C2.70583 6.0974 2.36429 6.00001 2 6.00001C0.895432 6.00001 0 6.89544 0 8.00001C0 9.10458 0.895432 10 2 10C3.10457 10 4 9.10458 4 8.00001L4 2.5L6.5 3.5L6.5 1L4 0L3 0L3 0Z" fill="#808080" fill-rule="evenodd" transform="translate(5 3)"/>
  </g>
</svg>