<?xml version="1.0" encoding="utf-8"?>
<svg width="16" height="16" viewBox="0 0 16 16" xmlns="http://www.w3.org/2000/svg">
<path d="M7.00003 0C10.3142 0 13 2.68585 13 6.00002L13 7.26751C13.5978 7.61327 14 8.2596 14 9L14 12C14 13.1047 13.1047 14 12 14L11 14C10.4476 14 10 13.5524 10 13L10 8C10 7.44764 10.4476 7 11 7L12.0001 7L12 6.00002C12 4.61908 11.5119 3.44051 10.5358 2.46431C9.55956 1.48811 8.38098 1 7.00003 1C5.61909 1 4.44053 1.48811 3.46431 2.46431C2.48811 3.44051 2.00001 4.61908 2.00001 6.00002L2 7L3 7C3.55236 7 4 7.44764 4 8L4 13C4 13.5524 3.55236 14 3 14L2 14C0.895279 14 0 13.1047 0 12L0 9C0 8.25959 0.402161 7.61325 1 7.26749L1 6.00002C1 2.68585 3.68585 0 7.00003 0L7.00003 0ZM3 8.5C3 8.22382 2.77618 8 2.5 8C2.22382 8 2 8.22382 2 8.5L2 12.5C2 12.7762 2.22382 13 2.5 13C2.77618 13 3 12.7762 3 12.5L3 8.5L3 8.5ZM11.5 8C11.2238 8 11 8.22382 11 8.5L11 12.5C11 12.7762 11.2238 13 11.5 13C11.7762 13 12 12.7762 12 12.5L12 8.5C12 8.22382 11.7762 8 11.5 8L11.5 8Z" fill="#808080" fill-rule="evenodd" transform="translate(1 1)"/>
</svg>