<?xml version="1.0" encoding="utf-8"?>
<svg width="16" height="16" viewBox="0 0 16 16" fill="gray" xmlns="http://www.w3.org/2000/svg">
<path d="M4 4L0 0L0 14L4 10L7 10L7 4L4 4Z" transform="translate(8 1)"/>
<g id="soundwaves" transform="translate(1 1.29)">
<path d="M2 6.92974C0.804398 6.23812 0 4.94486 0 3.46487C0 1.98488 0.804398 0.691618 2 0L2 1.22876C1.38625 1.77809 1 2.57637 1 3.46487C1 4.35337 1.38625 5.15166 2 5.7L2 6.92974Z" transform="translate(3 3.245)"/>
<path d="M5 13.4202C2.10851 12.5597 0 9.88012 0 6.71012C0 3.54011 2.10851 0.860549 5 0L5 1.05153C2.66962 1.87521 1 4.09768 1 6.71012C1 9.32255 2.66962 11.545 5 12.3687L5 13.4202Z"/>
</g></svg>