<svg version="1.1" viewBox="0 0 16 16" xmlns="http://www.w3.org/2000/svg">
<g fill="gray">
<path d="M12 1.303l3.989 4.238L13.3 8.01l2.688 2.468L12 14.717V9.103l-2.428 2.04-.644-.766 2.818-2.367-2.818-2.367.644-.766L12 6.916zm1 2.414v3.24l1.508-1.48zm0 5.345v3.24l1.508-1.76z" font-family="sans-serif" font-weight="400" overflow="visible" style="isolation:auto;mix-blend-mode:normal;shape-padding:0;text-decoration-color:#000;text-decoration-line:none;text-decoration-style:solid;text-indent:0;text-transform:none"/>
<path d="M7 0L3 4C3 4 0 4 0 4C0 4 0 10 0 10C0 10 3 10 3 10L7 14L7 0Z" transform="translate(1 1)"/>
</g></svg>