<?xml version="1.0" encoding="utf-8"?>
<svg width="16" height="16" viewBox="0 0 16 16" fill="gray" xmlns="http://www.w3.org/2000/svg">
<path d="M12 2C12 0.895281 11.1047 0 10 0L2 0C0.895294 0 0 0.895281 0 2L0 8C0 9.10472 0.895294 10 2 10L10 10C11.1047 10 12 9.10472 12 8L12.023 6.5L16 9L16 1L12 3.5L12 2ZM10 1C10.5524 1 11 1.44764 11 2L11 8C11 8.55236 10.5524 9 10 9L2 9C1.44764 9 1 8.55236 1 8L1 2C1 1.44764 1.44764 1 2 1L10 1Z" fill-rule="evenodd" transform="translate(0 6)"/>
<path d="M3.5 0C1.567 0 0 1.567 0 3.5C0 5.433 1.567 7 3.5 7C5.433 7 7 5.433 7 3.5C7 1.567 5.433 0 3.5 0L3.5 0ZM1 3.5C1 2.11929 2.11929 1 3.5 1C4.88071 1 6 2.11929 6 3.5C6 4.88071 4.88071 6 3.5 6C2.11929 6 1 4.88071 1 3.5Z" fill-rule="evenodd" transform="translate(5 0)"/>
<path d="M3 0C1.34315 0 0 1.34315 0 3C0 4.65685 1.34315 6 3 6C4.65685 6 6 4.65685 6 3C6 1.34315 4.65685 0 3 0L3 0ZM1 3C1 1.89543 1.89543 1 3 1C4.10457 1 5 1.89543 5 3C5 4.10457 4.10457 5 3 5C1.89543 5 1 4.10457 1 3Z" fill-rule="evenodd" transform="translate(0 1)"/>
</svg>
