<?xml version="1.0" encoding="utf-8"?>
<svg width="16" height="16" viewBox="0 0 16 16" fill="gray" xmlns="http://www.w3.org/2000/svg">
<path d="M7 0C8.65708 0 10 1.34292 10 3L10 3L0 3L0 3C0 1.34292 1.34292 0 3 0L7 0Z" transform="translate(3 13)"/>
<path d="M7 0C3.13401 0 0 3.13401 0 7C0 10.866 3.13401 14 7 14C10.866 14 14 10.866 14 7C14 3.13401 10.866 0 7 0L7 0ZM1 7C1 3.68629 3.68629 1 7 1C10.3137 1 13 3.68629 13 7C13 10.3137 10.3137 13 7 13C3.68629 13 1 10.3137 1 7Z" fill-rule="evenodd" transform="translate(1 0)"/>
<path d="M4 0C1.79086 0 0 1.79086 0 4C0 6.20914 1.79086 8 4 8C6.20914 8 8 6.20914 8 4C8 1.79086 6.20914 0 4 0ZM4 1C5.65686 1 7 2.34315 7 4.00001C7 5.65686 5.65686 7 4 7C2.34314 7 1 5.65686 1 4C1 2.34315 2.34314 1 4 1ZM4 2C2.89543 2 2 2.89543 2 4C2 5.10457 2.89543 6 4 6C5.10457 6 6 5.10457 6 4C6 2.89543 5.10457 2 4 2Z" fill-rule="evenodd" transform="translate(4 3)"/>
</svg>
