<?xml version="1.0" encoding="utf-8"?>
<svg width="16" height="16" viewBox="0 0 16 16" fill="gray" xmlns="http://www.w3.org/2000/svg">
<path d="M11 10L12.4 12.2C12.75 12.7 13.34 13 14 13C15.1 13 16 12.1046 16 11L16 2C16 0.892863 15.1 0 14 0L2 0C0.897 0 0 0.892863 6.10352e-05 2L0 11C6.10352e-05 12.1046 0.9 13 2 13C2.66 13 3.25 12.7 3.6 12.2L5 10L11 10ZM2.77 11.6413L4.45 9L11.55 9L13.23 11.6413C13.4 11.88 13.66 12 14 12C14.55 12 15 11.55 15 11L15 2C15 1.45 14.55 1 14 1L2 1C1.45 1 1 1.45 1 2L1 11C1 11.55 1.45 12 2 12C2.33932 12 2.596 11.88 2.77 11.6413L2.77 11.6413ZM12 6C12 5.4477 12.4477 5 13 5C13.5523 5 14 5.4477 14 6C14 6.5523 13.5523 7 13 7C12.4477 7 12 6.5523 12 6ZM10 3C10 2.4477 10.4477 2 11 2C11.5523 2 12 2.4477 12 3C12 3.5523 11.5523 4 11 4C10.4477 4 10 3.5523 10 3ZM4 2L6 2L6 4L8 4L8 6L6 6L6 8L4 8L4 6L2 6L2 4L4 4L4 2Z" fill-rule="evenodd" transform="translate(0 2)"/>
</svg>
