<?xml version="1.0" encoding="utf-8"?>
<svg width="16" height="16" viewBox="0 0 16 16" fill="gray" xmlns="http://www.w3.org/2000/svg">
<path d="M6.5 0L4.5 3L6 3L6 10L3 10C2.4477 10 2 9.5418 2 9L2 6.91464C2.5825 6.7087 3 6.1531 3 5.5C3 4.67157 2.32837 4 1.5 4C0.671631 4 0 4.67157 0 5.5C0 6.1531 0.4175 6.7087 1 6.91464L1 9C1 10.0941 1.8954 11 3 11L6 11L6 13.075C5.4175 13.2808 5 13.8364 5 14.5C5 15.318 5.67163 16 6.5 16C7.32837 16 8 15.318 8 14.5C8 13.8364 7.58252 13.2808 7 13.075L7 11L10 11L10 11C11.1046 11 12 10.1046 12 9L12 7L13 7L13 4L10 4L10 7L11 7L11 9C11 9.5522 10.5522 10 10 10L10 10L7 10L7 3L8.5 3L6.5 0L6.5 0Z" transform="translate(1 0)"/>
</svg>
