<?xml version="1.0" encoding="utf-8"?>
<svg width="16" height="16" viewBox="0 0 16 16" fill="none" xmlns="http://www.w3.org/2000/svg">
<path d="M0 2C0 0.895431 0.895431 0 2 0C3.10457 0 4 0.895431 4 2C4 3.10457 3.10457 4 2 4C0.895431 4 0 3.10457 0 2Z" fill="#808080" transform="translate(6 11)"/>
<g fill="#808080" transform="translate(0.22 2)">
<path d="M7.07107 1.46447C5.11845 -0.488156 1.95262 -0.488156 0 1.46447L0.707107 2.17158C2.26921 0.609477 4.80186 0.609477 6.36396 2.17158L7.07107 1.46447Z" transform="translate(4.243 6)"/>
<path d="M11.3137 2.34315C8.18951 -0.781049 3.1242 -0.78105 0 2.34315L0.707107 3.05025C3.44078 0.316582 7.87293 0.316582 10.6066 3.05025L11.3137 2.34315Z" transform="translate(2.121 3)"/>
<path d="M15.5564 3.22183C11.2606 -1.07394 4.29577 -1.07394 0 3.22183L0.707112 3.92894C4.61236 0.0236954 10.944 0.0236954 14.8492 3.92894L15.5564 3.22183Z"/>
</g></svg>