<?xml version="1.0" encoding="utf-8"?>
<svg width="16" height="16" viewBox="0 0 16 16" fill="gray" xmlns="http://www.w3.org/2000/svg">
<path d="M3 0L13 0L13 3L13.5 3C14.88 3 16 4.12 16 5.5L16 10.5C16 11.88 14.88 13 13.5 13L13 13L13 16L3 16L3 13L2.5 13C1.123 13 3.0518e-05 11.88 3.0518e-05 10.5L0 5.5C0 4.12 1.12 3 2.5 3L3 3L3 0L3 0ZM4 3L12 3L12 1L4 1L4 3L4 3ZM11 5L11 6L13 6L13 5L11 5L11 5ZM12 15L12 10L4 10L4 15L12 15L12 15ZM5 11L5 12L11 12L11 11L5 11L5 11ZM5 13L5 14L11 14L11 13L5 13L5 13Z" fill-rule="evenodd"/>
</svg>
