<?xml version="1.0" encoding="utf-8"?>
<svg width="16" height="16" viewBox="0 0 16 16" fill="gray" xmlns="http://www.w3.org/2000/svg">
<path d="M3 0L13 0L13 3L13.5 3C14.88 3 16 4.12 16 5.5L16 10.5C16 11.88 14.88 13 13.5 13L13 13L13 16L3 16L3 13L2.5 13C1.12 13 3.05176e-05 11.88 3.05176e-05 10.5L0 5.5C0 4.12 1.12 3 2.5 3L3 3L3 0L3 0ZM4 3L12 3L12 1L4 1L4 3L4 3ZM13 12L13.5 12C13.9144 12 14.268 11.8536 14.5608 11.5608C14.8537 11.268 15 10.9144 15 10.5L15 5.5C15 5.0857 14.8536 4.73212 14.5608 4.43927C14.268 4.14642 13.9144 4 13.5 4L2.5 4C2.08572 4 1.73215 4.14643 1.4393 4.43928C1.14645 4.73212 1 5.0857 1 5.5L1 10.5C1 10.9144 1.14645 11.268 1.4393 11.5608C1.73216 11.8536 2.08574 12 2.5 12L3 12L3 9L13 9L13 12L13 12ZM11 5L11 6L13 6L13 5L11 5L11 5ZM12 15L12 10L4 10L4 15L12 15L12 15ZM5 11L5 12L11 12L11 11L5 11L5 11ZM5 13L5 14L11 14L11 13L5 13L5 13Z" fill-rule="evenodd"/>
</svg>
