<?xml version="1.0" encoding="utf-8"?>
<svg width="16" height="16" viewBox="0 0 16 16" fill="gray" xmlns="http://www.w3.org/2000/svg">
<path id="monitor" d="M16 2.5C16 1.12 14.88 1.52588e-05 13.5 1.52588e-05L2.5 0C1.11909 0 0 1.12 0 2.5L0 9.5C0 10.88 1.12 12 2.5 12L7 12L7 14L4 14L4 15L12 15L12 14L9 14L9 12L13.5 12C14.88 12 16 10.88 16 9.5L16 2.5L16 2.5ZM13.5 11L2.5 11C2.086 11 1.73212 10.8536 1.43927 10.5607C1.14642 10.268 1 9.91431 1 9.5L1 2.5C1 2.086 1.14642 1.73212 1.43927 1.43927C1.73212 1.14642 2.086 1 2.5 1L13.5 1C13.9143 1 14.268 1.14642 14.5608 1.43927C14.8536 1.73211 15 2.086 15 2.5L15 9.5C15 9.91431 14.8536 10.268 14.5608 10.5607C14.268 10.8536 13.9143 11 13.5 11L13.5 11Z" fill-rule="evenodd" transform="translate(0 1)"/>
</svg>
