<?xml version="1.0" encoding="utf-8"?>
<svg width="16" height="16" viewBox="0 0 16 16" fill="gray" xmlns="http://www.w3.org/2000/svg">
<path d="M15 2.5C15 1.1191 13.881 1.52588e-05 12.5 1.52588e-05L2.5 0C1.1191 0 0 1.1191 0 2.5L0 9.5C0 10.881 1.1191 12 2.5 12L7 12L7 14L4 14L4 15L11 15L11 14L8 14L8 12L12.5 12C13.881 12 15 10.881 15 9.5L15 2.5L15 2.5ZM12.5 11L2.5 11C2.0857 11 1.73212 10.8536 1.43927 10.5607C1.14642 10.268 1 9.91431 1 9.5L1 2.5C1 2.0857 1.14642 1.73212 1.43927 1.43927C1.73212 1.14642 2.0857 1 2.5 1L12.5 1C12.9143 1 13.268 1.14642 13.5608 1.43927C13.8536 1.73211 14 2.0857 14 2.5L14 9.5C14 9.91431 13.8536 10.268 13.5608 10.5607C13.268 10.8536 12.9143 11 12.5 11L12.5 11Z" fill-rule="evenodd" transform="translate(0 1)"/>
<path d="M0 0L2 0L2 6L1 6L1 1L0 1L0 0L0 0Z" transform="translate(6 4)"/>
</svg>
