<?xml version="1.0" encoding="utf-8"?>
<svg width="16" height="16" viewBox="0 0 16 16" fill="gray" xmlns="http://www.w3.org/2000/svg">
<path id="screen" d="M7 0C8.10472 0 9 0.895281 9 2L9 10C9 11.1047 8.10472 12 7 12L5 12L5 13L6 13L6 14L3 14L3 13L4 13L4 12L2 12C0.89528 12 0 11.1047 0 10L0 2C0 0.895281 0.89528 0 2 0L7 0ZM7 1C7.55236 1 8 1.44764 8 2L8 10C8 10.5524 7.55236 11 7 11L2 11C1.44764 11 1 10.5524 1 10L1 2C1 1.44764 1.44764 1 2 1L7 1Z" fill-rule="evenodd" transform="translate(0 1)"/>
<path id="screen" d="M5 0C6.10472 0 7 0.895281 7 2L7 7C7 8.10473 6.10472 9 5 9L4 9L4 10L5 10L5 11L2 11L2 10L3 10L3 9L2 9C0.895281 9 0 8.10473 0 7L0 2C0 0.895281 0.895281 0 2 0L5 0ZM5 1C5.55236 1 6 1.44764 6 2L6 7C6 7.55236 5.55236 8 5 8L2 8C1.44764 8 1 7.55236 1 7L1 2C1 1.44764 1.44764 1 2 1L5 1Z" fill-rule="evenodd" transform="translate(9 4)"/>
</svg>
