<?xml version="1.0" encoding="utf-8"?>
<svg width="16" height="16" viewBox="0 0 16 16" fill="gray" xmlns="http://www.w3.org/2000/svg">
<defs>
<clipPath id="pulse">
<path d="M0 0L0 9L3.66 9L5 4.36C5.06 4.15 5.3 4 5.5 4C5.7 4 5.95 4.14 6 4.36L7.6 9.9L8.6 7.3C8.75 6.9 9.3 6.9 9.5 7.3L10.33 9L16 9L16 0ZM5.5 6.3L4.5 9.65C4.44 9.86 4.25 10 4 10L0 10L0 16L16 16L16 10L10 10C9.9 10 9.7 10 9.6 9.75L9.1 8.75L8 11.65C7.8 12.1 7.2 12.1 7.1 11.65Z"/>
</clipPath>
</defs>
<g clip-path="url(#pulse)">
<path d="M0 0L9.5 0C12 0 14 2 14 4.5C14 7 12 9 9.5 9L9 9L9 9.5C9 12 7 14 4.5 14C2 14 0 12 0 9.5Z" transform="translate(8 16) rotate(225)"/>
</g></svg>
