<?xml version="1.0" encoding="utf-8"?>
<svg width="16" height="16" viewBox="0 0 16 16" fill="gray" xmlns="http://www.w3.org/2000/svg">
<path id="base" d="M5 0L5 0L5 2L0 2L0 2C0 0.89528 0.89528 0 2 0L5 0Z" transform="translate(3 14)"/>
<path id="monitor" d="M14 0C15.1047 0 16 0.895281 16 2L16 8L15 8L15 2C15 1.44764 14.5524 1 14 1L2 1C1.44764 1 1 1.44764 1 2L1 10C1 10.5524 1.44764 11 2 11L8 11L8 12L2 12C0.89528 12 0 11.1047 0 10L0 2C0 0.895281 0.89528 0 2 0L14 0L14 0Z" transform="translate(0 1)"/>
<path id="magnify" d="M3 0C1.34314 0 0 1.34315 0 3C0 4.6569 1.34314 6 3 6C3.6452 6 4.24286 5.79632 4.73212 5.44975L6.64642 7.36405L7.35352 6.65694L5.44098 4.7444C5.79285 4.25288 6 3.65063 6 3C6 1.34315 4.65686 0 3 0L3 0ZM1 3C1 1.89543 1.89545 1 3 1C4.10455 1 5 1.89543 5 3C5 4.10457 4.10455 5 3 5C1.89545 5 1 4.10457 1 3L1 3Z" fill-rule="evenodd" transform="translate(9 9)"/>
</svg>
