<?xml version="1.0" encoding="utf-8"?>
<svg width="16" height="16" viewBox="0 0 16 16" fill="none" xmlns="http://www.w3.org/2000/svg">
<path d="M0 5.71438C-1.45435e-05 2.55841 2.55197 -7.26621e-06 5.7 1.54777e-11C8.84803 1.54777e-11 11.4 2.55841 11.4 5.71438C11.4 6.91753 11.0291 8.03383 10.3957 8.95464L6.3 15.0985L5.7 16L5.09911 15.0985L1.00366 8.95372C0.370645 8.03308 0 6.91713 0 5.71438L0 5.71438ZM5.7 14.1969L9.56358 8.4C10.1212 7.5893 10.4 6.69408 10.4 5.71438C10.4 4.41205 9.94085 3.3 9.02252 2.37992C8.10489 1.46 7 1 5.7 1C4.40261 1 3.29511 1.46 2.37748 2.38C1.45915 3.3 1 4.41204 1 5.71438C1 6.69373 1.27589 7.58465 1.82767 8.38714L5.7 14.1969L5.7 14.1969ZM3.2 5.7C3.2 4.31928 4.31928 3.2 5.7 3.2C7.08071 3.2 8.2 4.31928 8.2 5.7C8.2 7.08071 7.08071 8.2 5.7 8.2C4.31928 8.2 3.2 7.081 3.2 5.7Z" fill="#808080" fill-rule="evenodd" transform="translate(2.3 0)"/>
</svg>
