<?xml version="1.0" encoding="utf-8"?>
<svg width="16" height="16" viewBox="0 0 16 16" fill="gray" xmlns="http://www.w3.org/2000/svg">
<path d="M0 9C0 7.9 0.9 7 2 7L2 5C2 2.25 4.25 0 7 0C9.75 0 12 2.25 12 5L12 7C13.1 7 14 7.9 14 9L14 14C14 15.1 13.1 16 12 16L2 16C0.9 16 0 15.1 0 14ZM2 8C1.45 8 1 8.45 1 9L1 14C1 14.55 1.45 15 2 15L12 15C12.55 15 13 14.55 13 14L13 9C13 8.45 12.55 8 12 8ZM11 7L11 5C11 2.8 9.2 1 7 1C4.8 1 3 2.8 3 5L3 7Z" transform="translate(1 0)"/>
<rect width="2" height="3" rx="1" x="7" y="10"/>
</svg>
