<?xml version="1.0" encoding="utf-8"?>
<svg width="16" height="16" viewBox="0 0 16 16" xmlns="http://www.w3.org/2000/svg">
<path d="M7.25 0L8.75 0C8.75 0 12.8 10.3135 12.8 10.3135C12 10.8 11.1 11.1274 10.1232 11.3C10.1232 11.3 8 6 8 6L5.7 11.75C6.425 12 7.25 12 8 12C11.75 12 14.875 10.25 14.875 8C14.875 6.75 14 5.7 12.47 5C12.3326 5.14 12.125 5.25 11.875 5.25C11.45 5.25 11.125 5 11.125 4.5C11.125 4 11.45 3.75 11.875 3.75C12.25 3.75 12.575 4 12.625 4.425C14.675 5.325 16 6.75 16 8.5C16 10 15 11.25 13.5 12.125C12.7 12.6 11.8 13 10.875 13.175C10 13.4 9 13.5 8 13.5C7 13.5 6 13.375 5.125 13.175L4 16L1 16L2.5 12.125C1 11.25 0 10 0 8.5C0 6.25 2.5 4.25 5.75 3.75L7.25 0ZM15 16L12 16L11 13.65C12 13.425 12.875 13 13.675 12.6L15 16ZM5.6 4.25C3 4.825 1.125 6.25 1.125 8C1.125 9 1.75 10 3 10.75L5.6 4.25Z" fill="#008CA3" fill-rule="evenodd"/>
</svg>
