<?xml version="1.0" encoding="utf-8"?>
<svg width="16" height="16" viewBox="0 0 16 16" fill="none" xmlns="http://www.w3.org/2000/svg">
<path id="yellow" d="M0 12L3.43 6C3.79226 5.46 4 4.75384 4 4C4 1.791 2.21 0 0 0L6.93 0C8.3 2.4 8.41 5.436 6.93 8C5.4484 10.5644 2.7625 12 0 12L0 12Z" fill="#A1C2FA" transform="translate(8 4)"/>
<path id="green" d="M4.5021 5.9405L1.07237 0C-0.306863 2.39352 -0.407432 5.437 1.07313 8C2.55342 10.5653 5.23864 12 8 12L11.4654 6C10.36 7.91452 7.9145 8.57 6 7.46546C5.34848 7.08854 4.842 6.55538 4.5 5.94L4.5 5.94Z" fill="#5E97F6" transform="translate(0 4)"/>
<path id="red" d="M7 4L13.8587 4C12.4755 1.6088 9.89 0 6.93 0C3.9684 -1.90735e-06 1.38343 1.608 0 4L3.46486 10C2.36 8.0868 3.0158 5.64045 4.92896 4.53588C5.58181 4.15896 6.29674 3.987 7 4L6.99925 4Z" fill="#3367D6" transform="translate(1.07 0)"/>
<circle r="4" cx="8" cy="8" fill="#FFFFFF"/>
<circle r="3" cx="8" cy="8" fill="#4285F4"/>
</svg>