<?xml version="1.0" encoding="utf-8"?>
<svg width="128px" height="127.997116px" viewBox="0 0 128 127.997116" version="1.1" xmlns:xlink="http://www.w3.org/1999/xlink" xmlns="http://www.w3.org/2000/svg">
  <defs>
    <linearGradient gradientUnits="objectBoundingBox" x1="254.64981" y1="101.84784" x2="242.17578" y2="148.77542" id="gradient_1">
      <stop offset="0%" stop-color="#FFE629" />
      <stop offset="100%" stop-color="#FFE309" />
    </linearGradient>
    <linearGradient gradientUnits="objectBoundingBox" x1="163.02301" y1="193.83618" x2="209.80595" y2="181.05989" id="gradient_2">
      <stop offset="0%" stop-color="#4AFF02" />
      <stop offset="100%" stop-color="#BCED02" />
    </linearGradient>
    <linearGradient gradientUnits="objectBoundingBox" x1="117.51535" y1="181.72815" x2="164.49129" y2="194.03969" id="gradient_3">
      <stop offset="0%" stop-color="#00D601" />
      <stop offset="100%" stop-color="#01D901" />
    </linearGradient>
    <linearGradient gradientUnits="objectBoundingBox" x1="71.60001" y1="98.58697" x2="86.63727" y2="153.3033" id="gradient_4">
      <stop offset="0%" stop-color="#0253C1" />
      <stop offset="100%" stop-color="#0293E4" />
    </linearGradient>
    <linearGradient gradientUnits="objectBoundingBox" x1="85.45862" y1="53.09794" x2="71.53745" y2="106.59224" id="gradient_5">
      <stop offset="0%" stop-color="#1132EC" />
      <stop offset="100%" stop-color="#1526C3" />
    </linearGradient>
    <linearGradient gradientUnits="objectBoundingBox" x1="80.82293" y1="61.417603" x2="120.4325" y2="21.283628" id="gradient_6">
      <stop offset="0%" stop-color="#5A1898" />
      <stop offset="100%" stop-color="#971EC6" />
    </linearGradient>
    <linearGradient gradientUnits="objectBoundingBox" x1="240.19098" y1="48.687042" x2="256.26306" y2="106.95491" id="gradient_7">
      <stop offset="0%" stop-color="#F8BC00" />
      <stop offset="100%" stop-color="#FFD02B" />
    </linearGradient>
    <path d="M128 0L128 0L128 127.997L0 127.997L0 0L128 0Z" id="path_1" />
    <clipPath id="clip_1">
      <use xlink:href="#path_1" clip-rule="evenodd" fill-rule="evenodd" />
    </clipPath>
  </defs>
  <g id="com.raw.RawTherapee">
    <path d="M128 0L128 0L128 127.997L0 127.997L0 0L128 0Z" id="com.raw.RawTherapee" fill="none" stroke="none" />
    <g id="therapee" transform="translate(4 4)" clip-path="url(#clip_1)">
      <path d="M112.266 74.005L117.955 75.5296C120.681 65.3559 120.682 54.6439 117.955 44.4703L112.385 45.9628C113.054 48.4577 113.543 50.9972 113.85 53.5619C114.156 56.1261 114.279 58.7088 114.218 61.2905C114.156 63.8725 113.91 66.4469 113.482 68.994C113.156 70.6826 112.75 72.3548 112.266 74.0048L112.266 74.005Z" id="path1157-3" fill="url(#gradient_1)" stroke="none" />
      <path d="M112.292 74.012C112.777 72.3619 113.183 70.6898 113.509 69.0011C113.937 66.4541 114.183 63.8796 114.244 61.2976C114.306 58.716 114.183 56.1332 113.876 53.5691C113.57 51.0044 113.08 48.4649 112.412 45.97L84.7567 53.3802C85.8988 57.7217 85.8792 62.2872 84.7 66.6188L112.292 74.012Z" id="path4829-5" fill="#F8BC00" stroke="none" />
      <path d="M98.2615 98.261L102.427 102.426C109.874 94.9788 115.229 85.7026 117.955 75.5296L112.266 74.005C112.083 74.8459 111.88 75.6824 111.658 76.5137C110.871 78.9735 109.911 81.3739 108.782 83.6967C107.654 86.02 106.361 88.2597 104.913 90.3986C103.465 92.5372 101.867 94.5695 100.13 96.4803C99.5213 97.0887 98.8983 97.6825 98.2614 98.2612L98.2615 98.261Z" id="path1341-1" fill="#B1FF29" stroke="none" />
      <path d="M98.2615 98.261C98.8984 97.6823 99.5214 97.0885 100.13 96.4801C101.867 94.5694 103.465 92.537 104.913 90.3985C106.361 88.2595 107.654 86.0199 108.782 83.6966C109.911 81.3738 110.871 78.9734 111.658 76.5136C111.88 75.6823 112.083 74.8458 112.266 74.0049L84.6732 66.6115C83.5101 70.9413 81.2305 74.8897 78.0623 78.0618L98.2615 98.261Z" id="path4832-5" fill="#FFFB00" stroke="none" />
      <path d="M74.036 112.385L75.5286 117.956C85.7023 115.23 94.9791 109.874 102.427 102.426L98.2615 98.261C97.0748 99.5058 95.8297 100.693 94.5302 101.82C92.5385 103.464 90.4319 104.964 88.2264 106.309C86.0214 107.653 83.7231 108.838 81.3493 109.854C78.9749 110.871 76.5309 111.717 74.036 112.385L74.036 112.385Z" id="path1547-9" fill="url(#gradient_2)" stroke="none" />
      <path d="M74.036 112.385C76.5309 111.717 78.9749 110.871 81.3493 109.854C83.7231 108.838 86.0213 107.653 88.2264 106.309C90.4318 104.964 92.5385 103.464 94.5302 101.82C95.8297 100.693 97.0749 99.5058 98.2615 98.261L78.0624 78.0619C74.9008 81.249 70.9567 83.5486 66.6258 84.7303L74.036 112.385Z" id="path4835-4" fill="#38C102" stroke="none" />
      <path d="M45.9951 112.266L44.4704 117.955C54.6437 120.681 65.3553 120.682 75.5286 117.956L74.036 112.385C71.5415 113.054 69.0024 113.543 66.4382 113.85C63.874 114.156 61.2912 114.279 58.7095 114.218C56.1273 114.156 53.5529 113.91 51.0059 113.482C49.3172 113.156 47.6451 112.75 45.995 112.266L45.9951 112.266Z" id="path1753-7" fill="url(#gradient_3)" stroke="none" />
      <path d="M45.995 112.266C47.6451 112.75 49.3172 113.156 51.0059 113.482C53.5529 113.91 56.1273 114.156 58.7094 114.218C61.2912 114.279 63.874 114.156 66.4382 113.85C69.0024 113.543 71.5415 113.054 74.036 112.385L66.6258 84.7302C62.2847 85.872 57.7196 85.8524 53.3885 84.6733L45.995 112.266Z" id="path4838-3" fill="#009A01" stroke="none" />
      <path d="M21.739 98.2615L17.574 102.427C25.0212 109.874 34.2975 115.229 44.4704 117.955L45.9951 112.266C45.1541 112.083 44.3176 111.88 43.4863 111.658C41.0266 110.871 38.6261 109.911 36.3033 108.782C33.98 107.654 31.7403 106.361 29.6014 104.913C27.4629 103.466 25.4305 101.867 23.5197 100.13C22.9113 99.5214 22.3175 98.8983 21.7388 98.2614L21.739 98.2615Z" id="path1857-8" fill="#01D4ED" stroke="none" />
      <path d="M21.739 98.2616C22.3178 98.8985 22.9116 99.5215 23.5199 100.13C25.4307 101.867 27.4631 103.466 29.6016 104.913C31.7406 106.361 33.9802 107.654 36.3035 108.782C38.6263 109.911 41.0268 110.872 43.4865 111.658C44.3178 111.88 45.1543 112.083 45.9953 112.266L53.3887 84.6734C49.0589 83.5103 45.1105 81.2307 41.9383 78.0625L21.739 98.2616Z" id="path4841-4" fill="#0193BE" stroke="none" />
      <path d="M7.61452 74.036L2.04415 75.5286C4.77014 85.7023 10.1262 94.9792 17.5739 102.427L21.739 98.2615C20.4942 97.0749 19.3066 95.8297 18.1801 94.5302C16.5356 92.5385 15.0356 90.4319 13.6914 88.2264C12.3472 86.0213 11.1623 83.7231 10.1456 81.3493C9.12884 78.9749 8.28296 76.5309 7.61448 74.036L7.61452 74.036Z" id="path1961-9" fill="url(#gradient_4)" stroke="none" />
      <path d="M7.61455 74.036C8.28304 76.531 9.12893 78.975 10.1457 81.3494C11.1624 83.7232 12.3473 86.0215 13.6915 88.2265C15.0357 90.4319 16.5357 92.5386 18.1802 94.5303C19.3066 95.8298 20.4943 97.075 21.739 98.2616L41.9381 78.0625C38.7511 74.9009 36.4515 70.9568 35.2698 66.6259L7.61455 74.036Z" id="path4844-2" fill="#053980" stroke="none" />
      <path d="M7.73426 45.9951L2.04466 44.4704C-0.681392 54.6437 -0.681558 65.3553 2.04418 75.5286L7.61456 74.036C6.94619 71.5415 6.45685 69.0024 6.15029 66.4381C5.84382 63.8739 5.72089 61.2912 5.78244 58.7095C5.84381 56.1275 6.08957 53.553 6.51784 51.006C6.84363 49.3174 7.24955 47.6452 7.73424 45.9951L7.73426 45.9951Z" id="path2065-7" fill="url(#gradient_5)" stroke="none" />
      <path d="M7.73432 45.9951C7.24963 47.6451 6.84371 49.3173 6.51791 51.0059C6.08965 53.553 5.84388 56.1274 5.78249 58.7095C5.72095 61.2912 5.84389 63.874 6.15035 66.4381C6.45691 69.0025 6.94627 71.5416 7.61464 74.0361L35.2699 66.6259C34.1281 62.2848 34.1477 57.7197 35.3268 53.3886L7.73432 45.9951Z" id="path4847-9" fill="#151B92" stroke="none" />
      <path d="M21.7386 21.739L17.5734 17.574C10.1263 25.0212 4.77069 34.2975 2.04475 44.4704L7.73435 45.9951C7.91706 45.1542 8.11977 44.3179 8.3423 43.4867C9.12852 41.0269 10.0894 38.6265 11.2177 36.3036C12.3462 33.9804 13.6393 31.7407 15.087 29.6017C16.5345 27.4632 18.1329 25.4309 19.8699 23.5201C20.4786 22.9118 21.1016 22.318 21.7385 21.7393L21.7386 21.739Z" id="path2169-5" fill="url(#gradient_6)" stroke="none" />
      <path d="M21.7385 21.739C21.1016 22.3177 20.4786 22.9115 19.87 23.5199C18.1329 25.4307 16.5345 27.463 15.087 29.6015C13.6393 31.7405 12.3462 33.9802 11.2177 36.3034C10.0894 38.6262 9.12853 41.0267 8.34232 43.4864C8.11981 44.3177 7.9171 45.154 7.73437 45.9949L35.3268 53.3883C36.4899 49.0585 38.7695 45.1101 41.9377 41.938L21.7385 21.739Z" id="path4850-1" fill="#5A1898" stroke="none" />
      <path d="M45.9629 7.61489C43.4684 8.28333 41.0249 9.12907 38.6509 10.1457C36.277 11.1624 33.9788 12.3473 31.7737 13.6915C29.5682 15.0357 27.4616 16.5357 25.4699 18.1802C24.1704 19.3066 22.9252 20.4943 21.7386 21.739L41.9377 41.9381C45.099 38.7514 49.0426 36.4519 53.3731 35.2701L45.9629 7.61489Z" id="path2377-4" fill="#D91566" stroke="none" />
      <path d="M44.4702 2.04451C34.2969 4.77062 25.0205 10.1265 17.5733 17.574L21.7384 21.739C22.9251 20.4942 24.1703 19.3066 25.4698 18.1801C27.4615 16.5357 29.5681 15.0356 31.7736 13.6914C33.9786 12.3473 36.2769 11.1623 38.6508 10.1457C41.0247 9.12905 43.4683 8.28331 45.9628 7.61487L44.4702 2.04451Z" id="path4853-7" fill="#FC12AA" stroke="none" />
      <path d="M74.0334 7.62836C73.463 7.47075 72.89 7.3225 72.3146 7.18366C71.4507 6.98217 70.5819 6.80191 69.7091 6.64305C68.8356 6.48408 67.9584 6.34658 67.0782 6.23068C66.1985 6.1148 65.316 6.02053 64.4316 5.94795C63.547 5.87568 62.6607 5.82511 61.7736 5.79635C60.8869 5.76697 59.9996 5.75936 59.1126 5.77351C58.2249 5.78805 57.3378 5.82441 56.452 5.88251C55.5663 5.94071 54.6823 6.02065 53.8005 6.12225C52.9189 6.22362 52.0399 6.34661 51.1642 6.49112C50.2888 6.63555 49.4169 6.80146 48.5496 6.98868C47.6819 7.17621 46.819 7.385 45.9616 7.61489L53.3718 35.2701C57.7128 34.1068 62.2837 34.1067 66.6248 35.2699L74.0334 7.62836Z" id="path2481-9" fill="#FF0B0D" stroke="none" />
      <path d="M44.4702 2.04451L45.9628 7.61489C46.8202 7.385 47.6831 7.17621 48.5508 6.98868C49.4181 6.80146 50.29 6.63555 51.1655 6.49111C52.0411 6.3466 52.9201 6.22362 53.8017 6.12225C54.6835 6.02066 55.5675 5.94073 56.4532 5.88253C57.339 5.82443 58.2262 5.78809 59.1138 5.77355C60.0008 5.7594 60.8881 5.76701 61.7748 5.79639C62.6619 5.82517 63.5482 5.87572 64.4329 5.94801C65.3172 6.02057 66.1997 6.11485 67.0794 6.23072C67.9596 6.34661 68.8368 6.48411 69.7103 6.64308C70.5831 6.80193 71.4519 6.98219 72.3158 7.18367C72.8912 7.32251 73.4642 7.47076 74.0347 7.62836L75.5308 2.04467C65.3571 -0.681495 54.6451 -0.681553 44.4714 2.04451L44.4702 2.04451Z" id="path4798-9" fill="#FD4C0B" stroke="none" />
      <path d="M98.3385 21.6609L102.426 17.5733C94.9788 10.1263 85.7026 4.77062 75.5296 2.04468L74.0335 7.62837C74.3204 7.70022 74.6068 7.7744 74.8925 7.85093C75.7456 8.09461 76.5926 8.3592 77.4328 8.64444C78.2731 8.93009 79.1062 9.23632 79.9314 9.56286C80.7567 9.88896 81.5739 10.2353 82.3821 10.6015C83.1906 10.9677 83.99 11.3537 84.7795 11.7592C85.5692 12.1644 86.3487 12.589 87.1175 13.0325C87.8858 13.4765 88.6432 13.9393 89.3889 14.4204C90.1347 14.9011 90.8686 15.3999 91.59 15.9166C92.3112 16.4335 93.0197 16.968 93.7148 17.5197C94.4099 18.0716 95.0915 18.6406 95.7587 19.226C96.4262 19.8108 97.0792 20.412 97.7173 21.0288C97.9263 21.2379 98.1336 21.4487 98.3392 21.6612L98.3385 21.6609Z" id="path2585-4" fill="#F18E01" stroke="none" />
      <path d="M98.3384 21.6609C98.1328 21.4484 97.9254 21.2376 97.7164 21.0285C97.0784 20.4116 96.4254 19.8105 95.7579 19.2256C95.0906 18.6402 94.4091 18.0713 93.7139 17.5193C93.0189 16.9676 92.3104 16.4331 91.5891 15.9162C90.8678 15.3995 90.1339 14.9007 89.3881 14.42C88.6424 13.9389 87.885 13.4761 87.1166 13.0321C86.3478 12.5886 85.5683 12.164 84.7787 11.7588C83.9891 11.3533 83.1898 10.9672 82.3813 10.601C81.573 10.2348 80.7558 9.88851 79.9306 9.56241C79.1053 9.23589 78.2722 8.92965 77.4319 8.644C76.5918 8.35876 75.7448 8.09417 74.8916 7.85049C74.6059 7.77396 74.3195 7.69977 74.0326 7.62793L66.6232 35.2764C70.9626 36.4396 74.9195 38.7241 78.0965 41.9005L98.3384 21.6609Z" id="path4823-6" fill="#FD4C0B" stroke="none" />
      <path d="M112.385 45.9628L117.955 44.4702C115.229 34.297 109.873 25.0206 102.426 17.5733L98.3384 21.6609C98.7601 22.0761 99.1749 22.4982 99.5828 22.927C100.189 23.5745 100.78 24.2368 101.354 24.9133C101.928 25.5898 102.486 26.2803 103.026 26.9841C103.566 27.6884 104.089 28.4059 104.594 29.1358C105.099 29.8654 105.586 30.6072 106.054 31.3607C106.523 32.1142 106.973 32.8792 107.405 33.6549C107.836 34.4309 108.248 35.2173 108.641 36.0135C109.033 36.8092 109.406 37.6143 109.758 38.4282C110.111 39.2428 110.445 40.0659 110.757 40.8968C111.07 41.7271 111.362 42.5651 111.634 43.4098C111.905 44.2545 112.155 45.1057 112.385 45.9627L112.385 45.9628Z" id="path2689-4" fill="url(#gradient_7)" stroke="none" />
      <path d="M112.385 45.9628C112.156 45.1059 111.905 44.2547 111.634 43.41C111.362 42.5652 111.07 41.7273 110.757 40.8969C110.445 40.066 110.112 39.2429 109.758 38.4284C109.406 37.6144 109.033 36.8093 108.641 36.0137C108.248 35.2174 107.836 34.431 107.405 33.655C106.974 32.8793 106.523 32.1143 106.054 31.3608C105.586 30.6073 105.099 29.8655 104.594 29.1359C104.089 28.406 103.566 27.6885 103.026 26.9842C102.486 26.2804 101.928 25.5899 101.354 24.9134C100.78 24.2369 100.189 23.5746 99.5829 22.9271C99.175 22.4983 98.7602 22.0762 98.3385 21.661L78.1028 41.8971C81.2807 45.0745 83.5664 49.0325 84.7299 53.3732L112.385 45.9628Z" id="path4826-5" fill="#F18E01" stroke="none" />
    </g>
  </g>
</svg>