<?xml version="1.0" encoding="utf-8"?>
<svg width="16" height="16" viewBox="0 0 16 16" xmlns="http://www.w3.org/2000/svg">
<defs>
<clipPath id="circle">
<circle r="8" cx="8" cy="8"/>
</clipPath>
<linearGradient id="purple" x1="0" y1="0" x2="0" y2="1">
<stop offset="0" stop-color="#A64DB4"/>
<stop offset="1" stop-color="#50287C"/>
</linearGradient>
</defs>
<g clip-path="url(#circle)">
<rect width="16" height="16" fill="url(#purple)"/>
<path d="M3.9 12.71C3.9 12.71 3.9 11.1 3.9 10.43C1.9 10.8 1.356 10 1.2 9.5C1.1 9.26 0.716 8.55 0.3765 8.36C0.1 8.21 -0.3 7.84 0.366 7.83C1 7.82 1.4466 8.41 1.6 8.65C2.317 9.86 3.4666 9.52 3.9266 9.31C4 8.8 4.2 8.44 4.4366 8.24C2.6566 8 0.8 7.35 0.8 4.3C0.8 3.42 1.1 2.7 1.6166 2.14C1.5366 1.94 1.2566 1.12 1.7 0C1.7 0 2.3666 -0.2 3.9 0.84C4.5366 0.66 5.2166 0.57 5.9 0.57C6.5766 0.57 7.2566 0.66 7.9 0.84C9.4266 -0.2 10.1 0 10.1 0C10.5366 1.12 10.2566 1.94 10.1766 2.14C10.7 2.7 11 3.41 11 4.3C11 7.36 9.1266 8 7.3466 8.24C7.6366 8.5 7.9 9 7.9 9.72C7.9 10.8 7.9 12.71 7.9 12.71L3.9 12.71Z" fill="#FFFFFF" transform="translate(2.123 3.3)"/>
</g></svg>
