<?xml version="1.0" encoding="utf-8"?>
<svg width="16" height="16" viewBox="0 0 16 16" fill="none" xmlns="http://www.w3.org/2000/svg">
<path d="M10 8C10 8 16 8 16 8C16 12.4183 12.4183 16 8 16C3.58172 16 0 12.4183 0 8C0 3.58172 3.58172 0 8 0C12.4183 0 16 3.58172 16 8C16 8 10 8 10 8C10 6.89543 9.10457 6 8 6C6.89543 6 6 6.89543 6 8C6 9.10457 6.89543 10 8 10C9.10457 10 10 9.10457 10 8Z" fill="#BBBBBB" fill-rule="evenodd"/>
<path d="M0 2.34315L4.24264 6.58579C4.42836 6.4 4.64884 6.25275 4.89149 6.15224C5.13414 6.05173 5.3942 6 5.65685 6C5.9195 6 6.17957 6.05173 6.42222 6.15224C6.66487 6.25275 6.88535 6.4 7.0711 6.58579C7.25678 6.7715 7.4041 7 7.50461 7.23463C7.60512 7.4773 7.65685 7.73736 7.65685 8C7.65685 8.26264 7.60512 8.52272 7.5046 8.76537C7.4 9 7.25678 9.2285 7.07 9.41421L11.3137 13.6569C12.0566 12.914 12.646 12.0321 13.048 11.0615C13.45 10.1 13.657 9.05058 13.657 8C13.657 6.94942 13.45 5.91 13.048 4.93853C12.646 3.96793 12.0566 3.086 11.3137 2.34315C10.571 1.6 9.69 1.011 8.71832 0.609C7.74772 0.206926 6.7074 0 5.65685 0C4.6063 0 3.566 0.207 2.5954 0.608963C1.62478 1.011 0.74287 1.6 0 2.34315L0 2.34315Z" fill="#73D216" transform="translate(2.343 0)"/>
<path d="M0 6.58579L0 0.585786C0.530433 0.585786 1.03914 0.375072 1.41421 0L5.65685 4.24264C4.15656 5.74293 2.12173 6.58579 0 6.5858L0 6.5858Z" fill="#E21919" transform="translate(8 9.414)"/>
<path d="M2.34314 0L6.5858 4.24264C6.2107 4.6177 6 5.12642 6 5.65685L0 5.65685C0 3.53512 0.842854 1.5 2.34314 0L2.34314 0Z" fill="#F8931E" transform="translate(0 2.343)"/>
</svg>