<?xml version="1.0" encoding="utf-8"?>
<svg width="16" height="16" viewBox="0 0 16 16" xmlns="http://www.w3.org/2000/svg">
<defs>
<clipPath id="shield">
<path d="M0 0L0 7C0 11 6 14 6 14C6 14 12 11 12 7L12 0Z" transform="translate(2 1)"/>
</clipPath>
<linearGradient id="gradient">
<stop offset="0" stop-color="#000064"/>
<stop offset="0.5" stop-color="#6565AB"/>
<stop offset="1" stop-color="#000064"/>
</linearGradient>
</defs>
<path d="M0 0L0 8C0 13 7 16 7 16C7 16 14 13 14 8L14 0Z" fill="#E6E6E6" transform="translate(1 0)"/>
<path d="M0 0L0 7C0 11 6 14 6 14C6 14 12 11 12 7L12 0Z" fill="url(#gradient)" transform="translate(2 1)"/>
<g clip-path="url(#shield)"><line x1="0" y1="15" x2="16" y2="-1" stroke="#E6E6E6" stroke-width="3.6"/></g>
</svg>
