<?xml version="1.0" encoding="utf-8"?>
<svg width="16" height="16" viewBox="0 0 16 16" fill="none" xmlns="http://www.w3.org/2000/svg">
<defs>
<linearGradient id="gradient" gradientUnits="userSpaceOnUse" x1="0" y1="16" x2="16" y2="0">
<stop offset="0" stop-color="#7324A9"/>
<stop offset="1" stop-color="#FA51FD"/>
</linearGradient>
</defs>
<path id="sheet" d="M7.5 0L2.5 0C1.11911 0 0 1.11911 0 2.5L0 13.5C0 14.8809 1.11911 16 2.5 16L11.5 16C12.8809 16 14 14.8809 14 13.5L14 6.5L7.5 0L7.5 0ZM14 0L9 0L14 5L14 0L14 0Z" fill="url(#gradient)" transform="translate(1 0)"/>
<path id="base" d="M0 3L8 3L8 5L0 5L0 3L0 3ZM0 6L8 6L8 8L0 8L0 6L0 6ZM0 0L8 0L8 2L0 2L0 0L0 0Z" fill="#FFFFFF" transform="translate(4 5)"/>
</svg>