<?xml version="1.0" encoding="utf-8"?>
<svg width="16" height="16" viewBox="0 0 16 16" fill="none" xmlns="http://www.w3.org/2000/svg">
<defs>
<linearGradient id="gradient" gradientUnits="userSpaceOnUse" x1="0" y1="16" x2="16" y2="0">
<stop offset="0" stop-color="#C10018"/>
<stop offset="1" stop-color="#FF5A96"/>
</linearGradient>
</defs>
<path id="sheet" d="M7.5 0L2.5 0C1.11911 0 0 1.11911 0 2.5L0 13.5C0 14.8809 1.11911 16 2.5 16L11.5 16C12.8809 16 14 14.8809 14 13.5L14 6.5L7.5 0L7.5 0ZM14 0L9 0L14 5L14 0L14 0Z" fill="url(#gradient)" transform="translate(1 0)"/>
<g fill="none" stroke="white" stroke-width="1">
<path id="root" d="M0 2L2 4L6 0L10 0" transform="translate(3 6.5)"/>
<line id="baseline" x1="0" y1="0" x2="10" y2="0" transform="translate(3 12.5)"/>
</g></svg>