<?xml version="1.0" encoding="utf-8"?>
<svg width="16" height="16" viewBox="0 0 16 16" xmlns="http://www.w3.org/2000/svg">
<defs>
<linearGradient id="gradient" x1="0" y1="1" x2="1" y2="0">
<stop offset="0" stop-color="#D0120D"/>
<stop offset="1" stop-color="#FE9C45"/>
</linearGradient>
</defs>
<path d="M7.5 0L2.5 0C1 0 0 1 0 2.5L0 13.5C0 15 1 16 2.5 16L11.5 16C13 16 14 15 14 13.5L14 6.5ZM14 0L9 0L14 5Z" fill="url(#gradient)" transform="translate(1 0)"/>
<path d="M5 0L5 4L9 4C9 1.8 7.2 0 5 0ZM0 5C0 2.8 1.8 1 4 1L4 5L8 5C8 7.2 6.2 9 4 9C1.8 9 0 7.2 0 5Z" fill="#FFFFFF" transform="translate(4 5)"/>
</svg>
