<?xml version="1.0" encoding="utf-8"?>
<svg width="16" height="16" viewBox="0 0 16 16" xmlns="http://www.w3.org/2000/svg">
<defs>
<linearGradient id="gradient" x1="0" y1="1" x2="1" y2="0">
<stop offset="0" stop-color="#007C3C"/>
<stop offset="1" stop-color="#78FC4E"/>
</linearGradient>
</defs>
<path d="M7.5 0L2.5 0C1 0 0 1 0 2.5L0 13.5C0 15 1 16 2.5 16L11.5 16C13 16 14 15 14 13.5L14 6.5ZM14 0L9 0L14 5Z" fill="url(#gradient)" transform="translate(1 0)"/>
<path d="M0 0L0 7L8 7L8 0ZM3 1L1 1L1 3L3 3ZM4 1L7 1L7 3L4 3ZM3 4L1 4L1 6L3 6ZM4 4L7 4L7 6L4 6Z" fill="#FFFFFF" fill-rule="evenodd" transform="translate(4 6)"/>
</svg>
