<?xml version="1.0" encoding="utf-8"?>
<svg width="16" height="16" viewBox="0 0 16 16" xmlns="http://www.w3.org/2000/svg">
<defs>
<linearGradient id="gradient" x1="0" y1="1" x2="1" y2="0">
<stop offset="0" stop-color="#7324A9"/>
<stop offset="1" stop-color="#FA51FD"/>
</linearGradient>
</defs>
<path d="M7.5 0L2.5 0C1 0 0 1 0 2.5L0 13.5C0 15 1 16 2.5 16L11.5 16C13 16 14 15 14 13.5L14 6.5ZM14 0L9 0L14 5Z" fill="url(#gradient)" transform="translate(1 0)"/>
<path d="M0 3L8 3L8 5L0 5ZM0 6L8 6L8 8L0 8ZM0 0L8 0L8 2L0 2Z" fill="#FFFFFF" transform="translate(4 5)"/>
</svg>
