<?xml version="1.0" encoding="utf-8"?>
<svg width="16" height="16" viewBox="0 0 16 16" fill="none" xmlns="http://www.w3.org/2000/svg">
<path id="border" d="M7.5 0L2.5 0C1.11911 0 0 1.11911 0 2.5L0 13.5C0 14.8809 1.11911 16 2.5 16L11.5 16C12.8809 16 14 14.8809 14 13.5L14 6.5L7.5 0L7.5 0ZM14 0L9 0L14 5L14 0L14 0Z" fill="#808080" fill-rule="evenodd" transform="translate(1 0)"/>
<path id="paper" d="M0 0L4.5 0L10 5.5L10 12L0 12L0 0Z" fill="#FFFFFF" fill-rule="evenodd" transform="translate(3 2)"/>
</svg>