<?xml version="1.0" encoding="utf-8"?>
<svg width="16" height="16" viewBox="0 0 16 16" xmlns="http://www.w3.org/2000/svg">
<path d="M0.4 5.53C1.5 2.14 4.644 0 8 0L7 1.3C5.11 1.7366 3.46 3.15 2.8 5.16533C1.81244 8.22 3.5 11.5 6.54 12.5C9.6 13.5 12.876 11.8154 13.87 8.76C14.5237 6.745 14 4.63 12.723 3.14L12.7 1.513C15.4243 3.5 16.71 7.1 15.6 10.47C14.2415 14.6724 9.73 17 5.53 15.6C1.32764 14.24 -1 9.73 0.4 5.53L0.4 5.53ZM10.47 0.4L10.6275 6.56C10.635 6.8 10.61 7 10.524 7.3C10.16 8.415 8.9 9 7.7753 8.7C6.652 8.3264 6 7.1 6.375 5.943C6.45917 5.7 6.5726 5.5 6.72 5.3L10.47 0.4L10.47 0.4Z" fill="#3584E4"/>
</svg>
