<?xml version="1.0" encoding="utf-8"?>
<svg width="16" height="16" viewBox="0 0 16 16" xmlns="http://www.w3.org/2000/svg">
<path d="M4.67 4.745L5.6 2.15C5.75 1.735 5.733 1.327 5.55 0.9264C5.37 0.52575 5.1 0.25 4.666 0.1C4.47 0 4.27 0 4 0C3.853 0 3.65435 0 3.46547 0.15C3.2766 0.24 3.1 0.36 3 0.52C2.83 0.672745 2.7235 0.85 2.652 1L0.1 8.1475C-0 8.56225 0 9 0.15 9.37C0.333 9.77 0.63 10 1 10.2C1.23 10.2724 1.4323 10.3 1.64 10.3C1.85 10.3 2 10.24 2.2356 10.1485C2.4245 10 2.6 9.9 2.73 9.8C2.8 9.7 6.72 5.446 6.72 5.446L5.8 8.28527C5.64 8.7 5.67 9.11 5.86 9.5C6 9.9 6.353 10.17 6.76355 10.3C7.17427 10.454 7.574 10.43 8 10.2312C8.3 10 12.4754 5.7346 12.4754 5.7346C12.1576 8.53 12.2665 10.3652 12.8 11.2423C13 11.6172 13.357 11.855 13.8 12C14.2 12 14.6 12 15 11.755C15.333 11.5216 15.566 11.2 15.6644 10.76C15.7627 10.33 15.7 9.927 15.47 9.55C15.3525 9.3624 15.3 8.35 15.47 6.5C15.5744 5.45 15.8 4.43644 16 3.47345C16 3.2645 16 3 16 2.85C15.9 2.64254 15.8336 2.4523 15.714 2.28C15.6 2.1 15.4462 2 15.27 1.85C15.1 1.73465 14.9 1.66 14.7 1.6233C14.272 1.54754 13.9 1.63672 13.5263 1.9C13.3554 2 13.217 2.157 13.1 2.32145L10.1 5.31777L11.11 2.21177C11.1754 2 11.2018 1.8 11.2 1.6C11.1741 1.4 11.121 1.18 11 1C10.9363 0.8 10.8 0.63527 10.655 0.5C10.5 0.356 10.3214 0.2522 10.1242 0.18425C9.93 0.12 9.72443 0.1 9.5167 0.1C9.31 0.12 9.1 0.172 8.925 0.266C8.74 0.36 8.5767 0.5 8.44 0.646446C8.3774 0.72 4.66766 4.745 4.66766 4.745L4.66766 4.745Z" fill="#4381C0" transform="translate(0 2)"/>
</svg>
