<?xml version="1.0" encoding="utf-8"?>
<svg width="16" height="16" viewBox="0 0 16 16" xmlns="http://www.w3.org/2000/svg">
<path d="M1 0.4C1 0.2 1.2 0 1.4 0L5.6 0C5.8 0 6 0.2 6 0.4C6 0.4 6 4 9 4C10 4 10 2.4 10 2.4C10 2.2 10.2 2 10.4 2L13.6 2C13.8 2 14 2.2 14 2.4C14 5.4 11.3 5 11.3 5C11.3 5 11 5 11 5.2C11 5.5 11.3 5.6 11.3 5.6C11.3 5.6 15 7.6 15 10.6C15 10.8 14.8 11 14.6 11L10.4 11C10.2 11 10 10.8 10 10.6C10 10.6 9.6 6.4 6.4 6.4C4.2 6.4 4 8.6 4 8.6C4 8.8 3.8 9 3.6 9L0.4 9C0.2 9 0 8.8 0 8.6C0 5.8 4.8 5.4 4.8 5.4C4.8 5.4 5.1 5.4 5.1 5.15C5.1 5 4.8 4.8 4.8 4.8C4.8 4.8 1 3.2 1 0.4Z" fill="#F51A4A" transform="translate(0 3)"/>
</svg>
