<?xml version="1.0" encoding="utf-8"?>
<svg width="16" height="16" viewBox="0 0 16 16" fill="none" xmlns="http://www.w3.org/2000/svg">
  <g id="org.gnome.Epiphany" transform="translate(0 -0)">
    <path id="Forma" d="M16 8C16 12.4188 12.4177 16 8 16C3.58125 16 0 12.4188 0 8C0 3.58229 3.58125 0 8 0C12.4177 0 16 3.58229 16 8C16 8 16 8 16 8Z" fill="#3584E4" fill-rule="evenodd" />
    <path id="Forma" d="M3.19896 0C3.21562 1.85521 3.58333 3.64896 4.24375 5.1C3.71875 5.36875 3.27292 5.69271 2.92917 6.05521C1.11042 4.56563 0.0385417 2.35104 0 0C0 0 3.19896 0 3.19896 0Z" fill="#99C1F1" fill-rule="evenodd" transform="translate(0.001 8.133)" />
    <path id="Forma" d="M4.8 0C4.8 0 4.8 7.86667 4.8 7.86667C4.19896 7.86667 3.60104 7.79896 3.01562 7.66563C1.21979 6.40729 0.03125 3.38542 0 0C0 0 4.8 0 4.8 0Z" fill="#62A0EA" fill-rule="evenodd" transform="translate(3.2 8.133)" />
    <path id="Forma" d="M3.75521 0C3.75521 0 3.75521 3.6 3.75521 3.6C3.15417 3.6 2.55625 3.53229 1.97083 3.39896C1.19792 2.85729 0.51875 1.97396 0 0.834374C1.05417 0.294791 2.38333 0 3.75521 0C3.75521 0 3.75521 0 3.75521 0Z" fill="#3584E4" fill-rule="evenodd" transform="translate(4.245 12.4)" />
    <path id="Forma" d="M1.31458 0C1.83333 1.13958 2.5125 2.02396 3.28542 2.56563C2.08125 2.28958 0.95625 1.73854 0 0.955209C0.34375 0.592709 0.789583 0.26875 1.31458 0C1.31458 0 1.31458 0 1.31458 0Z" fill="#62A0EA" fill-rule="evenodd" transform="translate(2.93 13.233)" />
    <path id="Forma" d="M1.04479 0C1.02812 1.85625 0.660417 3.64896 0 5.10104C0.526042 5.36979 0.970834 5.69271 1.31458 6.05521C3.13333 4.56563 4.20521 2.35104 4.24479 0C4.24479 0 1.04479 0 1.04479 0Z" fill="#1C71D8" fill-rule="evenodd" transform="translate(11.754 8.133)" />
    <path id="Forma" d="M0 0C0 0 0 7.86667 0 7.86667C0.6 7.86667 1.19792 7.79896 1.78333 7.66563C3.57917 6.40729 4.76875 3.38542 4.79896 0C4.79896 0 0 0 0 0Z" fill="#3584E4" fill-rule="evenodd" transform="translate(8 8.133)" />
    <path id="Forma" d="M0 0C0 0 0 3.6 0 3.6C0.6 3.6 1.19792 3.53229 1.78333 3.39896C2.55625 2.85729 3.23542 1.97396 3.75417 0.834374C2.7 0.294791 1.37187 0 0 0C0 0 0 0 0 0Z" fill="#1C71D8" fill-rule="evenodd" transform="translate(8 12.4)" />
    <path id="Forma" d="M1.97083 0C1.45208 1.13958 0.772917 2.02396 0 2.56563C1.20521 2.28958 2.32917 1.73854 3.28542 0.955209C2.94167 0.592709 2.49687 0.26875 1.97083 0C1.97083 0 1.97083 0 1.97083 0Z" fill="#1A5FB4" fill-rule="evenodd" transform="translate(9.783 13.233)" />
    <path id="Forma" d="M8 0C3.58125 0 0 3.58229 0 8C0 8.04479 0 8.08958 0.00104167 8.13333C0.00104167 8.13333 8 8.13333 8 8.13333C8 8.13333 8 0 8 0Z" fill="#B3D3F9" fill-rule="evenodd" />
    <path id="Forma" d="M3.28646 0C2.08125 0.275 0.95625 0.826042 0 1.60938C0.34375 1.97292 0.789583 2.29583 1.31458 2.56458C1.83333 1.425 2.51354 0.540625 3.28646 0C3.28646 0 3.28646 0 3.28646 0Z" fill="#D7E8FC" fill-rule="evenodd" transform="translate(2.93 0.202)" />
    <path id="Forma" d="M4.8 0C4.2 0 3.60104 0.0677083 3.01667 0.202083C1.19479 1.47708 0 4.56563 0 8C0 8 0 8.13333 0 8.13333L4.8 8.13333C4.8 8.13333 4.8 0 4.8 0Z" fill="#99C1F1" fill-rule="evenodd" transform="translate(3.2 0)" />
    <path id="Forma" d="M3.75417 0C3.15417 0 2.55521 0.0677083 1.97083 0.202083C1.19792 0.742708 0.51875 1.62708 0 2.76667C1.05417 3.30521 2.38229 3.6 3.75417 3.6C3.75417 3.6 3.75417 0 3.75417 0Z" fill="#B3D3F9" fill-rule="evenodd" transform="translate(4.246 0)" />
    <path id="Forma" d="M0 0C4.41771 0 8 3.58229 8 8C8 8.04479 7.99896 8.08958 7.99896 8.13333C7.99896 8.13333 0 8.13333 0 8.13333C0 8.13333 0 0 0 0Z" fill="#3584E4" fill-rule="evenodd" transform="translate(8 0)" />
    <path id="Forma" d="M0 0C1.20521 0.275 2.33021 0.826042 3.2875 1.60938C2.94271 1.97292 2.49792 2.29583 1.97188 2.56458C1.45312 1.425 0.773958 0.540625 0 0C0 0 0 0 0 0Z" fill="#62A0EA" fill-rule="evenodd" transform="translate(9.782 0.202)" />
    <path id="Forma" d="M0 0C0.6 0 1.19792 0.0677083 1.78229 0.202083C3.60521 1.47708 4.8 4.56563 4.8 8C4.8 8.04479 4.8 8.08958 4.79896 8.13333C4.79896 8.13333 0 8.13333 0 8.13333C0 8.13333 0 0 0 0Z" fill="#62A0EA" fill-rule="evenodd" transform="translate(8 0)" />
    <path id="Forma" d="M0 0C0.6 0 1.19792 0.0677083 1.78229 0.202083C2.55625 0.742708 3.23542 1.62708 3.75417 2.76667C2.7 3.30521 1.37187 3.6 0 3.6C0 3.6 0 0 0 0Z" fill="#99C1F1" fill-rule="evenodd" transform="translate(8 0)" />
  </g>
</svg>