<?xml version="1.0" encoding="utf-8"?>
<svg width="16" height="16" viewBox="0 0 16 16" xmlns="http://www.w3.org/2000/svg">
<defs>
<clipPath id="donut">
<path d="M8 0C3.6 0 0 3.6 0 8C0 12.4 3.6 16 8 16C12.4 16 16 12.4 16 8C16 3.6 12.4 0 8 0ZM4 8C4 5.8 5.8 4 8 4C10.2 4 12 5.8 12 8C12 10.2 10.2 12 8 12C5.8 12 4 10.2 4 8Z"/>
</clipPath>
</defs>
<rect width="15" height="15" rx="3" x="0.5" y="0.5" fill="none" stroke="#FF7800" stroke-width="1"/>
<g clip-path="url(#donut)">
<rect width="16" height="16" fill="#E3E3E3"/>
<path d="M6 0L10 0L10 6L16 6L16 10L10 10L10 16L6 16L6 10L0 10L0 6L6 6Z" fill="#C7162B"/>
</g></svg>
