<?xml version="1.0" encoding="utf-8"?>
<svg width="16" height="16" viewBox="0 0 16 16" xmlns="http://www.w3.org/2000/svg">
<path d="M10.5 2L8.5 0L7.5 0L5.5 2L2.7 2L2 2.7L2 5.5L0 7.5L0 8.5L2 10.5L2 13.3L2.7 14L5.5 14L7.5 16L8.5 16L10.5 14L13.3 14L14 13.3L14 10.5L16 8.5L16 7.5L14 5.5L14 2.7L13.3 2Z" fill="#F5C211"/>
<path d="M8 6C9.1 6 10 5.1 10 4C10 3.22 9.55 2.54 8.9 2.2C8.55 0.94 7.4 0 6 0C4.7 0 3.6 0.835 3.17 2L2 2C0.9 2 0 2.9 0 4C0 5.1 0.9 6 2 6Z" fill="#F6F5F4" transform="translate(6 8)"/>
</svg>
