<?xml version="1.0" encoding="utf-8"?>
<svg width="16" height="16" viewBox="0 0 16 16" fill="none" xmlns="http://www.w3.org/2000/svg">
<rect id="square" width="16" height="16" fill="#ED333B"/>
<path id="e" d="M0 9.6C2.57042 8.87288 4.97791 7.65157 7.09055 6C7.80357 5.446 8.49481 4.8245 8.92974 4.027C9.14746 3.628 9.2964 3.188 9.33746 2.7345C9.37804 2.281 9.30679 1.814 9.106 1.4065C8.93 1.0558 8.67037 0.754405 8.35131 0.529C8.0324 0.30443 7.67137 0.148226 7.29045 0.07C6.53192 -0.09 5.73479 0.038 5 0.314997C4.138 0.6495 3.34043 1.2075 2.77981 1.96C2.2187 2.714 1.906 3.6665 1.97823 4.6065C2.02573 5.2155 2.23206 5.809 2.55 6.3285C2.86838 6.8485 3.29688 7.296 3.78526 7.6565C4.7625 8.3775 5.96 8.74201 7.15982 8.8975C9.89114 9.2505 12.7437 8.54 15 6.945C15 6.945 14.9881 4.351 14.9881 4.351C13.2197 6.3225 10.7046 7.5925 8.08263 7.8385C6.95101 7.94451 5.7719 7.858 4.74963 7.3555C4.2385 7.1045 3.77338 6.7505 3.41761 6.3025C3.06135 5.855 2.81692 5.3125 2.74715 4.7425C2.64522 3.91101 2.92429 3.0525 3.439 2.3955C3.9535 1.7385 4.68926 1.276 5.481 1.0255C5.91786 0.888003 6.3805 0.811 6.83473 0.87C7.28847 0.93 7.7338 1.13349 8.03 1.4865C8.26917 1.7725 8.4 2.143 8.42355 2.517C8.4468 2.891 8.36566 3.2675 8.21821 3.6115C7.9238 4.3 7.38 4.8435 6.82682 5.3415C4.81375 7.15132 2.50368 8.59242 0.000498295 9.6C0 9.6 0 9.6 0 9.6Z" fill="#FFFFFF" transform="translate(1 3)"/>
</svg>