<?xml version="1.0" encoding="utf-8"?>
<svg width="16" height="16" viewBox="0 0 16 16" xmlns="http://www.w3.org/2000/svg">
<path d="M13.6569 0L5.65685 0L0 5.65685C1.11882 6.77567 2.54428 7.5376 4.09613 7.84628C5.64798 8.15496 7.25651 7.99654 8.71832 7.39104C10.1801 6.78554 11.4296 5.76016 12.3086 4.44456C13.1877 3.12897 13.6569 1.58225 13.6569 0L13.6569 0Z" fill="#F9F06B" transform="translate(2.343 8)"/>
<path d="M8 8C8 8 2.34315 13.6569 2.34315 13.6569C1.22433 12.538 0.462405 11.1126 0.153721 9.56072C-0.15496 8.00887 0.00346606 6.40034 0.608967 4.93853C1.21447 3.47672 2.23985 2.22729 3.55544 1.34824C4.87104 0.469191 6.41775 0 8 0C8 0 8 8 8 8L8 8Z" fill="#57E389" transform="translate(-0 0)"/>
<path d="M0 8C0 8 0 0 0 0C1.05058 0 2.09086 0.206926 3.06147 0.608964C4.03207 1.011 4.91399 1.60028 5.65686 2.34315C6.39972 3.08602 6.989 3.96793 7.39104 4.93853C7.79307 5.90914 8 6.94942 8 8C8 8 0 8 0 8L0 8Z" fill="#62A0EA" transform="translate(8 0)"/>
</svg>
