<?xml version="1.0" encoding="utf-8"?>
<svg width="16" height="16" viewBox="0 0 16 16" fill="none" xmlns="http://www.w3.org/2000/svg">
<path d="M8 0C3.58387 0 0 3.58387 0 8C0 12.4161 3.58387 16 8 16C12.4161 16 16 12.4161 16 8C16 3.58387 12.4161 0 8 0L8 0ZM4 8C4 5.79086 5.79086 4 8 4C10.2091 4 12 5.79086 12 8C12 10.2091 10.2091 12 8 12C5.79086 12 4 10.2091 4 8L4 8Z" fill="#E3E3E3"/>
<path d="M8 0C7.30948 0 6.63931 0.087624 6 0.252353L6 4.53513C6.58835 4.19479 7.27143 4 8 4C8.72857 4 9.41165 4.19479 10 4.53513L10 0.252353C9.36069 0.087624 8.69052 0 8 0ZM11.4649 6C11.8052 6.58835 12 7.27143 12 8C12 8.72857 11.8052 9.41165 11.4649 10L15.7476 10C15.9124 9.36069 16 8.69052 16 8C16 7.30948 15.9124 6.63931 15.7476 6L11.4649 6ZM10 11.4649C9.41165 11.8052 8.72857 12 8 12C7.27143 12 6.58835 11.8052 6 11.4649L6 15.7476C6.63931 15.9124 7.30948 16 8 16C8.69052 16 9.36069 15.9124 10 15.7476L10 11.4649ZM4.53513 10C4.19479 9.41165 4 8.72857 4 8C4 7.27143 4.19479 6.58835 4.53513 6L0.252353 6C0.087624 6.63931 0 7.30948 0 8C0 8.69052 0.087624 9.36069 0.252353 10L4.53513 10Z" fill="#C7162B" fill-rule="evenodd"/>
</svg>