<?xml version="1.0" encoding="utf-8"?>
<svg width="16" height="16" viewBox="0 0 16 16" fill="none" xmlns="http://www.w3.org/2000/svg">
<path id="sun" d="M10.5 2L8.5 0L7.5 0L5.5 2L2.7 2L2 2.7L2 5.5L0 7.5L3.05176e-05 8.5L2 10.5L2 13.3L2.7 14L5.5 14L7.5 16L8.5 16L10.5 14L13.3 14L14 13.3L14 10.5L16 8.5L16 7.5L14 5.5L14 2.7L13.3 2L10.5 2L10.5 2Z" fill="#F5C211"/>
<path id="cloud" d="M2 6L8 6C9.10471 6 10 5.10472 10 4C10 3.2171 9.55032 2.53938 8.89517 2.211C8.54877 0.937 7.3838 0 6 0C4.6938 0 3.58255 0.834808 3.17072 2L2 2C0.895294 2 0 2.89528 0 4C0 5.10472 0.895294 6 2 6L2 6Z" fill="#DCEAFA" transform="translate(6 8)"/>
</svg>