<?xml version="1.0" encoding="utf-8"?>
<svg width="16" height="16" viewBox="0 0 16 16" fill="gray" xmlns="http://www.w3.org/2000/svg">
<path d="M7 0L7 2.083L5.91 2.3751L4.866 0.572L3.134 1.572L4.176 3.3764L3.3764 4.176L1.572 3.134L0.572 4.866L2.3751 5.91L2.083 7L0 7L0 9L2.083 9L2.3751 10.093L0.572 11.134L1.572 12.866L3.3764 11.8242L4.176 12.6236L3.134 14.43L4.866 15.43L5.91 13.625L7 13.917L7 16L9 16L9 13.917L10.093 13.625L11.134 15.43L12.866 14.43L11.8242 12.6236L12.6236 11.8241L14.43 12.866L15.43 11.134L13.625 10.093L13.917 9L16 9L16 7L13.917 7L13.625 5.91L15.43 4.866L14.43 3.134L12.6236 4.176L11.8241 3.3764L12.866 1.572L11.134 0.572L10.093 2.3751L9 2.083L9 0L7 0ZM4 8C4 5.8 5.8 4 8 4C10.2 4 12 5.8 12 8C12 10.21 10.2 12 8 12C5.8 12 4 10.2 4 8Z"/>
</svg>
