<?xml version="1.0" encoding="utf-8"?>
<svg width="16" height="16" viewBox="0 0 16 16" fill="none" xmlns="http://www.w3.org/2000/svg">
<defs>
<linearGradient id="gradient_1" gradientUnits="userSpaceOnUse" x1="8" y1="0" x2="8" y2="15">
<stop offset="0" stop-color="#8761FF" />
<stop offset="1" stop-color="#79F1E5" />
</linearGradient>
<linearGradient id="gradient_2" gradientUnits="userSpaceOnUse" x1="5" y1="0" x2="5" y2="9.5">
<stop offset="0" stop-color="#6D4AFF" />
<stop offset="1" stop-color="#00C5BB" />
</linearGradient>
</defs>
<path d="M15.3123 0.753574C15.7668 1.23515 16.0147 1.8864 16 2.55962C16 2.97833 15.8789 3.38788 15.6765 3.75043L10.29 13.3996C10.2855 13.4124 10.2813 13.4252 10.2766 13.438C10.1916 13.6 10.096 13.7658 9.98917 13.919C9.97264 13.9434 9.95553 13.9672 9.93841 13.991C9.91775 14.0185 9.89709 14.0459 9.87585 14.0728C9.84752 14.1094 9.81801 14.1454 9.78731 14.1808C9.75013 14.2242 9.71118 14.2645 9.67163 14.3053C9.66396 14.3127 9.65629 14.3206 9.64861 14.3285C9.46978 14.5062 9.26793 14.6563 9.03538 14.7619C8.75385 14.9059 8.44989 14.981 8.14298 14.9957C7.22932 15.0512 6.36407 14.5696 5.90665 13.7505L3.11493 8.75048L0.497922 4.06355L0.497922 4.06294C0.444211 3.97504 0.394043 3.8841 0.346236 3.79194L0.323217 3.75043C0.159728 3.45624 0.05585 3.13092 0.0174865 2.794C0.00863291 2.72442 0 2.65423 0 2.58404C0 2.57977 0.000960906 2.5761 0 2.57183C-0 2.51629 0 2.46075 0 2.4052C0.00509172 2.36675 0.00686174 2.3283 0.00981331 2.28985C0.0104041 2.28008 0.0121741 2.27032 0.0127637 2.26116C0.0357832 1.9511 0.120774 1.65385 0.255343 1.38285C0.286624 1.31938 0.320857 1.25712 0.356859 1.1967C0.492019 0.967201 0.661411 0.762121 0.859134 0.588779C0.983079 0.480746 1.11647 0.386751 1.25753 0.306794C1.28232 0.293974 1.30652 0.281767 1.33131 0.27017C1.33721 0.267118 1.34252 0.264067 1.34842 0.261625C1.40095 0.234159 1.45407 0.209134 1.50778 0.185941C1.57034 0.158475 1.63349 0.135281 1.69724 0.113919C1.6996 0.113308 1.70137 0.112698 1.70373 0.112087C1.93214 0.0364031 2.17236 -0.00448851 2.4173 0.000391968C3.10431 0 3.79132 0 4.47833 0C4.82184 0 5.16534 0.000391968 5.50885 0L8.00014 0C8.67065 0 9.34142 0.000935568 10.0121 0C10.3474 0.000527868 10.6827 0 11.0179 0.000391968L13.583 0C14.234 0.000391968 14.8573 0.272 15.3123 0.753574L15.3123 0.753574Z" fill="url(#gradient_1)"/>
<path d="M9.80726 1.33693C9.97388 1.03703 9.97019 0.739229 9.7962 0.443537C9.62222 0.147846 9.36368 0 9.02061 0L0 0L5.35 9.5L9.80726 1.33693Z" fill="url(#gradient_2)" transform="translate(0.45 4)"/>
</svg>