<?xml version="1.0" encoding="utf-8"?>
<svg width="16" height="16" viewBox="0 0 16 16" fill="#EF3939" xmlns="http://www.w3.org/2000/svg">
<path d="M15.7 3C13.7216 6.28767 11.7481 9.61818 9.77623 12.9471C9.62 13.24 9.4 13.5 9.1 13.676C8.82 13.86 8.5 13.966 8.15 14C7.77 14 7.4 13.96 7 13.7865C6.7223 13.6 6.45 13.3473 6.274 13C5.02636 10.94 1 4.2 0.286 2.9276C0.11 2.64 0 2.314 0 2C0 1.645 0 1.3136 0.2365 1C0.4 0.723543 0.64 0.475 0.932 0.3C1.2245 0.12 1.56 0 1.9 0C2.276 0 2.646 0 3 0.24C3.3 0.42 3.56 0.7 3.73 1C4.3 1.94 6.173 5.15 6.6 5.814C6.8427 6.2727 7.22 6.66 7.68 6.9332C8.14 7.21 8.6637 7.3633 9.2 7.3838C10 7.433 10.83 7.17476 11.457 6.66247C12.1 6.15 12.485 5.4234 12.575 4.63254C12.575 4.5 12.575 4.38 12.6 4.315C12.6 3.8 12.4914 3.32 12.267 2.87155C12.129 2.624 12 2.35 12 2.1C12 1.8 12.06 1.5 12.1685 1.245C12.2755 1 12.44 0.747545 12.6512 0.5542C12.862 0.36 13.1142 0.214545 13.4 0.12563C13.665 0 13.96 0 14.2456 0C14.534 0.07 14.812 0.165 15.06 0.312C15.3 0.46 15.5176 0.657 15.6776 0.9C15.84 1.127 15.943 1.4 16 1.67C16 2.12 15.94 2.57 15.7 3C15.7 3 15.7 3 15.7 3Z" transform="translate(0 1)"/>
</svg>
