<?xml version="1.0" encoding="utf-8"?>
<svg width="16" height="16" viewBox="0 0 16 16" fill="none" xmlns="http://www.w3.org/2000/svg">
<path d="M0 16L1.06833 12C0.37 10.78 0 9.4 0 8C0 3.5873 3.6 0 8 0C10.14 0 12.1486 0.834 13.66 2.345C15.17 3.857 16 5.86627 16 8C16 12.4123 12.41 16 8 16L8 16C6.66 16 5.34254 15.664 4.174 15.0267L0 16L0 16Z" fill="#FFFFFF"/>
<path d="M7 0C3.1415 0 0 3.14 7.51e-06 7C0 8.31433 0.37 9.6 1.07 10.721L1.2366 11L0.53 13.5676L3.17875 12.873L3.4346 13.0245C4.51 13.662 5.74106 14 7 14L7 14C10.8583 14 14 10.86 14 7C14 5.145 13.2682 3.3624 12 2.052C10.6422 0.73454 8.86 0 7 1.94907e-05L7 0L7 0Z" fill="#0B9451" transform="translate(1 1)"/>
<path d="M2.06556 0.35C1.91574 0.0171781 1.75809 0.0104375 1.61577 0C1.61577 0 1.23262 0 1.23262 0C1.1 0 0.88274 0.05 0.7 0.25C0.516553 0.450122 0 0.933623 0 1.91704C0 2.9 0.716282 3.85072 0.816092 3.98423C0.915901 4.11775 2.2 6.2 4.23061 7C5.919 7.66719 6.26257 7.53477 6.62919 7.5015C7 7.46823 7.8118 7.018 7.97826 6.55124C8.14471 6.08448 8.14482 5.68459 8.09492 5.6C8.04501 5.51737 7.91172 5.46768 7.71166 5.36765C7.51161 5.26763 6.52906 4.78413 6.34586 4.71737C6.16265 4.65061 6.02946 4.61745 5.89606 4.8175C5.76265 5.01756 5.38 5.46757 5.26339 5.6C5.14673 5.7344 5.03028 5.75113 4.83023 5.65121C4.63017 5.55129 3.98652 5.34015 3.22283 4.6592C2.62865 4.12938 2.22756 3.47507 2.1108 3.27513C2 3.07518 2.0984 2.967 2.19864 2.8673C2.28834 2.77771 2.39848 2.63387 2.49861 2.51721C2.59875 2.4 2.63169 2.31715 2.69823 2.18396C2.76477 2.05077 2.73161 1.9338 2.6816 1.83387C2.63159 1.73395 2.24322 0.74542 2.06556 0.35C2.06556 0.35 2.06556 0.35 2.06556 0.35Z" fill="#FFFFFF" transform="translate(4 4.3)"/>
</svg>