<?xml version="1.0" encoding="utf-8"?>
<svg width="16" height="16" viewBox="0 0 16 16" xmlns="http://www.w3.org/2000/svg">
<path d="M5.7 16C6 15.6 6.3263 15.26 6.57 14.875C6.9 14.364 7.233 13.8535 7.3 13.2C7.32 13 7.256 12.733 7.1775 12.5C7.1432 12.4 7 12.4 7 12.4C6.1 12.3 5.213 12.2337 4.33 12.13C3.64 12 3 12 2.3 11.665C1.11 11 0.3736 10 0.14 8.73C0 7.4167 0 6.1 0.4 4.82C0.65222 4 1.1 3.37 1.7 2.8C2.38 2.15577 3.1264 1.6276 4 1.2245C4.94 0.746 6 0.4533 7 0.262577C8 0.1 8.933 0 9.9 0C11.25 0 12.5523 0.3633 13.7222 1.12C14.85 1.85376 15.5 3 15.8 4.26C16.1457 5.756 16 7.25 15.4525 8.66C14.6 10.7 13.1 12 11 12.373C10.8 12.4 10.7 12.45 10.62 12.57C10 13.4 9.27 14.2 8.4367 14.84C7.9 15.245 7.3426 15.57 6.74637 15.8465C6.4253 16 6.1 16 5.7 16C5.7 16 5.7 16 5.7 16Z" fill="#F5A705"/>
</svg>
