<?xml version="1.0" encoding="utf-8"?>
<svg width="16" height="16" viewBox="0 0 16 16" fill="gray" xmlns="http://www.w3.org/2000/svg">
<path d="M0 8C0 3.6 3.6 0 8 0C12.4 0 16 3.6 16 8C16 12.4 12.4 16 8 16C3.6 16 0 12.4 0 8ZM8 1C4.15 1 1 4.15 1 8C1 11.85 4.15 15 8 15C11.85 15 15 11.85 15 8C15 4.15 11.85 1 8 1Z"/>
<circle r="1" cx="11" cy="8"/>
<circle r="1" cx="5" cy="8"/>
<rect width="6" height="1" x="6" y="10"/>
<rect width="4" height="1" x="3" y="5"/>
<path d="M3 1C4 1 4.4 1.4 4.8 2L6 2C5.6 0.8 4.5 0 3 0C1.5 0 0.4 0.8 0 2L1.2 2C1.6 1.4 2 1 3 1Z" transform="translate(8 4)"/>
</svg>
