<?xml version="1.0" encoding="utf-8"?>
<svg width="16" height="16" viewBox="0 0 16 16" fill="gray" xmlns="http://www.w3.org/2000/svg">
<path d="M0 3C0 1.35 1.35 0 3 0C4.65 0 6 1.35 6 3C6 4.65 4.65 6 3 6C1.35 6 0 4.65 0 3ZM1 3C1 1.9 1.9 1 3 1C4.1 1 5 1.9 5 3C5 4.1 4.1 5 3 5C1.9 5 1 4.1 1 3Z" fill-rule="evenodd" transform="translate(1 8)"/>
<path d="M0 3C0 1.35 1.35 0 3 0C4.65 0 6 1.35 6 3C6 4.65 4.65 6 3 6C1.35 6 0 4.65 0 3ZM1 3C1 1.9 1.9 1 3 1C4.1 1 5 1.9 5 3C5 4.1 4.1 5 3 5C1.9 5 1 4.1 1 3Z" fill-rule="evenodd" transform="translate(9 8)"/>
<path d="M0 6L3 4L13 4L16 6L16 7L0 7ZM3 3L4 1L12 1L13 3Z"/>
<g transform="translate(0 10)">
<rect width="2" height="1" x="14"/>
<rect width="4" height="1" x="6"/>
<rect width="2" height="1"/>
</g></svg>
