<?xml version="1.0" encoding="utf-8"?>
<svg width="16" height="16" viewBox="0 0 16 16" fill="gray" xmlns="http://www.w3.org/2000/svg">
<path d="M0 8C0 3.6 3.6 0 8 0C12.4 0 16 3.6 16 8C16 12.4 12.4 16 8 16C3.6 16 0 12.4 0 8ZM8 1C4.15 1 1 4.15 1 8C1 11.85 4.15 15 8 15C11.85 15 15 11.85 15 8C15 4.15 11.85 1 8 1Z"/>
<path d="M1 0L2 0L2 1L3 1L3 2L2 2L2 3L1 3L1 2L0 2L0 1L1 1Z" transform="translate(3 5)"/>
<path d="M1 0L2 0L2 1L3 1L3 2L2 2L2 3L1 3L1 2L0 2L0 1L1 1Z" transform="translate(10 5)"/>
<path d="M3 0L3 1.5C3 2.3 2.3 3 1.5 3C0.7 3 0 2.3 0 1.5L0 0Z" transform="translate(8 10)"/>
<rect width="10" height="1" x="3" y="9"/>
</svg>
