<?xml version="1.0" encoding="utf-8"?>
<svg width="16" height="16" viewBox="0 0 16 16" fill="gray" xmlns="http://www.w3.org/2000/svg">
<path d="M0 8C0 3.6 3.6 0 8 0C12.4 0 16 3.6 16 8C16 12.4 12.4 16 8 16C3.6 16 0 12.4 0 8ZM8 1C4.15 1 1 4.15 1 8C1 11.85 4.15 15 8 15C11.85 15 15 11.85 15 8C15 4.15 11.85 1 8 1Z"/>
<rect width="6" height="1" x="5" y="10"/>
<path d="M0 0L4 0L4 1C4 1.55 3.55 2 3 2C2.45 2 2 1.55 2 1L0 1Z" transform="translate(3 6.5) rotate(45 3 0)"/>
<path d="M0 0L4 0L4 1L2 1C2 1.55 1.55 2 1 2C0.45 2 0 1.55 0 1Z" transform="translate(9 6.5) rotate(-45 1 0)"/>
</svg>
