<?xml version="1.0" encoding="utf-8"?>
<svg width="16" height="16" viewBox="0 0 16 16" fill="gray" xmlns="http://www.w3.org/2000/svg">
<path d="M0 8C0 3.6 3.6 0 8 0C12.4 0 16 3.6 16 8C16 12.4 12.4 16 8 16C3.6 16 0 12.4 0 8ZM8 1C4.15 1 1 4.15 1 8C1 11.85 4.15 15 8 15C11.85 15 15 11.85 15 8C15 4.15 11.85 1 8 1Z"/>
<circle r="1" cx="12" cy="6"/>
<circle r="1" cx="6" cy="6"/>
<path d="M4 3C2 3 0.46 1.72 0 0L1.1 0C1.5 1.16 2.66 2 4 2C5.34 2 6.5 1.16 6.9 0L8 0C7.54 1.72 6 3 4 3Z" transform="translate(4 10)"/>
<g fill-rule="evenodd">
<path d="M0 3C0 1.35 1.35 0 3 0C4.65 0 6 1.35 6 3C6 4.65 4.65 6 3 6C1.35 6 0 4.65 0 3ZM1 3C1 1.9 1.9 1 3 1C4.1 1 5 1.9 5 3C5 4.1 4.1 5 3 5C1.9 5 1 4.1 1 3Z" transform="translate(2 3)"/>
<path d="M0 3C0 1.35 1.35 0 3 0C4.65 0 6 1.35 6 3C6 4.65 4.65 6 3 6C1.35 6 0 4.65 0 3ZM1 3C1 1.9 1.9 1 3 1C4.1 1 5 1.9 5 3C5 4.1 4.1 5 3 5C1.9 5 1 4.1 1 3Z" transform="translate(8 3)"/>
<rect width="2" height="1" x="7" y="5"/>
</g></svg>
