<?xml version="1.0" encoding="utf-8"?>
<svg width="16" height="16" viewBox="0 0 16 16" fill="gray" xmlns="http://www.w3.org/2000/svg">
<path d="M7 2L7 0L8 2L9 0L9 2L11 2C12.1 2 13 2.9 13 4L13 5L14 5C15.1 5 16 5.9 16 7L16 8C16 9.1 15.1 10 14 10L13 10L13 11C13 12.1 12.1 13 11 13L11 14C11 15.1 10.1 16 9 16L7 16C5.9 16 5 15.1 5 14L5 13C3.9 13 3 12.1 3 11L3 10L2 10C0.9 10 0 9.1 0 8L0 7C0 5.9 0.9 5 2 5L3 5L3 4C3 2.9 3.9 2 5 2ZM12 11C12 11.55 11.55 12 11 12L11 10C11 8.9 10.1 8 9 8L7 8C5.9 8 5 8.9 5 10L5 12C4.45 12 4 11.55 4 11L4 6C4 4.9 4.9 4 6 4C7.1 4 8 4.9 8 6C8 4.9 8.9 4 10 4C11.1 4 12 4.9 12 6ZM10 11C10 12.1 9.1 13 8 13C6.9 13 6 12.1 6 11L7 11C7 11.55 7.45 12 8 12C8.55 12 9 11.55 9 11ZM3 9L3 6L2 6C1.45 6 1 6.45 1 7L1 8C1 8.55 1.45 9 2 9ZM13 6L13 9L14 9C14.55 9 15 8.55 15 8L15 7C15 6.45 14.55 6 14 6Z" fill-rule="evenodd"/>
<circle r="1" cx="10" cy="6"/>
<circle r="1" cx="6" cy="6"/>
</svg>
