<?xml version="1.0" encoding="utf-8"?>
<svg width="16" height="16" viewBox="0 0 16 16" fill="gray" xmlns="http://www.w3.org/2000/svg">
<defs><clipPath id="halo">
<path d="M0 16L0 2C0 3.65 1.35 5 3 5L13 5C14.65 5 16 3.65 16 2L16 16Z"/>
</clipPath></defs>
<path d="M0 8C0 3.6 3.6 0 8 0C12.4 0 16 3.6 16 8C16 12.4 12.4 16 8 16C3.6 16 0 12.4 0 8ZM8 1C4.15 1 1 4.15 1 8C1 11.85 4.15 15 8 15C11.85 15 15 11.85 15 8C15 4.15 11.85 1 8 1Z" clip-path="url(#halo)"/>
<path d="M4 3C2 3 0.45 1.7 0 0L1.1 0C1.5 1.15 2.65 2 4 2C5.35 2 6.5 1.15 6.9 0L8 0C7.55 1.7 6 3 4 3Z" transform="translate(4 9)"/>
<path d="M0 2C0 0.9 0.9 0 2 0C3.1 0 4 0.9 4 2L3 2C3 1.45 2.55 1 2 1C1.45 1 1 1.45 1 2Z" transform="translate(3 5)"/>
<path d="M0 2C0 0.9 0.9 0 2 0C3.1 0 4 0.9 4 2L3 2C3 1.45 2.55 1 2 1C1.45 1 1 1.45 1 2Z" transform="translate(9 5)"/>
<path d="M2 0L12 0C13.1 0 14 0.9 14 2C14 3.1 13.1 4 12 4L2 4C0.9 4 0 3.1 0 2C0 0.9 0.9 0 2 0ZM2 1L12 1C12.55 1 13 1.45 13 2C13 2.55 12.55 3 12 3L2 3C1.45 3 1 2.55 1 2C1 1.45 1.45 1 2 1Z" fill-rule="evenodd" transform="translate(1 0)"/>
</svg>
