<?xml version="1.0" encoding="utf-8"?>
<svg width="16" height="16" viewBox="0 0 16 16" fill="gray" xmlns="http://www.w3.org/2000/svg">
<path d="M0 8C0 3.6 3.6 0 8 0C12.4 0 16 3.6 16 8C16 12.4 12.4 16 8 16C3.6 16 0 12.4 0 8ZM8 1C4.15 1 1 4.15 1 8C1 11.85 4.15 15 8 15C11.85 15 15 11.85 15 8C15 4.15 11.85 1 8 1Z"/>
<path d="M2 0C3.1 0 4 0.9 4 2L3 2C3 1.45 2.55 1 2 1C1.45 1 1 1.45 1 2L0 2C0 0.9 0.9 0 2 0Z" transform="translate(3 4)"/>
<path d="M2 0C3.1 0 4 0.9 4 2L3 2C3 1.45 2.55 1 2 1C1.45 1 1 1.45 1 2L0 2C0 0.9 0.9 0 2 0Z" transform="translate(9 4)"/>
<path d="M0 2C0 2 2 5 4 5C6 5 8 2 8 2C8 2 6 0 5 0C4 0 4 1 4 1C4 1 4 0 3 0C2 0 0 2 0 2ZM4 1.5L6 2L4 3L2 2Z" transform="translate(4 7)"/>
</svg>
