<?xml version="1.0" encoding="utf-8"?>
<svg width="16" height="16" viewBox="0 0 16 16" fill="gray" xmlns="http://www.w3.org/2000/svg">
<path d="M0 8C0 3.6 3.6 0 8 0C12.4 0 16 3.6 16 8C16 12.4 12.4 16 8 16C3.6 16 0 12.4 0 8ZM8 1C4.15 1 1 4.15 1 8C1 11.85 4.15 15 8 15C11.85 15 15 11.85 15 8C15 4.15 11.85 1 8 1Z"/>
<path d="M3 0C3 0.825 2.325 1.5 1.5 1.5C0.675 1.5 0 0.825 0 0Z" transform="translate(4 5.5) rotate(45 1.5 0)"/>
<path d="M3 0C3 0.825 2.325 1.5 1.5 1.5C0.675 1.5 0 0.825 0 0Z" transform="translate(9 5.5) rotate(-45 1.5 0)"/>
<path d="M8 0C8 2.2 6.2 4 4 4C1.8 4 0 2.2 0 0Z" transform="translate(4 8)"/>
<path d="M11.5 1.5L16 0L14.5 4.5Z"/>
<path d="M1.5 4.5L0 0L4.5 1.5Z"/>
</svg>
