<?xml version="1.0" encoding="utf-8"?>
<svg width="16" height="16" viewBox="0 0 16 16" fill="gray" xmlns="http://www.w3.org/2000/svg">
<g opacity="50%">
<circle r="1.5" cx="2.5" cy="10.5"/>
<circle r="1.5" cx="13.5" cy="10.5"/></g>
<path d="M0 8C0 3.6 3.6 0 8 0C12.4 0 16 3.6 16 8C16 12.4 12.4 16 8 16C3.6 16 0 12.4 0 8ZM8 1C4.15 1 1 4.15 1 8C1 11.85 4.15 15 8 15C11.85 15 15 11.85 15 8C15 4.15 11.85 1 8 1Z"/>
<path d="M0 2C0 0.9 0.9 0 2 0C3.1 0 4 0.9 4 2C4 3.1 3.1 4 2 4C0.9 4 0 3.1 0 2ZM1 2C1 1.45 1.45 1 2 1C2.55 1 3 1.45 3 2C3 2.55 2.55 3 2 3C1.45 3 1 2.55 1 2Z" fill-rule="evenodd" transform="translate(3 4)"/>
<path d="M0 2C0 0.9 0.9 0 2 0C3.1 0 4 0.9 4 2C4 3.1 3.1 4 2 4C0.9 4 0 3.1 0 2ZM1 2C1 1.45 1.45 1 2 1C2.55 1 3 1.45 3 2C3 2.55 2.55 3 2 3C1.45 3 1 2.55 1 2Z" fill-rule="evenodd" transform="translate(9 4)"/>
<rect width="4" height="1" x="6" y="9"/>
</svg>
