<?xml version="1.0" encoding="utf-8"?>
<svg width="16" height="16" viewBox="0 0 16 16" fill="gray" xmlns="http://www.w3.org/2000/svg">
<defs><clipPath id="sweat">
<path d="M0 0L13.5 0L11 2.5L11 8L13 8L16 6L16 16L0 16Z"/>
</clipPath></defs>
<path d="M0 8C0 3.6 3.6 0 8 0C12.4 0 16 3.6 16 8C16 12.4 12.4 16 8 16C3.6 16 0 12.4 0 8ZM8 1C4.15 1 1 4.15 1 8C1 11.85 4.15 15 8 15C11.85 15 15 11.85 15 8C15 4.15 11.85 1 8 1Z" clip-path="url(#sweat)"/>
<circle r="1" cx="11" cy="7"/>
<circle r="1" cx="5" cy="7"/>
<rect width="4" height="1" x="6" y="9"/>
<path d="M0 0L2 0C3.1 0 4 0.9 4 2C4 3.1 3.1 4 2 4C0.9 4 0 3.1 0 2Z" transform="translate(14 1) rotate(45)"/>
</svg>
