<?xml version="1.0" encoding="utf-8"?>
<svg width="16" height="16" viewBox="0 0 16 16" fill="gray" xmlns="http://www.w3.org/2000/svg">
<path d="M0 8C0 3.6 3.6 0 8 0C12.4 0 16 3.6 16 8C16 12.4 12.4 16 8 16C3.6 16 0 12.4 0 8ZM8 1C4.15 1 1 4.15 1 8C1 11.85 4.15 15 8 15C11.85 15 15 11.85 15 8C15 4.15 11.85 1 8 1Z"/>
<circle r="1" cx="11" cy="6"/>
<circle r="1" cx="5" cy="6"/>
<path d="M4 3C2 3 0.46 1.72 0 0L1.1 0C1.5 1.16 2.66 2 4 2C5.34 2 6.5 1.16 6.9 0L8 0C7.54 1.72 6 3 4 3Z" transform="translate(4 9)"/>
</svg>
