<?xml version="1.0" encoding="utf-8"?>
<svg width="16" height="16" viewBox="0 0 16 16" xmlns="http://www.w3.org/2000/svg">
<circle cx="8" cy="8" r="8" fill="#E95420"/>
<path d="M7 3C7 1.34293 5.65708 0 4 0C2.34292 0 1 1.34293 1 3L1 5L0 5L0 10L8 10L8 5L7 5L7 3L7 3ZM4 1C5.10472 1 6 1.89528 6 3L6 5L2 5L2 3C2 1.89528 2.89528 1 4 1L4 1ZM5 7C5 6.44765 4.55236 6 4 6C3.44764 6 3 6.44765 3 7C3 7.55235 3.44764 8 4 8C4.55236 8 5 7.55235 5 7L5 7Z" fill="#FFFFFF" fill-rule="evenodd" transform="translate(4 3)"/>
</svg>