<?xml version="1.0" encoding="utf-8"?>
<svg width="16" height="16" viewBox="0 0 16 16" xmlns="http://www.w3.org/2000/svg">
<circle r="8" cx="8" cy="8" fill="#0B9ED2"/><g fill="#FFFFFF">
<path d="M5.90663 0L9.90611 0L9.90611 4L8.90611 4L8.90611 2.02036C8.53 2.52214 8.05435 2.94521 7.48131 3.28952C6.42722 3.92288 5.29373 4.13808 4.08087 3.93512C2.86801 3.73215 1.86635 3.15965 1.076 2.21762C0.516983 1.55154 0.158356 0.813568 0 0L1.02588 0C1.16924 0.573608 1.44126 1.09732 1.84193 1.57483C2.4743 2.32846 3.27562 2.78645 4.246 2.94882C5.21622 3.11121 6.123 2.93904 6.96626 2.43236C7.57474 2.06675 8.04496 1.59016 8.37691 1L6.40611 1L5.90558 1L5.90663 0L5.90663 0Z" transform="translate(3.1 9)"/>
<path d="M9.90538 4L8.88 4C8.73096 3.4108 8.44398 2.86938 8.01884 2.38031C7.37341 1.63783 6.56422 1.1939 5.59123 1.04848C4.61826 0.90306 3.71461 1.091 2.88033 1.61235C2.3 1.97479 1.85042 2.43799 1.53065 3L3.5 3L4 3L4 4L0 4L0 0.00454617L1 0L1 1.98764C1.36 1.50986 1.80984 1.10207 2.3504 0.764297C3.39328 0.11264 4.52283 -0.1223 5.74 0.06C6.95528 0.241225 7.96677 0.796157 8.77354 1.72424C9.36406 2.40356 9.74135 3.16366 9.90538 4L9.90538 4.00455Z" transform="translate(3 3)"/>
</g></svg>
