<?xml version="1.0" encoding="utf-8"?>
<svg width="16" height="16" viewBox="0 0 16 16" fill="gray" xmlns="http://www.w3.org/2000/svg">
<path d="M15 2.5C15 1.1191 13.8809 0 12.5 0L2.5 0C1.1191 0 0 1.1191 0 2.5L7.10543e-15 12.5C7.10543e-15 13.8809 1.1191 15 2.5 15L12.5 15C13.8809 15 15 13.8809 15 12.5L15 2.5L15 2.5ZM2.5 1L12.5 1C12.9143 1 13.2679 1.14642 13.5607 1.43927C13.8536 1.73211 14 2.08569 14 2.5L14 12.5C14 12.9143 13.8536 13.2679 13.5607 13.5607C13.2679 13.8536 12.9143 14 12.5 14L2.5 14C2.08569 14 1.73212 13.8536 1.43927 13.5607C1.14642 13.2679 1 12.9143 1 12.5L1 2.5C1 2.08569 1.14642 1.73211 1.43927 1.43927C1.73212 1.14642 2.08569 1 2.5 1L2.5 1Z" fill-rule="evenodd"/>
<path d="M4 0L5 0L5 4L9 4L9 5L5 5L5 9L4 9L4 5L0 5L0 4L4 4Z" transform="translate(3 3)"/>
</svg>
