<?xml version="1.0" encoding="utf-8"?>
<svg width="16" height="16" viewBox="0 0 16 16" fill="#808080" xmlns="http://www.w3.org/2000/svg">
<path d="M2.5 0C1.11929 0 0 1.11929 0 2.5C0 3.88071 1.11929 5 2.5 5C3.88071 5 5 3.88071 5 2.5C5 1.11929 3.88071 0 2.5 0C2.5 0 2.5 0 2.5 0ZM2.5 1C3.32843 1 4 1.67157 4 2.5C4 3.32843 3.32843 4 2.5 4C1.67157 4 1 3.32843 1 2.5C1 1.67157 1.67157 1 2.5 1C2.5 1 2.5 1 2.5 1Z" fill-rule="evenodd" transform="translate(1 9)"/>
<path d="M2.5 0C1.11929 0 0 1.11929 0 2.5C0 3.88071 1.11929 5 2.5 5C3.88071 5 5 3.88071 5 2.5C5 1.11929 3.88071 0 2.5 0C2.5 0 2.5 0 2.5 0ZM2.5 1C3.32843 1 4 1.67157 4 2.5C4 3.32843 3.32843 4 2.5 4C1.67157 4 1 3.32843 1 2.5C1 1.67157 1.67157 1 2.5 1C2.5 1 2.5 1 2.5 1Z" fill-rule="evenodd" transform="translate(10 2)"/>
<rect width="8" height="1" transform="translate(7 11)"/>
<rect width="8" height="1" transform="translate(1 4)"/>
</svg>
