<?xml version="1.0" encoding="utf-8"?>
<svg width="16" height="16" viewBox="0 0 16 16" fill="gray" xmlns="http://www.w3.org/2000/svg">
<path d="M2.5 0C1.1 0 0 1.1 0 2.5C0 3.9 1.1 5 2.5 5C3.9 5 5 3.9 5 2.5C5 1.1 3.9 0 2.5 0ZM2.5 1C3.3 1 4 1.7 4 2.5C4 3.3 3.3 4 2.5 4C1.7 4 1 3.3 1 2.5C1 1.7 1.7 1 2.5 1Z" fill-rule="evenodd" transform="translate(1 9)"/>
<path d="M2.5 0C1.1 0 0 1.1 0 2.5C0 3.9 1.1 5 2.5 5C3.9 5 5 3.9 5 2.5C5 1.1 3.9 0 2.5 0ZM2.5 1C3.3 1 4 1.7 4 2.5C4 3.3 3.3 4 2.5 4C1.7 4 1 3.3 1 2.5C1 1.7 1.7 1 2.5 1Z" fill-rule="evenodd" transform="translate(10 2)"/>
<rect width="8" height="1" x="7" y="11"/>
<rect width="8" height="1" x="1" y="4"/>
</svg>
