<svg version="1.1" viewBox="0 0 16 16" fill="gray" xmlns="http://www.w3.org/2000/svg">
 <path d="m8 3.8e-5c-2.1 0-4.11 0.82422-5.6055 2.3l2.72 4.707 4-6.914c-0.3672-0.0547-0.7344-0.082-1.1055-0.086zm2.1367 0.3-2.715 4.7h8c-0.9336-2.3-2.9-4.04-5.2734-4.7zm-8.4375 2.7852c-1.1 1.4-1.7 3.133-1.7 4.914 0 0.676 0.09 1.3477 0.26172 2h5.43zm8.61 2.914 4 6.914c1.1-1.4 1.7-3.1328 1.7-4.914 0-0.67578-0.09-1.3477-0.26172-2zm0.58 3-4 6.914c0.3672 0.0547 0.7344 0.082 1.1055 0.086 2.1 0 4.1094-0.82422 5.6055-2.3zm-10.3 2c0.9336 2.3 2.9 4.04 5.2734 4.7l2.715-4.7z"/>
</svg>
