<?xml version="1.0" encoding="utf-8"?>
<svg width="16" height="16" viewBox="0 0 16 16" fill="none" xmlns="http://www.w3.org/2000/svg">
<g fill="#808080">
<path d="M0 6L6 6L6 0L5 0L5 5L0 5L0 6L0 6Z" transform="translate(10 10)"/>
<path d="M0 6L6 6L6 5L1 5L1 0L0 0L0 6L0 6Z" transform="translate(0 10)"/>
<path d="M0 0L6 0L6 6L5 6L5 1L0 1L0 0L0 0Z" transform="translate(10 0)"/>
<path d="M0 0L6 0L6 1L1 1L1 6L0 6L0 0Z"/>
<path d="M4 0C1.79086 0 0 1.79086 0 4C0 6.20914 1.79086 8 4 8C6.20914 8 8 6.20914 8 4C8 1.79086 6.20914 0 4 0L4 0ZM1 4C1 2.34315 2.34315 1 4 1C5.65685 1 7 2.34315 7 4C7 5.65685 5.65685 7 4 7C2.34315 7 1 5.65685 1 4Z" fill-rule="evenodd" transform="translate(4 4)"/>
</g></svg>