<?xml version="1.0" encoding="utf-8"?>
<svg width="16" height="16" viewBox="0 0 16 16" fill="gray" xmlns="http://www.w3.org/2000/svg">
<path d="M10 16L16 16L16 10L15 10L15 15L10 15Z"/>
<path d="M10 0L16 0L16 6L15 6L15 1L10 1Z"/>
<path d="M0 16L6 16L6 15L1 15L1 10L0 10Z"/>
<path d="M0 0L6 0L6 1L1 1L1 6L0 6Z"/>
<path d="M4 0C1.8 0 0 1.8 0 4C0 6.2 1.8 8 4 8C6.2 8 8 6.2 8 4C8 1.8 6.2 0 4 0ZM1 4C1 2.3 2.3 1 4 1C5.7 1 7 2.3 7 4C7 5.7 5.7 7 4 7C2.3 7 1 5.7 1 4Z" fill-rule="evenodd" transform="translate(4 4)"/>
</svg>
